ISO-10303-21;
HEADER;
FILE_DESCRIPTION(('FreeCAD Model'),'2;1');
FILE_NAME('Open CASCADE Shape Model','2026-03-20T16:09:06',(''),(''),
  'Open CASCADE STEP processor 7.8','FreeCAD','Unknown');
FILE_SCHEMA(('AUTOMOTIVE_DESIGN { 1 0 10303 214 1 1 1 1 }'));
ENDSEC;
DATA;
#1 = APPLICATION_PROTOCOL_DEFINITION('international standard',
  'automotive_design',2000,#2);
#2 = APPLICATION_CONTEXT(
  'core data for automotive mechanical design processes');
#3 = SHAPE_DEFINITION_REPRESENTATION(#4,#10);
#4 = PRODUCT_DEFINITION_SHAPE('','',#5);
#5 = PRODUCT_DEFINITION('design','',#6,#9);
#6 = PRODUCT_DEFINITION_FORMATION('','',#7);
#7 = PRODUCT('Coarse Piezo Aligner 2','Coarse Piezo Aligner 2','',(#8));
#8 = PRODUCT_CONTEXT('',#2,'mechanical');
#9 = PRODUCT_DEFINITION_CONTEXT('part definition',#2,'design');
#10 = ADVANCED_BREP_SHAPE_REPRESENTATION('',(#11,#15),#415);
#11 = AXIS2_PLACEMENT_3D('',#12,#13,#14);
#12 = CARTESIAN_POINT('',(0.,0.,0.));
#13 = DIRECTION('',(0.,0.,1.));
#14 = DIRECTION('',(1.,0.,-0.));
#15 = MANIFOLD_SOLID_BREP('',#16);
#16 = CLOSED_SHELL('',(#17,#57,#122,#147,#203,#220,#251,#268,#285,#316,
    #334,#359,#383,#401));
#17 = ADVANCED_FACE('',(#18),#52,.T.);
#18 = FACE_BOUND('',#19,.T.);
#19 = EDGE_LOOP('',(#20,#30,#38,#46));
#20 = ORIENTED_EDGE('',*,*,#21,.F.);
#21 = EDGE_CURVE('',#22,#24,#26,.T.);
#22 = VERTEX_POINT('',#23);
#23 = CARTESIAN_POINT('',(3.351686142824,-3.889087296526,1.61));
#24 = VERTEX_POINT('',#25);
#25 = CARTESIAN_POINT('',(-0.889345699928,-1.847042020642,1.61));
#26 = LINE('',#27,#28);
#27 = CARTESIAN_POINT('',(1.706006949293,-3.096697249157,1.61));
#28 = VECTOR('',#29,1.);
#29 = DIRECTION('',(-0.90099610763,0.433827170697,9.130970534992E-17));
#30 = ORIENTED_EDGE('',*,*,#31,.T.);
#31 = EDGE_CURVE('',#22,#32,#34,.T.);
#32 = VERTEX_POINT('',#33);
#33 = CARTESIAN_POINT('',(3.351686142824,-3.889087296526,
    -4.440892098501E-16));
#34 = LINE('',#35,#36);
#35 = CARTESIAN_POINT('',(3.351686142824,-3.889087296526,3.5));
#36 = VECTOR('',#37,1.);
#37 = DIRECTION('',(-4.686520405326E-17,1.131426112288E-16,-1.));
#38 = ORIENTED_EDGE('',*,*,#39,.T.);
#39 = EDGE_CURVE('',#32,#40,#42,.T.);
#40 = VERTEX_POINT('',#41);
#41 = CARTESIAN_POINT('',(-0.889345699928,-1.847042020642,0.));
#42 = LINE('',#43,#44);
#43 = CARTESIAN_POINT('',(3.351686142824,-3.889087296526,
    -4.440892098501E-16));
#44 = VECTOR('',#45,1.);
#45 = DIRECTION('',(-0.90099610763,0.433827170697,9.130970534992E-17));
#46 = ORIENTED_EDGE('',*,*,#47,.F.);
#47 = EDGE_CURVE('',#24,#40,#48,.T.);
#48 = LINE('',#49,#50);
#49 = CARTESIAN_POINT('',(-0.889345699928,-1.847042020642,3.5));
#50 = VECTOR('',#51,1.);
#51 = DIRECTION('',(-4.686520405326E-17,1.131426112288E-16,-1.));
#52 = PLANE('',#53);
#53 = AXIS2_PLACEMENT_3D('',#54,#55,#56);
#54 = CARTESIAN_POINT('',(3.351686142824,-3.889087296526,3.5));
#55 = DIRECTION('',(0.433827170697,0.90099610763,8.160965344571E-17));
#56 = DIRECTION('',(-0.90099610763,0.433827170697,9.130970534992E-17));
#57 = ADVANCED_FACE('',(#58),#117,.F.);
#58 = FACE_BOUND('',#59,.F.);
#59 = EDGE_LOOP('',(#60,#70,#79,#87,#95,#103,#110,#111));
#60 = ORIENTED_EDGE('',*,*,#61,.F.);
#61 = EDGE_CURVE('',#62,#64,#66,.T.);
#62 = VERTEX_POINT('',#63);
#63 = CARTESIAN_POINT('',(-2.128391411372,-1.237436867076,1.61));
#64 = VERTEX_POINT('',#65);
#65 = CARTESIAN_POINT('',(1.937472580451,-5.303300858899,1.61));
#66 = LINE('',#67,#68);
#67 = CARTESIAN_POINT('',(-2.128391411372,-1.237436867076,1.61));
#68 = VECTOR('',#69,1.);
#69 = DIRECTION('',(0.707106781187,-0.707106781187,-1.131426112288E-16)
  );
#70 = ORIENTED_EDGE('',*,*,#71,.T.);
#71 = EDGE_CURVE('',#62,#72,#74,.T.);
#72 = VERTEX_POINT('',#73);
#73 = CARTESIAN_POINT('',(-2.128391411372,1.237436867076,1.61));
#74 = CIRCLE('',#75,1.75);
#75 = AXIS2_PLACEMENT_3D('',#76,#77,#78);
#76 = CARTESIAN_POINT('',(-3.365828278448,-1.098574807542E-15,1.61));
#77 = DIRECTION('',(-4.686520405326E-17,1.131426112288E-16,-1.));
#78 = DIRECTION('',(0.707106781187,0.707106781187,4.686520405326E-17));
#79 = ORIENTED_EDGE('',*,*,#80,.T.);
#80 = EDGE_CURVE('',#72,#81,#83,.T.);
#81 = VERTEX_POINT('',#82);
#82 = CARTESIAN_POINT('',(1.937472580451,5.303300858899,1.61));
#83 = LINE('',#84,#85);
#84 = CARTESIAN_POINT('',(-2.128391411372,1.237436867076,1.61));
#85 = VECTOR('',#86,1.);
#86 = DIRECTION('',(0.707106781187,0.707106781187,4.686520405326E-17));
#87 = ORIENTED_EDGE('',*,*,#88,.F.);
#88 = EDGE_CURVE('',#89,#81,#91,.T.);
#89 = VERTEX_POINT('',#90);
#90 = CARTESIAN_POINT('',(3.351686142824,3.889087296526,1.61));
#91 = LINE('',#92,#93);
#92 = CARTESIAN_POINT('',(7.24077343935,2.95373923234E-15,1.61));
#93 = VECTOR('',#94,1.);
#94 = DIRECTION('',(-0.707106781187,0.707106781187,1.131426112288E-16));
#95 = ORIENTED_EDGE('',*,*,#96,.T.);
#96 = EDGE_CURVE('',#89,#97,#99,.T.);
#97 = VERTEX_POINT('',#98);
#98 = CARTESIAN_POINT('',(-0.889345699928,1.847042020642,1.61));
#99 = LINE('',#100,#101);
#100 = CARTESIAN_POINT('',(1.706006949293,3.096697249157,1.61));
#101 = VECTOR('',#102,1.);
#102 = DIRECTION('',(-0.90099610763,-0.433827170697,-6.858972479325E-18)
  );
#103 = ORIENTED_EDGE('',*,*,#104,.T.);
#104 = EDGE_CURVE('',#97,#24,#105,.T.);
#105 = CIRCLE('',#106,2.05);
#106 = AXIS2_PLACEMENT_3D('',#107,#108,#109);
#107 = CARTESIAN_POINT('',(-8.857523566067E-17,2.138395352224E-16,1.61)
  );
#108 = DIRECTION('',(4.686520405326E-17,-1.131426112288E-16,1.));
#109 = DIRECTION('',(0.707106781187,0.707106781187,4.686520405326E-17));
#110 = ORIENTED_EDGE('',*,*,#21,.F.);
#111 = ORIENTED_EDGE('',*,*,#112,.F.);
#112 = EDGE_CURVE('',#64,#22,#113,.T.);
#113 = LINE('',#114,#115);
#114 = CARTESIAN_POINT('',(1.937472580451,-5.303300858899,1.61));
#115 = VECTOR('',#116,1.);
#116 = DIRECTION('',(0.707106781187,0.707106781187,4.686520405326E-17));
#117 = PLANE('',#118);
#118 = AXIS2_PLACEMENT_3D('',#119,#120,#121);
#119 = CARTESIAN_POINT('',(1.169845394408,6.975798576144E-16,1.61));
#120 = DIRECTION('',(-4.686520405326E-17,1.131426112288E-16,-1.));
#121 = DIRECTION('',(0.707106781187,0.707106781187,4.686520405326E-17));
#122 = ADVANCED_FACE('',(#123),#142,.F.);
#123 = FACE_BOUND('',#124,.T.);
#124 = EDGE_LOOP('',(#125,#126,#127,#136));
#125 = ORIENTED_EDGE('',*,*,#104,.T.);
#126 = ORIENTED_EDGE('',*,*,#47,.T.);
#127 = ORIENTED_EDGE('',*,*,#128,.T.);
#128 = EDGE_CURVE('',#40,#129,#131,.T.);
#129 = VERTEX_POINT('',#130);
#130 = CARTESIAN_POINT('',(-0.889345699928,1.847042020642,
    4.440892098501E-16));
#131 = CIRCLE('',#132,2.05);
#132 = AXIS2_PLACEMENT_3D('',#133,#134,#135);
#133 = CARTESIAN_POINT('',(-1.640282141864E-16,3.959991393007E-16,0.));
#134 = DIRECTION('',(-4.686520405326E-17,1.131426112288E-16,-1.));
#135 = DIRECTION('',(0.707106781187,0.707106781187,4.686520405326E-17));
#136 = ORIENTED_EDGE('',*,*,#137,.F.);
#137 = EDGE_CURVE('',#97,#129,#138,.T.);
#138 = LINE('',#139,#140);
#139 = CARTESIAN_POINT('',(-0.889345699928,1.847042020642,3.5));
#140 = VECTOR('',#141,1.);
#141 = DIRECTION('',(-4.686520405326E-17,1.131426112288E-16,-1.));
#142 = CYLINDRICAL_SURFACE('',#143,2.05);
#143 = AXIS2_PLACEMENT_3D('',#144,#145,#146);
#144 = CARTESIAN_POINT('',(0.,0.,3.5));
#145 = DIRECTION('',(4.686520405326E-17,-1.131426112288E-16,1.));
#146 = DIRECTION('',(0.707106781187,0.707106781187,4.686520405326E-17));
#147 = ADVANCED_FACE('',(#148),#198,.T.);
#148 = FACE_BOUND('',#149,.T.);
#149 = EDGE_LOOP('',(#150,#151,#159,#167,#175,#183,#191,#197));
#150 = ORIENTED_EDGE('',*,*,#39,.F.);
#151 = ORIENTED_EDGE('',*,*,#152,.F.);
#152 = EDGE_CURVE('',#153,#32,#155,.T.);
#153 = VERTEX_POINT('',#154);
#154 = CARTESIAN_POINT('',(1.937472580451,-5.303300858899,
    -8.881784197001E-16));
#155 = LINE('',#156,#157);
#156 = CARTESIAN_POINT('',(1.937472580451,-5.303300858899,
    -8.881784197001E-16));
#157 = VECTOR('',#158,1.);
#158 = DIRECTION('',(0.707106781187,0.707106781187,4.686520405326E-17));
#159 = ORIENTED_EDGE('',*,*,#160,.T.);
#160 = EDGE_CURVE('',#153,#161,#163,.T.);
#161 = VERTEX_POINT('',#162);
#162 = CARTESIAN_POINT('',(-7.365828278448,-5.303300858899,
    -4.440892098501E-16));
#163 = LINE('',#164,#165);
#164 = CARTESIAN_POINT('',(1.937472580451,-5.303300858899,
    -8.881784197001E-16));
#165 = VECTOR('',#166,1.);
#166 = DIRECTION('',(-1.,-6.369388627667E-16,4.686520405326E-17));
#167 = ORIENTED_EDGE('',*,*,#168,.T.);
#168 = EDGE_CURVE('',#161,#169,#171,.T.);
#169 = VERTEX_POINT('',#170);
#170 = CARTESIAN_POINT('',(-7.365828278448,5.303300858899,
    8.881784197001E-16));
#171 = LINE('',#172,#173);
#172 = CARTESIAN_POINT('',(-7.365828278448,-5.303300858899,
    -4.440892098501E-16));
#173 = VECTOR('',#174,1.);
#174 = DIRECTION('',(-3.106957642168E-16,1.,1.131426112288E-16));
#175 = ORIENTED_EDGE('',*,*,#176,.F.);
#176 = EDGE_CURVE('',#177,#169,#179,.T.);
#177 = VERTEX_POINT('',#178);
#178 = CARTESIAN_POINT('',(1.937472580451,5.303300858899,
    4.440892098501E-16));
#179 = LINE('',#180,#181);
#180 = CARTESIAN_POINT('',(1.937472580451,5.303300858899,
    4.440892098501E-16));
#181 = VECTOR('',#182,1.);
#182 = DIRECTION('',(-1.,-6.369388627667E-16,4.686520405326E-17));
#183 = ORIENTED_EDGE('',*,*,#184,.T.);
#184 = EDGE_CURVE('',#177,#185,#187,.T.);
#185 = VERTEX_POINT('',#186);
#186 = CARTESIAN_POINT('',(3.351686142824,3.889087296526,
    4.440892098501E-16));
#187 = LINE('',#188,#189);
#188 = CARTESIAN_POINT('',(1.937472580451,5.303300858899,
    4.440892098501E-16));
#189 = VECTOR('',#190,1.);
#190 = DIRECTION('',(0.707106781187,-0.707106781187,-1.131426112288E-16)
  );
#191 = ORIENTED_EDGE('',*,*,#192,.T.);
#192 = EDGE_CURVE('',#185,#129,#193,.T.);
#193 = LINE('',#194,#195);
#194 = CARTESIAN_POINT('',(3.351686142824,3.889087296526,
    4.440892098501E-16));
#195 = VECTOR('',#196,1.);
#196 = DIRECTION('',(-0.90099610763,-0.433827170697,-6.858972479325E-18)
  );
#197 = ORIENTED_EDGE('',*,*,#128,.F.);
#198 = PLANE('',#199);
#199 = AXIS2_PLACEMENT_3D('',#200,#201,#202);
#200 = CARTESIAN_POINT('',(-2.40886502674,-9.661924793064E-16,0.));
#201 = DIRECTION('',(-4.686520405326E-17,1.131426112288E-16,-1.));
#202 = DIRECTION('',(0.707106781187,0.707106781187,4.686520405326E-17));
#203 = ADVANCED_FACE('',(#204),#215,.T.);
#204 = FACE_BOUND('',#205,.T.);
#205 = EDGE_LOOP('',(#206,#207,#213,#214));
#206 = ORIENTED_EDGE('',*,*,#112,.F.);
#207 = ORIENTED_EDGE('',*,*,#208,.T.);
#208 = EDGE_CURVE('',#64,#153,#209,.T.);
#209 = LINE('',#210,#211);
#210 = CARTESIAN_POINT('',(1.937472580451,-5.303300858899,3.5));
#211 = VECTOR('',#212,1.);
#212 = DIRECTION('',(-4.686520405326E-17,1.131426112288E-16,-1.));
#213 = ORIENTED_EDGE('',*,*,#152,.T.);
#214 = ORIENTED_EDGE('',*,*,#31,.F.);
#215 = PLANE('',#216);
#216 = AXIS2_PLACEMENT_3D('',#217,#218,#219);
#217 = CARTESIAN_POINT('',(1.937472580451,-5.303300858899,3.5));
#218 = DIRECTION('',(0.707106781187,-0.707106781187,-1.131426112288E-16)
  );
#219 = DIRECTION('',(0.707106781187,0.707106781187,4.686520405326E-17));
#220 = ADVANCED_FACE('',(#221),#246,.F.);
#221 = FACE_BOUND('',#222,.F.);
#222 = EDGE_LOOP('',(#223,#231,#232,#240));
#223 = ORIENTED_EDGE('',*,*,#224,.T.);
#224 = EDGE_CURVE('',#225,#62,#227,.T.);
#225 = VERTEX_POINT('',#226);
#226 = CARTESIAN_POINT('',(-2.128391411372,-1.237436867076,3.5));
#227 = LINE('',#228,#229);
#228 = CARTESIAN_POINT('',(-2.128391411372,-1.237436867076,3.5));
#229 = VECTOR('',#230,1.);
#230 = DIRECTION('',(-4.686520405326E-17,1.131426112288E-16,-1.));
#231 = ORIENTED_EDGE('',*,*,#61,.T.);
#232 = ORIENTED_EDGE('',*,*,#233,.F.);
#233 = EDGE_CURVE('',#234,#64,#236,.T.);
#234 = VERTEX_POINT('',#235);
#235 = CARTESIAN_POINT('',(1.937472580451,-5.303300858899,3.5));
#236 = LINE('',#237,#238);
#237 = CARTESIAN_POINT('',(1.937472580451,-5.303300858899,3.5));
#238 = VECTOR('',#239,1.);
#239 = DIRECTION('',(-4.686520405326E-17,1.131426112288E-16,-1.));
#240 = ORIENTED_EDGE('',*,*,#241,.F.);
#241 = EDGE_CURVE('',#225,#234,#242,.T.);
#242 = LINE('',#243,#244);
#243 = CARTESIAN_POINT('',(-2.128391411372,-1.237436867076,3.5));
#244 = VECTOR('',#245,1.);
#245 = DIRECTION('',(0.707106781187,-0.707106781187,-1.131426112288E-16)
  );
#246 = PLANE('',#247);
#247 = AXIS2_PLACEMENT_3D('',#248,#249,#250);
#248 = CARTESIAN_POINT('',(-2.128391411372,-1.237436867076,3.5));
#249 = DIRECTION('',(-0.707106781187,-0.707106781187,-4.686520405326E-17
    ));
#250 = DIRECTION('',(0.707106781187,-0.707106781187,-1.131426112288E-16)
  );
#251 = ADVANCED_FACE('',(#252),#263,.F.);
#252 = FACE_BOUND('',#253,.F.);
#253 = EDGE_LOOP('',(#254,#255,#261,#262));
#254 = ORIENTED_EDGE('',*,*,#96,.F.);
#255 = ORIENTED_EDGE('',*,*,#256,.T.);
#256 = EDGE_CURVE('',#89,#185,#257,.T.);
#257 = LINE('',#258,#259);
#258 = CARTESIAN_POINT('',(3.351686142824,3.889087296526,3.5));
#259 = VECTOR('',#260,1.);
#260 = DIRECTION('',(-4.686520405326E-17,1.131426112288E-16,-1.));
#261 = ORIENTED_EDGE('',*,*,#192,.T.);
#262 = ORIENTED_EDGE('',*,*,#137,.F.);
#263 = PLANE('',#264);
#264 = AXIS2_PLACEMENT_3D('',#265,#266,#267);
#265 = CARTESIAN_POINT('',(3.351686142824,3.889087296526,3.5));
#266 = DIRECTION('',(-0.433827170697,0.90099610763,1.222724512028E-16));
#267 = DIRECTION('',(-0.90099610763,-0.433827170697,-6.858972479325E-18)
  );
#268 = ADVANCED_FACE('',(#269),#280,.F.);
#269 = FACE_BOUND('',#270,.F.);
#270 = EDGE_LOOP('',(#271,#272,#278,#279));
#271 = ORIENTED_EDGE('',*,*,#88,.T.);
#272 = ORIENTED_EDGE('',*,*,#273,.T.);
#273 = EDGE_CURVE('',#81,#177,#274,.T.);
#274 = LINE('',#275,#276);
#275 = CARTESIAN_POINT('',(1.937472580451,5.303300858899,3.5));
#276 = VECTOR('',#277,1.);
#277 = DIRECTION('',(-4.686520405326E-17,1.131426112288E-16,-1.));
#278 = ORIENTED_EDGE('',*,*,#184,.T.);
#279 = ORIENTED_EDGE('',*,*,#256,.F.);
#280 = PLANE('',#281);
#281 = AXIS2_PLACEMENT_3D('',#282,#283,#284);
#282 = CARTESIAN_POINT('',(1.937472580451,5.303300858899,3.5));
#283 = DIRECTION('',(-0.707106781187,-0.707106781187,-4.686520405326E-17
    ));
#284 = DIRECTION('',(0.707106781187,-0.707106781187,-1.131426112288E-16)
  );
#285 = ADVANCED_FACE('',(#286),#311,.T.);
#286 = FACE_BOUND('',#287,.T.);
#287 = EDGE_LOOP('',(#288,#296,#297,#305));
#288 = ORIENTED_EDGE('',*,*,#289,.T.);
#289 = EDGE_CURVE('',#290,#72,#292,.T.);
#290 = VERTEX_POINT('',#291);
#291 = CARTESIAN_POINT('',(-2.128391411372,1.237436867076,3.5));
#292 = LINE('',#293,#294);
#293 = CARTESIAN_POINT('',(-2.128391411372,1.237436867076,3.5));
#294 = VECTOR('',#295,1.);
#295 = DIRECTION('',(-4.686520405326E-17,1.131426112288E-16,-1.));
#296 = ORIENTED_EDGE('',*,*,#80,.T.);
#297 = ORIENTED_EDGE('',*,*,#298,.F.);
#298 = EDGE_CURVE('',#299,#81,#301,.T.);
#299 = VERTEX_POINT('',#300);
#300 = CARTESIAN_POINT('',(1.937472580451,5.303300858899,3.5));
#301 = LINE('',#302,#303);
#302 = CARTESIAN_POINT('',(1.937472580451,5.303300858899,3.5));
#303 = VECTOR('',#304,1.);
#304 = DIRECTION('',(-4.686520405326E-17,1.131426112288E-16,-1.));
#305 = ORIENTED_EDGE('',*,*,#306,.F.);
#306 = EDGE_CURVE('',#290,#299,#307,.T.);
#307 = LINE('',#308,#309);
#308 = CARTESIAN_POINT('',(-2.128391411372,1.237436867076,3.5));
#309 = VECTOR('',#310,1.);
#310 = DIRECTION('',(0.707106781187,0.707106781187,4.686520405326E-17));
#311 = PLANE('',#312);
#312 = AXIS2_PLACEMENT_3D('',#313,#314,#315);
#313 = CARTESIAN_POINT('',(-2.128391411372,1.237436867076,3.5));
#314 = DIRECTION('',(0.707106781187,-0.707106781187,-1.131426112288E-16)
  );
#315 = DIRECTION('',(0.707106781187,0.707106781187,4.686520405326E-17));
#316 = ADVANCED_FACE('',(#317),#329,.F.);
#317 = FACE_BOUND('',#318,.T.);
#318 = EDGE_LOOP('',(#319,#320,#321,#322));
#319 = ORIENTED_EDGE('',*,*,#224,.T.);
#320 = ORIENTED_EDGE('',*,*,#71,.T.);
#321 = ORIENTED_EDGE('',*,*,#289,.F.);
#322 = ORIENTED_EDGE('',*,*,#323,.F.);
#323 = EDGE_CURVE('',#225,#290,#324,.T.);
#324 = CIRCLE('',#325,1.75);
#325 = AXIS2_PLACEMENT_3D('',#326,#327,#328);
#326 = CARTESIAN_POINT('',(-3.365828278448,-1.312414342765E-15,3.5));
#327 = DIRECTION('',(-4.686520405326E-17,1.131426112288E-16,-1.));
#328 = DIRECTION('',(0.707106781187,0.707106781187,4.686520405326E-17));
#329 = CYLINDRICAL_SURFACE('',#330,1.75);
#330 = AXIS2_PLACEMENT_3D('',#331,#332,#333);
#331 = CARTESIAN_POINT('',(-3.365828278448,-1.312414342765E-15,3.5));
#332 = DIRECTION('',(4.686520405326E-17,-1.131426112288E-16,1.));
#333 = DIRECTION('',(0.707106781187,0.707106781187,4.686520405326E-17));
#334 = ADVANCED_FACE('',(#335),#354,.F.);
#335 = FACE_BOUND('',#336,.F.);
#336 = EDGE_LOOP('',(#337,#338,#339,#340,#348));
#337 = ORIENTED_EDGE('',*,*,#233,.T.);
#338 = ORIENTED_EDGE('',*,*,#208,.T.);
#339 = ORIENTED_EDGE('',*,*,#160,.T.);
#340 = ORIENTED_EDGE('',*,*,#341,.F.);
#341 = EDGE_CURVE('',#342,#161,#344,.T.);
#342 = VERTEX_POINT('',#343);
#343 = CARTESIAN_POINT('',(-7.365828278448,-5.303300858899,3.5));
#344 = LINE('',#345,#346);
#345 = CARTESIAN_POINT('',(-7.365828278448,-5.303300858899,3.5));
#346 = VECTOR('',#347,1.);
#347 = DIRECTION('',(-4.686520405326E-17,1.131426112288E-16,-1.));
#348 = ORIENTED_EDGE('',*,*,#349,.F.);
#349 = EDGE_CURVE('',#234,#342,#350,.T.);
#350 = LINE('',#351,#352);
#351 = CARTESIAN_POINT('',(1.937472580451,-5.303300858899,3.5));
#352 = VECTOR('',#353,1.);
#353 = DIRECTION('',(-1.,-6.369388627667E-16,4.686520405326E-17));
#354 = PLANE('',#355);
#355 = AXIS2_PLACEMENT_3D('',#356,#357,#358);
#356 = CARTESIAN_POINT('',(1.937472580451,-5.303300858899,3.5));
#357 = DIRECTION('',(-5.787273125477E-16,1.,1.131426112288E-16));
#358 = DIRECTION('',(-1.,-6.369388627667E-16,4.686520405326E-17));
#359 = ADVANCED_FACE('',(#360),#378,.F.);
#360 = FACE_BOUND('',#361,.F.);
#361 = EDGE_LOOP('',(#362,#363,#364,#372));
#362 = ORIENTED_EDGE('',*,*,#341,.T.);
#363 = ORIENTED_EDGE('',*,*,#168,.T.);
#364 = ORIENTED_EDGE('',*,*,#365,.F.);
#365 = EDGE_CURVE('',#366,#169,#368,.T.);
#366 = VERTEX_POINT('',#367);
#367 = CARTESIAN_POINT('',(-7.365828278448,5.303300858899,3.5));
#368 = LINE('',#369,#370);
#369 = CARTESIAN_POINT('',(-7.365828278448,5.303300858899,3.5));
#370 = VECTOR('',#371,1.);
#371 = DIRECTION('',(-4.686520405326E-17,1.131426112288E-16,-1.));
#372 = ORIENTED_EDGE('',*,*,#373,.F.);
#373 = EDGE_CURVE('',#342,#366,#374,.T.);
#374 = LINE('',#375,#376);
#375 = CARTESIAN_POINT('',(-7.365828278448,-5.303300858899,3.5));
#376 = VECTOR('',#377,1.);
#377 = DIRECTION('',(-3.106957642168E-16,1.,1.131426112288E-16));
#378 = PLANE('',#379);
#379 = AXIS2_PLACEMENT_3D('',#380,#381,#382);
#380 = CARTESIAN_POINT('',(-7.365828278448,-5.303300858899,3.5));
#381 = DIRECTION('',(1.,3.919007861388E-16,-4.686520405326E-17));
#382 = DIRECTION('',(-3.106957642168E-16,1.,1.131426112288E-16));
#383 = ADVANCED_FACE('',(#384),#396,.T.);
#384 = FACE_BOUND('',#385,.T.);
#385 = EDGE_LOOP('',(#386,#387,#388,#389,#390));
#386 = ORIENTED_EDGE('',*,*,#298,.T.);
#387 = ORIENTED_EDGE('',*,*,#273,.T.);
#388 = ORIENTED_EDGE('',*,*,#176,.T.);
#389 = ORIENTED_EDGE('',*,*,#365,.F.);
#390 = ORIENTED_EDGE('',*,*,#391,.F.);
#391 = EDGE_CURVE('',#299,#366,#392,.T.);
#392 = LINE('',#393,#394);
#393 = CARTESIAN_POINT('',(1.937472580451,5.303300858899,3.5));
#394 = VECTOR('',#395,1.);
#395 = DIRECTION('',(-1.,-6.369388627667E-16,4.686520405326E-17));
#396 = PLANE('',#397);
#397 = AXIS2_PLACEMENT_3D('',#398,#399,#400);
#398 = CARTESIAN_POINT('',(1.937472580451,5.303300858899,3.5));
#399 = DIRECTION('',(-5.787273125477E-16,1.,1.131426112288E-16));
#400 = DIRECTION('',(-1.,-6.369388627667E-16,4.686520405326E-17));
#401 = ADVANCED_FACE('',(#402),#410,.F.);
#402 = FACE_BOUND('',#403,.F.);
#403 = EDGE_LOOP('',(#404,#405,#406,#407,#408,#409));
#404 = ORIENTED_EDGE('',*,*,#241,.T.);
#405 = ORIENTED_EDGE('',*,*,#349,.T.);
#406 = ORIENTED_EDGE('',*,*,#373,.T.);
#407 = ORIENTED_EDGE('',*,*,#391,.F.);
#408 = ORIENTED_EDGE('',*,*,#306,.F.);
#409 = ORIENTED_EDGE('',*,*,#323,.F.);
#410 = PLANE('',#411);
#411 = AXIS2_PLACEMENT_3D('',#412,#413,#414);
#412 = CARTESIAN_POINT('',(-2.40886502674,-1.362191618607E-15,3.5));
#413 = DIRECTION('',(-4.686520405326E-17,1.131426112288E-16,-1.));
#414 = DIRECTION('',(0.707106781187,0.707106781187,4.686520405326E-17));
#415 = ( GEOMETRIC_REPRESENTATION_CONTEXT(3) 
GLOBAL_UNCERTAINTY_ASSIGNED_CONTEXT((#419)) GLOBAL_UNIT_ASSIGNED_CONTEXT
((#416,#417,#418)) REPRESENTATION_CONTEXT('Context #1',
  '3D Context with UNIT and UNCERTAINTY') );
#416 = ( LENGTH_UNIT() NAMED_UNIT(*) SI_UNIT(.MILLI.,.METRE.) );
#417 = ( NAMED_UNIT(*) PLANE_ANGLE_UNIT() SI_UNIT($,.RADIAN.) );
#418 = ( NAMED_UNIT(*) SI_UNIT($,.STERADIAN.) SOLID_ANGLE_UNIT() );
#419 = UNCERTAINTY_MEASURE_WITH_UNIT(LENGTH_MEASURE(2.E-06),#416,
  'distance_accuracy_value','confusion accuracy');
#420 = PRODUCT_RELATED_PRODUCT_CATEGORY('part',$,(#7));
#421 = MECHANICAL_DESIGN_GEOMETRIC_PRESENTATION_REPRESENTATION('',(#422)
  ,#415);
#422 = STYLED_ITEM('color',(#423),#15);
#423 = PRESENTATION_STYLE_ASSIGNMENT((#424,#430));
#424 = SURFACE_STYLE_USAGE(.BOTH.,#425);
#425 = SURFACE_SIDE_STYLE('',(#426));
#426 = SURFACE_STYLE_FILL_AREA(#427);
#427 = FILL_AREA_STYLE('',(#428));
#428 = FILL_AREA_STYLE_COLOUR('',#429);
#429 = COLOUR_RGB('',0.662745111292,0.674509824316,0.713725498821);
#430 = CURVE_STYLE('',#431,POSITIVE_LENGTH_MEASURE(0.1),#432);
#431 = DRAUGHTING_PRE_DEFINED_CURVE_FONT('continuous');
#432 = COLOUR_RGB('',9.803921802644E-02,9.803921802644E-02,
  9.803921802644E-02);
ENDSEC;
END-ISO-10303-21;
