ISO-10303-21;
HEADER;
FILE_DESCRIPTION(('FreeCAD Model'),'2;1');
FILE_NAME('Open CASCADE Shape Model','2026-03-20T16:03:03',(''),(''),
  'Open CASCADE STEP processor 7.8','FreeCAD','Unknown');
FILE_SCHEMA(('AUTOMOTIVE_DESIGN { 1 0 10303 214 1 1 1 1 }'));
ENDSEC;
DATA;
#1 = APPLICATION_PROTOCOL_DEFINITION('international standard',
  'automotive_design',2000,#2);
#2 = APPLICATION_CONTEXT(
  'core data for automotive mechanical design processes');
#3 = SHAPE_DEFINITION_REPRESENTATION(#4,#10);
#4 = PRODUCT_DEFINITION_SHAPE('','',#5);
#5 = PRODUCT_DEFINITION('design','',#6,#9);
#6 = PRODUCT_DEFINITION_FORMATION('','',#7);
#7 = PRODUCT('Coarse Z Slider','Coarse Z Slider','',(#8));
#8 = PRODUCT_CONTEXT('',#2,'mechanical');
#9 = PRODUCT_DEFINITION_CONTEXT('part definition',#2,'design');
#10 = ADVANCED_BREP_SHAPE_REPRESENTATION('',(#11,#15),#330);
#11 = AXIS2_PLACEMENT_3D('',#12,#13,#14);
#12 = CARTESIAN_POINT('',(0.,0.,0.));
#13 = DIRECTION('',(0.,0.,1.));
#14 = DIRECTION('',(1.,0.,-0.));
#15 = MANIFOLD_SOLID_BREP('',#16);
#16 = CLOSED_SHELL('',(#17,#57,#128,#199,#216,#233,#250,#267,#284,#301,
    #318));
#17 = ADVANCED_FACE('',(#18),#52,.T.);
#18 = FACE_BOUND('',#19,.T.);
#19 = EDGE_LOOP('',(#20,#30,#38,#46));
#20 = ORIENTED_EDGE('',*,*,#21,.T.);
#21 = EDGE_CURVE('',#22,#24,#26,.T.);
#22 = VERTEX_POINT('',#23);
#23 = CARTESIAN_POINT('',(-7.65,12.42,-1.521011324541E-15));
#24 = VERTEX_POINT('',#25);
#25 = CARTESIAN_POINT('',(-7.65,12.42,-3.));
#26 = LINE('',#27,#28);
#27 = CARTESIAN_POINT('',(-7.65,12.42,-1.521011324541E-15));
#28 = VECTOR('',#29,1.);
#29 = DIRECTION('',(0.,-1.224646799147E-16,-1.));
#30 = ORIENTED_EDGE('',*,*,#31,.T.);
#31 = EDGE_CURVE('',#24,#32,#34,.T.);
#32 = VERTEX_POINT('',#33);
#33 = CARTESIAN_POINT('',(-7.65,-12.42,-3.));
#34 = LINE('',#35,#36);
#35 = CARTESIAN_POINT('',(-7.65,12.42,-3.));
#36 = VECTOR('',#37,1.);
#37 = DIRECTION('',(0.,-1.,1.224646799147E-16));
#38 = ORIENTED_EDGE('',*,*,#39,.F.);
#39 = EDGE_CURVE('',#40,#32,#42,.T.);
#40 = VERTEX_POINT('',#41);
#41 = CARTESIAN_POINT('',(-7.65,-12.42,1.521011324541E-15));
#42 = LINE('',#43,#44);
#43 = CARTESIAN_POINT('',(-7.65,-12.42,1.521011324541E-15));
#44 = VECTOR('',#45,1.);
#45 = DIRECTION('',(0.,-1.224646799147E-16,-1.));
#46 = ORIENTED_EDGE('',*,*,#47,.F.);
#47 = EDGE_CURVE('',#22,#40,#48,.T.);
#48 = LINE('',#49,#50);
#49 = CARTESIAN_POINT('',(-7.65,12.42,-1.521011324541E-15));
#50 = VECTOR('',#51,1.);
#51 = DIRECTION('',(0.,-1.,1.224646799147E-16));
#52 = PLANE('',#53);
#53 = AXIS2_PLACEMENT_3D('',#54,#55,#56);
#54 = CARTESIAN_POINT('',(-7.65,12.42,-1.521011324541E-15));
#55 = DIRECTION('',(-1.,0.,0.));
#56 = DIRECTION('',(0.,-1.,1.224646799147E-16));
#57 = ADVANCED_FACE('',(#58),#123,.F.);
#58 = FACE_BOUND('',#59,.F.);
#59 = EDGE_LOOP('',(#60,#68,#69,#77,#85,#93,#101,#109,#117));
#60 = ORIENTED_EDGE('',*,*,#61,.F.);
#61 = EDGE_CURVE('',#22,#62,#64,.T.);
#62 = VERTEX_POINT('',#63);
#63 = CARTESIAN_POINT('',(-6.65,12.42,-2.521011324541E-15));
#64 = LINE('',#65,#66);
#65 = CARTESIAN_POINT('',(-7.65,12.42,-1.521011324541E-15));
#66 = VECTOR('',#67,1.);
#67 = DIRECTION('',(1.,0.,0.));
#68 = ORIENTED_EDGE('',*,*,#21,.T.);
#69 = ORIENTED_EDGE('',*,*,#70,.T.);
#70 = EDGE_CURVE('',#24,#71,#73,.T.);
#71 = VERTEX_POINT('',#72);
#72 = CARTESIAN_POINT('',(12.3,12.42,-3.));
#73 = LINE('',#74,#75);
#74 = CARTESIAN_POINT('',(-7.65,12.42,-3.));
#75 = VECTOR('',#76,1.);
#76 = DIRECTION('',(1.,0.,0.));
#77 = ORIENTED_EDGE('',*,*,#78,.F.);
#78 = EDGE_CURVE('',#79,#71,#81,.T.);
#79 = VERTEX_POINT('',#80);
#80 = CARTESIAN_POINT('',(12.3,12.42,-0.56));
#81 = LINE('',#82,#83);
#82 = CARTESIAN_POINT('',(12.3,12.42,-1.521011324541E-15));
#83 = VECTOR('',#84,1.);
#84 = DIRECTION('',(0.,-1.224646799147E-16,-1.));
#85 = ORIENTED_EDGE('',*,*,#86,.F.);
#86 = EDGE_CURVE('',#87,#79,#89,.T.);
#87 = VERTEX_POINT('',#88);
#88 = CARTESIAN_POINT('',(7.3,12.42,-0.56));
#89 = LINE('',#90,#91);
#90 = CARTESIAN_POINT('',(1.075,12.42,-0.56));
#91 = VECTOR('',#92,1.);
#92 = DIRECTION('',(1.,0.,0.));
#93 = ORIENTED_EDGE('',*,*,#94,.F.);
#94 = EDGE_CURVE('',#95,#87,#97,.T.);
#95 = VERTEX_POINT('',#96);
#96 = CARTESIAN_POINT('',(7.3,12.42,-2.521011324541E-15));
#97 = LINE('',#98,#99);
#98 = CARTESIAN_POINT('',(7.3,12.42,-0.14));
#99 = VECTOR('',#100,1.);
#100 = DIRECTION('',(0.,-1.224646799147E-16,-1.));
#101 = ORIENTED_EDGE('',*,*,#102,.F.);
#102 = EDGE_CURVE('',#103,#95,#105,.T.);
#103 = VERTEX_POINT('',#104);
#104 = CARTESIAN_POINT('',(-3.65,12.42,-2.521011324541E-15));
#105 = LINE('',#106,#107);
#106 = CARTESIAN_POINT('',(-7.65,12.42,-1.521011324541E-15));
#107 = VECTOR('',#108,1.);
#108 = DIRECTION('',(1.,0.,0.));
#109 = ORIENTED_EDGE('',*,*,#110,.F.);
#110 = EDGE_CURVE('',#111,#103,#113,.T.);
#111 = VERTEX_POINT('',#112);
#112 = CARTESIAN_POINT('',(-5.15,12.42,-0.866025403784));
#113 = LINE('',#114,#115);
#114 = CARTESIAN_POINT('',(-5.525,12.42,-1.082531754731));
#115 = VECTOR('',#116,1.);
#116 = DIRECTION('',(0.866025403784,6.123233995737E-17,0.5));
#117 = ORIENTED_EDGE('',*,*,#118,.F.);
#118 = EDGE_CURVE('',#62,#111,#119,.T.);
#119 = LINE('',#120,#121);
#120 = CARTESIAN_POINT('',(-6.65,12.42,-4.051011324541E-15));
#121 = VECTOR('',#122,1.);
#122 = DIRECTION('',(0.866025403784,-6.123233995737E-17,-0.5));
#123 = PLANE('',#124);
#124 = AXIS2_PLACEMENT_3D('',#125,#126,#127);
#125 = CARTESIAN_POINT('',(-7.65,12.42,-1.521011324541E-15));
#126 = DIRECTION('',(0.,-1.,1.224646799147E-16));
#127 = DIRECTION('',(1.,0.,0.));
#128 = ADVANCED_FACE('',(#129),#194,.T.);
#129 = FACE_BOUND('',#130,.T.);
#130 = EDGE_LOOP('',(#131,#139,#140,#148,#156,#164,#172,#180,#188));
#131 = ORIENTED_EDGE('',*,*,#132,.F.);
#132 = EDGE_CURVE('',#40,#133,#135,.T.);
#133 = VERTEX_POINT('',#134);
#134 = CARTESIAN_POINT('',(-6.65,-12.42,2.521011324541E-15));
#135 = LINE('',#136,#137);
#136 = CARTESIAN_POINT('',(-7.65,-12.42,1.521011324541E-15));
#137 = VECTOR('',#138,1.);
#138 = DIRECTION('',(1.,0.,0.));
#139 = ORIENTED_EDGE('',*,*,#39,.T.);
#140 = ORIENTED_EDGE('',*,*,#141,.T.);
#141 = EDGE_CURVE('',#32,#142,#144,.T.);
#142 = VERTEX_POINT('',#143);
#143 = CARTESIAN_POINT('',(12.3,-12.42,-3.));
#144 = LINE('',#145,#146);
#145 = CARTESIAN_POINT('',(-7.65,-12.42,-3.));
#146 = VECTOR('',#147,1.);
#147 = DIRECTION('',(1.,0.,0.));
#148 = ORIENTED_EDGE('',*,*,#149,.F.);
#149 = EDGE_CURVE('',#150,#142,#152,.T.);
#150 = VERTEX_POINT('',#151);
#151 = CARTESIAN_POINT('',(12.3,-12.42,-0.56));
#152 = LINE('',#153,#154);
#153 = CARTESIAN_POINT('',(12.3,-12.42,1.521011324541E-15));
#154 = VECTOR('',#155,1.);
#155 = DIRECTION('',(0.,-1.224646799147E-16,-1.));
#156 = ORIENTED_EDGE('',*,*,#157,.F.);
#157 = EDGE_CURVE('',#158,#150,#160,.T.);
#158 = VERTEX_POINT('',#159);
#159 = CARTESIAN_POINT('',(7.3,-12.42,-0.56));
#160 = LINE('',#161,#162);
#161 = CARTESIAN_POINT('',(1.075,-12.42,-0.56));
#162 = VECTOR('',#163,1.);
#163 = DIRECTION('',(1.,0.,0.));
#164 = ORIENTED_EDGE('',*,*,#165,.F.);
#165 = EDGE_CURVE('',#166,#158,#168,.T.);
#166 = VERTEX_POINT('',#167);
#167 = CARTESIAN_POINT('',(7.3,-12.42,2.521011324541E-15));
#168 = LINE('',#169,#170);
#169 = CARTESIAN_POINT('',(7.3,-12.42,-0.14));
#170 = VECTOR('',#171,1.);
#171 = DIRECTION('',(0.,-1.224646799147E-16,-1.));
#172 = ORIENTED_EDGE('',*,*,#173,.F.);
#173 = EDGE_CURVE('',#174,#166,#176,.T.);
#174 = VERTEX_POINT('',#175);
#175 = CARTESIAN_POINT('',(-3.65,-12.42,2.521011324541E-15));
#176 = LINE('',#177,#178);
#177 = CARTESIAN_POINT('',(-7.65,-12.42,1.521011324541E-15));
#178 = VECTOR('',#179,1.);
#179 = DIRECTION('',(1.,0.,0.));
#180 = ORIENTED_EDGE('',*,*,#181,.F.);
#181 = EDGE_CURVE('',#182,#174,#184,.T.);
#182 = VERTEX_POINT('',#183);
#183 = CARTESIAN_POINT('',(-5.15,-12.42,-0.866025403784));
#184 = LINE('',#185,#186);
#185 = CARTESIAN_POINT('',(-5.525,-12.42,-1.082531754731));
#186 = VECTOR('',#187,1.);
#187 = DIRECTION('',(0.866025403784,6.123233995737E-17,0.5));
#188 = ORIENTED_EDGE('',*,*,#189,.F.);
#189 = EDGE_CURVE('',#133,#182,#190,.T.);
#190 = LINE('',#191,#192);
#191 = CARTESIAN_POINT('',(-6.65,-12.42,3.161011324541E-15));
#192 = VECTOR('',#193,1.);
#193 = DIRECTION('',(0.866025403784,-6.123233995737E-17,-0.5));
#194 = PLANE('',#195);
#195 = AXIS2_PLACEMENT_3D('',#196,#197,#198);
#196 = CARTESIAN_POINT('',(-7.65,-12.42,1.521011324541E-15));
#197 = DIRECTION('',(0.,-1.,1.224646799147E-16));
#198 = DIRECTION('',(1.,0.,0.));
#199 = ADVANCED_FACE('',(#200),#211,.F.);
#200 = FACE_BOUND('',#201,.F.);
#201 = EDGE_LOOP('',(#202,#203,#204,#210));
#202 = ORIENTED_EDGE('',*,*,#47,.F.);
#203 = ORIENTED_EDGE('',*,*,#61,.T.);
#204 = ORIENTED_EDGE('',*,*,#205,.T.);
#205 = EDGE_CURVE('',#62,#133,#206,.T.);
#206 = LINE('',#207,#208);
#207 = CARTESIAN_POINT('',(-6.65,2.449293598295E-33,2.E-17));
#208 = VECTOR('',#209,1.);
#209 = DIRECTION('',(0.,-1.,3.424646799147E-16));
#210 = ORIENTED_EDGE('',*,*,#132,.F.);
#211 = PLANE('',#212);
#212 = AXIS2_PLACEMENT_3D('',#213,#214,#215);
#213 = CARTESIAN_POINT('',(2.325,0.,0.));
#214 = DIRECTION('',(0.,-1.224646799147E-16,-1.));
#215 = DIRECTION('',(1.,0.,0.));
#216 = ADVANCED_FACE('',(#217),#228,.T.);
#217 = FACE_BOUND('',#218,.F.);
#218 = EDGE_LOOP('',(#219,#220,#221,#227));
#219 = ORIENTED_EDGE('',*,*,#31,.T.);
#220 = ORIENTED_EDGE('',*,*,#141,.T.);
#221 = ORIENTED_EDGE('',*,*,#222,.F.);
#222 = EDGE_CURVE('',#71,#142,#223,.T.);
#223 = LINE('',#224,#225);
#224 = CARTESIAN_POINT('',(12.3,12.42,-3.));
#225 = VECTOR('',#226,1.);
#226 = DIRECTION('',(0.,-1.,1.224646799147E-16));
#227 = ORIENTED_EDGE('',*,*,#70,.F.);
#228 = PLANE('',#229);
#229 = AXIS2_PLACEMENT_3D('',#230,#231,#232);
#230 = CARTESIAN_POINT('',(2.325,-3.673940397442E-16,-3.));
#231 = DIRECTION('',(0.,-1.224646799147E-16,-1.));
#232 = DIRECTION('',(1.,0.,0.));
#233 = ADVANCED_FACE('',(#234),#245,.F.);
#234 = FACE_BOUND('',#235,.F.);
#235 = EDGE_LOOP('',(#236,#242,#243,#244));
#236 = ORIENTED_EDGE('',*,*,#237,.F.);
#237 = EDGE_CURVE('',#182,#111,#238,.T.);
#238 = LINE('',#239,#240);
#239 = CARTESIAN_POINT('',(-5.15,-2.960575238725E-16,-0.866025403784));
#240 = VECTOR('',#241,1.);
#241 = DIRECTION('',(0.,1.,-3.424646799147E-16));
#242 = ORIENTED_EDGE('',*,*,#189,.F.);
#243 = ORIENTED_EDGE('',*,*,#205,.F.);
#244 = ORIENTED_EDGE('',*,*,#118,.T.);
#245 = PLANE('',#246);
#246 = AXIS2_PLACEMENT_3D('',#247,#248,#249);
#247 = CARTESIAN_POINT('',(-5.9,-5.302876193625E-17,-0.433012701892));
#248 = DIRECTION('',(-0.5,-2.960575238725E-16,-0.866025403784));
#249 = DIRECTION('',(0.866025403784,-6.123233995737E-17,-0.5));
#250 = ADVANCED_FACE('',(#251),#262,.F.);
#251 = FACE_BOUND('',#252,.F.);
#252 = EDGE_LOOP('',(#253,#254,#255,#256));
#253 = ORIENTED_EDGE('',*,*,#181,.F.);
#254 = ORIENTED_EDGE('',*,*,#237,.T.);
#255 = ORIENTED_EDGE('',*,*,#110,.T.);
#256 = ORIENTED_EDGE('',*,*,#257,.F.);
#257 = EDGE_CURVE('',#174,#103,#258,.T.);
#258 = LINE('',#259,#260);
#259 = CARTESIAN_POINT('',(-3.65,-3.673940397442E-33,-3.E-17));
#260 = VECTOR('',#261,1.);
#261 = DIRECTION('',(0.,1.,-3.424646799147E-16));
#262 = PLANE('',#263);
#263 = AXIS2_PLACEMENT_3D('',#264,#265,#266);
#264 = CARTESIAN_POINT('',(-4.4,5.969712380638E-16,-0.433012701892));
#265 = DIRECTION('',(0.5,-2.960575238725E-16,-0.866025403784));
#266 = DIRECTION('',(0.866025403784,6.123233995737E-17,0.5));
#267 = ADVANCED_FACE('',(#268),#279,.F.);
#268 = FACE_BOUND('',#269,.F.);
#269 = EDGE_LOOP('',(#270,#271,#272,#273));
#270 = ORIENTED_EDGE('',*,*,#173,.F.);
#271 = ORIENTED_EDGE('',*,*,#257,.T.);
#272 = ORIENTED_EDGE('',*,*,#102,.T.);
#273 = ORIENTED_EDGE('',*,*,#274,.T.);
#274 = EDGE_CURVE('',#95,#166,#275,.T.);
#275 = LINE('',#276,#277);
#276 = CARTESIAN_POINT('',(7.3,0.,0.));
#277 = VECTOR('',#278,1.);
#278 = DIRECTION('',(0.,-1.,3.424646799147E-16));
#279 = PLANE('',#280);
#280 = AXIS2_PLACEMENT_3D('',#281,#282,#283);
#281 = CARTESIAN_POINT('',(2.325,0.,0.));
#282 = DIRECTION('',(0.,-1.224646799147E-16,-1.));
#283 = DIRECTION('',(1.,0.,0.));
#284 = ADVANCED_FACE('',(#285),#296,.F.);
#285 = FACE_BOUND('',#286,.F.);
#286 = EDGE_LOOP('',(#287,#293,#294,#295));
#287 = ORIENTED_EDGE('',*,*,#288,.F.);
#288 = EDGE_CURVE('',#158,#87,#289,.T.);
#289 = LINE('',#290,#291);
#290 = CARTESIAN_POINT('',(7.3,-1.885802207523E-16,-0.56));
#291 = VECTOR('',#292,1.);
#292 = DIRECTION('',(0.,1.,-3.424646799147E-16));
#293 = ORIENTED_EDGE('',*,*,#165,.F.);
#294 = ORIENTED_EDGE('',*,*,#274,.F.);
#295 = ORIENTED_EDGE('',*,*,#94,.T.);
#296 = PLANE('',#297);
#297 = AXIS2_PLACEMENT_3D('',#298,#299,#300);
#298 = CARTESIAN_POINT('',(7.3,-3.429011037613E-17,-0.28));
#299 = DIRECTION('',(-1.,0.,0.));
#300 = DIRECTION('',(0.,1.224646799147E-16,1.));
#301 = ADVANCED_FACE('',(#302),#313,.F.);
#302 = FACE_BOUND('',#303,.F.);
#303 = EDGE_LOOP('',(#304,#310,#311,#312));
#304 = ORIENTED_EDGE('',*,*,#305,.F.);
#305 = EDGE_CURVE('',#150,#79,#306,.T.);
#306 = LINE('',#307,#308);
#307 = CARTESIAN_POINT('',(12.3,-1.885802207523E-16,-0.56));
#308 = VECTOR('',#309,1.);
#309 = DIRECTION('',(0.,1.,-3.424646799147E-16));
#310 = ORIENTED_EDGE('',*,*,#157,.F.);
#311 = ORIENTED_EDGE('',*,*,#288,.T.);
#312 = ORIENTED_EDGE('',*,*,#86,.T.);
#313 = PLANE('',#314);
#314 = AXIS2_PLACEMENT_3D('',#315,#316,#317);
#315 = CARTESIAN_POINT('',(9.8,-6.858022075225E-17,-0.56));
#316 = DIRECTION('',(0.,-1.224646799147E-16,-1.));
#317 = DIRECTION('',(1.,0.,0.));
#318 = ADVANCED_FACE('',(#319),#325,.F.);
#319 = FACE_BOUND('',#320,.F.);
#320 = EDGE_LOOP('',(#321,#322,#323,#324));
#321 = ORIENTED_EDGE('',*,*,#305,.T.);
#322 = ORIENTED_EDGE('',*,*,#78,.T.);
#323 = ORIENTED_EDGE('',*,*,#222,.T.);
#324 = ORIENTED_EDGE('',*,*,#149,.F.);
#325 = PLANE('',#326);
#326 = AXIS2_PLACEMENT_3D('',#327,#328,#329);
#327 = CARTESIAN_POINT('',(12.3,12.42,-1.521011324541E-15));
#328 = DIRECTION('',(-1.,0.,0.));
#329 = DIRECTION('',(0.,-1.,1.224646799147E-16));
#330 = ( GEOMETRIC_REPRESENTATION_CONTEXT(3) 
GLOBAL_UNCERTAINTY_ASSIGNED_CONTEXT((#334)) GLOBAL_UNIT_ASSIGNED_CONTEXT
((#331,#332,#333)) REPRESENTATION_CONTEXT('Context #1',
  '3D Context with UNIT and UNCERTAINTY') );
#331 = ( LENGTH_UNIT() NAMED_UNIT(*) SI_UNIT(.MILLI.,.METRE.) );
#332 = ( NAMED_UNIT(*) PLANE_ANGLE_UNIT() SI_UNIT($,.RADIAN.) );
#333 = ( NAMED_UNIT(*) SI_UNIT($,.STERADIAN.) SOLID_ANGLE_UNIT() );
#334 = UNCERTAINTY_MEASURE_WITH_UNIT(LENGTH_MEASURE(5.E-05),#331,
  'distance_accuracy_value','confusion accuracy');
#335 = PRODUCT_RELATED_PRODUCT_CATEGORY('part',$,(#7));
#336 = MECHANICAL_DESIGN_GEOMETRIC_PRESENTATION_REPRESENTATION('',(#337)
  ,#330);
#337 = STYLED_ITEM('color',(#338),#15);
#338 = PRESENTATION_STYLE_ASSIGNMENT((#339,#345));
#339 = SURFACE_STYLE_USAGE(.BOTH.,#340);
#340 = SURFACE_SIDE_STYLE('',(#341));
#341 = SURFACE_STYLE_FILL_AREA(#342);
#342 = FILL_AREA_STYLE('',(#343));
#343 = FILL_AREA_STYLE_COLOUR('',#344);
#344 = COLOUR_RGB('',0.447058818107,0.474509808674,0.501960817233);
#345 = CURVE_STYLE('',#346,POSITIVE_LENGTH_MEASURE(0.1),#347);
#346 = DRAUGHTING_PRE_DEFINED_CURVE_FONT('continuous');
#347 = COLOUR_RGB('',9.803921802644E-02,9.803921802644E-02,
  9.803921802644E-02);
ENDSEC;
END-ISO-10303-21;
