ISO-10303-21;
HEADER;
FILE_DESCRIPTION(('FreeCAD Model'),'2;1');
FILE_NAME('Open CASCADE Shape Model','2026-03-20T16:03:31',(''),(''),
  'Open CASCADE STEP processor 7.8','FreeCAD','Unknown');
FILE_SCHEMA(('AUTOMOTIVE_DESIGN { 1 0 10303 214 1 1 1 1 }'));
ENDSEC;
DATA;
#1 = APPLICATION_PROTOCOL_DEFINITION('international standard',
  'automotive_design',2000,#2);
#2 = APPLICATION_CONTEXT(
  'core data for automotive mechanical design processes');
#3 = SHAPE_DEFINITION_REPRESENTATION(#4,#10);
#4 = PRODUCT_DEFINITION_SHAPE('','',#5);
#5 = PRODUCT_DEFINITION('design','',#6,#9);
#6 = PRODUCT_DEFINITION_FORMATION('','',#7);
#7 = PRODUCT('Fine Piezo Aligner','Fine Piezo Aligner','',(#8));
#8 = PRODUCT_CONTEXT('',#2,'mechanical');
#9 = PRODUCT_DEFINITION_CONTEXT('part definition',#2,'design');
#10 = ADVANCED_BREP_SHAPE_REPRESENTATION('',(#11,#15),#233);
#11 = AXIS2_PLACEMENT_3D('',#12,#13,#14);
#12 = CARTESIAN_POINT('',(0.,0.,0.));
#13 = DIRECTION('',(0.,0.,1.));
#14 = DIRECTION('',(1.,0.,-0.));
#15 = MANIFOLD_SOLID_BREP('',#16);
#16 = CLOSED_SHELL('',(#17,#59,#90,#121,#152,#183,#205,#219));
#17 = ADVANCED_FACE('',(#18),#54,.F.);
#18 = FACE_BOUND('',#19,.T.);
#19 = EDGE_LOOP('',(#20,#30,#39,#47));
#20 = ORIENTED_EDGE('',*,*,#21,.T.);
#21 = EDGE_CURVE('',#22,#24,#26,.T.);
#22 = VERTEX_POINT('',#23);
#23 = CARTESIAN_POINT('',(-4.261516241469,2.470140315427,0.));
#24 = VERTEX_POINT('',#25);
#25 = CARTESIAN_POINT('',(-4.261516241469,2.470140315427,10.));
#26 = LINE('',#27,#28);
#27 = CARTESIAN_POINT('',(-4.261516241469,2.470140315427,0.));
#28 = VECTOR('',#29,1.);
#29 = DIRECTION('',(0.,0.,1.));
#30 = ORIENTED_EDGE('',*,*,#31,.T.);
#31 = EDGE_CURVE('',#24,#32,#34,.T.);
#32 = VERTEX_POINT('',#33);
#33 = CARTESIAN_POINT('',(-4.261516241469,-2.479607152878,10.));
#34 = CIRCLE('',#35,3.5);
#35 = AXIS2_PLACEMENT_3D('',#36,#37,#38);
#36 = CARTESIAN_POINT('',(-6.736389975622,-4.733418725582E-03,10.));
#37 = DIRECTION('',(-0.,0.,1.));
#38 = DIRECTION('',(0.707106781187,-0.707106781187,0.));
#39 = ORIENTED_EDGE('',*,*,#40,.F.);
#40 = EDGE_CURVE('',#41,#32,#43,.T.);
#41 = VERTEX_POINT('',#42);
#42 = CARTESIAN_POINT('',(-4.261516241469,-2.479607152878,0.));
#43 = LINE('',#44,#45);
#44 = CARTESIAN_POINT('',(-4.261516241469,-2.479607152878,0.));
#45 = VECTOR('',#46,1.);
#46 = DIRECTION('',(0.,0.,1.));
#47 = ORIENTED_EDGE('',*,*,#48,.F.);
#48 = EDGE_CURVE('',#22,#41,#49,.T.);
#49 = CIRCLE('',#50,3.5);
#50 = AXIS2_PLACEMENT_3D('',#51,#52,#53);
#51 = CARTESIAN_POINT('',(-6.736389975622,-4.733418725582E-03,0.));
#52 = DIRECTION('',(-0.,0.,1.));
#53 = DIRECTION('',(0.707106781187,-0.707106781187,0.));
#54 = CYLINDRICAL_SURFACE('',#55,3.5);
#55 = AXIS2_PLACEMENT_3D('',#56,#57,#58);
#56 = CARTESIAN_POINT('',(-6.736389975622,-4.733418725582E-03,0.));
#57 = DIRECTION('',(-0.,0.,-1.));
#58 = DIRECTION('',(0.707106781187,-0.707106781187,0.));
#59 = ADVANCED_FACE('',(#60),#85,.F.);
#60 = FACE_BOUND('',#61,.F.);
#61 = EDGE_LOOP('',(#62,#72,#78,#79));
#62 = ORIENTED_EDGE('',*,*,#63,.T.);
#63 = EDGE_CURVE('',#64,#66,#68,.T.);
#64 = VERTEX_POINT('',#65);
#65 = CARTESIAN_POINT('',(3.16310496099,-9.904228355337,0.));
#66 = VERTEX_POINT('',#67);
#67 = CARTESIAN_POINT('',(3.16310496099,-9.904228355337,10.));
#68 = LINE('',#69,#70);
#69 = CARTESIAN_POINT('',(3.16310496099,-9.904228355337,0.));
#70 = VECTOR('',#71,1.);
#71 = DIRECTION('',(0.,0.,1.));
#72 = ORIENTED_EDGE('',*,*,#73,.T.);
#73 = EDGE_CURVE('',#66,#32,#74,.T.);
#74 = LINE('',#75,#76);
#75 = CARTESIAN_POINT('',(3.16310496099,-9.904228355337,10.));
#76 = VECTOR('',#77,1.);
#77 = DIRECTION('',(-0.707106781187,0.707106781187,0.));
#78 = ORIENTED_EDGE('',*,*,#40,.F.);
#79 = ORIENTED_EDGE('',*,*,#80,.F.);
#80 = EDGE_CURVE('',#64,#41,#81,.T.);
#81 = LINE('',#82,#83);
#82 = CARTESIAN_POINT('',(3.16310496099,-9.904228355337,0.));
#83 = VECTOR('',#84,1.);
#84 = DIRECTION('',(-0.707106781187,0.707106781187,0.));
#85 = PLANE('',#86);
#86 = AXIS2_PLACEMENT_3D('',#87,#88,#89);
#87 = CARTESIAN_POINT('',(3.16310496099,-9.904228355337,0.));
#88 = DIRECTION('',(-0.707106781187,-0.707106781187,0.));
#89 = DIRECTION('',(-0.707106781187,0.707106781187,0.));
#90 = ADVANCED_FACE('',(#91),#116,.T.);
#91 = FACE_BOUND('',#92,.T.);
#92 = EDGE_LOOP('',(#93,#94,#102,#110));
#93 = ORIENTED_EDGE('',*,*,#63,.T.);
#94 = ORIENTED_EDGE('',*,*,#95,.T.);
#95 = EDGE_CURVE('',#66,#96,#98,.T.);
#96 = VERTEX_POINT('',#97);
#97 = CARTESIAN_POINT('',(-14.73638997546,-9.904228355113,10.));
#98 = LINE('',#99,#100);
#99 = CARTESIAN_POINT('',(3.16310496099,-9.904228355337,10.));
#100 = VECTOR('',#101,1.);
#101 = DIRECTION('',(-1.,1.251716314206E-11,0.));
#102 = ORIENTED_EDGE('',*,*,#103,.F.);
#103 = EDGE_CURVE('',#104,#96,#106,.T.);
#104 = VERTEX_POINT('',#105);
#105 = CARTESIAN_POINT('',(-14.73638997546,-9.904228355113,0.));
#106 = LINE('',#107,#108);
#107 = CARTESIAN_POINT('',(-14.73638997546,-9.904228355113,0.));
#108 = VECTOR('',#109,1.);
#109 = DIRECTION('',(0.,0.,1.));
#110 = ORIENTED_EDGE('',*,*,#111,.F.);
#111 = EDGE_CURVE('',#64,#104,#112,.T.);
#112 = LINE('',#113,#114);
#113 = CARTESIAN_POINT('',(3.16310496099,-9.904228355337,0.));
#114 = VECTOR('',#115,1.);
#115 = DIRECTION('',(-1.,1.251716314206E-11,0.));
#116 = PLANE('',#117);
#117 = AXIS2_PLACEMENT_3D('',#118,#119,#120);
#118 = CARTESIAN_POINT('',(3.16310496099,-9.904228355337,0.));
#119 = DIRECTION('',(-1.251721595282E-11,-1.,0.));
#120 = DIRECTION('',(-1.,1.251716314206E-11,0.));
#121 = ADVANCED_FACE('',(#122),#147,.F.);
#122 = FACE_BOUND('',#123,.F.);
#123 = EDGE_LOOP('',(#124,#134,#140,#141));
#124 = ORIENTED_EDGE('',*,*,#125,.T.);
#125 = EDGE_CURVE('',#126,#128,#130,.T.);
#126 = VERTEX_POINT('',#127);
#127 = CARTESIAN_POINT('',(-14.73638997565,9.894761517851,0.));
#128 = VERTEX_POINT('',#129);
#129 = CARTESIAN_POINT('',(-14.73638997565,9.894761517851,10.));
#130 = LINE('',#131,#132);
#131 = CARTESIAN_POINT('',(-14.73638997565,9.894761517851,0.));
#132 = VECTOR('',#133,1.);
#133 = DIRECTION('',(0.,0.,1.));
#134 = ORIENTED_EDGE('',*,*,#135,.T.);
#135 = EDGE_CURVE('',#128,#96,#136,.T.);
#136 = LINE('',#137,#138);
#137 = CARTESIAN_POINT('',(-14.73638997565,9.894761517851,10.));
#138 = VECTOR('',#139,1.);
#139 = DIRECTION('',(9.695462150147E-12,-1.,0.));
#140 = ORIENTED_EDGE('',*,*,#103,.F.);
#141 = ORIENTED_EDGE('',*,*,#142,.F.);
#142 = EDGE_CURVE('',#126,#104,#143,.T.);
#143 = LINE('',#144,#145);
#144 = CARTESIAN_POINT('',(-14.73638997565,9.894761517851,0.));
#145 = VECTOR('',#146,1.);
#146 = DIRECTION('',(9.695462150147E-12,-1.,0.));
#147 = PLANE('',#148);
#148 = AXIS2_PLACEMENT_3D('',#149,#150,#151);
#149 = CARTESIAN_POINT('',(-14.73638997565,9.894761517851,0.));
#150 = DIRECTION('',(1.,9.695426932069E-12,0.));
#151 = DIRECTION('',(9.695462150147E-12,-1.,0.));
#152 = ADVANCED_FACE('',(#153),#178,.F.);
#153 = FACE_BOUND('',#154,.F.);
#154 = EDGE_LOOP('',(#155,#165,#171,#172));
#155 = ORIENTED_EDGE('',*,*,#156,.T.);
#156 = EDGE_CURVE('',#157,#159,#161,.T.);
#157 = VERTEX_POINT('',#158);
#158 = CARTESIAN_POINT('',(3.16310496099,9.894761517886,0.));
#159 = VERTEX_POINT('',#160);
#160 = CARTESIAN_POINT('',(3.16310496099,9.894761517886,10.));
#161 = LINE('',#162,#163);
#162 = CARTESIAN_POINT('',(3.16310496099,9.894761517886,0.));
#163 = VECTOR('',#164,1.);
#164 = DIRECTION('',(0.,0.,1.));
#165 = ORIENTED_EDGE('',*,*,#166,.T.);
#166 = EDGE_CURVE('',#159,#128,#167,.T.);
#167 = LINE('',#168,#169);
#168 = CARTESIAN_POINT('',(3.16310496099,9.894761517886,10.));
#169 = VECTOR('',#170,1.);
#170 = DIRECTION('',(-1.,-1.982338127466E-12,0.));
#171 = ORIENTED_EDGE('',*,*,#125,.F.);
#172 = ORIENTED_EDGE('',*,*,#173,.F.);
#173 = EDGE_CURVE('',#157,#126,#174,.T.);
#174 = LINE('',#175,#176);
#175 = CARTESIAN_POINT('',(3.16310496099,9.894761517886,0.));
#176 = VECTOR('',#177,1.);
#177 = DIRECTION('',(-1.,-1.982338127466E-12,0.));
#178 = PLANE('',#179);
#179 = AXIS2_PLACEMENT_3D('',#180,#181,#182);
#180 = CARTESIAN_POINT('',(3.16310496099,9.894761517886,0.));
#181 = DIRECTION('',(1.982340827865E-12,-1.,0.));
#182 = DIRECTION('',(-1.,-1.982338127466E-12,0.));
#183 = ADVANCED_FACE('',(#184),#200,.F.);
#184 = FACE_BOUND('',#185,.F.);
#185 = EDGE_LOOP('',(#186,#187,#193,#194));
#186 = ORIENTED_EDGE('',*,*,#21,.T.);
#187 = ORIENTED_EDGE('',*,*,#188,.T.);
#188 = EDGE_CURVE('',#24,#159,#189,.T.);
#189 = LINE('',#190,#191);
#190 = CARTESIAN_POINT('',(-4.261516241469,2.470140315427,10.));
#191 = VECTOR('',#192,1.);
#192 = DIRECTION('',(0.707106781187,0.707106781187,0.));
#193 = ORIENTED_EDGE('',*,*,#156,.F.);
#194 = ORIENTED_EDGE('',*,*,#195,.F.);
#195 = EDGE_CURVE('',#22,#157,#196,.T.);
#196 = LINE('',#197,#198);
#197 = CARTESIAN_POINT('',(-4.261516241469,2.470140315427,0.));
#198 = VECTOR('',#199,1.);
#199 = DIRECTION('',(0.707106781187,0.707106781187,0.));
#200 = PLANE('',#201);
#201 = AXIS2_PLACEMENT_3D('',#202,#203,#204);
#202 = CARTESIAN_POINT('',(-4.261516241469,2.470140315427,0.));
#203 = DIRECTION('',(-0.707106781187,0.707106781187,0.));
#204 = DIRECTION('',(0.707106781187,0.707106781187,0.));
#205 = ADVANCED_FACE('',(#206),#214,.F.);
#206 = FACE_BOUND('',#207,.T.);
#207 = EDGE_LOOP('',(#208,#209,#210,#211,#212,#213));
#208 = ORIENTED_EDGE('',*,*,#48,.T.);
#209 = ORIENTED_EDGE('',*,*,#80,.F.);
#210 = ORIENTED_EDGE('',*,*,#111,.T.);
#211 = ORIENTED_EDGE('',*,*,#142,.F.);
#212 = ORIENTED_EDGE('',*,*,#173,.F.);
#213 = ORIENTED_EDGE('',*,*,#195,.F.);
#214 = PLANE('',#215);
#215 = AXIS2_PLACEMENT_3D('',#216,#217,#218);
#216 = CARTESIAN_POINT('',(-6.809777092042,-4.733418665936E-03,0.));
#217 = DIRECTION('',(0.,0.,1.));
#218 = DIRECTION('',(0.707106781187,-0.707106781187,0.));
#219 = ADVANCED_FACE('',(#220),#228,.T.);
#220 = FACE_BOUND('',#221,.F.);
#221 = EDGE_LOOP('',(#222,#223,#224,#225,#226,#227));
#222 = ORIENTED_EDGE('',*,*,#31,.T.);
#223 = ORIENTED_EDGE('',*,*,#73,.F.);
#224 = ORIENTED_EDGE('',*,*,#95,.T.);
#225 = ORIENTED_EDGE('',*,*,#135,.F.);
#226 = ORIENTED_EDGE('',*,*,#166,.F.);
#227 = ORIENTED_EDGE('',*,*,#188,.F.);
#228 = PLANE('',#229);
#229 = AXIS2_PLACEMENT_3D('',#230,#231,#232);
#230 = CARTESIAN_POINT('',(-6.809777092042,-4.733418665936E-03,10.));
#231 = DIRECTION('',(0.,0.,1.));
#232 = DIRECTION('',(0.707106781187,-0.707106781187,0.));
#233 = ( GEOMETRIC_REPRESENTATION_CONTEXT(3) 
GLOBAL_UNCERTAINTY_ASSIGNED_CONTEXT((#237)) GLOBAL_UNIT_ASSIGNED_CONTEXT
((#234,#235,#236)) REPRESENTATION_CONTEXT('Context #1',
  '3D Context with UNIT and UNCERTAINTY') );
#234 = ( LENGTH_UNIT() NAMED_UNIT(*) SI_UNIT(.MILLI.,.METRE.) );
#235 = ( NAMED_UNIT(*) PLANE_ANGLE_UNIT() SI_UNIT($,.RADIAN.) );
#236 = ( NAMED_UNIT(*) SI_UNIT($,.STERADIAN.) SOLID_ANGLE_UNIT() );
#237 = UNCERTAINTY_MEASURE_WITH_UNIT(LENGTH_MEASURE(1.E-07),#234,
  'distance_accuracy_value','confusion accuracy');
#238 = PRODUCT_RELATED_PRODUCT_CATEGORY('part',$,(#7));
#239 = MECHANICAL_DESIGN_GEOMETRIC_PRESENTATION_REPRESENTATION('',(#240)
  ,#233);
#240 = STYLED_ITEM('color',(#241),#15);
#241 = PRESENTATION_STYLE_ASSIGNMENT((#242,#248));
#242 = SURFACE_STYLE_USAGE(.BOTH.,#243);
#243 = SURFACE_SIDE_STYLE('',(#244));
#244 = SURFACE_STYLE_FILL_AREA(#245);
#245 = FILL_AREA_STYLE('',(#246));
#246 = FILL_AREA_STYLE_COLOUR('',#247);
#247 = COLOUR_RGB('',0.654901979974,0.674509824316,0.713725498821);
#248 = CURVE_STYLE('',#249,POSITIVE_LENGTH_MEASURE(0.1),#250);
#249 = DRAUGHTING_PRE_DEFINED_CURVE_FONT('continuous');
#250 = COLOUR_RGB('',9.803921802644E-02,9.803921802644E-02,
  9.803921802644E-02);
ENDSEC;
END-ISO-10303-21;
