ISO-10303-21;
HEADER;
FILE_DESCRIPTION(('FreeCAD Model'),'2;1');
FILE_NAME('Open CASCADE Shape Model','2026-03-20T16:03:24',(''),(''),
  'Open CASCADE STEP processor 7.8','FreeCAD','Unknown');
FILE_SCHEMA(('AUTOMOTIVE_DESIGN { 1 0 10303 214 1 1 1 1 }'));
ENDSEC;
DATA;
#1 = APPLICATION_PROTOCOL_DEFINITION('international standard',
  'automotive_design',2000,#2);
#2 = APPLICATION_CONTEXT(
  'core data for automotive mechanical design processes');
#3 = SHAPE_DEFINITION_REPRESENTATION(#4,#10);
#4 = PRODUCT_DEFINITION_SHAPE('','',#5);
#5 = PRODUCT_DEFINITION('design','',#6,#9);
#6 = PRODUCT_DEFINITION_FORMATION('','',#7);
#7 = PRODUCT('Kinematic Mount Aligner','Kinematic Mount Aligner','',(#8)
  );
#8 = PRODUCT_CONTEXT('',#2,'mechanical');
#9 = PRODUCT_DEFINITION_CONTEXT('part definition',#2,'design');
#10 = ADVANCED_BREP_SHAPE_REPRESENTATION('',(#11,#15),#637);
#11 = AXIS2_PLACEMENT_3D('',#12,#13,#14);
#12 = CARTESIAN_POINT('',(0.,0.,0.));
#13 = DIRECTION('',(0.,0.,1.));
#14 = DIRECTION('',(1.,0.,-0.));
#15 = MANIFOLD_SOLID_BREP('',#16);
#16 = CLOSED_SHELL('',(#17,#57,#88,#119,#150,#181,#214,#245,#278,#309,
    #340,#371,#404,#435,#466,#497,#530,#561,#585,#611));
#17 = ADVANCED_FACE('',(#18),#52,.T.);
#18 = FACE_BOUND('',#19,.T.);
#19 = EDGE_LOOP('',(#20,#30,#38,#46));
#20 = ORIENTED_EDGE('',*,*,#21,.T.);
#21 = EDGE_CURVE('',#22,#24,#26,.T.);
#22 = VERTEX_POINT('',#23);
#23 = CARTESIAN_POINT('',(-6.945478149454,-10.60450533238,
    2.437332577117E-14));
#24 = VERTEX_POINT('',#25);
#25 = CARTESIAN_POINT('',(-6.945478149454,-10.60450533238,4.));
#26 = LINE('',#27,#28);
#27 = CARTESIAN_POINT('',(-6.945478149454,-10.60450533238,
    2.474332577117E-14));
#28 = VECTOR('',#29,1.);
#29 = DIRECTION('',(0.,4.42044604925E-16,1.));
#30 = ORIENTED_EDGE('',*,*,#31,.T.);
#31 = EDGE_CURVE('',#24,#32,#34,.T.);
#32 = VERTEX_POINT('',#33);
#33 = CARTESIAN_POINT('',(-2.069201596554,-13.65154110172,4.));
#34 = LINE('',#35,#36);
#35 = CARTESIAN_POINT('',(-6.945478149454,-10.60450533238,4.));
#36 = VECTOR('',#37,1.);
#37 = DIRECTION('',(0.848048096156,-0.529919264233,1.176657136688E-16));
#38 = ORIENTED_EDGE('',*,*,#39,.F.);
#39 = EDGE_CURVE('',#40,#32,#42,.T.);
#40 = VERTEX_POINT('',#41);
#41 = CARTESIAN_POINT('',(-2.069201596554,-13.65154110172,
    2.604990362477E-14));
#42 = LINE('',#43,#44);
#43 = CARTESIAN_POINT('',(-2.069201596554,-13.65154110172,
    2.609990362477E-14));
#44 = VECTOR('',#45,1.);
#45 = DIRECTION('',(0.,4.42044604925E-16,1.));
#46 = ORIENTED_EDGE('',*,*,#47,.F.);
#47 = EDGE_CURVE('',#22,#40,#48,.T.);
#48 = LINE('',#49,#50);
#49 = CARTESIAN_POINT('',(-6.945478149454,-10.60450533238,
    1.237332577117E-14));
#50 = VECTOR('',#51,1.);
#51 = DIRECTION('',(0.848048096156,-0.529919264233,1.176657136688E-16));
#52 = PLANE('',#53);
#53 = AXIS2_PLACEMENT_3D('',#54,#55,#56);
#54 = CARTESIAN_POINT('',(-6.945478149454,-10.60450533238,
    2.474332577117E-14));
#55 = DIRECTION('',(0.529919264233,0.848048096156,-3.783045044685E-16));
#56 = DIRECTION('',(0.848048096156,-0.529919264233,2.376657136688E-16));
#57 = ADVANCED_FACE('',(#58),#83,.T.);
#58 = FACE_BOUND('',#59,.T.);
#59 = EDGE_LOOP('',(#60,#61,#69,#77));
#60 = ORIENTED_EDGE('',*,*,#39,.T.);
#61 = ORIENTED_EDGE('',*,*,#62,.T.);
#62 = EDGE_CURVE('',#32,#63,#65,.T.);
#63 = VERTEX_POINT('',#64);
#64 = CARTESIAN_POINT('',(-13.,-13.65154110172,4.));
#65 = LINE('',#66,#67);
#66 = CARTESIAN_POINT('',(-2.069201596554,-13.65154110172,4.));
#67 = VECTOR('',#68,1.);
#68 = DIRECTION('',(-1.,0.,0.));
#69 = ORIENTED_EDGE('',*,*,#70,.F.);
#70 = EDGE_CURVE('',#71,#63,#73,.T.);
#71 = VERTEX_POINT('',#72);
#72 = CARTESIAN_POINT('',(-13.,-13.65154110172,2.604990362477E-14));
#73 = LINE('',#74,#75);
#74 = CARTESIAN_POINT('',(-13.,-13.65154110172,2.609990362477E-14));
#75 = VECTOR('',#76,1.);
#76 = DIRECTION('',(0.,4.42044604925E-16,1.));
#77 = ORIENTED_EDGE('',*,*,#78,.F.);
#78 = EDGE_CURVE('',#40,#71,#79,.T.);
#79 = LINE('',#80,#81);
#80 = CARTESIAN_POINT('',(-2.069201596554,-13.65154110172,
    1.304990362477E-14));
#81 = VECTOR('',#82,1.);
#82 = DIRECTION('',(-1.,0.,0.));
#83 = PLANE('',#84);
#84 = AXIS2_PLACEMENT_3D('',#85,#86,#87);
#85 = CARTESIAN_POINT('',(-2.069201596554,-13.65154110172,
    2.609990362477E-14));
#86 = DIRECTION('',(0.,-1.,4.42044604925E-16));
#87 = DIRECTION('',(-1.,0.,0.));
#88 = ADVANCED_FACE('',(#89),#114,.F.);
#89 = FACE_BOUND('',#90,.F.);
#90 = EDGE_LOOP('',(#91,#101,#107,#108));
#91 = ORIENTED_EDGE('',*,*,#92,.T.);
#92 = EDGE_CURVE('',#93,#95,#97,.T.);
#93 = VERTEX_POINT('',#94);
#94 = CARTESIAN_POINT('',(-13.,15.371262197352,1.360554673241E-14));
#95 = VERTEX_POINT('',#96);
#96 = CARTESIAN_POINT('',(-13.,15.371262197352,4.));
#97 = LINE('',#98,#99);
#98 = CARTESIAN_POINT('',(-13.,15.371262197352,1.321554673241E-14));
#99 = VECTOR('',#100,1.);
#100 = DIRECTION('',(0.,4.42044604925E-16,1.));
#101 = ORIENTED_EDGE('',*,*,#102,.T.);
#102 = EDGE_CURVE('',#95,#63,#103,.T.);
#103 = LINE('',#104,#105);
#104 = CARTESIAN_POINT('',(-13.,15.371262197352,4.));
#105 = VECTOR('',#106,1.);
#106 = DIRECTION('',(0.,-1.,2.22044604925E-16));
#107 = ORIENTED_EDGE('',*,*,#70,.F.);
#108 = ORIENTED_EDGE('',*,*,#109,.F.);
#109 = EDGE_CURVE('',#93,#71,#110,.T.);
#110 = LINE('',#111,#112);
#111 = CARTESIAN_POINT('',(-13.,15.371262197352,6.605546732407E-15));
#112 = VECTOR('',#113,1.);
#113 = DIRECTION('',(0.,-1.,2.22044604925E-16));
#114 = PLANE('',#115);
#115 = AXIS2_PLACEMENT_3D('',#116,#117,#118);
#116 = CARTESIAN_POINT('',(-13.,15.371262197352,1.321554673241E-14));
#117 = DIRECTION('',(1.,0.,0.));
#118 = DIRECTION('',(0.,-1.,4.42044604925E-16));
#119 = ADVANCED_FACE('',(#120),#145,.F.);
#120 = FACE_BOUND('',#121,.F.);
#121 = EDGE_LOOP('',(#122,#132,#138,#139));
#122 = ORIENTED_EDGE('',*,*,#123,.T.);
#123 = EDGE_CURVE('',#124,#126,#128,.T.);
#124 = VERTEX_POINT('',#125);
#125 = CARTESIAN_POINT('',(-3.925248571745,15.371262197352,
    1.360554673241E-14));
#126 = VERTEX_POINT('',#127);
#127 = CARTESIAN_POINT('',(-3.925248571745,15.371262197352,4.));
#128 = LINE('',#129,#130);
#129 = CARTESIAN_POINT('',(-3.925248571745,15.371262197352,
    1.321554673241E-14));
#130 = VECTOR('',#131,1.);
#131 = DIRECTION('',(0.,4.42044604925E-16,1.));
#132 = ORIENTED_EDGE('',*,*,#133,.T.);
#133 = EDGE_CURVE('',#126,#95,#134,.T.);
#134 = LINE('',#135,#136);
#135 = CARTESIAN_POINT('',(-3.925248571745,15.371262197352,4.));
#136 = VECTOR('',#137,1.);
#137 = DIRECTION('',(-1.,0.,0.));
#138 = ORIENTED_EDGE('',*,*,#92,.F.);
#139 = ORIENTED_EDGE('',*,*,#140,.F.);
#140 = EDGE_CURVE('',#124,#93,#141,.T.);
#141 = LINE('',#142,#143);
#142 = CARTESIAN_POINT('',(-3.925248571745,15.371262197352,
    6.605546732407E-15));
#143 = VECTOR('',#144,1.);
#144 = DIRECTION('',(-1.,0.,0.));
#145 = PLANE('',#146);
#146 = AXIS2_PLACEMENT_3D('',#147,#148,#149);
#147 = CARTESIAN_POINT('',(-3.925248571745,15.371262197352,
    1.321554673241E-14));
#148 = DIRECTION('',(0.,-1.,4.42044604925E-16));
#149 = DIRECTION('',(-1.,0.,0.));
#150 = ADVANCED_FACE('',(#151),#176,.F.);
#151 = FACE_BOUND('',#152,.F.);
#152 = EDGE_LOOP('',(#153,#163,#169,#170));
#153 = ORIENTED_EDGE('',*,*,#154,.T.);
#154 = EDGE_CURVE('',#155,#157,#159,.T.);
#155 = VERTEX_POINT('',#156);
#156 = CARTESIAN_POINT('',(-7.502203605319,9.646937548296,
    1.587660213757E-14));
#157 = VERTEX_POINT('',#158);
#158 = CARTESIAN_POINT('',(-7.502203605319,9.646937548296,4.));
#159 = LINE('',#160,#161);
#160 = CARTESIAN_POINT('',(-7.502203605319,9.646937548296,
    1.575660213757E-14));
#161 = VECTOR('',#162,1.);
#162 = DIRECTION('',(0.,4.42044604925E-16,1.));
#163 = ORIENTED_EDGE('',*,*,#164,.T.);
#164 = EDGE_CURVE('',#157,#126,#165,.T.);
#165 = LINE('',#166,#167);
#166 = CARTESIAN_POINT('',(-7.502203605319,9.646937548296,4.));
#167 = VECTOR('',#168,1.);
#168 = DIRECTION('',(0.529919264233,0.848048096156,-1.883045044685E-16)
  );
#169 = ORIENTED_EDGE('',*,*,#123,.F.);
#170 = ORIENTED_EDGE('',*,*,#171,.F.);
#171 = EDGE_CURVE('',#155,#124,#172,.T.);
#172 = LINE('',#173,#174);
#173 = CARTESIAN_POINT('',(-7.502203605319,9.646937548296,
    7.876602137569E-15));
#174 = VECTOR('',#175,1.);
#175 = DIRECTION('',(0.529919264233,0.848048096156,-1.883045044685E-16)
  );
#176 = PLANE('',#177);
#177 = AXIS2_PLACEMENT_3D('',#178,#179,#180);
#178 = CARTESIAN_POINT('',(-7.502203605319,9.646937548296,
    1.575660213757E-14));
#179 = DIRECTION('',(-0.848048096156,0.529919264233,-2.376657136688E-16)
  );
#180 = DIRECTION('',(0.529919264233,0.848048096156,-3.783045044685E-16)
  );
#181 = ADVANCED_FACE('',(#182),#209,.F.);
#182 = FACE_BOUND('',#183,.F.);
#183 = EDGE_LOOP('',(#184,#194,#201,#202));
#184 = ORIENTED_EDGE('',*,*,#185,.T.);
#185 = EDGE_CURVE('',#186,#188,#190,.T.);
#186 = VERTEX_POINT('',#187);
#187 = CARTESIAN_POINT('',(-6.945478149454,7.235494667615,
    1.641205001931E-14));
#188 = VERTEX_POINT('',#189);
#189 = CARTESIAN_POINT('',(-6.945478149454,7.235494667615,4.));
#190 = LINE('',#191,#192);
#191 = CARTESIAN_POINT('',(-6.945478149454,7.235494667615,
    1.682205001931E-14));
#192 = VECTOR('',#193,1.);
#193 = DIRECTION('',(0.,4.42044604925E-16,1.));
#194 = ORIENTED_EDGE('',*,*,#195,.T.);
#195 = EDGE_CURVE('',#188,#157,#196,.T.);
#196 = CIRCLE('',#197,1.75);
#197 = AXIS2_PLACEMENT_3D('',#198,#199,#200);
#198 = CARTESIAN_POINT('',(-8.429562317727,8.162853380023,4.));
#199 = DIRECTION('',(0.,-2.22044604925E-16,-1.));
#200 = DIRECTION('',(1.,0.,0.));
#201 = ORIENTED_EDGE('',*,*,#154,.F.);
#202 = ORIENTED_EDGE('',*,*,#203,.F.);
#203 = EDGE_CURVE('',#186,#155,#204,.T.);
#204 = CIRCLE('',#205,1.75);
#205 = AXIS2_PLACEMENT_3D('',#206,#207,#208);
#206 = CARTESIAN_POINT('',(-8.429562317727,8.162853380023,
    8.206135020389E-15));
#207 = DIRECTION('',(0.,-2.22044604925E-16,-1.));
#208 = DIRECTION('',(1.,0.,0.));
#209 = CYLINDRICAL_SURFACE('',#210,1.75);
#210 = AXIS2_PLACEMENT_3D('',#211,#212,#213);
#211 = CARTESIAN_POINT('',(-8.429562317727,8.162853380023,
    1.641613502039E-14));
#212 = DIRECTION('',(0.,-4.42044604925E-16,-1.));
#213 = DIRECTION('',(1.,0.,0.));
#214 = ADVANCED_FACE('',(#215),#240,.T.);
#215 = FACE_BOUND('',#216,.T.);
#216 = EDGE_LOOP('',(#217,#218,#226,#234));
#217 = ORIENTED_EDGE('',*,*,#185,.T.);
#218 = ORIENTED_EDGE('',*,*,#219,.T.);
#219 = EDGE_CURVE('',#188,#220,#222,.T.);
#220 = VERTEX_POINT('',#221);
#221 = CARTESIAN_POINT('',(-2.069201596554,4.188458898274,4.));
#222 = LINE('',#223,#224);
#223 = CARTESIAN_POINT('',(-6.945478149454,7.235494667615,4.));
#224 = VECTOR('',#225,1.);
#225 = DIRECTION('',(0.848048096156,-0.529919264233,1.176657136688E-16)
  );
#226 = ORIENTED_EDGE('',*,*,#227,.F.);
#227 = EDGE_CURVE('',#228,#220,#230,.T.);
#228 = VERTEX_POINT('',#229);
#229 = CARTESIAN_POINT('',(-2.069201596554,4.188458898274,
    1.808862787291E-14));
#230 = LINE('',#231,#232);
#231 = CARTESIAN_POINT('',(-2.069201596554,4.188458898274,
    1.817862787291E-14));
#232 = VECTOR('',#233,1.);
#233 = DIRECTION('',(0.,4.42044604925E-16,1.));
#234 = ORIENTED_EDGE('',*,*,#235,.F.);
#235 = EDGE_CURVE('',#186,#228,#236,.T.);
#236 = LINE('',#237,#238);
#237 = CARTESIAN_POINT('',(-6.945478149454,7.235494667615,
    8.41205001931E-15));
#238 = VECTOR('',#239,1.);
#239 = DIRECTION('',(0.848048096156,-0.529919264233,1.176657136688E-16)
  );
#240 = PLANE('',#241);
#241 = AXIS2_PLACEMENT_3D('',#242,#243,#244);
#242 = CARTESIAN_POINT('',(-6.945478149454,7.235494667615,
    1.682205001931E-14));
#243 = DIRECTION('',(0.529919264233,0.848048096156,-3.783045044685E-16)
  );
#244 = DIRECTION('',(0.848048096156,-0.529919264233,2.376657136688E-16)
  );
#245 = ADVANCED_FACE('',(#246),#273,.F.);
#246 = FACE_BOUND('',#247,.F.);
#247 = EDGE_LOOP('',(#248,#258,#265,#266));
#248 = ORIENTED_EDGE('',*,*,#249,.T.);
#249 = EDGE_CURVE('',#250,#252,#254,.T.);
#250 = VERTEX_POINT('',#251);
#251 = CARTESIAN_POINT('',(0.342241284128,4.745184354139,
    1.796500998901E-14));
#252 = VERTEX_POINT('',#253);
#253 = CARTESIAN_POINT('',(0.342241284128,4.745184354139,4.));
#254 = LINE('',#255,#256);
#255 = CARTESIAN_POINT('',(0.342241284128,4.745184354139,
    1.793500998901E-14));
#256 = VECTOR('',#257,1.);
#257 = DIRECTION('',(0.,4.42044604925E-16,1.));
#258 = ORIENTED_EDGE('',*,*,#259,.T.);
#259 = EDGE_CURVE('',#252,#220,#260,.T.);
#260 = CIRCLE('',#261,1.75);
#261 = AXIS2_PLACEMENT_3D('',#262,#263,#264);
#262 = CARTESIAN_POINT('',(-1.141842884146,5.672543066547,4.));
#263 = DIRECTION('',(0.,-2.22044604925E-16,-1.));
#264 = DIRECTION('',(1.,0.,0.));
#265 = ORIENTED_EDGE('',*,*,#227,.F.);
#266 = ORIENTED_EDGE('',*,*,#267,.F.);
#267 = EDGE_CURVE('',#250,#228,#268,.T.);
#268 = CIRCLE('',#269,1.75);
#269 = AXIS2_PLACEMENT_3D('',#270,#271,#272);
#270 = CARTESIAN_POINT('',(-1.141842884146,5.672543066547,
    8.759094990086E-15));
#271 = DIRECTION('',(0.,-2.22044604925E-16,-1.));
#272 = DIRECTION('',(1.,0.,0.));
#273 = CYLINDRICAL_SURFACE('',#274,1.75);
#274 = AXIS2_PLACEMENT_3D('',#275,#276,#277);
#275 = CARTESIAN_POINT('',(-1.141842884146,5.672543066547,
    1.751909499009E-14));
#276 = DIRECTION('',(0.,-4.42044604925E-16,-1.));
#277 = DIRECTION('',(1.,0.,0.));
#278 = ADVANCED_FACE('',(#279),#304,.F.);
#279 = FACE_BOUND('',#280,.F.);
#280 = EDGE_LOOP('',(#281,#291,#297,#298));
#281 = ORIENTED_EDGE('',*,*,#282,.T.);
#282 = EDGE_CURVE('',#283,#285,#287,.T.);
#283 = VERTEX_POINT('',#284);
#284 = CARTESIAN_POINT('',(1.408317040323,6.451262197352,
    1.758618460834E-14));
#285 = VERTEX_POINT('',#286);
#286 = CARTESIAN_POINT('',(1.408317040323,6.451262197352,4.));
#287 = LINE('',#288,#289);
#288 = CARTESIAN_POINT('',(1.408317040323,6.451262197352,
    1.717618460834E-14));
#289 = VECTOR('',#290,1.);
#290 = DIRECTION('',(0.,4.42044604925E-16,1.));
#291 = ORIENTED_EDGE('',*,*,#292,.T.);
#292 = EDGE_CURVE('',#285,#252,#293,.T.);
#293 = LINE('',#294,#295);
#294 = CARTESIAN_POINT('',(1.408317040323,6.451262197352,4.));
#295 = VECTOR('',#296,1.);
#296 = DIRECTION('',(-0.529919264233,-0.848048096156,1.883045044685E-16)
  );
#297 = ORIENTED_EDGE('',*,*,#249,.F.);
#298 = ORIENTED_EDGE('',*,*,#299,.F.);
#299 = EDGE_CURVE('',#283,#250,#300,.T.);
#300 = LINE('',#301,#302);
#301 = CARTESIAN_POINT('',(1.408317040323,6.451262197352,
    8.586184608339E-15));
#302 = VECTOR('',#303,1.);
#303 = DIRECTION('',(-0.529919264233,-0.848048096156,1.883045044685E-16)
  );
#304 = PLANE('',#305);
#305 = AXIS2_PLACEMENT_3D('',#306,#307,#308);
#306 = CARTESIAN_POINT('',(1.408317040323,6.451262197352,
    1.717618460834E-14));
#307 = DIRECTION('',(0.848048096156,-0.529919264233,2.376657136688E-16)
  );
#308 = DIRECTION('',(-0.529919264233,-0.848048096156,3.783045044685E-16)
  );
#309 = ADVANCED_FACE('',(#310),#335,.F.);
#310 = FACE_BOUND('',#311,.F.);
#311 = EDGE_LOOP('',(#312,#322,#328,#329));
#312 = ORIENTED_EDGE('',*,*,#313,.T.);
#313 = EDGE_CURVE('',#314,#316,#318,.T.);
#314 = VERTEX_POINT('',#315);
#315 = CARTESIAN_POINT('',(11.524751428255,6.451262197352,
    1.758618460834E-14));
#316 = VERTEX_POINT('',#317);
#317 = CARTESIAN_POINT('',(11.524751428255,6.451262197352,4.));
#318 = LINE('',#319,#320);
#319 = CARTESIAN_POINT('',(11.524751428255,6.451262197352,
    1.717618460834E-14));
#320 = VECTOR('',#321,1.);
#321 = DIRECTION('',(0.,4.42044604925E-16,1.));
#322 = ORIENTED_EDGE('',*,*,#323,.T.);
#323 = EDGE_CURVE('',#316,#285,#324,.T.);
#324 = LINE('',#325,#326);
#325 = CARTESIAN_POINT('',(11.524751428255,6.451262197352,4.));
#326 = VECTOR('',#327,1.);
#327 = DIRECTION('',(-1.,0.,0.));
#328 = ORIENTED_EDGE('',*,*,#282,.F.);
#329 = ORIENTED_EDGE('',*,*,#330,.F.);
#330 = EDGE_CURVE('',#314,#283,#331,.T.);
#331 = LINE('',#332,#333);
#332 = CARTESIAN_POINT('',(11.524751428255,6.451262197352,
    8.586184608339E-15));
#333 = VECTOR('',#334,1.);
#334 = DIRECTION('',(-1.,0.,0.));
#335 = PLANE('',#336);
#336 = AXIS2_PLACEMENT_3D('',#337,#338,#339);
#337 = CARTESIAN_POINT('',(11.524751428255,6.451262197352,
    1.717618460834E-14));
#338 = DIRECTION('',(0.,-1.,4.42044604925E-16));
#339 = DIRECTION('',(-1.,0.,0.));
#340 = ADVANCED_FACE('',(#341),#366,.F.);
#341 = FACE_BOUND('',#342,.F.);
#342 = EDGE_LOOP('',(#343,#353,#359,#360));
#343 = ORIENTED_EDGE('',*,*,#344,.T.);
#344 = EDGE_CURVE('',#345,#347,#349,.T.);
#345 = VERTEX_POINT('',#346);
#346 = CARTESIAN_POINT('',(7.947796394681,0.726937548296,
    1.98572400135E-14));
#347 = VERTEX_POINT('',#348);
#348 = CARTESIAN_POINT('',(7.947796394681,0.726937548296,4.));
#349 = LINE('',#350,#351);
#350 = CARTESIAN_POINT('',(7.947796394681,0.726937548296,
    1.97172400135E-14));
#351 = VECTOR('',#352,1.);
#352 = DIRECTION('',(0.,4.42044604925E-16,1.));
#353 = ORIENTED_EDGE('',*,*,#354,.T.);
#354 = EDGE_CURVE('',#347,#316,#355,.T.);
#355 = LINE('',#356,#357);
#356 = CARTESIAN_POINT('',(7.947796394681,0.726937548296,4.));
#357 = VECTOR('',#358,1.);
#358 = DIRECTION('',(0.529919264233,0.848048096156,-1.883045044685E-16)
  );
#359 = ORIENTED_EDGE('',*,*,#313,.F.);
#360 = ORIENTED_EDGE('',*,*,#361,.F.);
#361 = EDGE_CURVE('',#345,#314,#362,.T.);
#362 = LINE('',#363,#364);
#363 = CARTESIAN_POINT('',(7.947796394681,0.726937548296,
    9.857240013501E-15));
#364 = VECTOR('',#365,1.);
#365 = DIRECTION('',(0.529919264233,0.848048096156,-1.883045044685E-16)
  );
#366 = PLANE('',#367);
#367 = AXIS2_PLACEMENT_3D('',#368,#369,#370);
#368 = CARTESIAN_POINT('',(7.947796394681,0.726937548296,
    1.97172400135E-14));
#369 = DIRECTION('',(-0.848048096156,0.529919264233,-2.376657136688E-16)
  );
#370 = DIRECTION('',(0.529919264233,0.848048096156,-3.783045044685E-16)
  );
#371 = ADVANCED_FACE('',(#372),#399,.F.);
#372 = FACE_BOUND('',#373,.F.);
#373 = EDGE_LOOP('',(#374,#384,#391,#392));
#374 = ORIENTED_EDGE('',*,*,#375,.T.);
#375 = EDGE_CURVE('',#376,#378,#380,.T.);
#376 = VERTEX_POINT('',#377);
#377 = CARTESIAN_POINT('',(8.504521850546,-1.684505332385,
    2.039268789524E-14));
#378 = VERTEX_POINT('',#379);
#379 = CARTESIAN_POINT('',(8.504521850546,-1.684505332385,4.));
#380 = LINE('',#381,#382);
#381 = CARTESIAN_POINT('',(8.504521850546,-1.684505332385,
    2.078268789524E-14));
#382 = VECTOR('',#383,1.);
#383 = DIRECTION('',(0.,4.42044604925E-16,1.));
#384 = ORIENTED_EDGE('',*,*,#385,.T.);
#385 = EDGE_CURVE('',#378,#347,#386,.T.);
#386 = CIRCLE('',#387,1.75);
#387 = AXIS2_PLACEMENT_3D('',#388,#389,#390);
#388 = CARTESIAN_POINT('',(7.020437682273,-0.757146619977,4.));
#389 = DIRECTION('',(0.,-2.22044604925E-16,-1.));
#390 = DIRECTION('',(1.,0.,0.));
#391 = ORIENTED_EDGE('',*,*,#344,.F.);
#392 = ORIENTED_EDGE('',*,*,#393,.F.);
#393 = EDGE_CURVE('',#376,#345,#394,.T.);
#394 = CIRCLE('',#395,1.75);
#395 = AXIS2_PLACEMENT_3D('',#396,#397,#398);
#396 = CARTESIAN_POINT('',(7.020437682273,-0.757146619977,
    1.018677289632E-14));
#397 = DIRECTION('',(0.,-2.22044604925E-16,-1.));
#398 = DIRECTION('',(1.,0.,0.));
#399 = CYLINDRICAL_SURFACE('',#400,1.75);
#400 = AXIS2_PLACEMENT_3D('',#401,#402,#403);
#401 = CARTESIAN_POINT('',(7.020437682273,-0.757146619977,
    2.037677289632E-14));
#402 = DIRECTION('',(0.,-4.42044604925E-16,-1.));
#403 = DIRECTION('',(1.,0.,0.));
#404 = ADVANCED_FACE('',(#405),#430,.T.);
#405 = FACE_BOUND('',#406,.T.);
#406 = EDGE_LOOP('',(#407,#408,#416,#424));
#407 = ORIENTED_EDGE('',*,*,#375,.T.);
#408 = ORIENTED_EDGE('',*,*,#409,.T.);
#409 = EDGE_CURVE('',#378,#410,#412,.T.);
#410 = VERTEX_POINT('',#411);
#411 = CARTESIAN_POINT('',(13.380798403446,-4.731541101726,4.));
#412 = LINE('',#413,#414);
#413 = CARTESIAN_POINT('',(8.504521850546,-1.684505332385,4.));
#414 = VECTOR('',#415,1.);
#415 = DIRECTION('',(0.848048096156,-0.529919264233,1.176657136688E-16)
  );
#416 = ORIENTED_EDGE('',*,*,#417,.F.);
#417 = EDGE_CURVE('',#418,#410,#420,.T.);
#418 = VERTEX_POINT('',#419);
#419 = CARTESIAN_POINT('',(13.380798403446,-4.731541101726,
    2.206926574884E-14));
#420 = LINE('',#421,#422);
#421 = CARTESIAN_POINT('',(13.380798403446,-4.731541101726,
    2.213926574884E-14));
#422 = VECTOR('',#423,1.);
#423 = DIRECTION('',(0.,4.42044604925E-16,1.));
#424 = ORIENTED_EDGE('',*,*,#425,.F.);
#425 = EDGE_CURVE('',#376,#418,#426,.T.);
#426 = LINE('',#427,#428);
#427 = CARTESIAN_POINT('',(8.504521850546,-1.684505332385,
    1.039268789524E-14));
#428 = VECTOR('',#429,1.);
#429 = DIRECTION('',(0.848048096156,-0.529919264233,1.176657136688E-16)
  );
#430 = PLANE('',#431);
#431 = AXIS2_PLACEMENT_3D('',#432,#433,#434);
#432 = CARTESIAN_POINT('',(8.504521850546,-1.684505332385,
    2.078268789524E-14));
#433 = DIRECTION('',(0.529919264233,0.848048096156,-3.783045044685E-16)
  );
#434 = DIRECTION('',(0.848048096156,-0.529919264233,2.376657136688E-16)
  );
#435 = ADVANCED_FACE('',(#436),#461,.T.);
#436 = FACE_BOUND('',#437,.T.);
#437 = EDGE_LOOP('',(#438,#439,#447,#455));
#438 = ORIENTED_EDGE('',*,*,#417,.T.);
#439 = ORIENTED_EDGE('',*,*,#440,.T.);
#440 = EDGE_CURVE('',#410,#441,#443,.T.);
#441 = VERTEX_POINT('',#442);
#442 = CARTESIAN_POINT('',(2.998383531098,-4.731541101726,4.));
#443 = LINE('',#444,#445);
#444 = CARTESIAN_POINT('',(13.380798403446,-4.731541101726,4.));
#445 = VECTOR('',#446,1.);
#446 = DIRECTION('',(-1.,0.,0.));
#447 = ORIENTED_EDGE('',*,*,#448,.F.);
#448 = EDGE_CURVE('',#449,#441,#451,.T.);
#449 = VERTEX_POINT('',#450);
#450 = CARTESIAN_POINT('',(2.998383531098,-4.731541101726,
    2.206926574884E-14));
#451 = LINE('',#452,#453);
#452 = CARTESIAN_POINT('',(2.998383531098,-4.731541101726,
    2.213926574884E-14));
#453 = VECTOR('',#454,1.);
#454 = DIRECTION('',(0.,4.42044604925E-16,1.));
#455 = ORIENTED_EDGE('',*,*,#456,.F.);
#456 = EDGE_CURVE('',#418,#449,#457,.T.);
#457 = LINE('',#458,#459);
#458 = CARTESIAN_POINT('',(13.380798403446,-4.731541101726,
    1.106926574884E-14));
#459 = VECTOR('',#460,1.);
#460 = DIRECTION('',(-1.,0.,0.));
#461 = PLANE('',#462);
#462 = AXIS2_PLACEMENT_3D('',#463,#464,#465);
#463 = CARTESIAN_POINT('',(13.380798403446,-4.731541101726,
    2.213926574884E-14));
#464 = DIRECTION('',(0.,-1.,4.42044604925E-16));
#465 = DIRECTION('',(-1.,0.,0.));
#466 = ADVANCED_FACE('',(#467),#492,.T.);
#467 = FACE_BOUND('',#468,.T.);
#468 = EDGE_LOOP('',(#469,#470,#478,#486));
#469 = ORIENTED_EDGE('',*,*,#448,.T.);
#470 = ORIENTED_EDGE('',*,*,#471,.T.);
#471 = EDGE_CURVE('',#441,#472,#474,.T.);
#472 = VERTEX_POINT('',#473);
#473 = CARTESIAN_POINT('',(-1.513805691063,-1.912012346782,4.));
#474 = LINE('',#475,#476);
#475 = CARTESIAN_POINT('',(2.998383531098,-4.731541101726,4.));
#476 = VECTOR('',#477,1.);
#477 = DIRECTION('',(-0.848048096156,0.529919264233,-1.176657136688E-16)
  );
#478 = ORIENTED_EDGE('',*,*,#479,.F.);
#479 = EDGE_CURVE('',#480,#472,#482,.T.);
#480 = VERTEX_POINT('',#481);
#481 = CARTESIAN_POINT('',(-1.513805691063,-1.912012346782,
    2.044320460037E-14));
#482 = LINE('',#483,#484);
#483 = CARTESIAN_POINT('',(-1.513805691063,-1.912012346782,
    2.088320460037E-14));
#484 = VECTOR('',#485,1.);
#485 = DIRECTION('',(0.,4.42044604925E-16,1.));
#486 = ORIENTED_EDGE('',*,*,#487,.F.);
#487 = EDGE_CURVE('',#449,#480,#488,.T.);
#488 = LINE('',#489,#490);
#489 = CARTESIAN_POINT('',(2.998383531098,-4.731541101726,
    1.106926574884E-14));
#490 = VECTOR('',#491,1.);
#491 = DIRECTION('',(-0.848048096156,0.529919264233,-1.176657136688E-16)
  );
#492 = PLANE('',#493);
#493 = AXIS2_PLACEMENT_3D('',#494,#495,#496);
#494 = CARTESIAN_POINT('',(2.998383531098,-4.731541101726,
    2.213926574884E-14));
#495 = DIRECTION('',(-0.529919264233,-0.848048096156,3.783045044685E-16)
  );
#496 = DIRECTION('',(-0.848048096156,0.529919264233,-2.376657136688E-16)
  );
#497 = ADVANCED_FACE('',(#498),#525,.F.);
#498 = FACE_BOUND('',#499,.F.);
#499 = EDGE_LOOP('',(#500,#510,#517,#518));
#500 = ORIENTED_EDGE('',*,*,#501,.T.);
#501 = EDGE_CURVE('',#502,#504,#506,.T.);
#502 = VERTEX_POINT('',#503);
#503 = CARTESIAN_POINT('',(-3.925248571745,-2.468737802648,
    2.156682248427E-14));
#504 = VERTEX_POINT('',#505);
#505 = CARTESIAN_POINT('',(-3.925248571745,-2.468737802648,4.));
#506 = LINE('',#507,#508);
#507 = CARTESIAN_POINT('',(-3.925248571745,-2.468737802648,
    2.113682248427E-14));
#508 = VECTOR('',#509,1.);
#509 = DIRECTION('',(0.,4.42044604925E-16,1.));
#510 = ORIENTED_EDGE('',*,*,#511,.T.);
#511 = EDGE_CURVE('',#504,#472,#512,.T.);
#512 = CIRCLE('',#513,1.75);
#513 = AXIS2_PLACEMENT_3D('',#514,#515,#516);
#514 = CARTESIAN_POINT('',(-2.441164403471,-3.396096515056,4.));
#515 = DIRECTION('',(0.,-2.22044604925E-16,-1.));
#516 = DIRECTION('',(1.,0.,0.));
#517 = ORIENTED_EDGE('',*,*,#479,.F.);
#518 = ORIENTED_EDGE('',*,*,#519,.F.);
#519 = EDGE_CURVE('',#502,#480,#520,.T.);
#520 = CIRCLE('',#521,1.75);
#521 = AXIS2_PLACEMENT_3D('',#522,#523,#524);
#522 = CARTESIAN_POINT('',(-2.441164403471,-3.396096515056,
    1.077273748319E-14));
#523 = DIRECTION('',(0.,-2.22044604925E-16,-1.));
#524 = DIRECTION('',(1.,0.,0.));
#525 = CYLINDRICAL_SURFACE('',#526,1.75);
#526 = AXIS2_PLACEMENT_3D('',#527,#528,#529);
#527 = CARTESIAN_POINT('',(-2.441164403471,-3.396096515056,
    2.154273748319E-14));
#528 = DIRECTION('',(0.,-4.42044604925E-16,-1.));
#529 = DIRECTION('',(1.,0.,0.));
#530 = ADVANCED_FACE('',(#531),#556,.F.);
#531 = FACE_BOUND('',#532,.F.);
#532 = EDGE_LOOP('',(#533,#543,#549,#550));
#533 = ORIENTED_EDGE('',*,*,#534,.T.);
#534 = EDGE_CURVE('',#535,#537,#539,.T.);
#535 = VERTEX_POINT('',#536);
#536 = CARTESIAN_POINT('',(-7.502203605319,-8.193062451704,
    2.383787788943E-14));
#537 = VERTEX_POINT('',#538);
#538 = CARTESIAN_POINT('',(-7.502203605319,-8.193062451704,4.));
#539 = LINE('',#540,#541);
#540 = CARTESIAN_POINT('',(-7.502203605319,-8.193062451704,
    2.367787788943E-14));
#541 = VECTOR('',#542,1.);
#542 = DIRECTION('',(0.,4.42044604925E-16,1.));
#543 = ORIENTED_EDGE('',*,*,#544,.T.);
#544 = EDGE_CURVE('',#537,#504,#545,.T.);
#545 = LINE('',#546,#547);
#546 = CARTESIAN_POINT('',(-7.502203605319,-8.193062451704,4.));
#547 = VECTOR('',#548,1.);
#548 = DIRECTION('',(0.529919264233,0.848048096156,-1.883045044685E-16)
  );
#549 = ORIENTED_EDGE('',*,*,#501,.F.);
#550 = ORIENTED_EDGE('',*,*,#551,.F.);
#551 = EDGE_CURVE('',#535,#502,#552,.T.);
#552 = LINE('',#553,#554);
#553 = CARTESIAN_POINT('',(-7.502203605319,-8.193062451704,
    1.183787788943E-14));
#554 = VECTOR('',#555,1.);
#555 = DIRECTION('',(0.529919264233,0.848048096156,-1.883045044685E-16)
  );
#556 = PLANE('',#557);
#557 = AXIS2_PLACEMENT_3D('',#558,#559,#560);
#558 = CARTESIAN_POINT('',(-7.502203605319,-8.193062451704,
    2.367787788943E-14));
#559 = DIRECTION('',(-0.848048096156,0.529919264233,-2.376657136688E-16)
  );
#560 = DIRECTION('',(0.529919264233,0.848048096156,-3.783045044685E-16)
  );
#561 = ADVANCED_FACE('',(#562),#580,.F.);
#562 = FACE_BOUND('',#563,.F.);
#563 = EDGE_LOOP('',(#564,#565,#572,#573));
#564 = ORIENTED_EDGE('',*,*,#21,.T.);
#565 = ORIENTED_EDGE('',*,*,#566,.T.);
#566 = EDGE_CURVE('',#24,#537,#567,.T.);
#567 = CIRCLE('',#568,1.75);
#568 = AXIS2_PLACEMENT_3D('',#569,#570,#571);
#569 = CARTESIAN_POINT('',(-8.429562317727,-9.677146619977,4.));
#570 = DIRECTION('',(0.,-2.22044604925E-16,-1.));
#571 = DIRECTION('',(1.,0.,0.));
#572 = ORIENTED_EDGE('',*,*,#534,.F.);
#573 = ORIENTED_EDGE('',*,*,#574,.F.);
#574 = EDGE_CURVE('',#22,#535,#575,.T.);
#575 = CIRCLE('',#576,1.75);
#576 = AXIS2_PLACEMENT_3D('',#577,#578,#579);
#577 = CARTESIAN_POINT('',(-8.429562317727,-9.677146619977,
    1.216741077225E-14));
#578 = DIRECTION('',(0.,-2.22044604925E-16,-1.));
#579 = DIRECTION('',(1.,0.,0.));
#580 = CYLINDRICAL_SURFACE('',#581,1.75);
#581 = AXIS2_PLACEMENT_3D('',#582,#583,#584);
#582 = CARTESIAN_POINT('',(-8.429562317727,-9.677146619977,
    2.433741077225E-14));
#583 = DIRECTION('',(0.,-4.42044604925E-16,-1.));
#584 = DIRECTION('',(1.,0.,0.));
#585 = ADVANCED_FACE('',(#586),#606,.F.);
#586 = FACE_BOUND('',#587,.T.);
#587 = EDGE_LOOP('',(#588,#589,#590,#591,#592,#593,#594,#595,#596,#597,
    #598,#599,#600,#601,#602,#603,#604,#605));
#588 = ORIENTED_EDGE('',*,*,#47,.T.);
#589 = ORIENTED_EDGE('',*,*,#78,.T.);
#590 = ORIENTED_EDGE('',*,*,#109,.F.);
#591 = ORIENTED_EDGE('',*,*,#140,.F.);
#592 = ORIENTED_EDGE('',*,*,#171,.F.);
#593 = ORIENTED_EDGE('',*,*,#203,.F.);
#594 = ORIENTED_EDGE('',*,*,#235,.T.);
#595 = ORIENTED_EDGE('',*,*,#267,.F.);
#596 = ORIENTED_EDGE('',*,*,#299,.F.);
#597 = ORIENTED_EDGE('',*,*,#330,.F.);
#598 = ORIENTED_EDGE('',*,*,#361,.F.);
#599 = ORIENTED_EDGE('',*,*,#393,.F.);
#600 = ORIENTED_EDGE('',*,*,#425,.T.);
#601 = ORIENTED_EDGE('',*,*,#456,.T.);
#602 = ORIENTED_EDGE('',*,*,#487,.T.);
#603 = ORIENTED_EDGE('',*,*,#519,.F.);
#604 = ORIENTED_EDGE('',*,*,#551,.F.);
#605 = ORIENTED_EDGE('',*,*,#574,.F.);
#606 = PLANE('',#607);
#607 = AXIS2_PLACEMENT_3D('',#608,#609,#610);
#608 = CARTESIAN_POINT('',(-3.324889804716,0.207976240399,
    1.994247257208E-14));
#609 = DIRECTION('',(0.,2.22044604925E-16,1.));
#610 = DIRECTION('',(0.,-1.,2.22044604925E-16));
#611 = ADVANCED_FACE('',(#612),#632,.T.);
#612 = FACE_BOUND('',#613,.F.);
#613 = EDGE_LOOP('',(#614,#615,#616,#617,#618,#619,#620,#621,#622,#623,
    #624,#625,#626,#627,#628,#629,#630,#631));
#614 = ORIENTED_EDGE('',*,*,#31,.T.);
#615 = ORIENTED_EDGE('',*,*,#62,.T.);
#616 = ORIENTED_EDGE('',*,*,#102,.F.);
#617 = ORIENTED_EDGE('',*,*,#133,.F.);
#618 = ORIENTED_EDGE('',*,*,#164,.F.);
#619 = ORIENTED_EDGE('',*,*,#195,.F.);
#620 = ORIENTED_EDGE('',*,*,#219,.T.);
#621 = ORIENTED_EDGE('',*,*,#259,.F.);
#622 = ORIENTED_EDGE('',*,*,#292,.F.);
#623 = ORIENTED_EDGE('',*,*,#323,.F.);
#624 = ORIENTED_EDGE('',*,*,#354,.F.);
#625 = ORIENTED_EDGE('',*,*,#385,.F.);
#626 = ORIENTED_EDGE('',*,*,#409,.T.);
#627 = ORIENTED_EDGE('',*,*,#440,.T.);
#628 = ORIENTED_EDGE('',*,*,#471,.T.);
#629 = ORIENTED_EDGE('',*,*,#511,.F.);
#630 = ORIENTED_EDGE('',*,*,#544,.F.);
#631 = ORIENTED_EDGE('',*,*,#566,.F.);
#632 = PLANE('',#633);
#633 = AXIS2_PLACEMENT_3D('',#634,#635,#636);
#634 = CARTESIAN_POINT('',(-3.324889804716,0.207976240399,4.));
#635 = DIRECTION('',(0.,2.22044604925E-16,1.));
#636 = DIRECTION('',(0.,-1.,2.22044604925E-16));
#637 = ( GEOMETRIC_REPRESENTATION_CONTEXT(3) 
GLOBAL_UNCERTAINTY_ASSIGNED_CONTEXT((#641)) GLOBAL_UNIT_ASSIGNED_CONTEXT
((#638,#639,#640)) REPRESENTATION_CONTEXT('Context #1',
  '3D Context with UNIT and UNCERTAINTY') );
#638 = ( LENGTH_UNIT() NAMED_UNIT(*) SI_UNIT(.MILLI.,.METRE.) );
#639 = ( NAMED_UNIT(*) PLANE_ANGLE_UNIT() SI_UNIT($,.RADIAN.) );
#640 = ( NAMED_UNIT(*) SI_UNIT($,.STERADIAN.) SOLID_ANGLE_UNIT() );
#641 = UNCERTAINTY_MEASURE_WITH_UNIT(LENGTH_MEASURE(1.E-07),#638,
  'distance_accuracy_value','confusion accuracy');
#642 = PRODUCT_RELATED_PRODUCT_CATEGORY('part',$,(#7));
#643 = MECHANICAL_DESIGN_GEOMETRIC_PRESENTATION_REPRESENTATION('',(#644)
  ,#637);
#644 = STYLED_ITEM('color',(#645),#15);
#645 = PRESENTATION_STYLE_ASSIGNMENT((#646,#652));
#646 = SURFACE_STYLE_USAGE(.BOTH.,#647);
#647 = SURFACE_SIDE_STYLE('',(#648));
#648 = SURFACE_STYLE_FILL_AREA(#649);
#649 = FILL_AREA_STYLE('',(#650));
#650 = FILL_AREA_STYLE_COLOUR('',#651);
#651 = COLOUR_RGB('',0.662745111292,0.674509824316,0.713725498821);
#652 = CURVE_STYLE('',#653,POSITIVE_LENGTH_MEASURE(0.1),#654);
#653 = DRAUGHTING_PRE_DEFINED_CURVE_FONT('continuous');
#654 = COLOUR_RGB('',9.803921802644E-02,9.803921802644E-02,
  9.803921802644E-02);
ENDSEC;
END-ISO-10303-21;
