ISO-10303-21;
HEADER;
FILE_DESCRIPTION(('FreeCAD Model'),'2;1');
FILE_NAME('Open CASCADE Shape Model','2026-03-20T16:03:07',(''),(''),
  'Open CASCADE STEP processor 7.8','FreeCAD','Unknown');
FILE_SCHEMA(('AUTOMOTIVE_DESIGN { 1 0 10303 214 1 1 1 1 }'));
ENDSEC;
DATA;
#1 = APPLICATION_PROTOCOL_DEFINITION('international standard',
  'automotive_design',2000,#2);
#2 = APPLICATION_CONTEXT(
  'core data for automotive mechanical design processes');
#3 = SHAPE_DEFINITION_REPRESENTATION(#4,#10);
#4 = PRODUCT_DEFINITION_SHAPE('','',#5);
#5 = PRODUCT_DEFINITION('design','',#6,#9);
#6 = PRODUCT_DEFINITION_FORMATION('','',#7);
#7 = PRODUCT('Coarse Y Slider','Coarse Y Slider','',(#8));
#8 = PRODUCT_CONTEXT('',#2,'mechanical');
#9 = PRODUCT_DEFINITION_CONTEXT('part definition',#2,'design');
#10 = ADVANCED_BREP_SHAPE_REPRESENTATION('',(#11,#15),#738);
#11 = AXIS2_PLACEMENT_3D('',#12,#13,#14);
#12 = CARTESIAN_POINT('',(0.,0.,0.));
#13 = DIRECTION('',(0.,0.,1.));
#14 = DIRECTION('',(1.,0.,-0.));
#15 = MANIFOLD_SOLID_BREP('',#16);
#16 = CLOSED_SHELL('',(#17,#59,#90,#121,#239,#357,#374,#415,#439,#478,
    #495,#512,#529,#546,#563,#596,#620,#651,#663,#680,#697,#714,#726));
#17 = ADVANCED_FACE('',(#18),#54,.F.);
#18 = FACE_BOUND('',#19,.T.);
#19 = EDGE_LOOP('',(#20,#30,#39,#47));
#20 = ORIENTED_EDGE('',*,*,#21,.T.);
#21 = EDGE_CURVE('',#22,#24,#26,.T.);
#22 = VERTEX_POINT('',#23);
#23 = CARTESIAN_POINT('',(-0.65,10.,-1.224646799147E-15));
#24 = VERTEX_POINT('',#25);
#25 = CARTESIAN_POINT('',(-0.65,10.,-3.));
#26 = LINE('',#27,#28);
#27 = CARTESIAN_POINT('',(-0.65,10.,-1.224646799147E-15));
#28 = VECTOR('',#29,1.);
#29 = DIRECTION('',(0.,-1.224646799147E-16,-1.));
#30 = ORIENTED_EDGE('',*,*,#31,.T.);
#31 = EDGE_CURVE('',#24,#32,#34,.T.);
#32 = VERTEX_POINT('',#33);
#33 = CARTESIAN_POINT('',(-2.65,12.,-3.));
#34 = CIRCLE('',#35,2.);
#35 = AXIS2_PLACEMENT_3D('',#36,#37,#38);
#36 = CARTESIAN_POINT('',(-0.65,12.,-3.));
#37 = DIRECTION('',(0.,-1.224646799147E-16,-1.));
#38 = DIRECTION('',(1.,0.,0.));
#39 = ORIENTED_EDGE('',*,*,#40,.F.);
#40 = EDGE_CURVE('',#41,#32,#43,.T.);
#41 = VERTEX_POINT('',#42);
#42 = CARTESIAN_POINT('',(-2.65,12.,-1.469576158977E-15));
#43 = LINE('',#44,#45);
#44 = CARTESIAN_POINT('',(-2.65,12.,-1.469576158977E-15));
#45 = VECTOR('',#46,1.);
#46 = DIRECTION('',(0.,-1.224646799147E-16,-1.));
#47 = ORIENTED_EDGE('',*,*,#48,.F.);
#48 = EDGE_CURVE('',#22,#41,#49,.T.);
#49 = CIRCLE('',#50,2.);
#50 = AXIS2_PLACEMENT_3D('',#51,#52,#53);
#51 = CARTESIAN_POINT('',(-0.65,12.,-1.469576158977E-15));
#52 = DIRECTION('',(0.,-1.224646799147E-16,-1.));
#53 = DIRECTION('',(1.,0.,0.));
#54 = CYLINDRICAL_SURFACE('',#55,2.);
#55 = AXIS2_PLACEMENT_3D('',#56,#57,#58);
#56 = CARTESIAN_POINT('',(-0.65,12.,-1.469576158977E-15));
#57 = DIRECTION('',(0.,1.224646799147E-16,1.));
#58 = DIRECTION('',(1.,0.,0.));
#59 = ADVANCED_FACE('',(#60),#85,.F.);
#60 = FACE_BOUND('',#61,.F.);
#61 = EDGE_LOOP('',(#62,#63,#71,#79));
#62 = ORIENTED_EDGE('',*,*,#21,.T.);
#63 = ORIENTED_EDGE('',*,*,#64,.T.);
#64 = EDGE_CURVE('',#24,#65,#67,.T.);
#65 = VERTEX_POINT('',#66);
#66 = CARTESIAN_POINT('',(3.,10.,-3.));
#67 = LINE('',#68,#69);
#68 = CARTESIAN_POINT('',(-0.65,10.,-3.));
#69 = VECTOR('',#70,1.);
#70 = DIRECTION('',(1.,0.,0.));
#71 = ORIENTED_EDGE('',*,*,#72,.F.);
#72 = EDGE_CURVE('',#73,#65,#75,.T.);
#73 = VERTEX_POINT('',#74);
#74 = CARTESIAN_POINT('',(3.,10.,-1.224646799147E-15));
#75 = LINE('',#76,#77);
#76 = CARTESIAN_POINT('',(3.,10.,-1.224646799147E-15));
#77 = VECTOR('',#78,1.);
#78 = DIRECTION('',(0.,-1.224646799147E-16,-1.));
#79 = ORIENTED_EDGE('',*,*,#80,.F.);
#80 = EDGE_CURVE('',#22,#73,#81,.T.);
#81 = LINE('',#82,#83);
#82 = CARTESIAN_POINT('',(-0.65,10.,-1.224646799147E-15));
#83 = VECTOR('',#84,1.);
#84 = DIRECTION('',(1.,0.,0.));
#85 = PLANE('',#86);
#86 = AXIS2_PLACEMENT_3D('',#87,#88,#89);
#87 = CARTESIAN_POINT('',(-0.65,10.,-1.224646799147E-15));
#88 = DIRECTION('',(0.,-1.,1.224646799147E-16));
#89 = DIRECTION('',(1.,0.,0.));
#90 = ADVANCED_FACE('',(#91),#116,.F.);
#91 = FACE_BOUND('',#92,.F.);
#92 = EDGE_LOOP('',(#93,#103,#109,#110));
#93 = ORIENTED_EDGE('',*,*,#94,.T.);
#94 = EDGE_CURVE('',#95,#97,#99,.T.);
#95 = VERTEX_POINT('',#96);
#96 = CARTESIAN_POINT('',(-2.65,14.92,-1.827173024328E-15));
#97 = VERTEX_POINT('',#98);
#98 = CARTESIAN_POINT('',(-2.65,14.92,-3.));
#99 = LINE('',#100,#101);
#100 = CARTESIAN_POINT('',(-2.65,14.92,-1.827173024328E-15));
#101 = VECTOR('',#102,1.);
#102 = DIRECTION('',(0.,-1.224646799147E-16,-1.));
#103 = ORIENTED_EDGE('',*,*,#104,.T.);
#104 = EDGE_CURVE('',#97,#32,#105,.T.);
#105 = LINE('',#106,#107);
#106 = CARTESIAN_POINT('',(-2.65,14.92,-3.));
#107 = VECTOR('',#108,1.);
#108 = DIRECTION('',(0.,-1.,1.224646799147E-16));
#109 = ORIENTED_EDGE('',*,*,#40,.F.);
#110 = ORIENTED_EDGE('',*,*,#111,.F.);
#111 = EDGE_CURVE('',#95,#41,#112,.T.);
#112 = LINE('',#113,#114);
#113 = CARTESIAN_POINT('',(-2.65,14.92,-1.827173024328E-15));
#114 = VECTOR('',#115,1.);
#115 = DIRECTION('',(0.,-1.,1.224646799147E-16));
#116 = PLANE('',#117);
#117 = AXIS2_PLACEMENT_3D('',#118,#119,#120);
#118 = CARTESIAN_POINT('',(-2.65,14.92,-1.827173024328E-15));
#119 = DIRECTION('',(-1.,0.,0.));
#120 = DIRECTION('',(0.,-1.,1.224646799147E-16));
#121 = ADVANCED_FACE('',(#122),#234,.F.);
#122 = FACE_BOUND('',#123,.F.);
#123 = EDGE_LOOP('',(#124,#125,#126,#135,#144,#152,#160,#168,#177,#186,
    #194,#203,#211,#219,#227,#233));
#124 = ORIENTED_EDGE('',*,*,#48,.F.);
#125 = ORIENTED_EDGE('',*,*,#80,.T.);
#126 = ORIENTED_EDGE('',*,*,#127,.T.);
#127 = EDGE_CURVE('',#73,#128,#130,.T.);
#128 = VERTEX_POINT('',#129);
#129 = CARTESIAN_POINT('',(5.,8.,-9.797174393179E-16));
#130 = CIRCLE('',#131,2.);
#131 = AXIS2_PLACEMENT_3D('',#132,#133,#134);
#132 = CARTESIAN_POINT('',(3.,8.,-9.797174393179E-16));
#133 = DIRECTION('',(0.,-1.224646799147E-16,-1.));
#134 = DIRECTION('',(1.,0.,0.));
#135 = ORIENTED_EDGE('',*,*,#136,.F.);
#136 = EDGE_CURVE('',#137,#128,#139,.T.);
#137 = VERTEX_POINT('',#138);
#138 = CARTESIAN_POINT('',(7.,6.,-7.347880794884E-16));
#139 = CIRCLE('',#140,2.);
#140 = AXIS2_PLACEMENT_3D('',#141,#142,#143);
#141 = CARTESIAN_POINT('',(7.,8.,-9.797174393179E-16));
#142 = DIRECTION('',(0.,-1.224646799147E-16,-1.));
#143 = DIRECTION('',(1.,0.,0.));
#144 = ORIENTED_EDGE('',*,*,#145,.F.);
#145 = EDGE_CURVE('',#146,#137,#148,.T.);
#146 = VERTEX_POINT('',#147);
#147 = CARTESIAN_POINT('',(7.3,6.,-1.734788079488E-15));
#148 = LINE('',#149,#150);
#149 = CARTESIAN_POINT('',(12.3,6.,-7.347880794884E-16));
#150 = VECTOR('',#151,1.);
#151 = DIRECTION('',(-1.,0.,0.));
#152 = ORIENTED_EDGE('',*,*,#153,.T.);
#153 = EDGE_CURVE('',#146,#154,#156,.T.);
#154 = VERTEX_POINT('',#155);
#155 = CARTESIAN_POINT('',(7.3,-6.,1.734788079488E-15));
#156 = LINE('',#157,#158);
#157 = CARTESIAN_POINT('',(7.3,0.,0.));
#158 = VECTOR('',#159,1.);
#159 = DIRECTION('',(0.,-1.,3.424646799147E-16));
#160 = ORIENTED_EDGE('',*,*,#161,.T.);
#161 = EDGE_CURVE('',#154,#162,#164,.T.);
#162 = VERTEX_POINT('',#163);
#163 = CARTESIAN_POINT('',(7.,-6.,7.347880794884E-16));
#164 = LINE('',#165,#166);
#165 = CARTESIAN_POINT('',(12.3,-6.,7.347880794884E-16));
#166 = VECTOR('',#167,1.);
#167 = DIRECTION('',(-1.,0.,0.));
#168 = ORIENTED_EDGE('',*,*,#169,.F.);
#169 = EDGE_CURVE('',#170,#162,#172,.T.);
#170 = VERTEX_POINT('',#171);
#171 = CARTESIAN_POINT('',(5.,-8.,9.797174393179E-16));
#172 = CIRCLE('',#173,2.);
#173 = AXIS2_PLACEMENT_3D('',#174,#175,#176);
#174 = CARTESIAN_POINT('',(7.,-8.,9.797174393179E-16));
#175 = DIRECTION('',(0.,-1.224646799147E-16,-1.));
#176 = DIRECTION('',(1.,0.,0.));
#177 = ORIENTED_EDGE('',*,*,#178,.T.);
#178 = EDGE_CURVE('',#170,#179,#181,.T.);
#179 = VERTEX_POINT('',#180);
#180 = CARTESIAN_POINT('',(3.,-10.,1.224646799147E-15));
#181 = CIRCLE('',#182,2.);
#182 = AXIS2_PLACEMENT_3D('',#183,#184,#185);
#183 = CARTESIAN_POINT('',(3.,-8.,9.797174393179E-16));
#184 = DIRECTION('',(0.,-1.224646799147E-16,-1.));
#185 = DIRECTION('',(1.,0.,0.));
#186 = ORIENTED_EDGE('',*,*,#187,.F.);
#187 = EDGE_CURVE('',#188,#179,#190,.T.);
#188 = VERTEX_POINT('',#189);
#189 = CARTESIAN_POINT('',(-0.65,-10.,1.224646799147E-15));
#190 = LINE('',#191,#192);
#191 = CARTESIAN_POINT('',(-0.65,-10.,1.224646799147E-15));
#192 = VECTOR('',#193,1.);
#193 = DIRECTION('',(1.,0.,0.));
#194 = ORIENTED_EDGE('',*,*,#195,.F.);
#195 = EDGE_CURVE('',#196,#188,#198,.T.);
#196 = VERTEX_POINT('',#197);
#197 = CARTESIAN_POINT('',(-2.65,-12.,1.469576158977E-15));
#198 = CIRCLE('',#199,2.);
#199 = AXIS2_PLACEMENT_3D('',#200,#201,#202);
#200 = CARTESIAN_POINT('',(-0.65,-12.,1.469576158977E-15));
#201 = DIRECTION('',(0.,-1.224646799147E-16,-1.));
#202 = DIRECTION('',(1.,0.,0.));
#203 = ORIENTED_EDGE('',*,*,#204,.F.);
#204 = EDGE_CURVE('',#205,#196,#207,.T.);
#205 = VERTEX_POINT('',#206);
#206 = CARTESIAN_POINT('',(-2.65,-14.92,1.827173024328E-15));
#207 = LINE('',#208,#209);
#208 = CARTESIAN_POINT('',(-2.65,-14.92,1.827173024328E-15));
#209 = VECTOR('',#210,1.);
#210 = DIRECTION('',(0.,1.,-1.224646799147E-16));
#211 = ORIENTED_EDGE('',*,*,#212,.F.);
#212 = EDGE_CURVE('',#213,#205,#215,.T.);
#213 = VERTEX_POINT('',#214);
#214 = CARTESIAN_POINT('',(-3.65,-14.92,3.827173024328E-15));
#215 = LINE('',#216,#217);
#216 = CARTESIAN_POINT('',(-7.65,-14.92,1.827173024328E-15));
#217 = VECTOR('',#218,1.);
#218 = DIRECTION('',(1.,0.,0.));
#219 = ORIENTED_EDGE('',*,*,#220,.T.);
#220 = EDGE_CURVE('',#213,#221,#223,.T.);
#221 = VERTEX_POINT('',#222);
#222 = CARTESIAN_POINT('',(-3.65,14.92,-3.827173024328E-15));
#223 = LINE('',#224,#225);
#224 = CARTESIAN_POINT('',(-3.65,-3.673940397442E-33,-3.E-17));
#225 = VECTOR('',#226,1.);
#226 = DIRECTION('',(0.,1.,-3.424646799147E-16));
#227 = ORIENTED_EDGE('',*,*,#228,.T.);
#228 = EDGE_CURVE('',#221,#95,#229,.T.);
#229 = LINE('',#230,#231);
#230 = CARTESIAN_POINT('',(-7.65,14.92,-1.827173024328E-15));
#231 = VECTOR('',#232,1.);
#232 = DIRECTION('',(1.,0.,0.));
#233 = ORIENTED_EDGE('',*,*,#111,.T.);
#234 = PLANE('',#235);
#235 = AXIS2_PLACEMENT_3D('',#236,#237,#238);
#236 = CARTESIAN_POINT('',(0.144001393102,-2.3E-16,2.816687638039E-32));
#237 = DIRECTION('',(0.,-1.224646799147E-16,-1.));
#238 = DIRECTION('',(1.,0.,0.));
#239 = ADVANCED_FACE('',(#240),#352,.T.);
#240 = FACE_BOUND('',#241,.F.);
#241 = EDGE_LOOP('',(#242,#243,#244,#252,#260,#268,#276,#285,#293,#302,
    #311,#319,#327,#335,#344,#351));
#242 = ORIENTED_EDGE('',*,*,#31,.T.);
#243 = ORIENTED_EDGE('',*,*,#104,.F.);
#244 = ORIENTED_EDGE('',*,*,#245,.F.);
#245 = EDGE_CURVE('',#246,#97,#248,.T.);
#246 = VERTEX_POINT('',#247);
#247 = CARTESIAN_POINT('',(-7.65,14.92,-3.));
#248 = LINE('',#249,#250);
#249 = CARTESIAN_POINT('',(-7.65,14.92,-3.));
#250 = VECTOR('',#251,1.);
#251 = DIRECTION('',(1.,0.,0.));
#252 = ORIENTED_EDGE('',*,*,#253,.T.);
#253 = EDGE_CURVE('',#246,#254,#256,.T.);
#254 = VERTEX_POINT('',#255);
#255 = CARTESIAN_POINT('',(-7.65,-14.92,-3.));
#256 = LINE('',#257,#258);
#257 = CARTESIAN_POINT('',(-7.65,14.92,-3.));
#258 = VECTOR('',#259,1.);
#259 = DIRECTION('',(0.,-1.,1.224646799147E-16));
#260 = ORIENTED_EDGE('',*,*,#261,.T.);
#261 = EDGE_CURVE('',#254,#262,#264,.T.);
#262 = VERTEX_POINT('',#263);
#263 = CARTESIAN_POINT('',(-2.65,-14.92,-3.));
#264 = LINE('',#265,#266);
#265 = CARTESIAN_POINT('',(-7.65,-14.92,-3.));
#266 = VECTOR('',#267,1.);
#267 = DIRECTION('',(1.,0.,0.));
#268 = ORIENTED_EDGE('',*,*,#269,.T.);
#269 = EDGE_CURVE('',#262,#270,#272,.T.);
#270 = VERTEX_POINT('',#271);
#271 = CARTESIAN_POINT('',(-2.65,-12.,-3.));
#272 = LINE('',#273,#274);
#273 = CARTESIAN_POINT('',(-2.65,-14.92,-3.));
#274 = VECTOR('',#275,1.);
#275 = DIRECTION('',(0.,1.,-1.224646799147E-16));
#276 = ORIENTED_EDGE('',*,*,#277,.T.);
#277 = EDGE_CURVE('',#270,#278,#280,.T.);
#278 = VERTEX_POINT('',#279);
#279 = CARTESIAN_POINT('',(-0.65,-10.,-3.));
#280 = CIRCLE('',#281,2.);
#281 = AXIS2_PLACEMENT_3D('',#282,#283,#284);
#282 = CARTESIAN_POINT('',(-0.65,-12.,-3.));
#283 = DIRECTION('',(0.,-1.224646799147E-16,-1.));
#284 = DIRECTION('',(1.,0.,0.));
#285 = ORIENTED_EDGE('',*,*,#286,.T.);
#286 = EDGE_CURVE('',#278,#287,#289,.T.);
#287 = VERTEX_POINT('',#288);
#288 = CARTESIAN_POINT('',(3.,-10.,-3.));
#289 = LINE('',#290,#291);
#290 = CARTESIAN_POINT('',(-0.65,-10.,-3.));
#291 = VECTOR('',#292,1.);
#292 = DIRECTION('',(1.,0.,0.));
#293 = ORIENTED_EDGE('',*,*,#294,.F.);
#294 = EDGE_CURVE('',#295,#287,#297,.T.);
#295 = VERTEX_POINT('',#296);
#296 = CARTESIAN_POINT('',(5.,-8.,-3.));
#297 = CIRCLE('',#298,2.);
#298 = AXIS2_PLACEMENT_3D('',#299,#300,#301);
#299 = CARTESIAN_POINT('',(3.,-8.,-3.));
#300 = DIRECTION('',(0.,-1.224646799147E-16,-1.));
#301 = DIRECTION('',(1.,0.,0.));
#302 = ORIENTED_EDGE('',*,*,#303,.T.);
#303 = EDGE_CURVE('',#295,#304,#306,.T.);
#304 = VERTEX_POINT('',#305);
#305 = CARTESIAN_POINT('',(7.,-6.,-3.));
#306 = CIRCLE('',#307,2.);
#307 = AXIS2_PLACEMENT_3D('',#308,#309,#310);
#308 = CARTESIAN_POINT('',(7.,-8.,-3.));
#309 = DIRECTION('',(0.,-1.224646799147E-16,-1.));
#310 = DIRECTION('',(1.,0.,0.));
#311 = ORIENTED_EDGE('',*,*,#312,.F.);
#312 = EDGE_CURVE('',#313,#304,#315,.T.);
#313 = VERTEX_POINT('',#314);
#314 = CARTESIAN_POINT('',(12.3,-6.,-3.));
#315 = LINE('',#316,#317);
#316 = CARTESIAN_POINT('',(12.3,-6.,-3.));
#317 = VECTOR('',#318,1.);
#318 = DIRECTION('',(-1.,0.,0.));
#319 = ORIENTED_EDGE('',*,*,#320,.T.);
#320 = EDGE_CURVE('',#313,#321,#323,.T.);
#321 = VERTEX_POINT('',#322);
#322 = CARTESIAN_POINT('',(12.3,6.,-3.));
#323 = LINE('',#324,#325);
#324 = CARTESIAN_POINT('',(12.3,-6.,-3.));
#325 = VECTOR('',#326,1.);
#326 = DIRECTION('',(0.,1.,-1.224646799147E-16));
#327 = ORIENTED_EDGE('',*,*,#328,.T.);
#328 = EDGE_CURVE('',#321,#329,#331,.T.);
#329 = VERTEX_POINT('',#330);
#330 = CARTESIAN_POINT('',(7.,6.,-3.));
#331 = LINE('',#332,#333);
#332 = CARTESIAN_POINT('',(12.3,6.,-3.));
#333 = VECTOR('',#334,1.);
#334 = DIRECTION('',(-1.,0.,0.));
#335 = ORIENTED_EDGE('',*,*,#336,.T.);
#336 = EDGE_CURVE('',#329,#337,#339,.T.);
#337 = VERTEX_POINT('',#338);
#338 = CARTESIAN_POINT('',(5.,8.,-3.));
#339 = CIRCLE('',#340,2.);
#340 = AXIS2_PLACEMENT_3D('',#341,#342,#343);
#341 = CARTESIAN_POINT('',(7.,8.,-3.));
#342 = DIRECTION('',(0.,-1.224646799147E-16,-1.));
#343 = DIRECTION('',(1.,0.,0.));
#344 = ORIENTED_EDGE('',*,*,#345,.F.);
#345 = EDGE_CURVE('',#65,#337,#346,.T.);
#346 = CIRCLE('',#347,2.);
#347 = AXIS2_PLACEMENT_3D('',#348,#349,#350);
#348 = CARTESIAN_POINT('',(3.,8.,-3.));
#349 = DIRECTION('',(0.,-1.224646799147E-16,-1.));
#350 = DIRECTION('',(1.,0.,0.));
#351 = ORIENTED_EDGE('',*,*,#64,.F.);
#352 = PLANE('',#353);
#353 = AXIS2_PLACEMENT_3D('',#354,#355,#356);
#354 = CARTESIAN_POINT('',(0.144001393102,-5.973940397442E-16,-3.));
#355 = DIRECTION('',(0.,-1.224646799147E-16,-1.));
#356 = DIRECTION('',(1.,0.,0.));
#357 = ADVANCED_FACE('',(#358),#369,.T.);
#358 = FACE_BOUND('',#359,.F.);
#359 = EDGE_LOOP('',(#360,#361,#362,#368));
#360 = ORIENTED_EDGE('',*,*,#72,.T.);
#361 = ORIENTED_EDGE('',*,*,#345,.T.);
#362 = ORIENTED_EDGE('',*,*,#363,.F.);
#363 = EDGE_CURVE('',#128,#337,#364,.T.);
#364 = LINE('',#365,#366);
#365 = CARTESIAN_POINT('',(5.,8.,-9.797174393179E-16));
#366 = VECTOR('',#367,1.);
#367 = DIRECTION('',(0.,-1.224646799147E-16,-1.));
#368 = ORIENTED_EDGE('',*,*,#127,.F.);
#369 = CYLINDRICAL_SURFACE('',#370,2.);
#370 = AXIS2_PLACEMENT_3D('',#371,#372,#373);
#371 = CARTESIAN_POINT('',(3.,8.,-9.797174393179E-16));
#372 = DIRECTION('',(0.,1.224646799147E-16,1.));
#373 = DIRECTION('',(1.,0.,0.));
#374 = ADVANCED_FACE('',(#375),#410,.F.);
#375 = FACE_BOUND('',#376,.F.);
#376 = EDGE_LOOP('',(#377,#387,#393,#394,#395,#396,#404));
#377 = ORIENTED_EDGE('',*,*,#378,.F.);
#378 = EDGE_CURVE('',#379,#381,#383,.T.);
#379 = VERTEX_POINT('',#380);
#380 = CARTESIAN_POINT('',(-7.65,14.92,-1.827173024328E-15));
#381 = VERTEX_POINT('',#382);
#382 = CARTESIAN_POINT('',(-6.65,14.92,-3.827173024328E-15));
#383 = LINE('',#384,#385);
#384 = CARTESIAN_POINT('',(-7.65,14.92,-1.827173024328E-15));
#385 = VECTOR('',#386,1.);
#386 = DIRECTION('',(1.,0.,0.));
#387 = ORIENTED_EDGE('',*,*,#388,.T.);
#388 = EDGE_CURVE('',#379,#246,#389,.T.);
#389 = LINE('',#390,#391);
#390 = CARTESIAN_POINT('',(-7.65,14.92,-1.827173024328E-15));
#391 = VECTOR('',#392,1.);
#392 = DIRECTION('',(0.,-1.224646799147E-16,-1.));
#393 = ORIENTED_EDGE('',*,*,#245,.T.);
#394 = ORIENTED_EDGE('',*,*,#94,.F.);
#395 = ORIENTED_EDGE('',*,*,#228,.F.);
#396 = ORIENTED_EDGE('',*,*,#397,.F.);
#397 = EDGE_CURVE('',#398,#221,#400,.T.);
#398 = VERTEX_POINT('',#399);
#399 = CARTESIAN_POINT('',(-5.15,14.92,-0.866025403784));
#400 = LINE('',#401,#402);
#401 = CARTESIAN_POINT('',(-5.525,14.92,-1.082531754731));
#402 = VECTOR('',#403,1.);
#403 = DIRECTION('',(0.866025403784,6.123233995737E-17,0.5));
#404 = ORIENTED_EDGE('',*,*,#405,.F.);
#405 = EDGE_CURVE('',#381,#398,#406,.T.);
#406 = LINE('',#407,#408);
#407 = CARTESIAN_POINT('',(-6.65,14.92,-4.407173024328E-15));
#408 = VECTOR('',#409,1.);
#409 = DIRECTION('',(0.866025403784,-6.123233995737E-17,-0.5));
#410 = PLANE('',#411);
#411 = AXIS2_PLACEMENT_3D('',#412,#413,#414);
#412 = CARTESIAN_POINT('',(-7.65,14.92,-1.827173024328E-15));
#413 = DIRECTION('',(0.,-1.,1.224646799147E-16));
#414 = DIRECTION('',(1.,0.,0.));
#415 = ADVANCED_FACE('',(#416),#434,.F.);
#416 = FACE_BOUND('',#417,.F.);
#417 = EDGE_LOOP('',(#418,#426,#432,#433));
#418 = ORIENTED_EDGE('',*,*,#419,.F.);
#419 = EDGE_CURVE('',#420,#213,#422,.T.);
#420 = VERTEX_POINT('',#421);
#421 = CARTESIAN_POINT('',(-5.15,-14.92,-0.866025403784));
#422 = LINE('',#423,#424);
#423 = CARTESIAN_POINT('',(-5.525,-14.92,-1.082531754731));
#424 = VECTOR('',#425,1.);
#425 = DIRECTION('',(0.866025403784,6.123233995737E-17,0.5));
#426 = ORIENTED_EDGE('',*,*,#427,.T.);
#427 = EDGE_CURVE('',#420,#398,#428,.T.);
#428 = LINE('',#429,#430);
#429 = CARTESIAN_POINT('',(-5.15,-2.960575238725E-16,-0.866025403784));
#430 = VECTOR('',#431,1.);
#431 = DIRECTION('',(0.,1.,-3.424646799147E-16));
#432 = ORIENTED_EDGE('',*,*,#397,.T.);
#433 = ORIENTED_EDGE('',*,*,#220,.F.);
#434 = PLANE('',#435);
#435 = AXIS2_PLACEMENT_3D('',#436,#437,#438);
#436 = CARTESIAN_POINT('',(-4.4,6.669712380638E-16,-0.433012701892));
#437 = DIRECTION('',(0.5,-2.960575238725E-16,-0.866025403784));
#438 = DIRECTION('',(0.866025403784,6.123233995737E-17,0.5));
#439 = ADVANCED_FACE('',(#440),#473,.T.);
#440 = FACE_BOUND('',#441,.T.);
#441 = EDGE_LOOP('',(#442,#452,#458,#459,#465,#466,#467));
#442 = ORIENTED_EDGE('',*,*,#443,.F.);
#443 = EDGE_CURVE('',#444,#446,#448,.T.);
#444 = VERTEX_POINT('',#445);
#445 = CARTESIAN_POINT('',(-7.65,-14.92,1.827173024328E-15));
#446 = VERTEX_POINT('',#447);
#447 = CARTESIAN_POINT('',(-6.65,-14.92,3.827173024328E-15));
#448 = LINE('',#449,#450);
#449 = CARTESIAN_POINT('',(-7.65,-14.92,1.827173024328E-15));
#450 = VECTOR('',#451,1.);
#451 = DIRECTION('',(1.,0.,0.));
#452 = ORIENTED_EDGE('',*,*,#453,.T.);
#453 = EDGE_CURVE('',#444,#254,#454,.T.);
#454 = LINE('',#455,#456);
#455 = CARTESIAN_POINT('',(-7.65,-14.92,1.827173024328E-15));
#456 = VECTOR('',#457,1.);
#457 = DIRECTION('',(0.,-1.224646799147E-16,-1.));
#458 = ORIENTED_EDGE('',*,*,#261,.T.);
#459 = ORIENTED_EDGE('',*,*,#460,.F.);
#460 = EDGE_CURVE('',#205,#262,#461,.T.);
#461 = LINE('',#462,#463);
#462 = CARTESIAN_POINT('',(-2.65,-14.92,1.827173024328E-15));
#463 = VECTOR('',#464,1.);
#464 = DIRECTION('',(0.,-1.224646799147E-16,-1.));
#465 = ORIENTED_EDGE('',*,*,#212,.F.);
#466 = ORIENTED_EDGE('',*,*,#419,.F.);
#467 = ORIENTED_EDGE('',*,*,#468,.F.);
#468 = EDGE_CURVE('',#446,#420,#469,.T.);
#469 = LINE('',#470,#471);
#470 = CARTESIAN_POINT('',(-6.65,-14.92,4.237173024328E-15));
#471 = VECTOR('',#472,1.);
#472 = DIRECTION('',(0.866025403784,-6.123233995737E-17,-0.5));
#473 = PLANE('',#474);
#474 = AXIS2_PLACEMENT_3D('',#475,#476,#477);
#475 = CARTESIAN_POINT('',(-7.65,-14.92,1.827173024328E-15));
#476 = DIRECTION('',(0.,-1.,1.224646799147E-16));
#477 = DIRECTION('',(1.,0.,0.));
#478 = ADVANCED_FACE('',(#479),#490,.T.);
#479 = FACE_BOUND('',#480,.T.);
#480 = EDGE_LOOP('',(#481,#482,#483,#489));
#481 = ORIENTED_EDGE('',*,*,#460,.T.);
#482 = ORIENTED_EDGE('',*,*,#269,.T.);
#483 = ORIENTED_EDGE('',*,*,#484,.F.);
#484 = EDGE_CURVE('',#196,#270,#485,.T.);
#485 = LINE('',#486,#487);
#486 = CARTESIAN_POINT('',(-2.65,-12.,1.469576158977E-15));
#487 = VECTOR('',#488,1.);
#488 = DIRECTION('',(0.,-1.224646799147E-16,-1.));
#489 = ORIENTED_EDGE('',*,*,#204,.F.);
#490 = PLANE('',#491);
#491 = AXIS2_PLACEMENT_3D('',#492,#493,#494);
#492 = CARTESIAN_POINT('',(-2.65,-14.92,1.827173024328E-15));
#493 = DIRECTION('',(1.,0.,0.));
#494 = DIRECTION('',(0.,1.,-1.224646799147E-16));
#495 = ADVANCED_FACE('',(#496),#507,.F.);
#496 = FACE_BOUND('',#497,.T.);
#497 = EDGE_LOOP('',(#498,#499,#500,#506));
#498 = ORIENTED_EDGE('',*,*,#484,.T.);
#499 = ORIENTED_EDGE('',*,*,#277,.T.);
#500 = ORIENTED_EDGE('',*,*,#501,.F.);
#501 = EDGE_CURVE('',#188,#278,#502,.T.);
#502 = LINE('',#503,#504);
#503 = CARTESIAN_POINT('',(-0.65,-10.,1.224646799147E-15));
#504 = VECTOR('',#505,1.);
#505 = DIRECTION('',(0.,-1.224646799147E-16,-1.));
#506 = ORIENTED_EDGE('',*,*,#195,.F.);
#507 = CYLINDRICAL_SURFACE('',#508,2.);
#508 = AXIS2_PLACEMENT_3D('',#509,#510,#511);
#509 = CARTESIAN_POINT('',(-0.65,-12.,1.469576158977E-15));
#510 = DIRECTION('',(0.,1.224646799147E-16,1.));
#511 = DIRECTION('',(1.,0.,0.));
#512 = ADVANCED_FACE('',(#513),#524,.T.);
#513 = FACE_BOUND('',#514,.T.);
#514 = EDGE_LOOP('',(#515,#516,#517,#523));
#515 = ORIENTED_EDGE('',*,*,#501,.T.);
#516 = ORIENTED_EDGE('',*,*,#286,.T.);
#517 = ORIENTED_EDGE('',*,*,#518,.F.);
#518 = EDGE_CURVE('',#179,#287,#519,.T.);
#519 = LINE('',#520,#521);
#520 = CARTESIAN_POINT('',(3.,-10.,1.224646799147E-15));
#521 = VECTOR('',#522,1.);
#522 = DIRECTION('',(0.,-1.224646799147E-16,-1.));
#523 = ORIENTED_EDGE('',*,*,#187,.F.);
#524 = PLANE('',#525);
#525 = AXIS2_PLACEMENT_3D('',#526,#527,#528);
#526 = CARTESIAN_POINT('',(-0.65,-10.,1.224646799147E-15));
#527 = DIRECTION('',(0.,-1.,1.224646799147E-16));
#528 = DIRECTION('',(1.,0.,0.));
#529 = ADVANCED_FACE('',(#530),#541,.T.);
#530 = FACE_BOUND('',#531,.F.);
#531 = EDGE_LOOP('',(#532,#538,#539,#540));
#532 = ORIENTED_EDGE('',*,*,#533,.T.);
#533 = EDGE_CURVE('',#170,#295,#534,.T.);
#534 = LINE('',#535,#536);
#535 = CARTESIAN_POINT('',(5.,-8.,9.797174393179E-16));
#536 = VECTOR('',#537,1.);
#537 = DIRECTION('',(0.,-1.224646799147E-16,-1.));
#538 = ORIENTED_EDGE('',*,*,#294,.T.);
#539 = ORIENTED_EDGE('',*,*,#518,.F.);
#540 = ORIENTED_EDGE('',*,*,#178,.F.);
#541 = CYLINDRICAL_SURFACE('',#542,2.);
#542 = AXIS2_PLACEMENT_3D('',#543,#544,#545);
#543 = CARTESIAN_POINT('',(3.,-8.,9.797174393179E-16));
#544 = DIRECTION('',(0.,1.224646799147E-16,1.));
#545 = DIRECTION('',(1.,0.,0.));
#546 = ADVANCED_FACE('',(#547),#558,.F.);
#547 = FACE_BOUND('',#548,.T.);
#548 = EDGE_LOOP('',(#549,#550,#551,#557));
#549 = ORIENTED_EDGE('',*,*,#533,.T.);
#550 = ORIENTED_EDGE('',*,*,#303,.T.);
#551 = ORIENTED_EDGE('',*,*,#552,.F.);
#552 = EDGE_CURVE('',#162,#304,#553,.T.);
#553 = LINE('',#554,#555);
#554 = CARTESIAN_POINT('',(7.,-6.,7.347880794884E-16));
#555 = VECTOR('',#556,1.);
#556 = DIRECTION('',(0.,-1.224646799147E-16,-1.));
#557 = ORIENTED_EDGE('',*,*,#169,.F.);
#558 = CYLINDRICAL_SURFACE('',#559,2.);
#559 = AXIS2_PLACEMENT_3D('',#560,#561,#562);
#560 = CARTESIAN_POINT('',(7.,-8.,9.797174393179E-16));
#561 = DIRECTION('',(0.,1.224646799147E-16,1.));
#562 = DIRECTION('',(1.,0.,0.));
#563 = ADVANCED_FACE('',(#564),#591,.F.);
#564 = FACE_BOUND('',#565,.F.);
#565 = EDGE_LOOP('',(#566,#576,#582,#583,#584,#585));
#566 = ORIENTED_EDGE('',*,*,#567,.F.);
#567 = EDGE_CURVE('',#568,#570,#572,.T.);
#568 = VERTEX_POINT('',#569);
#569 = CARTESIAN_POINT('',(12.3,-6.,-0.56));
#570 = VERTEX_POINT('',#571);
#571 = CARTESIAN_POINT('',(7.3,-6.,-0.56));
#572 = LINE('',#573,#574);
#573 = CARTESIAN_POINT('',(11.05,-6.,-0.56));
#574 = VECTOR('',#575,1.);
#575 = DIRECTION('',(-1.,-0.,0.));
#576 = ORIENTED_EDGE('',*,*,#577,.T.);
#577 = EDGE_CURVE('',#568,#313,#578,.T.);
#578 = LINE('',#579,#580);
#579 = CARTESIAN_POINT('',(12.3,-6.,7.347880794884E-16));
#580 = VECTOR('',#581,1.);
#581 = DIRECTION('',(0.,-1.224646799147E-16,-1.));
#582 = ORIENTED_EDGE('',*,*,#312,.T.);
#583 = ORIENTED_EDGE('',*,*,#552,.F.);
#584 = ORIENTED_EDGE('',*,*,#161,.F.);
#585 = ORIENTED_EDGE('',*,*,#586,.F.);
#586 = EDGE_CURVE('',#570,#154,#587,.T.);
#587 = LINE('',#588,#589);
#588 = CARTESIAN_POINT('',(7.3,-6.,-0.14));
#589 = VECTOR('',#590,1.);
#590 = DIRECTION('',(0.,1.224646799147E-16,1.));
#591 = PLANE('',#592);
#592 = AXIS2_PLACEMENT_3D('',#593,#594,#595);
#593 = CARTESIAN_POINT('',(12.3,-6.,7.347880794884E-16));
#594 = DIRECTION('',(0.,1.,-1.224646799147E-16));
#595 = DIRECTION('',(-1.,0.,0.));
#596 = ADVANCED_FACE('',(#597),#615,.F.);
#597 = FACE_BOUND('',#598,.F.);
#598 = EDGE_LOOP('',(#599,#607,#608,#609));
#599 = ORIENTED_EDGE('',*,*,#600,.F.);
#600 = EDGE_CURVE('',#570,#601,#603,.T.);
#601 = VERTEX_POINT('',#602);
#602 = CARTESIAN_POINT('',(7.3,6.,-0.56));
#603 = LINE('',#604,#605);
#604 = CARTESIAN_POINT('',(7.3,-1.885802207523E-16,-0.56));
#605 = VECTOR('',#606,1.);
#606 = DIRECTION('',(0.,1.,-3.424646799147E-16));
#607 = ORIENTED_EDGE('',*,*,#586,.T.);
#608 = ORIENTED_EDGE('',*,*,#153,.F.);
#609 = ORIENTED_EDGE('',*,*,#610,.F.);
#610 = EDGE_CURVE('',#601,#146,#611,.T.);
#611 = LINE('',#612,#613);
#612 = CARTESIAN_POINT('',(7.3,6.,-0.14));
#613 = VECTOR('',#614,1.);
#614 = DIRECTION('',(0.,1.224646799147E-16,1.));
#615 = PLANE('',#616);
#616 = AXIS2_PLACEMENT_3D('',#617,#618,#619);
#617 = CARTESIAN_POINT('',(7.3,-3.429011037613E-17,-0.28));
#618 = DIRECTION('',(-1.,0.,0.));
#619 = DIRECTION('',(0.,1.224646799147E-16,1.));
#620 = ADVANCED_FACE('',(#621),#646,.T.);
#621 = FACE_BOUND('',#622,.T.);
#622 = EDGE_LOOP('',(#623,#631,#637,#638,#644,#645));
#623 = ORIENTED_EDGE('',*,*,#624,.F.);
#624 = EDGE_CURVE('',#625,#601,#627,.T.);
#625 = VERTEX_POINT('',#626);
#626 = CARTESIAN_POINT('',(12.3,6.,-0.56));
#627 = LINE('',#628,#629);
#628 = CARTESIAN_POINT('',(11.05,6.,-0.56));
#629 = VECTOR('',#630,1.);
#630 = DIRECTION('',(-1.,-0.,0.));
#631 = ORIENTED_EDGE('',*,*,#632,.T.);
#632 = EDGE_CURVE('',#625,#321,#633,.T.);
#633 = LINE('',#634,#635);
#634 = CARTESIAN_POINT('',(12.3,6.,-7.347880794884E-16));
#635 = VECTOR('',#636,1.);
#636 = DIRECTION('',(0.,-1.224646799147E-16,-1.));
#637 = ORIENTED_EDGE('',*,*,#328,.T.);
#638 = ORIENTED_EDGE('',*,*,#639,.F.);
#639 = EDGE_CURVE('',#137,#329,#640,.T.);
#640 = LINE('',#641,#642);
#641 = CARTESIAN_POINT('',(7.,6.,-7.347880794884E-16));
#642 = VECTOR('',#643,1.);
#643 = DIRECTION('',(0.,-1.224646799147E-16,-1.));
#644 = ORIENTED_EDGE('',*,*,#145,.F.);
#645 = ORIENTED_EDGE('',*,*,#610,.F.);
#646 = PLANE('',#647);
#647 = AXIS2_PLACEMENT_3D('',#648,#649,#650);
#648 = CARTESIAN_POINT('',(12.3,6.,-7.347880794884E-16));
#649 = DIRECTION('',(0.,1.,-1.224646799147E-16));
#650 = DIRECTION('',(-1.,0.,0.));
#651 = ADVANCED_FACE('',(#652),#658,.F.);
#652 = FACE_BOUND('',#653,.T.);
#653 = EDGE_LOOP('',(#654,#655,#656,#657));
#654 = ORIENTED_EDGE('',*,*,#639,.T.);
#655 = ORIENTED_EDGE('',*,*,#336,.T.);
#656 = ORIENTED_EDGE('',*,*,#363,.F.);
#657 = ORIENTED_EDGE('',*,*,#136,.F.);
#658 = CYLINDRICAL_SURFACE('',#659,2.);
#659 = AXIS2_PLACEMENT_3D('',#660,#661,#662);
#660 = CARTESIAN_POINT('',(7.,8.,-9.797174393179E-16));
#661 = DIRECTION('',(0.,1.224646799147E-16,1.));
#662 = DIRECTION('',(1.,0.,0.));
#663 = ADVANCED_FACE('',(#664),#675,.T.);
#664 = FACE_BOUND('',#665,.T.);
#665 = EDGE_LOOP('',(#666,#667,#668,#669));
#666 = ORIENTED_EDGE('',*,*,#388,.T.);
#667 = ORIENTED_EDGE('',*,*,#253,.T.);
#668 = ORIENTED_EDGE('',*,*,#453,.F.);
#669 = ORIENTED_EDGE('',*,*,#670,.F.);
#670 = EDGE_CURVE('',#379,#444,#671,.T.);
#671 = LINE('',#672,#673);
#672 = CARTESIAN_POINT('',(-7.65,14.92,-1.827173024328E-15));
#673 = VECTOR('',#674,1.);
#674 = DIRECTION('',(0.,-1.,1.224646799147E-16));
#675 = PLANE('',#676);
#676 = AXIS2_PLACEMENT_3D('',#677,#678,#679);
#677 = CARTESIAN_POINT('',(-7.65,14.92,-1.827173024328E-15));
#678 = DIRECTION('',(-1.,0.,0.));
#679 = DIRECTION('',(0.,-1.,1.224646799147E-16));
#680 = ADVANCED_FACE('',(#681),#692,.T.);
#681 = FACE_BOUND('',#682,.T.);
#682 = EDGE_LOOP('',(#683,#689,#690,#691));
#683 = ORIENTED_EDGE('',*,*,#684,.F.);
#684 = EDGE_CURVE('',#568,#625,#685,.T.);
#685 = LINE('',#686,#687);
#686 = CARTESIAN_POINT('',(12.3,-1.885802207523E-16,-0.56));
#687 = VECTOR('',#688,1.);
#688 = DIRECTION('',(0.,1.,-3.424646799147E-16));
#689 = ORIENTED_EDGE('',*,*,#577,.T.);
#690 = ORIENTED_EDGE('',*,*,#320,.T.);
#691 = ORIENTED_EDGE('',*,*,#632,.F.);
#692 = PLANE('',#693);
#693 = AXIS2_PLACEMENT_3D('',#694,#695,#696);
#694 = CARTESIAN_POINT('',(12.3,-6.,7.347880794884E-16));
#695 = DIRECTION('',(1.,0.,0.));
#696 = DIRECTION('',(0.,1.,-1.224646799147E-16));
#697 = ADVANCED_FACE('',(#698),#709,.F.);
#698 = FACE_BOUND('',#699,.F.);
#699 = EDGE_LOOP('',(#700,#701,#707,#708));
#700 = ORIENTED_EDGE('',*,*,#378,.T.);
#701 = ORIENTED_EDGE('',*,*,#702,.T.);
#702 = EDGE_CURVE('',#381,#446,#703,.T.);
#703 = LINE('',#704,#705);
#704 = CARTESIAN_POINT('',(-6.65,2.449293598295E-33,2.E-17));
#705 = VECTOR('',#706,1.);
#706 = DIRECTION('',(0.,-1.,3.424646799147E-16));
#707 = ORIENTED_EDGE('',*,*,#443,.F.);
#708 = ORIENTED_EDGE('',*,*,#670,.F.);
#709 = PLANE('',#710);
#710 = AXIS2_PLACEMENT_3D('',#711,#712,#713);
#711 = CARTESIAN_POINT('',(0.144001393102,-2.3E-16,2.816687638039E-32));
#712 = DIRECTION('',(0.,-1.224646799147E-16,-1.));
#713 = DIRECTION('',(1.,0.,0.));
#714 = ADVANCED_FACE('',(#715),#721,.F.);
#715 = FACE_BOUND('',#716,.F.);
#716 = EDGE_LOOP('',(#717,#718,#719,#720));
#717 = ORIENTED_EDGE('',*,*,#427,.F.);
#718 = ORIENTED_EDGE('',*,*,#468,.F.);
#719 = ORIENTED_EDGE('',*,*,#702,.F.);
#720 = ORIENTED_EDGE('',*,*,#405,.T.);
#721 = PLANE('',#722);
#722 = AXIS2_PLACEMENT_3D('',#723,#724,#725);
#723 = CARTESIAN_POINT('',(-5.9,-5.302876193625E-17,-0.433012701892));
#724 = DIRECTION('',(-0.5,-2.960575238725E-16,-0.866025403784));
#725 = DIRECTION('',(0.866025403784,-6.123233995737E-17,-0.5));
#726 = ADVANCED_FACE('',(#727),#733,.F.);
#727 = FACE_BOUND('',#728,.F.);
#728 = EDGE_LOOP('',(#729,#730,#731,#732));
#729 = ORIENTED_EDGE('',*,*,#684,.F.);
#730 = ORIENTED_EDGE('',*,*,#567,.T.);
#731 = ORIENTED_EDGE('',*,*,#600,.T.);
#732 = ORIENTED_EDGE('',*,*,#624,.F.);
#733 = PLANE('',#734);
#734 = AXIS2_PLACEMENT_3D('',#735,#736,#737);
#735 = CARTESIAN_POINT('',(9.8,-6.858022075225E-17,-0.56));
#736 = DIRECTION('',(0.,-3.424646799147E-16,-1.));
#737 = DIRECTION('',(0.,-1.,3.424646799147E-16));
#738 = ( GEOMETRIC_REPRESENTATION_CONTEXT(3) 
GLOBAL_UNCERTAINTY_ASSIGNED_CONTEXT((#742)) GLOBAL_UNIT_ASSIGNED_CONTEXT
((#739,#740,#741)) REPRESENTATION_CONTEXT('Context #1',
  '3D Context with UNIT and UNCERTAINTY') );
#739 = ( LENGTH_UNIT() NAMED_UNIT(*) SI_UNIT(.MILLI.,.METRE.) );
#740 = ( NAMED_UNIT(*) PLANE_ANGLE_UNIT() SI_UNIT($,.RADIAN.) );
#741 = ( NAMED_UNIT(*) SI_UNIT($,.STERADIAN.) SOLID_ANGLE_UNIT() );
#742 = UNCERTAINTY_MEASURE_WITH_UNIT(LENGTH_MEASURE(2.E-05),#739,
  'distance_accuracy_value','confusion accuracy');
#743 = PRODUCT_RELATED_PRODUCT_CATEGORY('part',$,(#7));
#744 = MECHANICAL_DESIGN_GEOMETRIC_PRESENTATION_REPRESENTATION('',(#745)
  ,#738);
#745 = STYLED_ITEM('color',(#746),#15);
#746 = PRESENTATION_STYLE_ASSIGNMENT((#747,#753));
#747 = SURFACE_STYLE_USAGE(.BOTH.,#748);
#748 = SURFACE_SIDE_STYLE('',(#749));
#749 = SURFACE_STYLE_FILL_AREA(#750);
#750 = FILL_AREA_STYLE('',(#751));
#751 = FILL_AREA_STYLE_COLOUR('',#752);
#752 = COLOUR_RGB('',0.447058818107,0.474509808674,0.501960817233);
#753 = CURVE_STYLE('',#754,POSITIVE_LENGTH_MEASURE(0.1),#755);
#754 = DRAUGHTING_PRE_DEFINED_CURVE_FONT('continuous');
#755 = COLOUR_RGB('',9.803921802644E-02,9.803921802644E-02,
  9.803921802644E-02);
ENDSEC;
END-ISO-10303-21;
