ISO-10303-21;
HEADER;
FILE_DESCRIPTION(('FreeCAD Model'),'2;1');
FILE_NAME('Open CASCADE Shape Model','2026-03-20T16:03:19',(''),(''),
  'Open CASCADE STEP processor 7.8','FreeCAD','Unknown');
FILE_SCHEMA(('AUTOMOTIVE_DESIGN { 1 0 10303 214 1 1 1 1 }'));
ENDSEC;
DATA;
#1 = APPLICATION_PROTOCOL_DEFINITION('international standard',
  'automotive_design',2000,#2);
#2 = APPLICATION_CONTEXT(
  'core data for automotive mechanical design processes');
#3 = SHAPE_DEFINITION_REPRESENTATION(#4,#10);
#4 = PRODUCT_DEFINITION_SHAPE('','',#5);
#5 = PRODUCT_DEFINITION('design','',#6,#9);
#6 = PRODUCT_DEFINITION_FORMATION('','',#7);
#7 = PRODUCT('STM Base','STM Base','',(#8));
#8 = PRODUCT_CONTEXT('',#2,'mechanical');
#9 = PRODUCT_DEFINITION_CONTEXT('part definition',#2,'design');
#10 = ADVANCED_BREP_SHAPE_REPRESENTATION('',(#11,#15),#499);
#11 = AXIS2_PLACEMENT_3D('',#12,#13,#14);
#12 = CARTESIAN_POINT('',(0.,0.,0.));
#13 = DIRECTION('',(0.,0.,1.));
#14 = DIRECTION('',(1.,0.,-0.));
#15 = MANIFOLD_SOLID_BREP('',#16);
#16 = CLOSED_SHELL('',(#17,#57,#113,#144,#193,#258,#282,#299,#316,#333,
    #382,#406,#431,#448,#472,#487));
#17 = ADVANCED_FACE('',(#18),#52,.T.);
#18 = FACE_BOUND('',#19,.T.);
#19 = EDGE_LOOP('',(#20,#30,#38,#46));
#20 = ORIENTED_EDGE('',*,*,#21,.T.);
#21 = EDGE_CURVE('',#22,#24,#26,.T.);
#22 = VERTEX_POINT('',#23);
#23 = CARTESIAN_POINT('',(26.,-60.,1.33226762955E-14));
#24 = VERTEX_POINT('',#25);
#25 = CARTESIAN_POINT('',(-14.,-60.,1.33226762955E-14));
#26 = LINE('',#27,#28);
#27 = CARTESIAN_POINT('',(26.,-60.,1.33226762955E-14));
#28 = VECTOR('',#29,1.);
#29 = DIRECTION('',(-1.,0.,0.));
#30 = ORIENTED_EDGE('',*,*,#31,.T.);
#31 = EDGE_CURVE('',#24,#32,#34,.T.);
#32 = VERTEX_POINT('',#33);
#33 = CARTESIAN_POINT('',(-14.,-60.,-15.));
#34 = LINE('',#35,#36);
#35 = CARTESIAN_POINT('',(-14.,-60.,1.33226762955E-14));
#36 = VECTOR('',#37,1.);
#37 = DIRECTION('',(0.,-2.22044604925E-16,-1.));
#38 = ORIENTED_EDGE('',*,*,#39,.F.);
#39 = EDGE_CURVE('',#40,#32,#42,.T.);
#40 = VERTEX_POINT('',#41);
#41 = CARTESIAN_POINT('',(26.,-60.,-15.));
#42 = LINE('',#43,#44);
#43 = CARTESIAN_POINT('',(26.,-60.,-15.));
#44 = VECTOR('',#45,1.);
#45 = DIRECTION('',(-1.,0.,0.));
#46 = ORIENTED_EDGE('',*,*,#47,.F.);
#47 = EDGE_CURVE('',#22,#40,#48,.T.);
#48 = LINE('',#49,#50);
#49 = CARTESIAN_POINT('',(26.,-60.,1.33226762955E-14));
#50 = VECTOR('',#51,1.);
#51 = DIRECTION('',(0.,-2.22044604925E-16,-1.));
#52 = PLANE('',#53);
#53 = AXIS2_PLACEMENT_3D('',#54,#55,#56);
#54 = CARTESIAN_POINT('',(26.,-60.,1.33226762955E-14));
#55 = DIRECTION('',(0.,-1.,2.22044604925E-16));
#56 = DIRECTION('',(0.,-2.22044604925E-16,-1.));
#57 = ADVANCED_FACE('',(#58),#108,.T.);
#58 = FACE_BOUND('',#59,.T.);
#59 = EDGE_LOOP('',(#60,#68,#76,#84,#93,#101,#107));
#60 = ORIENTED_EDGE('',*,*,#61,.F.);
#61 = EDGE_CURVE('',#62,#22,#64,.T.);
#62 = VERTEX_POINT('',#63);
#63 = CARTESIAN_POINT('',(26.,-10.66,2.366995488501E-15));
#64 = LINE('',#65,#66);
#65 = CARTESIAN_POINT('',(26.,-10.66,2.366995488501E-15));
#66 = VECTOR('',#67,1.);
#67 = DIRECTION('',(0.,-1.,2.22044604925E-16));
#68 = ORIENTED_EDGE('',*,*,#69,.T.);
#69 = EDGE_CURVE('',#62,#70,#72,.T.);
#70 = VERTEX_POINT('',#71);
#71 = CARTESIAN_POINT('',(6.35,-10.66,4.366995488501E-15));
#72 = LINE('',#73,#74);
#73 = CARTESIAN_POINT('',(26.,-10.66,2.366995488501E-15));
#74 = VECTOR('',#75,1.);
#75 = DIRECTION('',(-1.,0.,0.));
#76 = ORIENTED_EDGE('',*,*,#77,.F.);
#77 = EDGE_CURVE('',#78,#70,#80,.T.);
#78 = VERTEX_POINT('',#79);
#79 = CARTESIAN_POINT('',(6.35,-16.66,7.699263118051E-15));
#80 = LINE('',#81,#82);
#81 = CARTESIAN_POINT('',(6.35,-16.66,7.399263118051E-15));
#82 = VECTOR('',#83,1.);
#83 = DIRECTION('',(0.,1.,-4.42044604925E-16));
#84 = ORIENTED_EDGE('',*,*,#85,.T.);
#85 = EDGE_CURVE('',#78,#86,#88,.T.);
#86 = VERTEX_POINT('',#87);
#87 = CARTESIAN_POINT('',(3.35,-19.66,8.365396932826E-15));
#88 = CIRCLE('',#89,3.);
#89 = AXIS2_PLACEMENT_3D('',#90,#91,#92);
#90 = CARTESIAN_POINT('',(3.35,-16.66,3.699263118051E-15));
#91 = DIRECTION('',(0.,-2.22044604925E-16,-1.));
#92 = DIRECTION('',(1.,0.,0.));
#93 = ORIENTED_EDGE('',*,*,#94,.T.);
#94 = EDGE_CURVE('',#86,#95,#97,.T.);
#95 = VERTEX_POINT('',#96);
#96 = CARTESIAN_POINT('',(-14.,-19.66,6.365396932826E-15));
#97 = LINE('',#98,#99);
#98 = CARTESIAN_POINT('',(3.35,-19.66,4.365396932826E-15));
#99 = VECTOR('',#100,1.);
#100 = DIRECTION('',(-1.,0.,0.));
#101 = ORIENTED_EDGE('',*,*,#102,.T.);
#102 = EDGE_CURVE('',#95,#24,#103,.T.);
#103 = LINE('',#104,#105);
#104 = CARTESIAN_POINT('',(-14.,-10.66,2.366995488501E-15));
#105 = VECTOR('',#106,1.);
#106 = DIRECTION('',(0.,-1.,2.22044604925E-16));
#107 = ORIENTED_EDGE('',*,*,#21,.F.);
#108 = PLANE('',#109);
#109 = AXIS2_PLACEMENT_3D('',#110,#111,#112);
#110 = CARTESIAN_POINT('',(26.,-10.66,2.366995488501E-15));
#111 = DIRECTION('',(0.,2.22044604925E-16,1.));
#112 = DIRECTION('',(0.,-1.,2.22044604925E-16));
#113 = ADVANCED_FACE('',(#114),#139,.T.);
#114 = FACE_BOUND('',#115,.T.);
#115 = EDGE_LOOP('',(#116,#117,#125,#133));
#116 = ORIENTED_EDGE('',*,*,#39,.T.);
#117 = ORIENTED_EDGE('',*,*,#118,.T.);
#118 = EDGE_CURVE('',#32,#119,#121,.T.);
#119 = VERTEX_POINT('',#120);
#120 = CARTESIAN_POINT('',(-14.,25.,-15.));
#121 = LINE('',#122,#123);
#122 = CARTESIAN_POINT('',(-14.,-60.,-15.));
#123 = VECTOR('',#124,1.);
#124 = DIRECTION('',(0.,1.,-2.22044604925E-16));
#125 = ORIENTED_EDGE('',*,*,#126,.F.);
#126 = EDGE_CURVE('',#127,#119,#129,.T.);
#127 = VERTEX_POINT('',#128);
#128 = CARTESIAN_POINT('',(26.,25.,-15.));
#129 = LINE('',#130,#131);
#130 = CARTESIAN_POINT('',(26.,25.,-15.));
#131 = VECTOR('',#132,1.);
#132 = DIRECTION('',(-1.,0.,0.));
#133 = ORIENTED_EDGE('',*,*,#134,.F.);
#134 = EDGE_CURVE('',#40,#127,#135,.T.);
#135 = LINE('',#136,#137);
#136 = CARTESIAN_POINT('',(26.,-60.,-15.));
#137 = VECTOR('',#138,1.);
#138 = DIRECTION('',(0.,1.,-2.22044604925E-16));
#139 = PLANE('',#140);
#140 = AXIS2_PLACEMENT_3D('',#141,#142,#143);
#141 = CARTESIAN_POINT('',(26.,-60.,-15.));
#142 = DIRECTION('',(0.,-2.22044604925E-16,-1.));
#143 = DIRECTION('',(0.,1.,-2.22044604925E-16));
#144 = ADVANCED_FACE('',(#145),#188,.T.);
#145 = FACE_BOUND('',#146,.T.);
#146 = EDGE_LOOP('',(#147,#148,#149,#157,#165,#173,#181,#187));
#147 = ORIENTED_EDGE('',*,*,#47,.T.);
#148 = ORIENTED_EDGE('',*,*,#134,.T.);
#149 = ORIENTED_EDGE('',*,*,#150,.T.);
#150 = EDGE_CURVE('',#127,#151,#153,.T.);
#151 = VERTEX_POINT('',#152);
#152 = CARTESIAN_POINT('',(26.,25.,25.));
#153 = LINE('',#154,#155);
#154 = CARTESIAN_POINT('',(26.,25.,-15.));
#155 = VECTOR('',#156,1.);
#156 = DIRECTION('',(0.,2.22044604925E-16,1.));
#157 = ORIENTED_EDGE('',*,*,#158,.T.);
#158 = EDGE_CURVE('',#151,#159,#161,.T.);
#159 = VERTEX_POINT('',#160);
#160 = CARTESIAN_POINT('',(26.,5.551115123126E-15,25.));
#161 = LINE('',#162,#163);
#162 = CARTESIAN_POINT('',(26.,25.,25.));
#163 = VECTOR('',#164,1.);
#164 = DIRECTION('',(0.,-1.,2.22044604925E-16));
#165 = ORIENTED_EDGE('',*,*,#166,.T.);
#166 = EDGE_CURVE('',#159,#167,#169,.T.);
#167 = VERTEX_POINT('',#168);
#168 = CARTESIAN_POINT('',(26.,-1.33226762955E-15,-6.));
#169 = LINE('',#170,#171);
#170 = CARTESIAN_POINT('',(26.,5.551115123126E-15,25.));
#171 = VECTOR('',#172,1.);
#172 = DIRECTION('',(0.,-2.22044604925E-16,-1.));
#173 = ORIENTED_EDGE('',*,*,#174,.T.);
#174 = EDGE_CURVE('',#167,#175,#177,.T.);
#175 = VERTEX_POINT('',#176);
#176 = CARTESIAN_POINT('',(26.,-10.66,-6.));
#177 = LINE('',#178,#179);
#178 = CARTESIAN_POINT('',(26.,-1.36226762955E-15,-6.));
#179 = VECTOR('',#180,1.);
#180 = DIRECTION('',(0.,-1.,2.22044604925E-16));
#181 = ORIENTED_EDGE('',*,*,#182,.T.);
#182 = EDGE_CURVE('',#175,#62,#183,.T.);
#183 = LINE('',#184,#185);
#184 = CARTESIAN_POINT('',(26.,-10.66,-6.));
#185 = VECTOR('',#186,1.);
#186 = DIRECTION('',(0.,2.22044604925E-16,1.));
#187 = ORIENTED_EDGE('',*,*,#61,.T.);
#188 = PLANE('',#189);
#189 = AXIS2_PLACEMENT_3D('',#190,#191,#192);
#190 = CARTESIAN_POINT('',(26.,-11.21740458015,-1.33572519084));
#191 = DIRECTION('',(1.,0.,0.));
#192 = DIRECTION('',(0.,-1.,2.22044604925E-16));
#193 = ADVANCED_FACE('',(#194),#253,.F.);
#194 = FACE_BOUND('',#195,.F.);
#195 = EDGE_LOOP('',(#196,#197,#198,#199,#207,#215,#223,#231,#239,#247)
  );
#196 = ORIENTED_EDGE('',*,*,#102,.T.);
#197 = ORIENTED_EDGE('',*,*,#31,.T.);
#198 = ORIENTED_EDGE('',*,*,#118,.T.);
#199 = ORIENTED_EDGE('',*,*,#200,.T.);
#200 = EDGE_CURVE('',#119,#201,#203,.T.);
#201 = VERTEX_POINT('',#202);
#202 = CARTESIAN_POINT('',(-14.,25.,25.));
#203 = LINE('',#204,#205);
#204 = CARTESIAN_POINT('',(-14.,25.,-15.));
#205 = VECTOR('',#206,1.);
#206 = DIRECTION('',(0.,2.22044604925E-16,1.));
#207 = ORIENTED_EDGE('',*,*,#208,.T.);
#208 = EDGE_CURVE('',#201,#209,#211,.T.);
#209 = VERTEX_POINT('',#210);
#210 = CARTESIAN_POINT('',(-14.,5.551115123126E-15,25.));
#211 = LINE('',#212,#213);
#212 = CARTESIAN_POINT('',(-14.,25.,25.));
#213 = VECTOR('',#214,1.);
#214 = DIRECTION('',(0.,-1.,2.22044604925E-16));
#215 = ORIENTED_EDGE('',*,*,#216,.T.);
#216 = EDGE_CURVE('',#209,#217,#219,.T.);
#217 = VERTEX_POINT('',#218);
#218 = CARTESIAN_POINT('',(-14.,-1.33226762955E-15,-6.));
#219 = LINE('',#220,#221);
#220 = CARTESIAN_POINT('',(-14.,5.551115123126E-15,25.));
#221 = VECTOR('',#222,1.);
#222 = DIRECTION('',(0.,-2.22044604925E-16,-1.));
#223 = ORIENTED_EDGE('',*,*,#224,.T.);
#224 = EDGE_CURVE('',#217,#225,#227,.T.);
#225 = VERTEX_POINT('',#226);
#226 = CARTESIAN_POINT('',(-14.,-10.66,-6.));
#227 = LINE('',#228,#229);
#228 = CARTESIAN_POINT('',(-14.,-1.36226762955E-15,-6.));
#229 = VECTOR('',#230,1.);
#230 = DIRECTION('',(0.,-1.,2.22044604925E-16));
#231 = ORIENTED_EDGE('',*,*,#232,.F.);
#232 = EDGE_CURVE('',#233,#225,#235,.T.);
#233 = VERTEX_POINT('',#234);
#234 = CARTESIAN_POINT('',(-14.,-10.66,-10.));
#235 = LINE('',#236,#237);
#236 = CARTESIAN_POINT('',(-14.,-10.66,-0.66786259542));
#237 = VECTOR('',#238,1.);
#238 = DIRECTION('',(0.,4.42044604925E-16,1.));
#239 = ORIENTED_EDGE('',*,*,#240,.T.);
#240 = EDGE_CURVE('',#233,#241,#243,.T.);
#241 = VERTEX_POINT('',#242);
#242 = CARTESIAN_POINT('',(-14.,-19.66,-10.));
#243 = LINE('',#244,#245);
#244 = CARTESIAN_POINT('',(-14.,-13.18870229007,-10.));
#245 = VECTOR('',#246,1.);
#246 = DIRECTION('',(0.,-1.,2.22044604925E-16));
#247 = ORIENTED_EDGE('',*,*,#248,.T.);
#248 = EDGE_CURVE('',#241,#95,#249,.T.);
#249 = LINE('',#250,#251);
#250 = CARTESIAN_POINT('',(-14.,-19.66,-0.66786259542));
#251 = VECTOR('',#252,1.);
#252 = DIRECTION('',(0.,4.42044604925E-16,1.));
#253 = PLANE('',#254);
#254 = AXIS2_PLACEMENT_3D('',#255,#256,#257);
#255 = CARTESIAN_POINT('',(-14.,-11.21740458015,-1.33572519084));
#256 = DIRECTION('',(1.,0.,0.));
#257 = DIRECTION('',(0.,-1.,2.22044604925E-16));
#258 = ADVANCED_FACE('',(#259),#277,.T.);
#259 = FACE_BOUND('',#260,.T.);
#260 = EDGE_LOOP('',(#261,#262,#270,#276));
#261 = ORIENTED_EDGE('',*,*,#182,.F.);
#262 = ORIENTED_EDGE('',*,*,#263,.T.);
#263 = EDGE_CURVE('',#175,#264,#266,.T.);
#264 = VERTEX_POINT('',#265);
#265 = CARTESIAN_POINT('',(6.35,-10.66,-6.));
#266 = LINE('',#267,#268);
#267 = CARTESIAN_POINT('',(26.,-10.66,-6.));
#268 = VECTOR('',#269,1.);
#269 = DIRECTION('',(-1.,0.,0.));
#270 = ORIENTED_EDGE('',*,*,#271,.F.);
#271 = EDGE_CURVE('',#70,#264,#272,.T.);
#272 = LINE('',#273,#274);
#273 = CARTESIAN_POINT('',(6.35,-10.66,4.736995488501E-15));
#274 = VECTOR('',#275,1.);
#275 = DIRECTION('',(0.,-4.42044604925E-16,-1.));
#276 = ORIENTED_EDGE('',*,*,#69,.F.);
#277 = PLANE('',#278);
#278 = AXIS2_PLACEMENT_3D('',#279,#280,#281);
#279 = CARTESIAN_POINT('',(26.,-10.66,-6.));
#280 = DIRECTION('',(0.,1.,-2.22044604925E-16));
#281 = DIRECTION('',(0.,2.22044604925E-16,1.));
#282 = ADVANCED_FACE('',(#283),#294,.T.);
#283 = FACE_BOUND('',#284,.T.);
#284 = EDGE_LOOP('',(#285,#286,#287,#293));
#285 = ORIENTED_EDGE('',*,*,#126,.T.);
#286 = ORIENTED_EDGE('',*,*,#200,.T.);
#287 = ORIENTED_EDGE('',*,*,#288,.F.);
#288 = EDGE_CURVE('',#151,#201,#289,.T.);
#289 = LINE('',#290,#291);
#290 = CARTESIAN_POINT('',(26.,25.,25.));
#291 = VECTOR('',#292,1.);
#292 = DIRECTION('',(-1.,0.,0.));
#293 = ORIENTED_EDGE('',*,*,#150,.F.);
#294 = PLANE('',#295);
#295 = AXIS2_PLACEMENT_3D('',#296,#297,#298);
#296 = CARTESIAN_POINT('',(26.,25.,-15.));
#297 = DIRECTION('',(0.,1.,-2.22044604925E-16));
#298 = DIRECTION('',(0.,2.22044604925E-16,1.));
#299 = ADVANCED_FACE('',(#300),#311,.T.);
#300 = FACE_BOUND('',#301,.T.);
#301 = EDGE_LOOP('',(#302,#303,#304,#310));
#302 = ORIENTED_EDGE('',*,*,#288,.T.);
#303 = ORIENTED_EDGE('',*,*,#208,.T.);
#304 = ORIENTED_EDGE('',*,*,#305,.F.);
#305 = EDGE_CURVE('',#159,#209,#306,.T.);
#306 = LINE('',#307,#308);
#307 = CARTESIAN_POINT('',(26.,5.551115123126E-15,25.));
#308 = VECTOR('',#309,1.);
#309 = DIRECTION('',(-1.,0.,0.));
#310 = ORIENTED_EDGE('',*,*,#158,.F.);
#311 = PLANE('',#312);
#312 = AXIS2_PLACEMENT_3D('',#313,#314,#315);
#313 = CARTESIAN_POINT('',(26.,25.,25.));
#314 = DIRECTION('',(0.,2.22044604925E-16,1.));
#315 = DIRECTION('',(0.,-1.,2.22044604925E-16));
#316 = ADVANCED_FACE('',(#317),#328,.T.);
#317 = FACE_BOUND('',#318,.T.);
#318 = EDGE_LOOP('',(#319,#320,#321,#327));
#319 = ORIENTED_EDGE('',*,*,#305,.T.);
#320 = ORIENTED_EDGE('',*,*,#216,.T.);
#321 = ORIENTED_EDGE('',*,*,#322,.F.);
#322 = EDGE_CURVE('',#167,#217,#323,.T.);
#323 = LINE('',#324,#325);
#324 = CARTESIAN_POINT('',(26.,-1.36226762955E-15,-6.));
#325 = VECTOR('',#326,1.);
#326 = DIRECTION('',(-1.,0.,0.));
#327 = ORIENTED_EDGE('',*,*,#166,.F.);
#328 = PLANE('',#329);
#329 = AXIS2_PLACEMENT_3D('',#330,#331,#332);
#330 = CARTESIAN_POINT('',(26.,5.551115123126E-15,25.));
#331 = DIRECTION('',(0.,-1.,2.22044604925E-16));
#332 = DIRECTION('',(0.,-2.22044604925E-16,-1.));
#333 = ADVANCED_FACE('',(#334),#377,.T.);
#334 = FACE_BOUND('',#335,.T.);
#335 = EDGE_LOOP('',(#336,#347,#353,#354,#362,#371));
#336 = ORIENTED_EDGE('',*,*,#337,.F.);
#337 = EDGE_CURVE('',#338,#340,#342,.T.);
#338 = VERTEX_POINT('',#339);
#339 = CARTESIAN_POINT('',(3.35,-10.66,-10.));
#340 = VERTEX_POINT('',#341);
#341 = CARTESIAN_POINT('',(6.35,-13.66,-10.));
#342 = CIRCLE('',#343,3.);
#343 = AXIS2_PLACEMENT_3D('',#344,#345,#346);
#344 = CARTESIAN_POINT('',(3.35,-13.66,-10.));
#345 = DIRECTION('',(0.,-2.22044604925E-16,-1.));
#346 = DIRECTION('',(1.,0.,0.));
#347 = ORIENTED_EDGE('',*,*,#348,.T.);
#348 = EDGE_CURVE('',#338,#233,#349,.T.);
#349 = LINE('',#350,#351);
#350 = CARTESIAN_POINT('',(3.35,-10.66,-10.));
#351 = VECTOR('',#352,1.);
#352 = DIRECTION('',(-1.,0.,0.));
#353 = ORIENTED_EDGE('',*,*,#240,.T.);
#354 = ORIENTED_EDGE('',*,*,#355,.F.);
#355 = EDGE_CURVE('',#356,#241,#358,.T.);
#356 = VERTEX_POINT('',#357);
#357 = CARTESIAN_POINT('',(3.35,-19.66,-10.));
#358 = LINE('',#359,#360);
#359 = CARTESIAN_POINT('',(3.35,-19.66,-10.));
#360 = VECTOR('',#361,1.);
#361 = DIRECTION('',(-1.,0.,0.));
#362 = ORIENTED_EDGE('',*,*,#363,.F.);
#363 = EDGE_CURVE('',#364,#356,#366,.T.);
#364 = VERTEX_POINT('',#365);
#365 = CARTESIAN_POINT('',(6.35,-16.66,-10.));
#366 = CIRCLE('',#367,3.);
#367 = AXIS2_PLACEMENT_3D('',#368,#369,#370);
#368 = CARTESIAN_POINT('',(3.35,-16.66,-10.));
#369 = DIRECTION('',(0.,-2.22044604925E-16,-1.));
#370 = DIRECTION('',(1.,0.,0.));
#371 = ORIENTED_EDGE('',*,*,#372,.T.);
#372 = EDGE_CURVE('',#364,#340,#373,.T.);
#373 = LINE('',#374,#375);
#374 = CARTESIAN_POINT('',(6.35,-16.66,-10.));
#375 = VECTOR('',#376,1.);
#376 = DIRECTION('',(0.,1.,-2.22044604925E-16));
#377 = PLANE('',#378);
#378 = AXIS2_PLACEMENT_3D('',#379,#380,#381);
#379 = CARTESIAN_POINT('',(-7.367623982162,-15.16,-10.));
#380 = DIRECTION('',(0.,2.22044604925E-16,1.));
#381 = DIRECTION('',(0.,-1.,2.22044604925E-16));
#382 = ADVANCED_FACE('',(#383),#401,.F.);
#383 = FACE_BOUND('',#384,.F.);
#384 = EDGE_LOOP('',(#385,#393,#399,#400));
#385 = ORIENTED_EDGE('',*,*,#386,.F.);
#386 = EDGE_CURVE('',#387,#225,#389,.T.);
#387 = VERTEX_POINT('',#388);
#388 = CARTESIAN_POINT('',(3.35,-10.66,-6.));
#389 = LINE('',#390,#391);
#390 = CARTESIAN_POINT('',(26.,-10.66,-6.));
#391 = VECTOR('',#392,1.);
#392 = DIRECTION('',(-1.,0.,0.));
#393 = ORIENTED_EDGE('',*,*,#394,.T.);
#394 = EDGE_CURVE('',#387,#338,#395,.T.);
#395 = LINE('',#396,#397);
#396 = CARTESIAN_POINT('',(3.35,-10.66,4.736995488501E-15));
#397 = VECTOR('',#398,1.);
#398 = DIRECTION('',(0.,-4.42044604925E-16,-1.));
#399 = ORIENTED_EDGE('',*,*,#348,.T.);
#400 = ORIENTED_EDGE('',*,*,#232,.T.);
#401 = PLANE('',#402);
#402 = AXIS2_PLACEMENT_3D('',#403,#404,#405);
#403 = CARTESIAN_POINT('',(3.35,-10.66,4.736995488501E-15));
#404 = DIRECTION('',(0.,1.,-4.42044604925E-16));
#405 = DIRECTION('',(-1.,0.,0.));
#406 = ADVANCED_FACE('',(#407),#426,.F.);
#407 = FACE_BOUND('',#408,.T.);
#408 = EDGE_LOOP('',(#409,#418,#419,#420));
#409 = ORIENTED_EDGE('',*,*,#410,.T.);
#410 = EDGE_CURVE('',#411,#387,#413,.T.);
#411 = VERTEX_POINT('',#412);
#412 = CARTESIAN_POINT('',(6.35,-13.66,-6.));
#413 = CIRCLE('',#414,3.);
#414 = AXIS2_PLACEMENT_3D('',#415,#416,#417);
#415 = CARTESIAN_POINT('',(3.35,-13.66,-6.));
#416 = DIRECTION('',(-0.,4.42044604925E-16,1.));
#417 = DIRECTION('',(1.,0.,0.));
#418 = ORIENTED_EDGE('',*,*,#394,.T.);
#419 = ORIENTED_EDGE('',*,*,#337,.T.);
#420 = ORIENTED_EDGE('',*,*,#421,.F.);
#421 = EDGE_CURVE('',#411,#340,#422,.T.);
#422 = LINE('',#423,#424);
#423 = CARTESIAN_POINT('',(6.35,-13.66,6.063129303276E-15));
#424 = VECTOR('',#425,1.);
#425 = DIRECTION('',(0.,-4.42044604925E-16,-1.));
#426 = CYLINDRICAL_SURFACE('',#427,3.);
#427 = AXIS2_PLACEMENT_3D('',#428,#429,#430);
#428 = CARTESIAN_POINT('',(3.35,-13.66,6.063129303276E-15));
#429 = DIRECTION('',(0.,4.42044604925E-16,1.));
#430 = DIRECTION('',(1.,0.,0.));
#431 = ADVANCED_FACE('',(#432),#443,.T.);
#432 = FACE_BOUND('',#433,.T.);
#433 = EDGE_LOOP('',(#434,#435,#441,#442));
#434 = ORIENTED_EDGE('',*,*,#94,.F.);
#435 = ORIENTED_EDGE('',*,*,#436,.T.);
#436 = EDGE_CURVE('',#86,#356,#437,.T.);
#437 = LINE('',#438,#439);
#438 = CARTESIAN_POINT('',(3.35,-19.66,8.735396932826E-15));
#439 = VECTOR('',#440,1.);
#440 = DIRECTION('',(0.,-4.42044604925E-16,-1.));
#441 = ORIENTED_EDGE('',*,*,#355,.T.);
#442 = ORIENTED_EDGE('',*,*,#248,.T.);
#443 = PLANE('',#444);
#444 = AXIS2_PLACEMENT_3D('',#445,#446,#447);
#445 = CARTESIAN_POINT('',(-5.325,-19.66,-5.));
#446 = DIRECTION('',(-0.,1.,-5.62044604925E-16));
#447 = DIRECTION('',(0.,-5.62044604925E-16,-1.));
#448 = ADVANCED_FACE('',(#449),#467,.T.);
#449 = FACE_BOUND('',#450,.T.);
#450 = EDGE_LOOP('',(#451,#452,#453,#459,#460,#461));
#451 = ORIENTED_EDGE('',*,*,#77,.T.);
#452 = ORIENTED_EDGE('',*,*,#271,.T.);
#453 = ORIENTED_EDGE('',*,*,#454,.F.);
#454 = EDGE_CURVE('',#411,#264,#455,.T.);
#455 = LINE('',#456,#457);
#456 = CARTESIAN_POINT('',(6.35,-16.66,-6.));
#457 = VECTOR('',#458,1.);
#458 = DIRECTION('',(0.,1.,-2.22044604925E-16));
#459 = ORIENTED_EDGE('',*,*,#421,.T.);
#460 = ORIENTED_EDGE('',*,*,#372,.F.);
#461 = ORIENTED_EDGE('',*,*,#462,.F.);
#462 = EDGE_CURVE('',#78,#364,#463,.T.);
#463 = LINE('',#464,#465);
#464 = CARTESIAN_POINT('',(6.35,-16.66,7.399263118051E-15));
#465 = VECTOR('',#466,1.);
#466 = DIRECTION('',(0.,-4.42044604925E-16,-1.));
#467 = PLANE('',#468);
#468 = AXIS2_PLACEMENT_3D('',#469,#470,#471);
#469 = CARTESIAN_POINT('',(6.35,-14.035,-4.625));
#470 = DIRECTION('',(-1.,0.,-0.));
#471 = DIRECTION('',(0.,1.,-2.22044604925E-16));
#472 = ADVANCED_FACE('',(#473),#482,.T.);
#473 = FACE_BOUND('',#474,.T.);
#474 = EDGE_LOOP('',(#475,#476,#477,#478,#479,#480,#481));
#475 = ORIENTED_EDGE('',*,*,#322,.T.);
#476 = ORIENTED_EDGE('',*,*,#224,.T.);
#477 = ORIENTED_EDGE('',*,*,#386,.F.);
#478 = ORIENTED_EDGE('',*,*,#410,.F.);
#479 = ORIENTED_EDGE('',*,*,#454,.T.);
#480 = ORIENTED_EDGE('',*,*,#263,.F.);
#481 = ORIENTED_EDGE('',*,*,#174,.F.);
#482 = PLANE('',#483);
#483 = AXIS2_PLACEMENT_3D('',#484,#485,#486);
#484 = CARTESIAN_POINT('',(6.007998434051,-5.656612623133,-6.));
#485 = DIRECTION('',(0.,2.22044604925E-16,1.));
#486 = DIRECTION('',(0.,-1.,2.22044604925E-16));
#487 = ADVANCED_FACE('',(#488),#494,.F.);
#488 = FACE_BOUND('',#489,.T.);
#489 = EDGE_LOOP('',(#490,#491,#492,#493));
#490 = ORIENTED_EDGE('',*,*,#462,.T.);
#491 = ORIENTED_EDGE('',*,*,#363,.T.);
#492 = ORIENTED_EDGE('',*,*,#436,.F.);
#493 = ORIENTED_EDGE('',*,*,#85,.F.);
#494 = CYLINDRICAL_SURFACE('',#495,3.);
#495 = AXIS2_PLACEMENT_3D('',#496,#497,#498);
#496 = CARTESIAN_POINT('',(3.35,-16.66,7.399263118051E-15));
#497 = DIRECTION('',(0.,4.42044604925E-16,1.));
#498 = DIRECTION('',(1.,0.,0.));
#499 = ( GEOMETRIC_REPRESENTATION_CONTEXT(3) 
GLOBAL_UNCERTAINTY_ASSIGNED_CONTEXT((#503)) GLOBAL_UNIT_ASSIGNED_CONTEXT
((#500,#501,#502)) REPRESENTATION_CONTEXT('Context #1',
  '3D Context with UNIT and UNCERTAINTY') );
#500 = ( LENGTH_UNIT() NAMED_UNIT(*) SI_UNIT(.MILLI.,.METRE.) );
#501 = ( NAMED_UNIT(*) PLANE_ANGLE_UNIT() SI_UNIT($,.RADIAN.) );
#502 = ( NAMED_UNIT(*) SI_UNIT($,.STERADIAN.) SOLID_ANGLE_UNIT() );
#503 = UNCERTAINTY_MEASURE_WITH_UNIT(LENGTH_MEASURE(1.E-05),#500,
  'distance_accuracy_value','confusion accuracy');
#504 = PRODUCT_RELATED_PRODUCT_CATEGORY('part',$,(#7));
#505 = MECHANICAL_DESIGN_GEOMETRIC_PRESENTATION_REPRESENTATION('',(#506)
  ,#499);
#506 = STYLED_ITEM('color',(#507),#15);
#507 = PRESENTATION_STYLE_ASSIGNMENT((#508,#514));
#508 = SURFACE_STYLE_USAGE(.BOTH.,#509);
#509 = SURFACE_SIDE_STYLE('',(#510));
#510 = SURFACE_STYLE_FILL_AREA(#511);
#511 = FILL_AREA_STYLE('',(#512));
#512 = FILL_AREA_STYLE_COLOUR('',#513);
#513 = COLOUR_RGB('',0.447058818107,0.474509808674,0.501960817233);
#514 = CURVE_STYLE('',#515,POSITIVE_LENGTH_MEASURE(0.1),#516);
#515 = DRAUGHTING_PRE_DEFINED_CURVE_FONT('continuous');
#516 = COLOUR_RGB('',9.803921802644E-02,9.803921802644E-02,
  9.803921802644E-02);
ENDSEC;
END-ISO-10303-21;
