%TF.GenerationSoftware,KiCad,Pcbnew,9.0.7*%
%TF.CreationDate,2026-02-27T16:14:04-05:00*%
%TF.ProjectId,stencil,7374656e-6369-46c2-9e6b-696361645f70,rev?*%
%TF.SameCoordinates,Original*%
%TF.FileFunction,Paste,Top*%
%TF.FilePolarity,Positive*%
%FSLAX46Y46*%
G04 Gerber Fmt 4.6, Leading zero omitted, Abs format (unit mm)*
G04 Created by KiCad (PCBNEW 9.0.7) date 2026-02-27 16:14:04*
%MOMM*%
%LPD*%
G01*
G04 APERTURE LIST*
G04 Aperture macros list*
%AMRoundRect*
0 Rectangle with rounded corners*
0 $1 Rounding radius*
0 $2 $3 $4 $5 $6 $7 $8 $9 X,Y pos of 4 corners*
0 Add a 4 corners polygon primitive as box body*
4,1,4,$2,$3,$4,$5,$6,$7,$8,$9,$2,$3,0*
0 Add four circle primitives for the rounded corners*
1,1,$1+$1,$2,$3*
1,1,$1+$1,$4,$5*
1,1,$1+$1,$6,$7*
1,1,$1+$1,$8,$9*
0 Add four rect primitives between the rounded corners*
20,1,$1+$1,$2,$3,$4,$5,0*
20,1,$1+$1,$4,$5,$6,$7,0*
20,1,$1+$1,$6,$7,$8,$9,0*
20,1,$1+$1,$8,$9,$2,$3,0*%
G04 Aperture macros list end*
%ADD10RoundRect,0.326250X-0.453750X0.326250X-0.453750X-0.326250X0.453750X-0.326250X0.453750X0.326250X0*%
%ADD11RoundRect,0.326250X0.326250X0.453750X-0.326250X0.453750X-0.326250X-0.453750X0.326250X-0.453750X0*%
%ADD12RoundRect,0.270000X-0.270000X0.310000X-0.270000X-0.310000X0.270000X-0.310000X0.270000X0.310000X0*%
%ADD13RoundRect,0.270000X-0.310000X-0.270000X0.310000X-0.270000X0.310000X0.270000X-0.310000X0.270000X0*%
%ADD14C,2.600000*%
%ADD15RoundRect,0.172500X1.037500X0.172500X-1.037500X0.172500X-1.037500X-0.172500X1.037500X-0.172500X0*%
%ADD16RoundRect,0.270000X0.310000X0.270000X-0.310000X0.270000X-0.310000X-0.270000X0.310000X-0.270000X0*%
%ADD17RoundRect,0.282500X0.282500X-0.287500X0.282500X0.287500X-0.282500X0.287500X-0.282500X-0.287500X0*%
%ADD18RoundRect,0.326250X0.453750X-0.326250X0.453750X0.326250X-0.453750X0.326250X-0.453750X-0.326250X0*%
%ADD19RoundRect,0.282500X-0.282500X0.287500X-0.282500X-0.287500X0.282500X-0.287500X0.282500X0.287500X0*%
%ADD20RoundRect,0.326250X-0.326250X-0.453750X0.326250X-0.453750X0.326250X0.453750X-0.326250X0.453750X0*%
%ADD21RoundRect,0.270000X0.270000X-0.310000X0.270000X0.310000X-0.270000X0.310000X-0.270000X-0.310000X0*%
G04 APERTURE END LIST*
G36*
X121510000Y-114350000D02*
G01*
X130250000Y-114350000D01*
X130250000Y-120450000D01*
X121510000Y-120450000D01*
X121510000Y-114350000D01*
G37*
G36*
X124270000Y-99350000D02*
G01*
X133010000Y-99350000D01*
X133010000Y-105450000D01*
X124270000Y-105450000D01*
X124270000Y-99350000D01*
G37*
G36*
X121760000Y-81810000D02*
G01*
X130510000Y-81810000D01*
X130510000Y-89410000D01*
X121760000Y-89410000D01*
X121760000Y-81810000D01*
G37*
G36*
X137090000Y-80190000D02*
G01*
X144090000Y-80190000D01*
X144090000Y-87190000D01*
X137090000Y-87190000D01*
X137090000Y-80190000D01*
G37*
D10*
%TO.C,C22*%
X118205000Y-81377500D03*
X118205000Y-83382500D03*
%TD*%
D11*
%TO.C,C14*%
X145890000Y-76175000D03*
X143885000Y-76175000D03*
%TD*%
D12*
%TO.C,C27*%
X140220000Y-105475000D03*
X140220000Y-107195000D03*
%TD*%
D13*
%TO.C,C11*%
X139727500Y-78560000D03*
X141447500Y-78560000D03*
%TD*%
D14*
%TO.C,H2*%
X155770000Y-93640000D03*
%TD*%
D15*
%TO.C,U5*%
X152480000Y-105240000D03*
X152480000Y-103970000D03*
X152480000Y-102700000D03*
X152480000Y-101430000D03*
X152480000Y-100160000D03*
X152480000Y-98890000D03*
X152480000Y-97620000D03*
X152480000Y-96350000D03*
X143140000Y-96350000D03*
X143140000Y-97620000D03*
X143140000Y-98890000D03*
X143140000Y-100160000D03*
X143140000Y-101430000D03*
X143140000Y-102700000D03*
X143140000Y-103970000D03*
X143140000Y-105240000D03*
%TD*%
D11*
%TO.C,C24*%
X130557500Y-78330000D03*
X128552500Y-78330000D03*
%TD*%
D15*
%TO.C,U6*%
X152480000Y-119120000D03*
X152480000Y-117850000D03*
X152480000Y-116580000D03*
X152480000Y-115310000D03*
X152480000Y-114040000D03*
X152480000Y-112770000D03*
X152480000Y-111500000D03*
X152480000Y-110230000D03*
X143140000Y-110230000D03*
X143140000Y-111500000D03*
X143140000Y-112770000D03*
X143140000Y-114040000D03*
X143140000Y-115310000D03*
X143140000Y-116580000D03*
X143140000Y-117850000D03*
X143140000Y-119120000D03*
%TD*%
D12*
%TO.C,C10*%
X145330000Y-80410000D03*
X145330000Y-82130000D03*
%TD*%
D16*
%TO.C,C13*%
X145447500Y-78560000D03*
X143727500Y-78560000D03*
%TD*%
D14*
%TO.C,H3*%
X139700000Y-125540000D03*
%TD*%
D12*
%TO.C,C21*%
X120615000Y-81735000D03*
X120615000Y-83455000D03*
%TD*%
D11*
%TO.C,C3*%
X126992500Y-95900000D03*
X124987500Y-95900000D03*
%TD*%
D13*
%TO.C,C18*%
X124050000Y-80760000D03*
X125770000Y-80760000D03*
%TD*%
D12*
%TO.C,C28*%
X155400000Y-105495000D03*
X155400000Y-107215000D03*
%TD*%
D17*
%TO.C,R6*%
X135710000Y-82295000D03*
X135710000Y-80585000D03*
%TD*%
D16*
%TO.C,C23*%
X130200000Y-80760000D03*
X128480000Y-80760000D03*
%TD*%
D12*
%TO.C,C25*%
X132165000Y-82480000D03*
X132165000Y-84200000D03*
%TD*%
D17*
%TO.C,R9*%
X140220000Y-111086667D03*
X140220000Y-109376667D03*
%TD*%
D12*
%TO.C,C29*%
X155400000Y-117165000D03*
X155400000Y-118885000D03*
%TD*%
D18*
%TO.C,C1*%
X122500000Y-100302500D03*
X122500000Y-98297500D03*
%TD*%
D19*
%TO.C,R11*%
X155400000Y-113280000D03*
X155400000Y-114990000D03*
%TD*%
%TO.C,R10*%
X140220000Y-113273333D03*
X140220000Y-114983333D03*
%TD*%
D12*
%TO.C,C26*%
X140220000Y-117165000D03*
X140220000Y-118885000D03*
%TD*%
D20*
%TO.C,C16*%
X135285000Y-76175000D03*
X137290000Y-76175000D03*
%TD*%
%TO.C,C12*%
X139585000Y-76175000D03*
X141590000Y-76175000D03*
%TD*%
D13*
%TO.C,C15*%
X135727500Y-78560000D03*
X137447500Y-78560000D03*
%TD*%
D18*
%TO.C,C20*%
X118205000Y-87852500D03*
X118205000Y-85847500D03*
%TD*%
%TO.C,C9*%
X133452500Y-118212500D03*
X133452500Y-116207500D03*
%TD*%
D13*
%TO.C,C4*%
X130215000Y-98300000D03*
X131935000Y-98300000D03*
%TD*%
D17*
%TO.C,R12*%
X155400000Y-111100000D03*
X155400000Y-109390000D03*
%TD*%
D10*
%TO.C,C7*%
X119790000Y-98297500D03*
X119790000Y-100302500D03*
%TD*%
D16*
%TO.C,C6*%
X122700000Y-102445000D03*
X120980000Y-102445000D03*
%TD*%
D20*
%TO.C,C5*%
X130287500Y-95900000D03*
X132292500Y-95900000D03*
%TD*%
D21*
%TO.C,C19*%
X120615000Y-87495000D03*
X120615000Y-85775000D03*
%TD*%
D16*
%TO.C,C2*%
X127065000Y-98300000D03*
X125345000Y-98300000D03*
%TD*%
D21*
%TO.C,C8*%
X131252500Y-117855000D03*
X131252500Y-116135000D03*
%TD*%
M02*
