ISO-10303-21;
HEADER;
FILE_DESCRIPTION (( 'STEP AP214' ),
    '1' );
FILE_NAME ('GC355DD7LP474KX18K.STEP',
    '2025-11-06T15:10:01',
    ( '' ),
    ( '' ),
    'SwSTEP 2.0',
    'SolidWorks 2021',
    '' );
FILE_SCHEMA (( 'AUTOMOTIVE_DESIGN' ));
ENDSEC;

DATA;
#1 = DIRECTION ( 'NONE',  ( 1.000000000000000000, -0.000000000000000000, -0.000000000000000000 ) ) ;
#2 = ORIENTED_EDGE ( 'NONE', *, *, #27, .F. ) ;
#3 = CARTESIAN_POINT ( 'NONE',  ( 2.549999999985175236, 1.952500000000000124, 2.357499999999996376 ) ) ;
#4 = DIRECTION ( 'NONE',  ( 0.000000000000000000, -4.598948769821867827E-17, -1.000000000000000000 ) ) ;
#5 = AXIS2_PLACEMENT_3D ( 'NONE', #813, #1220, #135 ) ;
#6 = FACE_OUTER_BOUND ( 'NONE', #1155, .T. ) ;
#7 = ORIENTED_EDGE ( 'NONE', *, *, #772, .F. ) ;
#8 = LINE ( 'NONE', #25, #1175 ) ;
#9 = ORIENTED_EDGE ( 'NONE', *, *, #207, .T. ) ;
#10 = CARTESIAN_POINT ( 'NONE',  ( 500000.0000000000582, 0.1425000000000000433, -2.452500000043368544 ) ) ;
#11 = AXIS2_PLACEMENT_3D ( 'NONE', #305, #882, #697 ) ;
#12 = VERTEX_POINT ( 'NONE', #28 ) ;
#13 = CARTESIAN_POINT ( 'NONE',  ( 2.550000000000001155, 2.000000000000000000, -2.499999999999999112 ) ) ;
#14 = EDGE_CURVE ( 'NONE', #385, #12, #796, .T. ) ;
#15 = VECTOR ( 'NONE', #1127, 1000.000000000000000 ) ;
#16 = VERTEX_POINT ( 'NONE', #618 ) ;
#17 = AXIS2_PLACEMENT_3D ( 'NONE', #828, #729, #254 ) ;
#18 = DIRECTION ( 'NONE',  ( 0.000000000000000000, -0.000000000000000000, 1.000000000000000000 ) ) ;
#19 = DIRECTION ( 'NONE',  ( -0.000000000000000000, 1.000000000000000000, -0.000000000000000000 ) ) ;
#20 = ORIENTED_EDGE ( 'NONE', *, *, #406, .F. ) ;
#21 = DIRECTION ( 'NONE',  ( -1.000000000000000000, -0.000000000000000000, 8.673617379884036705E-17 ) ) ;
#22 = ORIENTED_EDGE ( 'NONE', *, *, #1193, .F. ) ;
#23 = CARTESIAN_POINT ( 'NONE',  ( 2.550000000000000266, 1.857499999999999929, 2.357499999999999929 ) ) ;
#24 = ORIENTED_EDGE ( 'NONE', *, *, #654, .F. ) ;
#25 = CARTESIAN_POINT ( 'NONE',  ( -2.550000000000001155, 2.000000000000000000, -2.499999999999999112 ) ) ;
#26 = LINE ( 'NONE', #430, #1050 ) ;
#27 = EDGE_CURVE ( 'NONE', #944, #147, #810, .T. ) ;
#28 = CARTESIAN_POINT ( 'NONE',  ( 2.850000000000000089, 0.1425000000000000433, 2.357499999999999929 ) ) ;
#29 = CARTESIAN_POINT ( 'NONE',  ( -2.550000000000000711, 0.1425000000000000433, -2.452499999999999680 ) ) ;
#30 = AXIS2_PLACEMENT_3D ( 'NONE', #1262, #1150, #466 ) ;
#31 = EDGE_LOOP ( 'NONE', ( #915, #1043, #1145, #326 ) ) ;
#32 = SURFACE_STYLE_FILL_AREA ( #795 ) ;
#33 = CIRCLE ( 'NONE', #789, 0.1424999999999998213 ) ;
#34 = VERTEX_POINT ( 'NONE', #427 ) ;
#35 = DIRECTION ( 'NONE',  ( 1.000000000000000000, -0.000000000000000000, 0.000000000000000000 ) ) ;
#36 = EDGE_CURVE ( 'NONE', #615, #474, #291, .T. ) ;
#37 = ORIENTED_EDGE ( 'NONE', *, *, #1045, .T. ) ;
#38 = CARTESIAN_POINT ( 'NONE',  ( 2.707500000000000462, 0.1425000000000000433, 2.357499999999999929 ) ) ;
#39 = CARTESIAN_POINT ( 'NONE',  ( -2.707500000000000462, 1.857499999999999929, 2.357499999999999929 ) ) ;
#40 = VERTEX_POINT ( 'NONE', #539 ) ;
#41 = CARTESIAN_POINT ( 'NONE',  ( -2.550000000000000711, 1.857499999999999929, 2.357499999999999485 ) ) ;
#42 = ADVANCED_FACE ( 'NONE', ( #931 ), #47, .T. ) ;
#43 = EDGE_LOOP ( 'NONE', ( #567, #665, #642, #794 ) ) ;
#44 = DIRECTION ( 'NONE',  ( 0.000000000000000000, 0.000000000000000000, -1.000000000000000000 ) ) ;
#45 = LINE ( 'NONE', #230, #299 ) ;
#46 = DIRECTION ( 'NONE',  ( -1.000000000000000000, 0.000000000000000000, 0.000000000000000000 ) ) ;
#47 = PLANE ( 'NONE',  #996 ) ;
#48 = CARTESIAN_POINT ( 'NONE',  ( -2.550000000000000711, 1.952499999999999902, -2.357499999999999929 ) ) ;
#49 = ORIENTED_EDGE ( 'NONE', *, *, #154, .F. ) ;
#50 = CIRCLE ( 'NONE', #1210, 0.1424999999999998213 ) ;
#51 = DIRECTION ( 'NONE',  ( -1.734723475976807341E-16, 0.000000000000000000, 1.000000000000000000 ) ) ;
#52 = EDGE_CURVE ( 'NONE', #147, #907, #496, .T. ) ;
#53 = DIRECTION ( 'NONE',  ( 0.000000000000000000, -1.000000000000000000, 0.000000000000000000 ) ) ;
#54 = AXIS2_PLACEMENT_3D ( 'NONE', #467, #182, #958 ) ;
#55 = VERTEX_POINT ( 'NONE', #58 ) ;
#56 = DIRECTION ( 'NONE',  ( 0.000000000000000000, 0.000000000000000000, 1.000000000000000000 ) ) ;
#57 = EDGE_LOOP ( 'NONE', ( #1084, #1229, #1011, #1107, #161, #183, #872, #917 ) ) ;
#58 = CARTESIAN_POINT ( 'NONE',  ( -2.550000000000001155, 1.857499999999999929, -2.499999999999999112 ) ) ;
#59 = DIRECTION ( 'NONE',  ( 0.000000000000000000, 0.000000000000000000, 1.000000000000000000 ) ) ;
#60 = PRODUCT_RELATED_PRODUCT_CATEGORY ( 'part', '', ( #1019 ) ) ;
#61 = CARTESIAN_POINT ( 'NONE',  ( -2.707500000000000462, 1.857499999999999929, 2.357499999999999929 ) ) ;
#62 = CARTESIAN_POINT ( 'NONE',  ( -2.550000000000000266, 0.000000000000000000, 2.357499999999999929 ) ) ;
#63 = ORIENTED_EDGE ( 'NONE', *, *, #614, .T. ) ;
#64 =( LENGTH_UNIT ( ) NAMED_UNIT ( * ) SI_UNIT ( .MILLI., .METRE. ) );
#65 = LINE ( 'NONE', #170, #1274 ) ;
#66 = CYLINDRICAL_SURFACE ( 'NONE', #237, 0.1424999999999998213 ) ;
#67 = ADVANCED_FACE ( 'NONE', ( #637 ), #1253, .T. ) ;
#68 = DIRECTION ( 'NONE',  ( 1.000000000000000000, 0.000000000000000000, 0.000000000000000000 ) ) ;
#69 = ORIENTED_EDGE ( 'NONE', *, *, #1066, .T. ) ;
#70 = CARTESIAN_POINT ( 'NONE',  ( -2.550000000000000711, 1.952499999999999902, -2.357499999999999929 ) ) ;
#71 = DIRECTION ( 'NONE',  ( 1.000000000000000000, 0.000000000000000000, -8.673617379884036705E-17 ) ) ;
#72 = CIRCLE ( 'NONE', #568, 0.09500000000000002887 ) ;
#73 = AXIS2_PLACEMENT_3D ( 'NONE', #938, #51, #837 ) ;
#74 = CIRCLE ( 'NONE', #236, 0.1424999999999998213 ) ;
#75 = EDGE_CURVE ( 'NONE', #410, #724, #1204, .T. ) ;
#76 = CIRCLE ( 'NONE', #217, 0.1424999999999998213 ) ;
#77 = DIRECTION ( 'NONE',  ( 0.000000000000000000, 0.000000000000000000, -1.000000000000000000 ) ) ;
#78 = ORIENTED_EDGE ( 'NONE', *, *, #560, .T. ) ;
#79 = DIRECTION ( 'NONE',  ( 0.000000000000000000, 0.000000000000000000, 1.000000000000000000 ) ) ;
#80 = CARTESIAN_POINT ( 'NONE',  ( 2.550000000000001155, 0.000000000000000000, -2.357499999999999485 ) ) ;
#81 = CLOSED_SHELL ( 'NONE', ( #134, #325, #512, #823, #42, #936, #426, #1147, #1264, #1259, #565, #419, #767, #684, #67, #190, #288, #1242 ) ) ;
#82 = CYLINDRICAL_SURFACE ( 'NONE', #494, 0.1424999999999998213 ) ;
#83 = ORIENTED_EDGE ( 'NONE', *, *, #575, .F. ) ;
#84 = DIRECTION ( 'NONE',  ( 1.000000000000000000, 0.000000000000000000, 1.734723475976807341E-16 ) ) ;
#85 = DIRECTION ( 'NONE',  ( -0.000000000000000000, -0.000000000000000000, -1.000000000000000000 ) ) ;
#86 = PLANE ( 'NONE',  #319 ) ;
#87 = ORIENTED_EDGE ( 'NONE', *, *, #347, .T. ) ;
#88 = EDGE_CURVE ( 'NONE', #55, #700, #437, .T. ) ;
#89 = DIRECTION ( 'NONE',  ( -1.734723475976807341E-16, 4.598948769821867827E-17, 1.000000000000000000 ) ) ;
#90 = CYLINDRICAL_SURFACE ( 'NONE', #442, 0.09500000000000002887 ) ;
#91 = CIRCLE ( 'NONE', #896, 0.1424999999999998213 ) ;
#92 = CARTESIAN_POINT ( 'NONE',  ( 2.707500000000001350, 0.1425000000000000155, -2.357499999999999485 ) ) ;
#93 = AXIS2_PLACEMENT_3D ( 'NONE', #1226, #545, #844 ) ;
#94 = ORIENTED_EDGE ( 'NONE', *, *, #200, .F. ) ;
#95 = LINE ( 'NONE', #662, #184 ) ;
#96 = CARTESIAN_POINT ( 'NONE',  ( 2.549999999985175236, 1.857499999999999929, 2.452499999999998348 ) ) ;
#97 = PLANE ( 'NONE',  #482 ) ;
#98 = VERTEX_POINT ( 'NONE', #629 ) ;
#99 = EDGE_LOOP ( 'NONE', ( #398, #443, #671, #417 ) ) ;
#100 = LINE ( 'NONE', #10, #400 ) ;
#101 = AXIS2_PLACEMENT_3D ( 'NONE', #836, #1232, #1054 ) ;
#102 = EDGE_CURVE ( 'NONE', #1208, #55, #139, .T. ) ;
#103 = FACE_OUTER_BOUND ( 'NONE', #597, .T. ) ;
#104 = ORIENTED_EDGE ( 'NONE', *, *, #52, .F. ) ;
#105 =( NAMED_UNIT ( * ) SI_UNIT ( $, .STERADIAN. ) SOLID_ANGLE_UNIT ( ) );
#106 = ORIENTED_EDGE ( 'NONE', *, *, #827, .T. ) ;
#107 = CARTESIAN_POINT ( 'NONE',  ( -2.550000000000001155, 0.1425000000000000433, -2.499999999999999112 ) ) ;
#108 = CARTESIAN_POINT ( 'NONE',  ( 2.850000000000000089, 1.857499999999999929, 2.357499999999999929 ) ) ;
#109 = EDGE_CURVE ( 'NONE', #202, #683, #735, .T. ) ;
#110 = AXIS2_PLACEMENT_3D ( 'NONE', #596, #929, #992 ) ;
#111 = ORIENTED_EDGE ( 'NONE', *, *, #468, .F. ) ;
#112 = ADVANCED_FACE ( 'NONE', ( #351 ), #536, .T. ) ;
#113 = EDGE_LOOP ( 'NONE', ( #1252, #679, #542, #1227 ) ) ;
#114 = PRESENTATION_LAYER_ASSIGNMENT (  '', '', ( #526 ) ) ;
#115 = LINE ( 'NONE', #222, #853 ) ;
#116 = ORIENTED_EDGE ( 'NONE', *, *, #975, .T. ) ;
#117 = CARTESIAN_POINT ( 'NONE',  ( -2.850000000000000089, 1.857499999999999929, 2.499999999999999556 ) ) ;
#118 = VERTEX_POINT ( 'NONE', #543 ) ;
#119 = LINE ( 'NONE', #218, #1069 ) ;
#120 = ORIENTED_EDGE ( 'NONE', *, *, #146, .F. ) ;
#121 = FILL_AREA_STYLE ('',( #215 ) ) ;
#122 = ORIENTED_EDGE ( 'NONE', *, *, #36, .F. ) ;
#123 = DIRECTION ( 'NONE',  ( -1.000000000000000000, 0.000000000000000000, 0.000000000000000000 ) ) ;
#124 = ORIENTED_EDGE ( 'NONE', *, *, #835, .F. ) ;
#125 = DIRECTION ( 'NONE',  ( 0.000000000000000000, 0.000000000000000000, 1.000000000000000000 ) ) ;
#126 = AXIS2_PLACEMENT_3D ( 'NONE', #268, #1254, #559 ) ;
#127 = ORIENTED_EDGE ( 'NONE', *, *, #726, .T. ) ;
#128 = DIRECTION ( 'NONE',  ( 0.000000000000000000, 0.000000000000000000, -1.000000000000000000 ) ) ;
#129 = AXIS2_PLACEMENT_3D ( 'NONE', #376, #1174, #370 ) ;
#130 = AXIS2_PLACEMENT_3D ( 'NONE', #1018, #704, #128 ) ;
#131 = DIRECTION ( 'NONE',  ( 0.000000000000000000, -1.000000000000000000, 0.000000000000000000 ) ) ;
#132 = CARTESIAN_POINT ( 'NONE',  ( -2.707500000000000906, 1.857499999999999929, 4.696763811207207180E-16 ) ) ;
#133 = PRESENTATION_STYLE_ASSIGNMENT (( #648 ) ) ;
#134 = ADVANCED_FACE ( 'NONE', ( #950 ), #452, .F. ) ;
#135 = DIRECTION ( 'NONE',  ( 0.000000000000000000, 0.000000000000000000, 1.000000000000000000 ) ) ;
#136 = FACE_OUTER_BOUND ( 'NONE', #340, .T. ) ;
#137 = EDGE_LOOP ( 'NONE', ( #902, #778, #624, #69 ) ) ;
#138 = DIRECTION ( 'NONE',  ( -1.000000000000000000, -0.000000000000000000, 8.673617379884036705E-17 ) ) ;
#139 = LINE ( 'NONE', #447, #355 ) ;
#140 = CARTESIAN_POINT ( 'NONE',  ( -2.707500000000000462, 0.1425000000000000155, 2.357499999999999929 ) ) ;
#141 = CYLINDRICAL_SURFACE ( 'NONE', #962, 0.1424999999999998213 ) ;
#142 = EDGE_CURVE ( 'NONE', #290, #266, #1024, .T. ) ;
#143 = MANIFOLD_SOLID_BREP ( 'Mirror2', #81 ) ;
#144 = CARTESIAN_POINT ( 'NONE',  ( -2.850000000000000089, 2.000000000000000000, 2.357499999999999929 ) ) ;
#145 = CARTESIAN_POINT ( 'NONE',  ( -2.850000000000000089, 0.1425000000000000433, 2.499999999999999556 ) ) ;
#146 = EDGE_CURVE ( 'NONE', #989, #821, #259, .T. ) ;
#147 = VERTEX_POINT ( 'NONE', #825 ) ;
#148 = DIRECTION ( 'NONE',  ( -1.000000000000000000, 0.000000000000000000, -1.734723475976807341E-16 ) ) ;
#149 = CYLINDRICAL_SURFACE ( 'NONE', #73, 0.1424999999999998213 ) ;
#150 = DIRECTION ( 'NONE',  ( -1.000000000000000000, 0.000000000000000000, 8.673617379884037937E-17 ) ) ;
#151 = ORIENTED_EDGE ( 'NONE', *, *, #461, .T. ) ;
#152 = CARTESIAN_POINT ( 'NONE',  ( -2.707500000000000462, 0.1425000000000000433, 2.357499999999999929 ) ) ;
#153 = ORIENTED_EDGE ( 'NONE', *, *, #454, .F. ) ;
#154 = EDGE_CURVE ( 'NONE', #34, #746, #904, .T. ) ;
#155 = VECTOR ( 'NONE', #199, 1000.000000000000000 ) ;
#156 = VECTOR ( 'NONE', #1058, 1000.000000000000000 ) ;
#157 = CARTESIAN_POINT ( 'NONE',  ( -2.707500000000001350, 0.1425000000000000433, -2.499999999999999112 ) ) ;
#158 = CIRCLE ( 'NONE', #913, 0.1424999999999998213 ) ;
#159 = DIRECTION ( 'NONE',  ( 1.000000000000000000, 0.000000000000000000, 0.000000000000000000 ) ) ;
#160 = CARTESIAN_POINT ( 'NONE',  ( -2.850000000000000977, 2.000000000000000000, -2.499999999999999112 ) ) ;
#161 = ORIENTED_EDGE ( 'NONE', *, *, #382, .F. ) ;
#162 = EDGE_CURVE ( 'NONE', #824, #350, #558, .T. ) ;
#163 = DIRECTION ( 'NONE',  ( 1.000000000000000000, 0.000000000000000000, 0.000000000000000000 ) ) ;
#164 = FACE_OUTER_BOUND ( 'NONE', #774, .T. ) ;
#165 = DIRECTION ( 'NONE',  ( 0.000000000000000000, 0.000000000000000000, -1.000000000000000000 ) ) ;
#166 = FACE_OUTER_BOUND ( 'NONE', #967, .T. ) ;
#167 =( GEOMETRIC_REPRESENTATION_CONTEXT ( 3 ) GLOBAL_UNCERTAINTY_ASSIGNED_CONTEXT ( ( #850 ) ) GLOBAL_UNIT_ASSIGNED_CONTEXT ( ( #64, #458, #1247 ) ) REPRESENTATION_CONTEXT ( 'NONE', 'WORKASPACE' ) );
#168 = ORIENTED_EDGE ( 'NONE', *, *, #957, .F. ) ;
#169 = LINE ( 'NONE', #480, #816 ) ;
#170 = CARTESIAN_POINT ( 'NONE',  ( 2.707500000000000906, 0.000000000000000000, 4.696763811207207180E-16 ) ) ;
#171 = ADVANCED_FACE ( 'NONE', ( #919 ), #818, .T. ) ;
#172 = APPLICATION_PROTOCOL_DEFINITION ( 'draft international standard', 'automotive_design', 1998, #939 ) ;
#173 = ORIENTED_EDGE ( 'NONE', *, *, #1013, .T. ) ;
#174 = LINE ( 'NONE', #470, #371 ) ;
#175 = PLANE ( 'NONE',  #623 ) ;
#176 = AXIS2_PLACEMENT_3D ( 'NONE', #736, #71, #667 ) ;
#177 = VECTOR ( 'NONE', #303, 1000.000000000000000 ) ;
#178 = DIRECTION ( 'NONE',  ( -0.000000000000000000, 0.000000000000000000, 1.000000000000000000 ) ) ;
#179 = EDGE_LOOP ( 'NONE', ( #499, #116, #436, #976 ) ) ;
#180 = LINE ( 'NONE', #984, #328 ) ;
#181 = DIRECTION ( 'NONE',  ( 1.000000000000000000, 0.000000000000000000, 1.734723475976807587E-16 ) ) ;
#182 = DIRECTION ( 'NONE',  ( 1.000000000000000000, 0.000000000000000000, -8.673617379884036705E-17 ) ) ;
#183 = ORIENTED_EDGE ( 'NONE', *, *, #797, .F. ) ;
#184 = VECTOR ( 'NONE', #760, 1000.000000000000000 ) ;
#185 = ADVANCED_FACE ( 'NONE', ( #578 ), #1078, .T. ) ;
#186 = CARTESIAN_POINT ( 'NONE',  ( 2.707500000000001350, 0.1425000000000000155, -2.357499999999999485 ) ) ;
#187 = DIRECTION ( 'NONE',  ( 3.988952197912325758E-33, -1.000000000000000000, 4.598948769821867827E-17 ) ) ;
#188 = DIRECTION ( 'NONE',  ( 1.000000000000000000, 0.000000000000000000, 0.000000000000000000 ) ) ;
#189 = ORIENTED_EDGE ( 'NONE', *, *, #1201, .F. ) ;
#190 = ADVANCED_FACE ( 'NONE', ( #1188 ), #963, .T. ) ;
#191 = CARTESIAN_POINT ( 'NONE',  ( -2.850000000000000977, 0.1425000000000000433, -2.357499999999999485 ) ) ;
#192 = CARTESIAN_POINT ( 'NONE',  ( 2.850000000000000977, 0.1425000000000000433, -2.499999999999999112 ) ) ;
#193 = ADVANCED_FACE ( 'NONE', ( #1261 ), #779, .T. ) ;
#194 = VECTOR ( 'NONE', #432, 1000.000000000000000 ) ;
#195 = DIRECTION ( 'NONE',  ( -1.734723475976807341E-16, 0.000000000000000000, -1.000000000000000000 ) ) ;
#196 = AXIS2_PLACEMENT_3D ( 'NONE', #1044, #256, #739 ) ;
#197 = ORIENTED_EDGE ( 'NONE', *, *, #200, .T. ) ;
#198 = VERTEX_POINT ( 'NONE', #978 ) ;
#199 = DIRECTION ( 'NONE',  ( -1.000000000000000000, 0.000000000000000000, 0.000000000000000000 ) ) ;
#200 = EDGE_CURVE ( 'NONE', #724, #98, #95, .T. ) ;
#201 = DIRECTION ( 'NONE',  ( 0.000000000000000000, 0.000000000000000000, 1.000000000000000000 ) ) ;
#202 = VERTEX_POINT ( 'NONE', #857 ) ;
#203 = SURFACE_STYLE_FILL_AREA ( #121 ) ;
#204 = ORIENTED_EDGE ( 'NONE', *, *, #52, .T. ) ;
#205 = CARTESIAN_POINT ( 'NONE',  ( 2.549999999985175236, 1.857499999999999485, -2.452500000000000568 ) ) ;
#206 = DIRECTION ( 'NONE',  ( 1.000000000000000000, 0.000000000000000000, 0.000000000000000000 ) ) ;
#207 = EDGE_CURVE ( 'NONE', #609, #251, #475, .T. ) ;
#208 = ORIENTED_EDGE ( 'NONE', *, *, #468, .T. ) ;
#209 = CARTESIAN_POINT ( 'NONE',  ( -2.707500000000001350, 1.857499999999999929, -2.357499999999999485 ) ) ;
#210 = ORIENTED_EDGE ( 'NONE', *, *, #509, .F. ) ;
#211 = CARTESIAN_POINT ( 'NONE',  ( 0.000000000000000000, 0.000000000000000000, 0.000000000000000000 ) ) ;
#212 = UNCERTAINTY_MEASURE_WITH_UNIT (LENGTH_MEASURE( 1.000000000000000082E-05 ), #1131, 'distance_accuracy_value', 'NONE');
#213 = AXIS2_PLACEMENT_3D ( 'NONE', #453, #1065, #59 ) ;
#214 = ORIENTED_EDGE ( 'NONE', *, *, #975, .F. ) ;
#215 = FILL_AREA_STYLE_COLOUR ( '', #1113 ) ;
#216 = AXIS2_PLACEMENT_3D ( 'NONE', #211, #412, #18 ) ;
#217 = AXIS2_PLACEMENT_3D ( 'NONE', #1134, #659, #56 ) ;
#218 = CARTESIAN_POINT ( 'NONE',  ( 2.850000000000000977, 2.000000000000000000, -2.357499999999999485 ) ) ;
#219 = EDGE_LOOP ( 'NONE', ( #323, #106, #954, #501 ) ) ;
#220 = SURFACE_STYLE_USAGE ( .BOTH. , #1217 ) ;
#221 = EDGE_LOOP ( 'NONE', ( #1260, #582, #900, #802 ) ) ;
#222 = CARTESIAN_POINT ( 'NONE',  ( 2.550000000000000266, 2.000000000000000000, 2.499999999999999556 ) ) ;
#223 = EDGE_CURVE ( 'NONE', #557, #1203, #969, .T. ) ;
#224 = UNCERTAINTY_MEASURE_WITH_UNIT (LENGTH_MEASURE( 1.000000000000000082E-05 ), #1230, 'distance_accuracy_value', 'NONE');
#225 = PRESENTATION_LAYER_ASSIGNMENT (  '', '', ( #885 ) ) ;
#226 = ORIENTED_EDGE ( 'NONE', *, *, #991, .T. ) ;
#227 = CARTESIAN_POINT ( 'NONE',  ( 2.707500000000000462, 1.857499999999999929, 2.357499999999999929 ) ) ;
#228 = ORIENTED_EDGE ( 'NONE', *, *, #935, .T. ) ;
#229 = CARTESIAN_POINT ( 'NONE',  ( -2.707500000000000462, 1.857499999999999929, 2.357499999999999929 ) ) ;
#230 = CARTESIAN_POINT ( 'NONE',  ( 2.850000000000000089, 2.000000000000000000, 2.357499999999999929 ) ) ;
#231 = ORIENTED_EDGE ( 'NONE', *, *, #737, .T. ) ;
#232 = CARTESIAN_POINT ( 'NONE',  ( 2.707500000000001350, 0.1425000000000000433, -2.357499999999999485 ) ) ;
#233 = AXIS2_PLACEMENT_3D ( 'NONE', #448, #564, #459 ) ;
#234 = ORIENTED_EDGE ( 'NONE', *, *, #1096, .T. ) ;
#235 = CARTESIAN_POINT ( 'NONE',  ( -2.707500000000000462, 2.000000000000000000, 2.499999999999999556 ) ) ;
#236 = AXIS2_PLACEMENT_3D ( 'NONE', #232, #1139, #916 ) ;
#237 = AXIS2_PLACEMENT_3D ( 'NONE', #345, #53, #165 ) ;
#238 = CARTESIAN_POINT ( 'NONE',  ( 2.707500000000001350, 1.857499999999999929, -2.357499999999999485 ) ) ;
#239 = LINE ( 'NONE', #999, #194 ) ;
#240 = VERTEX_POINT ( 'NONE', #3 ) ;
#241 = FACE_OUTER_BOUND ( 'NONE', #219, .T. ) ;
#242 = VERTEX_POINT ( 'NONE', #70 ) ;
#243 = AXIS2_PLACEMENT_3D ( 'NONE', #422, #1029, #337 ) ;
#244 = PRESENTATION_STYLE_ASSIGNMENT (( #529 ) ) ;
#245 = DIRECTION ( 'NONE',  ( 1.000000000000000000, 0.000000000000000000, 0.000000000000000000 ) ) ;
#246 =( NAMED_UNIT ( * ) SI_UNIT ( $, .STERADIAN. ) SOLID_ANGLE_UNIT ( ) );
#247 = VECTOR ( 'NONE', #859, 1000.000000000000000 ) ;
#248 = EDGE_CURVE ( 'NONE', #834, #240, #180, .T. ) ;
#249 = ORIENTED_EDGE ( 'NONE', *, *, #102, .F. ) ;
#250 = CARTESIAN_POINT ( 'NONE',  ( -2.850000000000000977, 2.000000000000000000, -2.499999999999999112 ) ) ;
#251 = VERTEX_POINT ( 'NONE', #392 ) ;
#252 = DIRECTION ( 'NONE',  ( -0.000000000000000000, -1.000000000000000000, -0.000000000000000000 ) ) ;
#253 = FACE_OUTER_BOUND ( 'NONE', #1059, .T. ) ;
#254 = DIRECTION ( 'NONE',  ( -1.000000000000000000, 0.000000000000000000, 0.000000000000000000 ) ) ;
#255 = ORIENTED_EDGE ( 'NONE', *, *, #1096, .F. ) ;
#256 = DIRECTION ( 'NONE',  ( 0.000000000000000000, -1.000000000000000000, 0.000000000000000000 ) ) ;
#257 = VERTEX_POINT ( 'NONE', #378 ) ;
#258 = AXIS2_PLACEMENT_3D ( 'NONE', #1248, #245, #1269 ) ;
#259 = LINE ( 'NONE', #656, #1185 ) ;
#260 = CIRCLE ( 'NONE', #983, 0.1424999999999998213 ) ;
#261 = CYLINDRICAL_SURFACE ( 'NONE', #258, 0.1424999999999998213 ) ;
#262 = DIRECTION ( 'NONE',  ( -8.673617379884037937E-17, 0.000000000000000000, -1.000000000000000000 ) ) ;
#263 =( GEOMETRIC_REPRESENTATION_CONTEXT ( 3 ) GLOBAL_UNCERTAINTY_ASSIGNED_CONTEXT ( ( #883 ) ) GLOBAL_UNIT_ASSIGNED_CONTEXT ( ( #554, #1249, #1167 ) ) REPRESENTATION_CONTEXT ( 'NONE', 'WORKASPACE' ) );
#264 = CARTESIAN_POINT ( 'NONE',  ( 2.550000000000001155, 2.000000000000000000, -2.357499999999999485 ) ) ;
#265 = AXIS2_PLACEMENT_3D ( 'NONE', #727, #267, #1128 ) ;
#266 = VERTEX_POINT ( 'NONE', #955 ) ;
#267 = DIRECTION ( 'NONE',  ( 1.000000000000000000, 0.000000000000000000, 0.000000000000000000 ) ) ;
#268 = CARTESIAN_POINT ( 'NONE',  ( 0.000000000000000000, 2.000000000000000000, 0.000000000000000000 ) ) ;
#269 = EDGE_CURVE ( 'NONE', #510, #410, #770, .T. ) ;
#270 = DIRECTION ( 'NONE',  ( -0.000000000000000000, -0.000000000000000000, -1.000000000000000000 ) ) ;
#271 = DIRECTION ( 'NONE',  ( 8.673617379884037937E-17, -0.000000000000000000, 1.000000000000000000 ) ) ;
#272 = AXIS2_PLACEMENT_3D ( 'NONE', #334, #84, #1272 ) ;
#273 = EDGE_LOOP ( 'NONE', ( #649, #249, #495, #611 ) ) ;
#274 = SPHERICAL_SURFACE ( 'NONE', #1040, 0.1425000000000000155 ) ;
#275 = DIRECTION ( 'NONE',  ( 0.000000000000000000, -0.000000000000000000, 1.000000000000000000 ) ) ;
#276 = EDGE_CURVE ( 'NONE', #1118, #118, #169, .T. ) ;
#277 = CARTESIAN_POINT ( 'NONE',  ( -2.550000000000000711, 0.04750000000000000056, 2.357499999999999485 ) ) ;
#278 = VERTEX_POINT ( 'NONE', #868 ) ;
#279 = DIRECTION ( 'NONE',  ( 0.000000000000000000, -1.000000000000000000, 0.000000000000000000 ) ) ;
#280 = LINE ( 'NONE', #579, #589 ) ;
#281 = VECTOR ( 'NONE', #1171, 1000.000000000000000 ) ;
#282 = ADVANCED_FACE ( 'NONE', ( #1183 ), #374, .T. ) ;
#283 = AXIS2_PLACEMENT_3D ( 'NONE', #38, #719, #535 ) ;
#284 = DIRECTION ( 'NONE',  ( 1.000000000000000000, 0.000000000000000000, 1.734723475976807341E-16 ) ) ;
#285 = ORIENTED_EDGE ( 'NONE', *, *, #957, .T. ) ;
#286 = DIRECTION ( 'NONE',  ( 0.000000000000000000, 0.000000000000000000, 1.000000000000000000 ) ) ;
#287 = DIRECTION ( 'NONE',  ( -1.734723475976807341E-16, 0.000000000000000000, 1.000000000000000000 ) ) ;
#288 = ADVANCED_FACE ( 'NONE', ( #1279 ), #274, .T. ) ;
#289 = DIRECTION ( 'NONE',  ( 0.000000000000000000, 0.000000000000000000, 1.000000000000000000 ) ) ;
#290 = VERTEX_POINT ( 'NONE', #292 ) ;
#291 = CIRCLE ( 'NONE', #5, 0.1424999999999998213 ) ;
#292 = CARTESIAN_POINT ( 'NONE',  ( 2.707500000000000462, 0.1425000000000000433, 2.499999999999999556 ) ) ;
#293 = DIRECTION ( 'NONE',  ( -1.000000000000000000, -0.000000000000000000, 8.673617379884036705E-17 ) ) ;
#294 = DIRECTION ( 'NONE',  ( 0.000000000000000000, 0.000000000000000000, -1.000000000000000000 ) ) ;
#295 = VERTEX_POINT ( 'NONE', #680 ) ;
#296 = ORIENTED_EDGE ( 'NONE', *, *, #382, .T. ) ;
#297 = FACE_OUTER_BOUND ( 'NONE', #749, .T. ) ;
#298 = AXIS2_PLACEMENT_3D ( 'NONE', #92, #178, #670 ) ;
#299 = VECTOR ( 'NONE', #19, 1000.000000000000000 ) ;
#300 = CARTESIAN_POINT ( 'NONE',  ( 2.550000000000001155, 1.857499999999999929, -2.499999999999999112 ) ) ;
#301 = COLOUR_RGB ( '',0.4862745098039215619, 0.2352941176470588203, 0.01568627450980392135 ) ;
#302 = ORIENTED_EDGE ( 'NONE', *, *, #154, .T. ) ;
#303 = DIRECTION ( 'NONE',  ( -0.000000000000000000, 1.000000000000000000, 0.000000000000000000 ) ) ;
#304 = EDGE_CURVE ( 'NONE', #804, #615, #174, .T. ) ;
#305 = CARTESIAN_POINT ( 'NONE',  ( 2.850000000000000977, 2.000000000000000000, -2.499999999999999112 ) ) ;
#306 = LINE ( 'NONE', #409, #711 ) ;
#307 = EDGE_LOOP ( 'NONE', ( #587, #1114, #577, #214 ) ) ;
#308 = CARTESIAN_POINT ( 'NONE',  ( 2.549999999985175236, 1.857499999999999929, 2.357499999999998597 ) ) ;
#309 = CARTESIAN_POINT ( 'NONE',  ( 2.549999999985175236, 1.952499999999999902, -2.357500000000000817 ) ) ;
#310 = CARTESIAN_POINT ( 'NONE',  ( -2.550000000000000266, 0.1425000000000000433, 2.357499999999999929 ) ) ;
#311 = EDGE_LOOP ( 'NONE', ( #738, #208, #1135, #1216, #524, #37, #934, #718 ) ) ;
#312 = DIRECTION ( 'NONE',  ( 1.000000000000000000, 0.000000000000000000, 1.734723475976807341E-16 ) ) ;
#313 = ORIENTED_EDGE ( 'NONE', *, *, #854, .T. ) ;
#314 = DIRECTION ( 'NONE',  ( 0.000000000000000000, 0.000000000000000000, 1.000000000000000000 ) ) ;
#315 = ADVANCED_FACE ( 'NONE', ( #862 ), #765, .F. ) ;
#316 = AXIS2_PLACEMENT_3D ( 'NONE', #157, #553, #375 ) ;
#317 = ORIENTED_EDGE ( 'NONE', *, *, #146, .T. ) ;
#318 = CARTESIAN_POINT ( 'NONE',  ( 500000.0000000000582, 1.952499999999999902, -2.357500000043368349 ) ) ;
#319 = AXIS2_PLACEMENT_3D ( 'NONE', #758, #271, #1075 ) ;
#320 = EDGE_LOOP ( 'NONE', ( #1205, #759, #620, #1238 ) ) ;
#321 = CARTESIAN_POINT ( 'NONE',  ( 500000.0000000000582, 1.857499999999999929, -2.357500000043368349 ) ) ;
#322 = PRODUCT_DEFINITION_SHAPE ( 'NONE', 'NONE',  #748 ) ;
#323 = ORIENTED_EDGE ( 'NONE', *, *, #88, .T. ) ;
#324 = CARTESIAN_POINT ( 'NONE',  ( 500000.0000000000582, 1.952500000000000124, 2.357499999956628844 ) ) ;
#325 = ADVANCED_FACE ( 'NONE', ( #664 ), #566, .F. ) ;
#326 = ORIENTED_EDGE ( 'NONE', *, *, #162, .F. ) ;
#327 = DIRECTION ( 'NONE',  ( 1.734723475976807341E-16, -0.000000000000000000, 1.000000000000000000 ) ) ;
#328 = VECTOR ( 'NONE', #89, 1000.000000000000000 ) ;
#329 = ORIENTED_EDGE ( 'NONE', *, *, #223, .T. ) ;
#330 = DIRECTION ( 'NONE',  ( 1.000000000000000000, 0.000000000000000000, -8.673617379884036705E-17 ) ) ;
#331 = EDGE_CURVE ( 'NONE', #1199, #907, #473, .T. ) ;
#332 = ORIENTED_EDGE ( 'NONE', *, *, #541, .T. ) ;
#333 = PLANE ( 'NONE',  #216 ) ;
#334 = CARTESIAN_POINT ( 'NONE',  ( 2.550000000000001155, 2.000000000000000000, -2.499999999999999112 ) ) ;
#335 = CARTESIAN_POINT ( 'NONE',  ( -2.550000000000000711, 0.1425000000000000433, -2.452499999999999680 ) ) ;
#336 = DIRECTION ( 'NONE',  ( -1.000000000000000000, 0.000000000000000000, 0.000000000000000000 ) ) ;
#337 = DIRECTION ( 'NONE',  ( -1.000000000000000000, 0.000000000000000000, 0.000000000000000000 ) ) ;
#338 = DIRECTION ( 'NONE',  ( 0.000000000000000000, 4.598948769821867210E-17, 1.000000000000000000 ) ) ;
#339 = VECTOR ( 'NONE', #359, 1000.000000000000000 ) ;
#340 = EDGE_LOOP ( 'NONE', ( #20, #313, #296, #961 ) ) ;
#341 =( NAMED_UNIT ( * ) PLANE_ANGLE_UNIT ( ) SI_UNIT ( $, .RADIAN. ) );
#342 =( GEOMETRIC_REPRESENTATION_CONTEXT ( 3 ) GLOBAL_UNCERTAINTY_ASSIGNED_CONTEXT ( ( #920 ) ) GLOBAL_UNIT_ASSIGNED_CONTEXT ( ( #508, #518, #995 ) ) REPRESENTATION_CONTEXT ( 'NONE', 'WORKASPACE' ) );
#343 = DIRECTION ( 'NONE',  ( 1.000000000000000000, -0.000000000000000000, -0.000000000000000000 ) ) ;
#344 = DIRECTION ( 'NONE',  ( -1.734723475976807341E-16, -0.000000000000000000, -1.000000000000000000 ) ) ;
#345 = CARTESIAN_POINT ( 'NONE',  ( 2.707500000000001350, 2.000000000000000000, -2.357499999999999485 ) ) ;
#346 = EDGE_CURVE ( 'NONE', #1141, #295, #1063, .T. ) ;
#347 = EDGE_CURVE ( 'NONE', #16, #997, #972, .T. ) ;
#348 = EDGE_LOOP ( 'NONE', ( #78, #860, #1093, #1182 ) ) ;
#349 = LINE ( 'NONE', #48, #465 ) ;
#350 = VERTEX_POINT ( 'NONE', #1263 ) ;
#351 = FACE_OUTER_BOUND ( 'NONE', #909, .T. ) ;
#352 = DIRECTION ( 'NONE',  ( -0.000000000000000000, 1.000000000000000000, -0.000000000000000000 ) ) ;
#353 = APPLICATION_PROTOCOL_DEFINITION ( 'draft international standard', 'automotive_design', 1998, #1160 ) ;
#354 = ADVANCED_FACE ( 'NONE', ( #1083 ), #586, .T. ) ;
#355 = VECTOR ( 'NONE', #928, 1000.000000000000000 ) ;
#356 = ORIENTED_EDGE ( 'NONE', *, *, #509, .T. ) ;
#357 = CARTESIAN_POINT ( 'NONE',  ( -2.550000000000001155, 2.000000000000000000, -2.357499999999999485 ) ) ;
#358 = ORIENTED_EDGE ( 'NONE', *, *, #276, .T. ) ;
#359 = DIRECTION ( 'NONE',  ( -1.734723475976807341E-16, -0.000000000000000000, -1.000000000000000000 ) ) ;
#360 = LINE ( 'NONE', #942, #1257 ) ;
#361 = ORIENTED_EDGE ( 'NONE', *, *, #162, .T. ) ;
#362 = AXIS2_PLACEMENT_3D ( 'NONE', #310, #886, #826 ) ;
#363 = CIRCLE ( 'NONE', #830, 0.1424999999999998213 ) ;
#364 = DIRECTION ( 'NONE',  ( 1.734723475976807341E-16, -0.000000000000000000, -1.000000000000000000 ) ) ;
#365 = CARTESIAN_POINT ( 'NONE',  ( -2.707500000000000462, 1.857499999999999929, 2.357499999999999929 ) ) ;
#366 = ORIENTED_EDGE ( 'NONE', *, *, #1215, .T. ) ;
#367 = EDGE_CURVE ( 'NONE', #746, #1070, #682, .T. ) ;
#368 = CARTESIAN_POINT ( 'NONE',  ( 2.550000000000001155, 2.000000000000000000, -2.499999999999999112 ) ) ;
#369 = FACE_OUTER_BOUND ( 'NONE', #1126, .T. ) ;
#370 = DIRECTION ( 'NONE',  ( 1.000000000000000000, 0.000000000000000000, 0.000000000000000000 ) ) ;
#371 = VECTOR ( 'NONE', #685, 1000.000000000000000 ) ;
#372 = ORIENTED_EDGE ( 'NONE', *, *, #884, .F. ) ;
#373 = ADVANCED_FACE ( 'NONE', ( #763 ), #86, .F. ) ;
#374 = CYLINDRICAL_SURFACE ( 'NONE', #1102, 0.1424999999999998213 ) ;
#375 = DIRECTION ( 'NONE',  ( 1.000000000000000000, 0.000000000000000000, 0.000000000000000000 ) ) ;
#376 = CARTESIAN_POINT ( 'NONE',  ( -2.707500000000001350, 1.857499999999999929, -2.357499999999999485 ) ) ;
#377 = VERTEX_POINT ( 'NONE', #1161 ) ;
#378 = CARTESIAN_POINT ( 'NONE',  ( 2.850000000000000977, 0.1425000000000000433, -2.357499999999999485 ) ) ;
#379 = PLANE ( 'NONE',  #1068 ) ;
#380 = VECTOR ( 'NONE', #1241, 1000.000000000000000 ) ;
#381 = AXIS2_PLACEMENT_3D ( 'NONE', #807, #725, #123 ) ;
#382 = EDGE_CURVE ( 'NONE', #764, #278, #788, .T. ) ;
#383 =( GEOMETRIC_REPRESENTATION_CONTEXT ( 3 ) GLOBAL_UNCERTAINTY_ASSIGNED_CONTEXT ( ( #212 ) ) GLOBAL_UNIT_ASSIGNED_CONTEXT ( ( #1131, #1255, #246 ) ) REPRESENTATION_CONTEXT ( 'NONE', 'WORKASPACE' ) );
#384 = CARTESIAN_POINT ( 'NONE',  ( -2.707500000000001350, 2.000000000000000000, -2.357499999999999485 ) ) ;
#385 = VERTEX_POINT ( 'NONE', #980 ) ;
#386 = DIRECTION ( 'NONE',  ( -1.000000000000000000, 0.000000000000000000, 0.000000000000000000 ) ) ;
#387 = CARTESIAN_POINT ( 'NONE',  ( 500000.0000000000582, 0.04750000000000000056, -2.357500000043366128 ) ) ;
#388 = EDGE_CURVE ( 'NONE', #278, #16, #1168, .T. ) ;
#389 = CARTESIAN_POINT ( 'NONE',  ( 2.549999999985175236, 0.1425000000000000433, 2.357499999999998597 ) ) ;
#390 = ORIENTED_EDGE ( 'NONE', *, *, #269, .F. ) ;
#391 = MECHANICAL_DESIGN_GEOMETRIC_PRESENTATION_REPRESENTATION (  '', ( #885 ), #167 ) ;
#392 = CARTESIAN_POINT ( 'NONE',  ( 2.549999999985175236, 0.04750000000000000056, -2.357499999999998597 ) ) ;
#393 = LINE ( 'NONE', #780, #912 ) ;
#394 = DIRECTION ( 'NONE',  ( -1.000000000000000000, 0.000000000000000000, 0.000000000000000000 ) ) ;
#395 = EDGE_LOOP ( 'NONE', ( #1211, #226, #1162 ) ) ;
#396 = LINE ( 'NONE', #1016, #177 ) ;
#397 = EDGE_CURVE ( 'NONE', #804, #257, #786, .T. ) ;
#398 = ORIENTED_EDGE ( 'NONE', *, *, #933, .T. ) ;
#399 = FACE_OUTER_BOUND ( 'NONE', #1244, .T. ) ;
#400 = VECTOR ( 'NONE', #675, 1000.000000000000000 ) ;
#401 = CARTESIAN_POINT ( 'NONE',  ( 2.550000000000000266, 0.000000000000000000, 2.357499999999999929 ) ) ;
#402 = AXIS2_PLACEMENT_3D ( 'NONE', #1209, #500, #1099 ) ;
#403 = MECHANICAL_DESIGN_GEOMETRIC_PRESENTATION_REPRESENTATION (  '', ( #526 ), #263 ) ;
#404 = ORIENTED_EDGE ( 'NONE', *, *, #1250, .T. ) ;
#405 = DIRECTION ( 'NONE',  ( 0.000000000000000000, -1.000000000000000000, -0.000000000000000000 ) ) ;
#406 = EDGE_CURVE ( 'NONE', #838, #609, #72, .T. ) ;
#407 = ORIENTED_EDGE ( 'NONE', *, *, #413, .F. ) ;
#408 = DIRECTION ( 'NONE',  ( 0.000000000000000000, 0.000000000000000000, 1.000000000000000000 ) ) ;
#409 = CARTESIAN_POINT ( 'NONE',  ( -2.850000000000000977, 1.857499999999999929, -2.499999999999999112 ) ) ;
#410 = VERTEX_POINT ( 'NONE', #965 ) ;
#411 = FACE_OUTER_BOUND ( 'NONE', #137, .T. ) ;
#412 = DIRECTION ( 'NONE',  ( 0.000000000000000000, 1.000000000000000000, 0.000000000000000000 ) ) ;
#413 = EDGE_CURVE ( 'NONE', #34, #198, #1233, .T. ) ;
#414 = ADVANCED_FACE ( 'NONE', ( #777 ), #82, .T. ) ;
#415 = ORIENTED_EDGE ( 'NONE', *, *, #1035, .F. ) ;
#416 = DIRECTION ( 'NONE',  ( -1.734723475976807341E-16, -0.000000000000000000, -1.000000000000000000 ) ) ;
#417 = ORIENTED_EDGE ( 'NONE', *, *, #1120, .T. ) ;
#418 = DIRECTION ( 'NONE',  ( 0.000000000000000000, 1.000000000000000000, 0.000000000000000000 ) ) ;
#419 = ADVANCED_FACE ( 'NONE', ( #166 ), #1270, .T. ) ;
#420 = VECTOR ( 'NONE', #863, 1000.000000000000000 ) ;
#421 = AXIS2_PLACEMENT_3D ( 'NONE', #41, #330, #839 ) ;
#422 = CARTESIAN_POINT ( 'NONE',  ( 2.707500000000000462, 0.1425000000000000433, 2.357499999999999929 ) ) ;
#423 = VERTEX_POINT ( 'NONE', #384 ) ;
#424 = FACE_OUTER_BOUND ( 'NONE', #179, .T. ) ;
#425 = AXIS2_PLACEMENT_3D ( 'NONE', #238, #1041, #163 ) ;
#426 = ADVANCED_FACE ( 'NONE', ( #1181 ), #561, .T. ) ;
#427 = CARTESIAN_POINT ( 'NONE',  ( -2.707500000000001350, 0.1425000000000000433, -2.499999999999999112 ) ) ;
#428 = CARTESIAN_POINT ( 'NONE',  ( 2.550000000000000266, 2.000000000000000000, 2.357499999999999929 ) ) ;
#429 = VERTEX_POINT ( 'NONE', #781 ) ;
#430 = CARTESIAN_POINT ( 'NONE',  ( 500000.0000000000582, 0.1425000000000004874, 2.452499999956630816 ) ) ;
#431 = DIRECTION ( 'NONE',  ( -0.000000000000000000, 1.000000000000000000, -0.000000000000000000 ) ) ;
#432 = DIRECTION ( 'NONE',  ( 1.000000000000000000, -0.000000000000000000, -0.000000000000000000 ) ) ;
#433 = CARTESIAN_POINT ( 'NONE',  ( -2.707500000000001350, 2.000000000000000000, -2.357499999999999485 ) ) ;
#434 = ORIENTED_EDGE ( 'NONE', *, *, #698, .T. ) ;
#435 = DIRECTION ( 'NONE',  ( 0.000000000000000000, 0.000000000000000000, -1.000000000000000000 ) ) ;
#436 = ORIENTED_EDGE ( 'NONE', *, *, #1092, .T. ) ;
#437 = LINE ( 'NONE', #1157, #538 ) ;
#438 = CARTESIAN_POINT ( 'NONE',  ( -2.550000000000000266, 0.1425000000000000433, 2.499999999999999556 ) ) ;
#439 = SPHERICAL_SURFACE ( 'NONE', #17, 0.1425000000000000155 ) ;
#440 = ORIENTED_EDGE ( 'NONE', *, *, #484, .T. ) ;
#441 = CARTESIAN_POINT ( 'NONE',  ( 500000.0000000000582, 0.1425000000000000433, 2.357499999956630621 ) ) ;
#442 = AXIS2_PLACEMENT_3D ( 'NONE', #481, #1280, #1195 ) ;
#443 = ORIENTED_EDGE ( 'NONE', *, *, #109, .T. ) ;
#444 = VECTOR ( 'NONE', #515, 1000.000000000000000 ) ;
#445 = ADVANCED_FACE ( 'NONE', ( #6 ), #1235, .T. ) ;
#446 = AXIS2_PLACEMENT_3D ( 'NONE', #152, #456, #1146 ) ;
#447 = CARTESIAN_POINT ( 'NONE',  ( -2.550000000000001155, 1.857499999999999929, -2.499999999999999112 ) ) ;
#448 = CARTESIAN_POINT ( 'NONE',  ( 2.707500000000000462, 1.857499999999999929, 2.357499999999999929 ) ) ;
#449 = ORIENTED_EDGE ( 'NONE', *, *, #793, .F. ) ;
#450 = LINE ( 'NONE', #926, #856 ) ;
#451 = ORIENTED_EDGE ( 'NONE', *, *, #1074, .T. ) ;
#452 = PLANE ( 'NONE',  #1014 ) ;
#453 = CARTESIAN_POINT ( 'NONE',  ( -2.707500000000001350, 1.857499999999999929, -2.357499999999999485 ) ) ;
#454 = EDGE_CURVE ( 'NONE', #147, #40, #306, .T. ) ;
#455 = DIRECTION ( 'NONE',  ( -0.000000000000000000, 0.000000000000000000, -1.000000000000000000 ) ) ;
#456 = DIRECTION ( 'NONE',  ( 0.000000000000000000, -1.000000000000000000, 0.000000000000000000 ) ) ;
#457 = ORIENTED_EDGE ( 'NONE', *, *, #600, .F. ) ;
#458 =( NAMED_UNIT ( * ) PLANE_ANGLE_UNIT ( ) SI_UNIT ( $, .RADIAN. ) );
#459 = DIRECTION ( 'NONE',  ( 0.000000000000000000, 0.000000000000000000, 1.000000000000000000 ) ) ;
#460 = FILL_AREA_STYLE_COLOUR ( '', #1094 ) ;
#461 = EDGE_CURVE ( 'NONE', #295, #941, #569, .T. ) ;
#462 = DIRECTION ( 'NONE',  ( -1.000000000000000000, 0.000000000000000000, 0.000000000000000000 ) ) ;
#463 = ORIENTED_EDGE ( 'NONE', *, *, #669, .T. ) ;
#464 = AXIS2_PLACEMENT_3D ( 'NONE', #721, #694, #987 ) ;
#465 = VECTOR ( 'NONE', #338, 1000.000000000000000 ) ;
#466 = DIRECTION ( 'NONE',  ( 0.000000000000000000, 0.000000000000000000, 1.000000000000000000 ) ) ;
#467 = CARTESIAN_POINT ( 'NONE',  ( -2.550000000000000711, 0.1425000000000000433, 2.357499999999999485 ) ) ;
#468 = EDGE_CURVE ( 'NONE', #1070, #700, #91, .T. ) ;
#469 = ORIENTED_EDGE ( 'NONE', *, *, #331, .T. ) ;
#470 = CARTESIAN_POINT ( 'NONE',  ( 0.000000000000000000, 0.000000000000000000, -2.357499999999999485 ) ) ;
#471 = CARTESIAN_POINT ( 'NONE',  ( 2.707500000000000462, 1.857499999999999929, 2.357499999999999929 ) ) ;
#472 = CARTESIAN_POINT ( 'NONE',  ( -2.850000000000000089, 0.1425000000000000433, 2.357499999999999929 ) ) ;
#473 = CIRCLE ( 'NONE', #640, 0.1424999999999998213 ) ;
#474 = VERTEX_POINT ( 'NONE', #921 ) ;
#475 = LINE ( 'NONE', #489, #842 ) ;
#476 = LINE ( 'NONE', #96, #1234 ) ;
#477 = ADVANCED_FACE ( 'NONE', ( #791 ), #537, .T. ) ;
#478 = DIRECTION ( 'NONE',  ( -1.000000000000000000, 0.000000000000000000, 0.000000000000000000 ) ) ;
#479 = ORIENTED_EDGE ( 'NONE', *, *, #1038, .T. ) ;
#480 = CARTESIAN_POINT ( 'NONE',  ( 500000.0000000000582, 1.857499999999999929, 2.452499999956630816 ) ) ;
#481 = CARTESIAN_POINT ( 'NONE',  ( 500000.0000000000582, 0.1425000000000000433, -2.357500000043368349 ) ) ;
#482 = AXIS2_PLACEMENT_3D ( 'NONE', #899, #1202, #891 ) ;
#483 = DIRECTION ( 'NONE',  ( 0.000000000000000000, 0.000000000000000000, 1.000000000000000000 ) ) ;
#484 = EDGE_CURVE ( 'NONE', #821, #688, #819, .T. ) ;
#485 = AXIS2_PLACEMENT_3D ( 'NONE', #528, #1106, #408 ) ;
#486 = VECTOR ( 'NONE', #35, 1000.000000000000000 ) ;
#487 = DIRECTION ( 'NONE',  ( 0.000000000000000000, 1.000000000000000000, 0.000000000000000000 ) ) ;
#488 = EDGE_LOOP ( 'NONE', ( #754, #1138, #234, #1223 ) ) ;
#489 = CARTESIAN_POINT ( 'NONE',  ( 2.549999999985175236, 0.04750000000000000056, 2.357499999869895113 ) ) ;
#490 = PLANE ( 'NONE',  #11 ) ;
#491 = DIRECTION ( 'NONE',  ( 0.000000000000000000, -1.000000000000000000, 0.000000000000000000 ) ) ;
#492 = EDGE_CURVE ( 'NONE', #532, #385, #239, .T. ) ;
#493 = EDGE_LOOP ( 'NONE', ( #660, #855, #1176, #197 ) ) ;
#494 = AXIS2_PLACEMENT_3D ( 'NONE', #472, #1186, #294 ) ;
#495 = ORIENTED_EDGE ( 'NONE', *, *, #991, .F. ) ;
#496 = CIRCLE ( 'NONE', #617, 0.1424999999999998213 ) ;
#497 = DIRECTION ( 'NONE',  ( 0.000000000000000000, 1.000000000000000000, 0.000000000000000000 ) ) ;
#498 = EDGE_CURVE ( 'NONE', #997, #350, #1196, .T. ) ;
#499 = ORIENTED_EDGE ( 'NONE', *, *, #1038, .F. ) ;
#500 = DIRECTION ( 'NONE',  ( 0.000000000000000000, 0.000000000000000000, -1.000000000000000000 ) ) ;
#501 = ORIENTED_EDGE ( 'NONE', *, *, #102, .T. ) ;
#502 = LINE ( 'NONE', #895, #281 ) ;
#503 = CIRCLE ( 'NONE', #110, 0.1424999999999998213 ) ;
#504 = FACE_OUTER_BOUND ( 'NONE', #1218, .T. ) ;
#505 = PRESENTATION_LAYER_ASSIGNMENT (  '', '', ( #1091 ) ) ;
#506 = CIRCLE ( 'NONE', #898, 0.1424999999999998213 ) ;
#507 = ORIENTED_EDGE ( 'NONE', *, *, #1180, .F. ) ;
#508 =( LENGTH_UNIT ( ) NAMED_UNIT ( * ) SI_UNIT ( .MILLI., .METRE. ) );
#509 = EDGE_CURVE ( 'NONE', #410, #821, #503, .T. ) ;
#510 = VERTEX_POINT ( 'NONE', #108 ) ;
#511 = CARTESIAN_POINT ( 'NONE',  ( 2.549999999985175236, 0.1425000000000004874, 2.452499999999998348 ) ) ;
#512 = ADVANCED_FACE ( 'NONE', ( #504 ), #97, .F. ) ;
#513 = PRODUCT_DEFINITION_CONTEXT ( 'detailed design', #939, 'design' ) ;
#514 = ORIENTED_EDGE ( 'NONE', *, *, #388, .T. ) ;
#515 = DIRECTION ( 'NONE',  ( -1.000000000000000000, -0.000000000000000000, -0.000000000000000000 ) ) ;
#516 = EDGE_LOOP ( 'NONE', ( #534, #127, #87, #1001 ) ) ;
#517 = ORIENTED_EDGE ( 'NONE', *, *, #521, .F. ) ;
#518 =( NAMED_UNIT ( * ) PLANE_ANGLE_UNIT ( ) SI_UNIT ( $, .RADIAN. ) );
#519 = ORIENTED_EDGE ( 'NONE', *, *, #1013, .F. ) ;
#520 = CYLINDRICAL_SURFACE ( 'NONE', #485, 0.09500000000000002887 ) ;
#521 = EDGE_CURVE ( 'NONE', #12, #510, #45, .T. ) ;
#522 = VECTOR ( 'NONE', #491, 1000.000000000000000 ) ;
#523 = CIRCLE ( 'NONE', #421, 0.09500000000000002887 ) ;
#524 = ORIENTED_EDGE ( 'NONE', *, *, #1074, .F. ) ;
#525 = DIRECTION ( 'NONE',  ( 0.000000000000000000, -1.000000000000000000, 0.000000000000000000 ) ) ;
#526 = STYLED_ITEM ( 'NONE', ( #133 ), #1082 ) ;
#527 = VERTEX_POINT ( 'NONE', #438 ) ;
#528 = CARTESIAN_POINT ( 'NONE',  ( 500000.0000000000582, 1.857499999999999929, 2.357499999956630621 ) ) ;
#529 = SURFACE_STYLE_USAGE ( .BOTH. , #1047 ) ;
#530 = CARTESIAN_POINT ( 'NONE',  ( -2.550000000000001155, 0.1425000000000000433, -2.357499999999999485 ) ) ;
#531 = DIRECTION ( 'NONE',  ( 0.000000000000000000, -1.000000000000000000, 0.000000000000000000 ) ) ;
#532 = VERTEX_POINT ( 'NONE', #401 ) ;
#533 = CARTESIAN_POINT ( 'NONE',  ( -2.707500000000001350, 1.857499999999999929, -2.499999999999999112 ) ) ;
#534 = ORIENTED_EDGE ( 'NONE', *, *, #669, .F. ) ;
#535 = DIRECTION ( 'NONE',  ( 0.000000000000000000, 0.000000000000000000, -1.000000000000000000 ) ) ;
#536 = CYLINDRICAL_SURFACE ( 'NONE', #951, 0.1424999999999998213 ) ;
#537 = SPHERICAL_SURFACE ( 'NONE', #1025, 0.1425000000000000155 ) ;
#538 = VECTOR ( 'NONE', #252, 1000.000000000000000 ) ;
#539 = CARTESIAN_POINT ( 'NONE',  ( -2.850000000000000977, 1.857499999999999929, -2.357499999999999485 ) ) ;
#540 = CARTESIAN_POINT ( 'NONE',  ( 2.549999999985175236, 1.857499999999999929, 2.452499999999998348 ) ) ;
#541 = EDGE_CURVE ( 'NONE', #410, #257, #728, .T. ) ;
#542 = ORIENTED_EDGE ( 'NONE', *, *, #331, .F. ) ;
#543 = CARTESIAN_POINT ( 'NONE',  ( -2.550000000000000711, 1.857499999999999929, 2.452499999999999236 ) ) ;
#544 = DIRECTION ( 'NONE',  ( 0.000000000000000000, 0.000000000000000000, 1.000000000000000000 ) ) ;
#545 = DIRECTION ( 'NONE',  ( 1.000000000000000000, -0.000000000000000000, -1.734723475976807341E-16 ) ) ;
#546 = ORIENTED_EDGE ( 'NONE', *, *, #1266, .F. ) ;
#547 = CARTESIAN_POINT ( 'NONE',  ( -2.707500000000000462, 1.857499999999999929, 2.499999999999999556 ) ) ;
#548 = VECTOR ( 'NONE', #293, 1000.000000000000000 ) ;
#549 = EDGE_CURVE ( 'NONE', #527, #1141, #1256, .T. ) ;
#550 = ORIENTED_EDGE ( 'NONE', *, *, #720, .T. ) ;
#551 = PRESENTATION_LAYER_ASSIGNMENT (  '', '', ( #674 ) ) ;
#552 = AXIS2_PLACEMENT_3D ( 'NONE', #250, #1251, #643 ) ;
#553 = DIRECTION ( 'NONE',  ( 1.734723475976807341E-16, -0.000000000000000000, 1.000000000000000000 ) ) ;
#554 =( LENGTH_UNIT ( ) NAMED_UNIT ( * ) SI_UNIT ( .MILLI., .METRE. ) );
#555 = DIRECTION ( 'NONE',  ( 0.000000000000000000, 0.000000000000000000, 1.000000000000000000 ) ) ;
#556 = DIRECTION ( 'NONE',  ( -1.000000000000000000, -0.000000000000000000, 8.673617379884036705E-17 ) ) ;
#557 = VERTEX_POINT ( 'NONE', #591 ) ;
#558 = LINE ( 'NONE', #847, #702 ) ;
#559 = DIRECTION ( 'NONE',  ( 0.000000000000000000, -0.000000000000000000, 1.000000000000000000 ) ) ;
#560 = EDGE_CURVE ( 'NONE', #266, #532, #692, .T. ) ;
#561 = CYLINDRICAL_SURFACE ( 'NONE', #973, 0.1424999999999998213 ) ;
#562 = ORIENTED_EDGE ( 'NONE', *, *, #1201, .T. ) ;
#563 = DIRECTION ( 'NONE',  ( -1.000000000000000000, 0.000000000000000000, 0.000000000000000000 ) ) ;
#564 = DIRECTION ( 'NONE',  ( -0.000000000000000000, -1.000000000000000000, -0.000000000000000000 ) ) ;
#565 = ADVANCED_FACE ( 'NONE', ( #103 ), #630, .T. ) ;
#566 = PLANE ( 'NONE',  #1268 ) ;
#567 = ORIENTED_EDGE ( 'NONE', *, *, #878, .T. ) ;
#568 = AXIS2_PLACEMENT_3D ( 'NONE', #389, #284, #574 ) ;
#569 = CIRCLE ( 'NONE', #1112, 0.1424999999999998213 ) ;
#570 = CARTESIAN_POINT ( 'NONE',  ( -2.707500000000000462, 0.1425000000000000155, 2.357499999999999929 ) ) ;
#571 = VECTOR ( 'NONE', #21, 1000.000000000000000 ) ;
#572 = PLANE ( 'NONE',  #126 ) ;
#573 = AXIS2_PLACEMENT_3D ( 'NONE', #433, #531, #631 ) ;
#574 = DIRECTION ( 'NONE',  ( 0.000000000000000000, 0.000000000000000000, -1.000000000000000000 ) ) ;
#575 = EDGE_CURVE ( 'NONE', #474, #989, #1097, .T. ) ;
#576 = EDGE_CURVE ( 'NONE', #724, #821, #829, .T. ) ;
#577 = ORIENTED_EDGE ( 'NONE', *, *, #1085, .T. ) ;
#578 = FACE_OUTER_BOUND ( 'NONE', #887, .T. ) ;
#579 = CARTESIAN_POINT ( 'NONE',  ( -2.550000000000000711, 1.857499999999999929, 2.452499999999999236 ) ) ;
#580 = AXIS2_PLACEMENT_3D ( 'NONE', #1170, #768, #1258 ) ;
#581 = CARTESIAN_POINT ( 'NONE',  ( -2.707500000000001350, 0.1425000000000000433, -2.357499999999999485 ) ) ;
#582 = ORIENTED_EDGE ( 'NONE', *, *, #109, .F. ) ;
#583 = EDGE_CURVE ( 'NONE', #40, #1208, #651, .T. ) ;
#584 = DIRECTION ( 'NONE',  ( 1.734723475976807341E-16, 0.000000000000000000, -1.000000000000000000 ) ) ;
#585 = LINE ( 'NONE', #771, #155 ) ;
#586 = SPHERICAL_SURFACE ( 'NONE', #129, 0.1425000000000000155 ) ;
#587 = ORIENTED_EDGE ( 'NONE', *, *, #248, .F. ) ;
#588 = CARTESIAN_POINT ( 'NONE',  ( 500000.0000000000582, 1.952499999999999902, -2.357500000043368349 ) ) ;
#589 = VECTOR ( 'NONE', #970, 1000.000000000000000 ) ;
#590 = CIRCLE ( 'NONE', #1028, 0.1424999999999998213 ) ;
#591 = CARTESIAN_POINT ( 'NONE',  ( 2.550000000000000266, 2.000000000000000000, 2.357499999999999929 ) ) ;
#592 = ORIENTED_EDGE ( 'NONE', *, *, #1163, .F. ) ;
#593 = ORIENTED_EDGE ( 'NONE', *, *, #745, .T. ) ;
#594 = CARTESIAN_POINT ( 'NONE',  ( 2.707500000000000462, 2.000000000000000000, 2.499999999999999556 ) ) ;
#595 = ADVANCED_FACE ( 'NONE', ( #369 ), #572, .T. ) ;
#596 = CARTESIAN_POINT ( 'NONE',  ( 2.707500000000001350, 1.857499999999999929, -2.357499999999999485 ) ) ;
#597 = EDGE_LOOP ( 'NONE', ( #734, #1148, #949 ) ) ;
#598 = ORIENTED_EDGE ( 'NONE', *, *, #14, .F. ) ;
#599 = LINE ( 'NONE', #594, #730 ) ;
#600 = EDGE_CURVE ( 'NONE', #34, #1208, #1055, .T. ) ;
#601 = DIRECTION ( 'NONE',  ( 0.000000000000000000, 0.000000000000000000, 1.000000000000000000 ) ) ;
#602 = ORIENTED_EDGE ( 'NONE', *, *, #1180, .T. ) ;
#603 = PLANE ( 'NONE',  #402 ) ;
#604 = ADVANCED_FACE ( 'NONE', ( #1061 ), #261, .T. ) ;
#605 = ORIENTED_EDGE ( 'NONE', *, *, #1120, .F. ) ;
#606 = CARTESIAN_POINT ( 'NONE',  ( 0.000000000000000000, 0.000000000000000000, 0.000000000000000000 ) ) ;
#607 = AXIS2_PLACEMENT_3D ( 'NONE', #979, #690, #776 ) ;
#608 = CIRCLE ( 'NONE', #809, 0.09500000000000002887 ) ;
#609 = VERTEX_POINT ( 'NONE', #657 ) ;
#610 = DIRECTION ( 'NONE',  ( 0.000000000000000000, 0.000000000000000000, 1.000000000000000000 ) ) ;
#611 = ORIENTED_EDGE ( 'NONE', *, *, #737, .F. ) ;
#612 = PRESENTATION_STYLE_ASSIGNMENT (( #1200 ) ) ;
#613 = ORIENTED_EDGE ( 'NONE', *, *, #367, .F. ) ;
#614 = EDGE_CURVE ( 'NONE', #532, #615, #663, .T. ) ;
#615 = VERTEX_POINT ( 'NONE', #80 ) ;
#616 = LINE ( 'NONE', #235, #940 ) ;
#617 = AXIS2_PLACEMENT_3D ( 'NONE', #61, #455, #159 ) ;
#618 = CARTESIAN_POINT ( 'NONE',  ( -2.550000000000000711, 0.04750000000000000056, -2.357499999999997708 ) ) ;
#619 = DIRECTION ( 'NONE',  ( -1.000000000000000000, -0.000000000000000000, -0.000000000000000000 ) ) ;
#620 = ORIENTED_EDGE ( 'NONE', *, *, #461, .F. ) ;
#621 = SURFACE_SIDE_STYLE ('',( #32 ) ) ;
#622 = CARTESIAN_POINT ( 'NONE',  ( 2.707500000000000462, 0.1425000000000000155, 2.357499999999999929 ) ) ;
#623 = AXIS2_PLACEMENT_3D ( 'NONE', #1166, #858, #275 ) ;
#624 = ORIENTED_EDGE ( 'NONE', *, *, #661, .F. ) ;
#625 = FACE_OUTER_BOUND ( 'NONE', #889, .T. ) ;
#626 = CIRCLE ( 'NONE', #93, 0.1424999999999998213 ) ;
#627 = ORIENTED_EDGE ( 'NONE', *, *, #772, .T. ) ;
#628 = CARTESIAN_POINT ( 'NONE',  ( -2.850000000000000089, 0.1425000000000000433, 2.357499999999999929 ) ) ;
#629 = CARTESIAN_POINT ( 'NONE',  ( 2.707500000000000462, 2.000000000000000000, 2.357499999999999929 ) ) ;
#630 = SPHERICAL_SURFACE ( 'NONE', #808, 0.1425000000000000155 ) ;
#631 = DIRECTION ( 'NONE',  ( 0.000000000000000000, 0.000000000000000000, -1.000000000000000000 ) ) ;
#632 = EDGE_CURVE ( 'NONE', #1141, #1070, #952, .T. ) ;
#633 = CLOSED_SHELL ( 'NONE', ( #171, #668, #373, #798, #644, #1156, #1231, #914, #705, #966 ) ) ;
#634 = ORIENTED_EDGE ( 'NONE', *, *, #223, .F. ) ;
#635 = CARTESIAN_POINT ( 'NONE',  ( -2.707500000000000462, 2.000000000000000000, 2.499999999999999556 ) ) ;
#636 = ORIENTED_EDGE ( 'NONE', *, *, #541, .F. ) ;
#637 = FACE_OUTER_BOUND ( 'NONE', #488, .T. ) ;
#638 = DIRECTION ( 'NONE',  ( 1.734723475976807341E-16, -0.000000000000000000, -1.000000000000000000 ) ) ;
#639 = FACE_OUTER_BOUND ( 'NONE', #1053, .T. ) ;
#640 = AXIS2_PLACEMENT_3D ( 'NONE', #365, #462, #289 ) ;
#641 = EDGE_CURVE ( 'NONE', #385, #804, #65, .T. ) ;
#642 = ORIENTED_EDGE ( 'NONE', *, *, #632, .F. ) ;
#643 = DIRECTION ( 'NONE',  ( 1.000000000000000000, 0.000000000000000000, -0.000000000000000000 ) ) ;
#644 = ADVANCED_FACE ( 'NONE', ( #164 ), #175, .F. ) ;
#645 = ORIENTED_EDGE ( 'NONE', *, *, #854, .F. ) ;
#646 = SURFACE_STYLE_FILL_AREA ( #937 ) ;
#647 = FACE_OUTER_BOUND ( 'NONE', #846, .T. ) ;
#648 = SURFACE_STYLE_USAGE ( .BOTH. , #1159 ) ;
#649 = ORIENTED_EDGE ( 'NONE', *, *, #1243, .F. ) ;
#650 = PLANE ( 'NONE',  #1153 ) ;
#651 = CIRCLE ( 'NONE', #213, 0.1424999999999998213 ) ;
#652 = VECTOR ( 'NONE', #405, 1000.000000000000000 ) ;
#653 = ORIENTED_EDGE ( 'NONE', *, *, #454, .T. ) ;
#654 = EDGE_CURVE ( 'NONE', #510, #683, #981, .T. ) ;
#655 = CIRCLE ( 'NONE', #446, 0.1424999999999998213 ) ;
#656 = CARTESIAN_POINT ( 'NONE',  ( 2.707500000000001350, 2.000000000000000000, -2.499999999999999112 ) ) ;
#657 = CARTESIAN_POINT ( 'NONE',  ( 2.549999999985175236, 0.04750000000000001443, 2.357499999999998597 ) ) ;
#658 = DIRECTION ( 'NONE',  ( 0.000000000000000000, 0.000000000000000000, -1.000000000000000000 ) ) ;
#659 = DIRECTION ( 'NONE',  ( -1.000000000000000000, -0.000000000000000000, -0.000000000000000000 ) ) ;
#660 = ORIENTED_EDGE ( 'NONE', *, *, #677, .F. ) ;
#661 = EDGE_CURVE ( 'NONE', #880, #527, #848, .T. ) ;
#662 = CARTESIAN_POINT ( 'NONE',  ( 2.707500000000000462, 2.000000000000000000, 2.499999999999999556 ) ) ;
#663 = LINE ( 'NONE', #750, #1129 ) ;
#664 = FACE_OUTER_BOUND ( 'NONE', #221, .T. ) ;
#665 = ORIENTED_EDGE ( 'NONE', *, *, #367, .T. ) ;
#666 = DIRECTION ( 'NONE',  ( 0.000000000000000000, -1.000000000000000000, 0.000000000000000000 ) ) ;
#667 = DIRECTION ( 'NONE',  ( -8.673617379884036705E-17, 0.000000000000000000, -1.000000000000000000 ) ) ;
#668 = ADVANCED_FACE ( 'NONE', ( #1158 ), #956, .F. ) ;
#669 = EDGE_CURVE ( 'NONE', #251, #1133, #672, .T. ) ;
#670 = DIRECTION ( 'NONE',  ( 1.000000000000000000, 0.000000000000000000, 0.000000000000000000 ) ) ;
#671 = ORIENTED_EDGE ( 'NONE', *, *, #1035, .T. ) ;
#672 = CIRCLE ( 'NONE', #1005, 0.09500000000000002887 ) ;
#673 = DIRECTION ( 'NONE',  ( 1.000000000000000000, 0.000000000000000000, 0.000000000000000000 ) ) ;
#674 = STYLED_ITEM ( 'NONE', ( #1002 ), #1010 ) ;
#675 = DIRECTION ( 'NONE',  ( -1.000000000000000000, -0.000000000000000000, 8.673617379884036705E-17 ) ) ;
#676 = CIRCLE ( 'NONE', #1194, 0.1424999999999998213 ) ;
#677 = EDGE_CURVE ( 'NONE', #510, #98, #852, .T. ) ;
#678 = CARTESIAN_POINT ( 'NONE',  ( 0.000000000000000000, 0.000000000000000000, 2.357499999999999929 ) ) ;
#679 = ORIENTED_EDGE ( 'NONE', *, *, #1215, .F. ) ;
#680 = CARTESIAN_POINT ( 'NONE',  ( -2.707500000000000462, 0.000000000000000000, 2.357499999999999929 ) ) ;
#681 = CARTESIAN_POINT ( 'NONE',  ( -2.550000000000000711, 0.1425000000000004874, 2.452499999999999236 ) ) ;
#682 = LINE ( 'NONE', #1067, #1152 ) ;
#683 = VERTEX_POINT ( 'NONE', #945 ) ;
#684 = ADVANCED_FACE ( 'NONE', ( #253 ), #149, .T. ) ;
#685 = DIRECTION ( 'NONE',  ( -1.000000000000000000, -0.000000000000000000, -0.000000000000000000 ) ) ;
#686 = DIRECTION ( 'NONE',  ( 1.734723475976807341E-16, 0.000000000000000000, -1.000000000000000000 ) ) ;
#687 = CARTESIAN_POINT ( 'NONE',  ( 2.850000000000000089, 2.000000000000000000, 2.499999999999999556 ) ) ;
#688 = VERTEX_POINT ( 'NONE', #743 ) ;
#689 = ADVANCED_FACE ( 'NONE', ( #647 ), #1048, .T. ) ;
#690 = DIRECTION ( 'NONE',  ( 0.000000000000000000, 1.000000000000000000, 0.000000000000000000 ) ) ;
#691 = VECTOR ( 'NONE', #851, 1000.000000000000000 ) ;
#692 = CIRCLE ( 'NONE', #464, 0.1424999999999998213 ) ;
#693 = AXIS2_PLACEMENT_3D ( 'NONE', #606, #418, #314 ) ;
#694 = DIRECTION ( 'NONE',  ( 1.000000000000000000, 0.000000000000000000, 1.734723475976807341E-16 ) ) ;
#695 = EDGE_LOOP ( 'NONE', ( #111, #613, #49, #1246 ) ) ;
#696 = DIRECTION ( 'NONE',  ( -1.000000000000000000, 0.000000000000000000, 0.000000000000000000 ) ) ;
#697 = DIRECTION ( 'NONE',  ( -1.000000000000000000, 0.000000000000000000, 0.000000000000000000 ) ) ;
#698 = EDGE_CURVE ( 'NONE', #257, #12, #998, .T. ) ;
#699 = DIRECTION ( 'NONE',  ( 0.000000000000000000, 0.000000000000000000, 1.000000000000000000 ) ) ;
#700 = VERTEX_POINT ( 'NONE', #107 ) ;
#701 = DIRECTION ( 'NONE',  ( -1.000000000000000000, -0.000000000000000000, 8.673617379884036705E-17 ) ) ;
#702 = VECTOR ( 'NONE', #755, 1000.000000000000000 ) ;
#703 = AXIS2_PLACEMENT_3D ( 'NONE', #581, #487, #773 ) ;
#704 = DIRECTION ( 'NONE',  ( 1.000000000000000000, 0.000000000000000000, -8.673617379884036705E-17 ) ) ;
#705 = ADVANCED_FACE ( 'NONE', ( #1273 ), #379, .F. ) ;
#706 = ADVANCED_FACE ( 'NONE', ( #399 ), #1184, .T. ) ;
#707 = EDGE_LOOP ( 'NONE', ( #1110, #1036, #927, #593 ) ) ;
#708 = DIRECTION ( 'NONE',  ( 0.000000000000000000, 0.000000000000000000, -1.000000000000000000 ) ) ;
#709 = EDGE_LOOP ( 'NONE', ( #1007, #1121, #479, #627, #982, #9, #463, #1197 ) ) ;
#710 = DIRECTION ( 'NONE',  ( 1.000000000000000000, 0.000000000000000000, 0.000000000000000000 ) ) ;
#711 = VECTOR ( 'NONE', #344, 1000.000000000000000 ) ;
#712 = AXIS2_PLACEMENT_3D ( 'NONE', #132, #195, #799 ) ;
#713 = VECTOR ( 'NONE', #723, 1000.000000000000000 ) ;
#714 = EDGE_LOOP ( 'NONE', ( #7, #358, #769, #645 ) ) ;
#715 = LINE ( 'NONE', #324, #571 ) ;
#716 = DIRECTION ( 'NONE',  ( 0.000000000000000000, 0.000000000000000000, 1.000000000000000000 ) ) ;
#717 = EDGE_LOOP ( 'NONE', ( #1265, #469, #104 ) ) ;
#718 = ORIENTED_EDGE ( 'NONE', *, *, #549, .T. ) ;
#719 = DIRECTION ( 'NONE',  ( -0.000000000000000000, 1.000000000000000000, -0.000000000000000000 ) ) ;
#720 = EDGE_CURVE ( 'NONE', #295, #944, #50, .T. ) ;
#721 = CARTESIAN_POINT ( 'NONE',  ( 2.550000000000000266, 0.1425000000000000433, 2.357499999999999929 ) ) ;
#722 = ORIENTED_EDGE ( 'NONE', *, *, #1009, .F. ) ;
#723 = DIRECTION ( 'NONE',  ( -1.000000000000000000, -0.000000000000000000, 8.673617379884036705E-17 ) ) ;
#724 = VERTEX_POINT ( 'NONE', #985 ) ;
#725 = DIRECTION ( 'NONE',  ( 0.000000000000000000, 0.000000000000000000, -1.000000000000000000 ) ) ;
#726 = EDGE_CURVE ( 'NONE', #251, #16, #1095, .T. ) ;
#727 = CARTESIAN_POINT ( 'NONE',  ( 2.850000000000000977, 0.1425000000000000433, -2.357499999999999485 ) ) ;
#728 = LINE ( 'NONE', #1130, #522 ) ;
#729 = DIRECTION ( 'NONE',  ( 0.000000000000000000, -1.000000000000000000, 0.000000000000000000 ) ) ;
#730 = VECTOR ( 'NONE', #990, 1000.000000000000000 ) ;
#731 = CIRCLE ( 'NONE', #283, 0.1424999999999998213 ) ;
#732 = EDGE_LOOP ( 'NONE', ( #801, #1271, #63, #831 ) ) ;
#733 = DIRECTION ( 'NONE',  ( 1.000000000000000000, -0.000000000000000000, 0.000000000000000000 ) ) ;
#734 = ORIENTED_EDGE ( 'NONE', *, *, #1207, .F. ) ;
#735 = LINE ( 'NONE', #1033, #1117 ) ;
#736 = CARTESIAN_POINT ( 'NONE',  ( -2.550000000000000711, 1.857499999999999929, -2.357499999999999929 ) ) ;
#737 = EDGE_CURVE ( 'NONE', #1169, #423, #585, .T. ) ;
#738 = ORIENTED_EDGE ( 'NONE', *, *, #632, .T. ) ;
#739 = DIRECTION ( 'NONE',  ( 0.000000000000000000, 0.000000000000000000, -1.000000000000000000 ) ) ;
#740 = ORIENTED_EDGE ( 'NONE', *, *, #677, .T. ) ;
#741 = CARTESIAN_POINT ( 'NONE',  ( -2.707500000000000462, 2.000000000000000000, 2.357499999999999929 ) ) ;
#742 = AXIS2_PLACEMENT_3D ( 'NONE', #191, #881, #79 ) ;
#743 = CARTESIAN_POINT ( 'NONE',  ( 2.550000000000001155, 1.857499999999999929, -2.499999999999999112 ) ) ;
#744 = CARTESIAN_POINT ( 'NONE',  ( 2.550000000000001155, 1.857499999999999929, -2.357499999999999485 ) ) ;
#745 = EDGE_CURVE ( 'NONE', #683, #290, #599, .T. ) ;
#746 = VERTEX_POINT ( 'NONE', #1072 ) ;
#747 = LINE ( 'NONE', #635, #1132 ) ;
#748 = PRODUCT_DEFINITION ( 'UNKNOWN', '', #1278, #513 ) ;
#749 = EDGE_LOOP ( 'NONE', ( #519, #1017, #120, #83 ) ) ;
#750 = CARTESIAN_POINT ( 'NONE',  ( 2.550000000000001155, 0.000000000000000000, -2.499999999999999112 ) ) ;
#751 = LINE ( 'NONE', #428, #156 ) ;
#752 = AXIS2_PLACEMENT_3D ( 'NONE', #1079, #686, #181 ) ;
#753 = EDGE_CURVE ( 'NONE', #1133, #997, #100, .T. ) ;
#754 = ORIENTED_EDGE ( 'NONE', *, *, #36, .T. ) ;
#755 = DIRECTION ( 'NONE',  ( -1.000000000000000000, -0.000000000000000000, 8.673617379884036705E-17 ) ) ;
#756 = CARTESIAN_POINT ( 'NONE',  ( -2.550000000000000266, 2.000000000000000000, 2.499999999999999556 ) ) ;
#757 = SURFACE_STYLE_FILL_AREA ( #1144 ) ;
#758 = CARTESIAN_POINT ( 'NONE',  ( 500000.0000000000582, 0.1425000000000000433, -2.452500000043368544 ) ) ;
#759 = ORIENTED_EDGE ( 'NONE', *, *, #1173, .F. ) ;
#760 = DIRECTION ( 'NONE',  ( -1.734723475976807341E-16, 0.000000000000000000, 1.000000000000000000 ) ) ;
#761 = CARTESIAN_POINT ( 'NONE',  ( -2.550000000000001155, 0.000000000000000000, -2.499999999999999112 ) ) ;
#762 = AXIS2_PLACEMENT_3D ( 'NONE', #1164, #279, #1086 ) ;
#763 = FACE_OUTER_BOUND ( 'NONE', #31, .T. ) ;
#764 = VERTEX_POINT ( 'NONE', #681 ) ;
#765 = PLANE ( 'NONE',  #580 ) ;
#766 = DIRECTION ( 'NONE',  ( 1.000000000000000000, 0.000000000000000000, 0.000000000000000000 ) ) ;
#767 = ADVANCED_FACE ( 'NONE', ( #890 ), #869, .T. ) ;
#768 = DIRECTION ( 'NONE',  ( -1.000000000000000000, 0.000000000000000000, 1.734723475976807341E-16 ) ) ;
#769 = ORIENTED_EDGE ( 'NONE', *, *, #797, .T. ) ;
#770 = LINE ( 'NONE', #1071, #1140 ) ;
#771 = CARTESIAN_POINT ( 'NONE',  ( -2.850000000000000977, 2.000000000000000000, -2.357499999999999485 ) ) ;
#772 = EDGE_CURVE ( 'NONE', #1118, #838, #476, .T. ) ;
#773 = DIRECTION ( 'NONE',  ( 0.000000000000000000, 0.000000000000000000, -1.000000000000000000 ) ) ;
#774 = EDGE_LOOP ( 'NONE', ( #1064, #1104, #514, #1090 ) ) ;
#775 = DIRECTION ( 'NONE',  ( 1.734723475976807341E-16, -0.000000000000000000, -1.000000000000000000 ) ) ;
#776 = DIRECTION ( 'NONE',  ( 1.000000000000000000, 0.000000000000000000, 0.000000000000000000 ) ) ;
#777 = FACE_OUTER_BOUND ( 'NONE', #320, .T. ) ;
#778 = ORIENTED_EDGE ( 'NONE', *, *, #1173, .T. ) ;
#779 = CYLINDRICAL_SURFACE ( 'NONE', #742, 0.1424999999999998213 ) ;
#780 = CARTESIAN_POINT ( 'NONE',  ( -2.850000000000000977, 0.1425000000000000433, -2.499999999999999112 ) ) ;
#781 = CARTESIAN_POINT ( 'NONE',  ( -2.550000000000000711, 1.952500000000000124, 2.357499999999997264 ) ) ;
#782 = ORIENTED_EDGE ( 'NONE', *, *, #720, .F. ) ;
#783 = LINE ( 'NONE', #1154, #713 ) ;
#784 = ORIENTED_EDGE ( 'NONE', *, *, #576, .T. ) ;
#785 = DIRECTION ( 'NONE',  ( 0.000000000000000000, -1.000000000000000000, 0.000000000000000000 ) ) ;
#786 = CIRCLE ( 'NONE', #298, 0.1424999999999998213 ) ;
#787 = VECTOR ( 'NONE', #497, 1000.000000000000000 ) ;
#788 = CIRCLE ( 'NONE', #54, 0.09500000000000002887 ) ;
#789 = AXIS2_PLACEMENT_3D ( 'NONE', #1021, #1008, #125 ) ;
#790 = AXIS2_PLACEMENT_3D ( 'NONE', #1236, #270, #336 ) ;
#791 = FACE_OUTER_BOUND ( 'NONE', #717, .T. ) ;
#792 = ORIENTED_EDGE ( 'NONE', *, *, #560, .F. ) ;
#793 = EDGE_CURVE ( 'NONE', #198, #944, #502, .T. ) ;
#794 = ORIENTED_EDGE ( 'NONE', *, *, #346, .T. ) ;
#795 = FILL_AREA_STYLE ('',( #911 ) ) ;
#796 = CIRCLE ( 'NONE', #243, 0.1424999999999998213 ) ;
#797 = EDGE_CURVE ( 'NONE', #118, #764, #280, .T. ) ;
#798 = ADVANCED_FACE ( 'NONE', ( #1101 ), #90, .T. ) ;
#799 = DIRECTION ( 'NONE',  ( -1.000000000000000000, 0.000000000000000000, 1.734723475976807587E-16 ) ) ;
#800 = COLOUR_RGB ( '',0.7921568627450980005, 0.8196078431372548767, 0.9333333333333333481 ) ;
#801 = ORIENTED_EDGE ( 'NONE', *, *, #641, .F. ) ;
#802 = ORIENTED_EDGE ( 'NONE', *, *, #142, .F. ) ;
#803 = CARTESIAN_POINT ( 'NONE',  ( -2.707500000000000462, 2.000000000000000000, 2.357499999999999929 ) ) ;
#804 = VERTEX_POINT ( 'NONE', #877 ) ;
#805 = DIRECTION ( 'NONE',  ( 0.000000000000000000, 0.000000000000000000, 1.000000000000000000 ) ) ;
#806 = ORIENTED_EDGE ( 'NONE', *, *, #1163, .T. ) ;
#807 = CARTESIAN_POINT ( 'NONE',  ( -2.707500000000001350, 1.857499999999999929, -2.357499999999999485 ) ) ;
#808 = AXIS2_PLACEMENT_3D ( 'NONE', #622, #1034, #1026 ) ;
#809 = AXIS2_PLACEMENT_3D ( 'NONE', #918, #903, #1224 ) ;
#810 = LINE ( 'NONE', #144, #923 ) ;
#811 = EDGE_LOOP ( 'NONE', ( #1100, #457, #1192, #189 ) ) ;
#812 = CARTESIAN_POINT ( 'NONE',  ( -2.707500000000000906, 0.000000000000000000, 4.696763811207207180E-16 ) ) ;
#813 = CARTESIAN_POINT ( 'NONE',  ( 2.550000000000001155, 0.1425000000000000433, -2.357499999999999485 ) ) ;
#814 = PLANE ( 'NONE',  #552 ) ;
#815 = ORIENTED_EDGE ( 'NONE', *, *, #933, .F. ) ;
#816 = VECTOR ( 'NONE', #874, 1000.000000000000000 ) ;
#817 = DIRECTION ( 'NONE',  ( 0.000000000000000000, -1.000000000000000000, -0.000000000000000000 ) ) ;
#818 = PLANE ( 'NONE',  #272 ) ;
#819 = LINE ( 'NONE', #300, #871 ) ;
#820 = FACE_OUTER_BOUND ( 'NONE', #714, .T. ) ;
#821 = VERTEX_POINT ( 'NONE', #1087 ) ;
#822 = FACE_OUTER_BOUND ( 'NONE', #811, .T. ) ;
#823 = ADVANCED_FACE ( 'NONE', ( #297 ), #490, .F. ) ;
#824 = VERTEX_POINT ( 'NONE', #205 ) ;
#825 = CARTESIAN_POINT ( 'NONE',  ( -2.850000000000000089, 1.857499999999999929, 2.357499999999999929 ) ) ;
#826 = DIRECTION ( 'NONE',  ( 0.000000000000000000, 0.000000000000000000, 1.000000000000000000 ) ) ;
#827 = EDGE_CURVE ( 'NONE', #700, #34, #393, .T. ) ;
#828 = CARTESIAN_POINT ( 'NONE',  ( 2.707500000000000462, 1.857499999999999929, 2.357499999999999929 ) ) ;
#829 = CIRCLE ( 'NONE', #30, 0.1424999999999998213 ) ;
#830 = AXIS2_PLACEMENT_3D ( 'NONE', #227, #619, #1198 ) ;
#831 = ORIENTED_EDGE ( 'NONE', *, *, #304, .F. ) ;
#832 = DIRECTION ( 'NONE',  ( 0.000000000000000000, -1.000000000000000000, -0.000000000000000000 ) ) ;
#833 = AXIS2_PLACEMENT_3D ( 'NONE', #1151, #262, #150 ) ;
#834 = VERTEX_POINT ( 'NONE', #309 ) ;
#835 = EDGE_CURVE ( 'NONE', #40, #423, #1049, .T. ) ;
#836 = CARTESIAN_POINT ( 'NONE',  ( -2.707500000000001350, 0.1425000000000000433, -2.357499999999999485 ) ) ;
#837 = DIRECTION ( 'NONE',  ( -1.000000000000000000, 0.000000000000000000, 0.000000000000000000 ) ) ;
#838 = VERTEX_POINT ( 'NONE', #511 ) ;
#839 = DIRECTION ( 'NONE',  ( 0.000000000000000000, 0.000000000000000000, -1.000000000000000000 ) ) ;
#840 = ORIENTED_EDGE ( 'NONE', *, *, #698, .F. ) ;
#841 = CARTESIAN_POINT ( 'NONE',  ( 2.850000000000000977, 2.000000000000000000, -2.499999999999999112 ) ) ;
#842 = VECTOR ( 'NONE', #584, 1000.000000000000000 ) ;
#843 = CARTESIAN_POINT ( 'NONE',  ( -2.707500000000001350, 2.000000000000000000, -2.499999999999999112 ) ) ;
#844 = DIRECTION ( 'NONE',  ( 0.000000000000000000, 0.000000000000000000, 1.000000000000000000 ) ) ;
#845 = DIRECTION ( 'NONE',  ( 0.000000000000000000, -1.000000000000000000, 0.000000000000000000 ) ) ;
#846 = EDGE_LOOP ( 'NONE', ( #550, #449, #546, #910 ) ) ;
#847 = CARTESIAN_POINT ( 'NONE',  ( 500000.0000000000582, 1.857499999999999485, -2.452500000043368544 ) ) ;
#848 = LINE ( 'NONE', #756, #420 ) ;
#849 = CARTESIAN_POINT ( 'NONE',  ( 2.850000000000000089, 0.1425000000000000433, 2.357499999999999929 ) ) ;
#850 = UNCERTAINTY_MEASURE_WITH_UNIT (LENGTH_MEASURE( 1.000000000000000082E-05 ), #64, 'distance_accuracy_value', 'NONE');
#851 = DIRECTION ( 'NONE',  ( 0.000000000000000000, 0.000000000000000000, -1.000000000000000000 ) ) ;
#852 = CIRCLE ( 'NONE', #1089, 0.1424999999999998213 ) ;
#853 = VECTOR ( 'NONE', #817, 1000.000000000000000 ) ;
#854 = EDGE_CURVE ( 'NONE', #838, #764, #26, .T. ) ;
#855 = ORIENTED_EDGE ( 'NONE', *, *, #269, .T. ) ;
#856 = VECTOR ( 'NONE', #733, 1000.000000000000000 ) ;
#857 = CARTESIAN_POINT ( 'NONE',  ( 2.550000000000000266, 1.857499999999999929, 2.499999999999999556 ) ) ;
#858 = DIRECTION ( 'NONE',  ( 0.000000000000000000, 1.000000000000000000, 0.000000000000000000 ) ) ;
#859 = DIRECTION ( 'NONE',  ( -1.000000000000000000, 0.000000000000000000, -0.000000000000000000 ) ) ;
#860 = ORIENTED_EDGE ( 'NONE', *, *, #492, .T. ) ;
#861 = EDGE_CURVE ( 'NONE', #290, #12, #731, .T. ) ;
#862 = FACE_OUTER_BOUND ( 'NONE', #311, .T. ) ;
#863 = DIRECTION ( 'NONE',  ( -0.000000000000000000, -1.000000000000000000, -0.000000000000000000 ) ) ;
#864 = VECTOR ( 'NONE', #1136, 1000.000000000000000 ) ;
#865 = CARTESIAN_POINT ( 'NONE',  ( -2.550000000000000711, 0.1425000000000000433, -2.357499999999999929 ) ) ;
#866 = EDGE_LOOP ( 'NONE', ( #255, #806, #1031 ) ) ;
#867 = ADVANCED_FACE ( 'NONE', ( #1004 ), #333, .F. ) ;
#868 = CARTESIAN_POINT ( 'NONE',  ( -2.550000000000000711, 0.04750000000000001443, 2.357499999999999485 ) ) ;
#869 = CYLINDRICAL_SURFACE ( 'NONE', #752, 0.1424999999999998213 ) ;
#870 = DIRECTION ( 'NONE',  ( 0.000000000000000000, 0.000000000000000000, -1.000000000000000000 ) ) ;
#871 = VECTOR ( 'NONE', #1190, 1000.000000000000000 ) ;
#872 = ORIENTED_EDGE ( 'NONE', *, *, #1092, .F. ) ;
#873 = CIRCLE ( 'NONE', #130, 0.09500000000000002887 ) ;
#874 = DIRECTION ( 'NONE',  ( -1.000000000000000000, -0.000000000000000000, 8.673617379884036705E-17 ) ) ;
#875 = AXIS2_PLACEMENT_3D ( 'NONE', #865, #1275, #77 ) ;
#876 =( GEOMETRIC_REPRESENTATION_CONTEXT ( 3 ) GLOBAL_UNCERTAINTY_ASSIGNED_CONTEXT ( ( #224 ) ) GLOBAL_UNIT_ASSIGNED_CONTEXT ( ( #1230, #341, #105 ) ) REPRESENTATION_CONTEXT ( 'NONE', 'WORKASPACE' ) );
#877 = CARTESIAN_POINT ( 'NONE',  ( 2.707500000000001350, 0.000000000000000000, -2.357499999999999485 ) ) ;
#878 = EDGE_CURVE ( 'NONE', #295, #746, #908, .T. ) ;
#879 = DIRECTION ( 'NONE',  ( 0.000000000000000000, 0.000000000000000000, -1.000000000000000000 ) ) ;
#880 = VERTEX_POINT ( 'NONE', #1012 ) ;
#881 = DIRECTION ( 'NONE',  ( -1.000000000000000000, 0.000000000000000000, 0.000000000000000000 ) ) ;
#882 = DIRECTION ( 'NONE',  ( 0.000000000000000000, 0.000000000000000000, 1.000000000000000000 ) ) ;
#883 = UNCERTAINTY_MEASURE_WITH_UNIT (LENGTH_MEASURE( 1.000000000000000082E-05 ), #554, 'distance_accuracy_value', 'NONE');
#884 = EDGE_CURVE ( 'NONE', #202, #266, #115, .T. ) ;
#885 = STYLED_ITEM ( 'NONE', ( #244 ), #143 ) ;
#886 = DIRECTION ( 'NONE',  ( 1.000000000000000000, -0.000000000000000000, -1.734723475976807341E-16 ) ) ;
#887 = EDGE_LOOP ( 'NONE', ( #151, #602, #782 ) ) ;
#888 = LINE ( 'NONE', #117, #444 ) ;
#889 = EDGE_LOOP ( 'NONE', ( #653, #562, #1115, #988 ) ) ;
#890 = FACE_OUTER_BOUND ( 'NONE', #493, .T. ) ;
#891 = DIRECTION ( 'NONE',  ( -1.734723475976807341E-16, 0.000000000000000000, 1.000000000000000000 ) ) ;
#892 = ORIENTED_EDGE ( 'NONE', *, *, #75, .F. ) ;
#893 = LINE ( 'NONE', #318, #1237 ) ;
#894 = EDGE_CURVE ( 'NONE', #350, #242, #873, .T. ) ;
#895 = CARTESIAN_POINT ( 'NONE',  ( -2.850000000000000977, 0.1425000000000000433, -2.499999999999999112 ) ) ;
#896 = AXIS2_PLACEMENT_3D ( 'NONE', #530, #1103, #601 ) ;
#897 = MECHANICAL_DESIGN_GEOMETRIC_PRESENTATION_REPRESENTATION (  '', ( #674 ), #342 ) ;
#898 = AXIS2_PLACEMENT_3D ( 'NONE', #744, #922, #930 ) ;
#899 = CARTESIAN_POINT ( 'NONE',  ( 2.550000000000001155, 2.000000000000000000, -2.499999999999999112 ) ) ;
#900 = ORIENTED_EDGE ( 'NONE', *, *, #884, .T. ) ;
#901 = CARTESIAN_POINT ( 'NONE',  ( 2.707500000000001350, 0.1425000000000000433, -2.499999999999999112 ) ) ;
#902 = ORIENTED_EDGE ( 'NONE', *, *, #1193, .T. ) ;
#903 = DIRECTION ( 'NONE',  ( 1.000000000000000000, 0.000000000000000000, 1.734723475976807341E-16 ) ) ;
#904 = CIRCLE ( 'NONE', #101, 0.1424999999999998213 ) ;
#905 = ORIENTED_EDGE ( 'NONE', *, *, #935, .F. ) ;
#906 = CARTESIAN_POINT ( 'NONE',  ( -2.550000000000001155, 0.000000000000000000, -2.357499999999999485 ) ) ;
#907 = VERTEX_POINT ( 'NONE', #803 ) ;
#908 = LINE ( 'NONE', #812, #15 ) ;
#909 = EDGE_LOOP ( 'NONE', ( #507, #22, #1003, #2 ) ) ;
#910 = ORIENTED_EDGE ( 'NONE', *, *, #878, .F. ) ;
#911 = FILL_AREA_STYLE_COLOUR ( '', #301 ) ;
#912 = VECTOR ( 'NONE', #1189, 1000.000000000000000 ) ;
#913 = AXIS2_PLACEMENT_3D ( 'NONE', #23, #1219, #1212 ) ;
#914 = ADVANCED_FACE ( 'NONE', ( #424 ), #520, .T. ) ;
#915 = ORIENTED_EDGE ( 'NONE', *, *, #986, .F. ) ;
#916 = DIRECTION ( 'NONE',  ( 0.000000000000000000, 0.000000000000000000, 1.000000000000000000 ) ) ;
#917 = ORIENTED_EDGE ( 'NONE', *, *, #1085, .F. ) ;
#918 = CARTESIAN_POINT ( 'NONE',  ( 2.549999999985175236, 1.857499999999999929, -2.357500000000000817 ) ) ;
#919 = FACE_OUTER_BOUND ( 'NONE', #709, .T. ) ;
#920 = UNCERTAINTY_MEASURE_WITH_UNIT (LENGTH_MEASURE( 1.000000000000000082E-05 ), #508, 'distance_accuracy_value', 'NONE');
#921 = CARTESIAN_POINT ( 'NONE',  ( 2.550000000000001155, 0.1425000000000000433, -2.499999999999999112 ) ) ;
#922 = DIRECTION ( 'NONE',  ( 1.000000000000000000, 0.000000000000000000, 1.734723475976807341E-16 ) ) ;
#923 = VECTOR ( 'NONE', #1020, 1000.000000000000000 ) ;
#924 = EDGE_CURVE ( 'NONE', #824, #834, #608, .T. ) ;
#925 = EDGE_LOOP ( 'NONE', ( #634, #605, #94, #168 ) ) ;
#926 = CARTESIAN_POINT ( 'NONE',  ( -2.550000000000000266, 2.000000000000000000, 2.357499999999999929 ) ) ;
#927 = ORIENTED_EDGE ( 'NONE', *, *, #654, .T. ) ;
#928 = DIRECTION ( 'NONE',  ( 1.000000000000000000, -0.000000000000000000, -0.000000000000000000 ) ) ;
#929 = DIRECTION ( 'NONE',  ( 0.000000000000000000, 1.000000000000000000, 0.000000000000000000 ) ) ;
#930 = DIRECTION ( 'NONE',  ( 0.000000000000000000, 0.000000000000000000, 1.000000000000000000 ) ) ;
#931 = FACE_OUTER_BOUND ( 'NONE', #925, .T. ) ;
#932 = DIRECTION ( 'NONE',  ( -1.734723475976807341E-16, 0.000000000000000000, -1.000000000000000000 ) ) ;
#933 = EDGE_CURVE ( 'NONE', #557, #202, #158, .T. ) ;
#934 = ORIENTED_EDGE ( 'NONE', *, *, #661, .T. ) ;
#935 = EDGE_CURVE ( 'NONE', #423, #907, #616, .T. ) ;
#936 = ADVANCED_FACE ( 'NONE', ( #1122 ), #1206, .F. ) ;
#937 = FILL_AREA_STYLE ('',( #1142 ) ) ;
#938 = CARTESIAN_POINT ( 'NONE',  ( 2.707500000000001350, 0.1425000000000000433, -2.499999999999999112 ) ) ;
#939 = APPLICATION_CONTEXT ( 'automotive_design' ) ;
#940 = VECTOR ( 'NONE', #327, 1000.000000000000000 ) ;
#941 = VERTEX_POINT ( 'NONE', #1116 ) ;
#942 = CARTESIAN_POINT ( 'NONE',  ( -2.850000000000000977, 2.000000000000000000, -2.357499999999999485 ) ) ;
#943 = CIRCLE ( 'NONE', #790, 0.1424999999999998213 ) ;
#944 = VERTEX_POINT ( 'NONE', #628 ) ;
#945 = CARTESIAN_POINT ( 'NONE',  ( 2.707500000000000462, 1.857499999999999929, 2.499999999999999556 ) ) ;
#946 = FACE_OUTER_BOUND ( 'NONE', #348, .T. ) ;
#947 = DIRECTION ( 'NONE',  ( 0.000000000000000000, 1.000000000000000000, 0.000000000000000000 ) ) ;
#948 = DIRECTION ( 'NONE',  ( 1.000000000000000000, 0.000000000000000000, -1.734723475976807341E-16 ) ) ;
#949 = ORIENTED_EDGE ( 'NONE', *, *, #861, .F. ) ;
#950 = FACE_OUTER_BOUND ( 'NONE', #1039, .T. ) ;
#951 = AXIS2_PLACEMENT_3D ( 'NONE', #741, #131, #44 ) ;
#952 = LINE ( 'NONE', #761, #339 ) ;
#953 = CARTESIAN_POINT ( 'NONE',  ( 0.000000000000000000, 1.857499999999999929, 2.357499999999999929 ) ) ;
#954 = ORIENTED_EDGE ( 'NONE', *, *, #600, .T. ) ;
#955 = CARTESIAN_POINT ( 'NONE',  ( 2.550000000000000266, 0.1425000000000000433, 2.499999999999999556 ) ) ;
#956 = PLANE ( 'NONE',  #176 ) ;
#957 = EDGE_CURVE ( 'NONE', #1203, #724, #119, .T. ) ;
#958 = DIRECTION ( 'NONE',  ( 0.000000000000000000, 0.000000000000000000, -1.000000000000000000 ) ) ;
#959 = VECTOR ( 'NONE', #287, 1000.000000000000000 ) ;
#960 = MECHANICAL_DESIGN_GEOMETRIC_PRESENTATION_REPRESENTATION (  '', ( #1091 ), #876 ) ;
#961 = ORIENTED_EDGE ( 'NONE', *, *, #1076, .F. ) ;
#962 = AXIS2_PLACEMENT_3D ( 'NONE', #849, #46, #658 ) ;
#963 = SPHERICAL_SURFACE ( 'NONE', #762, 0.1425000000000000155 ) ;
#964 = DIRECTION ( 'NONE',  ( 0.000000000000000000, 0.000000000000000000, -1.000000000000000000 ) ) ;
#965 = CARTESIAN_POINT ( 'NONE',  ( 2.850000000000000977, 1.857499999999999929, -2.357499999999999485 ) ) ;
#966 = ADVANCED_FACE ( 'NONE', ( #1111 ), #1032, .T. ) ;
#967 = EDGE_LOOP ( 'NONE', ( #404, #285, #784, #440 ) ) ;
#968 = MANIFOLD_SOLID_BREP ( 'Boss-Extrude2', #633 ) ;
#969 = LINE ( 'NONE', #368, #1081 ) ;
#970 = DIRECTION ( 'NONE',  ( 0.000000000000000000, -1.000000000000000000, 0.000000000000000000 ) ) ;
#971 = DIRECTION ( 'NONE',  ( 1.000000000000000000, 0.000000000000000000, 0.000000000000000000 ) ) ;
#972 = CIRCLE ( 'NONE', #875, 0.09500000000000002887 ) ;
#973 = AXIS2_PLACEMENT_3D ( 'NONE', #953, #68, #699 ) ;
#974 = CARTESIAN_POINT ( 'NONE',  ( 0.000000000000000000, 1.857499999999999929, -2.357499999999999485 ) ) ;
#975 = EDGE_CURVE ( 'NONE', #240, #429, #715, .T. ) ;
#976 = ORIENTED_EDGE ( 'NONE', *, *, #276, .F. ) ;
#977 = EDGE_CURVE ( 'NONE', #147, #1199, #590, .T. ) ;
#978 = CARTESIAN_POINT ( 'NONE',  ( -2.850000000000000977, 0.1425000000000000433, -2.357499999999999485 ) ) ;
#979 = CARTESIAN_POINT ( 'NONE',  ( -2.707500000000001350, 0.1425000000000000155, -2.357499999999999485 ) ) ;
#980 = CARTESIAN_POINT ( 'NONE',  ( 2.707500000000000462, 0.000000000000000000, 2.357499999999999929 ) ) ;
#981 = CIRCLE ( 'NONE', #233, 0.1424999999999998213 ) ;
#982 = ORIENTED_EDGE ( 'NONE', *, *, #406, .T. ) ;
#983 = AXIS2_PLACEMENT_3D ( 'NONE', #209, #696, #805 ) ;
#984 = CARTESIAN_POINT ( 'NONE',  ( 2.549999999985175236, 1.952499999999999902, -2.357500000130103857 ) ) ;
#985 = CARTESIAN_POINT ( 'NONE',  ( 2.707500000000001350, 2.000000000000000000, -2.357499999999999485 ) ) ;
#986 = EDGE_CURVE ( 'NONE', #1133, #824, #396, .T. ) ;
#987 = DIRECTION ( 'NONE',  ( 0.000000000000000000, 0.000000000000000000, 1.000000000000000000 ) ) ;
#988 = ORIENTED_EDGE ( 'NONE', *, *, #27, .T. ) ;
#989 = VERTEX_POINT ( 'NONE', #901 ) ;
#990 = DIRECTION ( 'NONE',  ( 0.000000000000000000, -1.000000000000000000, 0.000000000000000000 ) ) ;
#991 = EDGE_CURVE ( 'NONE', #423, #1208, #260, .T. ) ;
#992 = DIRECTION ( 'NONE',  ( 0.000000000000000000, 0.000000000000000000, 1.000000000000000000 ) ) ;
#993 = AXIS2_PLACEMENT_3D ( 'NONE', #974, #478, #870 ) ;
#994 = ORIENTED_EDGE ( 'NONE', *, *, #1266, .T. ) ;
#995 =( NAMED_UNIT ( * ) SI_UNIT ( $, .STERADIAN. ) SOLID_ANGLE_UNIT ( ) );
#996 = AXIS2_PLACEMENT_3D ( 'NONE', #1051, #947, #555 ) ;
#997 = VERTEX_POINT ( 'NONE', #29 ) ;
#998 = LINE ( 'NONE', #192, #959 ) ;
#999 = CARTESIAN_POINT ( 'NONE',  ( 0.000000000000000000, 0.000000000000000000, 2.357499999999999929 ) ) ;
#1000 = ADVANCED_FACE ( 'NONE', ( #411 ), #603, .F. ) ;
#1001 = ORIENTED_EDGE ( 'NONE', *, *, #753, .F. ) ;
#1002 = PRESENTATION_STYLE_ASSIGNMENT (( #220 ) ) ;
#1003 = ORIENTED_EDGE ( 'NONE', *, *, #977, .F. ) ;
#1004 = FACE_OUTER_BOUND ( 'NONE', #43, .T. ) ;
#1005 = AXIS2_PLACEMENT_3D ( 'NONE', #1143, #1042, #964 ) ;
#1006 = CIRCLE ( 'NONE', #1276, 0.09500000000000002887 ) ;
#1007 = ORIENTED_EDGE ( 'NONE', *, *, #924, .T. ) ;
#1008 = DIRECTION ( 'NONE',  ( 1.000000000000000000, -0.000000000000000000, -1.734723475976807341E-16 ) ) ;
#1009 = EDGE_CURVE ( 'NONE', #834, #242, #893, .T. ) ;
#1010 = MANIFOLD_SOLID_BREP ( 'Fillet1', #1057 ) ;
#1011 = ORIENTED_EDGE ( 'NONE', *, *, #347, .F. ) ;
#1012 = CARTESIAN_POINT ( 'NONE',  ( -2.550000000000000266, 1.857499999999999929, 2.499999999999999556 ) ) ;
#1013 = EDGE_CURVE ( 'NONE', #688, #474, #1119, .T. ) ;
#1014 = AXIS2_PLACEMENT_3D ( 'NONE', #841, #148, #1149 ) ;
#1015 = EDGE_LOOP ( 'NONE', ( #892, #356, #1277 ) ) ;
#1016 = CARTESIAN_POINT ( 'NONE',  ( 2.549999999985175236, 0.1425000000000000433, -2.452500000000000568 ) ) ;
#1017 = ORIENTED_EDGE ( 'NONE', *, *, #484, .F. ) ;
#1018 = CARTESIAN_POINT ( 'NONE',  ( -2.550000000000000711, 1.857499999999999929, -2.357499999999999929 ) ) ;
#1019 = PRODUCT ( 'GC355DD7LP474KX18K', 'GC355DD7LP474KX18K', '', ( #1080 ) ) ;
#1020 = DIRECTION ( 'NONE',  ( -0.000000000000000000, 1.000000000000000000, -0.000000000000000000 ) ) ;
#1021 = CARTESIAN_POINT ( 'NONE',  ( -2.550000000000000266, 1.857499999999999929, 2.357499999999999929 ) ) ;
#1022 = ORIENTED_EDGE ( 'NONE', *, *, #614, .F. ) ;
#1023 = DIRECTION ( 'NONE',  ( -1.000000000000000000, -0.000000000000000000, 8.673617379884036705E-17 ) ) ;
#1024 = LINE ( 'NONE', #1225, #864 ) ;
#1025 = AXIS2_PLACEMENT_3D ( 'NONE', #39, #1123, #206 ) ;
#1026 = DIRECTION ( 'NONE',  ( -1.000000000000000000, 0.000000000000000000, 0.000000000000000000 ) ) ;
#1027 = FACE_OUTER_BOUND ( 'NONE', #1098, .T. ) ;
#1028 = AXIS2_PLACEMENT_3D ( 'NONE', #229, #1108, #610 ) ;
#1029 = DIRECTION ( 'NONE',  ( 0.000000000000000000, 0.000000000000000000, 1.000000000000000000 ) ) ;
#1030 = LINE ( 'NONE', #145, #486 ) ;
#1031 = ORIENTED_EDGE ( 'NONE', *, *, #397, .F. ) ;
#1032 = CYLINDRICAL_SURFACE ( 'NONE', #1213, 0.09500000000000002887 ) ;
#1033 = CARTESIAN_POINT ( 'NONE',  ( 2.850000000000000089, 1.857499999999999929, 2.499999999999999556 ) ) ;
#1034 = DIRECTION ( 'NONE',  ( 0.000000000000000000, -1.000000000000000000, 0.000000000000000000 ) ) ;
#1035 = EDGE_CURVE ( 'NONE', #683, #98, #363, .T. ) ;
#1036 = ORIENTED_EDGE ( 'NONE', *, *, #521, .T. ) ;
#1037 = CARTESIAN_POINT ( 'NONE',  ( 2.707500000000001350, 0.1425000000000000433, -2.357499999999999485 ) ) ;
#1038 = EDGE_CURVE ( 'NONE', #240, #1118, #1006, .T. ) ;
#1039 = EDGE_LOOP ( 'NONE', ( #390, #517, #840, #636 ) ) ;
#1040 = AXIS2_PLACEMENT_3D ( 'NONE', #186, #666, #386 ) ;
#1041 = DIRECTION ( 'NONE',  ( -0.000000000000000000, -0.000000000000000000, 1.000000000000000000 ) ) ;
#1042 = DIRECTION ( 'NONE',  ( 1.000000000000000000, 0.000000000000000000, 1.734723475976807341E-16 ) ) ;
#1043 = ORIENTED_EDGE ( 'NONE', *, *, #753, .T. ) ;
#1044 = CARTESIAN_POINT ( 'NONE',  ( 2.707500000000000462, 2.000000000000000000, 2.357499999999999929 ) ) ;
#1045 = EDGE_CURVE ( 'NONE', #377, #880, #33, .T. ) ;
#1046 = ORIENTED_EDGE ( 'NONE', *, *, #924, .F. ) ;
#1047 = SURFACE_SIDE_STYLE ('',( #646 ) ) ;
#1048 = CYLINDRICAL_SURFACE ( 'NONE', #316, 0.1424999999999998213 ) ;
#1049 = CIRCLE ( 'NONE', #381, 0.1424999999999998213 ) ;
#1050 = VECTOR ( 'NONE', #1023, 1000.000000000000000 ) ;
#1051 = CARTESIAN_POINT ( 'NONE',  ( 0.000000000000000000, 2.000000000000000000, 0.000000000000000000 ) ) ;
#1052 = CYLINDRICAL_SURFACE ( 'NONE', #1214, 0.09500000000000002887 ) ;
#1053 = EDGE_LOOP ( 'NONE', ( #210, #332, #592, #317 ) ) ;
#1054 = DIRECTION ( 'NONE',  ( 0.000000000000000000, 0.000000000000000000, 1.000000000000000000 ) ) ;
#1055 = LINE ( 'NONE', #843, #1191 ) ;
#1056 = PLANE ( 'NONE',  #833 ) ;
#1057 = CLOSED_SHELL ( 'NONE', ( #1109, #1000, #315, #1172, #595, #867, #282, #112, #414, #477, #185, #604, #445, #689, #193, #354, #706, #1222 ) ) ;
#1058 = DIRECTION ( 'NONE',  ( -1.000000000000000000, 0.000000000000000000, 0.000000000000000000 ) ) ;
#1059 = EDGE_LOOP ( 'NONE', ( #598, #1077, #1105, #434 ) ) ;
#1060 = DIRECTION ( 'NONE',  ( 1.734723475976807341E-16, -0.000000000000000000, -1.000000000000000000 ) ) ;
#1061 = FACE_OUTER_BOUND ( 'NONE', #273, .T. ) ;
#1062 = SHAPE_DEFINITION_REPRESENTATION ( #322, #1082 ) ;
#1063 = LINE ( 'NONE', #678, #247 ) ;
#1064 = ORIENTED_EDGE ( 'NONE', *, *, #207, .F. ) ;
#1065 = DIRECTION ( 'NONE',  ( -0.000000000000000000, -1.000000000000000000, -0.000000000000000000 ) ) ;
#1066 = EDGE_CURVE ( 'NONE', #880, #1199, #888, .T. ) ;
#1067 = CARTESIAN_POINT ( 'NONE',  ( 0.000000000000000000, 0.000000000000000000, -2.357499999999999485 ) ) ;
#1068 = AXIS2_PLACEMENT_3D ( 'NONE', #588, #187, #4 ) ;
#1069 = VECTOR ( 'NONE', #710, 1000.000000000000000 ) ;
#1070 = VERTEX_POINT ( 'NONE', #906 ) ;
#1071 = CARTESIAN_POINT ( 'NONE',  ( 2.850000000000000977, 1.857499999999999929, -2.499999999999999112 ) ) ;
#1072 = CARTESIAN_POINT ( 'NONE',  ( -2.707500000000001350, 0.000000000000000000, -2.357499999999999485 ) ) ;
#1073 = CARTESIAN_POINT ( 'NONE',  ( 0.000000000000000000, 0.000000000000000000, 0.000000000000000000 ) ) ;
#1074 = EDGE_CURVE ( 'NONE', #377, #1169, #8, .T. ) ;
#1075 = DIRECTION ( 'NONE',  ( 1.000000000000000000, 0.000000000000000000, -8.673617379884037937E-17 ) ) ;
#1076 = EDGE_CURVE ( 'NONE', #609, #278, #783, .T. ) ;
#1077 = ORIENTED_EDGE ( 'NONE', *, *, #641, .T. ) ;
#1078 = SPHERICAL_SURFACE ( 'NONE', #1165, 0.1425000000000000155 ) ;
#1079 = CARTESIAN_POINT ( 'NONE',  ( 2.707500000000000906, 1.857499999999999929, 4.696763811207207180E-16 ) ) ;
#1080 = PRODUCT_CONTEXT ( 'NONE', #1160, 'mechanical' ) ;
#1081 = VECTOR ( 'NONE', #1060, 1000.000000000000000 ) ;
#1082 = ADVANCED_BREP_SHAPE_REPRESENTATION ( 'GC355DD7LP474KX18K', ( #1010, #143, #968, #1177 ), #383 ) ;
#1083 = FACE_OUTER_BOUND ( 'NONE', #395, .T. ) ;
#1084 = ORIENTED_EDGE ( 'NONE', *, *, #894, .F. ) ;
#1085 = EDGE_CURVE ( 'NONE', #242, #429, #349, .T. ) ;
#1086 = DIRECTION ( 'NONE',  ( -1.000000000000000000, 0.000000000000000000, 0.000000000000000000 ) ) ;
#1087 = CARTESIAN_POINT ( 'NONE',  ( 2.707500000000001350, 1.857499999999999929, -2.499999999999999112 ) ) ;
#1088 = CARTESIAN_POINT ( 'NONE',  ( 2.850000000000000977, 0.1425000000000000433, -2.499999999999999112 ) ) ;
#1089 = AXIS2_PLACEMENT_3D ( 'NONE', #471, #544, #1137 ) ;
#1090 = ORIENTED_EDGE ( 'NONE', *, *, #726, .F. ) ;
#1091 = STYLED_ITEM ( 'NONE', ( #612 ), #968 ) ;
#1092 = EDGE_CURVE ( 'NONE', #429, #118, #523, .T. ) ;
#1093 = ORIENTED_EDGE ( 'NONE', *, *, #1207, .T. ) ;
#1094 = COLOUR_RGB ( '',0.7921568627450980005, 0.8196078431372548767, 0.9333333333333333481 ) ;
#1095 = LINE ( 'NONE', #387, #548 ) ;
#1096 = EDGE_CURVE ( 'NONE', #989, #804, #74, .T. ) ;
#1097 = LINE ( 'NONE', #1088, #380 ) ;
#1098 = EDGE_LOOP ( 'NONE', ( #24, #740, #415 ) ) ;
#1099 = DIRECTION ( 'NONE',  ( -1.000000000000000000, 0.000000000000000000, -0.000000000000000000 ) ) ;
#1100 = ORIENTED_EDGE ( 'NONE', *, *, #583, .T. ) ;
#1101 = FACE_OUTER_BOUND ( 'NONE', #516, .T. ) ;
#1102 = AXIS2_PLACEMENT_3D ( 'NONE', #1178, #563, #286 ) ;
#1103 = DIRECTION ( 'NONE',  ( 1.000000000000000000, -0.000000000000000000, -1.734723475976807341E-16 ) ) ;
#1104 = ORIENTED_EDGE ( 'NONE', *, *, #1076, .T. ) ;
#1105 = ORIENTED_EDGE ( 'NONE', *, *, #397, .T. ) ;
#1106 = DIRECTION ( 'NONE',  ( -1.000000000000000000, -0.000000000000000000, 8.673617379884036705E-17 ) ) ;
#1107 = ORIENTED_EDGE ( 'NONE', *, *, #388, .F. ) ;
#1108 = DIRECTION ( 'NONE',  ( 0.000000000000000000, 1.000000000000000000, -0.000000000000000000 ) ) ;
#1109 = ADVANCED_FACE ( 'NONE', ( #625 ), #650, .F. ) ;
#1110 = ORIENTED_EDGE ( 'NONE', *, *, #861, .T. ) ;
#1111 = FACE_OUTER_BOUND ( 'NONE', #1124, .T. ) ;
#1112 = AXIS2_PLACEMENT_3D ( 'NONE', #140, #394, #201 ) ;
#1113 = COLOUR_RGB ( '',0.7921568627450980005, 0.8196078431372548767, 0.9333333333333333481 ) ;
#1114 = ORIENTED_EDGE ( 'NONE', *, *, #1009, .T. ) ;
#1115 = ORIENTED_EDGE ( 'NONE', *, *, #793, .T. ) ;
#1116 = CARTESIAN_POINT ( 'NONE',  ( -2.707500000000000462, 0.1425000000000000433, 2.499999999999999556 ) ) ;
#1117 = VECTOR ( 'NONE', #343, 1000.000000000000000 ) ;
#1118 = VERTEX_POINT ( 'NONE', #540 ) ;
#1119 = LINE ( 'NONE', #13, #652 ) ;
#1120 = EDGE_CURVE ( 'NONE', #98, #557, #751, .T. ) ;
#1121 = ORIENTED_EDGE ( 'NONE', *, *, #248, .T. ) ;
#1122 = FACE_OUTER_BOUND ( 'NONE', #732, .T. ) ;
#1123 = DIRECTION ( 'NONE',  ( 0.000000000000000000, 1.000000000000000000, 0.000000000000000000 ) ) ;
#1124 = EDGE_LOOP ( 'NONE', ( #1046, #361, #1240, #722 ) ) ;
#1125 = CARTESIAN_POINT ( 'NONE',  ( 2.549999999985175236, 0.1425000000000000433, -2.452500000000000568 ) ) ;
#1126 = EDGE_LOOP ( 'NONE', ( #451, #231, #228, #366 ) ) ;
#1127 = DIRECTION ( 'NONE',  ( -1.734723475976807341E-16, 0.000000000000000000, -1.000000000000000000 ) ) ;
#1128 = DIRECTION ( 'NONE',  ( 0.000000000000000000, 0.000000000000000000, 1.000000000000000000 ) ) ;
#1129 = VECTOR ( 'NONE', #638, 1000.000000000000000 ) ;
#1130 = CARTESIAN_POINT ( 'NONE',  ( 2.850000000000000977, 2.000000000000000000, -2.357499999999999485 ) ) ;
#1131 =( LENGTH_UNIT ( ) NAMED_UNIT ( * ) SI_UNIT ( .MILLI., .METRE. ) );
#1132 = VECTOR ( 'NONE', #845, 1000.000000000000000 ) ;
#1133 = VERTEX_POINT ( 'NONE', #1125 ) ;
#1134 = CARTESIAN_POINT ( 'NONE',  ( 2.707500000000000462, 0.1425000000000000155, 2.357499999999999929 ) ) ;
#1135 = ORIENTED_EDGE ( 'NONE', *, *, #88, .F. ) ;
#1136 = DIRECTION ( 'NONE',  ( -1.000000000000000000, 0.000000000000000000, 0.000000000000000000 ) ) ;
#1137 = DIRECTION ( 'NONE',  ( -1.000000000000000000, 0.000000000000000000, 0.000000000000000000 ) ) ;
#1138 = ORIENTED_EDGE ( 'NONE', *, *, #575, .T. ) ;
#1139 = DIRECTION ( 'NONE',  ( -1.000000000000000000, 0.000000000000000000, 0.000000000000000000 ) ) ;
#1140 = VECTOR ( 'NONE', #775, 1000.000000000000000 ) ;
#1141 = VERTEX_POINT ( 'NONE', #62 ) ;
#1142 = FILL_AREA_STYLE_COLOUR ( '', #800 ) ;
#1143 = CARTESIAN_POINT ( 'NONE',  ( 2.549999999985175236, 0.1425000000000000433, -2.357500000000000817 ) ) ;
#1144 = FILL_AREA_STYLE ('',( #460 ) ) ;
#1145 = ORIENTED_EDGE ( 'NONE', *, *, #498, .T. ) ;
#1146 = DIRECTION ( 'NONE',  ( 0.000000000000000000, 0.000000000000000000, -1.000000000000000000 ) ) ;
#1147 = ADVANCED_FACE ( 'NONE', ( #1245 ), #1221, .T. ) ;
#1148 = ORIENTED_EDGE ( 'NONE', *, *, #14, .T. ) ;
#1149 = DIRECTION ( 'NONE',  ( 1.734723475976807341E-16, 0.000000000000000000, -1.000000000000000000 ) ) ;
#1150 = DIRECTION ( 'NONE',  ( -1.000000000000000000, -0.000000000000000000, -0.000000000000000000 ) ) ;
#1151 = CARTESIAN_POINT ( 'NONE',  ( 500000.0000000000582, 1.857499999999999929, 2.452499999956630816 ) ) ;
#1152 = VECTOR ( 'NONE', #1, 1000.000000000000000 ) ;
#1153 = AXIS2_PLACEMENT_3D ( 'NONE', #160, #948, #932 ) ;
#1154 = CARTESIAN_POINT ( 'NONE',  ( 500000.0000000000582, 0.04750000000000001443, 2.357499999956630621 ) ) ;
#1155 = EDGE_LOOP ( 'NONE', ( #204, #905, #124, #153 ) ) ;
#1156 = ADVANCED_FACE ( 'NONE', ( #136 ), #1052, .T. ) ;
#1157 = CARTESIAN_POINT ( 'NONE',  ( -2.550000000000001155, 2.000000000000000000, -2.499999999999999112 ) ) ;
#1158 = FACE_OUTER_BOUND ( 'NONE', #57, .T. ) ;
#1159 = SURFACE_SIDE_STYLE ('',( #757 ) ) ;
#1160 = APPLICATION_CONTEXT ( 'automotive_design' ) ;
#1161 = CARTESIAN_POINT ( 'NONE',  ( -2.550000000000000266, 2.000000000000000000, 2.357499999999999929 ) ) ;
#1162 = ORIENTED_EDGE ( 'NONE', *, *, #583, .F. ) ;
#1163 = EDGE_CURVE ( 'NONE', #989, #257, #676, .T. ) ;
#1164 = CARTESIAN_POINT ( 'NONE',  ( 2.707500000000001350, 1.857499999999999929, -2.357499999999999485 ) ) ;
#1165 = AXIS2_PLACEMENT_3D ( 'NONE', #570, #1267, #673 ) ;
#1166 = CARTESIAN_POINT ( 'NONE',  ( 500000.0000000000582, 0.04750000000000000056, 2.357499999956630621 ) ) ;
#1167 =( NAMED_UNIT ( * ) SI_UNIT ( $, .STERADIAN. ) SOLID_ANGLE_UNIT ( ) );
#1168 = LINE ( 'NONE', #277, #691 ) ;
#1169 = VERTEX_POINT ( 'NONE', #357 ) ;
#1170 = CARTESIAN_POINT ( 'NONE',  ( -2.550000000000001155, 2.000000000000000000, -2.499999999999999112 ) ) ;
#1171 = DIRECTION ( 'NONE',  ( 1.734723475976807341E-16, -0.000000000000000000, 1.000000000000000000 ) ) ;
#1172 = ADVANCED_FACE ( 'NONE', ( #241 ), #814, .F. ) ;
#1173 = EDGE_CURVE ( 'NONE', #941, #527, #1030, .T. ) ;
#1174 = DIRECTION ( 'NONE',  ( 0.000000000000000000, 1.000000000000000000, 0.000000000000000000 ) ) ;
#1175 = VECTOR ( 'NONE', #416, 1000.000000000000000 ) ;
#1176 = ORIENTED_EDGE ( 'NONE', *, *, #75, .T. ) ;
#1177 = AXIS2_PLACEMENT_3D ( 'NONE', #1073, #483, #971 ) ;
#1178 = CARTESIAN_POINT ( 'NONE',  ( 0.000000000000000000, 1.857499999999999929, 2.357499999999999929 ) ) ;
#1179 = CARTESIAN_POINT ( 'NONE',  ( -2.707500000000000462, 0.1425000000000000433, 2.357499999999999929 ) ) ;
#1180 = EDGE_CURVE ( 'NONE', #941, #944, #655, .T. ) ;
#1181 = FACE_OUTER_BOUND ( 'NONE', #99, .T. ) ;
#1182 = ORIENTED_EDGE ( 'NONE', *, *, #142, .T. ) ;
#1183 = FACE_OUTER_BOUND ( 'NONE', #113, .T. ) ;
#1184 = SPHERICAL_SURFACE ( 'NONE', #607, 0.1425000000000000155 ) ;
#1185 = VECTOR ( 'NONE', #431, 1000.000000000000000 ) ;
#1186 = DIRECTION ( 'NONE',  ( 1.000000000000000000, -0.000000000000000000, 0.000000000000000000 ) ) ;
#1187 = ORIENTED_EDGE ( 'NONE', *, *, #1250, .F. ) ;
#1188 = FACE_OUTER_BOUND ( 'NONE', #1015, .T. ) ;
#1189 = DIRECTION ( 'NONE',  ( -1.000000000000000000, 0.000000000000000000, 0.000000000000000000 ) ) ;
#1190 = DIRECTION ( 'NONE',  ( -1.000000000000000000, -0.000000000000000000, -0.000000000000000000 ) ) ;
#1191 = VECTOR ( 'NONE', #352, 1000.000000000000000 ) ;
#1192 = ORIENTED_EDGE ( 'NONE', *, *, #413, .T. ) ;
#1193 = EDGE_CURVE ( 'NONE', #1199, #941, #747, .T. ) ;
#1194 = AXIS2_PLACEMENT_3D ( 'NONE', #1037, #832, #435 ) ;
#1195 = DIRECTION ( 'NONE',  ( 0.000000000000000000, 0.000000000000000000, 1.000000000000000000 ) ) ;
#1196 = LINE ( 'NONE', #335, #787 ) ;
#1197 = ORIENTED_EDGE ( 'NONE', *, *, #986, .T. ) ;
#1198 = DIRECTION ( 'NONE',  ( 0.000000000000000000, 0.000000000000000000, 1.000000000000000000 ) ) ;
#1199 = VERTEX_POINT ( 'NONE', #547 ) ;
#1200 = SURFACE_STYLE_USAGE ( .BOTH. , #621 ) ;
#1201 = EDGE_CURVE ( 'NONE', #40, #198, #360, .T. ) ;
#1202 = DIRECTION ( 'NONE',  ( 1.000000000000000000, 0.000000000000000000, 1.734723475976807341E-16 ) ) ;
#1203 = VERTEX_POINT ( 'NONE', #264 ) ;
#1204 = CIRCLE ( 'NONE', #425, 0.1424999999999998213 ) ;
#1205 = ORIENTED_EDGE ( 'NONE', *, *, #549, .F. ) ;
#1206 = PLANE ( 'NONE',  #693 ) ;
#1207 = EDGE_CURVE ( 'NONE', #385, #290, #76, .T. ) ;
#1208 = VERTEX_POINT ( 'NONE', #533 ) ;
#1209 = CARTESIAN_POINT ( 'NONE',  ( -2.850000000000000089, 2.000000000000000000, 2.499999999999999556 ) ) ;
#1210 = AXIS2_PLACEMENT_3D ( 'NONE', #1179, #85, #766 ) ;
#1211 = ORIENTED_EDGE ( 'NONE', *, *, #835, .T. ) ;
#1212 = DIRECTION ( 'NONE',  ( 0.000000000000000000, 0.000000000000000000, 1.000000000000000000 ) ) ;
#1213 = AXIS2_PLACEMENT_3D ( 'NONE', #321, #138, #716 ) ;
#1214 = AXIS2_PLACEMENT_3D ( 'NONE', #441, #556, #1239 ) ;
#1215 = EDGE_CURVE ( 'NONE', #907, #377, #450, .T. ) ;
#1216 = ORIENTED_EDGE ( 'NONE', *, *, #1243, .T. ) ;
#1217 = SURFACE_SIDE_STYLE ('',( #203 ) ) ;
#1218 = EDGE_LOOP ( 'NONE', ( #1022, #792, #372, #815, #329, #1187, #173, #122 ) ) ;
#1219 = DIRECTION ( 'NONE',  ( 1.000000000000000000, 0.000000000000000000, 1.734723475976807341E-16 ) ) ;
#1220 = DIRECTION ( 'NONE',  ( 1.000000000000000000, 0.000000000000000000, 1.734723475976807341E-16 ) ) ;
#1221 = CYLINDRICAL_SURFACE ( 'NONE', #196, 0.1424999999999998213 ) ;
#1222 = ADVANCED_FACE ( 'NONE', ( #822 ), #1228, .T. ) ;
#1223 = ORIENTED_EDGE ( 'NONE', *, *, #304, .T. ) ;
#1224 = DIRECTION ( 'NONE',  ( 0.000000000000000000, 0.000000000000000000, -1.000000000000000000 ) ) ;
#1225 = CARTESIAN_POINT ( 'NONE',  ( 2.850000000000000089, 0.1425000000000000433, 2.499999999999999556 ) ) ;
#1226 = CARTESIAN_POINT ( 'NONE',  ( -2.550000000000001155, 1.857499999999999929, -2.357499999999999485 ) ) ;
#1227 = ORIENTED_EDGE ( 'NONE', *, *, #1066, .F. ) ;
#1228 = CYLINDRICAL_SURFACE ( 'NONE', #573, 0.1424999999999998213 ) ;
#1229 = ORIENTED_EDGE ( 'NONE', *, *, #498, .F. ) ;
#1230 =( LENGTH_UNIT ( ) NAMED_UNIT ( * ) SI_UNIT ( .MILLI., .METRE. ) );
#1231 = ADVANCED_FACE ( 'NONE', ( #820 ), #1056, .F. ) ;
#1232 = DIRECTION ( 'NONE',  ( -1.000000000000000000, -0.000000000000000000, -0.000000000000000000 ) ) ;
#1233 = CIRCLE ( 'NONE', #703, 0.1424999999999998213 ) ;
#1234 = VECTOR ( 'NONE', #785, 1000.000000000000000 ) ;
#1235 = CYLINDRICAL_SURFACE ( 'NONE', #712, 0.1424999999999998213 ) ;
#1236 = CARTESIAN_POINT ( 'NONE',  ( -2.707500000000001350, 0.1425000000000000155, -2.357499999999999485 ) ) ;
#1237 = VECTOR ( 'NONE', #701, 1000.000000000000000 ) ;
#1238 = ORIENTED_EDGE ( 'NONE', *, *, #346, .F. ) ;
#1239 = DIRECTION ( 'NONE',  ( 0.000000000000000000, 0.000000000000000000, 1.000000000000000000 ) ) ;
#1240 = ORIENTED_EDGE ( 'NONE', *, *, #894, .T. ) ;
#1241 = DIRECTION ( 'NONE',  ( 1.000000000000000000, 0.000000000000000000, 0.000000000000000000 ) ) ;
#1242 = ADVANCED_FACE ( 'NONE', ( #639 ), #66, .T. ) ;
#1243 = EDGE_CURVE ( 'NONE', #55, #1169, #626, .T. ) ;
#1244 = EDGE_LOOP ( 'NONE', ( #302, #994, #407 ) ) ;
#1245 = FACE_OUTER_BOUND ( 'NONE', #707, .T. ) ;
#1246 = ORIENTED_EDGE ( 'NONE', *, *, #827, .F. ) ;
#1247 =( NAMED_UNIT ( * ) SI_UNIT ( $, .STERADIAN. ) SOLID_ANGLE_UNIT ( ) );
#1248 = CARTESIAN_POINT ( 'NONE',  ( 0.000000000000000000, 1.857499999999999929, -2.357499999999999485 ) ) ;
#1249 =( NAMED_UNIT ( * ) PLANE_ANGLE_UNIT ( ) SI_UNIT ( $, .RADIAN. ) );
#1250 = EDGE_CURVE ( 'NONE', #688, #1203, #506, .T. ) ;
#1251 = DIRECTION ( 'NONE',  ( 0.000000000000000000, 0.000000000000000000, 1.000000000000000000 ) ) ;
#1252 = ORIENTED_EDGE ( 'NONE', *, *, #1045, .F. ) ;
#1253 = CYLINDRICAL_SURFACE ( 'NONE', #265, 0.1424999999999998213 ) ;
#1254 = DIRECTION ( 'NONE',  ( 0.000000000000000000, 1.000000000000000000, 0.000000000000000000 ) ) ;
#1255 =( NAMED_UNIT ( * ) PLANE_ANGLE_UNIT ( ) SI_UNIT ( $, .RADIAN. ) );
#1256 = CIRCLE ( 'NONE', #362, 0.1424999999999998213 ) ;
#1257 = VECTOR ( 'NONE', #525, 1000.000000000000000 ) ;
#1258 = DIRECTION ( 'NONE',  ( 1.734723475976807341E-16, 0.000000000000000000, 1.000000000000000000 ) ) ;
#1259 = ADVANCED_FACE ( 'NONE', ( #1027 ), #439, .T. ) ;
#1260 = ORIENTED_EDGE ( 'NONE', *, *, #745, .F. ) ;
#1261 = FACE_OUTER_BOUND ( 'NONE', #695, .T. ) ;
#1262 = CARTESIAN_POINT ( 'NONE',  ( 2.707500000000001350, 1.857499999999999929, -2.357499999999999485 ) ) ;
#1263 = CARTESIAN_POINT ( 'NONE',  ( -2.550000000000000711, 1.857499999999999485, -2.452499999999999680 ) ) ;
#1264 = ADVANCED_FACE ( 'NONE', ( #946 ), #141, .T. ) ;
#1265 = ORIENTED_EDGE ( 'NONE', *, *, #977, .T. ) ;
#1266 = EDGE_CURVE ( 'NONE', #746, #198, #943, .T. ) ;
#1267 = DIRECTION ( 'NONE',  ( 0.000000000000000000, 1.000000000000000000, 0.000000000000000000 ) ) ;
#1268 = AXIS2_PLACEMENT_3D ( 'NONE', #687, #879, #188 ) ;
#1269 = DIRECTION ( 'NONE',  ( 0.000000000000000000, 0.000000000000000000, -1.000000000000000000 ) ) ;
#1270 = CYLINDRICAL_SURFACE ( 'NONE', #993, 0.1424999999999998213 ) ;
#1271 = ORIENTED_EDGE ( 'NONE', *, *, #492, .F. ) ;
#1272 = DIRECTION ( 'NONE',  ( -1.734723475976807341E-16, 0.000000000000000000, 1.000000000000000000 ) ) ;
#1273 = FACE_OUTER_BOUND ( 'NONE', #307, .T. ) ;
#1274 = VECTOR ( 'NONE', #364, 1000.000000000000000 ) ;
#1275 = DIRECTION ( 'NONE',  ( 1.000000000000000000, 0.000000000000000000, -8.673617379884036705E-17 ) ) ;
#1276 = AXIS2_PLACEMENT_3D ( 'NONE', #308, #312, #708 ) ;
#1277 = ORIENTED_EDGE ( 'NONE', *, *, #576, .F. ) ;
#1278 = PRODUCT_DEFINITION_FORMATION_WITH_SPECIFIED_SOURCE ( 'ANY', '', #1019, .NOT_KNOWN. ) ;
#1279 = FACE_OUTER_BOUND ( 'NONE', #866, .T. ) ;
#1280 = DIRECTION ( 'NONE',  ( -1.000000000000000000, -0.000000000000000000, 8.673617379884036705E-17 ) ) ;
ENDSEC;
END-ISO-10303-21;
