ISO-10303-21;
HEADER;
FILE_DESCRIPTION (( 'STEP AP214' ),
    '1' );
FILE_NAME ('3296Y-1-102LF.STEP',
    '2021-12-24T08:22:49',
    ( '' ),
    ( '' ),
    'SwSTEP 2.0',
    'SolidWorks 2018',
    '' );
FILE_SCHEMA (( 'AUTOMOTIVE_DESIGN' ));
ENDSEC;

DATA;
#1 = VERTEX_POINT ( 'NONE', #147 ) ;
#2 = ADVANCED_BREP_SHAPE_REPRESENTATION ( '3296Y-1-102LF', ( #18, #876, #177, #335, #913, #140 ), #1172 ) ;
#3 = DIRECTION ( 'NONE',  ( 0.0000000000000000000, 0.0000000000000000000, 1.000000000000000000 ) ) ;
#4 = DIRECTION ( 'NONE',  ( 2.033673477112318534E-16, 1.000000000000000000, 0.0000000000000000000 ) ) ;
#5 = AXIS2_PLACEMENT_3D ( 'NONE', #266, #170, #1011 ) ;
#6 = VECTOR ( 'NONE', #791, 1000.000000000000000 ) ;
#7 = DIRECTION ( 'NONE',  ( 0.0000000000000000000, 1.000000000000000000, 0.0000000000000000000 ) ) ;
#8 = SURFACE_STYLE_FILL_AREA ( #434 ) ;
#9 = ORIENTED_EDGE ( 'NONE', *, *, #352, .F. ) ;
#10 = PLANE ( 'NONE',  #1189 ) ;
#11 = EDGE_CURVE ( 'NONE', #1019, #592, #586, .T. ) ;
#12 = ORIENTED_EDGE ( 'NONE', *, *, #444, .T. ) ;
#13 = DIRECTION ( 'NONE',  ( -0.0000000000000000000, -1.000000000000000000, -0.0000000000000000000 ) ) ;
#14 = DIRECTION ( 'NONE',  ( -1.000000000000000000, 0.0000000000000000000, -0.0000000000000000000 ) ) ;
#15 = ORIENTED_EDGE ( 'NONE', *, *, #180, .F. ) ;
#16 = CARTESIAN_POINT ( 'NONE',  ( 10.02999999999999936, 9.529999999999999361, 4.830000000000000071 ) ) ;
#17 = CARTESIAN_POINT ( 'NONE',  ( 16.42999999999999972, 4.764999999999997904, 1.150000000000000133 ) ) ;
#18 = MANIFOLD_SOLID_BREP ( 'Cut-Extrude2', #1194 ) ;
#19 = CARTESIAN_POINT ( 'NONE',  ( 0.0000000000000000000, 0.0000000000000000000, 0.0000000000000000000 ) ) ;
#20 = DIRECTION ( 'NONE',  ( -1.000000000000000000, 2.033673477112318534E-16, -0.0000000000000000000 ) ) ;
#21 = VECTOR ( 'NONE', #351, 1000.000000000000000 ) ;
#22 = CARTESIAN_POINT ( 'NONE',  ( 1.000000000000000888, 9.029999999999995808, 4.450000000000000178 ) ) ;
#23 = LINE ( 'NONE', #1029, #860 ) ;
#24 = DIRECTION ( 'NONE',  ( 0.0000000000000000000, -1.000000000000000000, 0.0000000000000000000 ) ) ;
#25 = LINE ( 'NONE', #122, #1027 ) ;
#26 = AXIS2_PLACEMENT_3D ( 'NONE', #300, #1049, #573 ) ;
#27 = CARTESIAN_POINT ( 'NONE',  ( 0.0000000000000000000, 1.270000000000000462, 2.364999999999999769 ) ) ;
#28 = CARTESIAN_POINT ( 'NONE',  ( 0.0000000000000000000, 0.0000000000000000000, 4.830000000000000071 ) ) ;
#29 = VERTEX_POINT ( 'NONE', #982 ) ;
#30 = DIRECTION ( 'NONE',  ( -0.0000000000000000000, -1.000000000000000000, -0.0000000000000000000 ) ) ;
#31 = ORIENTED_EDGE ( 'NONE', *, *, #761, .T. ) ;
#32 = CARTESIAN_POINT ( 'NONE',  ( 10.02999999999999936, 9.029999999999997584, 0.0000000000000000000 ) ) ;
#33 = ORIENTED_EDGE ( 'NONE', *, *, #48, .T. ) ;
#34 = DIRECTION ( 'NONE',  ( 1.000000000000000000, -0.0000000000000000000, -0.0000000000000000000 ) ) ;
#35 = VERTEX_POINT ( 'NONE', #424 ) ;
#36 = DIRECTION ( 'NONE',  ( 0.0000000000000000000, 0.0000000000000000000, -1.000000000000000000 ) ) ;
#37 = CARTESIAN_POINT ( 'NONE',  ( 1.000000000000000666, 9.529999999999994031, 4.450000000000000178 ) ) ;
#38 = DIRECTION ( 'NONE',  ( -1.000000000000000000, 0.0000000000000000000, 0.0000000000000000000 ) ) ;
#39 = EDGE_CURVE ( 'NONE', #993, #1019, #602, .T. ) ;
#40 = VECTOR ( 'NONE', #34, 1000.000000000000000 ) ;
#41 = CARTESIAN_POINT ( 'NONE',  ( 1.000000000000000666, 9.529999999999994031, 4.450000000000000178 ) ) ;
#42 = VECTOR ( 'NONE', #334, 1000.000000000000000 ) ;
#43 =( GEOMETRIC_REPRESENTATION_CONTEXT ( 3 ) GLOBAL_UNCERTAINTY_ASSIGNED_CONTEXT ( ( #849 ) ) GLOBAL_UNIT_ASSIGNED_CONTEXT ( ( #1161, #966, #503 ) ) REPRESENTATION_CONTEXT ( 'NONE', 'WORKASPACE' ) );
#44 = DIRECTION ( 'NONE',  ( 4.336808689942043867E-16, -1.000000000000000000, 0.0000000000000000000 ) ) ;
#45 = ORIENTED_EDGE ( 'NONE', *, *, #929, .T. ) ;
#46 = ORIENTED_EDGE ( 'NONE', *, *, #554, .F. ) ;
#47 = VERTEX_POINT ( 'NONE', #891 ) ;
#48 = EDGE_CURVE ( 'NONE', #1140, #29, #659, .T. ) ;
#49 = EDGE_LOOP ( 'NONE', ( #816, #419, #45, #77 ) ) ;
#50 = CARTESIAN_POINT ( 'NONE',  ( -0.7600000000000000089, 0.9900000000000002132, -9.000000000000001776 ) ) ;
#51 = AXIS2_PLACEMENT_3D ( 'NONE', #436, #519, #809 ) ;
#52 = CARTESIAN_POINT ( 'NONE',  ( 9.029999999999999361, 9.530000000000001137, 4.450000000000000178 ) ) ;
#53 = CARTESIAN_POINT ( 'NONE',  ( 0.0000000000000000000, 0.0000000000000000000, 4.830000000000000071 ) ) ;
#54 = FACE_OUTER_BOUND ( 'NONE', #1124, .T. ) ;
#55 = EDGE_CURVE ( 'NONE', #1101, #254, #341, .T. ) ;
#56 = LINE ( 'NONE', #484, #549 ) ;
#57 = CARTESIAN_POINT ( 'NONE',  ( 0.0000000000000000000, 9.029999999999995808, 4.830000000000000071 ) ) ;
#58 = CARTESIAN_POINT ( 'NONE',  ( 1.000000000000000666, 5.204170427930421283E-15, 4.450000000000000178 ) ) ;
#59 = ORIENTED_EDGE ( 'NONE', *, *, #1176, .T. ) ;
#60 = DIRECTION ( 'NONE',  ( -1.000000000000000000, 0.0000000000000000000, 0.0000000000000000000 ) ) ;
#61 = VERTEX_POINT ( 'NONE', #1084 ) ;
#62 = DIRECTION ( 'NONE',  ( 0.0000000000000000000, -0.0000000000000000000, 1.000000000000000000 ) ) ;
#63 = ORIENTED_EDGE ( 'NONE', *, *, #11, .T. ) ;
#64 = CARTESIAN_POINT ( 'NONE',  ( -1.520000000000000018, 1.270000000000000240, 1.270000000000000018 ) ) ;
#65 = ADVANCED_FACE ( 'NONE', ( #222 ), #1074, .T. ) ;
#66 = EDGE_CURVE ( 'NONE', #1019, #454, #691, .T. ) ;
#67 =( NAMED_UNIT ( * ) PLANE_ANGLE_UNIT ( ) SI_UNIT ( $, .RADIAN. ) );
#68 = DIRECTION ( 'NONE',  ( 4.336808689942043867E-16, -1.000000000000000000, 0.0000000000000000000 ) ) ;
#69 = ADVANCED_FACE ( 'NONE', ( #94 ), #624, .T. ) ;
#70 = VECTOR ( 'NONE', #1127, 1000.000000000000000 ) ;
#71 = EDGE_CURVE ( 'NONE', #853, #185, #56, .T. ) ;
#72 = VECTOR ( 'NONE', #131, 1000.000000000000000 ) ;
#73 = CARTESIAN_POINT ( 'NONE',  ( -1.520000000000000240, 0.9900000000000002132, 2.328595767987006404 ) ) ;
#74 = ORIENTED_EDGE ( 'NONE', *, *, #470, .F. ) ;
#75 = CARTESIAN_POINT ( 'NONE',  ( 10.02999999999999936, 0.0000000000000000000, 0.0000000000000000000 ) ) ;
#76 = ORIENTED_EDGE ( 'NONE', *, *, #637, .T. ) ;
#77 = ORIENTED_EDGE ( 'NONE', *, *, #470, .T. ) ;
#78 = CARTESIAN_POINT ( 'NONE',  ( 9.649999999999998579, 9.029999999999997584, 4.450000000000000178 ) ) ;
#79 = EDGE_CURVE ( 'NONE', #526, #510, #518, .T. ) ;
#80 = CARTESIAN_POINT ( 'NONE',  ( 10.02999999999999758, 0.5000000000000000000, 4.830000000000000071 ) ) ;
#81 = DIRECTION ( 'NONE',  ( -1.000000000000000000, 0.0000000000000000000, 0.0000000000000000000 ) ) ;
#82 = AXIS2_PLACEMENT_3D ( 'NONE', #119, #396, #317 ) ;
#83 = LINE ( 'NONE', #497, #1038 ) ;
#84 = PLANE ( 'NONE',  #957 ) ;
#85 = DIRECTION ( 'NONE',  ( 1.000000000000000000, 0.0000000000000000000, 0.0000000000000000000 ) ) ;
#86 = ORIENTED_EDGE ( 'NONE', *, *, #542, .F. ) ;
#87 = ORIENTED_EDGE ( 'NONE', *, *, #101, .F. ) ;
#88 = AXIS2_PLACEMENT_3D ( 'NONE', #954, #683, #766 ) ;
#89 = ORIENTED_EDGE ( 'NONE', *, *, #794, .T. ) ;
#90 = ORIENTED_EDGE ( 'NONE', *, *, #1055, .F. ) ;
#91 = PLANE ( 'NONE',  #546 ) ;
#92 = VECTOR ( 'NONE', #255, 1000.000000000000000 ) ;
#93 = VECTOR ( 'NONE', #30, 1000.000000000000000 ) ;
#94 = FACE_OUTER_BOUND ( 'NONE', #682, .T. ) ;
#95 = CARTESIAN_POINT ( 'NONE',  ( 16.42999999999999972, 4.764999999999997904, 1.150000000000000133 ) ) ;
#96 = ORIENTED_EDGE ( 'NONE', *, *, #600, .T. ) ;
#97 = ORIENTED_EDGE ( 'NONE', *, *, #687, .T. ) ;
#98 = DIRECTION ( 'NONE',  ( -0.0000000000000000000, -0.0000000000000000000, 1.000000000000000000 ) ) ;
#99 = ORIENTED_EDGE ( 'NONE', *, *, #457, .T. ) ;
#100 = DIRECTION ( 'NONE',  ( 1.000000000000000000, 3.361026734705066506E-15, -0.0000000000000000000 ) ) ;
#101 = EDGE_CURVE ( 'NONE', #475, #1128, #403, .T. ) ;
#102 = VECTOR ( 'NONE', #674, 1000.000000000000000 ) ;
#103 = FACE_OUTER_BOUND ( 'NONE', #299, .T. ) ;
#104 = CYLINDRICAL_SURFACE ( 'NONE', #5, 0.2549999999999995604 ) ;
#105 = PLANE ( 'NONE',  #26 ) ;
#106 = VECTOR ( 'NONE', #895, 1000.000000000000000 ) ;
#107 = EDGE_LOOP ( 'NONE', ( #295, #114, #840, #195 ) ) ;
#108 = PLANE ( 'NONE',  #879 ) ;
#109 = CARTESIAN_POINT ( 'NONE',  ( 16.42999999999999972, 5.019999999999997797, 1.150000000000000133 ) ) ;
#110 = ORIENTED_EDGE ( 'NONE', *, *, #1186, .F. ) ;
#111 = AXIS2_PLACEMENT_3D ( 'NONE', #440, #618, #1098 ) ;
#112 = EDGE_LOOP ( 'NONE', ( #660, #1170, #646, #89, #59, #917, #521, #523, #801, #63, #909, #328 ) ) ;
#113 = DIRECTION ( 'NONE',  ( 0.0000000000000000000, 1.000000000000000000, 0.0000000000000000000 ) ) ;
#114 = ORIENTED_EDGE ( 'NONE', *, *, #55, .T. ) ;
#115 = PLANE ( 'NONE',  #1034 ) ;
#116 = EDGE_LOOP ( 'NONE', ( #171, #453 ) ) ;
#117 = CARTESIAN_POINT ( 'NONE',  ( 0.0000000000000000000, 9.529999999999999361, 4.830000000000000071 ) ) ;
#118 = DIRECTION ( 'NONE',  ( 0.0000000000000000000, 0.0000000000000000000, 1.000000000000000000 ) ) ;
#119 = CARTESIAN_POINT ( 'NONE',  ( 16.42999999999999972, 7.304999999999997051, 3.689999999999999947 ) ) ;
#120 = EDGE_CURVE ( 'NONE', #35, #420, #294, .T. ) ;
#121 = LINE ( 'NONE', #155, #1152 ) ;
#122 = CARTESIAN_POINT ( 'NONE',  ( 10.02999999999999936, 9.529999999999999361, 4.830000000000000071 ) ) ;
#123 = VECTOR ( 'NONE', #38, 1000.000000000000000 ) ;
#124 = SURFACE_SIDE_STYLE ('',( #459 ) ) ;
#125 = CARTESIAN_POINT ( 'NONE',  ( 0.0000000000000000000, 0.0000000000000000000, 4.830000000000000071 ) ) ;
#126 = CARTESIAN_POINT ( 'NONE',  ( 1.000000000000000666, 5.204170427930421283E-15, 4.450000000000000178 ) ) ;
#127 = EDGE_CURVE ( 'NONE', #855, #157, #401, .T. ) ;
#128 = UNCERTAINTY_MEASURE_WITH_UNIT (LENGTH_MEASURE( 1.000000000000000082E-05 ), #456, 'distance_accuracy_value', 'NONE');
#129 = ORIENTED_EDGE ( 'NONE', *, *, #701, .T. ) ;
#130 = VERTEX_POINT ( 'NONE', #293 ) ;
#131 = DIRECTION ( 'NONE',  ( 0.0000000000000000000, 0.0000000000000000000, 1.000000000000000000 ) ) ;
#132 = ADVANCED_FACE ( 'NONE', ( #930 ), #1138, .F. ) ;
#133 = AXIS2_PLACEMENT_3D ( 'NONE', #915, #823, #1108 ) ;
#134 = DIRECTION ( 'NONE',  ( -0.0000000000000000000, -0.0000000000000000000, 1.000000000000000000 ) ) ;
#135 = DIRECTION ( 'NONE',  ( -0.0000000000000000000, -0.0000000000000000000, -1.000000000000000000 ) ) ;
#136 = VECTOR ( 'NONE', #398, 1000.000000000000000 ) ;
#137 = ADVANCED_FACE ( 'NONE', ( #208 ), #679, .F. ) ;
#138 = CYLINDRICAL_SURFACE ( 'NONE', #1068, 0.2550000000000000044 ) ;
#139 = VECTOR ( 'NONE', #245, 1000.000000000000000 ) ;
#140 = AXIS2_PLACEMENT_3D ( 'NONE', #206, #1080, #700 ) ;
#141 = ORIENTED_EDGE ( 'NONE', *, *, #616, .T. ) ;
#142 = EDGE_LOOP ( 'NONE', ( #829, #771, #438, #9, #775, #146, #129, #435 ) ) ;
#143 = ADVANCED_FACE ( 'NONE', ( #834 ), #115, .F. ) ;
#144 = EDGE_CURVE ( 'NONE', #1096, #29, #25, .T. ) ;
#145 = ORIENTED_EDGE ( 'NONE', *, *, #1039, .T. ) ;
#146 = ORIENTED_EDGE ( 'NONE', *, *, #372, .F. ) ;
#147 = CARTESIAN_POINT ( 'NONE',  ( -1.520000000000000018, 0.9900000000000002132, 0.2114042320129937702 ) ) ;
#148 =( NAMED_UNIT ( * ) SI_UNIT ( $, .STERADIAN. ) SOLID_ANGLE_UNIT ( ) );
#149 = AXIS2_PLACEMENT_3D ( 'NONE', #1158, #777, #947 ) ;
#150 = ADVANCED_FACE ( 'NONE', ( #656 ), #108, .F. ) ;
#151 = VECTOR ( 'NONE', #561, 1000.000000000000000 ) ;
#152 = LINE ( 'NONE', #19, #93 ) ;
#153 = DIRECTION ( 'NONE',  ( -1.000000000000000000, 2.033673477112318534E-16, -0.0000000000000000000 ) ) ;
#154 = VECTOR ( 'NONE', #955, 1000.000000000000000 ) ;
#155 = CARTESIAN_POINT ( 'NONE',  ( 1.000000000000000666, 9.529999999999994031, 4.830000000000000071 ) ) ;
#156 = ADVANCED_FACE ( 'NONE', ( #781 ), #394, .T. ) ;
#157 = VERTEX_POINT ( 'NONE', #661 ) ;
#158 = DIRECTION ( 'NONE',  ( 0.0000000000000000000, 1.000000000000000000, -0.0000000000000000000 ) ) ;
#159 = VERTEX_POINT ( 'NONE', #759 ) ;
#160 = ORIENTED_EDGE ( 'NONE', *, *, #870, .F. ) ;
#161 = DIRECTION ( 'NONE',  ( 0.0000000000000000000, -1.000000000000000000, 0.0000000000000000000 ) ) ;
#162 = EDGE_CURVE ( 'NONE', #667, #537, #152, .T. ) ;
#163 =( NAMED_UNIT ( * ) PLANE_ANGLE_UNIT ( ) SI_UNIT ( $, .RADIAN. ) );
#164 = FACE_OUTER_BOUND ( 'NONE', #978, .T. ) ;
#165 = VECTOR ( 'NONE', #309, 1000.000000000000000 ) ;
#166 = DIRECTION ( 'NONE',  ( 0.0000000000000000000, -1.000000000000000000, 0.0000000000000000000 ) ) ;
#167 = CARTESIAN_POINT ( 'NONE',  ( 0.0000000000000000000, 9.529999999999999361, 4.830000000000000071 ) ) ;
#168 = AXIS2_PLACEMENT_3D ( 'NONE', #835, #926, #278 ) ;
#169 = ORIENTED_EDGE ( 'NONE', *, *, #1176, .F. ) ;
#170 = DIRECTION ( 'NONE',  ( -1.000000000000000000, 2.033673477112318534E-16, -0.0000000000000000000 ) ) ;
#171 = ORIENTED_EDGE ( 'NONE', *, *, #501, .T. ) ;
#172 = DIRECTION ( 'NONE',  ( 0.0000000000000000000, -0.0000000000000000000, -1.000000000000000000 ) ) ;
#173 = EDGE_CURVE ( 'NONE', #420, #1140, #1207, .T. ) ;
#174 = CARTESIAN_POINT ( 'NONE',  ( 9.649999999999998579, 9.029999999999997584, 0.0000000000000000000 ) ) ;
#175 = VECTOR ( 'NONE', #797, 1000.000000000000000 ) ;
#176 = VECTOR ( 'NONE', #44, 1000.000000000000000 ) ;
#177 = MANIFOLD_SOLID_BREP ( 'Boss-Extrude3[1]', #1007 ) ;
#178 = FACE_OUTER_BOUND ( 'NONE', #1159, .T. ) ;
#179 = FACE_OUTER_BOUND ( 'NONE', #1197, .T. ) ;
#180 = EDGE_CURVE ( 'NONE', #592, #745, #1122, .T. ) ;
#181 = EDGE_LOOP ( 'NONE', ( #972, #452, #754, #991 ) ) ;
#182 = CARTESIAN_POINT ( 'NONE',  ( -1.520000000000000018, 1.270000000000000240, 1.270000000000000018 ) ) ;
#183 = ORIENTED_EDGE ( 'NONE', *, *, #319, .F. ) ;
#184 = AXIS2_PLACEMENT_3D ( 'NONE', #189, #851, #571 ) ;
#185 = VERTEX_POINT ( 'NONE', #964 ) ;
#186 = DIRECTION ( 'NONE',  ( 0.0000000000000000000, -1.000000000000000000, 0.0000000000000000000 ) ) ;
#187 = EDGE_CURVE ( 'NONE', #695, #667, #721, .T. ) ;
#188 = AXIS2_PLACEMENT_3D ( 'NONE', #722, #726, #166 ) ;
#189 = CARTESIAN_POINT ( 'NONE',  ( -1.520000000000000018, 1.270000000000000240, 1.270000000000000018 ) ) ;
#190 = LINE ( 'NONE', #582, #136 ) ;
#191 = PLANE ( 'NONE',  #375 ) ;
#192 = VECTOR ( 'NONE', #209, 1000.000000000000000 ) ;
#193 = DIRECTION ( 'NONE',  ( -1.000000000000000000, 0.0000000000000000000, -0.0000000000000000000 ) ) ;
#194 = EDGE_CURVE ( 'NONE', #254, #940, #874, .T. ) ;
#195 = ORIENTED_EDGE ( 'NONE', *, *, #929, .F. ) ;
#196 = EDGE_LOOP ( 'NONE', ( #649, #572, #938, #784, #86, #635, #919, #904 ) ) ;
#197 = DIRECTION ( 'NONE',  ( -1.000000000000000000, 0.0000000000000000000, 0.0000000000000000000 ) ) ;
#198 = ORIENTED_EDGE ( 'NONE', *, *, #426, .F. ) ;
#199 = PLANE ( 'NONE',  #580 ) ;
#200 = VERTEX_POINT ( 'NONE', #1052 ) ;
#201 = CARTESIAN_POINT ( 'NONE',  ( 1.000000000000000888, 0.5000000000000022204, 4.830000000000000071 ) ) ;
#202 = EDGE_CURVE ( 'NONE', #159, #280, #263, .T. ) ;
#203 = DIRECTION ( 'NONE',  ( -0.0000000000000000000, -0.0000000000000000000, -1.000000000000000000 ) ) ;
#204 = FACE_OUTER_BOUND ( 'NONE', #922, .T. ) ;
#205 = FACE_OUTER_BOUND ( 'NONE', #645, .T. ) ;
#206 = CARTESIAN_POINT ( 'NONE',  ( 0.0000000000000000000, 0.0000000000000000000, 0.0000000000000000000 ) ) ;
#207 = CARTESIAN_POINT ( 'NONE',  ( -1.520000000000000018, 1.270000000000000240, 0.1750000000000002387 ) ) ;
#208 = FACE_OUTER_BOUND ( 'NONE', #953, .T. ) ;
#209 = DIRECTION ( 'NONE',  ( 1.000000000000000000, -0.0000000000000000000, -0.0000000000000000000 ) ) ;
#210 = EDGE_LOOP ( 'NONE', ( #558, #325, #743, #974, #783, #110, #960, #680 ) ) ;
#211 = DIRECTION ( 'NONE',  ( -0.0000000000000000000, -0.0000000000000000000, 1.000000000000000000 ) ) ;
#212 = ORIENTED_EDGE ( 'NONE', *, *, #1186, .T. ) ;
#213 = CARTESIAN_POINT ( 'NONE',  ( 1.000000000000000888, 9.029999999999995808, 4.830000000000000071 ) ) ;
#214 = ORIENTED_EDGE ( 'NONE', *, *, #751, .F. ) ;
#215 = DIRECTION ( 'NONE',  ( -1.000000000000000000, 0.0000000000000000000, 0.0000000000000000000 ) ) ;
#216 = CARTESIAN_POINT ( 'NONE',  ( 0.0000000000000000000, 9.529999999999999361, 0.0000000000000000000 ) ) ;
#217 = DIRECTION ( 'NONE',  ( 1.000000000000000000, -2.033673477112318534E-16, -0.0000000000000000000 ) ) ;
#218 = EDGE_CURVE ( 'NONE', #714, #537, #613, .T. ) ;
#219 = ADVANCED_FACE ( 'NONE', ( #950 ), #314, .T. ) ;
#220 = VECTOR ( 'NONE', #302, 1000.000000000000000 ) ;
#221 = VECTOR ( 'NONE', #804, 1000.000000000000000 ) ;
#222 = FACE_OUTER_BOUND ( 'NONE', #210, .T. ) ;
#223 = ORIENTED_EDGE ( 'NONE', *, *, #437, .T. ) ;
#224 = CARTESIAN_POINT ( 'NONE',  ( 9.649999999999998579, 9.029999999999997584, 0.0000000000000000000 ) ) ;
#225 = ADVANCED_FACE ( 'NONE', ( #1153 ), #596, .F. ) ;
#226 = EDGE_CURVE ( 'NONE', #1077, #1211, #738, .T. ) ;
#227 = ORIENTED_EDGE ( 'NONE', *, *, #501, .F. ) ;
#228 = CARTESIAN_POINT ( 'NONE',  ( 0.0000000000000000000, 9.029999999999995808, 4.450000000000000178 ) ) ;
#229 = DIRECTION ( 'NONE',  ( -1.000000000000000000, 4.336808689942043867E-16, 0.0000000000000000000 ) ) ;
#230 = STYLED_ITEM ( 'NONE', ( #710 ), #913 ) ;
#231 =( NAMED_UNIT ( * ) PLANE_ANGLE_UNIT ( ) SI_UNIT ( $, .RADIAN. ) );
#232 = AXIS2_PLACEMENT_3D ( 'NONE', #1046, #671, #297 ) ;
#233 = FACE_OUTER_BOUND ( 'NONE', #49, .T. ) ;
#234 = CARTESIAN_POINT ( 'NONE',  ( -1.520000000000000240, 0.9900000000000002132, -9.000000000000001776 ) ) ;
#235 = CYLINDRICAL_SURFACE ( 'NONE', #462, 0.2549999999999995604 ) ;
#236 = SURFACE_STYLE_USAGE ( .BOTH. , #612 ) ;
#237 = VECTOR ( 'NONE', #1160, 1000.000000000000000 ) ;
#238 = FILL_AREA_STYLE_COLOUR ( '', #502 ) ;
#239 = EDGE_LOOP ( 'NONE', ( #813, #605, #896, #265 ) ) ;
#240 = DIRECTION ( 'NONE',  ( -1.000000000000000000, 0.0000000000000000000, 0.0000000000000000000 ) ) ;
#241 = EDGE_CURVE ( 'NONE', #730, #313, #416, .T. ) ;
#242 = CLOSED_SHELL ( 'NONE', ( #425, #329, #666, #69 ) ) ;
#243 = APPLICATION_CONTEXT ( 'automotive_design' ) ;
#244 = ADVANCED_FACE ( 'NONE', ( #179 ), #1058, .F. ) ;
#245 = DIRECTION ( 'NONE',  ( -4.336808689942043867E-16, -1.000000000000000000, -0.0000000000000000000 ) ) ;
#246 = EDGE_CURVE ( 'NONE', #283, #420, #1137, .T. ) ;
#247 = SURFACE_SIDE_STYLE ('',( #1191 ) ) ;
#248 = FACE_OUTER_BOUND ( 'NONE', #648, .T. ) ;
#249 = FACE_OUTER_BOUND ( 'NONE', #867, .T. ) ;
#250 = CARTESIAN_POINT ( 'NONE',  ( 9.029999999999999361, 9.530000000000001137, 4.450000000000000178 ) ) ;
#251 = DIRECTION ( 'NONE',  ( -0.0000000000000000000, -0.0000000000000000000, 1.000000000000000000 ) ) ;
#252 = DIRECTION ( 'NONE',  ( 0.0000000000000000000, 0.0000000000000000000, -1.000000000000000000 ) ) ;
#253 = ORIENTED_EDGE ( 'NONE', *, *, #981, .F. ) ;
#254 = VERTEX_POINT ( 'NONE', #961 ) ;
#255 = DIRECTION ( 'NONE',  ( -0.0000000000000000000, -0.0000000000000000000, 1.000000000000000000 ) ) ;
#256 = VERTEX_POINT ( 'NONE', #318 ) ;
#257 = DIRECTION ( 'NONE',  ( 0.0000000000000000000, 1.000000000000000000, 0.0000000000000000000 ) ) ;
#258 = DIRECTION ( 'NONE',  ( -0.0000000000000000000, -0.0000000000000000000, -1.000000000000000000 ) ) ;
#259 = AXIS2_PLACEMENT_3D ( 'NONE', #941, #856, #1042 ) ;
#260 = VECTOR ( 'NONE', #881, 1000.000000000000000 ) ;
#261 = EDGE_CURVE ( 'NONE', #468, #717, #308, .T. ) ;
#262 = CIRCLE ( 'NONE', #1116, 0.2550000000000000044 ) ;
#263 = LINE ( 'NONE', #496, #237 ) ;
#264 = AXIS2_PLACEMENT_3D ( 'NONE', #1177, #1083, #595 ) ;
#265 = ORIENTED_EDGE ( 'NONE', *, *, #1151, .T. ) ;
#266 = CARTESIAN_POINT ( 'NONE',  ( 16.42999999999999616, 2.224999999999997868, 3.689999999999999947 ) ) ;
#267 = ORIENTED_EDGE ( 'NONE', *, *, #127, .F. ) ;
#268 = CARTESIAN_POINT ( 'NONE',  ( 10.02999999999999936, 0.0000000000000000000, 4.830000000000000071 ) ) ;
#269 = ORIENTED_EDGE ( 'NONE', *, *, #681, .F. ) ;
#270 = STYLED_ITEM ( 'NONE', ( #274 ), #876 ) ;
#271 = DIRECTION ( 'NONE',  ( 0.0000000000000000000, 0.0000000000000000000, -1.000000000000000000 ) ) ;
#272 = CARTESIAN_POINT ( 'NONE',  ( 0.0000000000000000000, 0.0000000000000000000, 0.0000000000000000000 ) ) ;
#273 = FACE_OUTER_BOUND ( 'NONE', #107, .T. ) ;
#274 = PRESENTATION_STYLE_ASSIGNMENT (( #626 ) ) ;
#275 = PLANE ( 'NONE',  #825 ) ;
#276 = LINE ( 'NONE', #686, #42 ) ;
#277 = EDGE_CURVE ( 'NONE', #185, #370, #969, .T. ) ;
#278 = DIRECTION ( 'NONE',  ( 0.0000000000000000000, 0.0000000000000000000, -1.000000000000000000 ) ) ;
#279 = ORIENTED_EDGE ( 'NONE', *, *, #633, .F. ) ;
#280 = VERTEX_POINT ( 'NONE', #515 ) ;
#281 = CARTESIAN_POINT ( 'NONE',  ( 9.650000000000000355, 0.5000000000000004441, 4.450000000000000178 ) ) ;
#282 = PRODUCT_DEFINITION_CONTEXT ( 'detailed design', #243, 'design' ) ;
#283 = VERTEX_POINT ( 'NONE', #866 ) ;
#284 = DIRECTION ( 'NONE',  ( 1.000000000000000000, 0.0000000000000000000, 0.0000000000000000000 ) ) ;
#285 = ORIENTED_EDGE ( 'NONE', *, *, #327, .F. ) ;
#286 = CARTESIAN_POINT ( 'NONE',  ( 10.02999999999999936, 9.029999999999997584, 0.0000000000000000000 ) ) ;
#287 = EDGE_CURVE ( 'NONE', #728, #730, #472, .T. ) ;
#288 = MECHANICAL_DESIGN_GEOMETRIC_PRESENTATION_REPRESENTATION (  '', ( #230 ), #355 ) ;
#289 = DIRECTION ( 'NONE',  ( -0.0000000000000000000, -0.0000000000000000000, 1.000000000000000000 ) ) ;
#290 = VECTOR ( 'NONE', #814, 1000.000000000000000 ) ;
#291 = LINE ( 'NONE', #971, #364 ) ;
#292 = VECTOR ( 'NONE', #739, 1000.000000000000000 ) ;
#293 = CARTESIAN_POINT ( 'NONE',  ( 16.42999999999999616, 1.969999999999998197, 3.689999999999999947 ) ) ;
#294 = LINE ( 'NONE', #676, #690 ) ;
#295 = ORIENTED_EDGE ( 'NONE', *, *, #864, .F. ) ;
#296 = CARTESIAN_POINT ( 'NONE',  ( 0.0000000000000000000, 9.029999999999995808, 4.450000000000000178 ) ) ;
#297 = DIRECTION ( 'NONE',  ( 0.0000000000000000000, -0.0000000000000000000, 1.000000000000000000 ) ) ;
#298 = EDGE_LOOP ( 'NONE', ( #541, #406, #422, #441 ) ) ;
#299 = EDGE_LOOP ( 'NONE', ( #198, #99, #33, #1154 ) ) ;
#300 = CARTESIAN_POINT ( 'NONE',  ( 9.649999999999998579, 9.029999999999997584, 4.830000000000000071 ) ) ;
#301 = CARTESIAN_POINT ( 'NONE',  ( 9.029999999999999361, -1.734723475976807094E-15, 4.450000000000000178 ) ) ;
#302 = DIRECTION ( 'NONE',  ( -0.0000000000000000000, -0.0000000000000000000, 1.000000000000000000 ) ) ;
#303 = EDGE_CURVE ( 'NONE', #506, #1182, #892, .T. ) ;
#304 = CARTESIAN_POINT ( 'NONE',  ( -0.7600000000000000089, 0.9900000000000002132, -9.000000000000001776 ) ) ;
#305 = CARTESIAN_POINT ( 'NONE',  ( 16.42999999999999972, 7.304999999999997051, 3.689999999999999947 ) ) ;
#306 = VECTOR ( 'NONE', #636, 1000.000000000000000 ) ;
#307 = PLANE ( 'NONE',  #588 ) ;
#308 = LINE ( 'NONE', #213, #123 ) ;
#309 = DIRECTION ( 'NONE',  ( -0.0000000000000000000, -0.0000000000000000000, -1.000000000000000000 ) ) ;
#310 = EDGE_CURVE ( 'NONE', #787, #61, #1093, .T. ) ;
#311 = ORIENTED_EDGE ( 'NONE', *, *, #576, .F. ) ;
#312 = ORIENTED_EDGE ( 'NONE', *, *, #1086, .T. ) ;
#313 = VERTEX_POINT ( 'NONE', #614 ) ;
#314 = PLANE ( 'NONE',  #1013 ) ;
#315 =( GEOMETRIC_REPRESENTATION_CONTEXT ( 3 ) GLOBAL_UNCERTAINTY_ASSIGNED_CONTEXT ( ( #1181 ) ) GLOBAL_UNIT_ASSIGNED_CONTEXT ( ( #534, #231, #148 ) ) REPRESENTATION_CONTEXT ( 'NONE', 'WORKASPACE' ) );
#316 = EDGE_LOOP ( 'NONE', ( #1028, #1081, #169, #1044 ) ) ;
#317 = DIRECTION ( 'NONE',  ( 0.0000000000000000000, -1.000000000000000000, 0.0000000000000000000 ) ) ;
#318 = CARTESIAN_POINT ( 'NONE',  ( -0.7600000000000000089, 1.270000000000000240, 0.1750000000000002387 ) ) ;
#319 = EDGE_CURVE ( 'NONE', #855, #1043, #276, .T. ) ;
#320 = VECTOR ( 'NONE', #421, 1000.000000000000000 ) ;
#321 = LINE ( 'NONE', #1114, #736 ) ;
#322 = LINE ( 'NONE', #1210, #292 ) ;
#323 = AXIS2_PLACEMENT_3D ( 'NONE', #305, #494, #962 ) ;
#324 = DIRECTION ( 'NONE',  ( 1.000000000000000000, 0.0000000000000000000, 0.0000000000000000000 ) ) ;
#325 = ORIENTED_EDGE ( 'NONE', *, *, #226, .T. ) ;
#326 = CARTESIAN_POINT ( 'NONE',  ( -0.7600000000000000089, 1.270000000000000240, 1.270000000000000018 ) ) ;
#327 = EDGE_CURVE ( 'NONE', #35, #358, #644, .T. ) ;
#328 = ORIENTED_EDGE ( 'NONE', *, *, #1055, .T. ) ;
#329 = ADVANCED_FACE ( 'NONE', ( #368 ), #235, .T. ) ;
#330 = DIRECTION ( 'NONE',  ( -1.000000000000000000, -4.336808689942043867E-16, 0.0000000000000000000 ) ) ;
#331 =( NAMED_UNIT ( * ) SI_UNIT ( $, .STERADIAN. ) SOLID_ANGLE_UNIT ( ) );
#332 = ORIENTED_EDGE ( 'NONE', *, *, #952, .T. ) ;
#333 = ORIENTED_EDGE ( 'NONE', *, *, #287, .F. ) ;
#334 = DIRECTION ( 'NONE',  ( -0.0000000000000000000, 1.000000000000000000, -0.0000000000000000000 ) ) ;
#335 = MANIFOLD_SOLID_BREP ( 'Boss-Extrude3[2]', #410 ) ;
#336 = ADVANCED_FACE ( 'NONE', ( #750 ), #1079, .F. ) ;
#337 = CARTESIAN_POINT ( 'NONE',  ( 10.02999999999999936, 9.029999999999997584, 4.830000000000000071 ) ) ;
#338 = LINE ( 'NONE', #1206, #1026 ) ;
#339 = STYLED_ITEM ( 'NONE', ( #1053 ), #335 ) ;
#340 = VECTOR ( 'NONE', #878, 1000.000000000000000 ) ;
#341 = LINE ( 'NONE', #720, #473 ) ;
#342 = VERTEX_POINT ( 'NONE', #73 ) ;
#343 = FILL_AREA_STYLE_COLOUR ( '', #1107 ) ;
#344 = PRODUCT_DEFINITION_SHAPE ( 'NONE', 'NONE',  #620 ) ;
#345 = ORIENTED_EDGE ( 'NONE', *, *, #1022, .T. ) ;
#346 = CARTESIAN_POINT ( 'NONE',  ( 0.0000000000000000000, 1.270000000000000240, 1.270000000000000018 ) ) ;
#347 = EDGE_CURVE ( 'NONE', #47, #1211, #675, .T. ) ;
#348 = EDGE_LOOP ( 'NONE', ( #96, #619, #31, #389 ) ) ;
#349 = DIRECTION ( 'NONE',  ( -1.000000000000000000, 2.033673477112318534E-16, 0.0000000000000000000 ) ) ;
#350 = AXIS2_PLACEMENT_3D ( 'NONE', #182, #833, #271 ) ;
#351 = DIRECTION ( 'NONE',  ( -2.033673477112318287E-16, 1.000000000000000000, -0.0000000000000000000 ) ) ;
#352 = EDGE_CURVE ( 'NONE', #1, #342, #601, .T. ) ;
#353 = CIRCLE ( 'NONE', #184, 1.094999999999999751 ) ;
#354 = CARTESIAN_POINT ( 'NONE',  ( 16.42999999999999972, 7.049999999999997158, 3.689999999999999947 ) ) ;
#355 =( GEOMETRIC_REPRESENTATION_CONTEXT ( 3 ) GLOBAL_UNCERTAINTY_ASSIGNED_CONTEXT ( ( #128 ) ) GLOBAL_UNIT_ASSIGNED_CONTEXT ( ( #456, #1111, #1212 ) ) REPRESENTATION_CONTEXT ( 'NONE', 'WORKASPACE' ) );
#356 = CARTESIAN_POINT ( 'NONE',  ( 1.734723475976807094E-15, 0.4999999999999988343, 4.450000000000000178 ) ) ;
#357 = EDGE_LOOP ( 'NONE', ( #767, #540 ) ) ;
#358 = VERTEX_POINT ( 'NONE', #445 ) ;
#359 = ORIENTED_EDGE ( 'NONE', *, *, #241, .T. ) ;
#360 = AXIS2_PLACEMENT_3D ( 'NONE', #500, #511, #1171 ) ;
#361 = EDGE_LOOP ( 'NONE', ( #842, #994 ) ) ;
#362 = CARTESIAN_POINT ( 'NONE',  ( 10.02999999999999758, 0.5000000000000000000, 0.0000000000000000000 ) ) ;
#363 = DIRECTION ( 'NONE',  ( -1.000000000000000000, 0.0000000000000000000, 0.0000000000000000000 ) ) ;
#364 = VECTOR ( 'NONE', #871, 1000.000000000000000 ) ;
#365 = EDGE_CURVE ( 'NONE', #1077, #1182, #798, .T. ) ;
#366 = VECTOR ( 'NONE', #911, 1000.000000000000000 ) ;
#367 = CARTESIAN_POINT ( 'NONE',  ( 16.42999999999999972, 7.304999999999997051, 3.689999999999999947 ) ) ;
#368 = FACE_OUTER_BOUND ( 'NONE', #839, .T. ) ;
#369 = CARTESIAN_POINT ( 'NONE',  ( 1.000000000000000888, 9.029999999999995808, 4.450000000000000178 ) ) ;
#370 = VERTEX_POINT ( 'NONE', #443 ) ;
#371 = EDGE_LOOP ( 'NONE', ( #1030, #552, #253, #752 ) ) ;
#372 = EDGE_CURVE ( 'NONE', #256, #787, #429, .T. ) ;
#373 = ORIENTED_EDGE ( 'NONE', *, *, #1133, .F. ) ;
#374 = CARTESIAN_POINT ( 'NONE',  ( 1.000000000000000888, 0.5000000000000022204, 4.830000000000000071 ) ) ;
#375 = AXIS2_PLACEMENT_3D ( 'NONE', #476, #564, #658 ) ;
#376 = CARTESIAN_POINT ( 'NONE',  ( 0.0000000000000000000, 0.0000000000000000000, 0.0000000000000000000 ) ) ;
#377 = LINE ( 'NONE', #125, #820 ) ;
#378 = VECTOR ( 'NONE', #411, 1000.000000000000000 ) ;
#379 = PLANE ( 'NONE',  #1024 ) ;
#380 = VECTOR ( 'NONE', #135, 1000.000000000000000 ) ;
#381 = LINE ( 'NONE', #207, #260 ) ;
#382 = STYLED_ITEM ( 'NONE', ( #431 ), #177 ) ;
#383 = ORIENTED_EDGE ( 'NONE', *, *, #923, .F. ) ;
#384 = CARTESIAN_POINT ( 'NONE',  ( 0.0000000000000000000, 1.270000000000000240, 1.270000000000000018 ) ) ;
#385 = ADVANCED_FACE ( 'NONE', ( #584 ), #610, .T. ) ;
#386 = ORIENTED_EDGE ( 'NONE', *, *, #616, .F. ) ;
#387 = PRODUCT_RELATED_PRODUCT_CATEGORY ( 'part', '', ( #984 ) ) ;
#388 = ORIENTED_EDGE ( 'NONE', *, *, #71, .T. ) ;
#389 = ORIENTED_EDGE ( 'NONE', *, *, #418, .F. ) ;
#390 = DIRECTION ( 'NONE',  ( 1.000000000000000000, -2.033673477112318534E-16, 0.0000000000000000000 ) ) ;
#391 = ORIENTED_EDGE ( 'NONE', *, *, #426, .T. ) ;
#392 = EDGE_CURVE ( 'NONE', #908, #468, #121, .T. ) ;
#393 = CARTESIAN_POINT ( 'NONE',  ( 16.42999999999999972, 4.764999999999997904, 1.150000000000000133 ) ) ;
#394 = PLANE ( 'NONE',  #451 ) ;
#395 = AXIS2_PLACEMENT_3D ( 'NONE', #885, #1185, #995 ) ;
#396 = DIRECTION ( 'NONE',  ( -1.000000000000000000, 2.033673477112318534E-16, -0.0000000000000000000 ) ) ;
#397 = LINE ( 'NONE', #959, #688 ) ;
#398 = DIRECTION ( 'NONE',  ( 0.0000000000000000000, 0.0000000000000000000, 1.000000000000000000 ) ) ;
#399 = VECTOR ( 'NONE', #81, 1000.000000000000000 ) ;
#400 = FILL_AREA_STYLE_COLOUR ( '', #1180 ) ;
#401 = LINE ( 'NONE', #574, #1168 ) ;
#402 = DIRECTION ( 'NONE',  ( 1.000000000000000000, -0.0000000000000000000, -0.0000000000000000000 ) ) ;
#403 = LINE ( 'NONE', #774, #154 ) ;
#404 = CARTESIAN_POINT ( 'NONE',  ( 16.42999999999999616, 2.224999999999997868, 3.689999999999999947 ) ) ;
#405 = DIRECTION ( 'NONE',  ( 0.0000000000000000000, -1.000000000000000000, 0.0000000000000000000 ) ) ;
#406 = ORIENTED_EDGE ( 'NONE', *, *, #1066, .F. ) ;
#407 = DIRECTION ( 'NONE',  ( -1.000000000000000000, 0.0000000000000000000, 0.0000000000000000000 ) ) ;
#408 = ORIENTED_EDGE ( 'NONE', *, *, #79, .T. ) ;
#409 = DIRECTION ( 'NONE',  ( -1.000000000000000000, 2.033673477112318534E-16, 0.0000000000000000000 ) ) ;
#410 = CLOSED_SHELL ( 'NONE', ( #615, #1167, #512, #336 ) ) ;
#411 = DIRECTION ( 'NONE',  ( -1.000000000000000000, -0.0000000000000000000, -0.0000000000000000000 ) ) ;
#412 = EDGE_CURVE ( 'NONE', #130, #853, #499, .T. ) ;
#413 = ADVANCED_FACE ( 'NONE', ( #54 ), #997, .F. ) ;
#414 = CIRCLE ( 'NONE', #264, 0.2550000000000000044 ) ;
#415 = FACE_OUTER_BOUND ( 'NONE', #298, .T. ) ;
#416 = LINE ( 'NONE', #975, #677 ) ;
#417 = DIRECTION ( 'NONE',  ( -1.000000000000000000, 0.0000000000000000000, -0.0000000000000000000 ) ) ;
#418 = EDGE_CURVE ( 'NONE', #342, #1, #338, .T. ) ;
#419 = ORIENTED_EDGE ( 'NONE', *, *, #1143, .F. ) ;
#420 = VERTEX_POINT ( 'NONE', #174 ) ;
#421 = DIRECTION ( 'NONE',  ( -4.336808689942043867E-16, -1.000000000000000000, -0.0000000000000000000 ) ) ;
#422 = ORIENTED_EDGE ( 'NONE', *, *, #852, .F. ) ;
#423 = ORIENTED_EDGE ( 'NONE', *, *, #127, .T. ) ;
#424 = CARTESIAN_POINT ( 'NONE',  ( 9.649999999999998579, 9.029999999999997584, 4.450000000000000178 ) ) ;
#425 = ADVANCED_FACE ( 'NONE', ( #178 ), #104, .T. ) ;
#426 = EDGE_CURVE ( 'NONE', #157, #1096, #822, .T. ) ;
#427 = CARTESIAN_POINT ( 'NONE',  ( 16.42999999999999972, 4.509999999999997122, 1.150000000000000133 ) ) ;
#428 = LINE ( 'NONE', #1071, #1119 ) ;
#429 = CIRCLE ( 'NONE', #985, 1.094999999999999751 ) ;
#430 = SURFACE_STYLE_FILL_AREA ( #1192 ) ;
#431 = PRESENTATION_STYLE_ASSIGNMENT (( #933 ) ) ;
#432 = ADVANCED_FACE ( 'NONE', ( #890 ), #901, .T. ) ;
#433 = SURFACE_SIDE_STYLE ('',( #875 ) ) ;
#434 = FILL_AREA_STYLE ('',( #992 ) ) ;
#435 = ORIENTED_EDGE ( 'NONE', *, *, #347, .T. ) ;
#436 = CARTESIAN_POINT ( 'NONE',  ( -0.7600000000000000089, 1.270000000000000240, 1.270000000000000018 ) ) ;
#437 = EDGE_CURVE ( 'NONE', #370, #185, #1015, .T. ) ;
#438 = ORIENTED_EDGE ( 'NONE', *, *, #600, .F. ) ;
#439 = ORIENTED_EDGE ( 'NONE', *, *, #11, .F. ) ;
#440 = CARTESIAN_POINT ( 'NONE',  ( -1.520000000000000018, 1.270000000000000240, 1.270000000000000018 ) ) ;
#441 = ORIENTED_EDGE ( 'NONE', *, *, #101, .T. ) ;
#442 = ORIENTED_EDGE ( 'NONE', *, *, #246, .T. ) ;
#443 = CARTESIAN_POINT ( 'NONE',  ( 9.649999999999996803, 1.969999999999999529, 3.689999999999999947 ) ) ;
#444 = EDGE_CURVE ( 'NONE', #313, #283, #1051, .T. ) ;
#445 = CARTESIAN_POINT ( 'NONE',  ( 9.029999999999999361, 9.029999999999997584, 4.450000000000000178 ) ) ;
#446 = DIRECTION ( 'NONE',  ( 0.0000000000000000000, 0.0000000000000000000, -1.000000000000000000 ) ) ;
#447 = LINE ( 'NONE', #1145, #378 ) ;
#448 = AXIS2_PLACEMENT_3D ( 'NONE', #762, #942, #857 ) ;
#449 = EDGE_LOOP ( 'NONE', ( #770, #1099 ) ) ;
#450 = CARTESIAN_POINT ( 'NONE',  ( 1.000000000000000666, 5.204170427930421283E-15, 4.450000000000000178 ) ) ;
#451 = AXIS2_PLACEMENT_3D ( 'NONE', #376, #36, #193 ) ;
#452 = ORIENTED_EDGE ( 'NONE', *, *, #66, .F. ) ;
#453 = ORIENTED_EDGE ( 'NONE', *, *, #1133, .T. ) ;
#454 = VERTEX_POINT ( 'NONE', #638 ) ;
#455 = CARTESIAN_POINT ( 'NONE',  ( 9.649999999999996803, 0.5000000000000000000, 4.830000000000000071 ) ) ;
#456 =( LENGTH_UNIT ( ) NAMED_UNIT ( * ) SI_UNIT ( .MILLI., .METRE. ) );
#457 = EDGE_CURVE ( 'NONE', #157, #1140, #322, .T. ) ;
#458 = LINE ( 'NONE', #296, #1204 ) ;
#459 = SURFACE_STYLE_FILL_AREA ( #1156 ) ;
#460 = VECTOR ( 'NONE', #113, 1000.000000000000000 ) ;
#461 = PLANE ( 'NONE',  #597 ) ;
#462 = AXIS2_PLACEMENT_3D ( 'NONE', #1091, #898, #161 ) ;
#463 = DIRECTION ( 'NONE',  ( 1.000000000000000000, -2.033673477112318534E-16, -0.0000000000000000000 ) ) ;
#464 = CARTESIAN_POINT ( 'NONE',  ( 10.02999999999999758, 0.5000000000000000000, 4.830000000000000071 ) ) ;
#465 = ORIENTED_EDGE ( 'NONE', *, *, #418, .T. ) ;
#466 = ORIENTED_EDGE ( 'NONE', *, *, #769, .F. ) ;
#467 = UNCERTAINTY_MEASURE_WITH_UNIT (LENGTH_MEASURE( 1.000000000000000082E-05 ), #533, 'distance_accuracy_value', 'NONE');
#468 = VERTEX_POINT ( 'NONE', #732 ) ;
#469 = AXIS2_PLACEMENT_3D ( 'NONE', #643, #1202, #734 ) ;
#470 = EDGE_CURVE ( 'NONE', #940, #254, #262, .T. ) ;
#471 = LINE ( 'NONE', #760, #220 ) ;
#472 = LINE ( 'NONE', #792, #165 ) ;
#473 = VECTOR ( 'NONE', #153, 1000.000000000000000 ) ;
#474 = DIRECTION ( 'NONE',  ( 1.000000000000000000, -0.0000000000000000000, -0.0000000000000000000 ) ) ;
#475 = VERTEX_POINT ( 'NONE', #356 ) ;
#476 = CARTESIAN_POINT ( 'NONE',  ( 0.0000000000000000000, 0.0000000000000000000, 4.450000000000000178 ) ) ;
#477 = DIRECTION ( 'NONE',  ( 0.0000000000000000000, 0.0000000000000000000, -1.000000000000000000 ) ) ;
#478 = ORIENTED_EDGE ( 'NONE', *, *, #480, .T. ) ;
#479 = DIRECTION ( 'NONE',  ( 0.0000000000000000000, 0.0000000000000000000, 1.000000000000000000 ) ) ;
#480 = EDGE_CURVE ( 'NONE', #1139, #283, #641, .T. ) ;
#481 = EDGE_LOOP ( 'NONE', ( #74, #538 ) ) ;
#482 = DIRECTION ( 'NONE',  ( -1.000000000000000000, 0.0000000000000000000, 0.0000000000000000000 ) ) ;
#483 = DIRECTION ( 'NONE',  ( 0.0000000000000000000, -0.0000000000000000000, 1.000000000000000000 ) ) ;
#484 = CARTESIAN_POINT ( 'NONE',  ( 16.42999999999999616, 2.479999999999997318, 3.689999999999999947 ) ) ;
#485 = CIRCLE ( 'NONE', #1100, 0.2550000000000000044 ) ;
#486 = LINE ( 'NONE', #281, #545 ) ;
#487 = CARTESIAN_POINT ( 'NONE',  ( 9.029999999999999361, 0.5000000000000004441, 4.450000000000000178 ) ) ;
#488 = LINE ( 'NONE', #369, #70 ) ;
#489 = AXIS2_PLACEMENT_3D ( 'NONE', #126, #229, #692 ) ;
#490 = CARTESIAN_POINT ( 'NONE',  ( -1.520000000000000018, 1.550000000000000488, 0.2114042320129937702 ) ) ;
#491 = ORIENTED_EDGE ( 'NONE', *, *, #303, .T. ) ;
#492 = ORIENTED_EDGE ( 'NONE', *, *, #815, .F. ) ;
#493 = SURFACE_SIDE_STYLE ('',( #531 ) ) ;
#494 = DIRECTION ( 'NONE',  ( 1.000000000000000000, -2.033673477112318534E-16, 0.0000000000000000000 ) ) ;
#495 = EDGE_CURVE ( 'NONE', #358, #855, #749, .T. ) ;
#496 = CARTESIAN_POINT ( 'NONE',  ( 10.02999999999999758, 0.5000000000000000000, 4.830000000000000071 ) ) ;
#497 = CARTESIAN_POINT ( 'NONE',  ( -1.520000000000000018, 1.550000000000000488, 2.328595767987006404 ) ) ;
#498 = DIRECTION ( 'NONE',  ( -1.000000000000000000, 2.033673477112318534E-16, -0.0000000000000000000 ) ) ;
#499 = CIRCLE ( 'NONE', #469, 0.2549999999999995604 ) ;
#500 = CARTESIAN_POINT ( 'NONE',  ( 9.649999999999996803, 2.224999999999999201, 3.689999999999999947 ) ) ;
#501 = EDGE_CURVE ( 'NONE', #1023, #696, #569, .T. ) ;
#502 = COLOUR_RGB ( '',1.000000000000000000, 1.000000000000000000, 1.000000000000000000 ) ;
#503 =( NAMED_UNIT ( * ) SI_UNIT ( $, .STERADIAN. ) SOLID_ANGLE_UNIT ( ) );
#504 = VECTOR ( 'NONE', #1089, 1000.000000000000000 ) ;
#505 = DIRECTION ( 'NONE',  ( 4.336808689942043867E-16, -1.000000000000000000, 0.0000000000000000000 ) ) ;
#506 = VERTEX_POINT ( 'NONE', #744 ) ;
#507 = ORIENTED_EDGE ( 'NONE', *, *, #751, .T. ) ;
#508 = ORIENTED_EDGE ( 'NONE', *, *, #1151, .F. ) ;
#509 = DIRECTION ( 'NONE',  ( 0.0000000000000000000, 1.000000000000000000, 0.0000000000000000000 ) ) ;
#510 = VERTEX_POINT ( 'NONE', #918 ) ;
#511 = DIRECTION ( 'NONE',  ( 1.000000000000000000, -2.033673477112318534E-16, -0.0000000000000000000 ) ) ;
#512 = ADVANCED_FACE ( 'NONE', ( #999 ), #548, .T. ) ;
#513 = PRESENTATION_LAYER_ASSIGNMENT (  '', '', ( #382 ) ) ;
#514 = CARTESIAN_POINT ( 'NONE',  ( 9.029999999999999361, -1.734723475976807094E-15, 4.830000000000000071 ) ) ;
#515 = CARTESIAN_POINT ( 'NONE',  ( 9.029999999999999361, 0.5000000000000004441, 4.830000000000000071 ) ) ;
#516 = LINE ( 'NONE', #78, #21 ) ;
#517 = VECTOR ( 'NONE', #100, 1000.000000000000000 ) ;
#518 = CIRCLE ( 'NONE', #1125, 0.2550000000000000044 ) ;
#519 = DIRECTION ( 'NONE',  ( -1.000000000000000000, 1.936075308009828924E-16, 0.0000000000000000000 ) ) ;
#520 = EDGE_CURVE ( 'NONE', #714, #454, #778, .T. ) ;
#521 = ORIENTED_EDGE ( 'NONE', *, *, #786, .T. ) ;
#522 = ORIENTED_EDGE ( 'NONE', *, *, #520, .T. ) ;
#523 = ORIENTED_EDGE ( 'NONE', *, *, #852, .T. ) ;
#524 = ADVANCED_FACE ( 'NONE', ( #811 ), #647, .F. ) ;
#525 = AXIS2_PLACEMENT_3D ( 'NONE', #1005, #85, #252 ) ;
#526 = VERTEX_POINT ( 'NONE', #910 ) ;
#527 = UNCERTAINTY_MEASURE_WITH_UNIT (LENGTH_MEASURE( 1.000000000000000082E-05 ), #889, 'distance_accuracy_value', 'NONE');
#528 = FILL_AREA_STYLE ('',( #1088 ) ) ;
#529 = DIRECTION ( 'NONE',  ( -1.000000000000000000, 1.936075308009828924E-16, 0.0000000000000000000 ) ) ;
#530 = LINE ( 'NONE', #1131, #151 ) ;
#531 = SURFACE_STYLE_FILL_AREA ( #665 ) ;
#532 = CARTESIAN_POINT ( 'NONE',  ( 16.42999999999999972, 4.764999999999997904, 1.150000000000000133 ) ) ;
#533 =( LENGTH_UNIT ( ) NAMED_UNIT ( * ) SI_UNIT ( .MILLI., .METRE. ) );
#534 =( LENGTH_UNIT ( ) NAMED_UNIT ( * ) SI_UNIT ( .MILLI., .METRE. ) );
#535 = VERTEX_POINT ( 'NONE', #1136 ) ;
#536 = EDGE_CURVE ( 'NONE', #1128, #1033, #611, .T. ) ;
#537 = VERTEX_POINT ( 'NONE', #843 ) ;
#538 = ORIENTED_EDGE ( 'NONE', *, *, #194, .F. ) ;
#539 = DIRECTION ( 'NONE',  ( 0.0000000000000000000, 1.000000000000000000, 0.0000000000000000000 ) ) ;
#540 = ORIENTED_EDGE ( 'NONE', *, *, #1169, .F. ) ;
#541 = ORIENTED_EDGE ( 'NONE', *, *, #536, .T. ) ;
#542 = EDGE_CURVE ( 'NONE', #537, #730, #556, .T. ) ;
#543 = DIRECTION ( 'NONE',  ( 0.0000000000000000000, 0.0000000000000000000, -1.000000000000000000 ) ) ;
#544 = VECTOR ( 'NONE', #134, 1000.000000000000000 ) ;
#545 = VECTOR ( 'NONE', #474, 1000.000000000000000 ) ;
#546 = AXIS2_PLACEMENT_3D ( 'NONE', #464, #746, #172 ) ;
#547 = VECTOR ( 'NONE', #284, 1000.000000000000000 ) ;
#548 = PLANE ( 'NONE',  #668 ) ;
#549 = VECTOR ( 'NONE', #1041, 1000.000000000000000 ) ;
#550 = AXIS2_PLACEMENT_3D ( 'NONE', #53, #703, #417 ) ;
#551 = EDGE_LOOP ( 'NONE', ( #865, #214 ) ) ;
#552 = ORIENTED_EDGE ( 'NONE', *, *, #1086, .F. ) ;
#553 = CARTESIAN_POINT ( 'NONE',  ( 9.029999999999999361, -1.734723475976807094E-15, 4.450000000000000178 ) ) ;
#554 = EDGE_CURVE ( 'NONE', #695, #717, #530, .T. ) ;
#555 = DIRECTION ( 'NONE',  ( 1.000000000000000000, -2.033673477112318534E-16, 0.0000000000000000000 ) ) ;
#556 = LINE ( 'NONE', #272, #986 ) ;
#557 = VECTOR ( 'NONE', #684, 1000.000000000000000 ) ;
#558 = ORIENTED_EDGE ( 'NONE', *, *, #365, .F. ) ;
#559 = EDGE_CURVE ( 'NONE', #1128, #714, #23, .T. ) ;
#560 = VERTEX_POINT ( 'NONE', #931 ) ;
#561 = DIRECTION ( 'NONE',  ( -0.0000000000000000000, -1.000000000000000000, -0.0000000000000000000 ) ) ;
#562 = PRESENTATION_LAYER_ASSIGNMENT (  '', '', ( #270 ) ) ;
#563 = CARTESIAN_POINT ( 'NONE',  ( -0.7600000000000000089, 1.270000000000000462, 2.364999999999999769 ) ) ;
#564 = DIRECTION ( 'NONE',  ( -0.0000000000000000000, 0.0000000000000000000, -1.000000000000000000 ) ) ;
#565 = CARTESIAN_POINT ( 'NONE',  ( 0.0000000000000000000, 9.529999999999999361, 4.830000000000000071 ) ) ;
#566 = MECHANICAL_DESIGN_GEOMETRIC_PRESENTATION_REPRESENTATION (  '', ( #382 ), #1076 ) ;
#567 = CIRCLE ( 'NONE', #149, 0.2549999999999995604 ) ;
#568 = DIRECTION ( 'NONE',  ( 1.000000000000000000, -2.033673477112318534E-16, 0.0000000000000000000 ) ) ;
#569 = CIRCLE ( 'NONE', #965, 0.2550000000000000044 ) ;
#570 = CARTESIAN_POINT ( 'NONE',  ( 0.0000000000000000000, 9.529999999999999361, 4.830000000000000071 ) ) ;
#571 = DIRECTION ( 'NONE',  ( 0.0000000000000000000, 0.0000000000000000000, 1.000000000000000000 ) ) ;
#572 = ORIENTED_EDGE ( 'NONE', *, *, #246, .F. ) ;
#573 = DIRECTION ( 'NONE',  ( -2.033673477112318534E-16, -1.000000000000000000, 0.0000000000000000000 ) ) ;
#574 = CARTESIAN_POINT ( 'NONE',  ( 10.02999999999999936, 9.029999999999997584, 4.830000000000000071 ) ) ;
#575 = ORIENTED_EDGE ( 'NONE', *, *, #1209, .T. ) ;
#576 = EDGE_CURVE ( 'NONE', #632, #200, #488, .T. ) ;
#577 = EDGE_LOOP ( 'NONE', ( #508, #466, #1200, #936, #383, #906, #1110, #858 ) ) ;
#578 = DIRECTION ( 'NONE',  ( -2.033673477112318534E-16, -1.000000000000000000, 0.0000000000000000000 ) ) ;
#579 = ORIENTED_EDGE ( 'NONE', *, *, #277, .T. ) ;
#580 = AXIS2_PLACEMENT_3D ( 'NONE', #404, #1146, #670 ) ;
#581 = CARTESIAN_POINT ( 'NONE',  ( -0.7600000000000000089, 1.550000000000000488, 2.328595767987006404 ) ) ;
#582 = CARTESIAN_POINT ( 'NONE',  ( -1.520000000000000018, 1.550000000000000488, 1.270000000000000018 ) ) ;
#583 = DIRECTION ( 'NONE',  ( -0.0000000000000000000, -0.0000000000000000000, -1.000000000000000000 ) ) ;
#584 = FACE_OUTER_BOUND ( 'NONE', #713, .T. ) ;
#585 = LINE ( 'NONE', #1208, #812 ) ;
#586 = LINE ( 'NONE', #58, #504 ) ;
#587 = DIRECTION ( 'NONE',  ( -1.936075308009828924E-16, -1.000000000000000000, 0.0000000000000000000 ) ) ;
#588 = AXIS2_PLACEMENT_3D ( 'NONE', #393, #409, #578 ) ;
#589 = ORIENTED_EDGE ( 'NONE', *, *, #310, .T. ) ;
#590 = ORIENTED_EDGE ( 'NONE', *, *, #303, .F. ) ;
#591 = ADVANCED_FACE ( 'NONE', ( #273 ), #138, .T. ) ;
#592 = VERTEX_POINT ( 'NONE', #651 ) ;
#593 = APPLICATION_CONTEXT ( 'automotive_design' ) ;
#594 =( GEOMETRIC_REPRESENTATION_CONTEXT ( 3 ) GLOBAL_UNCERTAINTY_ASSIGNED_CONTEXT ( ( #467 ) ) GLOBAL_UNIT_ASSIGNED_CONTEXT ( ( #533, #67, #331 ) ) REPRESENTATION_CONTEXT ( 'NONE', 'WORKASPACE' ) );
#595 = DIRECTION ( 'NONE',  ( 0.0000000000000000000, 1.000000000000000000, 0.0000000000000000000 ) ) ;
#596 = PLANE ( 'NONE',  #489 ) ;
#597 = AXIS2_PLACEMENT_3D ( 'NONE', #268, #363, #737 ) ;
#598 = ADVANCED_FACE ( 'NONE', ( #1205 ), #191, .F. ) ;
#599 = CYLINDRICAL_SURFACE ( 'NONE', #88, 0.2550000000000000044 ) ;
#600 = EDGE_CURVE ( 'NONE', #342, #61, #948, .T. ) ;
#601 = CIRCLE ( 'NONE', #912, 1.094999999999999751 ) ;
#602 = LINE ( 'NONE', #987, #139 ) ;
#603 = CARTESIAN_POINT ( 'NONE',  ( 0.0000000000000000000, 0.0000000000000000000, 4.830000000000000071 ) ) ;
#604 = ORIENTED_EDGE ( 'NONE', *, *, #952, .F. ) ;
#605 = ORIENTED_EDGE ( 'NONE', *, *, #261, .F. ) ;
#606 = ORIENTED_EDGE ( 'NONE', *, *, #1004, .T. ) ;
#607 = EDGE_CURVE ( 'NONE', #728, #159, #709, .T. ) ;
#608 = ADVANCED_FACE ( 'NONE', ( #887 ), #105, .F. ) ;
#609 = PLANE ( 'NONE',  #780 ) ;
#610 = PLANE ( 'NONE',  #694 ) ;
#611 = LINE ( 'NONE', #374, #517 ) ;
#612 = SURFACE_SIDE_STYLE ('',( #8 ) ) ;
#613 = LINE ( 'NONE', #603, #380 ) ;
#614 = CARTESIAN_POINT ( 'NONE',  ( 10.02999999999999936, 0.5000000000000000000, 0.0000000000000000000 ) ) ;
#615 = ADVANCED_FACE ( 'NONE', ( #248 ), #599, .T. ) ;
#616 = EDGE_CURVE ( 'NONE', #1023, #526, #1134, .T. ) ;
#617 = ORIENTED_EDGE ( 'NONE', *, *, #202, .F. ) ;
#618 = DIRECTION ( 'NONE',  ( 1.000000000000000000, -0.0000000000000000000, -0.0000000000000000000 ) ) ;
#619 = ORIENTED_EDGE ( 'NONE', *, *, #310, .F. ) ;
#620 = PRODUCT_DEFINITION ( 'UNKNOWN', '', #883, #282 ) ;
#621 = ORIENTED_EDGE ( 'NONE', *, *, #786, .F. ) ;
#622 = ORIENTED_EDGE ( 'NONE', *, *, #352, .T. ) ;
#623 = DIRECTION ( 'NONE',  ( 0.0000000000000000000, -1.000000000000000000, 0.0000000000000000000 ) ) ;
#624 = PLANE ( 'NONE',  #723 ) ;
#625 = EDGE_CURVE ( 'NONE', #61, #1077, #628, .T. ) ;
#626 = SURFACE_STYLE_USAGE ( .BOTH. , #433 ) ;
#627 =( GEOMETRIC_REPRESENTATION_CONTEXT ( 3 ) GLOBAL_UNCERTAINTY_ASSIGNED_CONTEXT ( ( #527 ) ) GLOBAL_UNIT_ASSIGNED_CONTEXT ( ( #889, #163, #718 ) ) REPRESENTATION_CONTEXT ( 'NONE', 'WORKASPACE' ) );
#628 = CIRCLE ( 'NONE', #448, 1.094999999999999751 ) ;
#629 = VECTOR ( 'NONE', #98, 1000.000000000000000 ) ;
#630 = VECTOR ( 'NONE', #863, 1000.000000000000000 ) ;
#631 = FACE_OUTER_BOUND ( 'NONE', #361, .T. ) ;
#632 = VERTEX_POINT ( 'NONE', #22 ) ;
#633 = EDGE_CURVE ( 'NONE', #535, #1199, #190, .T. ) ;
#634 = ORIENTED_EDGE ( 'NONE', *, *, #277, .F. ) ;
#635 = ORIENTED_EDGE ( 'NONE', *, *, #162, .F. ) ;
#636 = DIRECTION ( 'NONE',  ( -0.0000000000000000000, -0.0000000000000000000, -1.000000000000000000 ) ) ;
#637 = EDGE_CURVE ( 'NONE', #200, #717, #458, .T. ) ;
#638 = CARTESIAN_POINT ( 'NONE',  ( 1.000000000000000666, 5.204170427930421283E-15, 4.830000000000000071 ) ) ;
#639 = VECTOR ( 'NONE', #877, 1000.000000000000000 ) ;
#640 = VECTOR ( 'NONE', #402, 1000.000000000000000 ) ;
#641 = LINE ( 'NONE', #455, #765 ) ;
#642 = LINE ( 'NONE', #167, #366 ) ;
#643 = CARTESIAN_POINT ( 'NONE',  ( 16.42999999999999616, 2.224999999999997868, 3.689999999999999947 ) ) ;
#644 = LINE ( 'NONE', #719, #221 ) ;
#645 = EDGE_LOOP ( 'NONE', ( #606, #742 ) ) ;
#646 = ORIENTED_EDGE ( 'NONE', *, *, #708, .T. ) ;
#647 = PLANE ( 'NONE',  #168 ) ;
#648 = EDGE_LOOP ( 'NONE', ( #373, #345, #507, #386 ) ) ;
#649 = ORIENTED_EDGE ( 'NONE', *, *, #173, .F. ) ;
#650 = AXIS2_PLACEMENT_3D ( 'NONE', #234, #509, #62 ) ;
#651 = CARTESIAN_POINT ( 'NONE',  ( 9.029999999999999361, -1.734723475976807094E-15, 4.450000000000000178 ) ) ;
#652 = DIRECTION ( 'NONE',  ( -1.000000000000000000, 2.033673477112318534E-16, -0.0000000000000000000 ) ) ;
#653 = STYLED_ITEM ( 'NONE', ( #850 ), #18 ) ;
#654 = LINE ( 'NONE', #250, #290 ) ;
#655 = LINE ( 'NONE', #37, #176 ) ;
#656 = FACE_OUTER_BOUND ( 'NONE', #1126, .T. ) ;
#657 = AXIS2_PLACEMENT_3D ( 'NONE', #1121, #1021, #907 ) ;
#658 = DIRECTION ( 'NONE',  ( -1.000000000000000000, 0.0000000000000000000, 0.0000000000000000000 ) ) ;
#659 = LINE ( 'NONE', #75, #106 ) ;
#660 = ORIENTED_EDGE ( 'NONE', *, *, #815, .T. ) ;
#661 = CARTESIAN_POINT ( 'NONE',  ( 10.02999999999999936, 9.029999999999997584, 4.830000000000000071 ) ) ;
#662 = EDGE_CURVE ( 'NONE', #745, #728, #377, .T. ) ;
#663 = CARTESIAN_POINT ( 'NONE',  ( -1.520000000000000018, 0.9900000000000002132, 2.328595767987006404 ) ) ;
#664 = ORIENTED_EDGE ( 'NONE', *, *, #261, .T. ) ;
#665 = FILL_AREA_STYLE ('',( #400 ) ) ;
#666 = ADVANCED_FACE ( 'NONE', ( #631 ), #199, .F. ) ;
#667 = VERTEX_POINT ( 'NONE', #216 ) ;
#668 = AXIS2_PLACEMENT_3D ( 'NONE', #367, #555, #4 ) ;
#669 = DIRECTION ( 'NONE',  ( 0.0000000000000000000, 1.000000000000000000, 0.0000000000000000000 ) ) ;
#670 = DIRECTION ( 'NONE',  ( -2.033673477112318534E-16, -1.000000000000000000, 0.0000000000000000000 ) ) ;
#671 = DIRECTION ( 'NONE',  ( 0.0000000000000000000, 1.000000000000000000, 0.0000000000000000000 ) ) ;
#672 =( LENGTH_UNIT ( ) NAMED_UNIT ( * ) SI_UNIT ( .MILLI., .METRE. ) );
#673 = COLOUR_RGB ( '',1.000000000000000000, 1.000000000000000000, 1.000000000000000000 ) ;
#674 = DIRECTION ( 'NONE',  ( -1.000000000000000000, 2.033673477112318534E-16, -0.0000000000000000000 ) ) ;
#675 = CIRCLE ( 'NONE', #818, 1.094999999999999751 ) ;
#676 = CARTESIAN_POINT ( 'NONE',  ( 9.649999999999998579, 9.029999999999997584, 4.830000000000000071 ) ) ;
#677 = VECTOR ( 'NONE', #779, 1000.000000000000000 ) ;
#678 = CARTESIAN_POINT ( 'NONE',  ( 9.650000000000000355, 0.5000000000000004441, 4.450000000000000178 ) ) ;
#679 = PLANE ( 'NONE',  #232 ) ;
#680 = ORIENTED_EDGE ( 'NONE', *, *, #1209, .F. ) ;
#681 = EDGE_CURVE ( 'NONE', #853, #130, #567, .T. ) ;
#682 = EDGE_LOOP ( 'NONE', ( #758, #634 ) ) ;
#683 = DIRECTION ( 'NONE',  ( -1.000000000000000000, 2.033673477112318534E-16, -0.0000000000000000000 ) ) ;
#684 = DIRECTION ( 'NONE',  ( -0.0000000000000000000, -0.0000000000000000000, -1.000000000000000000 ) ) ;
#685 = DIRECTION ( 'NONE',  ( 0.0000000000000000000, 0.0000000000000000000, 1.000000000000000000 ) ) ;
#686 = CARTESIAN_POINT ( 'NONE',  ( 9.029999999999999361, 9.530000000000001137, 4.830000000000000071 ) ) ;
#687 = EDGE_CURVE ( 'NONE', #130, #370, #397, .T. ) ;
#688 = VECTOR ( 'NONE', #498, 1000.000000000000000 ) ;
#689 = LINE ( 'NONE', #1132, #946 ) ;
#690 = VECTOR ( 'NONE', #583, 1000.000000000000000 ) ;
#691 = LINE ( 'NONE', #450, #799 ) ;
#692 = DIRECTION ( 'NONE',  ( -4.336808689942043867E-16, -1.000000000000000000, 0.0000000000000000000 ) ) ;
#693 = ADVANCED_FACE ( 'NONE', ( #845 ), #307, .F. ) ;
#694 = AXIS2_PLACEMENT_3D ( 'NONE', #1000, #240, #893 ) ;
#695 = VERTEX_POINT ( 'NONE', #117 ) ;
#696 = VERTEX_POINT ( 'NONE', #772 ) ;
#697 = CARTESIAN_POINT ( 'NONE',  ( 10.02999999999999936, 0.0000000000000000000, 4.830000000000000071 ) ) ;
#698 = ORIENTED_EDGE ( 'NONE', *, *, #202, .T. ) ;
#699 = ORIENTED_EDGE ( 'NONE', *, *, #923, .T. ) ;
#700 = DIRECTION ( 'NONE',  ( 1.000000000000000000, 0.0000000000000000000, 0.0000000000000000000 ) ) ;
#701 = EDGE_CURVE ( 'NONE', #256, #47, #381, .T. ) ;
#702 = ORIENTED_EDGE ( 'NONE', *, *, #1104, .F. ) ;
#703 = DIRECTION ( 'NONE',  ( 0.0000000000000000000, 0.0000000000000000000, -1.000000000000000000 ) ) ;
#704 = DIRECTION ( 'NONE',  ( -1.000000000000000000, 0.0000000000000000000, 0.0000000000000000000 ) ) ;
#705 = VECTOR ( 'NONE', #539, 1000.000000000000000 ) ;
#706 = VECTOR ( 'NONE', #925, 1000.000000000000000 ) ;
#707 = ADVANCED_FACE ( 'NONE', ( #795 ), #1179, .F. ) ;
#708 = EDGE_CURVE ( 'NONE', #358, #560, #1014, .T. ) ;
#709 = LINE ( 'NONE', #963, #460 ) ;
#710 = PRESENTATION_STYLE_ASSIGNMENT (( #831 ) ) ;
#711 = DIRECTION ( 'NONE',  ( 1.000000000000000000, 3.361026734705066506E-15, -0.0000000000000000000 ) ) ;
#712 = ORIENTED_EDGE ( 'NONE', *, *, #495, .F. ) ;
#713 = EDGE_LOOP ( 'NONE', ( #622, #465 ) ) ;
#714 = VERTEX_POINT ( 'NONE', #28 ) ;
#715 = PLANE ( 'NONE',  #934 ) ;
#716 = VERTEX_POINT ( 'NONE', #427 ) ;
#717 = VERTEX_POINT ( 'NONE', #57 ) ;
#718 =( NAMED_UNIT ( * ) SI_UNIT ( $, .STERADIAN. ) SOLID_ANGLE_UNIT ( ) );
#719 = CARTESIAN_POINT ( 'NONE',  ( 9.649999999999998579, 9.029999999999997584, 4.450000000000000178 ) ) ;
#720 = CARTESIAN_POINT ( 'NONE',  ( 16.42999999999999972, 5.019999999999997797, 1.150000000000000133 ) ) ;
#721 = LINE ( 'NONE', #570, #557 ) ;
#722 = CARTESIAN_POINT ( 'NONE',  ( 9.649999999999996803, 2.224999999999999201, 3.689999999999999947 ) ) ;
#723 = AXIS2_PLACEMENT_3D ( 'NONE', #900, #349, #1003 ) ;
#724 = CARTESIAN_POINT ( 'NONE',  ( 16.42999999999999616, 2.479999999999997318, 3.689999999999999947 ) ) ;
#725 = ORIENTED_EDGE ( 'NONE', *, *, #120, .F. ) ;
#726 = DIRECTION ( 'NONE',  ( 1.000000000000000000, -2.033673477112318534E-16, -0.0000000000000000000 ) ) ;
#727 = AXIS2_PLACEMENT_3D ( 'NONE', #782, #215, #685 ) ;
#728 = VERTEX_POINT ( 'NONE', #697 ) ;
#729 = PLANE ( 'NONE',  #657 ) ;
#730 = VERTEX_POINT ( 'NONE', #1164 ) ;
#731 = EDGE_CURVE ( 'NONE', #1033, #454, #1165, .T. ) ;
#732 = CARTESIAN_POINT ( 'NONE',  ( 1.000000000000000888, 9.029999999999995808, 4.830000000000000071 ) ) ;
#733 = AXIS2_PLACEMENT_3D ( 'NONE', #52, #324, #1064 ) ;
#734 = DIRECTION ( 'NONE',  ( 0.0000000000000000000, -1.000000000000000000, 0.0000000000000000000 ) ) ;
#735 = LINE ( 'NONE', #1008, #902 ) ;
#736 = VECTOR ( 'NONE', #20, 1000.000000000000000 ) ;
#737 = DIRECTION ( 'NONE',  ( 0.0000000000000000000, 0.0000000000000000000, 1.000000000000000000 ) ) ;
#738 = LINE ( 'NONE', #970, #6 ) ;
#739 = DIRECTION ( 'NONE',  ( -0.0000000000000000000, -0.0000000000000000000, -1.000000000000000000 ) ) ;
#740 = ORIENTED_EDGE ( 'NONE', *, *, #365, .T. ) ;
#741 = ORIENTED_EDGE ( 'NONE', *, *, #495, .T. ) ;
#742 = ORIENTED_EDGE ( 'NONE', *, *, #633, .T. ) ;
#743 = ORIENTED_EDGE ( 'NONE', *, *, #1169, .T. ) ;
#744 = CARTESIAN_POINT ( 'NONE',  ( -0.7600000000000000089, 1.550000000000000488, 0.2114042320129937702 ) ) ;
#745 = VERTEX_POINT ( 'NONE', #514 ) ;
#746 = DIRECTION ( 'NONE',  ( 0.0000000000000000000, -1.000000000000000000, 0.0000000000000000000 ) ) ;
#747 = MECHANICAL_DESIGN_GEOMETRIC_PRESENTATION_REPRESENTATION (  '', ( #653 ), #594 ) ;
#748 = CARTESIAN_POINT ( 'NONE',  ( 1.000000000000000888, 9.029999999999995808, 4.450000000000000178 ) ) ;
#749 = LINE ( 'NONE', #819, #92 ) ;
#750 = FACE_OUTER_BOUND ( 'NONE', #551, .T. ) ;
#751 = EDGE_CURVE ( 'NONE', #510, #526, #414, .T. ) ;
#752 = ORIENTED_EDGE ( 'NONE', *, *, #180, .T. ) ;
#753 = EDGE_LOOP ( 'NONE', ( #725, #492, #478, #442 ) ) ;
#754 = ORIENTED_EDGE ( 'NONE', *, *, #39, .F. ) ;
#755 = MECHANICAL_DESIGN_GEOMETRIC_PRESENTATION_REPRESENTATION (  '', ( #339 ), #315 ) ;
#756 = CARTESIAN_POINT ( 'NONE',  ( -1.520000000000000018, 1.270000000000000240, 1.270000000000000018 ) ) ;
#757 = ORIENTED_EDGE ( 'NONE', *, *, #1022, .F. ) ;
#758 = ORIENTED_EDGE ( 'NONE', *, *, #437, .F. ) ;
#759 = CARTESIAN_POINT ( 'NONE',  ( 10.02999999999999758, 0.5000000000000000000, 4.830000000000000071 ) ) ;
#760 = CARTESIAN_POINT ( 'NONE',  ( 9.029999999999999361, 9.530000000000001137, 4.450000000000000178 ) ) ;
#761 = EDGE_CURVE ( 'NONE', #787, #1, #428, .T. ) ;
#762 = CARTESIAN_POINT ( 'NONE',  ( -0.7600000000000000089, 1.270000000000000240, 1.270000000000000018 ) ) ;
#763 =( LENGTH_UNIT ( ) NAMED_UNIT ( * ) SI_UNIT ( .MILLI., .METRE. ) );
#764 = FACE_OUTER_BOUND ( 'NONE', #316, .T. ) ;
#765 = VECTOR ( 'NONE', #258, 1000.000000000000000 ) ;
#766 = DIRECTION ( 'NONE',  ( 0.0000000000000000000, -1.000000000000000000, 0.0000000000000000000 ) ) ;
#767 = ORIENTED_EDGE ( 'NONE', *, *, #347, .F. ) ;
#768 = DIRECTION ( 'NONE',  ( 1.000000000000000000, -2.033673477112318534E-16, -0.0000000000000000000 ) ) ;
#769 = EDGE_CURVE ( 'NONE', #1002, #908, #983, .T. ) ;
#770 = ORIENTED_EDGE ( 'NONE', *, *, #1143, .T. ) ;
#771 = ORIENTED_EDGE ( 'NONE', *, *, #625, .F. ) ;
#772 = CARTESIAN_POINT ( 'NONE',  ( 16.42999999999999972, 7.559999999999996945, 3.689999999999999947 ) ) ;
#773 = ORIENTED_EDGE ( 'NONE', *, *, #120, .T. ) ;
#774 = CARTESIAN_POINT ( 'NONE',  ( 1.734723475976807094E-15, 0.4999999999999988343, 4.450000000000000178 ) ) ;
#775 = ORIENTED_EDGE ( 'NONE', *, *, #761, .F. ) ;
#776 = SURFACE_STYLE_USAGE ( .BOTH. , #124 ) ;
#777 = DIRECTION ( 'NONE',  ( 1.000000000000000000, -2.033673477112318534E-16, -0.0000000000000000000 ) ) ;
#778 = LINE ( 'NONE', #841, #547 ) ;
#779 = DIRECTION ( 'NONE',  ( 0.0000000000000000000, 1.000000000000000000, 0.0000000000000000000 ) ) ;
#780 = AXIS2_PLACEMENT_3D ( 'NONE', #1187, #446, #817 ) ;
#781 = FACE_OUTER_BOUND ( 'NONE', #196, .T. ) ;
#782 = CARTESIAN_POINT ( 'NONE',  ( 0.0000000000000000000, 1.270000000000000240, 1.270000000000000018 ) ) ;
#783 = ORIENTED_EDGE ( 'NONE', *, *, #886, .F. ) ;
#784 = ORIENTED_EDGE ( 'NONE', *, *, #241, .F. ) ;
#785 = APPLICATION_PROTOCOL_DEFINITION ( 'draft international standard', 'automotive_design', 1998, #593 ) ;
#786 = EDGE_CURVE ( 'NONE', #200, #475, #1069, .T. ) ;
#787 = VERTEX_POINT ( 'NONE', #973 ) ;
#788 = ADVANCED_FACE ( 'NONE', ( #764 ), #789, .F. ) ;
#789 = PLANE ( 'NONE',  #1010 ) ;
#790 = ORIENTED_EDGE ( 'NONE', *, *, #162, .T. ) ;
#791 = DIRECTION ( 'NONE',  ( 1.000000000000000000, -0.0000000000000000000, -0.0000000000000000000 ) ) ;
#792 = CARTESIAN_POINT ( 'NONE',  ( 10.02999999999999936, 0.0000000000000000000, 4.830000000000000071 ) ) ;
#793 = ADVANCED_FACE ( 'NONE', ( #1037 ), #872, .T. ) ;
#794 = EDGE_CURVE ( 'NONE', #560, #1002, #654, .T. ) ;
#795 = FACE_OUTER_BOUND ( 'NONE', #932, .T. ) ;
#796 = FACE_OUTER_BOUND ( 'NONE', #958, .T. ) ;
#797 = DIRECTION ( 'NONE',  ( 2.033673477112318287E-16, -1.000000000000000000, 0.0000000000000000000 ) ) ;
#798 = CIRCLE ( 'NONE', #51, 1.094999999999999751 ) ;
#799 = VECTOR ( 'NONE', #251, 1000.000000000000000 ) ;
#800 = PRESENTATION_LAYER_ASSIGNMENT (  '', '', ( #339 ) ) ;
#801 = ORIENTED_EDGE ( 'NONE', *, *, #39, .T. ) ;
#802 = ADVANCED_FACE ( 'NONE', ( #1148 ), #609, .F. ) ;
#803 = ORIENTED_EDGE ( 'NONE', *, *, #520, .F. ) ;
#804 = DIRECTION ( 'NONE',  ( -1.000000000000000000, 0.0000000000000000000, 0.0000000000000000000 ) ) ;
#805 = SURFACE_SIDE_STYLE ('',( #430 ) ) ;
#806 = DIRECTION ( 'NONE',  ( -1.980277940612793985E-16, -1.000000000000000000, 0.0000000000000000000 ) ) ;
#807 = PRODUCT_CONTEXT ( 'NONE', #593, 'mechanical' ) ;
#808 = CARTESIAN_POINT ( 'NONE',  ( 1.000000000000000666, 9.529999999999994031, 4.830000000000000071 ) ) ;
#809 = DIRECTION ( 'NONE',  ( -1.980277940612793985E-16, -1.000000000000000000, 0.0000000000000000000 ) ) ;
#810 = AXIS2_PLACEMENT_3D ( 'NONE', #1175, #217, #405 ) ;
#811 = FACE_OUTER_BOUND ( 'NONE', #371, .T. ) ;
#812 = VECTOR ( 'NONE', #828, 1000.000000000000000 ) ;
#813 = ORIENTED_EDGE ( 'NONE', *, *, #554, .T. ) ;
#814 = DIRECTION ( 'NONE',  ( -1.000000000000000000, -8.641212831764918044E-16, 0.0000000000000000000 ) ) ;
#815 = EDGE_CURVE ( 'NONE', #1139, #35, #516, .T. ) ;
#816 = ORIENTED_EDGE ( 'NONE', *, *, #55, .F. ) ;
#817 = DIRECTION ( 'NONE',  ( -1.000000000000000000, 0.0000000000000000000, -0.0000000000000000000 ) ) ;
#818 = AXIS2_PLACEMENT_3D ( 'NONE', #346, #988, #1085 ) ;
#819 = CARTESIAN_POINT ( 'NONE',  ( 9.029999999999999361, 9.029999999999997584, 4.450000000000000178 ) ) ;
#820 = VECTOR ( 'NONE', #1056, 1000.000000000000000 ) ;
#821 = CIRCLE ( 'NONE', #323, 0.2550000000000000044 ) ;
#822 = LINE ( 'NONE', #1117, #1072 ) ;
#823 = DIRECTION ( 'NONE',  ( -1.000000000000000000, 2.033673477112318534E-16, 0.0000000000000000000 ) ) ;
#824 = DIRECTION ( 'NONE',  ( 0.0000000000000000000, 0.0000000000000000000, -1.000000000000000000 ) ) ;
#825 = AXIS2_PLACEMENT_3D ( 'NONE', #1129, #197, #3 ) ;
#826 = ORIENTED_EDGE ( 'NONE', *, *, #708, .F. ) ;
#827 = ORIENTED_EDGE ( 'NONE', *, *, #71, .F. ) ;
#828 = DIRECTION ( 'NONE',  ( -1.000000000000000000, 2.033673477112318534E-16, -0.0000000000000000000 ) ) ;
#829 = ORIENTED_EDGE ( 'NONE', *, *, #226, .F. ) ;
#830 = DIRECTION ( 'NONE',  ( 0.0000000000000000000, -1.000000000000000000, 0.0000000000000000000 ) ) ;
#831 = SURFACE_STYLE_USAGE ( .BOTH. , #805 ) ;
#832 = DIRECTION ( 'NONE',  ( -1.000000000000000000, 2.033673477112318534E-16, -0.0000000000000000000 ) ) ;
#833 = DIRECTION ( 'NONE',  ( 1.000000000000000000, -0.0000000000000000000, -0.0000000000000000000 ) ) ;
#834 = FACE_OUTER_BOUND ( 'NONE', #357, .T. ) ;
#835 = CARTESIAN_POINT ( 'NONE',  ( 9.029999999999999361, -1.734723475976807094E-15, 4.450000000000000178 ) ) ;
#836 = ORIENTED_EDGE ( 'NONE', *, *, #637, .F. ) ;
#837 = MECHANICAL_DESIGN_GEOMETRIC_PRESENTATION_REPRESENTATION (  '', ( #270 ), #627 ) ;
#838 = CARTESIAN_POINT ( 'NONE',  ( 9.029999999999999361, 9.530000000000001137, 4.830000000000000071 ) ) ;
#839 = EDGE_LOOP ( 'NONE', ( #827, #1020, #97, #223 ) ) ;
#840 = ORIENTED_EDGE ( 'NONE', *, *, #194, .T. ) ;
#841 = CARTESIAN_POINT ( 'NONE',  ( 0.0000000000000000000, 0.0000000000000000000, 4.830000000000000071 ) ) ;
#842 = ORIENTED_EDGE ( 'NONE', *, *, #412, .T. ) ;
#843 = CARTESIAN_POINT ( 'NONE',  ( 0.0000000000000000000, 0.0000000000000000000, 0.0000000000000000000 ) ) ;
#844 = DIRECTION ( 'NONE',  ( 0.0000000000000000000, -1.000000000000000000, 0.0000000000000000000 ) ) ;
#845 = FACE_OUTER_BOUND ( 'NONE', #449, .T. ) ;
#846 = VECTOR ( 'NONE', #257, 1000.000000000000000 ) ;
#847 = FACE_OUTER_BOUND ( 'NONE', #1183, .T. ) ;
#848 =( NAMED_UNIT ( * ) PLANE_ANGLE_UNIT ( ) SI_UNIT ( $, .RADIAN. ) );
#849 = UNCERTAINTY_MEASURE_WITH_UNIT (LENGTH_MEASURE( 1.000000000000000082E-05 ), #1161, 'distance_accuracy_value', 'NONE');
#850 = PRESENTATION_STYLE_ASSIGNMENT (( #236 ) ) ;
#851 = DIRECTION ( 'NONE',  ( -1.000000000000000000, 0.0000000000000000000, 0.0000000000000000000 ) ) ;
#852 = EDGE_CURVE ( 'NONE', #475, #993, #735, .T. ) ;
#853 = VERTEX_POINT ( 'NONE', #724 ) ;
#854 = CARTESIAN_POINT ( 'NONE',  ( 9.649999999999998579, 7.304999999999998828, 3.689999999999999947 ) ) ;
#855 = VERTEX_POINT ( 'NONE', #1105 ) ;
#856 = DIRECTION ( 'NONE',  ( 3.361026734705066112E-15, -1.000000000000000000, 0.0000000000000000000 ) ) ;
#857 = DIRECTION ( 'NONE',  ( -1.980277940612793985E-16, -1.000000000000000000, 0.0000000000000000000 ) ) ;
#858 = ORIENTED_EDGE ( 'NONE', *, *, #187, .F. ) ;
#859 =( NAMED_UNIT ( * ) PLANE_ANGLE_UNIT ( ) SI_UNIT ( $, .RADIAN. ) );
#860 = VECTOR ( 'NONE', #13, 1000.000000000000000 ) ;
#861 = LINE ( 'NONE', #80, #306 ) ;
#862 = VECTOR ( 'NONE', #869, 1000.000000000000000 ) ;
#863 = DIRECTION ( 'NONE',  ( -0.0000000000000000000, -0.0000000000000000000, 1.000000000000000000 ) ) ;
#864 = EDGE_CURVE ( 'NONE', #1101, #716, #485, .T. ) ;
#865 = ORIENTED_EDGE ( 'NONE', *, *, #79, .F. ) ;
#866 = CARTESIAN_POINT ( 'NONE',  ( 9.649999999999996803, 0.5000000000000000000, 0.0000000000000000000 ) ) ;
#867 = EDGE_LOOP ( 'NONE', ( #12, #1174, #90, #312, #617, #332 ) ) ;
#868 = CARTESIAN_POINT ( 'NONE',  ( 16.42999999999999972, 4.764999999999997904, 1.150000000000000133 ) ) ;
#869 = DIRECTION ( 'NONE',  ( 2.033673477112318287E-16, 1.000000000000000000, -0.0000000000000000000 ) ) ;
#870 = EDGE_CURVE ( 'NONE', #745, #280, #945, .T. ) ;
#871 = DIRECTION ( 'NONE',  ( -1.000000000000000000, -0.0000000000000000000, -0.0000000000000000000 ) ) ;
#872 = PLANE ( 'NONE',  #650 ) ;
#873 = CIRCLE ( 'NONE', #1061, 0.2550000000000000044 ) ;
#874 = CIRCLE ( 'NONE', #810, 0.2550000000000000044 ) ;
#875 = SURFACE_STYLE_FILL_AREA ( #528 ) ;
#876 = MANIFOLD_SOLID_BREP ( 'Cut-Extrude3', #1001 ) ;
#877 = DIRECTION ( 'NONE',  ( -0.0000000000000000000, 1.000000000000000000, -0.0000000000000000000 ) ) ;
#878 = DIRECTION ( 'NONE',  ( 0.0000000000000000000, 0.0000000000000000000, 1.000000000000000000 ) ) ;
#879 = AXIS2_PLACEMENT_3D ( 'NONE', #1147, #477, #14 ) ;
#880 = ORIENTED_EDGE ( 'NONE', *, *, #662, .F. ) ;
#881 = DIRECTION ( 'NONE',  ( 1.000000000000000000, -0.0000000000000000000, -0.0000000000000000000 ) ) ;
#882 = ADVANCED_FACE ( 'NONE', ( #204 ), #715, .F. ) ;
#883 = PRODUCT_DEFINITION_FORMATION_WITH_SPECIFIED_SOURCE ( 'ANY', '', #984, .NOT_KNOWN. ) ;
#884 = CARTESIAN_POINT ( 'NONE',  ( 1.000000000000000666, 9.529999999999994031, 4.450000000000000178 ) ) ;
#885 = CARTESIAN_POINT ( 'NONE',  ( 9.649999999999998579, 7.304999999999998828, 3.689999999999999947 ) ) ;
#886 = EDGE_CURVE ( 'NONE', #506, #256, #1073, .T. ) ;
#887 = FACE_OUTER_BOUND ( 'NONE', #753, .T. ) ;
#888 = CYLINDRICAL_SURFACE ( 'NONE', #350, 1.094999999999999751 ) ;
#889 =( LENGTH_UNIT ( ) NAMED_UNIT ( * ) SI_UNIT ( .MILLI., .METRE. ) );
#890 = FACE_OUTER_BOUND ( 'NONE', #481, .T. ) ;
#891 = CARTESIAN_POINT ( 'NONE',  ( 0.0000000000000000000, 1.270000000000000240, 0.1750000000000002387 ) ) ;
#892 = LINE ( 'NONE', #1163, #72 ) ;
#893 = DIRECTION ( 'NONE',  ( 0.0000000000000000000, 0.0000000000000000000, 1.000000000000000000 ) ) ;
#894 = EDGE_LOOP ( 'NONE', ( #664, #836, #311, #145 ) ) ;
#895 = DIRECTION ( 'NONE',  ( 0.0000000000000000000, 1.000000000000000000, 0.0000000000000000000 ) ) ;
#896 = ORIENTED_EDGE ( 'NONE', *, *, #392, .F. ) ;
#897 = PRESENTATION_LAYER_ASSIGNMENT (  '', '', ( #230 ) ) ;
#898 = DIRECTION ( 'NONE',  ( -1.000000000000000000, 2.033673477112318534E-16, -0.0000000000000000000 ) ) ;
#899 = DIRECTION ( 'NONE',  ( 0.0000000000000000000, 0.0000000000000000000, 1.000000000000000000 ) ) ;
#900 = CARTESIAN_POINT ( 'NONE',  ( 9.649999999999996803, 2.224999999999999201, 3.689999999999999947 ) ) ;
#901 = PLANE ( 'NONE',  #133 ) ;
#902 = VECTOR ( 'NONE', #711, 1000.000000000000000 ) ;
#903 = FACE_OUTER_BOUND ( 'NONE', #956, .T. ) ;
#904 = ORIENTED_EDGE ( 'NONE', *, *, #48, .F. ) ;
#905 = AXIS2_PLACEMENT_3D ( 'NONE', #95, #652, #844 ) ;
#906 = ORIENTED_EDGE ( 'NONE', *, *, #144, .T. ) ;
#907 = DIRECTION ( 'NONE',  ( 0.0000000000000000000, -0.0000000000000000000, -1.000000000000000000 ) ) ;
#908 = VERTEX_POINT ( 'NONE', #808 ) ;
#909 = ORIENTED_EDGE ( 'NONE', *, *, #981, .T. ) ;
#910 = CARTESIAN_POINT ( 'NONE',  ( 9.649999999999998579, 7.049999999999998934, 3.689999999999999947 ) ) ;
#911 = DIRECTION ( 'NONE',  ( -1.000000000000000000, -0.0000000000000000000, -0.0000000000000000000 ) ) ;
#912 = AXIS2_PLACEMENT_3D ( 'NONE', #64, #60, #1188 ) ;
#913 = MANIFOLD_SOLID_BREP ( 'Boss-Extrude3[3]', #242 ) ;
#914 = CARTESIAN_POINT ( 'NONE',  ( 0.0000000000000000000, 0.0000000000000000000, 4.830000000000000071 ) ) ;
#915 = CARTESIAN_POINT ( 'NONE',  ( 9.649999999999998579, 4.764999999999999680, 1.150000000000000133 ) ) ;
#916 = ADVANCED_FACE ( 'NONE', ( #249 ), #91, .F. ) ;
#917 = ORIENTED_EDGE ( 'NONE', *, *, #576, .T. ) ;
#918 = CARTESIAN_POINT ( 'NONE',  ( 9.649999999999998579, 7.559999999999998721, 3.689999999999999947 ) ) ;
#919 = ORIENTED_EDGE ( 'NONE', *, *, #1193, .F. ) ;
#920 = ORIENTED_EDGE ( 'NONE', *, *, #536, .F. ) ;
#921 = DIRECTION ( 'NONE',  ( -1.000000000000000000, 0.0000000000000000000, -0.0000000000000000000 ) ) ;
#922 = EDGE_LOOP ( 'NONE', ( #937, #1078, #267, #712, #285, #773 ) ) ;
#923 = EDGE_CURVE ( 'NONE', #1096, #1043, #642, .T. ) ;
#924 = DIRECTION ( 'NONE',  ( 1.000000000000000000, 0.0000000000000000000, 0.0000000000000000000 ) ) ;
#925 = DIRECTION ( 'NONE',  ( -0.0000000000000000000, -0.0000000000000000000, 1.000000000000000000 ) ) ;
#926 = DIRECTION ( 'NONE',  ( 1.000000000000000000, -0.0000000000000000000, 0.0000000000000000000 ) ) ;
#927 = PRESENTATION_STYLE_ASSIGNMENT (( #776 ) ) ;
#928 = CYLINDRICAL_SURFACE ( 'NONE', #82, 0.2550000000000000044 ) ;
#929 = EDGE_CURVE ( 'NONE', #716, #940, #585, .T. ) ;
#930 = FACE_OUTER_BOUND ( 'NONE', #577, .T. ) ;
#931 = CARTESIAN_POINT ( 'NONE',  ( 9.029999999999999361, 9.530000000000001137, 4.450000000000000178 ) ) ;
#932 = EDGE_LOOP ( 'NONE', ( #1144, #702, #826, #741 ) ) ;
#933 = SURFACE_STYLE_USAGE ( .BOTH. , #493 ) ;
#934 = AXIS2_PLACEMENT_3D ( 'NONE', #337, #158, #899 ) ;
#935 = DIRECTION ( 'NONE',  ( -1.000000000000000000, 0.0000000000000000000, 0.0000000000000000000 ) ) ;
#936 = ORIENTED_EDGE ( 'NONE', *, *, #1104, .T. ) ;
#937 = ORIENTED_EDGE ( 'NONE', *, *, #173, .T. ) ;
#938 = ORIENTED_EDGE ( 'NONE', *, *, #444, .F. ) ;
#939 =( NAMED_UNIT ( * ) SI_UNIT ( $, .STERADIAN. ) SOLID_ANGLE_UNIT ( ) );
#940 = VERTEX_POINT ( 'NONE', #1118 ) ;
#941 = CARTESIAN_POINT ( 'NONE',  ( 1.000000000000000888, 0.5000000000000022204, 4.450000000000000178 ) ) ;
#942 = DIRECTION ( 'NONE',  ( -1.000000000000000000, 1.936075308009828924E-16, 0.0000000000000000000 ) ) ;
#943 = ADVANCED_FACE ( 'NONE', ( #1016 ), #888, .T. ) ;
#944 = CARTESIAN_POINT ( 'NONE',  ( 1.000000000000000888, 9.029999999999995808, 4.450000000000000178 ) ) ;
#945 = LINE ( 'NONE', #1103, #705 ) ;
#946 = VECTOR ( 'NONE', #289, 1000.000000000000000 ) ;
#947 = DIRECTION ( 'NONE',  ( 0.0000000000000000000, -1.000000000000000000, 0.0000000000000000000 ) ) ;
#948 = LINE ( 'NONE', #663, #40 ) ;
#949 = DIRECTION ( 'NONE',  ( 0.0000000000000000000, -0.0000000000000000000, -1.000000000000000000 ) ) ;
#950 = FACE_OUTER_BOUND ( 'NONE', #977, .T. ) ;
#951 =( NAMED_UNIT ( * ) SI_UNIT ( $, .STERADIAN. ) SOLID_ANGLE_UNIT ( ) );
#952 = EDGE_CURVE ( 'NONE', #159, #313, #861, .T. ) ;
#953 = EDGE_LOOP ( 'NONE', ( #880, #15, #439, #1057, #803, #1063, #1047, #333 ) ) ;
#954 = CARTESIAN_POINT ( 'NONE',  ( 16.42999999999999972, 7.304999999999997051, 3.689999999999999947 ) ) ;
#955 = DIRECTION ( 'NONE',  ( -0.0000000000000000000, -0.0000000000000000000, 1.000000000000000000 ) ) ;
#956 = EDGE_LOOP ( 'NONE', ( #212, #491, #575, #279 ) ) ;
#957 = AXIS2_PLACEMENT_3D ( 'NONE', #914, #543, #921 ) ;
#958 = EDGE_LOOP ( 'NONE', ( #359, #604, #1009, #1032 ) ) ;
#959 = CARTESIAN_POINT ( 'NONE',  ( 16.42999999999999616, 1.969999999999998197, 3.689999999999999947 ) ) ;
#960 = ORIENTED_EDGE ( 'NONE', *, *, #1004, .F. ) ;
#961 = CARTESIAN_POINT ( 'NONE',  ( 9.649999999999998579, 5.019999999999999574, 1.150000000000000133 ) ) ;
#962 = DIRECTION ( 'NONE',  ( 0.0000000000000000000, 1.000000000000000000, 0.0000000000000000000 ) ) ;
#963 = CARTESIAN_POINT ( 'NONE',  ( 10.02999999999999936, 0.0000000000000000000, 4.830000000000000071 ) ) ;
#964 = CARTESIAN_POINT ( 'NONE',  ( 9.649999999999996803, 2.479999999999998650, 3.689999999999999947 ) ) ;
#965 = AXIS2_PLACEMENT_3D ( 'NONE', #1025, #568, #7 ) ;
#966 =( NAMED_UNIT ( * ) PLANE_ANGLE_UNIT ( ) SI_UNIT ( $, .RADIAN. ) );
#967 = LINE ( 'NONE', #553, #846 ) ;
#968 = ADVANCED_FACE ( 'NONE', ( #847 ), #84, .F. ) ;
#969 = CIRCLE ( 'NONE', #360, 0.2549999999999995604 ) ;
#970 = CARTESIAN_POINT ( 'NONE',  ( -1.520000000000000018, 1.270000000000000462, 2.364999999999999769 ) ) ;
#971 = CARTESIAN_POINT ( 'NONE',  ( 0.0000000000000000000, 9.529999999999999361, 4.830000000000000071 ) ) ;
#972 = ORIENTED_EDGE ( 'NONE', *, *, #731, .T. ) ;
#973 = CARTESIAN_POINT ( 'NONE',  ( -0.7600000000000000089, 0.9900000000000002132, 0.2114042320129939923 ) ) ;
#974 = ORIENTED_EDGE ( 'NONE', *, *, #701, .F. ) ;
#975 = CARTESIAN_POINT ( 'NONE',  ( 10.02999999999999936, 0.0000000000000000000, 0.0000000000000000000 ) ) ;
#976 = ADVANCED_FACE ( 'NONE', ( #796 ), #461, .F. ) ;
#977 = EDGE_LOOP ( 'NONE', ( #1195, #740, #590, #990, #1115, #589 ) ) ;
#978 = EDGE_LOOP ( 'NONE', ( #757, #227, #141, #408 ) ) ;
#979 = CARTESIAN_POINT ( 'NONE',  ( 9.029999999999999361, 9.530000000000001137, 4.450000000000000178 ) ) ;
#980 = DIRECTION ( 'NONE',  ( -1.000000000000000000, 1.936075308009828924E-16, 0.0000000000000000000 ) ) ;
#981 = EDGE_CURVE ( 'NONE', #592, #1157, #967, .T. ) ;
#982 = CARTESIAN_POINT ( 'NONE',  ( 10.02999999999999936, 9.529999999999999361, 0.0000000000000000000 ) ) ;
#983 = LINE ( 'NONE', #41, #544 ) ;
#984 = PRODUCT ( '3296Y-1-102LF', '3296Y-1-102LF', '', ( #807 ) ) ;
#985 = AXIS2_PLACEMENT_3D ( 'NONE', #326, #1178, #806 ) ;
#986 = VECTOR ( 'NONE', #924, 1000.000000000000000 ) ;
#987 = CARTESIAN_POINT ( 'NONE',  ( 1.000000000000000666, 5.204170427930421283E-15, 4.450000000000000178 ) ) ;
#988 = DIRECTION ( 'NONE',  ( -1.000000000000000000, 0.0000000000000000000, 0.0000000000000000000 ) ) ;
#989 = ADVANCED_FACE ( 'NONE', ( #903 ), #729, .T. ) ;
#990 = ORIENTED_EDGE ( 'NONE', *, *, #886, .T. ) ;
#991 = ORIENTED_EDGE ( 'NONE', *, *, #1066, .T. ) ;
#992 = FILL_AREA_STYLE_COLOUR ( '', #1017 ) ;
#993 = VERTEX_POINT ( 'NONE', #1012 ) ;
#994 = ORIENTED_EDGE ( 'NONE', *, *, #681, .T. ) ;
#995 = DIRECTION ( 'NONE',  ( 2.033673477112318534E-16, 1.000000000000000000, 0.0000000000000000000 ) ) ;
#996 = CARTESIAN_POINT ( 'NONE',  ( -0.7600000000000000089, 1.270000000000000240, 1.270000000000000018 ) ) ;
#997 = PLANE ( 'NONE',  #525 ) ;
#998 = PRESENTATION_LAYER_ASSIGNMENT (  '', '', ( #653 ) ) ;
#999 = FACE_OUTER_BOUND ( 'NONE', #116, .T. ) ;
#1000 = CARTESIAN_POINT ( 'NONE',  ( -1.520000000000000018, 1.270000000000000240, 1.270000000000000018 ) ) ;
#1001 = CLOSED_SHELL ( 'NONE', ( #65, #943, #1092, #385, #143, #219, #989, #793 ) ) ;
#1002 = VERTEX_POINT ( 'NONE', #1196 ) ;
#1003 = DIRECTION ( 'NONE',  ( -2.033673477112318534E-16, -1.000000000000000000, 0.0000000000000000000 ) ) ;
#1004 = EDGE_CURVE ( 'NONE', #1199, #535, #353, .T. ) ;
#1005 = CARTESIAN_POINT ( 'NONE',  ( 0.0000000000000000000, 0.0000000000000000000, 4.830000000000000071 ) ) ;
#1006 = ORIENTED_EDGE ( 'NONE', *, *, #687, .F. ) ;
#1007 = CLOSED_SHELL ( 'NONE', ( #591, #1067, #693, #432 ) ) ;
#1008 = CARTESIAN_POINT ( 'NONE',  ( 1.000000000000000888, 0.5000000000000022204, 4.450000000000000178 ) ) ;
#1009 = ORIENTED_EDGE ( 'NONE', *, *, #607, .F. ) ;
#1010 = AXIS2_PLACEMENT_3D ( 'NONE', #884, #330, #505 ) ;
#1011 = DIRECTION ( 'NONE',  ( 0.0000000000000000000, -1.000000000000000000, 0.0000000000000000000 ) ) ;
#1012 = CARTESIAN_POINT ( 'NONE',  ( 1.000000000000000888, 0.5000000000000022204, 4.450000000000000178 ) ) ;
#1013 = AXIS2_PLACEMENT_3D ( 'NONE', #304, #980, #587 ) ;
#1014 = LINE ( 'NONE', #979, #639 ) ;
#1015 = CIRCLE ( 'NONE', #188, 0.2549999999999995604 ) ;
#1016 = FACE_OUTER_BOUND ( 'NONE', #142, .T. ) ;
#1017 = COLOUR_RGB ( '',0.7529411764705882248, 0.7529411764705882248, 0.7529411764705882248 ) ;
#1018 = DIRECTION ( 'NONE',  ( 0.0000000000000000000, 1.000000000000000000, 0.0000000000000000000 ) ) ;
#1019 = VERTEX_POINT ( 'NONE', #1201 ) ;
#1020 = ORIENTED_EDGE ( 'NONE', *, *, #412, .F. ) ;
#1021 = DIRECTION ( 'NONE',  ( 0.0000000000000000000, -1.000000000000000000, 0.0000000000000000000 ) ) ;
#1022 = EDGE_CURVE ( 'NONE', #696, #510, #321, .T. ) ;
#1023 = VERTEX_POINT ( 'NONE', #354 ) ;
#1024 = AXIS2_PLACEMENT_3D ( 'NONE', #944, #669, #483 ) ;
#1025 = CARTESIAN_POINT ( 'NONE',  ( 16.42999999999999972, 7.304999999999997051, 3.689999999999999947 ) ) ;
#1026 = VECTOR ( 'NONE', #824, 1000.000000000000000 ) ;
#1027 = VECTOR ( 'NONE', #203, 1000.000000000000000 ) ;
#1028 = ORIENTED_EDGE ( 'NONE', *, *, #392, .T. ) ;
#1029 = CARTESIAN_POINT ( 'NONE',  ( 0.0000000000000000000, 0.0000000000000000000, 4.830000000000000071 ) ) ;
#1030 = ORIENTED_EDGE ( 'NONE', *, *, #870, .T. ) ;
#1031 = UNCERTAINTY_MEASURE_WITH_UNIT (LENGTH_MEASURE( 1.000000000000000082E-05 ), #672, 'distance_accuracy_value', 'NONE');
#1032 = ORIENTED_EDGE ( 'NONE', *, *, #287, .T. ) ;
#1033 = VERTEX_POINT ( 'NONE', #201 ) ;
#1034 = AXIS2_PLACEMENT_3D ( 'NONE', #384, #482, #118 ) ;
#1035 = DIRECTION ( 'NONE',  ( 1.000000000000000000, -0.0000000000000000000, -0.0000000000000000000 ) ) ;
#1036 = PLANE ( 'NONE',  #259 ) ;
#1037 = FACE_OUTER_BOUND ( 'NONE', #348, .T. ) ;
#1038 = VECTOR ( 'NONE', #407, 1000.000000000000000 ) ;
#1039 = EDGE_CURVE ( 'NONE', #632, #468, #1106, .T. ) ;
#1040 = ORIENTED_EDGE ( 'NONE', *, *, #662, .T. ) ;
#1041 = DIRECTION ( 'NONE',  ( -1.000000000000000000, 2.033673477112318534E-16, -0.0000000000000000000 ) ) ;
#1042 = DIRECTION ( 'NONE',  ( 1.000000000000000000, 3.361026734705066112E-15, 0.0000000000000000000 ) ) ;
#1043 = VERTEX_POINT ( 'NONE', #838 ) ;
#1044 = ORIENTED_EDGE ( 'NONE', *, *, #769, .T. ) ;
#1045 = CARTESIAN_POINT ( 'NONE',  ( 16.42999999999999972, 7.049999999999997158, 3.689999999999999947 ) ) ;
#1046 = CARTESIAN_POINT ( 'NONE',  ( 0.0000000000000000000, 0.0000000000000000000, 4.830000000000000071 ) ) ;
#1047 = ORIENTED_EDGE ( 'NONE', *, *, #542, .T. ) ;
#1048 = DIRECTION ( 'NONE',  ( 0.0000000000000000000, -1.000000000000000000, 0.0000000000000000000 ) ) ;
#1049 = DIRECTION ( 'NONE',  ( -1.000000000000000000, 2.033673477112318534E-16, 0.0000000000000000000 ) ) ;
#1050 = FILL_AREA_STYLE_COLOUR ( '', #1120 ) ;
#1051 = LINE ( 'NONE', #362, #399 ) ;
#1052 = CARTESIAN_POINT ( 'NONE',  ( 0.0000000000000000000, 9.029999999999995808, 4.450000000000000178 ) ) ;
#1053 = PRESENTATION_STYLE_ASSIGNMENT (( #1095 ) ) ;
#1054 = CARTESIAN_POINT ( 'NONE',  ( 9.029999999999999361, 0.5000000000000004441, 4.450000000000000178 ) ) ;
#1055 = EDGE_CURVE ( 'NONE', #1157, #1139, #486, .T. ) ;
#1056 = DIRECTION ( 'NONE',  ( 1.000000000000000000, 0.0000000000000000000, 0.0000000000000000000 ) ) ;
#1057 = ORIENTED_EDGE ( 'NONE', *, *, #66, .T. ) ;
#1058 = PLANE ( 'NONE',  #550 ) ;
#1059 = ADVANCED_FACE ( 'NONE', ( #103 ), #275, .F. ) ;
#1060 = ORIENTED_EDGE ( 'NONE', *, *, #607, .T. ) ;
#1061 = AXIS2_PLACEMENT_3D ( 'NONE', #868, #768, #1048 ) ;
#1062 = CARTESIAN_POINT ( 'NONE',  ( 1.734723475976807094E-15, 0.4999999999999988343, 4.830000000000000071 ) ) ;
#1063 = ORIENTED_EDGE ( 'NONE', *, *, #218, .T. ) ;
#1064 = DIRECTION ( 'NONE',  ( 0.0000000000000000000, 0.0000000000000000000, -1.000000000000000000 ) ) ;
#1065 = ORIENTED_EDGE ( 'NONE', *, *, #731, .F. ) ;
#1066 = EDGE_CURVE ( 'NONE', #993, #1033, #689, .T. ) ;
#1067 = ADVANCED_FACE ( 'NONE', ( #233 ), #1149, .T. ) ;
#1068 = AXIS2_PLACEMENT_3D ( 'NONE', #17, #832, #186 ) ;
#1069 = LINE ( 'NONE', #228, #175 ) ;
#1070 = LINE ( 'NONE', #490, #640 ) ;
#1071 = CARTESIAN_POINT ( 'NONE',  ( -1.520000000000000018, 0.9900000000000002132, 0.2114042320129937702 ) ) ;
#1072 = VECTOR ( 'NONE', #1018, 1000.000000000000000 ) ;
#1073 = CIRCLE ( 'NONE', #1198, 1.094999999999999751 ) ;
#1074 = CYLINDRICAL_SURFACE ( 'NONE', #111, 1.094999999999999751 ) ;
#1075 = ADVANCED_FACE ( 'NONE', ( #1090 ), #379, .F. ) ;
#1076 =( GEOMETRIC_REPRESENTATION_CONTEXT ( 3 ) GLOBAL_UNCERTAINTY_ASSIGNED_CONTEXT ( ( #1162 ) ) GLOBAL_UNIT_ASSIGNED_CONTEXT ( ( #763, #848, #939 ) ) REPRESENTATION_CONTEXT ( 'NONE', 'WORKASPACE' ) );
#1077 = VERTEX_POINT ( 'NONE', #563 ) ;
#1078 = ORIENTED_EDGE ( 'NONE', *, *, #457, .F. ) ;
#1079 = PLANE ( 'NONE',  #395 ) ;
#1080 = DIRECTION ( 'NONE',  ( 0.0000000000000000000, 0.0000000000000000000, 1.000000000000000000 ) ) ;
#1081 = ORIENTED_EDGE ( 'NONE', *, *, #1039, .F. ) ;
#1082 = ADVANCED_FACE ( 'NONE', ( #415 ), #1036, .F. ) ;
#1083 = DIRECTION ( 'NONE',  ( 1.000000000000000000, -2.033673477112318534E-16, 0.0000000000000000000 ) ) ;
#1084 = CARTESIAN_POINT ( 'NONE',  ( -0.7600000000000000089, 0.9900000000000002132, 2.328595767987006404 ) ) ;
#1085 = DIRECTION ( 'NONE',  ( 0.0000000000000000000, 0.0000000000000000000, 1.000000000000000000 ) ) ;
#1086 = EDGE_CURVE ( 'NONE', #1157, #280, #1135, .T. ) ;
#1087 = APPLICATION_PROTOCOL_DEFINITION ( 'draft international standard', 'automotive_design', 1998, #243 ) ;
#1088 = FILL_AREA_STYLE_COLOUR ( '', #673 ) ;
#1089 = DIRECTION ( 'NONE',  ( 1.000000000000000000, -8.641212831764918044E-16, 0.0000000000000000000 ) ) ;
#1090 = FACE_OUTER_BOUND ( 'NONE', #894, .T. ) ;
#1091 = CARTESIAN_POINT ( 'NONE',  ( 16.42999999999999616, 2.224999999999997868, 3.689999999999999947 ) ) ;
#1092 = ADVANCED_FACE ( 'NONE', ( #205 ), #10, .T. ) ;
#1093 = LINE ( 'NONE', #50, #340 ) ;
#1094 = DIRECTION ( 'NONE',  ( 1.000000000000000000, -2.033673477112318534E-16, -0.0000000000000000000 ) ) ;
#1095 = SURFACE_STYLE_USAGE ( .BOTH. , #247 ) ;
#1096 = VERTEX_POINT ( 'NONE', #16 ) ;
#1097 = ORIENTED_EDGE ( 'NONE', *, *, #559, .F. ) ;
#1098 = DIRECTION ( 'NONE',  ( 0.0000000000000000000, 0.0000000000000000000, -1.000000000000000000 ) ) ;
#1099 = ORIENTED_EDGE ( 'NONE', *, *, #864, .T. ) ;
#1100 = AXIS2_PLACEMENT_3D ( 'NONE', #532, #1094, #623 ) ;
#1101 = VERTEX_POINT ( 'NONE', #109 ) ;
#1102 = FILL_AREA_STYLE ('',( #238 ) ) ;
#1103 = CARTESIAN_POINT ( 'NONE',  ( 9.029999999999999361, -1.734723475976807094E-15, 4.830000000000000071 ) ) ;
#1104 = EDGE_CURVE ( 'NONE', #560, #1043, #471, .T. ) ;
#1105 = CARTESIAN_POINT ( 'NONE',  ( 9.029999999999999361, 9.029999999999997584, 4.830000000000000071 ) ) ;
#1106 = LINE ( 'NONE', #748, #629 ) ;
#1107 = COLOUR_RGB ( '',1.000000000000000000, 1.000000000000000000, 1.000000000000000000 ) ;
#1108 = DIRECTION ( 'NONE',  ( -2.033673477112318534E-16, -1.000000000000000000, 0.0000000000000000000 ) ) ;
#1109 = MECHANICAL_DESIGN_GEOMETRIC_PRESENTATION_REPRESENTATION (  '', ( #1130 ), #43 ) ;
#1110 = ORIENTED_EDGE ( 'NONE', *, *, #1193, .T. ) ;
#1111 =( NAMED_UNIT ( * ) PLANE_ANGLE_UNIT ( ) SI_UNIT ( $, .RADIAN. ) );
#1112 = ORIENTED_EDGE ( 'NONE', *, *, #559, .T. ) ;
#1113 = CARTESIAN_POINT ( 'NONE',  ( 9.649999999999998579, 4.764999999999999680, 1.150000000000000133 ) ) ;
#1114 = CARTESIAN_POINT ( 'NONE',  ( 16.42999999999999972, 7.559999999999996945, 3.689999999999999947 ) ) ;
#1115 = ORIENTED_EDGE ( 'NONE', *, *, #372, .T. ) ;
#1116 = AXIS2_PLACEMENT_3D ( 'NONE', #1113, #463, #830 ) ;
#1117 = CARTESIAN_POINT ( 'NONE',  ( 10.02999999999999936, 0.0000000000000000000, 4.830000000000000071 ) ) ;
#1118 = CARTESIAN_POINT ( 'NONE',  ( 9.649999999999998579, 4.509999999999998899, 1.150000000000000133 ) ) ;
#1119 = VECTOR ( 'NONE', #704, 1000.000000000000000 ) ;
#1120 = COLOUR_RGB ( '',0.7921568627450980005, 0.8196078431372548767, 0.9333333333333333481 ) ;
#1121 = CARTESIAN_POINT ( 'NONE',  ( -1.520000000000000240, 1.550000000000000488, -9.000000000000001776 ) ) ;
#1122 = LINE ( 'NONE', #301, #630 ) ;
#1123 = ORIENTED_EDGE ( 'NONE', *, *, #187, .T. ) ;
#1124 = EDGE_LOOP ( 'NONE', ( #1097, #87, #621, #76, #46, #1123, #790, #1142 ) ) ;
#1125 = AXIS2_PLACEMENT_3D ( 'NONE', #854, #390, #1141 ) ;
#1126 = EDGE_LOOP ( 'NONE', ( #522, #1065, #920, #1112 ) ) ;
#1127 = DIRECTION ( 'NONE',  ( -1.000000000000000000, 0.0000000000000000000, 0.0000000000000000000 ) ) ;
#1128 = VERTEX_POINT ( 'NONE', #1062 ) ;
#1129 = CARTESIAN_POINT ( 'NONE',  ( 10.02999999999999936, 0.0000000000000000000, 4.830000000000000071 ) ) ;
#1130 = STYLED_ITEM ( 'NONE', ( #927 ), #2 ) ;
#1131 = CARTESIAN_POINT ( 'NONE',  ( 0.0000000000000000000, 0.0000000000000000000, 4.830000000000000071 ) ) ;
#1132 = CARTESIAN_POINT ( 'NONE',  ( 1.000000000000000888, 0.5000000000000022204, 4.450000000000000178 ) ) ;
#1133 = EDGE_CURVE ( 'NONE', #696, #1023, #821, .T. ) ;
#1134 = LINE ( 'NONE', #1045, #102 ) ;
#1135 = LINE ( 'NONE', #487, #706 ) ;
#1136 = CARTESIAN_POINT ( 'NONE',  ( -1.520000000000000240, 1.550000000000000488, 0.2114042320129939923 ) ) ;
#1137 = LINE ( 'NONE', #224, #862 ) ;
#1138 = PLANE ( 'NONE',  #1203 ) ;
#1139 = VERTEX_POINT ( 'NONE', #678 ) ;
#1140 = VERTEX_POINT ( 'NONE', #32 ) ;
#1141 = DIRECTION ( 'NONE',  ( 0.0000000000000000000, 1.000000000000000000, 0.0000000000000000000 ) ) ;
#1142 = ORIENTED_EDGE ( 'NONE', *, *, #218, .F. ) ;
#1143 = EDGE_CURVE ( 'NONE', #716, #1101, #873, .T. ) ;
#1144 = ORIENTED_EDGE ( 'NONE', *, *, #319, .T. ) ;
#1145 = CARTESIAN_POINT ( 'NONE',  ( 0.0000000000000000000, 9.529999999999999361, 0.0000000000000000000 ) ) ;
#1146 = DIRECTION ( 'NONE',  ( -1.000000000000000000, 2.033673477112318534E-16, 0.0000000000000000000 ) ) ;
#1147 = CARTESIAN_POINT ( 'NONE',  ( 0.0000000000000000000, 0.0000000000000000000, 4.830000000000000071 ) ) ;
#1148 = FACE_OUTER_BOUND ( 'NONE', #239, .T. ) ;
#1149 = CYLINDRICAL_SURFACE ( 'NONE', #905, 0.2550000000000000044 ) ;
#1150 = CARTESIAN_POINT ( 'NONE',  ( -1.520000000000000240, 1.550000000000000488, 2.328595767987006404 ) ) ;
#1151 = EDGE_CURVE ( 'NONE', #908, #695, #291, .T. ) ;
#1152 = VECTOR ( 'NONE', #68, 1000.000000000000000 ) ;
#1153 = FACE_OUTER_BOUND ( 'NONE', #181, .T. ) ;
#1154 = ORIENTED_EDGE ( 'NONE', *, *, #144, .F. ) ;
#1155 = PRESENTATION_LAYER_ASSIGNMENT (  '', '', ( #1130 ) ) ;
#1156 = FILL_AREA_STYLE ('',( #1050 ) ) ;
#1157 = VERTEX_POINT ( 'NONE', #1054 ) ;
#1158 = CARTESIAN_POINT ( 'NONE',  ( 16.42999999999999616, 2.224999999999997868, 3.689999999999999947 ) ) ;
#1159 = EDGE_LOOP ( 'NONE', ( #269, #388, #579, #1006 ) ) ;
#1160 = DIRECTION ( 'NONE',  ( -1.000000000000000000, 0.0000000000000000000, 0.0000000000000000000 ) ) ;
#1161 =( LENGTH_UNIT ( ) NAMED_UNIT ( * ) SI_UNIT ( .MILLI., .METRE. ) );
#1162 = UNCERTAINTY_MEASURE_WITH_UNIT (LENGTH_MEASURE( 1.000000000000000082E-05 ), #763, 'distance_accuracy_value', 'NONE');
#1163 = CARTESIAN_POINT ( 'NONE',  ( -0.7599999999999998979, 1.550000000000000488, -9.000000000000001776 ) ) ;
#1164 = CARTESIAN_POINT ( 'NONE',  ( 10.02999999999999936, 0.0000000000000000000, 0.0000000000000000000 ) ) ;
#1165 = LINE ( 'NONE', #1173, #320 ) ;
#1166 = SHAPE_DEFINITION_REPRESENTATION ( #344, #2 ) ;
#1167 = ADVANCED_FACE ( 'NONE', ( #164 ), #928, .T. ) ;
#1168 = VECTOR ( 'NONE', #1035, 1000.000000000000000 ) ;
#1169 = EDGE_CURVE ( 'NONE', #1211, #47, #1190, .T. ) ;
#1170 = ORIENTED_EDGE ( 'NONE', *, *, #327, .T. ) ;
#1171 = DIRECTION ( 'NONE',  ( 0.0000000000000000000, -1.000000000000000000, 0.0000000000000000000 ) ) ;
#1172 =( GEOMETRIC_REPRESENTATION_CONTEXT ( 3 ) GLOBAL_UNCERTAINTY_ASSIGNED_CONTEXT ( ( #1031 ) ) GLOBAL_UNIT_ASSIGNED_CONTEXT ( ( #672, #859, #951 ) ) REPRESENTATION_CONTEXT ( 'NONE', 'WORKASPACE' ) );
#1173 = CARTESIAN_POINT ( 'NONE',  ( 1.000000000000000666, 5.204170427930421283E-15, 4.830000000000000071 ) ) ;
#1174 = ORIENTED_EDGE ( 'NONE', *, *, #480, .F. ) ;
#1175 = CARTESIAN_POINT ( 'NONE',  ( 9.649999999999998579, 4.764999999999999680, 1.150000000000000133 ) ) ;
#1176 = EDGE_CURVE ( 'NONE', #1002, #632, #655, .T. ) ;
#1177 = CARTESIAN_POINT ( 'NONE',  ( 9.649999999999998579, 7.304999999999998828, 3.689999999999999947 ) ) ;
#1178 = DIRECTION ( 'NONE',  ( -1.000000000000000000, 1.936075308009828924E-16, 0.0000000000000000000 ) ) ;
#1179 = PLANE ( 'NONE',  #733 ) ;
#1180 = COLOUR_RGB ( '',1.000000000000000000, 1.000000000000000000, 1.000000000000000000 ) ;
#1181 = UNCERTAINTY_MEASURE_WITH_UNIT (LENGTH_MEASURE( 1.000000000000000082E-05 ), #534, 'distance_accuracy_value', 'NONE');
#1182 = VERTEX_POINT ( 'NONE', #581 ) ;
#1183 = EDGE_LOOP ( 'NONE', ( #698, #160, #1040, #1060 ) ) ;
#1184 = DIRECTION ( 'NONE',  ( -1.980277940612793985E-16, -1.000000000000000000, 0.0000000000000000000 ) ) ;
#1185 = DIRECTION ( 'NONE',  ( 1.000000000000000000, -2.033673477112318534E-16, 0.0000000000000000000 ) ) ;
#1186 = EDGE_CURVE ( 'NONE', #535, #506, #1070, .T. ) ;
#1187 = CARTESIAN_POINT ( 'NONE',  ( 0.0000000000000000000, 0.0000000000000000000, 4.830000000000000071 ) ) ;
#1188 = DIRECTION ( 'NONE',  ( 0.0000000000000000000, 0.0000000000000000000, 1.000000000000000000 ) ) ;
#1189 = AXIS2_PLACEMENT_3D ( 'NONE', #756, #935, #479 ) ;
#1190 = CIRCLE ( 'NONE', #727, 1.094999999999999751 ) ;
#1191 = SURFACE_STYLE_FILL_AREA ( #1102 ) ;
#1192 = FILL_AREA_STYLE ('',( #343 ) ) ;
#1193 = EDGE_CURVE ( 'NONE', #29, #667, #447, .T. ) ;
#1194 = CLOSED_SHELL ( 'NONE', ( #968, #150, #802, #1059, #413, #137, #976, #132, #244, #156, #882, #608, #916, #524, #225, #1082, #1075, #788, #707, #598 ) ) ;
#1195 = ORIENTED_EDGE ( 'NONE', *, *, #625, .T. ) ;
#1196 = CARTESIAN_POINT ( 'NONE',  ( 1.000000000000000666, 9.529999999999994031, 4.450000000000000178 ) ) ;
#1197 = EDGE_LOOP ( 'NONE', ( #699, #183, #423, #391 ) ) ;
#1198 = AXIS2_PLACEMENT_3D ( 'NONE', #996, #529, #1184 ) ;
#1199 = VERTEX_POINT ( 'NONE', #1150 ) ;
#1200 = ORIENTED_EDGE ( 'NONE', *, *, #794, .F. ) ;
#1201 = CARTESIAN_POINT ( 'NONE',  ( 1.000000000000000666, 5.204170427930421283E-15, 4.450000000000000178 ) ) ;
#1202 = DIRECTION ( 'NONE',  ( 1.000000000000000000, -2.033673477112318534E-16, -0.0000000000000000000 ) ) ;
#1203 = AXIS2_PLACEMENT_3D ( 'NONE', #565, #24, #949 ) ;
#1204 = VECTOR ( 'NONE', #211, 1000.000000000000000 ) ;
#1205 = FACE_OUTER_BOUND ( 'NONE', #112, .T. ) ;
#1206 = CARTESIAN_POINT ( 'NONE',  ( -1.520000000000000018, 0.9900000000000002132, 1.270000000000000018 ) ) ;
#1207 = LINE ( 'NONE', #286, #192 ) ;
#1208 = CARTESIAN_POINT ( 'NONE',  ( 16.42999999999999972, 4.509999999999997122, 1.150000000000000133 ) ) ;
#1209 = EDGE_CURVE ( 'NONE', #1182, #1199, #83, .T. ) ;
#1210 = CARTESIAN_POINT ( 'NONE',  ( 10.02999999999999936, 9.029999999999997584, 4.830000000000000071 ) ) ;
#1211 = VERTEX_POINT ( 'NONE', #27 ) ;
#1212 =( NAMED_UNIT ( * ) SI_UNIT ( $, .STERADIAN. ) SOLID_ANGLE_UNIT ( ) );
ENDSEC;
END-ISO-10303-21;
