ISO-10303-21;
HEADER;
FILE_DESCRIPTION(('FreeCAD Model'),'2;1');
FILE_NAME('Open CASCADE Shape Model','2026-03-21T13:26:33',(''),(''),
  'Open CASCADE STEP processor 7.8','FreeCAD','Unknown');
FILE_SCHEMA(('AUTOMOTIVE_DESIGN { 1 0 10303 214 1 1 1 1 }'));
ENDSEC;
DATA;
#1 = APPLICATION_PROTOCOL_DEFINITION('international standard',
  'automotive_design',2000,#2);
#2 = APPLICATION_CONTEXT(
  'core data for automotive mechanical design processes');
#3 = SHAPE_DEFINITION_REPRESENTATION(#4,#10);
#4 = PRODUCT_DEFINITION_SHAPE('','',#5);
#5 = PRODUCT_DEFINITION('design','',#6,#9);
#6 = PRODUCT_DEFINITION_FORMATION('','',#7);
#7 = PRODUCT('Coarse Piezo Aligner 2','Coarse Piezo Aligner 2','',(#8));
#8 = PRODUCT_CONTEXT('',#2,'mechanical');
#9 = PRODUCT_DEFINITION_CONTEXT('part definition',#2,'design');
#10 = ADVANCED_BREP_SHAPE_REPRESENTATION('',(#11,#15),#715);
#11 = AXIS2_PLACEMENT_3D('',#12,#13,#14);
#12 = CARTESIAN_POINT('',(0.,0.,0.));
#13 = DIRECTION('',(0.,0.,1.));
#14 = DIRECTION('',(1.,0.,-0.));
#15 = MANIFOLD_SOLID_BREP('',#16);
#16 = CLOSED_SHELL('',(#17,#57,#176,#218,#243,#345,#369,#394,#419,#444,
    #461,#485,#502,#534,#551,#568,#580,#635,#652,#669,#686,#703));
#17 = ADVANCED_FACE('',(#18),#52,.F.);
#18 = FACE_BOUND('',#19,.F.);
#19 = EDGE_LOOP('',(#20,#30,#38,#46));
#20 = ORIENTED_EDGE('',*,*,#21,.F.);
#21 = EDGE_CURVE('',#22,#24,#26,.T.);
#22 = VERTEX_POINT('',#23);
#23 = CARTESIAN_POINT('',(-0.604258351001,-5.344258351001,2.11));
#24 = VERTEX_POINT('',#25);
#25 = CARTESIAN_POINT('',(-0.733553390593,-5.473553390593,2.11));
#26 = LINE('',#27,#28);
#27 = CARTESIAN_POINT('',(0.995,-3.745,2.11));
#28 = VECTOR('',#29,1.);
#29 = DIRECTION('',(-0.707106781187,-0.707106781187,8.659560562355E-17)
  );
#30 = ORIENTED_EDGE('',*,*,#31,.T.);
#31 = EDGE_CURVE('',#22,#32,#34,.T.);
#32 = VERTEX_POINT('',#33);
#33 = CARTESIAN_POINT('',(-0.604258351001,-5.344258351001,
    4.440892098501E-16));
#34 = LINE('',#35,#36);
#35 = CARTESIAN_POINT('',(-0.604258351001,-5.344258351001,2.11));
#36 = VECTOR('',#37,1.);
#37 = DIRECTION('',(0.,-1.224646799147E-16,-1.));
#38 = ORIENTED_EDGE('',*,*,#39,.T.);
#39 = EDGE_CURVE('',#32,#40,#42,.T.);
#40 = VERTEX_POINT('',#41);
#41 = CARTESIAN_POINT('',(-0.733553390593,-5.473553390593,
    8.881784197001E-16));
#42 = LINE('',#43,#44);
#43 = CARTESIAN_POINT('',(-0.38,-5.12,4.440892098501E-16));
#44 = VECTOR('',#45,1.);
#45 = DIRECTION('',(-0.707106781187,-0.707106781187,8.659560562355E-17)
  );
#46 = ORIENTED_EDGE('',*,*,#47,.F.);
#47 = EDGE_CURVE('',#24,#40,#48,.T.);
#48 = LINE('',#49,#50);
#49 = CARTESIAN_POINT('',(-0.733553390593,-5.473553390593,2.11));
#50 = VECTOR('',#51,1.);
#51 = DIRECTION('',(0.,-1.224646799147E-16,-1.));
#52 = PLANE('',#53);
#53 = AXIS2_PLACEMENT_3D('',#54,#55,#56);
#54 = CARTESIAN_POINT('',(-0.38,-5.12,4.));
#55 = DIRECTION('',(-0.707106781187,0.707106781187,-8.659560562355E-17)
  );
#56 = DIRECTION('',(-0.707106781187,-0.707106781187,8.659560562355E-17)
  );
#57 = ADVANCED_FACE('',(#58),#171,.F.);
#58 = FACE_BOUND('',#59,.F.);
#59 = EDGE_LOOP('',(#60,#70,#79,#88,#97,#105,#114,#122,#131,#139,#148,
    #156,#163,#164));
#60 = ORIENTED_EDGE('',*,*,#61,.F.);
#61 = EDGE_CURVE('',#62,#64,#66,.T.);
#62 = VERTEX_POINT('',#63);
#63 = CARTESIAN_POINT('',(-2.38,0.702949016875,2.11));
#64 = VERTEX_POINT('',#65);
#65 = CARTESIAN_POINT('',(-2.38,-6.045811024051,2.11));
#66 = LINE('',#67,#68);
#67 = CARTESIAN_POINT('',(-2.38,1.13,2.11));
#68 = VECTOR('',#69,1.);
#69 = DIRECTION('',(0.,-1.,1.224646799147E-16));
#70 = ORIENTED_EDGE('',*,*,#71,.T.);
#71 = EDGE_CURVE('',#62,#72,#74,.T.);
#72 = VERTEX_POINT('',#73);
#73 = CARTESIAN_POINT('',(-2.737142857143,1.182106440625,2.11));
#74 = CIRCLE('',#75,0.5);
#75 = AXIS2_PLACEMENT_3D('',#76,#77,#78);
#76 = CARTESIAN_POINT('',(-2.88,0.702949016875,2.11));
#77 = DIRECTION('',(0.,1.224646799147E-16,1.));
#78 = DIRECTION('',(0.,1.,-1.224646799147E-16));
#79 = ORIENTED_EDGE('',*,*,#80,.T.);
#80 = EDGE_CURVE('',#72,#81,#83,.T.);
#81 = VERTEX_POINT('',#82);
#82 = CARTESIAN_POINT('',(-1.182106440625,2.737142857143,2.11));
#83 = CIRCLE('',#84,1.25);
#84 = AXIS2_PLACEMENT_3D('',#85,#86,#87);
#85 = CARTESIAN_POINT('',(-2.38,2.38,2.11));
#86 = DIRECTION('',(0.,-1.224646799147E-16,-1.));
#87 = DIRECTION('',(1.,0.,0.));
#88 = ORIENTED_EDGE('',*,*,#89,.F.);
#89 = EDGE_CURVE('',#90,#81,#92,.T.);
#90 = VERTEX_POINT('',#91);
#91 = CARTESIAN_POINT('',(-0.702949016875,2.38,2.11));
#92 = CIRCLE('',#93,0.5);
#93 = AXIS2_PLACEMENT_3D('',#94,#95,#96);
#94 = CARTESIAN_POINT('',(-0.702949016875,2.88,2.11));
#95 = DIRECTION('',(0.,-1.224646799147E-16,-1.));
#96 = DIRECTION('',(0.,1.,-1.224646799147E-16));
#97 = ORIENTED_EDGE('',*,*,#98,.T.);
#98 = EDGE_CURVE('',#90,#99,#101,.T.);
#99 = VERTEX_POINT('',#100);
#100 = CARTESIAN_POINT('',(6.045811024051,2.38,2.11));
#101 = LINE('',#102,#103);
#102 = CARTESIAN_POINT('',(-1.13,2.38,2.11));
#103 = VECTOR('',#104,1.);
#104 = DIRECTION('',(1.,-5.E-17,6.123233995737E-33));
#105 = ORIENTED_EDGE('',*,*,#106,.T.);
#106 = EDGE_CURVE('',#99,#107,#109,.T.);
#107 = VERTEX_POINT('',#108);
#108 = CARTESIAN_POINT('',(5.473553390593,0.733553390593,2.11));
#109 = CIRCLE('',#110,2.);
#110 = AXIS2_PLACEMENT_3D('',#111,#112,#113);
#111 = CARTESIAN_POINT('',(4.05933982822,2.147766952966,2.11));
#112 = DIRECTION('',(0.,-1.224646799147E-16,-1.));
#113 = DIRECTION('',(0.,1.,-1.224646799147E-16));
#114 = ORIENTED_EDGE('',*,*,#115,.F.);
#115 = EDGE_CURVE('',#116,#107,#118,.T.);
#116 = VERTEX_POINT('',#117);
#117 = CARTESIAN_POINT('',(5.344258351001,0.604258351001,2.11));
#118 = LINE('',#119,#120);
#119 = CARTESIAN_POINT('',(3.745,-0.995,2.11));
#120 = VECTOR('',#121,1.);
#121 = DIRECTION('',(0.707106781187,0.707106781187,-8.659560562355E-17)
  );
#122 = ORIENTED_EDGE('',*,*,#123,.F.);
#123 = EDGE_CURVE('',#124,#116,#126,.T.);
#124 = VERTEX_POINT('',#125);
#125 = CARTESIAN_POINT('',(4.821551287451,0.487293904605,2.11));
#126 = CIRCLE('',#127,0.5);
#127 = AXIS2_PLACEMENT_3D('',#128,#129,#130);
#128 = CARTESIAN_POINT('',(4.990704960408,0.957811741595,2.11));
#129 = DIRECTION('',(0.,1.224646799147E-16,1.));
#130 = DIRECTION('',(0.,1.,-1.224646799147E-16));
#131 = ORIENTED_EDGE('',*,*,#132,.T.);
#132 = EDGE_CURVE('',#124,#133,#135,.T.);
#133 = VERTEX_POINT('',#134);
#134 = CARTESIAN_POINT('',(0.827360793716,1.923226699054,2.11));
#135 = LINE('',#136,#137);
#136 = CARTESIAN_POINT('',(4.266961315856,0.68667195854,2.11));
#137 = VECTOR('',#138,1.);
#138 = DIRECTION('',(-0.941035673979,0.338307345914,-4.143070083021E-17)
  );
#139 = ORIENTED_EDGE('',*,*,#140,.T.);
#140 = EDGE_CURVE('',#133,#141,#143,.T.);
#141 = VERTEX_POINT('',#142);
#142 = CARTESIAN_POINT('',(-1.923226699054,-0.827360793716,2.11));
#143 = CIRCLE('',#144,2.15);
#144 = AXIS2_PLACEMENT_3D('',#145,#146,#147);
#145 = CARTESIAN_POINT('',(0.1,-0.1,2.11));
#146 = DIRECTION('',(-0.,1.224646799147E-16,1.));
#147 = DIRECTION('',(1.,0.,0.));
#148 = ORIENTED_EDGE('',*,*,#149,.F.);
#149 = EDGE_CURVE('',#150,#141,#152,.T.);
#150 = VERTEX_POINT('',#151);
#151 = CARTESIAN_POINT('',(-0.487293904605,-4.821551287451,2.11));
#152 = LINE('',#153,#154);
#153 = CARTESIAN_POINT('',(-0.68667195854,-4.266961315856,2.11));
#154 = VECTOR('',#155,1.);
#155 = DIRECTION('',(-0.338307345914,0.941035673979,-1.152436326021E-16)
  );
#156 = ORIENTED_EDGE('',*,*,#157,.F.);
#157 = EDGE_CURVE('',#22,#150,#158,.T.);
#158 = CIRCLE('',#159,0.5);
#159 = AXIS2_PLACEMENT_3D('',#160,#161,#162);
#160 = CARTESIAN_POINT('',(-0.957811741595,-4.990704960408,2.11));
#161 = DIRECTION('',(0.,1.224646799147E-16,1.));
#162 = DIRECTION('',(0.,1.,-1.224646799147E-16));
#163 = ORIENTED_EDGE('',*,*,#21,.T.);
#164 = ORIENTED_EDGE('',*,*,#165,.T.);
#165 = EDGE_CURVE('',#24,#64,#166,.T.);
#166 = CIRCLE('',#167,2.);
#167 = AXIS2_PLACEMENT_3D('',#168,#169,#170);
#168 = CARTESIAN_POINT('',(-2.147766952966,-4.05933982822,2.11));
#169 = DIRECTION('',(0.,-1.224646799147E-16,-1.));
#170 = DIRECTION('',(0.,1.,-1.224646799147E-16));
#171 = PLANE('',#172);
#172 = AXIS2_PLACEMENT_3D('',#173,#174,#175);
#173 = CARTESIAN_POINT('',(2.248472376639,-2.248472376639,2.11));
#174 = DIRECTION('',(0.,-1.224646799147E-16,-1.));
#175 = DIRECTION('',(1.,0.,0.));
#176 = ADVANCED_FACE('',(#177),#213,.T.);
#177 = FACE_BOUND('',#178,.T.);
#178 = EDGE_LOOP('',(#179,#180,#188,#197,#205,#212));
#179 = ORIENTED_EDGE('',*,*,#165,.T.);
#180 = ORIENTED_EDGE('',*,*,#181,.T.);
#181 = EDGE_CURVE('',#64,#182,#184,.T.);
#182 = VERTEX_POINT('',#183);
#183 = CARTESIAN_POINT('',(-2.38,-6.045811024051,4.));
#184 = LINE('',#185,#186);
#185 = CARTESIAN_POINT('',(-2.38,-6.045811024051,2.11));
#186 = VECTOR('',#187,1.);
#187 = DIRECTION('',(-0.,1.224646799147E-16,1.));
#188 = ORIENTED_EDGE('',*,*,#189,.T.);
#189 = EDGE_CURVE('',#182,#190,#192,.T.);
#190 = VERTEX_POINT('',#191);
#191 = CARTESIAN_POINT('',(-3.561980515339,-5.473553390593,4.));
#192 = CIRCLE('',#193,2.);
#193 = AXIS2_PLACEMENT_3D('',#194,#195,#196);
#194 = CARTESIAN_POINT('',(-2.147766952966,-4.05933982822,4.));
#195 = DIRECTION('',(0.,-1.224646799147E-16,-1.));
#196 = DIRECTION('',(0.,1.,-1.224646799147E-16));
#197 = ORIENTED_EDGE('',*,*,#198,.T.);
#198 = EDGE_CURVE('',#190,#199,#201,.T.);
#199 = VERTEX_POINT('',#200);
#200 = CARTESIAN_POINT('',(-3.561980515339,-5.473553390593,
    8.881784197001E-16));
#201 = LINE('',#202,#203);
#202 = CARTESIAN_POINT('',(-3.561980515339,-5.473553390593,2.11));
#203 = VECTOR('',#204,1.);
#204 = DIRECTION('',(0.,-1.224646799147E-16,-1.));
#205 = ORIENTED_EDGE('',*,*,#206,.F.);
#206 = EDGE_CURVE('',#40,#199,#207,.T.);
#207 = CIRCLE('',#208,2.);
#208 = AXIS2_PLACEMENT_3D('',#209,#210,#211);
#209 = CARTESIAN_POINT('',(-2.147766952966,-4.05933982822,
    4.440892098501E-16));
#210 = DIRECTION('',(0.,-1.224646799147E-16,-1.));
#211 = DIRECTION('',(0.,1.,-1.224646799147E-16));
#212 = ORIENTED_EDGE('',*,*,#47,.F.);
#213 = CYLINDRICAL_SURFACE('',#214,2.);
#214 = AXIS2_PLACEMENT_3D('',#215,#216,#217);
#215 = CARTESIAN_POINT('',(-2.147766952966,-4.05933982822,2.11));
#216 = DIRECTION('',(0.,-1.224646799147E-16,-1.));
#217 = DIRECTION('',(0.707106781187,-0.707106781187,8.659560562355E-17)
  );
#218 = ADVANCED_FACE('',(#219),#238,.T.);
#219 = FACE_BOUND('',#220,.F.);
#220 = EDGE_LOOP('',(#221,#222,#230,#237));
#221 = ORIENTED_EDGE('',*,*,#157,.T.);
#222 = ORIENTED_EDGE('',*,*,#223,.T.);
#223 = EDGE_CURVE('',#150,#224,#226,.T.);
#224 = VERTEX_POINT('',#225);
#225 = CARTESIAN_POINT('',(-0.487293904605,-4.821551287451,
    4.440892098501E-16));
#226 = LINE('',#227,#228);
#227 = CARTESIAN_POINT('',(-0.487293904605,-4.821551287451,2.11));
#228 = VECTOR('',#229,1.);
#229 = DIRECTION('',(0.,-1.224646799147E-16,-1.));
#230 = ORIENTED_EDGE('',*,*,#231,.F.);
#231 = EDGE_CURVE('',#32,#224,#232,.T.);
#232 = CIRCLE('',#233,0.5);
#233 = AXIS2_PLACEMENT_3D('',#234,#235,#236);
#234 = CARTESIAN_POINT('',(-0.957811741595,-4.990704960408,
    4.440892098501E-16));
#235 = DIRECTION('',(0.,1.224646799147E-16,1.));
#236 = DIRECTION('',(0.,1.,-1.224646799147E-16));
#237 = ORIENTED_EDGE('',*,*,#31,.F.);
#238 = CYLINDRICAL_SURFACE('',#239,0.5);
#239 = AXIS2_PLACEMENT_3D('',#240,#241,#242);
#240 = CARTESIAN_POINT('',(-0.957811741595,-4.990704960408,2.11));
#241 = DIRECTION('',(0.,-1.224646799147E-16,-1.));
#242 = DIRECTION('',(0.707106781187,-0.707106781187,8.659560562355E-17)
  );
#243 = ADVANCED_FACE('',(#244),#340,.T.);
#244 = FACE_BOUND('',#245,.T.);
#245 = EDGE_LOOP('',(#246,#247,#248,#256,#265,#273,#282,#290,#299,#307,
    #316,#324,#333,#339));
#246 = ORIENTED_EDGE('',*,*,#39,.T.);
#247 = ORIENTED_EDGE('',*,*,#206,.T.);
#248 = ORIENTED_EDGE('',*,*,#249,.T.);
#249 = EDGE_CURVE('',#199,#250,#252,.T.);
#250 = VERTEX_POINT('',#251);
#251 = CARTESIAN_POINT('',(-9.019087296526,-1.644660940672E-02,0.));
#252 = LINE('',#253,#254);
#253 = CARTESIAN_POINT('',(-2.147766952966,-6.887766952966,
    8.881784197001E-16));
#254 = VECTOR('',#255,1.);
#255 = DIRECTION('',(-0.707106781187,0.707106781187,-8.659560562355E-17)
  );
#256 = ORIENTED_EDGE('',*,*,#257,.T.);
#257 = EDGE_CURVE('',#250,#258,#260,.T.);
#258 = VERTEX_POINT('',#259);
#259 = CARTESIAN_POINT('',(-9.019087296526,2.811980515339,0.));
#260 = CIRCLE('',#261,2.);
#261 = AXIS2_PLACEMENT_3D('',#262,#263,#264);
#262 = CARTESIAN_POINT('',(-7.604873734153,1.397766952966,0.));
#263 = DIRECTION('',(0.,-1.224646799147E-16,-1.));
#264 = DIRECTION('',(0.,1.,-1.224646799147E-16));
#265 = ORIENTED_EDGE('',*,*,#266,.T.);
#266 = EDGE_CURVE('',#258,#267,#269,.T.);
#267 = VERTEX_POINT('',#268);
#268 = CARTESIAN_POINT('',(-2.811980515339,9.019087296526,
    -8.881784197001E-16));
#269 = LINE('',#270,#271);
#270 = CARTESIAN_POINT('',(-10.43330085889,1.397766952966,0.));
#271 = VECTOR('',#272,1.);
#272 = DIRECTION('',(0.707106781187,0.707106781187,-8.659560562355E-17)
  );
#273 = ORIENTED_EDGE('',*,*,#274,.F.);
#274 = EDGE_CURVE('',#275,#267,#277,.T.);
#275 = VERTEX_POINT('',#276);
#276 = CARTESIAN_POINT('',(1.644660940673E-02,9.019087296526,
    -8.881784197001E-16));
#277 = CIRCLE('',#278,2.);
#278 = AXIS2_PLACEMENT_3D('',#279,#280,#281);
#279 = CARTESIAN_POINT('',(-1.397766952966,7.604873734153,
    -8.881784197001E-16));
#280 = DIRECTION('',(0.,1.224646799147E-16,1.));
#281 = DIRECTION('',(0.,1.,-1.224646799147E-16));
#282 = ORIENTED_EDGE('',*,*,#283,.F.);
#283 = EDGE_CURVE('',#284,#275,#286,.T.);
#284 = VERTEX_POINT('',#285);
#285 = CARTESIAN_POINT('',(5.473553390593,3.561980515339,0.));
#286 = LINE('',#287,#288);
#287 = CARTESIAN_POINT('',(6.887766952966,2.147766952966,0.));
#288 = VECTOR('',#289,1.);
#289 = DIRECTION('',(-0.707106781187,0.707106781187,-8.659560562355E-17)
  );
#290 = ORIENTED_EDGE('',*,*,#291,.T.);
#291 = EDGE_CURVE('',#284,#292,#294,.T.);
#292 = VERTEX_POINT('',#293);
#293 = CARTESIAN_POINT('',(5.473553390593,0.733553390593,0.));
#294 = CIRCLE('',#295,2.);
#295 = AXIS2_PLACEMENT_3D('',#296,#297,#298);
#296 = CARTESIAN_POINT('',(4.05933982822,2.147766952966,0.));
#297 = DIRECTION('',(0.,-1.224646799147E-16,-1.));
#298 = DIRECTION('',(0.,1.,-1.224646799147E-16));
#299 = ORIENTED_EDGE('',*,*,#300,.F.);
#300 = EDGE_CURVE('',#301,#292,#303,.T.);
#301 = VERTEX_POINT('',#302);
#302 = CARTESIAN_POINT('',(5.344258351001,0.604258351001,0.));
#303 = LINE('',#304,#305);
#304 = CARTESIAN_POINT('',(5.12,0.38,0.));
#305 = VECTOR('',#306,1.);
#306 = DIRECTION('',(0.707106781187,0.707106781187,-8.659560562355E-17)
  );
#307 = ORIENTED_EDGE('',*,*,#308,.F.);
#308 = EDGE_CURVE('',#309,#301,#311,.T.);
#309 = VERTEX_POINT('',#310);
#310 = CARTESIAN_POINT('',(4.821551287451,0.487293904605,0.));
#311 = CIRCLE('',#312,0.5);
#312 = AXIS2_PLACEMENT_3D('',#313,#314,#315);
#313 = CARTESIAN_POINT('',(4.990704960408,0.957811741595,0.));
#314 = DIRECTION('',(0.,1.224646799147E-16,1.));
#315 = DIRECTION('',(0.,1.,-1.224646799147E-16));
#316 = ORIENTED_EDGE('',*,*,#317,.T.);
#317 = EDGE_CURVE('',#309,#318,#320,.T.);
#318 = VERTEX_POINT('',#319);
#319 = CARTESIAN_POINT('',(0.827360793716,1.923226699054,0.));
#320 = LINE('',#321,#322);
#321 = CARTESIAN_POINT('',(5.12,0.38,0.));
#322 = VECTOR('',#323,1.);
#323 = DIRECTION('',(-0.941035673979,0.338307345914,-4.143070083021E-17)
  );
#324 = ORIENTED_EDGE('',*,*,#325,.F.);
#325 = EDGE_CURVE('',#326,#318,#328,.T.);
#326 = VERTEX_POINT('',#327);
#327 = CARTESIAN_POINT('',(-1.923226699054,-0.827360793716,0.));
#328 = CIRCLE('',#329,2.15);
#329 = AXIS2_PLACEMENT_3D('',#330,#331,#332);
#330 = CARTESIAN_POINT('',(0.1,-0.1,0.));
#331 = DIRECTION('',(0.,-1.224646799147E-16,-1.));
#332 = DIRECTION('',(1.,0.,0.));
#333 = ORIENTED_EDGE('',*,*,#334,.F.);
#334 = EDGE_CURVE('',#224,#326,#335,.T.);
#335 = LINE('',#336,#337);
#336 = CARTESIAN_POINT('',(-0.38,-5.12,4.440892098501E-16));
#337 = VECTOR('',#338,1.);
#338 = DIRECTION('',(-0.338307345914,0.941035673979,-1.152436326021E-16)
  );
#339 = ORIENTED_EDGE('',*,*,#231,.F.);
#340 = PLANE('',#341);
#341 = AXIS2_PLACEMENT_3D('',#342,#343,#344);
#342 = CARTESIAN_POINT('',(-1.851685132618,1.851685132618,0.));
#343 = DIRECTION('',(0.,-1.224646799147E-16,-1.));
#344 = DIRECTION('',(1.,0.,0.));
#345 = ADVANCED_FACE('',(#346),#364,.F.);
#346 = FACE_BOUND('',#347,.F.);
#347 = EDGE_LOOP('',(#348,#356,#362,#363));
#348 = ORIENTED_EDGE('',*,*,#349,.F.);
#349 = EDGE_CURVE('',#350,#182,#352,.T.);
#350 = VERTEX_POINT('',#351);
#351 = CARTESIAN_POINT('',(-2.38,0.702949016875,4.));
#352 = LINE('',#353,#354);
#353 = CARTESIAN_POINT('',(-2.38,1.13,4.));
#354 = VECTOR('',#355,1.);
#355 = DIRECTION('',(0.,-1.,1.224646799147E-16));
#356 = ORIENTED_EDGE('',*,*,#357,.T.);
#357 = EDGE_CURVE('',#350,#62,#358,.T.);
#358 = LINE('',#359,#360);
#359 = CARTESIAN_POINT('',(-2.38,0.702949016875,4.));
#360 = VECTOR('',#361,1.);
#361 = DIRECTION('',(0.,-1.224646799147E-16,-1.));
#362 = ORIENTED_EDGE('',*,*,#61,.T.);
#363 = ORIENTED_EDGE('',*,*,#181,.T.);
#364 = PLANE('',#365);
#365 = AXIS2_PLACEMENT_3D('',#366,#367,#368);
#366 = CARTESIAN_POINT('',(-2.38,1.13,4.));
#367 = DIRECTION('',(-1.,0.,0.));
#368 = DIRECTION('',(0.,-1.,1.224646799147E-16));
#369 = ADVANCED_FACE('',(#370),#389,.T.);
#370 = FACE_BOUND('',#371,.F.);
#371 = EDGE_LOOP('',(#372,#381,#387,#388));
#372 = ORIENTED_EDGE('',*,*,#373,.T.);
#373 = EDGE_CURVE('',#350,#374,#376,.T.);
#374 = VERTEX_POINT('',#375);
#375 = CARTESIAN_POINT('',(-2.737142857143,1.182106440625,4.));
#376 = CIRCLE('',#377,0.5);
#377 = AXIS2_PLACEMENT_3D('',#378,#379,#380);
#378 = CARTESIAN_POINT('',(-2.88,0.702949016875,4.));
#379 = DIRECTION('',(0.,1.224646799147E-16,1.));
#380 = DIRECTION('',(0.,1.,-1.224646799147E-16));
#381 = ORIENTED_EDGE('',*,*,#382,.T.);
#382 = EDGE_CURVE('',#374,#72,#383,.T.);
#383 = LINE('',#384,#385);
#384 = CARTESIAN_POINT('',(-2.737142857143,1.182106440625,4.));
#385 = VECTOR('',#386,1.);
#386 = DIRECTION('',(0.,-1.224646799147E-16,-1.));
#387 = ORIENTED_EDGE('',*,*,#71,.F.);
#388 = ORIENTED_EDGE('',*,*,#357,.F.);
#389 = CYLINDRICAL_SURFACE('',#390,0.5);
#390 = AXIS2_PLACEMENT_3D('',#391,#392,#393);
#391 = CARTESIAN_POINT('',(-2.88,0.702949016875,4.));
#392 = DIRECTION('',(0.,-1.224646799147E-16,-1.));
#393 = DIRECTION('',(1.,0.,0.));
#394 = ADVANCED_FACE('',(#395),#414,.F.);
#395 = FACE_BOUND('',#396,.T.);
#396 = EDGE_LOOP('',(#397,#406,#407,#408));
#397 = ORIENTED_EDGE('',*,*,#398,.F.);
#398 = EDGE_CURVE('',#374,#399,#401,.T.);
#399 = VERTEX_POINT('',#400);
#400 = CARTESIAN_POINT('',(-1.182106440625,2.737142857143,4.));
#401 = CIRCLE('',#402,1.25);
#402 = AXIS2_PLACEMENT_3D('',#403,#404,#405);
#403 = CARTESIAN_POINT('',(-2.38,2.38,4.));
#404 = DIRECTION('',(0.,-1.224646799147E-16,-1.));
#405 = DIRECTION('',(1.,0.,0.));
#406 = ORIENTED_EDGE('',*,*,#382,.T.);
#407 = ORIENTED_EDGE('',*,*,#80,.T.);
#408 = ORIENTED_EDGE('',*,*,#409,.F.);
#409 = EDGE_CURVE('',#399,#81,#410,.T.);
#410 = LINE('',#411,#412);
#411 = CARTESIAN_POINT('',(-1.182106440625,2.737142857143,4.));
#412 = VECTOR('',#413,1.);
#413 = DIRECTION('',(0.,-1.224646799147E-16,-1.));
#414 = CYLINDRICAL_SURFACE('',#415,1.25);
#415 = AXIS2_PLACEMENT_3D('',#416,#417,#418);
#416 = CARTESIAN_POINT('',(-2.38,2.38,4.));
#417 = DIRECTION('',(0.,1.224646799147E-16,1.));
#418 = DIRECTION('',(1.,0.,0.));
#419 = ADVANCED_FACE('',(#420),#439,.T.);
#420 = FACE_BOUND('',#421,.T.);
#421 = EDGE_LOOP('',(#422,#431,#432,#433));
#422 = ORIENTED_EDGE('',*,*,#423,.T.);
#423 = EDGE_CURVE('',#424,#399,#426,.T.);
#424 = VERTEX_POINT('',#425);
#425 = CARTESIAN_POINT('',(-0.702949016875,2.38,4.));
#426 = CIRCLE('',#427,0.5);
#427 = AXIS2_PLACEMENT_3D('',#428,#429,#430);
#428 = CARTESIAN_POINT('',(-0.702949016875,2.88,4.));
#429 = DIRECTION('',(0.,-1.224646799147E-16,-1.));
#430 = DIRECTION('',(0.,1.,-1.224646799147E-16));
#431 = ORIENTED_EDGE('',*,*,#409,.T.);
#432 = ORIENTED_EDGE('',*,*,#89,.F.);
#433 = ORIENTED_EDGE('',*,*,#434,.F.);
#434 = EDGE_CURVE('',#424,#90,#435,.T.);
#435 = LINE('',#436,#437);
#436 = CARTESIAN_POINT('',(-0.702949016875,2.38,4.));
#437 = VECTOR('',#438,1.);
#438 = DIRECTION('',(0.,-1.224646799147E-16,-1.));
#439 = CYLINDRICAL_SURFACE('',#440,0.5);
#440 = AXIS2_PLACEMENT_3D('',#441,#442,#443);
#441 = CARTESIAN_POINT('',(-0.702949016875,2.88,4.));
#442 = DIRECTION('',(0.,-1.224646799147E-16,-1.));
#443 = DIRECTION('',(-5.E-17,-1.,1.224646799147E-16));
#444 = ADVANCED_FACE('',(#445),#456,.T.);
#445 = FACE_BOUND('',#446,.T.);
#446 = EDGE_LOOP('',(#447,#448,#449,#450));
#447 = ORIENTED_EDGE('',*,*,#149,.F.);
#448 = ORIENTED_EDGE('',*,*,#223,.T.);
#449 = ORIENTED_EDGE('',*,*,#334,.T.);
#450 = ORIENTED_EDGE('',*,*,#451,.F.);
#451 = EDGE_CURVE('',#141,#326,#452,.T.);
#452 = LINE('',#453,#454);
#453 = CARTESIAN_POINT('',(-1.923226699054,-0.827360793716,4.));
#454 = VECTOR('',#455,1.);
#455 = DIRECTION('',(0.,-1.224646799147E-16,-1.));
#456 = PLANE('',#457);
#457 = AXIS2_PLACEMENT_3D('',#458,#459,#460);
#458 = CARTESIAN_POINT('',(-0.38,-5.12,4.));
#459 = DIRECTION('',(0.941035673979,0.338307345914,-4.143070083021E-17)
  );
#460 = DIRECTION('',(-0.338307345914,0.941035673979,-1.152436326021E-16)
  );
#461 = ADVANCED_FACE('',(#462),#480,.T.);
#462 = FACE_BOUND('',#463,.T.);
#463 = EDGE_LOOP('',(#464,#472,#473,#474));
#464 = ORIENTED_EDGE('',*,*,#465,.F.);
#465 = EDGE_CURVE('',#424,#466,#468,.T.);
#466 = VERTEX_POINT('',#467);
#467 = CARTESIAN_POINT('',(6.045811024051,2.38,4.));
#468 = LINE('',#469,#470);
#469 = CARTESIAN_POINT('',(-1.13,2.38,4.));
#470 = VECTOR('',#471,1.);
#471 = DIRECTION('',(1.,-5.E-17,6.123233995737E-33));
#472 = ORIENTED_EDGE('',*,*,#434,.T.);
#473 = ORIENTED_EDGE('',*,*,#98,.T.);
#474 = ORIENTED_EDGE('',*,*,#475,.F.);
#475 = EDGE_CURVE('',#466,#99,#476,.T.);
#476 = LINE('',#477,#478);
#477 = CARTESIAN_POINT('',(6.045811024051,2.38,2.11));
#478 = VECTOR('',#479,1.);
#479 = DIRECTION('',(0.,-1.224646799147E-16,-1.));
#480 = PLANE('',#481);
#481 = AXIS2_PLACEMENT_3D('',#482,#483,#484);
#482 = CARTESIAN_POINT('',(-1.13,2.38,4.));
#483 = DIRECTION('',(-5.E-17,-1.,1.224646799147E-16));
#484 = DIRECTION('',(1.,-5.E-17,6.123233995737E-33));
#485 = ADVANCED_FACE('',(#486),#497,.F.);
#486 = FACE_BOUND('',#487,.T.);
#487 = EDGE_LOOP('',(#488,#489,#490,#491));
#488 = ORIENTED_EDGE('',*,*,#140,.T.);
#489 = ORIENTED_EDGE('',*,*,#451,.T.);
#490 = ORIENTED_EDGE('',*,*,#325,.T.);
#491 = ORIENTED_EDGE('',*,*,#492,.F.);
#492 = EDGE_CURVE('',#133,#318,#493,.T.);
#493 = LINE('',#494,#495);
#494 = CARTESIAN_POINT('',(0.827360793716,1.923226699054,4.));
#495 = VECTOR('',#496,1.);
#496 = DIRECTION('',(0.,-1.224646799147E-16,-1.));
#497 = CYLINDRICAL_SURFACE('',#498,2.15);
#498 = AXIS2_PLACEMENT_3D('',#499,#500,#501);
#499 = CARTESIAN_POINT('',(0.1,-0.1,4.));
#500 = DIRECTION('',(0.,1.224646799147E-16,1.));
#501 = DIRECTION('',(1.,0.,0.));
#502 = ADVANCED_FACE('',(#503),#529,.T.);
#503 = FACE_BOUND('',#504,.T.);
#504 = EDGE_LOOP('',(#505,#514,#515,#516,#522,#523));
#505 = ORIENTED_EDGE('',*,*,#506,.T.);
#506 = EDGE_CURVE('',#507,#466,#509,.T.);
#507 = VERTEX_POINT('',#508);
#508 = CARTESIAN_POINT('',(5.473553390593,3.561980515339,4.));
#509 = CIRCLE('',#510,2.);
#510 = AXIS2_PLACEMENT_3D('',#511,#512,#513);
#511 = CARTESIAN_POINT('',(4.05933982822,2.147766952966,4.));
#512 = DIRECTION('',(0.,-1.224646799147E-16,-1.));
#513 = DIRECTION('',(0.,1.,-1.224646799147E-16));
#514 = ORIENTED_EDGE('',*,*,#475,.T.);
#515 = ORIENTED_EDGE('',*,*,#106,.T.);
#516 = ORIENTED_EDGE('',*,*,#517,.T.);
#517 = EDGE_CURVE('',#107,#292,#518,.T.);
#518 = LINE('',#519,#520);
#519 = CARTESIAN_POINT('',(5.473553390593,0.733553390593,2.11));
#520 = VECTOR('',#521,1.);
#521 = DIRECTION('',(0.,-1.224646799147E-16,-1.));
#522 = ORIENTED_EDGE('',*,*,#291,.F.);
#523 = ORIENTED_EDGE('',*,*,#524,.F.);
#524 = EDGE_CURVE('',#507,#284,#525,.T.);
#525 = LINE('',#526,#527);
#526 = CARTESIAN_POINT('',(5.473553390593,3.561980515339,2.11));
#527 = VECTOR('',#528,1.);
#528 = DIRECTION('',(0.,-1.224646799147E-16,-1.));
#529 = CYLINDRICAL_SURFACE('',#530,2.);
#530 = AXIS2_PLACEMENT_3D('',#531,#532,#533);
#531 = CARTESIAN_POINT('',(4.05933982822,2.147766952966,2.11));
#532 = DIRECTION('',(0.,-1.224646799147E-16,-1.));
#533 = DIRECTION('',(0.707106781187,0.707106781187,-8.659560562355E-17)
  );
#534 = ADVANCED_FACE('',(#535),#546,.F.);
#535 = FACE_BOUND('',#536,.F.);
#536 = EDGE_LOOP('',(#537,#538,#544,#545));
#537 = ORIENTED_EDGE('',*,*,#132,.F.);
#538 = ORIENTED_EDGE('',*,*,#539,.T.);
#539 = EDGE_CURVE('',#124,#309,#540,.T.);
#540 = LINE('',#541,#542);
#541 = CARTESIAN_POINT('',(4.821551287451,0.487293904605,2.11));
#542 = VECTOR('',#543,1.);
#543 = DIRECTION('',(0.,-1.224646799147E-16,-1.));
#544 = ORIENTED_EDGE('',*,*,#317,.T.);
#545 = ORIENTED_EDGE('',*,*,#492,.F.);
#546 = PLANE('',#547);
#547 = AXIS2_PLACEMENT_3D('',#548,#549,#550);
#548 = CARTESIAN_POINT('',(5.12,0.38,4.));
#549 = DIRECTION('',(0.338307345914,0.941035673979,-1.152436326021E-16)
  );
#550 = DIRECTION('',(-0.941035673979,0.338307345914,-4.143070083021E-17)
  );
#551 = ADVANCED_FACE('',(#552),#563,.T.);
#552 = FACE_BOUND('',#553,.T.);
#553 = EDGE_LOOP('',(#554,#555,#561,#562));
#554 = ORIENTED_EDGE('',*,*,#115,.F.);
#555 = ORIENTED_EDGE('',*,*,#556,.T.);
#556 = EDGE_CURVE('',#116,#301,#557,.T.);
#557 = LINE('',#558,#559);
#558 = CARTESIAN_POINT('',(5.344258351001,0.604258351001,2.11));
#559 = VECTOR('',#560,1.);
#560 = DIRECTION('',(0.,-1.224646799147E-16,-1.));
#561 = ORIENTED_EDGE('',*,*,#300,.T.);
#562 = ORIENTED_EDGE('',*,*,#517,.F.);
#563 = PLANE('',#564);
#564 = AXIS2_PLACEMENT_3D('',#565,#566,#567);
#565 = CARTESIAN_POINT('',(5.12,0.38,4.));
#566 = DIRECTION('',(0.707106781187,-0.707106781187,8.659560562355E-17)
  );
#567 = DIRECTION('',(0.707106781187,0.707106781187,-8.659560562355E-17)
  );
#568 = ADVANCED_FACE('',(#569),#575,.T.);
#569 = FACE_BOUND('',#570,.F.);
#570 = EDGE_LOOP('',(#571,#572,#573,#574));
#571 = ORIENTED_EDGE('',*,*,#123,.T.);
#572 = ORIENTED_EDGE('',*,*,#556,.T.);
#573 = ORIENTED_EDGE('',*,*,#308,.F.);
#574 = ORIENTED_EDGE('',*,*,#539,.F.);
#575 = CYLINDRICAL_SURFACE('',#576,0.5);
#576 = AXIS2_PLACEMENT_3D('',#577,#578,#579);
#577 = CARTESIAN_POINT('',(4.990704960408,0.957811741595,2.11));
#578 = DIRECTION('',(0.,-1.224646799147E-16,-1.));
#579 = DIRECTION('',(-0.338307345914,-0.941035673979,1.152436326021E-16)
  );
#580 = ADVANCED_FACE('',(#581),#630,.F.);
#581 = FACE_BOUND('',#582,.F.);
#582 = EDGE_LOOP('',(#583,#584,#585,#593,#602,#610,#619,#625,#626,#627,
    #628,#629));
#583 = ORIENTED_EDGE('',*,*,#349,.T.);
#584 = ORIENTED_EDGE('',*,*,#189,.T.);
#585 = ORIENTED_EDGE('',*,*,#586,.T.);
#586 = EDGE_CURVE('',#190,#587,#589,.T.);
#587 = VERTEX_POINT('',#588);
#588 = CARTESIAN_POINT('',(-9.019087296526,-1.644660940672E-02,4.));
#589 = LINE('',#590,#591);
#590 = CARTESIAN_POINT('',(-2.147766952966,-6.887766952966,4.));
#591 = VECTOR('',#592,1.);
#592 = DIRECTION('',(-0.707106781187,0.707106781187,-8.659560562355E-17)
  );
#593 = ORIENTED_EDGE('',*,*,#594,.T.);
#594 = EDGE_CURVE('',#587,#595,#597,.T.);
#595 = VERTEX_POINT('',#596);
#596 = CARTESIAN_POINT('',(-9.019087296526,2.811980515339,4.));
#597 = CIRCLE('',#598,2.);
#598 = AXIS2_PLACEMENT_3D('',#599,#600,#601);
#599 = CARTESIAN_POINT('',(-7.604873734153,1.397766952966,4.));
#600 = DIRECTION('',(0.,-1.224646799147E-16,-1.));
#601 = DIRECTION('',(0.,1.,-1.224646799147E-16));
#602 = ORIENTED_EDGE('',*,*,#603,.T.);
#603 = EDGE_CURVE('',#595,#604,#606,.T.);
#604 = VERTEX_POINT('',#605);
#605 = CARTESIAN_POINT('',(-2.811980515339,9.019087296526,4.));
#606 = LINE('',#607,#608);
#607 = CARTESIAN_POINT('',(-10.43330085889,1.397766952966,4.));
#608 = VECTOR('',#609,1.);
#609 = DIRECTION('',(0.707106781187,0.707106781187,-8.659560562355E-17)
  );
#610 = ORIENTED_EDGE('',*,*,#611,.F.);
#611 = EDGE_CURVE('',#612,#604,#614,.T.);
#612 = VERTEX_POINT('',#613);
#613 = CARTESIAN_POINT('',(1.644660940673E-02,9.019087296526,4.));
#614 = CIRCLE('',#615,2.);
#615 = AXIS2_PLACEMENT_3D('',#616,#617,#618);
#616 = CARTESIAN_POINT('',(-1.397766952966,7.604873734153,4.));
#617 = DIRECTION('',(0.,1.224646799147E-16,1.));
#618 = DIRECTION('',(0.,1.,-1.224646799147E-16));
#619 = ORIENTED_EDGE('',*,*,#620,.F.);
#620 = EDGE_CURVE('',#507,#612,#621,.T.);
#621 = LINE('',#622,#623);
#622 = CARTESIAN_POINT('',(6.887766952966,2.147766952966,4.));
#623 = VECTOR('',#624,1.);
#624 = DIRECTION('',(-0.707106781187,0.707106781187,-8.659560562355E-17)
  );
#625 = ORIENTED_EDGE('',*,*,#506,.T.);
#626 = ORIENTED_EDGE('',*,*,#465,.F.);
#627 = ORIENTED_EDGE('',*,*,#423,.T.);
#628 = ORIENTED_EDGE('',*,*,#398,.F.);
#629 = ORIENTED_EDGE('',*,*,#373,.F.);
#630 = PLANE('',#631);
#631 = AXIS2_PLACEMENT_3D('',#632,#633,#634);
#632 = CARTESIAN_POINT('',(-1.851685132618,1.851685132618,4.));
#633 = DIRECTION('',(0.,-1.224646799147E-16,-1.));
#634 = DIRECTION('',(1.,0.,0.));
#635 = ADVANCED_FACE('',(#636),#647,.F.);
#636 = FACE_BOUND('',#637,.F.);
#637 = EDGE_LOOP('',(#638,#639,#640,#641));
#638 = ORIENTED_EDGE('',*,*,#586,.F.);
#639 = ORIENTED_EDGE('',*,*,#198,.T.);
#640 = ORIENTED_EDGE('',*,*,#249,.T.);
#641 = ORIENTED_EDGE('',*,*,#642,.F.);
#642 = EDGE_CURVE('',#587,#250,#643,.T.);
#643 = LINE('',#644,#645);
#644 = CARTESIAN_POINT('',(-9.019087296526,-1.644660940672E-02,4.));
#645 = VECTOR('',#646,1.);
#646 = DIRECTION('',(0.,-1.224646799147E-16,-1.));
#647 = PLANE('',#648);
#648 = AXIS2_PLACEMENT_3D('',#649,#650,#651);
#649 = CARTESIAN_POINT('',(-2.147766952966,-6.887766952966,4.));
#650 = DIRECTION('',(0.707106781187,0.707106781187,-8.659560562355E-17)
  );
#651 = DIRECTION('',(-0.707106781187,0.707106781187,-8.659560562355E-17)
  );
#652 = ADVANCED_FACE('',(#653),#664,.T.);
#653 = FACE_BOUND('',#654,.T.);
#654 = EDGE_LOOP('',(#655,#656,#662,#663));
#655 = ORIENTED_EDGE('',*,*,#594,.T.);
#656 = ORIENTED_EDGE('',*,*,#657,.T.);
#657 = EDGE_CURVE('',#595,#258,#658,.T.);
#658 = LINE('',#659,#660);
#659 = CARTESIAN_POINT('',(-9.019087296526,2.811980515339,4.));
#660 = VECTOR('',#661,1.);
#661 = DIRECTION('',(0.,-1.224646799147E-16,-1.));
#662 = ORIENTED_EDGE('',*,*,#257,.F.);
#663 = ORIENTED_EDGE('',*,*,#642,.F.);
#664 = CYLINDRICAL_SURFACE('',#665,2.);
#665 = AXIS2_PLACEMENT_3D('',#666,#667,#668);
#666 = CARTESIAN_POINT('',(-7.604873734153,1.397766952966,4.));
#667 = DIRECTION('',(0.,-1.224646799147E-16,-1.));
#668 = DIRECTION('',(-0.707106781187,-0.707106781187,8.659560562355E-17)
  );
#669 = ADVANCED_FACE('',(#670),#681,.F.);
#670 = FACE_BOUND('',#671,.F.);
#671 = EDGE_LOOP('',(#672,#673,#674,#675));
#672 = ORIENTED_EDGE('',*,*,#603,.F.);
#673 = ORIENTED_EDGE('',*,*,#657,.T.);
#674 = ORIENTED_EDGE('',*,*,#266,.T.);
#675 = ORIENTED_EDGE('',*,*,#676,.F.);
#676 = EDGE_CURVE('',#604,#267,#677,.T.);
#677 = LINE('',#678,#679);
#678 = CARTESIAN_POINT('',(-2.811980515339,9.019087296526,4.));
#679 = VECTOR('',#680,1.);
#680 = DIRECTION('',(0.,-1.224646799147E-16,-1.));
#681 = PLANE('',#682);
#682 = AXIS2_PLACEMENT_3D('',#683,#684,#685);
#683 = CARTESIAN_POINT('',(-10.43330085889,1.397766952966,4.));
#684 = DIRECTION('',(0.707106781187,-0.707106781187,8.659560562355E-17)
  );
#685 = DIRECTION('',(0.707106781187,0.707106781187,-8.659560562355E-17)
  );
#686 = ADVANCED_FACE('',(#687),#698,.T.);
#687 = FACE_BOUND('',#688,.F.);
#688 = EDGE_LOOP('',(#689,#690,#691,#692));
#689 = ORIENTED_EDGE('',*,*,#611,.T.);
#690 = ORIENTED_EDGE('',*,*,#676,.T.);
#691 = ORIENTED_EDGE('',*,*,#274,.F.);
#692 = ORIENTED_EDGE('',*,*,#693,.F.);
#693 = EDGE_CURVE('',#612,#275,#694,.T.);
#694 = LINE('',#695,#696);
#695 = CARTESIAN_POINT('',(1.644660940673E-02,9.019087296526,4.));
#696 = VECTOR('',#697,1.);
#697 = DIRECTION('',(0.,-1.224646799147E-16,-1.));
#698 = CYLINDRICAL_SURFACE('',#699,2.);
#699 = AXIS2_PLACEMENT_3D('',#700,#701,#702);
#700 = CARTESIAN_POINT('',(-1.397766952966,7.604873734153,4.));
#701 = DIRECTION('',(0.,-1.224646799147E-16,-1.));
#702 = DIRECTION('',(0.707106781187,0.707106781187,-8.659560562355E-17)
  );
#703 = ADVANCED_FACE('',(#704),#710,.T.);
#704 = FACE_BOUND('',#705,.T.);
#705 = EDGE_LOOP('',(#706,#707,#708,#709));
#706 = ORIENTED_EDGE('',*,*,#620,.F.);
#707 = ORIENTED_EDGE('',*,*,#524,.T.);
#708 = ORIENTED_EDGE('',*,*,#283,.T.);
#709 = ORIENTED_EDGE('',*,*,#693,.F.);
#710 = PLANE('',#711);
#711 = AXIS2_PLACEMENT_3D('',#712,#713,#714);
#712 = CARTESIAN_POINT('',(6.887766952966,2.147766952966,4.));
#713 = DIRECTION('',(0.707106781187,0.707106781187,-8.659560562355E-17)
  );
#714 = DIRECTION('',(-0.707106781187,0.707106781187,-8.659560562355E-17)
  );
#715 = ( GEOMETRIC_REPRESENTATION_CONTEXT(3) 
GLOBAL_UNCERTAINTY_ASSIGNED_CONTEXT((#719)) GLOBAL_UNIT_ASSIGNED_CONTEXT
((#716,#717,#718)) REPRESENTATION_CONTEXT('Context #1',
  '3D Context with UNIT and UNCERTAINTY') );
#716 = ( LENGTH_UNIT() NAMED_UNIT(*) SI_UNIT(.MILLI.,.METRE.) );
#717 = ( NAMED_UNIT(*) PLANE_ANGLE_UNIT() SI_UNIT($,.RADIAN.) );
#718 = ( NAMED_UNIT(*) SI_UNIT($,.STERADIAN.) SOLID_ANGLE_UNIT() );
#719 = UNCERTAINTY_MEASURE_WITH_UNIT(LENGTH_MEASURE(2.E-06),#716,
  'distance_accuracy_value','confusion accuracy');
#720 = PRODUCT_RELATED_PRODUCT_CATEGORY('part',$,(#7));
#721 = MECHANICAL_DESIGN_GEOMETRIC_PRESENTATION_REPRESENTATION('',(#722)
  ,#715);
#722 = STYLED_ITEM('color',(#723),#15);
#723 = PRESENTATION_STYLE_ASSIGNMENT((#724,#730));
#724 = SURFACE_STYLE_USAGE(.BOTH.,#725);
#725 = SURFACE_SIDE_STYLE('',(#726));
#726 = SURFACE_STYLE_FILL_AREA(#727);
#727 = FILL_AREA_STYLE('',(#728));
#728 = FILL_AREA_STYLE_COLOUR('',#729);
#729 = COLOUR_RGB('',0.701960807317,0.666666687201,0.611764719091);
#730 = CURVE_STYLE('',#731,POSITIVE_LENGTH_MEASURE(0.1),#732);
#731 = DRAUGHTING_PRE_DEFINED_CURVE_FONT('continuous');
#732 = COLOUR_RGB('',9.803921802644E-02,9.803921802644E-02,
  9.803921802644E-02);
ENDSEC;
END-ISO-10303-21;
