ISO-10303-21;
HEADER;
FILE_DESCRIPTION(('FreeCAD Model'),'2;1');
FILE_NAME('Open CASCADE Shape Model','2026-03-21T13:26:22',(''),(''),
  'Open CASCADE STEP processor 7.8','FreeCAD','Unknown');
FILE_SCHEMA(('AUTOMOTIVE_DESIGN { 1 0 10303 214 1 1 1 1 }'));
ENDSEC;
DATA;
#1 = APPLICATION_PROTOCOL_DEFINITION('international standard',
  'automotive_design',2000,#2);
#2 = APPLICATION_CONTEXT(
  'core data for automotive mechanical design processes');
#3 = SHAPE_DEFINITION_REPRESENTATION(#4,#10);
#4 = PRODUCT_DEFINITION_SHAPE('','',#5);
#5 = PRODUCT_DEFINITION('design','',#6,#9);
#6 = PRODUCT_DEFINITION_FORMATION('','',#7);
#7 = PRODUCT('Coarse Piezo Aligner 1','Coarse Piezo Aligner 1','',(#8));
#8 = PRODUCT_CONTEXT('',#2,'mechanical');
#9 = PRODUCT_DEFINITION_CONTEXT('part definition',#2,'design');
#10 = ADVANCED_BREP_SHAPE_REPRESENTATION('',(#11,#15),#579);
#11 = AXIS2_PLACEMENT_3D('',#12,#13,#14);
#12 = CARTESIAN_POINT('',(0.,0.,0.));
#13 = DIRECTION('',(0.,0.,1.));
#14 = DIRECTION('',(1.,0.,-0.));
#15 = MANIFOLD_SOLID_BREP('',#16);
#16 = CLOSED_SHELL('',(#17,#57,#193,#218,#243,#363,#380,#397,#414,#431,
    #448,#465,#482,#499,#516,#533,#550,#567));
#17 = ADVANCED_FACE('',(#18),#52,.F.);
#18 = FACE_BOUND('',#19,.F.);
#19 = EDGE_LOOP('',(#20,#30,#38,#46));
#20 = ORIENTED_EDGE('',*,*,#21,.F.);
#21 = EDGE_CURVE('',#22,#24,#26,.T.);
#22 = VERTEX_POINT('',#23);
#23 = CARTESIAN_POINT('',(6.266446609407,2.526446609407,0.));
#24 = VERTEX_POINT('',#25);
#25 = CARTESIAN_POINT('',(6.473553390593,2.733553390593,0.));
#26 = LINE('',#27,#28);
#27 = CARTESIAN_POINT('',(6.12,2.38,0.));
#28 = VECTOR('',#29,1.);
#29 = DIRECTION('',(0.707106781187,0.707106781187,0.));
#30 = ORIENTED_EDGE('',*,*,#31,.T.);
#31 = EDGE_CURVE('',#22,#32,#34,.T.);
#32 = VERTEX_POINT('',#33);
#33 = CARTESIAN_POINT('',(6.266446609407,2.526446609407,5.));
#34 = LINE('',#35,#36);
#35 = CARTESIAN_POINT('',(6.266446609407,2.526446609407,0.));
#36 = VECTOR('',#37,1.);
#37 = DIRECTION('',(0.,0.,1.));
#38 = ORIENTED_EDGE('',*,*,#39,.T.);
#39 = EDGE_CURVE('',#32,#40,#42,.T.);
#40 = VERTEX_POINT('',#41);
#41 = CARTESIAN_POINT('',(6.473553390593,2.733553390593,5.));
#42 = LINE('',#43,#44);
#43 = CARTESIAN_POINT('',(6.12,2.38,5.));
#44 = VECTOR('',#45,1.);
#45 = DIRECTION('',(0.707106781187,0.707106781187,0.));
#46 = ORIENTED_EDGE('',*,*,#47,.F.);
#47 = EDGE_CURVE('',#24,#40,#48,.T.);
#48 = LINE('',#49,#50);
#49 = CARTESIAN_POINT('',(6.473553390593,2.733553390593,0.));
#50 = VECTOR('',#51,1.);
#51 = DIRECTION('',(0.,0.,1.));
#52 = PLANE('',#53);
#53 = AXIS2_PLACEMENT_3D('',#54,#55,#56);
#54 = CARTESIAN_POINT('',(6.12,2.38,0.));
#55 = DIRECTION('',(-0.707106781187,0.707106781187,0.));
#56 = DIRECTION('',(0.707106781187,0.707106781187,0.));
#57 = ADVANCED_FACE('',(#58),#188,.F.);
#58 = FACE_BOUND('',#59,.F.);
#59 = EDGE_LOOP('',(#60,#61,#70,#78,#87,#95,#104,#112,#121,#129,#138,
    #146,#155,#164,#173,#181));
#60 = ORIENTED_EDGE('',*,*,#21,.T.);
#61 = ORIENTED_EDGE('',*,*,#62,.T.);
#62 = EDGE_CURVE('',#24,#63,#65,.T.);
#63 = VERTEX_POINT('',#64);
#64 = CARTESIAN_POINT('',(6.473553390593,5.561980515339,0.));
#65 = CIRCLE('',#66,2.);
#66 = AXIS2_PLACEMENT_3D('',#67,#68,#69);
#67 = CARTESIAN_POINT('',(5.05933982822,4.147766952966,0.));
#68 = DIRECTION('',(0.,0.,1.));
#69 = DIRECTION('',(-1.,2.22044604925E-16,0.));
#70 = ORIENTED_EDGE('',*,*,#71,.T.);
#71 = EDGE_CURVE('',#63,#72,#74,.T.);
#72 = VERTEX_POINT('',#73);
#73 = CARTESIAN_POINT('',(1.516446609407,10.519087296526,0.));
#74 = LINE('',#75,#76);
#75 = CARTESIAN_POINT('',(7.887766952966,4.147766952966,0.));
#76 = VECTOR('',#77,1.);
#77 = DIRECTION('',(-0.707106781187,0.707106781187,0.));
#78 = ORIENTED_EDGE('',*,*,#79,.T.);
#79 = EDGE_CURVE('',#72,#80,#82,.T.);
#80 = VERTEX_POINT('',#81);
#81 = CARTESIAN_POINT('',(-1.311980515339,10.519087296526,0.));
#82 = CIRCLE('',#83,2.);
#83 = AXIS2_PLACEMENT_3D('',#84,#85,#86);
#84 = CARTESIAN_POINT('',(0.102233047034,9.104873734153,0.));
#85 = DIRECTION('',(0.,0.,1.));
#86 = DIRECTION('',(-1.,2.22044604925E-16,0.));
#87 = ORIENTED_EDGE('',*,*,#88,.T.);
#88 = EDGE_CURVE('',#80,#89,#91,.T.);
#89 = VERTEX_POINT('',#90);
#90 = CARTESIAN_POINT('',(-10.01908729652,1.811980515339,0.));
#91 = LINE('',#92,#93);
#92 = CARTESIAN_POINT('',(0.102233047034,11.933300858899,0.));
#93 = VECTOR('',#94,1.);
#94 = DIRECTION('',(-0.707106781187,-0.707106781187,0.));
#95 = ORIENTED_EDGE('',*,*,#96,.T.);
#96 = EDGE_CURVE('',#89,#97,#99,.T.);
#97 = VERTEX_POINT('',#98);
#98 = CARTESIAN_POINT('',(-10.01908729652,-1.016446609407,0.));
#99 = CIRCLE('',#100,2.);
#100 = AXIS2_PLACEMENT_3D('',#101,#102,#103);
#101 = CARTESIAN_POINT('',(-8.604873734153,0.397766952966,0.));
#102 = DIRECTION('',(0.,0.,1.));
#103 = DIRECTION('',(-1.,2.22044604925E-16,0.));
#104 = ORIENTED_EDGE('',*,*,#105,.F.);
#105 = EDGE_CURVE('',#106,#97,#108,.T.);
#106 = VERTEX_POINT('',#107);
#107 = CARTESIAN_POINT('',(-5.561980515339,-5.473553390593,0.));
#108 = LINE('',#109,#110);
#109 = CARTESIAN_POINT('',(-4.147766952966,-6.887766952966,0.));
#110 = VECTOR('',#111,1.);
#111 = DIRECTION('',(-0.707106781187,0.707106781187,0.));
#112 = ORIENTED_EDGE('',*,*,#113,.T.);
#113 = EDGE_CURVE('',#106,#114,#116,.T.);
#114 = VERTEX_POINT('',#115);
#115 = CARTESIAN_POINT('',(-2.733553390593,-5.473553390593,0.));
#116 = CIRCLE('',#117,2.);
#117 = AXIS2_PLACEMENT_3D('',#118,#119,#120);
#118 = CARTESIAN_POINT('',(-4.147766952966,-4.05933982822,0.));
#119 = DIRECTION('',(0.,0.,1.));
#120 = DIRECTION('',(-1.,2.22044604925E-16,0.));
#121 = ORIENTED_EDGE('',*,*,#122,.F.);
#122 = EDGE_CURVE('',#123,#114,#125,.T.);
#123 = VERTEX_POINT('',#124);
#124 = CARTESIAN_POINT('',(-2.526446609407,-5.266446609407,0.));
#125 = LINE('',#126,#127);
#126 = CARTESIAN_POINT('',(-2.38,-5.12,0.));
#127 = VECTOR('',#128,1.);
#128 = DIRECTION('',(-0.707106781187,-0.707106781187,0.));
#129 = ORIENTED_EDGE('',*,*,#130,.F.);
#130 = EDGE_CURVE('',#131,#123,#133,.T.);
#131 = VERTEX_POINT('',#132);
#132 = CARTESIAN_POINT('',(-2.38,-4.912893218813,0.));
#133 = CIRCLE('',#134,0.5);
#134 = AXIS2_PLACEMENT_3D('',#135,#136,#137);
#135 = CARTESIAN_POINT('',(-2.88,-4.912893218813,0.));
#136 = DIRECTION('',(0.,0.,-1.));
#137 = DIRECTION('',(-1.,2.22044604925E-16,0.));
#138 = ORIENTED_EDGE('',*,*,#139,.F.);
#139 = EDGE_CURVE('',#140,#131,#142,.T.);
#140 = VERTEX_POINT('',#141);
#141 = CARTESIAN_POINT('',(-2.38,0.702949016875,0.));
#142 = LINE('',#143,#144);
#143 = CARTESIAN_POINT('',(-2.38,1.13,0.));
#144 = VECTOR('',#145,1.);
#145 = DIRECTION('',(-1.52044604925E-16,-1.,0.));
#146 = ORIENTED_EDGE('',*,*,#147,.F.);
#147 = EDGE_CURVE('',#148,#140,#150,.T.);
#148 = VERTEX_POINT('',#149);
#149 = CARTESIAN_POINT('',(-2.737142857143,1.182106440625,0.));
#150 = CIRCLE('',#151,0.5);
#151 = AXIS2_PLACEMENT_3D('',#152,#153,#154);
#152 = CARTESIAN_POINT('',(-2.88,0.702949016875,0.));
#153 = DIRECTION('',(0.,0.,-1.));
#154 = DIRECTION('',(-1.,2.22044604925E-16,0.));
#155 = ORIENTED_EDGE('',*,*,#156,.F.);
#156 = EDGE_CURVE('',#157,#148,#159,.T.);
#157 = VERTEX_POINT('',#158);
#158 = CARTESIAN_POINT('',(-1.182106440625,2.737142857143,0.));
#159 = CIRCLE('',#160,1.25);
#160 = AXIS2_PLACEMENT_3D('',#161,#162,#163);
#161 = CARTESIAN_POINT('',(-2.38,2.38,0.));
#162 = DIRECTION('',(0.,0.,1.));
#163 = DIRECTION('',(-2.22044604925E-16,-1.,0.));
#164 = ORIENTED_EDGE('',*,*,#165,.F.);
#165 = EDGE_CURVE('',#166,#157,#168,.T.);
#166 = VERTEX_POINT('',#167);
#167 = CARTESIAN_POINT('',(-0.702949016875,2.38,0.));
#168 = CIRCLE('',#169,0.5);
#169 = AXIS2_PLACEMENT_3D('',#170,#171,#172);
#170 = CARTESIAN_POINT('',(-0.702949016875,2.88,0.));
#171 = DIRECTION('',(0.,0.,-1.));
#172 = DIRECTION('',(-1.,2.22044604925E-16,0.));
#173 = ORIENTED_EDGE('',*,*,#174,.T.);
#174 = EDGE_CURVE('',#166,#175,#177,.T.);
#175 = VERTEX_POINT('',#176);
#176 = CARTESIAN_POINT('',(5.912893218813,2.38,0.));
#177 = LINE('',#178,#179);
#178 = CARTESIAN_POINT('',(-1.13,2.38,0.));
#179 = VECTOR('',#180,1.);
#180 = DIRECTION('',(1.,-1.62044604925E-16,0.));
#181 = ORIENTED_EDGE('',*,*,#182,.F.);
#182 = EDGE_CURVE('',#22,#175,#183,.T.);
#183 = CIRCLE('',#184,0.5);
#184 = AXIS2_PLACEMENT_3D('',#185,#186,#187);
#185 = CARTESIAN_POINT('',(5.912893218813,2.88,0.));
#186 = DIRECTION('',(0.,0.,-1.));
#187 = DIRECTION('',(-1.,2.22044604925E-16,0.));
#188 = PLANE('',#189);
#189 = AXIS2_PLACEMENT_3D('',#190,#191,#192);
#190 = CARTESIAN_POINT('',(-2.114096493012,2.724061084925,0.));
#191 = DIRECTION('',(0.,0.,1.));
#192 = DIRECTION('',(-2.22044604925E-16,-1.,0.));
#193 = ADVANCED_FACE('',(#194),#213,.T.);
#194 = FACE_BOUND('',#195,.T.);
#195 = EDGE_LOOP('',(#196,#197,#205,#212));
#196 = ORIENTED_EDGE('',*,*,#62,.T.);
#197 = ORIENTED_EDGE('',*,*,#198,.T.);
#198 = EDGE_CURVE('',#63,#199,#201,.T.);
#199 = VERTEX_POINT('',#200);
#200 = CARTESIAN_POINT('',(6.473553390593,5.561980515339,5.));
#201 = LINE('',#202,#203);
#202 = CARTESIAN_POINT('',(6.473553390593,5.561980515339,0.));
#203 = VECTOR('',#204,1.);
#204 = DIRECTION('',(0.,0.,1.));
#205 = ORIENTED_EDGE('',*,*,#206,.F.);
#206 = EDGE_CURVE('',#40,#199,#207,.T.);
#207 = CIRCLE('',#208,2.);
#208 = AXIS2_PLACEMENT_3D('',#209,#210,#211);
#209 = CARTESIAN_POINT('',(5.05933982822,4.147766952966,5.));
#210 = DIRECTION('',(0.,0.,1.));
#211 = DIRECTION('',(-1.,2.22044604925E-16,0.));
#212 = ORIENTED_EDGE('',*,*,#47,.F.);
#213 = CYLINDRICAL_SURFACE('',#214,2.);
#214 = AXIS2_PLACEMENT_3D('',#215,#216,#217);
#215 = CARTESIAN_POINT('',(5.05933982822,4.147766952966,0.));
#216 = DIRECTION('',(0.,0.,1.));
#217 = DIRECTION('',(0.707106781187,-0.707106781187,0.));
#218 = ADVANCED_FACE('',(#219),#238,.T.);
#219 = FACE_BOUND('',#220,.F.);
#220 = EDGE_LOOP('',(#221,#222,#230,#237));
#221 = ORIENTED_EDGE('',*,*,#182,.T.);
#222 = ORIENTED_EDGE('',*,*,#223,.T.);
#223 = EDGE_CURVE('',#175,#224,#226,.T.);
#224 = VERTEX_POINT('',#225);
#225 = CARTESIAN_POINT('',(5.912893218813,2.38,5.));
#226 = LINE('',#227,#228);
#227 = CARTESIAN_POINT('',(5.912893218813,2.38,0.));
#228 = VECTOR('',#229,1.);
#229 = DIRECTION('',(0.,0.,1.));
#230 = ORIENTED_EDGE('',*,*,#231,.F.);
#231 = EDGE_CURVE('',#32,#224,#232,.T.);
#232 = CIRCLE('',#233,0.5);
#233 = AXIS2_PLACEMENT_3D('',#234,#235,#236);
#234 = CARTESIAN_POINT('',(5.912893218813,2.88,5.));
#235 = DIRECTION('',(0.,0.,-1.));
#236 = DIRECTION('',(-1.,2.22044604925E-16,0.));
#237 = ORIENTED_EDGE('',*,*,#31,.F.);
#238 = CYLINDRICAL_SURFACE('',#239,0.5);
#239 = AXIS2_PLACEMENT_3D('',#240,#241,#242);
#240 = CARTESIAN_POINT('',(5.912893218813,2.88,0.));
#241 = DIRECTION('',(0.,0.,1.));
#242 = DIRECTION('',(0.707106781187,-0.707106781187,0.));
#243 = ADVANCED_FACE('',(#244),#358,.T.);
#244 = FACE_BOUND('',#245,.T.);
#245 = EDGE_LOOP('',(#246,#247,#248,#256,#265,#273,#282,#290,#299,#307,
    #316,#324,#333,#342,#351,#357));
#246 = ORIENTED_EDGE('',*,*,#39,.T.);
#247 = ORIENTED_EDGE('',*,*,#206,.T.);
#248 = ORIENTED_EDGE('',*,*,#249,.T.);
#249 = EDGE_CURVE('',#199,#250,#252,.T.);
#250 = VERTEX_POINT('',#251);
#251 = CARTESIAN_POINT('',(1.516446609407,10.519087296526,5.));
#252 = LINE('',#253,#254);
#253 = CARTESIAN_POINT('',(7.887766952966,4.147766952966,5.));
#254 = VECTOR('',#255,1.);
#255 = DIRECTION('',(-0.707106781187,0.707106781187,0.));
#256 = ORIENTED_EDGE('',*,*,#257,.T.);
#257 = EDGE_CURVE('',#250,#258,#260,.T.);
#258 = VERTEX_POINT('',#259);
#259 = CARTESIAN_POINT('',(-1.311980515339,10.519087296526,5.));
#260 = CIRCLE('',#261,2.);
#261 = AXIS2_PLACEMENT_3D('',#262,#263,#264);
#262 = CARTESIAN_POINT('',(0.102233047034,9.104873734153,5.));
#263 = DIRECTION('',(0.,0.,1.));
#264 = DIRECTION('',(-1.,2.22044604925E-16,0.));
#265 = ORIENTED_EDGE('',*,*,#266,.T.);
#266 = EDGE_CURVE('',#258,#267,#269,.T.);
#267 = VERTEX_POINT('',#268);
#268 = CARTESIAN_POINT('',(-10.01908729652,1.811980515339,5.));
#269 = LINE('',#270,#271);
#270 = CARTESIAN_POINT('',(0.102233047034,11.933300858899,5.));
#271 = VECTOR('',#272,1.);
#272 = DIRECTION('',(-0.707106781187,-0.707106781187,0.));
#273 = ORIENTED_EDGE('',*,*,#274,.T.);
#274 = EDGE_CURVE('',#267,#275,#277,.T.);
#275 = VERTEX_POINT('',#276);
#276 = CARTESIAN_POINT('',(-10.01908729652,-1.016446609407,5.));
#277 = CIRCLE('',#278,2.);
#278 = AXIS2_PLACEMENT_3D('',#279,#280,#281);
#279 = CARTESIAN_POINT('',(-8.604873734153,0.397766952966,5.));
#280 = DIRECTION('',(0.,0.,1.));
#281 = DIRECTION('',(-1.,2.22044604925E-16,0.));
#282 = ORIENTED_EDGE('',*,*,#283,.F.);
#283 = EDGE_CURVE('',#284,#275,#286,.T.);
#284 = VERTEX_POINT('',#285);
#285 = CARTESIAN_POINT('',(-5.561980515339,-5.473553390593,5.));
#286 = LINE('',#287,#288);
#287 = CARTESIAN_POINT('',(-4.147766952966,-6.887766952966,5.));
#288 = VECTOR('',#289,1.);
#289 = DIRECTION('',(-0.707106781187,0.707106781187,0.));
#290 = ORIENTED_EDGE('',*,*,#291,.T.);
#291 = EDGE_CURVE('',#284,#292,#294,.T.);
#292 = VERTEX_POINT('',#293);
#293 = CARTESIAN_POINT('',(-2.733553390593,-5.473553390593,5.));
#294 = CIRCLE('',#295,2.);
#295 = AXIS2_PLACEMENT_3D('',#296,#297,#298);
#296 = CARTESIAN_POINT('',(-4.147766952966,-4.05933982822,5.));
#297 = DIRECTION('',(0.,0.,1.));
#298 = DIRECTION('',(-1.,2.22044604925E-16,0.));
#299 = ORIENTED_EDGE('',*,*,#300,.F.);
#300 = EDGE_CURVE('',#301,#292,#303,.T.);
#301 = VERTEX_POINT('',#302);
#302 = CARTESIAN_POINT('',(-2.526446609407,-5.266446609407,5.));
#303 = LINE('',#304,#305);
#304 = CARTESIAN_POINT('',(-2.38,-5.12,5.));
#305 = VECTOR('',#306,1.);
#306 = DIRECTION('',(-0.707106781187,-0.707106781187,0.));
#307 = ORIENTED_EDGE('',*,*,#308,.F.);
#308 = EDGE_CURVE('',#309,#301,#311,.T.);
#309 = VERTEX_POINT('',#310);
#310 = CARTESIAN_POINT('',(-2.38,-4.912893218813,5.));
#311 = CIRCLE('',#312,0.5);
#312 = AXIS2_PLACEMENT_3D('',#313,#314,#315);
#313 = CARTESIAN_POINT('',(-2.88,-4.912893218813,5.));
#314 = DIRECTION('',(0.,0.,-1.));
#315 = DIRECTION('',(-1.,2.22044604925E-16,0.));
#316 = ORIENTED_EDGE('',*,*,#317,.F.);
#317 = EDGE_CURVE('',#318,#309,#320,.T.);
#318 = VERTEX_POINT('',#319);
#319 = CARTESIAN_POINT('',(-2.38,0.702949016875,5.));
#320 = LINE('',#321,#322);
#321 = CARTESIAN_POINT('',(-2.38,1.13,5.));
#322 = VECTOR('',#323,1.);
#323 = DIRECTION('',(-1.52044604925E-16,-1.,0.));
#324 = ORIENTED_EDGE('',*,*,#325,.F.);
#325 = EDGE_CURVE('',#326,#318,#328,.T.);
#326 = VERTEX_POINT('',#327);
#327 = CARTESIAN_POINT('',(-2.737142857143,1.182106440625,5.));
#328 = CIRCLE('',#329,0.5);
#329 = AXIS2_PLACEMENT_3D('',#330,#331,#332);
#330 = CARTESIAN_POINT('',(-2.88,0.702949016875,5.));
#331 = DIRECTION('',(0.,0.,-1.));
#332 = DIRECTION('',(-1.,2.22044604925E-16,0.));
#333 = ORIENTED_EDGE('',*,*,#334,.F.);
#334 = EDGE_CURVE('',#335,#326,#337,.T.);
#335 = VERTEX_POINT('',#336);
#336 = CARTESIAN_POINT('',(-1.182106440625,2.737142857143,5.));
#337 = CIRCLE('',#338,1.25);
#338 = AXIS2_PLACEMENT_3D('',#339,#340,#341);
#339 = CARTESIAN_POINT('',(-2.38,2.38,5.));
#340 = DIRECTION('',(0.,0.,1.));
#341 = DIRECTION('',(-2.22044604925E-16,-1.,0.));
#342 = ORIENTED_EDGE('',*,*,#343,.F.);
#343 = EDGE_CURVE('',#344,#335,#346,.T.);
#344 = VERTEX_POINT('',#345);
#345 = CARTESIAN_POINT('',(-0.702949016875,2.38,5.));
#346 = CIRCLE('',#347,0.5);
#347 = AXIS2_PLACEMENT_3D('',#348,#349,#350);
#348 = CARTESIAN_POINT('',(-0.702949016875,2.88,5.));
#349 = DIRECTION('',(0.,0.,-1.));
#350 = DIRECTION('',(-1.,2.22044604925E-16,0.));
#351 = ORIENTED_EDGE('',*,*,#352,.T.);
#352 = EDGE_CURVE('',#344,#224,#353,.T.);
#353 = LINE('',#354,#355);
#354 = CARTESIAN_POINT('',(-1.13,2.38,5.));
#355 = VECTOR('',#356,1.);
#356 = DIRECTION('',(1.,-1.62044604925E-16,0.));
#357 = ORIENTED_EDGE('',*,*,#231,.F.);
#358 = PLANE('',#359);
#359 = AXIS2_PLACEMENT_3D('',#360,#361,#362);
#360 = CARTESIAN_POINT('',(-2.114096493012,2.724061084925,5.));
#361 = DIRECTION('',(0.,0.,1.));
#362 = DIRECTION('',(-2.22044604925E-16,-1.,0.));
#363 = ADVANCED_FACE('',(#364),#375,.F.);
#364 = FACE_BOUND('',#365,.F.);
#365 = EDGE_LOOP('',(#366,#367,#368,#369));
#366 = ORIENTED_EDGE('',*,*,#71,.F.);
#367 = ORIENTED_EDGE('',*,*,#198,.T.);
#368 = ORIENTED_EDGE('',*,*,#249,.T.);
#369 = ORIENTED_EDGE('',*,*,#370,.F.);
#370 = EDGE_CURVE('',#72,#250,#371,.T.);
#371 = LINE('',#372,#373);
#372 = CARTESIAN_POINT('',(1.516446609407,10.519087296526,0.));
#373 = VECTOR('',#374,1.);
#374 = DIRECTION('',(0.,0.,1.));
#375 = PLANE('',#376);
#376 = AXIS2_PLACEMENT_3D('',#377,#378,#379);
#377 = CARTESIAN_POINT('',(7.887766952966,4.147766952966,0.));
#378 = DIRECTION('',(-0.707106781187,-0.707106781187,0.));
#379 = DIRECTION('',(-0.707106781187,0.707106781187,0.));
#380 = ADVANCED_FACE('',(#381),#392,.F.);
#381 = FACE_BOUND('',#382,.F.);
#382 = EDGE_LOOP('',(#383,#384,#390,#391));
#383 = ORIENTED_EDGE('',*,*,#174,.F.);
#384 = ORIENTED_EDGE('',*,*,#385,.T.);
#385 = EDGE_CURVE('',#166,#344,#386,.T.);
#386 = LINE('',#387,#388);
#387 = CARTESIAN_POINT('',(-0.702949016875,2.38,0.));
#388 = VECTOR('',#389,1.);
#389 = DIRECTION('',(0.,0.,1.));
#390 = ORIENTED_EDGE('',*,*,#352,.T.);
#391 = ORIENTED_EDGE('',*,*,#223,.F.);
#392 = PLANE('',#393);
#393 = AXIS2_PLACEMENT_3D('',#394,#395,#396);
#394 = CARTESIAN_POINT('',(-1.13,2.38,0.));
#395 = DIRECTION('',(1.62044604925E-16,1.,0.));
#396 = DIRECTION('',(1.,-1.62044604925E-16,0.));
#397 = ADVANCED_FACE('',(#398),#409,.T.);
#398 = FACE_BOUND('',#399,.T.);
#399 = EDGE_LOOP('',(#400,#401,#407,#408));
#400 = ORIENTED_EDGE('',*,*,#79,.T.);
#401 = ORIENTED_EDGE('',*,*,#402,.T.);
#402 = EDGE_CURVE('',#80,#258,#403,.T.);
#403 = LINE('',#404,#405);
#404 = CARTESIAN_POINT('',(-1.311980515339,10.519087296526,0.));
#405 = VECTOR('',#406,1.);
#406 = DIRECTION('',(0.,0.,1.));
#407 = ORIENTED_EDGE('',*,*,#257,.F.);
#408 = ORIENTED_EDGE('',*,*,#370,.F.);
#409 = CYLINDRICAL_SURFACE('',#410,2.);
#410 = AXIS2_PLACEMENT_3D('',#411,#412,#413);
#411 = CARTESIAN_POINT('',(0.102233047034,9.104873734153,0.));
#412 = DIRECTION('',(0.,0.,1.));
#413 = DIRECTION('',(0.707106781187,0.707106781187,0.));
#414 = ADVANCED_FACE('',(#415),#426,.T.);
#415 = FACE_BOUND('',#416,.F.);
#416 = EDGE_LOOP('',(#417,#418,#424,#425));
#417 = ORIENTED_EDGE('',*,*,#165,.T.);
#418 = ORIENTED_EDGE('',*,*,#419,.T.);
#419 = EDGE_CURVE('',#157,#335,#420,.T.);
#420 = LINE('',#421,#422);
#421 = CARTESIAN_POINT('',(-1.182106440625,2.737142857143,0.));
#422 = VECTOR('',#423,1.);
#423 = DIRECTION('',(0.,0.,1.));
#424 = ORIENTED_EDGE('',*,*,#343,.F.);
#425 = ORIENTED_EDGE('',*,*,#385,.F.);
#426 = CYLINDRICAL_SURFACE('',#427,0.5);
#427 = AXIS2_PLACEMENT_3D('',#428,#429,#430);
#428 = CARTESIAN_POINT('',(-0.702949016875,2.88,0.));
#429 = DIRECTION('',(0.,0.,1.));
#430 = DIRECTION('',(-1.62044604925E-16,-1.,0.));
#431 = ADVANCED_FACE('',(#432),#443,.F.);
#432 = FACE_BOUND('',#433,.F.);
#433 = EDGE_LOOP('',(#434,#435,#436,#437));
#434 = ORIENTED_EDGE('',*,*,#88,.F.);
#435 = ORIENTED_EDGE('',*,*,#402,.T.);
#436 = ORIENTED_EDGE('',*,*,#266,.T.);
#437 = ORIENTED_EDGE('',*,*,#438,.F.);
#438 = EDGE_CURVE('',#89,#267,#439,.T.);
#439 = LINE('',#440,#441);
#440 = CARTESIAN_POINT('',(-10.01908729652,1.811980515339,0.));
#441 = VECTOR('',#442,1.);
#442 = DIRECTION('',(0.,0.,1.));
#443 = PLANE('',#444);
#444 = AXIS2_PLACEMENT_3D('',#445,#446,#447);
#445 = CARTESIAN_POINT('',(0.102233047034,11.933300858899,0.));
#446 = DIRECTION('',(0.707106781187,-0.707106781187,0.));
#447 = DIRECTION('',(-0.707106781187,-0.707106781187,0.));
#448 = ADVANCED_FACE('',(#449),#460,.F.);
#449 = FACE_BOUND('',#450,.T.);
#450 = EDGE_LOOP('',(#451,#452,#453,#454));
#451 = ORIENTED_EDGE('',*,*,#156,.F.);
#452 = ORIENTED_EDGE('',*,*,#419,.T.);
#453 = ORIENTED_EDGE('',*,*,#334,.T.);
#454 = ORIENTED_EDGE('',*,*,#455,.F.);
#455 = EDGE_CURVE('',#148,#326,#456,.T.);
#456 = LINE('',#457,#458);
#457 = CARTESIAN_POINT('',(-2.737142857143,1.182106440625,0.));
#458 = VECTOR('',#459,1.);
#459 = DIRECTION('',(0.,0.,1.));
#460 = CYLINDRICAL_SURFACE('',#461,1.25);
#461 = AXIS2_PLACEMENT_3D('',#462,#463,#464);
#462 = CARTESIAN_POINT('',(-2.38,2.38,0.));
#463 = DIRECTION('',(0.,0.,-1.));
#464 = DIRECTION('',(-2.22044604925E-16,-1.,0.));
#465 = ADVANCED_FACE('',(#466),#477,.T.);
#466 = FACE_BOUND('',#467,.T.);
#467 = EDGE_LOOP('',(#468,#469,#475,#476));
#468 = ORIENTED_EDGE('',*,*,#96,.T.);
#469 = ORIENTED_EDGE('',*,*,#470,.T.);
#470 = EDGE_CURVE('',#97,#275,#471,.T.);
#471 = LINE('',#472,#473);
#472 = CARTESIAN_POINT('',(-10.01908729652,-1.016446609407,0.));
#473 = VECTOR('',#474,1.);
#474 = DIRECTION('',(0.,0.,1.));
#475 = ORIENTED_EDGE('',*,*,#274,.F.);
#476 = ORIENTED_EDGE('',*,*,#438,.F.);
#477 = CYLINDRICAL_SURFACE('',#478,2.);
#478 = AXIS2_PLACEMENT_3D('',#479,#480,#481);
#479 = CARTESIAN_POINT('',(-8.604873734153,0.397766952966,0.));
#480 = DIRECTION('',(0.,0.,1.));
#481 = DIRECTION('',(-0.707106781187,0.707106781187,0.));
#482 = ADVANCED_FACE('',(#483),#494,.T.);
#483 = FACE_BOUND('',#484,.F.);
#484 = EDGE_LOOP('',(#485,#486,#492,#493));
#485 = ORIENTED_EDGE('',*,*,#147,.T.);
#486 = ORIENTED_EDGE('',*,*,#487,.T.);
#487 = EDGE_CURVE('',#140,#318,#488,.T.);
#488 = LINE('',#489,#490);
#489 = CARTESIAN_POINT('',(-2.38,0.702949016875,0.));
#490 = VECTOR('',#491,1.);
#491 = DIRECTION('',(0.,0.,1.));
#492 = ORIENTED_EDGE('',*,*,#325,.F.);
#493 = ORIENTED_EDGE('',*,*,#455,.F.);
#494 = CYLINDRICAL_SURFACE('',#495,0.5);
#495 = AXIS2_PLACEMENT_3D('',#496,#497,#498);
#496 = CARTESIAN_POINT('',(-2.88,0.702949016875,0.));
#497 = DIRECTION('',(0.,0.,1.));
#498 = DIRECTION('',(0.285714285714,0.9583148475,0.));
#499 = ADVANCED_FACE('',(#500),#511,.T.);
#500 = FACE_BOUND('',#501,.T.);
#501 = EDGE_LOOP('',(#502,#503,#509,#510));
#502 = ORIENTED_EDGE('',*,*,#105,.F.);
#503 = ORIENTED_EDGE('',*,*,#504,.T.);
#504 = EDGE_CURVE('',#106,#284,#505,.T.);
#505 = LINE('',#506,#507);
#506 = CARTESIAN_POINT('',(-5.561980515339,-5.473553390593,0.));
#507 = VECTOR('',#508,1.);
#508 = DIRECTION('',(0.,0.,1.));
#509 = ORIENTED_EDGE('',*,*,#283,.T.);
#510 = ORIENTED_EDGE('',*,*,#470,.F.);
#511 = PLANE('',#512);
#512 = AXIS2_PLACEMENT_3D('',#513,#514,#515);
#513 = CARTESIAN_POINT('',(-4.147766952966,-6.887766952966,0.));
#514 = DIRECTION('',(-0.707106781187,-0.707106781187,0.));
#515 = DIRECTION('',(-0.707106781187,0.707106781187,0.));
#516 = ADVANCED_FACE('',(#517),#528,.T.);
#517 = FACE_BOUND('',#518,.T.);
#518 = EDGE_LOOP('',(#519,#520,#521,#522));
#519 = ORIENTED_EDGE('',*,*,#139,.F.);
#520 = ORIENTED_EDGE('',*,*,#487,.T.);
#521 = ORIENTED_EDGE('',*,*,#317,.T.);
#522 = ORIENTED_EDGE('',*,*,#523,.F.);
#523 = EDGE_CURVE('',#131,#309,#524,.T.);
#524 = LINE('',#525,#526);
#525 = CARTESIAN_POINT('',(-2.38,-4.912893218813,0.));
#526 = VECTOR('',#527,1.);
#527 = DIRECTION('',(0.,0.,1.));
#528 = PLANE('',#529);
#529 = AXIS2_PLACEMENT_3D('',#530,#531,#532);
#530 = CARTESIAN_POINT('',(-2.38,1.13,0.));
#531 = DIRECTION('',(1.,-1.52044604925E-16,0.));
#532 = DIRECTION('',(-1.52044604925E-16,-1.,0.));
#533 = ADVANCED_FACE('',(#534),#545,.T.);
#534 = FACE_BOUND('',#535,.T.);
#535 = EDGE_LOOP('',(#536,#537,#543,#544));
#536 = ORIENTED_EDGE('',*,*,#113,.T.);
#537 = ORIENTED_EDGE('',*,*,#538,.T.);
#538 = EDGE_CURVE('',#114,#292,#539,.T.);
#539 = LINE('',#540,#541);
#540 = CARTESIAN_POINT('',(-2.733553390593,-5.473553390593,0.));
#541 = VECTOR('',#542,1.);
#542 = DIRECTION('',(0.,0.,1.));
#543 = ORIENTED_EDGE('',*,*,#291,.F.);
#544 = ORIENTED_EDGE('',*,*,#504,.F.);
#545 = CYLINDRICAL_SURFACE('',#546,2.);
#546 = AXIS2_PLACEMENT_3D('',#547,#548,#549);
#547 = CARTESIAN_POINT('',(-4.147766952966,-4.05933982822,0.));
#548 = DIRECTION('',(0.,0.,1.));
#549 = DIRECTION('',(-0.707106781187,-0.707106781187,0.));
#550 = ADVANCED_FACE('',(#551),#562,.T.);
#551 = FACE_BOUND('',#552,.F.);
#552 = EDGE_LOOP('',(#553,#554,#560,#561));
#553 = ORIENTED_EDGE('',*,*,#130,.T.);
#554 = ORIENTED_EDGE('',*,*,#555,.T.);
#555 = EDGE_CURVE('',#123,#301,#556,.T.);
#556 = LINE('',#557,#558);
#557 = CARTESIAN_POINT('',(-2.526446609407,-5.266446609407,0.));
#558 = VECTOR('',#559,1.);
#559 = DIRECTION('',(0.,0.,1.));
#560 = ORIENTED_EDGE('',*,*,#308,.F.);
#561 = ORIENTED_EDGE('',*,*,#523,.F.);
#562 = CYLINDRICAL_SURFACE('',#563,0.5);
#563 = AXIS2_PLACEMENT_3D('',#564,#565,#566);
#564 = CARTESIAN_POINT('',(-2.88,-4.912893218813,0.));
#565 = DIRECTION('',(0.,0.,1.));
#566 = DIRECTION('',(1.,-1.52044604925E-16,0.));
#567 = ADVANCED_FACE('',(#568),#574,.T.);
#568 = FACE_BOUND('',#569,.T.);
#569 = EDGE_LOOP('',(#570,#571,#572,#573));
#570 = ORIENTED_EDGE('',*,*,#122,.F.);
#571 = ORIENTED_EDGE('',*,*,#555,.T.);
#572 = ORIENTED_EDGE('',*,*,#300,.T.);
#573 = ORIENTED_EDGE('',*,*,#538,.F.);
#574 = PLANE('',#575);
#575 = AXIS2_PLACEMENT_3D('',#576,#577,#578);
#576 = CARTESIAN_POINT('',(-2.38,-5.12,0.));
#577 = DIRECTION('',(0.707106781187,-0.707106781187,0.));
#578 = DIRECTION('',(-0.707106781187,-0.707106781187,0.));
#579 = ( GEOMETRIC_REPRESENTATION_CONTEXT(3) 
GLOBAL_UNCERTAINTY_ASSIGNED_CONTEXT((#583)) GLOBAL_UNIT_ASSIGNED_CONTEXT
((#580,#581,#582)) REPRESENTATION_CONTEXT('Context #1',
  '3D Context with UNIT and UNCERTAINTY') );
#580 = ( LENGTH_UNIT() NAMED_UNIT(*) SI_UNIT(.MILLI.,.METRE.) );
#581 = ( NAMED_UNIT(*) PLANE_ANGLE_UNIT() SI_UNIT($,.RADIAN.) );
#582 = ( NAMED_UNIT(*) SI_UNIT($,.STERADIAN.) SOLID_ANGLE_UNIT() );
#583 = UNCERTAINTY_MEASURE_WITH_UNIT(LENGTH_MEASURE(1.E-07),#580,
  'distance_accuracy_value','confusion accuracy');
#584 = PRODUCT_RELATED_PRODUCT_CATEGORY('part',$,(#7));
#585 = MECHANICAL_DESIGN_GEOMETRIC_PRESENTATION_REPRESENTATION('',(#586)
  ,#579);
#586 = STYLED_ITEM('color',(#587),#15);
#587 = PRESENTATION_STYLE_ASSIGNMENT((#588,#594));
#588 = SURFACE_STYLE_USAGE(.BOTH.,#589);
#589 = SURFACE_SIDE_STYLE('',(#590));
#590 = SURFACE_STYLE_FILL_AREA(#591);
#591 = FILL_AREA_STYLE('',(#592));
#592 = FILL_AREA_STYLE_COLOUR('',#593);
#593 = COLOUR_RGB('',0.701960807317,0.666666687201,0.611764719091);
#594 = CURVE_STYLE('',#595,POSITIVE_LENGTH_MEASURE(0.1),#596);
#595 = DRAUGHTING_PRE_DEFINED_CURVE_FONT('continuous');
#596 = COLOUR_RGB('',9.803921802644E-02,9.803921802644E-02,
  9.803921802644E-02);
ENDSEC;
END-ISO-10303-21;
