ISO-10303-21;
HEADER;
FILE_DESCRIPTION(('FreeCAD Model'),'2;1');
FILE_NAME('Open CASCADE Shape Model','2026-03-21T13:26:28',(''),(''),
  'Open CASCADE STEP processor 7.8','FreeCAD','Unknown');
FILE_SCHEMA(('AUTOMOTIVE_DESIGN { 1 0 10303 214 1 1 1 1 }'));
ENDSEC;
DATA;
#1 = APPLICATION_PROTOCOL_DEFINITION('international standard',
  'automotive_design',2000,#2);
#2 = APPLICATION_CONTEXT(
  'core data for automotive mechanical design processes');
#3 = SHAPE_DEFINITION_REPRESENTATION(#4,#10);
#4 = PRODUCT_DEFINITION_SHAPE('','',#5);
#5 = PRODUCT_DEFINITION('design','',#6,#9);
#6 = PRODUCT_DEFINITION_FORMATION('','',#7);
#7 = PRODUCT('Fine Piezo Aligner','Fine Piezo Aligner','',(#8));
#8 = PRODUCT_CONTEXT('',#2,'mechanical');
#9 = PRODUCT_DEFINITION_CONTEXT('part definition',#2,'design');
#10 = ADVANCED_BREP_SHAPE_REPRESENTATION('',(#11,#15),#579);
#11 = AXIS2_PLACEMENT_3D('',#12,#13,#14);
#12 = CARTESIAN_POINT('',(0.,0.,0.));
#13 = DIRECTION('',(0.,0.,1.));
#14 = DIRECTION('',(1.,0.,-0.));
#15 = MANIFOLD_SOLID_BREP('',#16);
#16 = CLOSED_SHELL('',(#17,#162,#193,#218,#243,#267,#291,#316,#341,#365,
    #390,#415,#440,#464,#488,#513,#538,#555));
#17 = ADVANCED_FACE('',(#18),#157,.F.);
#18 = FACE_BOUND('',#19,.F.);
#19 = EDGE_LOOP('',(#20,#30,#39,#47,#56,#64,#73,#81,#90,#98,#107,#115,
    #124,#133,#142,#150));
#20 = ORIENTED_EDGE('',*,*,#21,.T.);
#21 = EDGE_CURVE('',#22,#24,#26,.T.);
#22 = VERTEX_POINT('',#23);
#23 = CARTESIAN_POINT('',(-4.906446609407,9.386446609407,0.));
#24 = VERTEX_POINT('',#25);
#25 = CARTESIAN_POINT('',(-5.113553390593,9.593553390593,0.));
#26 = LINE('',#27,#28);
#27 = CARTESIAN_POINT('',(-4.76,9.24,0.));
#28 = VECTOR('',#29,1.);
#29 = DIRECTION('',(-0.707106781187,0.707106781187,0.));
#30 = ORIENTED_EDGE('',*,*,#31,.T.);
#31 = EDGE_CURVE('',#24,#32,#34,.T.);
#32 = VERTEX_POINT('',#33);
#33 = CARTESIAN_POINT('',(-7.941980515339,9.593553390593,0.));
#34 = CIRCLE('',#35,2.);
#35 = AXIS2_PLACEMENT_3D('',#36,#37,#38);
#36 = CARTESIAN_POINT('',(-6.527766952966,8.17933982822,0.));
#37 = DIRECTION('',(-0.,0.,1.));
#38 = DIRECTION('',(0.,-1.,0.));
#39 = ORIENTED_EDGE('',*,*,#40,.T.);
#40 = EDGE_CURVE('',#32,#41,#43,.T.);
#41 = VERTEX_POINT('',#42);
#42 = CARTESIAN_POINT('',(-19.18462120245,-1.649087296526,0.));
#43 = LINE('',#44,#45);
#44 = CARTESIAN_POINT('',(-6.527766952966,11.007766952966,0.));
#45 = VECTOR('',#46,1.);
#46 = DIRECTION('',(-0.707106781187,-0.707106781187,0.));
#47 = ORIENTED_EDGE('',*,*,#48,.T.);
#48 = EDGE_CURVE('',#41,#49,#51,.T.);
#49 = VERTEX_POINT('',#50);
#50 = CARTESIAN_POINT('',(-19.18462120245,-4.477514421272,0.));
#51 = CIRCLE('',#52,2.);
#52 = AXIS2_PLACEMENT_3D('',#53,#54,#55);
#53 = CARTESIAN_POINT('',(-17.77040764008,-3.063300858899,0.));
#54 = DIRECTION('',(-0.,0.,1.));
#55 = DIRECTION('',(0.,-1.,0.));
#56 = ORIENTED_EDGE('',*,*,#57,.T.);
#57 = EDGE_CURVE('',#49,#58,#60,.T.);
#58 = VERTEX_POINT('',#59);
#59 = CARTESIAN_POINT('',(-4.477514421272,-19.18462120245,0.));
#60 = LINE('',#61,#62);
#61 = CARTESIAN_POINT('',(-20.59883476483,-3.063300858899,0.));
#62 = VECTOR('',#63,1.);
#63 = DIRECTION('',(0.707106781187,-0.707106781187,0.));
#64 = ORIENTED_EDGE('',*,*,#65,.T.);
#65 = EDGE_CURVE('',#58,#66,#68,.T.);
#66 = VERTEX_POINT('',#67);
#67 = CARTESIAN_POINT('',(-1.649087296526,-19.18462120245,0.));
#68 = CIRCLE('',#69,2.);
#69 = AXIS2_PLACEMENT_3D('',#70,#71,#72);
#70 = CARTESIAN_POINT('',(-3.063300858899,-17.77040764008,0.));
#71 = DIRECTION('',(-0.,0.,1.));
#72 = DIRECTION('',(0.,-1.,0.));
#73 = ORIENTED_EDGE('',*,*,#74,.F.);
#74 = EDGE_CURVE('',#75,#66,#77,.T.);
#75 = VERTEX_POINT('',#76);
#76 = CARTESIAN_POINT('',(9.593553390593,-7.941980515339,0.));
#77 = LINE('',#78,#79);
#78 = CARTESIAN_POINT('',(11.007766952966,-6.527766952966,0.));
#79 = VECTOR('',#80,1.);
#80 = DIRECTION('',(-0.707106781187,-0.707106781187,0.));
#81 = ORIENTED_EDGE('',*,*,#82,.T.);
#82 = EDGE_CURVE('',#75,#83,#85,.T.);
#83 = VERTEX_POINT('',#84);
#84 = CARTESIAN_POINT('',(9.593553390593,-5.113553390593,0.));
#85 = CIRCLE('',#86,2.);
#86 = AXIS2_PLACEMENT_3D('',#87,#88,#89);
#87 = CARTESIAN_POINT('',(8.17933982822,-6.527766952966,0.));
#88 = DIRECTION('',(-0.,0.,1.));
#89 = DIRECTION('',(0.,-1.,0.));
#90 = ORIENTED_EDGE('',*,*,#91,.F.);
#91 = EDGE_CURVE('',#92,#83,#94,.T.);
#92 = VERTEX_POINT('',#93);
#93 = CARTESIAN_POINT('',(9.386446609407,-4.906446609407,0.));
#94 = LINE('',#95,#96);
#95 = CARTESIAN_POINT('',(9.24,-4.76,0.));
#96 = VECTOR('',#97,1.);
#97 = DIRECTION('',(0.707106781187,-0.707106781187,0.));
#98 = ORIENTED_EDGE('',*,*,#99,.F.);
#99 = EDGE_CURVE('',#100,#92,#102,.T.);
#100 = VERTEX_POINT('',#101);
#101 = CARTESIAN_POINT('',(9.032893218813,-4.76,0.));
#102 = CIRCLE('',#103,0.5);
#103 = AXIS2_PLACEMENT_3D('',#104,#105,#106);
#104 = CARTESIAN_POINT('',(9.032893218813,-5.26,0.));
#105 = DIRECTION('',(-0.,-0.,-1.));
#106 = DIRECTION('',(0.,-1.,0.));
#107 = ORIENTED_EDGE('',*,*,#108,.T.);
#108 = EDGE_CURVE('',#100,#109,#111,.T.);
#109 = VERTEX_POINT('',#110);
#110 = CARTESIAN_POINT('',(-1.80196010845,-4.76,0.));
#111 = LINE('',#112,#113);
#112 = CARTESIAN_POINT('',(9.24,-4.76,0.));
#113 = VECTOR('',#114,1.);
#114 = DIRECTION('',(-1.,0.,0.));
#115 = ORIENTED_EDGE('',*,*,#116,.F.);
#116 = EDGE_CURVE('',#117,#109,#119,.T.);
#117 = VERTEX_POINT('',#118);
#118 = CARTESIAN_POINT('',(-2.294966757042,-5.176666666667,0.));
#119 = CIRCLE('',#120,0.5);
#120 = AXIS2_PLACEMENT_3D('',#121,#122,#123);
#121 = CARTESIAN_POINT('',(-1.80196010845,-5.26,0.));
#122 = DIRECTION('',(-0.,-0.,-1.));
#123 = DIRECTION('',(0.,-1.,0.));
#124 = ORIENTED_EDGE('',*,*,#125,.F.);
#125 = EDGE_CURVE('',#126,#117,#128,.T.);
#126 = VERTEX_POINT('',#127);
#127 = CARTESIAN_POINT('',(-5.176666666667,-2.294966757042,0.));
#128 = CIRCLE('',#129,2.5);
#129 = AXIS2_PLACEMENT_3D('',#130,#131,#132);
#130 = CARTESIAN_POINT('',(-4.76,-4.76,0.));
#131 = DIRECTION('',(0.,0.,1.));
#132 = DIRECTION('',(1.,0.,0.));
#133 = ORIENTED_EDGE('',*,*,#134,.F.);
#134 = EDGE_CURVE('',#135,#126,#137,.T.);
#135 = VERTEX_POINT('',#136);
#136 = CARTESIAN_POINT('',(-4.76,-1.80196010845,0.));
#137 = CIRCLE('',#138,0.5);
#138 = AXIS2_PLACEMENT_3D('',#139,#140,#141);
#139 = CARTESIAN_POINT('',(-5.26,-1.80196010845,0.));
#140 = DIRECTION('',(-0.,-0.,-1.));
#141 = DIRECTION('',(0.,-1.,0.));
#142 = ORIENTED_EDGE('',*,*,#143,.T.);
#143 = EDGE_CURVE('',#135,#144,#146,.T.);
#144 = VERTEX_POINT('',#145);
#145 = CARTESIAN_POINT('',(-4.76,9.032893218813,0.));
#146 = LINE('',#147,#148);
#147 = CARTESIAN_POINT('',(-4.76,-2.26,0.));
#148 = VECTOR('',#149,1.);
#149 = DIRECTION('',(0.,1.,0.));
#150 = ORIENTED_EDGE('',*,*,#151,.T.);
#151 = EDGE_CURVE('',#144,#22,#152,.T.);
#152 = CIRCLE('',#153,0.5);
#153 = AXIS2_PLACEMENT_3D('',#154,#155,#156);
#154 = CARTESIAN_POINT('',(-5.26,9.032893218813,0.));
#155 = DIRECTION('',(-0.,0.,1.));
#156 = DIRECTION('',(0.,-1.,0.));
#157 = PLANE('',#158);
#158 = AXIS2_PLACEMENT_3D('',#159,#160,#161);
#159 = CARTESIAN_POINT('',(-5.257206318519,-5.257206318519,0.));
#160 = DIRECTION('',(0.,0.,1.));
#161 = DIRECTION('',(1.,0.,0.));
#162 = ADVANCED_FACE('',(#163),#188,.F.);
#163 = FACE_BOUND('',#164,.F.);
#164 = EDGE_LOOP('',(#165,#166,#174,#182));
#165 = ORIENTED_EDGE('',*,*,#21,.F.);
#166 = ORIENTED_EDGE('',*,*,#167,.T.);
#167 = EDGE_CURVE('',#22,#168,#170,.T.);
#168 = VERTEX_POINT('',#169);
#169 = CARTESIAN_POINT('',(-4.906446609407,9.386446609407,10.));
#170 = LINE('',#171,#172);
#171 = CARTESIAN_POINT('',(-4.906446609407,9.386446609407,0.));
#172 = VECTOR('',#173,1.);
#173 = DIRECTION('',(0.,0.,1.));
#174 = ORIENTED_EDGE('',*,*,#175,.T.);
#175 = EDGE_CURVE('',#168,#176,#178,.T.);
#176 = VERTEX_POINT('',#177);
#177 = CARTESIAN_POINT('',(-5.113553390593,9.593553390593,10.));
#178 = LINE('',#179,#180);
#179 = CARTESIAN_POINT('',(-4.76,9.24,10.));
#180 = VECTOR('',#181,1.);
#181 = DIRECTION('',(-0.707106781187,0.707106781187,0.));
#182 = ORIENTED_EDGE('',*,*,#183,.F.);
#183 = EDGE_CURVE('',#24,#176,#184,.T.);
#184 = LINE('',#185,#186);
#185 = CARTESIAN_POINT('',(-5.113553390593,9.593553390593,0.));
#186 = VECTOR('',#187,1.);
#187 = DIRECTION('',(0.,0.,1.));
#188 = PLANE('',#189);
#189 = AXIS2_PLACEMENT_3D('',#190,#191,#192);
#190 = CARTESIAN_POINT('',(-4.76,9.24,0.));
#191 = DIRECTION('',(-0.707106781187,-0.707106781187,0.));
#192 = DIRECTION('',(-0.707106781187,0.707106781187,0.));
#193 = ADVANCED_FACE('',(#194),#213,.T.);
#194 = FACE_BOUND('',#195,.T.);
#195 = EDGE_LOOP('',(#196,#197,#205,#212));
#196 = ORIENTED_EDGE('',*,*,#31,.T.);
#197 = ORIENTED_EDGE('',*,*,#198,.T.);
#198 = EDGE_CURVE('',#32,#199,#201,.T.);
#199 = VERTEX_POINT('',#200);
#200 = CARTESIAN_POINT('',(-7.941980515339,9.593553390593,10.));
#201 = LINE('',#202,#203);
#202 = CARTESIAN_POINT('',(-7.941980515339,9.593553390593,0.));
#203 = VECTOR('',#204,1.);
#204 = DIRECTION('',(0.,0.,1.));
#205 = ORIENTED_EDGE('',*,*,#206,.F.);
#206 = EDGE_CURVE('',#176,#199,#207,.T.);
#207 = CIRCLE('',#208,2.);
#208 = AXIS2_PLACEMENT_3D('',#209,#210,#211);
#209 = CARTESIAN_POINT('',(-6.527766952966,8.17933982822,10.));
#210 = DIRECTION('',(-0.,0.,1.));
#211 = DIRECTION('',(0.,-1.,0.));
#212 = ORIENTED_EDGE('',*,*,#183,.F.);
#213 = CYLINDRICAL_SURFACE('',#214,2.);
#214 = AXIS2_PLACEMENT_3D('',#215,#216,#217);
#215 = CARTESIAN_POINT('',(-6.527766952966,8.17933982822,0.));
#216 = DIRECTION('',(0.,0.,1.));
#217 = DIRECTION('',(0.707106781187,0.707106781187,0.));
#218 = ADVANCED_FACE('',(#219),#238,.T.);
#219 = FACE_BOUND('',#220,.T.);
#220 = EDGE_LOOP('',(#221,#222,#223,#232));
#221 = ORIENTED_EDGE('',*,*,#151,.T.);
#222 = ORIENTED_EDGE('',*,*,#167,.T.);
#223 = ORIENTED_EDGE('',*,*,#224,.F.);
#224 = EDGE_CURVE('',#225,#168,#227,.T.);
#225 = VERTEX_POINT('',#226);
#226 = CARTESIAN_POINT('',(-4.76,9.032893218813,10.));
#227 = CIRCLE('',#228,0.5);
#228 = AXIS2_PLACEMENT_3D('',#229,#230,#231);
#229 = CARTESIAN_POINT('',(-5.26,9.032893218813,10.));
#230 = DIRECTION('',(-0.,0.,1.));
#231 = DIRECTION('',(0.,-1.,0.));
#232 = ORIENTED_EDGE('',*,*,#233,.F.);
#233 = EDGE_CURVE('',#144,#225,#234,.T.);
#234 = LINE('',#235,#236);
#235 = CARTESIAN_POINT('',(-4.76,9.032893218813,0.));
#236 = VECTOR('',#237,1.);
#237 = DIRECTION('',(0.,0.,1.));
#238 = CYLINDRICAL_SURFACE('',#239,0.5);
#239 = AXIS2_PLACEMENT_3D('',#240,#241,#242);
#240 = CARTESIAN_POINT('',(-5.26,9.032893218813,0.));
#241 = DIRECTION('',(0.,0.,1.));
#242 = DIRECTION('',(1.,0.,0.));
#243 = ADVANCED_FACE('',(#244),#262,.F.);
#244 = FACE_BOUND('',#245,.F.);
#245 = EDGE_LOOP('',(#246,#247,#248,#256));
#246 = ORIENTED_EDGE('',*,*,#40,.F.);
#247 = ORIENTED_EDGE('',*,*,#198,.T.);
#248 = ORIENTED_EDGE('',*,*,#249,.T.);
#249 = EDGE_CURVE('',#199,#250,#252,.T.);
#250 = VERTEX_POINT('',#251);
#251 = CARTESIAN_POINT('',(-19.18462120245,-1.649087296526,10.));
#252 = LINE('',#253,#254);
#253 = CARTESIAN_POINT('',(-6.527766952966,11.007766952966,10.));
#254 = VECTOR('',#255,1.);
#255 = DIRECTION('',(-0.707106781187,-0.707106781187,0.));
#256 = ORIENTED_EDGE('',*,*,#257,.F.);
#257 = EDGE_CURVE('',#41,#250,#258,.T.);
#258 = LINE('',#259,#260);
#259 = CARTESIAN_POINT('',(-19.18462120245,-1.649087296526,0.));
#260 = VECTOR('',#261,1.);
#261 = DIRECTION('',(0.,0.,1.));
#262 = PLANE('',#263);
#263 = AXIS2_PLACEMENT_3D('',#264,#265,#266);
#264 = CARTESIAN_POINT('',(-6.527766952966,11.007766952966,0.));
#265 = DIRECTION('',(0.707106781187,-0.707106781187,0.));
#266 = DIRECTION('',(-0.707106781187,-0.707106781187,0.));
#267 = ADVANCED_FACE('',(#268),#286,.F.);
#268 = FACE_BOUND('',#269,.F.);
#269 = EDGE_LOOP('',(#270,#271,#279,#285));
#270 = ORIENTED_EDGE('',*,*,#143,.F.);
#271 = ORIENTED_EDGE('',*,*,#272,.T.);
#272 = EDGE_CURVE('',#135,#273,#275,.T.);
#273 = VERTEX_POINT('',#274);
#274 = CARTESIAN_POINT('',(-4.76,-1.80196010845,10.));
#275 = LINE('',#276,#277);
#276 = CARTESIAN_POINT('',(-4.76,-1.80196010845,0.));
#277 = VECTOR('',#278,1.);
#278 = DIRECTION('',(0.,0.,1.));
#279 = ORIENTED_EDGE('',*,*,#280,.T.);
#280 = EDGE_CURVE('',#273,#225,#281,.T.);
#281 = LINE('',#282,#283);
#282 = CARTESIAN_POINT('',(-4.76,-2.26,10.));
#283 = VECTOR('',#284,1.);
#284 = DIRECTION('',(0.,1.,0.));
#285 = ORIENTED_EDGE('',*,*,#233,.F.);
#286 = PLANE('',#287);
#287 = AXIS2_PLACEMENT_3D('',#288,#289,#290);
#288 = CARTESIAN_POINT('',(-4.76,-2.26,0.));
#289 = DIRECTION('',(-1.,0.,0.));
#290 = DIRECTION('',(0.,1.,0.));
#291 = ADVANCED_FACE('',(#292),#311,.T.);
#292 = FACE_BOUND('',#293,.T.);
#293 = EDGE_LOOP('',(#294,#295,#303,#310));
#294 = ORIENTED_EDGE('',*,*,#48,.T.);
#295 = ORIENTED_EDGE('',*,*,#296,.T.);
#296 = EDGE_CURVE('',#49,#297,#299,.T.);
#297 = VERTEX_POINT('',#298);
#298 = CARTESIAN_POINT('',(-19.18462120245,-4.477514421272,10.));
#299 = LINE('',#300,#301);
#300 = CARTESIAN_POINT('',(-19.18462120245,-4.477514421272,0.));
#301 = VECTOR('',#302,1.);
#302 = DIRECTION('',(0.,0.,1.));
#303 = ORIENTED_EDGE('',*,*,#304,.F.);
#304 = EDGE_CURVE('',#250,#297,#305,.T.);
#305 = CIRCLE('',#306,2.);
#306 = AXIS2_PLACEMENT_3D('',#307,#308,#309);
#307 = CARTESIAN_POINT('',(-17.77040764008,-3.063300858899,10.));
#308 = DIRECTION('',(-0.,0.,1.));
#309 = DIRECTION('',(0.,-1.,0.));
#310 = ORIENTED_EDGE('',*,*,#257,.F.);
#311 = CYLINDRICAL_SURFACE('',#312,2.);
#312 = AXIS2_PLACEMENT_3D('',#313,#314,#315);
#313 = CARTESIAN_POINT('',(-17.77040764008,-3.063300858899,0.));
#314 = DIRECTION('',(0.,0.,1.));
#315 = DIRECTION('',(-0.707106781187,0.707106781187,0.));
#316 = ADVANCED_FACE('',(#317),#336,.T.);
#317 = FACE_BOUND('',#318,.F.);
#318 = EDGE_LOOP('',(#319,#320,#328,#335));
#319 = ORIENTED_EDGE('',*,*,#134,.T.);
#320 = ORIENTED_EDGE('',*,*,#321,.T.);
#321 = EDGE_CURVE('',#126,#322,#324,.T.);
#322 = VERTEX_POINT('',#323);
#323 = CARTESIAN_POINT('',(-5.176666666667,-2.294966757042,10.));
#324 = LINE('',#325,#326);
#325 = CARTESIAN_POINT('',(-5.176666666667,-2.294966757042,0.));
#326 = VECTOR('',#327,1.);
#327 = DIRECTION('',(0.,0.,1.));
#328 = ORIENTED_EDGE('',*,*,#329,.F.);
#329 = EDGE_CURVE('',#273,#322,#330,.T.);
#330 = CIRCLE('',#331,0.5);
#331 = AXIS2_PLACEMENT_3D('',#332,#333,#334);
#332 = CARTESIAN_POINT('',(-5.26,-1.80196010845,10.));
#333 = DIRECTION('',(-0.,-0.,-1.));
#334 = DIRECTION('',(0.,-1.,0.));
#335 = ORIENTED_EDGE('',*,*,#272,.F.);
#336 = CYLINDRICAL_SURFACE('',#337,0.5);
#337 = AXIS2_PLACEMENT_3D('',#338,#339,#340);
#338 = CARTESIAN_POINT('',(-5.26,-1.80196010845,0.));
#339 = DIRECTION('',(0.,0.,1.));
#340 = DIRECTION('',(1.,0.,0.));
#341 = ADVANCED_FACE('',(#342),#360,.F.);
#342 = FACE_BOUND('',#343,.F.);
#343 = EDGE_LOOP('',(#344,#345,#346,#354));
#344 = ORIENTED_EDGE('',*,*,#57,.F.);
#345 = ORIENTED_EDGE('',*,*,#296,.T.);
#346 = ORIENTED_EDGE('',*,*,#347,.T.);
#347 = EDGE_CURVE('',#297,#348,#350,.T.);
#348 = VERTEX_POINT('',#349);
#349 = CARTESIAN_POINT('',(-4.477514421272,-19.18462120245,10.));
#350 = LINE('',#351,#352);
#351 = CARTESIAN_POINT('',(-20.59883476483,-3.063300858899,10.));
#352 = VECTOR('',#353,1.);
#353 = DIRECTION('',(0.707106781187,-0.707106781187,0.));
#354 = ORIENTED_EDGE('',*,*,#355,.F.);
#355 = EDGE_CURVE('',#58,#348,#356,.T.);
#356 = LINE('',#357,#358);
#357 = CARTESIAN_POINT('',(-4.477514421272,-19.18462120245,0.));
#358 = VECTOR('',#359,1.);
#359 = DIRECTION('',(0.,0.,1.));
#360 = PLANE('',#361);
#361 = AXIS2_PLACEMENT_3D('',#362,#363,#364);
#362 = CARTESIAN_POINT('',(-20.59883476483,-3.063300858899,0.));
#363 = DIRECTION('',(0.707106781187,0.707106781187,0.));
#364 = DIRECTION('',(0.707106781187,-0.707106781187,0.));
#365 = ADVANCED_FACE('',(#366),#385,.F.);
#366 = FACE_BOUND('',#367,.T.);
#367 = EDGE_LOOP('',(#368,#369,#370,#379));
#368 = ORIENTED_EDGE('',*,*,#125,.F.);
#369 = ORIENTED_EDGE('',*,*,#321,.T.);
#370 = ORIENTED_EDGE('',*,*,#371,.T.);
#371 = EDGE_CURVE('',#322,#372,#374,.T.);
#372 = VERTEX_POINT('',#373);
#373 = CARTESIAN_POINT('',(-2.294966757042,-5.176666666667,10.));
#374 = CIRCLE('',#375,2.5);
#375 = AXIS2_PLACEMENT_3D('',#376,#377,#378);
#376 = CARTESIAN_POINT('',(-4.76,-4.76,10.));
#377 = DIRECTION('',(0.,0.,1.));
#378 = DIRECTION('',(1.,0.,0.));
#379 = ORIENTED_EDGE('',*,*,#380,.F.);
#380 = EDGE_CURVE('',#117,#372,#381,.T.);
#381 = LINE('',#382,#383);
#382 = CARTESIAN_POINT('',(-2.294966757042,-5.176666666667,0.));
#383 = VECTOR('',#384,1.);
#384 = DIRECTION('',(0.,0.,1.));
#385 = CYLINDRICAL_SURFACE('',#386,2.5);
#386 = AXIS2_PLACEMENT_3D('',#387,#388,#389);
#387 = CARTESIAN_POINT('',(-4.76,-4.76,0.));
#388 = DIRECTION('',(-0.,-0.,-1.));
#389 = DIRECTION('',(1.,0.,0.));
#390 = ADVANCED_FACE('',(#391),#410,.T.);
#391 = FACE_BOUND('',#392,.T.);
#392 = EDGE_LOOP('',(#393,#394,#402,#409));
#393 = ORIENTED_EDGE('',*,*,#65,.T.);
#394 = ORIENTED_EDGE('',*,*,#395,.T.);
#395 = EDGE_CURVE('',#66,#396,#398,.T.);
#396 = VERTEX_POINT('',#397);
#397 = CARTESIAN_POINT('',(-1.649087296526,-19.18462120245,10.));
#398 = LINE('',#399,#400);
#399 = CARTESIAN_POINT('',(-1.649087296526,-19.18462120245,0.));
#400 = VECTOR('',#401,1.);
#401 = DIRECTION('',(0.,0.,1.));
#402 = ORIENTED_EDGE('',*,*,#403,.F.);
#403 = EDGE_CURVE('',#348,#396,#404,.T.);
#404 = CIRCLE('',#405,2.);
#405 = AXIS2_PLACEMENT_3D('',#406,#407,#408);
#406 = CARTESIAN_POINT('',(-3.063300858899,-17.77040764008,10.));
#407 = DIRECTION('',(-0.,0.,1.));
#408 = DIRECTION('',(0.,-1.,0.));
#409 = ORIENTED_EDGE('',*,*,#355,.F.);
#410 = CYLINDRICAL_SURFACE('',#411,2.);
#411 = AXIS2_PLACEMENT_3D('',#412,#413,#414);
#412 = CARTESIAN_POINT('',(-3.063300858899,-17.77040764008,0.));
#413 = DIRECTION('',(0.,0.,1.));
#414 = DIRECTION('',(-0.707106781187,-0.707106781187,0.));
#415 = ADVANCED_FACE('',(#416),#435,.T.);
#416 = FACE_BOUND('',#417,.F.);
#417 = EDGE_LOOP('',(#418,#419,#427,#434));
#418 = ORIENTED_EDGE('',*,*,#116,.T.);
#419 = ORIENTED_EDGE('',*,*,#420,.T.);
#420 = EDGE_CURVE('',#109,#421,#423,.T.);
#421 = VERTEX_POINT('',#422);
#422 = CARTESIAN_POINT('',(-1.80196010845,-4.76,10.));
#423 = LINE('',#424,#425);
#424 = CARTESIAN_POINT('',(-1.80196010845,-4.76,0.));
#425 = VECTOR('',#426,1.);
#426 = DIRECTION('',(0.,0.,1.));
#427 = ORIENTED_EDGE('',*,*,#428,.F.);
#428 = EDGE_CURVE('',#372,#421,#429,.T.);
#429 = CIRCLE('',#430,0.5);
#430 = AXIS2_PLACEMENT_3D('',#431,#432,#433);
#431 = CARTESIAN_POINT('',(-1.80196010845,-5.26,10.));
#432 = DIRECTION('',(-0.,-0.,-1.));
#433 = DIRECTION('',(0.,-1.,0.));
#434 = ORIENTED_EDGE('',*,*,#380,.F.);
#435 = CYLINDRICAL_SURFACE('',#436,0.5);
#436 = AXIS2_PLACEMENT_3D('',#437,#438,#439);
#437 = CARTESIAN_POINT('',(-1.80196010845,-5.26,0.));
#438 = DIRECTION('',(0.,0.,1.));
#439 = DIRECTION('',(-0.986013297183,0.166666666667,0.));
#440 = ADVANCED_FACE('',(#441),#459,.T.);
#441 = FACE_BOUND('',#442,.T.);
#442 = EDGE_LOOP('',(#443,#444,#452,#458));
#443 = ORIENTED_EDGE('',*,*,#74,.F.);
#444 = ORIENTED_EDGE('',*,*,#445,.T.);
#445 = EDGE_CURVE('',#75,#446,#448,.T.);
#446 = VERTEX_POINT('',#447);
#447 = CARTESIAN_POINT('',(9.593553390593,-7.941980515339,10.));
#448 = LINE('',#449,#450);
#449 = CARTESIAN_POINT('',(9.593553390593,-7.941980515339,0.));
#450 = VECTOR('',#451,1.);
#451 = DIRECTION('',(0.,0.,1.));
#452 = ORIENTED_EDGE('',*,*,#453,.T.);
#453 = EDGE_CURVE('',#446,#396,#454,.T.);
#454 = LINE('',#455,#456);
#455 = CARTESIAN_POINT('',(11.007766952966,-6.527766952966,10.));
#456 = VECTOR('',#457,1.);
#457 = DIRECTION('',(-0.707106781187,-0.707106781187,0.));
#458 = ORIENTED_EDGE('',*,*,#395,.F.);
#459 = PLANE('',#460);
#460 = AXIS2_PLACEMENT_3D('',#461,#462,#463);
#461 = CARTESIAN_POINT('',(11.007766952966,-6.527766952966,0.));
#462 = DIRECTION('',(0.707106781187,-0.707106781187,0.));
#463 = DIRECTION('',(-0.707106781187,-0.707106781187,0.));
#464 = ADVANCED_FACE('',(#465),#483,.F.);
#465 = FACE_BOUND('',#466,.F.);
#466 = EDGE_LOOP('',(#467,#468,#476,#482));
#467 = ORIENTED_EDGE('',*,*,#108,.F.);
#468 = ORIENTED_EDGE('',*,*,#469,.T.);
#469 = EDGE_CURVE('',#100,#470,#472,.T.);
#470 = VERTEX_POINT('',#471);
#471 = CARTESIAN_POINT('',(9.032893218813,-4.76,10.));
#472 = LINE('',#473,#474);
#473 = CARTESIAN_POINT('',(9.032893218813,-4.76,0.));
#474 = VECTOR('',#475,1.);
#475 = DIRECTION('',(0.,0.,1.));
#476 = ORIENTED_EDGE('',*,*,#477,.T.);
#477 = EDGE_CURVE('',#470,#421,#478,.T.);
#478 = LINE('',#479,#480);
#479 = CARTESIAN_POINT('',(9.24,-4.76,10.));
#480 = VECTOR('',#481,1.);
#481 = DIRECTION('',(-1.,0.,0.));
#482 = ORIENTED_EDGE('',*,*,#420,.F.);
#483 = PLANE('',#484);
#484 = AXIS2_PLACEMENT_3D('',#485,#486,#487);
#485 = CARTESIAN_POINT('',(9.24,-4.76,0.));
#486 = DIRECTION('',(0.,-1.,0.));
#487 = DIRECTION('',(-1.,0.,0.));
#488 = ADVANCED_FACE('',(#489),#508,.T.);
#489 = FACE_BOUND('',#490,.T.);
#490 = EDGE_LOOP('',(#491,#492,#500,#507));
#491 = ORIENTED_EDGE('',*,*,#82,.T.);
#492 = ORIENTED_EDGE('',*,*,#493,.T.);
#493 = EDGE_CURVE('',#83,#494,#496,.T.);
#494 = VERTEX_POINT('',#495);
#495 = CARTESIAN_POINT('',(9.593553390593,-5.113553390593,10.));
#496 = LINE('',#497,#498);
#497 = CARTESIAN_POINT('',(9.593553390593,-5.113553390593,0.));
#498 = VECTOR('',#499,1.);
#499 = DIRECTION('',(0.,0.,1.));
#500 = ORIENTED_EDGE('',*,*,#501,.F.);
#501 = EDGE_CURVE('',#446,#494,#502,.T.);
#502 = CIRCLE('',#503,2.);
#503 = AXIS2_PLACEMENT_3D('',#504,#505,#506);
#504 = CARTESIAN_POINT('',(8.17933982822,-6.527766952966,10.));
#505 = DIRECTION('',(-0.,0.,1.));
#506 = DIRECTION('',(0.,-1.,0.));
#507 = ORIENTED_EDGE('',*,*,#445,.F.);
#508 = CYLINDRICAL_SURFACE('',#509,2.);
#509 = AXIS2_PLACEMENT_3D('',#510,#511,#512);
#510 = CARTESIAN_POINT('',(8.17933982822,-6.527766952966,0.));
#511 = DIRECTION('',(0.,0.,1.));
#512 = DIRECTION('',(0.707106781187,-0.707106781187,0.));
#513 = ADVANCED_FACE('',(#514),#533,.T.);
#514 = FACE_BOUND('',#515,.F.);
#515 = EDGE_LOOP('',(#516,#517,#525,#532));
#516 = ORIENTED_EDGE('',*,*,#99,.T.);
#517 = ORIENTED_EDGE('',*,*,#518,.T.);
#518 = EDGE_CURVE('',#92,#519,#521,.T.);
#519 = VERTEX_POINT('',#520);
#520 = CARTESIAN_POINT('',(9.386446609407,-4.906446609407,10.));
#521 = LINE('',#522,#523);
#522 = CARTESIAN_POINT('',(9.386446609407,-4.906446609407,0.));
#523 = VECTOR('',#524,1.);
#524 = DIRECTION('',(0.,0.,1.));
#525 = ORIENTED_EDGE('',*,*,#526,.F.);
#526 = EDGE_CURVE('',#470,#519,#527,.T.);
#527 = CIRCLE('',#528,0.5);
#528 = AXIS2_PLACEMENT_3D('',#529,#530,#531);
#529 = CARTESIAN_POINT('',(9.032893218813,-5.26,10.));
#530 = DIRECTION('',(-0.,-0.,-1.));
#531 = DIRECTION('',(0.,-1.,0.));
#532 = ORIENTED_EDGE('',*,*,#469,.F.);
#533 = CYLINDRICAL_SURFACE('',#534,0.5);
#534 = AXIS2_PLACEMENT_3D('',#535,#536,#537);
#535 = CARTESIAN_POINT('',(9.032893218813,-5.26,0.));
#536 = DIRECTION('',(0.,0.,1.));
#537 = DIRECTION('',(0.,1.,0.));
#538 = ADVANCED_FACE('',(#539),#550,.T.);
#539 = FACE_BOUND('',#540,.T.);
#540 = EDGE_LOOP('',(#541,#542,#543,#549));
#541 = ORIENTED_EDGE('',*,*,#91,.F.);
#542 = ORIENTED_EDGE('',*,*,#518,.T.);
#543 = ORIENTED_EDGE('',*,*,#544,.T.);
#544 = EDGE_CURVE('',#519,#494,#545,.T.);
#545 = LINE('',#546,#547);
#546 = CARTESIAN_POINT('',(9.24,-4.76,10.));
#547 = VECTOR('',#548,1.);
#548 = DIRECTION('',(0.707106781187,-0.707106781187,0.));
#549 = ORIENTED_EDGE('',*,*,#493,.F.);
#550 = PLANE('',#551);
#551 = AXIS2_PLACEMENT_3D('',#552,#553,#554);
#552 = CARTESIAN_POINT('',(9.24,-4.76,0.));
#553 = DIRECTION('',(0.707106781187,0.707106781187,0.));
#554 = DIRECTION('',(0.707106781187,-0.707106781187,0.));
#555 = ADVANCED_FACE('',(#556),#574,.T.);
#556 = FACE_BOUND('',#557,.T.);
#557 = EDGE_LOOP('',(#558,#559,#560,#561,#562,#563,#564,#565,#566,#567,
    #568,#569,#570,#571,#572,#573));
#558 = ORIENTED_EDGE('',*,*,#175,.T.);
#559 = ORIENTED_EDGE('',*,*,#206,.T.);
#560 = ORIENTED_EDGE('',*,*,#249,.T.);
#561 = ORIENTED_EDGE('',*,*,#304,.T.);
#562 = ORIENTED_EDGE('',*,*,#347,.T.);
#563 = ORIENTED_EDGE('',*,*,#403,.T.);
#564 = ORIENTED_EDGE('',*,*,#453,.F.);
#565 = ORIENTED_EDGE('',*,*,#501,.T.);
#566 = ORIENTED_EDGE('',*,*,#544,.F.);
#567 = ORIENTED_EDGE('',*,*,#526,.F.);
#568 = ORIENTED_EDGE('',*,*,#477,.T.);
#569 = ORIENTED_EDGE('',*,*,#428,.F.);
#570 = ORIENTED_EDGE('',*,*,#371,.F.);
#571 = ORIENTED_EDGE('',*,*,#329,.F.);
#572 = ORIENTED_EDGE('',*,*,#280,.T.);
#573 = ORIENTED_EDGE('',*,*,#224,.T.);
#574 = PLANE('',#575);
#575 = AXIS2_PLACEMENT_3D('',#576,#577,#578);
#576 = CARTESIAN_POINT('',(-5.257206318519,-5.257206318519,10.));
#577 = DIRECTION('',(0.,0.,1.));
#578 = DIRECTION('',(1.,0.,0.));
#579 = ( GEOMETRIC_REPRESENTATION_CONTEXT(3) 
GLOBAL_UNCERTAINTY_ASSIGNED_CONTEXT((#583)) GLOBAL_UNIT_ASSIGNED_CONTEXT
((#580,#581,#582)) REPRESENTATION_CONTEXT('Context #1',
  '3D Context with UNIT and UNCERTAINTY') );
#580 = ( LENGTH_UNIT() NAMED_UNIT(*) SI_UNIT(.MILLI.,.METRE.) );
#581 = ( NAMED_UNIT(*) PLANE_ANGLE_UNIT() SI_UNIT($,.RADIAN.) );
#582 = ( NAMED_UNIT(*) SI_UNIT($,.STERADIAN.) SOLID_ANGLE_UNIT() );
#583 = UNCERTAINTY_MEASURE_WITH_UNIT(LENGTH_MEASURE(1.E-07),#580,
  'distance_accuracy_value','confusion accuracy');
#584 = PRODUCT_RELATED_PRODUCT_CATEGORY('part',$,(#7));
#585 = MECHANICAL_DESIGN_GEOMETRIC_PRESENTATION_REPRESENTATION('',(#586)
  ,#579);
#586 = STYLED_ITEM('color',(#587),#15);
#587 = PRESENTATION_STYLE_ASSIGNMENT((#588,#594));
#588 = SURFACE_STYLE_USAGE(.BOTH.,#589);
#589 = SURFACE_SIDE_STYLE('',(#590));
#590 = SURFACE_STYLE_FILL_AREA(#591);
#591 = FILL_AREA_STYLE('',(#592));
#592 = FILL_AREA_STYLE_COLOUR('',#593);
#593 = COLOUR_RGB('',0.701960807317,0.666666687201,0.611764719091);
#594 = CURVE_STYLE('',#595,POSITIVE_LENGTH_MEASURE(0.1),#596);
#595 = DRAUGHTING_PRE_DEFINED_CURVE_FONT('continuous');
#596 = COLOUR_RGB('',9.803921802644E-02,9.803921802644E-02,
  9.803921802644E-02);
ENDSEC;
END-ISO-10303-21;
