ISO-10303-21;
HEADER;
FILE_DESCRIPTION(('FreeCAD Model'),'2;1');
FILE_NAME('Open CASCADE Shape Model','2026-03-21T13:38:12',(''),(''),
  'Open CASCADE STEP processor 7.8','FreeCAD','Unknown');
FILE_SCHEMA(('AUTOMOTIVE_DESIGN { 1 0 10303 214 1 1 1 1 }'));
ENDSEC;
DATA;
#1 = APPLICATION_PROTOCOL_DEFINITION('international standard',
  'automotive_design',2000,#2);
#2 = APPLICATION_CONTEXT(
  'core data for automotive mechanical design processes');
#3 = SHAPE_DEFINITION_REPRESENTATION(#4,#10);
#4 = PRODUCT_DEFINITION_SHAPE('','',#5);
#5 = PRODUCT_DEFINITION('design','',#6,#9);
#6 = PRODUCT_DEFINITION_FORMATION('','',#7);
#7 = PRODUCT('Kinematic Mount Aligner','Kinematic Mount Aligner','',(#8)
  );
#8 = PRODUCT_CONTEXT('',#2,'mechanical');
#9 = PRODUCT_DEFINITION_CONTEXT('part definition',#2,'design');
#10 = ADVANCED_BREP_SHAPE_REPRESENTATION('',(#11,#15),#1399);
#11 = AXIS2_PLACEMENT_3D('',#12,#13,#14);
#12 = CARTESIAN_POINT('',(0.,0.,0.));
#13 = DIRECTION('',(0.,0.,1.));
#14 = DIRECTION('',(1.,0.,-0.));
#15 = MANIFOLD_SOLID_BREP('',#16);
#16 = CLOSED_SHELL('',(#17,#368,#399,#424,#449,#473,#497,#522,#547,#571,
    #596,#621,#646,#670,#694,#719,#744,#769,#793,#818,#843,#867,#891,
    #916,#941,#965,#989,#1014,#1039,#1063,#1087,#1112,#1137,#1161,#1185,
    #1210,#1235,#1259,#1283,#1308,#1333,#1351));
#17 = ADVANCED_FACE('',(#18),#363,.F.);
#18 = FACE_BOUND('',#19,.F.);
#19 = EDGE_LOOP('',(#20,#30,#39,#47,#56,#65,#74,#82,#91,#99,#108,#116,
    #125,#133,#142,#150,#159,#167,#176,#184,#193,#202,#211,#219,#228,
    #236,#245,#253,#262,#270,#279,#287,#296,#305,#314,#322,#331,#339,
    #348,#356));
#20 = ORIENTED_EDGE('',*,*,#21,.T.);
#21 = EDGE_CURVE('',#22,#24,#26,.T.);
#22 = VERTEX_POINT('',#23);
#23 = CARTESIAN_POINT('',(1.383012330689,8.011100725819,
    8.239830878538E-15));
#24 = VERTEX_POINT('',#25);
#25 = CARTESIAN_POINT('',(-0.657758715872,4.745184354139,
    8.965009989006E-15));
#26 = LINE('',#27,#28);
#27 = CARTESIAN_POINT('',(1.970490420096,8.951262197352,
    8.031073096026E-15));
#28 = VECTOR('',#29,1.);
#29 = DIRECTION('',(-0.529919264233,-0.848048096156,1.883045044685E-16)
  );
#30 = ORIENTED_EDGE('',*,*,#31,.T.);
#31 = EDGE_CURVE('',#24,#32,#34,.T.);
#32 = VERTEX_POINT('',#33);
#33 = CARTESIAN_POINT('',(-3.069201596554,4.188458898274,
    9.088627872905E-15));
#34 = CIRCLE('',#35,1.75);
#35 = AXIS2_PLACEMENT_3D('',#36,#37,#38);
#36 = CARTESIAN_POINT('',(-2.141842884146,5.672543066547,
    8.759094990086E-15));
#37 = DIRECTION('',(0.,-2.22044604925E-16,-1.));
#38 = DIRECTION('',(1.,0.,0.));
#39 = ORIENTED_EDGE('',*,*,#40,.F.);
#40 = EDGE_CURVE('',#41,#32,#43,.T.);
#41 = VERTEX_POINT('',#42);
#42 = CARTESIAN_POINT('',(-8.007342424331,7.274151756964,
    8.403466421178E-15));
#43 = LINE('',#44,#45);
#44 = CARTESIAN_POINT('',(-8.369502197532,7.500454299731,
    8.353217162475E-15));
#45 = VECTOR('',#46,1.);
#46 = DIRECTION('',(0.848048096156,-0.529919264233,1.176657136688E-16));
#47 = ORIENTED_EDGE('',*,*,#48,.F.);
#48 = EDGE_CURVE('',#49,#41,#51,.T.);
#49 = VERTEX_POINT('',#50);
#50 = CARTESIAN_POINT('',(-8.602947845385,7.225192186353,
    1.641433762969E-14));
#51 = CIRCLE('',#52,0.5);
#52 = AXIS2_PLACEMENT_3D('',#53,#54,#55);
#53 = CARTESIAN_POINT('',(-8.272302056448,6.850127708885,
    1.844761867341E-14));
#54 = DIRECTION('',(-0.,-4.42044604925E-16,-1.));
#55 = DIRECTION('',(0.,-1.,4.42044604925E-16));
#56 = ORIENTED_EDGE('',*,*,#57,.T.);
#57 = EDGE_CURVE('',#49,#58,#60,.T.);
#58 = VERTEX_POINT('',#59);
#59 = CARTESIAN_POINT('',(-9.09764976417,9.367981612532,
    1.593854279812E-14));
#60 = CIRCLE('',#61,1.25);
#61 = AXIS2_PLACEMENT_3D('',#62,#63,#64);
#62 = CARTESIAN_POINT('',(-9.429562317727,8.162853380023,
    8.206135020389E-15));
#63 = DIRECTION('',(0.,-2.22044604925E-16,-1.));
#64 = DIRECTION('',(1.,0.,0.));
#65 = ORIENTED_EDGE('',*,*,#66,.F.);
#66 = EDGE_CURVE('',#67,#58,#69,.T.);
#67 = VERTEX_POINT('',#68);
#68 = CARTESIAN_POINT('',(-8.540860694668,9.585073273419,
    7.890338766044E-15));
#69 = CIRCLE('',#70,0.5);
#70 = AXIS2_PLACEMENT_3D('',#71,#72,#73);
#71 = CARTESIAN_POINT('',(-8.964884742746,9.850032905536,
    1.778150590921E-14));
#72 = DIRECTION('',(-0.,-4.42044604925E-16,-1.));
#73 = DIRECTION('',(0.,-1.,4.42044604925E-16));
#74 = ORIENTED_EDGE('',*,*,#75,.T.);
#75 = EDGE_CURVE('',#67,#76,#78,.T.);
#76 = VERTEX_POINT('',#77);
#77 = CARTESIAN_POINT('',(-5.001224523667,15.249675258115,
    6.632544456294E-15));
#78 = LINE('',#79,#80);
#79 = CARTESIAN_POINT('',(-8.767163237436,9.222913500218,
    7.970754389804E-15));
#80 = VECTOR('',#81,1.);
#81 = DIRECTION('',(0.529919264233,0.848048096156,-1.883045044685E-16));
#82 = ORIENTED_EDGE('',*,*,#83,.T.);
#83 = EDGE_CURVE('',#76,#84,#86,.T.);
#84 = VERTEX_POINT('',#85);
#85 = CARTESIAN_POINT('',(-4.925248571745,15.514634890232,
    6.57371159946E-15));
#86 = CIRCLE('',#87,0.5);
#87 = AXIS2_PLACEMENT_3D('',#88,#89,#90);
#88 = CARTESIAN_POINT('',(-5.425248571745,15.514634890232,
    1.652371159946E-14));
#89 = DIRECTION('',(-0.,4.42044604925E-16,1.));
#90 = DIRECTION('',(0.,-1.,4.42044604925E-16));
#91 = ORIENTED_EDGE('',*,*,#92,.T.);
#92 = EDGE_CURVE('',#84,#93,#95,.T.);
#93 = VERTEX_POINT('',#94);
#94 = CARTESIAN_POINT('',(-4.925248571745,15.871262197352,
    6.494524429945E-15));
#95 = LINE('',#96,#97);
#96 = CARTESIAN_POINT('',(-4.925248571745,15.371262197352,
    6.605546732407E-15));
#97 = VECTOR('',#98,1.);
#98 = DIRECTION('',(0.,1.,-2.22044604925E-16));
#99 = ORIENTED_EDGE('',*,*,#100,.T.);
#100 = EDGE_CURVE('',#93,#101,#103,.T.);
#101 = VERTEX_POINT('',#102);
#102 = CARTESIAN_POINT('',(-6.925248571745,17.871262197352,
    6.050435220095E-15));
#103 = CIRCLE('',#104,2.);
#104 = AXIS2_PLACEMENT_3D('',#105,#106,#107);
#105 = CARTESIAN_POINT('',(-6.925248571745,15.871262197352,
    1.644452442994E-14));
#106 = DIRECTION('',(-0.,4.42044604925E-16,1.));
#107 = DIRECTION('',(0.,-1.,4.42044604925E-16));
#108 = ORIENTED_EDGE('',*,*,#109,.T.);
#109 = EDGE_CURVE('',#101,#110,#112,.T.);
#110 = VERTEX_POINT('',#111);
#111 = CARTESIAN_POINT('',(-12.,17.871262197352,6.050435220095E-15));
#112 = LINE('',#113,#114);
#113 = CARTESIAN_POINT('',(-4.925248571745,17.871262197352,
    6.050435220095E-15));
#114 = VECTOR('',#115,1.);
#115 = DIRECTION('',(-1.,0.,0.));
#116 = ORIENTED_EDGE('',*,*,#117,.T.);
#117 = EDGE_CURVE('',#110,#118,#120,.T.);
#118 = VERTEX_POINT('',#119);
#119 = CARTESIAN_POINT('',(-14.,15.871262197352,6.494524429945E-15));
#120 = CIRCLE('',#121,2.);
#121 = AXIS2_PLACEMENT_3D('',#122,#123,#124);
#122 = CARTESIAN_POINT('',(-12.,15.871262197352,1.644452442994E-14));
#123 = DIRECTION('',(-0.,4.42044604925E-16,1.));
#124 = DIRECTION('',(0.,-1.,4.42044604925E-16));
#125 = ORIENTED_EDGE('',*,*,#126,.T.);
#126 = EDGE_CURVE('',#118,#127,#129,.T.);
#127 = VERTEX_POINT('',#128);
#128 = CARTESIAN_POINT('',(-14.,-14.15154110172,1.316092592723E-14));
#129 = LINE('',#130,#131);
#130 = CARTESIAN_POINT('',(-14.,17.871262197352,6.050435220095E-15));
#131 = VECTOR('',#132,1.);
#132 = DIRECTION('',(0.,-1.,2.22044604925E-16));
#133 = ORIENTED_EDGE('',*,*,#134,.T.);
#134 = EDGE_CURVE('',#127,#135,#137,.T.);
#135 = VERTEX_POINT('',#136);
#136 = CARTESIAN_POINT('',(-12.,-16.15154110172,1.360501513708E-14));
#137 = CIRCLE('',#138,2.);
#138 = AXIS2_PLACEMENT_3D('',#139,#140,#141);
#139 = CARTESIAN_POINT('',(-12.,-14.15154110172,2.311092592723E-14));
#140 = DIRECTION('',(-0.,4.42044604925E-16,1.));
#141 = DIRECTION('',(0.,-1.,4.42044604925E-16));
#142 = ORIENTED_EDGE('',*,*,#143,.F.);
#143 = EDGE_CURVE('',#144,#135,#146,.T.);
#144 = VERTEX_POINT('',#145);
#145 = CARTESIAN_POINT('',(-5.069201596554,-16.15154110172,
    1.360501513708E-14));
#146 = LINE('',#147,#148);
#147 = CARTESIAN_POINT('',(-3.069201596554,-16.15154110172,
    1.360501513708E-14));
#148 = VECTOR('',#149,1.);
#149 = DIRECTION('',(-1.,0.,0.));
#150 = ORIENTED_EDGE('',*,*,#151,.T.);
#151 = EDGE_CURVE('',#144,#152,#154,.T.);
#152 = VERTEX_POINT('',#153);
#153 = CARTESIAN_POINT('',(-3.069201596554,-14.15154110172,
    1.316092592723E-14));
#154 = CIRCLE('',#155,2.);
#155 = AXIS2_PLACEMENT_3D('',#156,#157,#158);
#156 = CARTESIAN_POINT('',(-5.069201596554,-14.15154110172,
    2.311092592723E-14));
#157 = DIRECTION('',(-0.,4.42044604925E-16,1.));
#158 = DIRECTION('',(0.,-1.,4.42044604925E-16));
#159 = ORIENTED_EDGE('',*,*,#160,.F.);
#160 = EDGE_CURVE('',#161,#152,#163,.T.);
#161 = VERTEX_POINT('',#162);
#162 = CARTESIAN_POINT('',(-3.069201596554,-13.92869562745,
    1.311144429194E-14));
#163 = LINE('',#164,#165);
#164 = CARTESIAN_POINT('',(-3.069201596554,-13.65154110172,
    1.304990362477E-14));
#165 = VECTOR('',#166,1.);
#166 = DIRECTION('',(0.,-1.,2.22044604925E-16));
#167 = ORIENTED_EDGE('',*,*,#168,.T.);
#168 = EDGE_CURVE('',#161,#169,#171,.T.);
#169 = VERTEX_POINT('',#170);
#170 = CARTESIAN_POINT('',(-3.304241964438,-13.50467157937,
    1.30172920397E-14));
#171 = CIRCLE('',#172,0.5);
#172 = AXIS2_PLACEMENT_3D('',#173,#174,#175);
#173 = CARTESIAN_POINT('',(-3.569201596554,-13.92869562745,
    2.306144429194E-14));
#174 = DIRECTION('',(-0.,4.42044604925E-16,1.));
#175 = DIRECTION('',(0.,-1.,4.42044604925E-16));
#176 = ORIENTED_EDGE('',*,*,#177,.F.);
#177 = EDGE_CURVE('',#178,#169,#180,.T.);
#178 = VERTEX_POINT('',#179);
#179 = CARTESIAN_POINT('',(-8.007342424331,-10.56584824303,
    1.236474217304E-14));
#180 = LINE('',#181,#182);
#181 = CARTESIAN_POINT('',(-8.369502197532,-10.33954570026,
    1.231449291434E-14));
#182 = VECTOR('',#183,1.);
#183 = DIRECTION('',(0.848048096156,-0.529919264233,1.176657136688E-16)
  );
#184 = ORIENTED_EDGE('',*,*,#185,.T.);
#185 = EDGE_CURVE('',#178,#186,#188,.T.);
#186 = VERTEX_POINT('',#187);
#187 = CARTESIAN_POINT('',(-8.602947845385,-10.61480781364,
    2.437561338155E-14));
#188 = CIRCLE('',#189,0.5);
#189 = AXIS2_PLACEMENT_3D('',#190,#191,#192);
#190 = CARTESIAN_POINT('',(-8.272302056448,-10.98987229111,
    2.240889442527E-14));
#191 = DIRECTION('',(-0.,4.42044604925E-16,1.));
#192 = DIRECTION('',(0.,-1.,4.42044604925E-16));
#193 = ORIENTED_EDGE('',*,*,#194,.T.);
#194 = EDGE_CURVE('',#186,#195,#197,.T.);
#195 = VERTEX_POINT('',#196);
#196 = CARTESIAN_POINT('',(-9.09764976417,-8.472018387468,
    2.389981854998E-14));
#197 = CIRCLE('',#198,1.25);
#198 = AXIS2_PLACEMENT_3D('',#199,#200,#201);
#199 = CARTESIAN_POINT('',(-9.429562317727,-9.677146619977,
    1.216741077225E-14));
#200 = DIRECTION('',(0.,-2.22044604925E-16,-1.));
#201 = DIRECTION('',(1.,0.,0.));
#202 = ORIENTED_EDGE('',*,*,#203,.T.);
#203 = EDGE_CURVE('',#195,#204,#206,.T.);
#204 = VERTEX_POINT('',#205);
#205 = CARTESIAN_POINT('',(-8.540860694668,-8.254926726581,
    1.185161451791E-14));
#206 = CIRCLE('',#207,0.5);
#207 = AXIS2_PLACEMENT_3D('',#208,#209,#210);
#208 = CARTESIAN_POINT('',(-8.964884742746,-7.989967094464,
    2.174278166107E-14));
#209 = DIRECTION('',(-0.,4.42044604925E-16,1.));
#210 = DIRECTION('',(0.,-1.,4.42044604925E-16));
#211 = ORIENTED_EDGE('',*,*,#212,.T.);
#212 = EDGE_CURVE('',#204,#213,#215,.T.);
#213 = VERTEX_POINT('',#214);
#214 = CARTESIAN_POINT('',(-4.925248571745,-2.468737802648,
    1.056682248427E-14));
#215 = LINE('',#216,#217);
#216 = CARTESIAN_POINT('',(-8.767163237436,-8.617086499782,
    1.193203014167E-14));
#217 = VECTOR('',#218,1.);
#218 = DIRECTION('',(0.529919264233,0.848048096156,-1.883045044685E-16)
  );
#219 = ORIENTED_EDGE('',*,*,#220,.T.);
#220 = EDGE_CURVE('',#213,#221,#223,.T.);
#221 = VERTEX_POINT('',#222);
#222 = CARTESIAN_POINT('',(-2.513805691063,-1.912012346782,
    1.044320460037E-14));
#223 = CIRCLE('',#224,1.75);
#224 = AXIS2_PLACEMENT_3D('',#225,#226,#227);
#225 = CARTESIAN_POINT('',(-3.441164403471,-3.396096515056,
    1.077273748319E-14));
#226 = DIRECTION('',(0.,-2.22044604925E-16,-1.));
#227 = DIRECTION('',(1.,0.,0.));
#228 = ORIENTED_EDGE('',*,*,#229,.F.);
#229 = EDGE_CURVE('',#230,#221,#232,.T.);
#230 = VERTEX_POINT('',#231);
#231 = CARTESIAN_POINT('',(5.512872096752,-6.927637294039,
    1.155689706024E-14));
#232 = LINE('',#233,#234);
#233 = CARTESIAN_POINT('',(5.999219853701,-7.231541101726,
    1.162437726115E-14));
#234 = VECTOR('',#235,1.);
#235 = DIRECTION('',(-0.848048096156,0.529919264233,-1.176657136688E-16)
  );
#236 = ORIENTED_EDGE('',*,*,#237,.T.);
#237 = EDGE_CURVE('',#230,#238,#240,.T.);
#238 = VERTEX_POINT('',#239);
#239 = CARTESIAN_POINT('',(6.572710625218,-7.231541101726,
    1.162437726115E-14));
#240 = CIRCLE('',#241,2.);
#241 = AXIS2_PLACEMENT_3D('',#242,#243,#244);
#242 = CARTESIAN_POINT('',(6.572710625218,-5.231541101726,
    2.11302880513E-14));
#243 = DIRECTION('',(-0.,4.42044604925E-16,1.));
#244 = DIRECTION('',(0.,-1.,4.42044604925E-16));
#245 = ORIENTED_EDGE('',*,*,#246,.F.);
#246 = EDGE_CURVE('',#247,#238,#249,.T.);
#247 = VERTEX_POINT('',#248);
#248 = CARTESIAN_POINT('',(10.380798403446,-7.231541101726,
    1.162437726115E-14));
#249 = LINE('',#250,#251);
#250 = CARTESIAN_POINT('',(12.380798403446,-7.231541101726,
    1.162437726115E-14));
#251 = VECTOR('',#252,1.);
#252 = DIRECTION('',(-1.,0.,0.));
#253 = ORIENTED_EDGE('',*,*,#254,.T.);
#254 = EDGE_CURVE('',#247,#255,#257,.T.);
#255 = VERTEX_POINT('',#256);
#256 = CARTESIAN_POINT('',(12.380798403446,-5.231541101726,
    1.11802880513E-14));
#257 = CIRCLE('',#258,2.);
#258 = AXIS2_PLACEMENT_3D('',#259,#260,#261);
#259 = CARTESIAN_POINT('',(10.380798403446,-5.231541101726,
    2.11302880513E-14));
#260 = DIRECTION('',(-0.,4.42044604925E-16,1.));
#261 = DIRECTION('',(0.,-1.,4.42044604925E-16));
#262 = ORIENTED_EDGE('',*,*,#263,.F.);
#263 = EDGE_CURVE('',#264,#255,#266,.T.);
#264 = VERTEX_POINT('',#265);
#265 = CARTESIAN_POINT('',(12.380798403446,-5.008695627453,
    1.1130806416E-14));
#266 = LINE('',#267,#268);
#267 = CARTESIAN_POINT('',(12.380798403446,-4.731541101726,
    1.106926574884E-14));
#268 = VECTOR('',#269,1.);
#269 = DIRECTION('',(0.,-1.,2.22044604925E-16));
#270 = ORIENTED_EDGE('',*,*,#271,.T.);
#271 = EDGE_CURVE('',#264,#272,#274,.T.);
#272 = VERTEX_POINT('',#273);
#273 = CARTESIAN_POINT('',(12.145758035562,-4.584671579374,
    1.103665416377E-14));
#274 = CIRCLE('',#275,0.5);
#275 = AXIS2_PLACEMENT_3D('',#276,#277,#278);
#276 = CARTESIAN_POINT('',(11.880798403446,-5.008695627453,
    2.1080806416E-14));
#277 = DIRECTION('',(-0.,4.42044604925E-16,1.));
#278 = DIRECTION('',(0.,-1.,4.42044604925E-16));
#279 = ORIENTED_EDGE('',*,*,#280,.F.);
#280 = EDGE_CURVE('',#281,#272,#283,.T.);
#281 = VERTEX_POINT('',#282);
#282 = CARTESIAN_POINT('',(7.442657575669,-1.645848243036,
    1.038410429711E-14));
#283 = LINE('',#284,#285);
#284 = CARTESIAN_POINT('',(7.080497802468,-1.419545700269,
    1.033385503841E-14));
#285 = VECTOR('',#286,1.);
#286 = DIRECTION('',(0.848048096156,-0.529919264233,1.176657136688E-16)
  );
#287 = ORIENTED_EDGE('',*,*,#288,.F.);
#288 = EDGE_CURVE('',#289,#281,#291,.T.);
#289 = VERTEX_POINT('',#290);
#290 = CARTESIAN_POINT('',(6.847052154615,-1.694807813647,
    2.039497550562E-14));
#291 = CIRCLE('',#292,0.5);
#292 = AXIS2_PLACEMENT_3D('',#293,#294,#295);
#293 = CARTESIAN_POINT('',(7.177697943552,-2.069872291115,
    2.042825654934E-14));
#294 = DIRECTION('',(-0.,-4.42044604925E-16,-1.));
#295 = DIRECTION('',(0.,-1.,4.42044604925E-16));
#296 = ORIENTED_EDGE('',*,*,#297,.T.);
#297 = EDGE_CURVE('',#289,#298,#300,.T.);
#298 = VERTEX_POINT('',#299);
#299 = CARTESIAN_POINT('',(6.35235023583,0.447981612532,
    1.991918067405E-14));
#300 = CIRCLE('',#301,1.25);
#301 = AXIS2_PLACEMENT_3D('',#302,#303,#304);
#302 = CARTESIAN_POINT('',(6.020437682273,-0.757146619977,
    1.018677289632E-14));
#303 = DIRECTION('',(0.,-2.22044604925E-16,-1.));
#304 = DIRECTION('',(1.,0.,0.));
#305 = ORIENTED_EDGE('',*,*,#306,.F.);
#306 = EDGE_CURVE('',#307,#298,#309,.T.);
#307 = VERTEX_POINT('',#308);
#308 = CARTESIAN_POINT('',(6.909139305332,0.665073273419,
    9.870976641975E-15));
#309 = CIRCLE('',#310,0.5);
#310 = AXIS2_PLACEMENT_3D('',#311,#312,#313);
#311 = CARTESIAN_POINT('',(6.485115257254,0.930032905536,
    1.976214378514E-14));
#312 = DIRECTION('',(-0.,-4.42044604925E-16,-1.));
#313 = DIRECTION('',(0.,-1.,4.42044604925E-16));
#314 = ORIENTED_EDGE('',*,*,#315,.T.);
#315 = EDGE_CURVE('',#307,#316,#318,.T.);
#316 = VERTEX_POINT('',#317);
#317 = CARTESIAN_POINT('',(10.448775476333,6.329675258115,
    8.613182332225E-15));
#318 = LINE('',#319,#320);
#319 = CARTESIAN_POINT('',(6.682836762564,0.302913500218,
    9.951392265735E-15));
#320 = VECTOR('',#321,1.);
#321 = DIRECTION('',(0.529919264233,0.848048096156,-1.883045044685E-16)
  );
#322 = ORIENTED_EDGE('',*,*,#323,.T.);
#323 = EDGE_CURVE('',#316,#324,#326,.T.);
#324 = VERTEX_POINT('',#325);
#325 = CARTESIAN_POINT('',(10.524751428255,6.594634890232,
    8.554349475391E-15));
#326 = CIRCLE('',#327,0.5);
#327 = AXIS2_PLACEMENT_3D('',#328,#329,#330);
#328 = CARTESIAN_POINT('',(10.024751428255,6.594634890232,
    1.850434947539E-14));
#329 = DIRECTION('',(-0.,4.42044604925E-16,1.));
#330 = DIRECTION('',(0.,-1.,4.42044604925E-16));
#331 = ORIENTED_EDGE('',*,*,#332,.T.);
#332 = EDGE_CURVE('',#324,#333,#335,.T.);
#333 = VERTEX_POINT('',#334);
#334 = CARTESIAN_POINT('',(10.524751428255,6.951262197352,
    8.475162305876E-15));
#335 = LINE('',#336,#337);
#336 = CARTESIAN_POINT('',(10.524751428255,6.451262197352,
    8.586184608339E-15));
#337 = VECTOR('',#338,1.);
#338 = DIRECTION('',(0.,1.,-2.22044604925E-16));
#339 = ORIENTED_EDGE('',*,*,#340,.F.);
#340 = EDGE_CURVE('',#341,#333,#343,.T.);
#341 = VERTEX_POINT('',#342);
#342 = CARTESIAN_POINT('',(8.524751428255,8.951262197352,
    8.031073096026E-15));
#343 = CIRCLE('',#344,2.);
#344 = AXIS2_PLACEMENT_3D('',#345,#346,#347);
#345 = CARTESIAN_POINT('',(8.524751428255,6.951262197352,
    1.842516230588E-14));
#346 = DIRECTION('',(-0.,-4.42044604925E-16,-1.));
#347 = DIRECTION('',(0.,-1.,4.42044604925E-16));
#348 = ORIENTED_EDGE('',*,*,#349,.T.);
#349 = EDGE_CURVE('',#341,#350,#352,.T.);
#350 = VERTEX_POINT('',#351);
#351 = CARTESIAN_POINT('',(3.079108523002,8.951262197352,
    8.031073096026E-15));
#352 = LINE('',#353,#354);
#353 = CARTESIAN_POINT('',(10.524751428255,8.951262197352,
    8.031073096026E-15));
#354 = VECTOR('',#355,1.);
#355 = DIRECTION('',(-1.,0.,0.));
#356 = ORIENTED_EDGE('',*,*,#357,.F.);
#357 = EDGE_CURVE('',#22,#350,#358,.T.);
#358 = CIRCLE('',#359,2.);
#359 = AXIS2_PLACEMENT_3D('',#360,#361,#362);
#360 = CARTESIAN_POINT('',(3.079108523002,6.951262197352,
    1.842516230588E-14));
#361 = DIRECTION('',(-0.,-4.42044604925E-16,-1.));
#362 = DIRECTION('',(0.,-1.,4.42044604925E-16));
#363 = PLANE('',#364);
#364 = AXIS2_PLACEMENT_3D('',#365,#366,#367);
#365 = CARTESIAN_POINT('',(-3.984134359848,0.326347917179,
    1.989618877988E-14));
#366 = DIRECTION('',(0.,2.22044604925E-16,1.));
#367 = DIRECTION('',(0.,-1.,2.22044604925E-16));
#368 = ADVANCED_FACE('',(#369),#394,.F.);
#369 = FACE_BOUND('',#370,.F.);
#370 = EDGE_LOOP('',(#371,#372,#380,#388));
#371 = ORIENTED_EDGE('',*,*,#21,.F.);
#372 = ORIENTED_EDGE('',*,*,#373,.T.);
#373 = EDGE_CURVE('',#22,#374,#376,.T.);
#374 = VERTEX_POINT('',#375);
#375 = CARTESIAN_POINT('',(1.383012330689,8.011100725819,4.));
#376 = LINE('',#377,#378);
#377 = CARTESIAN_POINT('',(1.383012330689,8.011100725819,
    1.647983087854E-14));
#378 = VECTOR('',#379,1.);
#379 = DIRECTION('',(0.,4.42044604925E-16,1.));
#380 = ORIENTED_EDGE('',*,*,#381,.T.);
#381 = EDGE_CURVE('',#374,#382,#384,.T.);
#382 = VERTEX_POINT('',#383);
#383 = CARTESIAN_POINT('',(-0.657758715872,4.745184354139,4.));
#384 = LINE('',#385,#386);
#385 = CARTESIAN_POINT('',(1.970490420096,8.951262197352,4.));
#386 = VECTOR('',#387,1.);
#387 = DIRECTION('',(-0.529919264233,-0.848048096156,1.883045044685E-16)
  );
#388 = ORIENTED_EDGE('',*,*,#389,.F.);
#389 = EDGE_CURVE('',#24,#382,#390,.T.);
#390 = LINE('',#391,#392);
#391 = CARTESIAN_POINT('',(-0.657758715872,4.745184354139,
    1.793500998901E-14));
#392 = VECTOR('',#393,1.);
#393 = DIRECTION('',(0.,4.42044604925E-16,1.));
#394 = PLANE('',#395);
#395 = AXIS2_PLACEMENT_3D('',#396,#397,#398);
#396 = CARTESIAN_POINT('',(1.970490420096,8.951262197352,
    1.606107309603E-14));
#397 = DIRECTION('',(0.848048096156,-0.529919264233,2.376657136688E-16)
  );
#398 = DIRECTION('',(-0.529919264233,-0.848048096156,3.783045044685E-16)
  );
#399 = ADVANCED_FACE('',(#400),#419,.T.);
#400 = FACE_BOUND('',#401,.F.);
#401 = EDGE_LOOP('',(#402,#403,#411,#418));
#402 = ORIENTED_EDGE('',*,*,#357,.T.);
#403 = ORIENTED_EDGE('',*,*,#404,.T.);
#404 = EDGE_CURVE('',#350,#405,#407,.T.);
#405 = VERTEX_POINT('',#406);
#406 = CARTESIAN_POINT('',(3.079108523002,8.951262197352,4.));
#407 = LINE('',#408,#409);
#408 = CARTESIAN_POINT('',(3.079108523002,8.951262197352,
    1.606107309603E-14));
#409 = VECTOR('',#410,1.);
#410 = DIRECTION('',(0.,4.42044604925E-16,1.));
#411 = ORIENTED_EDGE('',*,*,#412,.F.);
#412 = EDGE_CURVE('',#374,#405,#413,.T.);
#413 = CIRCLE('',#414,2.);
#414 = AXIS2_PLACEMENT_3D('',#415,#416,#417);
#415 = CARTESIAN_POINT('',(3.079108523002,6.951262197352,4.));
#416 = DIRECTION('',(-0.,-4.42044604925E-16,-1.));
#417 = DIRECTION('',(0.,-1.,4.42044604925E-16));
#418 = ORIENTED_EDGE('',*,*,#373,.F.);
#419 = CYLINDRICAL_SURFACE('',#420,2.);
#420 = AXIS2_PLACEMENT_3D('',#421,#422,#423);
#421 = CARTESIAN_POINT('',(3.079108523002,6.951262197352,
    1.694516230588E-14));
#422 = DIRECTION('',(0.,4.42044604925E-16,1.));
#423 = DIRECTION('',(-0.848048096156,0.529919264233,-2.342479518001E-16)
  );
#424 = ADVANCED_FACE('',(#425),#444,.F.);
#425 = FACE_BOUND('',#426,.F.);
#426 = EDGE_LOOP('',(#427,#428,#437,#443));
#427 = ORIENTED_EDGE('',*,*,#389,.T.);
#428 = ORIENTED_EDGE('',*,*,#429,.T.);
#429 = EDGE_CURVE('',#382,#430,#432,.T.);
#430 = VERTEX_POINT('',#431);
#431 = CARTESIAN_POINT('',(-3.069201596554,4.188458898274,4.));
#432 = CIRCLE('',#433,1.75);
#433 = AXIS2_PLACEMENT_3D('',#434,#435,#436);
#434 = CARTESIAN_POINT('',(-2.141842884146,5.672543066547,4.));
#435 = DIRECTION('',(0.,-2.22044604925E-16,-1.));
#436 = DIRECTION('',(1.,0.,0.));
#437 = ORIENTED_EDGE('',*,*,#438,.F.);
#438 = EDGE_CURVE('',#32,#430,#439,.T.);
#439 = LINE('',#440,#441);
#440 = CARTESIAN_POINT('',(-3.069201596554,4.188458898274,
    1.817862787291E-14));
#441 = VECTOR('',#442,1.);
#442 = DIRECTION('',(0.,4.42044604925E-16,1.));
#443 = ORIENTED_EDGE('',*,*,#31,.F.);
#444 = CYLINDRICAL_SURFACE('',#445,1.75);
#445 = AXIS2_PLACEMENT_3D('',#446,#447,#448);
#446 = CARTESIAN_POINT('',(-2.141842884146,5.672543066547,
    1.751909499009E-14));
#447 = DIRECTION('',(0.,-4.42044604925E-16,-1.));
#448 = DIRECTION('',(1.,0.,0.));
#449 = ADVANCED_FACE('',(#450),#468,.F.);
#450 = FACE_BOUND('',#451,.F.);
#451 = EDGE_LOOP('',(#452,#453,#461,#467));
#452 = ORIENTED_EDGE('',*,*,#349,.F.);
#453 = ORIENTED_EDGE('',*,*,#454,.T.);
#454 = EDGE_CURVE('',#341,#455,#457,.T.);
#455 = VERTEX_POINT('',#456);
#456 = CARTESIAN_POINT('',(8.524751428255,8.951262197352,4.));
#457 = LINE('',#458,#459);
#458 = CARTESIAN_POINT('',(8.524751428255,8.951262197352,
    1.606107309603E-14));
#459 = VECTOR('',#460,1.);
#460 = DIRECTION('',(0.,4.42044604925E-16,1.));
#461 = ORIENTED_EDGE('',*,*,#462,.T.);
#462 = EDGE_CURVE('',#455,#405,#463,.T.);
#463 = LINE('',#464,#465);
#464 = CARTESIAN_POINT('',(10.524751428255,8.951262197352,4.));
#465 = VECTOR('',#466,1.);
#466 = DIRECTION('',(-1.,0.,0.));
#467 = ORIENTED_EDGE('',*,*,#404,.F.);
#468 = PLANE('',#469);
#469 = AXIS2_PLACEMENT_3D('',#470,#471,#472);
#470 = CARTESIAN_POINT('',(10.524751428255,8.951262197352,
    1.606107309603E-14));
#471 = DIRECTION('',(0.,-1.,4.42044604925E-16));
#472 = DIRECTION('',(-1.,0.,0.));
#473 = ADVANCED_FACE('',(#474),#492,.T.);
#474 = FACE_BOUND('',#475,.T.);
#475 = EDGE_LOOP('',(#476,#477,#485,#491));
#476 = ORIENTED_EDGE('',*,*,#40,.F.);
#477 = ORIENTED_EDGE('',*,*,#478,.T.);
#478 = EDGE_CURVE('',#41,#479,#481,.T.);
#479 = VERTEX_POINT('',#480);
#480 = CARTESIAN_POINT('',(-8.007342424331,7.274151756964,4.));
#481 = LINE('',#482,#483);
#482 = CARTESIAN_POINT('',(-8.007342424331,7.274151756964,
    1.680346642118E-14));
#483 = VECTOR('',#484,1.);
#484 = DIRECTION('',(0.,4.42044604925E-16,1.));
#485 = ORIENTED_EDGE('',*,*,#486,.T.);
#486 = EDGE_CURVE('',#479,#430,#487,.T.);
#487 = LINE('',#488,#489);
#488 = CARTESIAN_POINT('',(-8.369502197532,7.500454299731,4.));
#489 = VECTOR('',#490,1.);
#490 = DIRECTION('',(0.848048096156,-0.529919264233,1.176657136688E-16)
  );
#491 = ORIENTED_EDGE('',*,*,#438,.F.);
#492 = PLANE('',#493);
#493 = AXIS2_PLACEMENT_3D('',#494,#495,#496);
#494 = CARTESIAN_POINT('',(-8.369502197532,7.500454299731,
    1.670321716248E-14));
#495 = DIRECTION('',(0.529919264233,0.848048096156,-3.783045044685E-16)
  );
#496 = DIRECTION('',(0.848048096156,-0.529919264233,2.376657136688E-16)
  );
#497 = ADVANCED_FACE('',(#498),#517,.T.);
#498 = FACE_BOUND('',#499,.F.);
#499 = EDGE_LOOP('',(#500,#501,#509,#516));
#500 = ORIENTED_EDGE('',*,*,#340,.T.);
#501 = ORIENTED_EDGE('',*,*,#502,.T.);
#502 = EDGE_CURVE('',#333,#503,#505,.T.);
#503 = VERTEX_POINT('',#504);
#504 = CARTESIAN_POINT('',(10.524751428255,6.951262197352,4.));
#505 = LINE('',#506,#507);
#506 = CARTESIAN_POINT('',(10.524751428255,6.951262197352,
    1.694516230588E-14));
#507 = VECTOR('',#508,1.);
#508 = DIRECTION('',(0.,4.42044604925E-16,1.));
#509 = ORIENTED_EDGE('',*,*,#510,.F.);
#510 = EDGE_CURVE('',#455,#503,#511,.T.);
#511 = CIRCLE('',#512,2.);
#512 = AXIS2_PLACEMENT_3D('',#513,#514,#515);
#513 = CARTESIAN_POINT('',(8.524751428255,6.951262197352,4.));
#514 = DIRECTION('',(-0.,-4.42044604925E-16,-1.));
#515 = DIRECTION('',(0.,-1.,4.42044604925E-16));
#516 = ORIENTED_EDGE('',*,*,#454,.F.);
#517 = CYLINDRICAL_SURFACE('',#518,2.);
#518 = AXIS2_PLACEMENT_3D('',#519,#520,#521);
#519 = CARTESIAN_POINT('',(8.524751428255,6.951262197352,
    1.694516230588E-14));
#520 = DIRECTION('',(0.,4.42044604925E-16,1.));
#521 = DIRECTION('',(0.,1.,-4.42044604925E-16));
#522 = ADVANCED_FACE('',(#523),#542,.T.);
#523 = FACE_BOUND('',#524,.F.);
#524 = EDGE_LOOP('',(#525,#526,#527,#536));
#525 = ORIENTED_EDGE('',*,*,#48,.T.);
#526 = ORIENTED_EDGE('',*,*,#478,.T.);
#527 = ORIENTED_EDGE('',*,*,#528,.F.);
#528 = EDGE_CURVE('',#529,#479,#531,.T.);
#529 = VERTEX_POINT('',#530);
#530 = CARTESIAN_POINT('',(-8.602947845385,7.225192186353,4.));
#531 = CIRCLE('',#532,0.5);
#532 = AXIS2_PLACEMENT_3D('',#533,#534,#535);
#533 = CARTESIAN_POINT('',(-8.272302056448,6.850127708885,4.));
#534 = DIRECTION('',(-0.,-4.42044604925E-16,-1.));
#535 = DIRECTION('',(0.,-1.,4.42044604925E-16));
#536 = ORIENTED_EDGE('',*,*,#537,.F.);
#537 = EDGE_CURVE('',#49,#529,#538,.T.);
#538 = LINE('',#539,#540);
#539 = CARTESIAN_POINT('',(-8.602947845385,7.225192186353,
    1.682433762969E-14));
#540 = VECTOR('',#541,1.);
#541 = DIRECTION('',(0.,4.42044604925E-16,1.));
#542 = CYLINDRICAL_SURFACE('',#543,0.5);
#543 = AXIS2_PLACEMENT_3D('',#544,#545,#546);
#544 = CARTESIAN_POINT('',(-8.272302056448,6.850127708885,
    1.698761867341E-14));
#545 = DIRECTION('',(0.,4.42044604925E-16,1.));
#546 = DIRECTION('',(-0.661291577874,0.750128954936,-3.315904575273E-16)
  );
#547 = ADVANCED_FACE('',(#548),#566,.F.);
#548 = FACE_BOUND('',#549,.F.);
#549 = EDGE_LOOP('',(#550,#551,#559,#565));
#550 = ORIENTED_EDGE('',*,*,#332,.F.);
#551 = ORIENTED_EDGE('',*,*,#552,.T.);
#552 = EDGE_CURVE('',#324,#553,#555,.T.);
#553 = VERTEX_POINT('',#554);
#554 = CARTESIAN_POINT('',(10.524751428255,6.594634890232,4.));
#555 = LINE('',#556,#557);
#556 = CARTESIAN_POINT('',(10.524751428255,6.594634890232,
    1.711434947539E-14));
#557 = VECTOR('',#558,1.);
#558 = DIRECTION('',(0.,4.42044604925E-16,1.));
#559 = ORIENTED_EDGE('',*,*,#560,.T.);
#560 = EDGE_CURVE('',#553,#503,#561,.T.);
#561 = LINE('',#562,#563);
#562 = CARTESIAN_POINT('',(10.524751428255,6.451262197352,4.));
#563 = VECTOR('',#564,1.);
#564 = DIRECTION('',(0.,1.,-2.22044604925E-16));
#565 = ORIENTED_EDGE('',*,*,#502,.F.);
#566 = PLANE('',#567);
#567 = AXIS2_PLACEMENT_3D('',#568,#569,#570);
#568 = CARTESIAN_POINT('',(10.524751428255,6.451262197352,
    1.717618460834E-14));
#569 = DIRECTION('',(-1.,0.,0.));
#570 = DIRECTION('',(0.,1.,-4.42044604925E-16));
#571 = ADVANCED_FACE('',(#572),#591,.F.);
#572 = FACE_BOUND('',#573,.F.);
#573 = EDGE_LOOP('',(#574,#575,#576,#585));
#574 = ORIENTED_EDGE('',*,*,#57,.F.);
#575 = ORIENTED_EDGE('',*,*,#537,.T.);
#576 = ORIENTED_EDGE('',*,*,#577,.T.);
#577 = EDGE_CURVE('',#529,#578,#580,.T.);
#578 = VERTEX_POINT('',#579);
#579 = CARTESIAN_POINT('',(-9.09764976417,9.367981612532,4.));
#580 = CIRCLE('',#581,1.25);
#581 = AXIS2_PLACEMENT_3D('',#582,#583,#584);
#582 = CARTESIAN_POINT('',(-9.429562317727,8.162853380023,4.));
#583 = DIRECTION('',(0.,-2.22044604925E-16,-1.));
#584 = DIRECTION('',(1.,0.,0.));
#585 = ORIENTED_EDGE('',*,*,#586,.F.);
#586 = EDGE_CURVE('',#58,#578,#587,.T.);
#587 = LINE('',#588,#589);
#588 = CARTESIAN_POINT('',(-9.09764976417,9.367981612532,
    1.587854279812E-14));
#589 = VECTOR('',#590,1.);
#590 = DIRECTION('',(0.,4.42044604925E-16,1.));
#591 = CYLINDRICAL_SURFACE('',#592,1.25);
#592 = AXIS2_PLACEMENT_3D('',#593,#594,#595);
#593 = CARTESIAN_POINT('',(-9.429562317727,8.162853380023,
    1.641613502039E-14));
#594 = DIRECTION('',(0.,-4.42044604925E-16,-1.));
#595 = DIRECTION('',(1.,0.,0.));
#596 = ADVANCED_FACE('',(#597),#616,.T.);
#597 = FACE_BOUND('',#598,.T.);
#598 = EDGE_LOOP('',(#599,#600,#601,#610));
#599 = ORIENTED_EDGE('',*,*,#323,.T.);
#600 = ORIENTED_EDGE('',*,*,#552,.T.);
#601 = ORIENTED_EDGE('',*,*,#602,.F.);
#602 = EDGE_CURVE('',#603,#553,#605,.T.);
#603 = VERTEX_POINT('',#604);
#604 = CARTESIAN_POINT('',(10.448775476333,6.329675258115,4.));
#605 = CIRCLE('',#606,0.5);
#606 = AXIS2_PLACEMENT_3D('',#607,#608,#609);
#607 = CARTESIAN_POINT('',(10.024751428255,6.594634890232,4.));
#608 = DIRECTION('',(-0.,4.42044604925E-16,1.));
#609 = DIRECTION('',(0.,-1.,4.42044604925E-16));
#610 = ORIENTED_EDGE('',*,*,#611,.F.);
#611 = EDGE_CURVE('',#316,#603,#612,.T.);
#612 = LINE('',#613,#614);
#613 = CARTESIAN_POINT('',(10.448775476333,6.329675258115,
    1.723318233223E-14));
#614 = VECTOR('',#615,1.);
#615 = DIRECTION('',(0.,4.42044604925E-16,1.));
#616 = CYLINDRICAL_SURFACE('',#617,0.5);
#617 = AXIS2_PLACEMENT_3D('',#618,#619,#620);
#618 = CARTESIAN_POINT('',(10.024751428255,6.594634890232,
    1.711434947539E-14));
#619 = DIRECTION('',(0.,4.42044604925E-16,1.));
#620 = DIRECTION('',(0.848048096156,-0.529919264233,2.342479518001E-16)
  );
#621 = ADVANCED_FACE('',(#622),#641,.T.);
#622 = FACE_BOUND('',#623,.F.);
#623 = EDGE_LOOP('',(#624,#625,#626,#635));
#624 = ORIENTED_EDGE('',*,*,#66,.T.);
#625 = ORIENTED_EDGE('',*,*,#586,.T.);
#626 = ORIENTED_EDGE('',*,*,#627,.F.);
#627 = EDGE_CURVE('',#628,#578,#630,.T.);
#628 = VERTEX_POINT('',#629);
#629 = CARTESIAN_POINT('',(-8.540860694668,9.585073273419,4.));
#630 = CIRCLE('',#631,0.5);
#631 = AXIS2_PLACEMENT_3D('',#632,#633,#634);
#632 = CARTESIAN_POINT('',(-8.964884742746,9.850032905536,4.));
#633 = DIRECTION('',(-0.,-4.42044604925E-16,-1.));
#634 = DIRECTION('',(0.,-1.,4.42044604925E-16));
#635 = ORIENTED_EDGE('',*,*,#636,.F.);
#636 = EDGE_CURVE('',#67,#628,#637,.T.);
#637 = LINE('',#638,#639);
#638 = CARTESIAN_POINT('',(-8.540860694668,9.585073273419,
    1.578033876604E-14));
#639 = VECTOR('',#640,1.);
#640 = DIRECTION('',(0.,4.42044604925E-16,1.));
#641 = CYLINDRICAL_SURFACE('',#642,0.5);
#642 = AXIS2_PLACEMENT_3D('',#643,#644,#645);
#643 = CARTESIAN_POINT('',(-8.964884742746,9.850032905536,
    1.566150590921E-14));
#644 = DIRECTION('',(0.,4.42044604925E-16,1.));
#645 = DIRECTION('',(0.848048096156,-0.529919264233,2.342479518001E-16)
  );
#646 = ADVANCED_FACE('',(#647),#665,.F.);
#647 = FACE_BOUND('',#648,.F.);
#648 = EDGE_LOOP('',(#649,#650,#658,#664));
#649 = ORIENTED_EDGE('',*,*,#315,.F.);
#650 = ORIENTED_EDGE('',*,*,#651,.T.);
#651 = EDGE_CURVE('',#307,#652,#654,.T.);
#652 = VERTEX_POINT('',#653);
#653 = CARTESIAN_POINT('',(6.909139305332,0.665073273419,4.));
#654 = LINE('',#655,#656);
#655 = CARTESIAN_POINT('',(6.909139305332,0.665073273419,
    1.974097664197E-14));
#656 = VECTOR('',#657,1.);
#657 = DIRECTION('',(0.,4.42044604925E-16,1.));
#658 = ORIENTED_EDGE('',*,*,#659,.T.);
#659 = EDGE_CURVE('',#652,#603,#660,.T.);
#660 = LINE('',#661,#662);
#661 = CARTESIAN_POINT('',(6.682836762564,0.302913500218,4.));
#662 = VECTOR('',#663,1.);
#663 = DIRECTION('',(0.529919264233,0.848048096156,-1.883045044685E-16)
  );
#664 = ORIENTED_EDGE('',*,*,#611,.F.);
#665 = PLANE('',#666);
#666 = AXIS2_PLACEMENT_3D('',#667,#668,#669);
#667 = CARTESIAN_POINT('',(6.682836762564,0.302913500218,
    1.990139226573E-14));
#668 = DIRECTION('',(-0.848048096156,0.529919264233,-2.376657136688E-16)
  );
#669 = DIRECTION('',(0.529919264233,0.848048096156,-3.783045044685E-16)
  );
#670 = ADVANCED_FACE('',(#671),#689,.F.);
#671 = FACE_BOUND('',#672,.F.);
#672 = EDGE_LOOP('',(#673,#674,#675,#683));
#673 = ORIENTED_EDGE('',*,*,#75,.F.);
#674 = ORIENTED_EDGE('',*,*,#636,.T.);
#675 = ORIENTED_EDGE('',*,*,#676,.T.);
#676 = EDGE_CURVE('',#628,#677,#679,.T.);
#677 = VERTEX_POINT('',#678);
#678 = CARTESIAN_POINT('',(-5.001224523667,15.249675258115,4.));
#679 = LINE('',#680,#681);
#680 = CARTESIAN_POINT('',(-8.767163237436,9.222913500218,4.));
#681 = VECTOR('',#682,1.);
#682 = DIRECTION('',(0.529919264233,0.848048096156,-1.883045044685E-16)
  );
#683 = ORIENTED_EDGE('',*,*,#684,.F.);
#684 = EDGE_CURVE('',#76,#677,#685,.T.);
#685 = LINE('',#686,#687);
#686 = CARTESIAN_POINT('',(-5.001224523667,15.249675258115,
    1.327254445629E-14));
#687 = VECTOR('',#688,1.);
#688 = DIRECTION('',(0.,4.42044604925E-16,1.));
#689 = PLANE('',#690);
#690 = AXIS2_PLACEMENT_3D('',#691,#692,#693);
#691 = CARTESIAN_POINT('',(-8.767163237436,9.222913500218,
    1.59407543898E-14));
#692 = DIRECTION('',(-0.848048096156,0.529919264233,-2.376657136688E-16)
  );
#693 = DIRECTION('',(0.529919264233,0.848048096156,-3.783045044685E-16)
  );
#694 = ADVANCED_FACE('',(#695),#714,.T.);
#695 = FACE_BOUND('',#696,.F.);
#696 = EDGE_LOOP('',(#697,#698,#706,#713));
#697 = ORIENTED_EDGE('',*,*,#306,.T.);
#698 = ORIENTED_EDGE('',*,*,#699,.T.);
#699 = EDGE_CURVE('',#298,#700,#702,.T.);
#700 = VERTEX_POINT('',#701);
#701 = CARTESIAN_POINT('',(6.35235023583,0.447981612532,4.));
#702 = LINE('',#703,#704);
#703 = CARTESIAN_POINT('',(6.35235023583,0.447981612532,
    1.983918067405E-14));
#704 = VECTOR('',#705,1.);
#705 = DIRECTION('',(0.,4.42044604925E-16,1.));
#706 = ORIENTED_EDGE('',*,*,#707,.F.);
#707 = EDGE_CURVE('',#652,#700,#708,.T.);
#708 = CIRCLE('',#709,0.5);
#709 = AXIS2_PLACEMENT_3D('',#710,#711,#712);
#710 = CARTESIAN_POINT('',(6.485115257254,0.930032905536,4.));
#711 = DIRECTION('',(-0.,-4.42044604925E-16,-1.));
#712 = DIRECTION('',(0.,-1.,4.42044604925E-16));
#713 = ORIENTED_EDGE('',*,*,#651,.F.);
#714 = CYLINDRICAL_SURFACE('',#715,0.5);
#715 = AXIS2_PLACEMENT_3D('',#716,#717,#718);
#716 = CARTESIAN_POINT('',(6.485115257254,0.930032905536,
    1.962214378514E-14));
#717 = DIRECTION('',(0.,4.42044604925E-16,1.));
#718 = DIRECTION('',(0.848048096156,-0.529919264233,2.342479518001E-16)
  );
#719 = ADVANCED_FACE('',(#720),#739,.T.);
#720 = FACE_BOUND('',#721,.T.);
#721 = EDGE_LOOP('',(#722,#723,#731,#738));
#722 = ORIENTED_EDGE('',*,*,#83,.T.);
#723 = ORIENTED_EDGE('',*,*,#724,.T.);
#724 = EDGE_CURVE('',#84,#725,#727,.T.);
#725 = VERTEX_POINT('',#726);
#726 = CARTESIAN_POINT('',(-4.925248571745,15.514634890232,4.));
#727 = LINE('',#728,#729);
#728 = CARTESIAN_POINT('',(-4.925248571745,15.514634890232,
    1.315371159946E-14));
#729 = VECTOR('',#730,1.);
#730 = DIRECTION('',(0.,4.42044604925E-16,1.));
#731 = ORIENTED_EDGE('',*,*,#732,.F.);
#732 = EDGE_CURVE('',#677,#725,#733,.T.);
#733 = CIRCLE('',#734,0.5);
#734 = AXIS2_PLACEMENT_3D('',#735,#736,#737);
#735 = CARTESIAN_POINT('',(-5.425248571745,15.514634890232,4.));
#736 = DIRECTION('',(-0.,4.42044604925E-16,1.));
#737 = DIRECTION('',(0.,-1.,4.42044604925E-16));
#738 = ORIENTED_EDGE('',*,*,#684,.F.);
#739 = CYLINDRICAL_SURFACE('',#740,0.5);
#740 = AXIS2_PLACEMENT_3D('',#741,#742,#743);
#741 = CARTESIAN_POINT('',(-5.425248571745,15.514634890232,
    1.315371159946E-14));
#742 = DIRECTION('',(0.,4.42044604925E-16,1.));
#743 = DIRECTION('',(0.848048096156,-0.529919264233,2.342479518001E-16)
  );
#744 = ADVANCED_FACE('',(#745),#764,.F.);
#745 = FACE_BOUND('',#746,.F.);
#746 = EDGE_LOOP('',(#747,#748,#756,#763));
#747 = ORIENTED_EDGE('',*,*,#297,.F.);
#748 = ORIENTED_EDGE('',*,*,#749,.T.);
#749 = EDGE_CURVE('',#289,#750,#752,.T.);
#750 = VERTEX_POINT('',#751);
#751 = CARTESIAN_POINT('',(6.847052154615,-1.694807813647,4.));
#752 = LINE('',#753,#754);
#753 = CARTESIAN_POINT('',(6.847052154615,-1.694807813647,
    2.078497550562E-14));
#754 = VECTOR('',#755,1.);
#755 = DIRECTION('',(0.,4.42044604925E-16,1.));
#756 = ORIENTED_EDGE('',*,*,#757,.T.);
#757 = EDGE_CURVE('',#750,#700,#758,.T.);
#758 = CIRCLE('',#759,1.25);
#759 = AXIS2_PLACEMENT_3D('',#760,#761,#762);
#760 = CARTESIAN_POINT('',(6.020437682273,-0.757146619977,4.));
#761 = DIRECTION('',(0.,-2.22044604925E-16,-1.));
#762 = DIRECTION('',(1.,0.,0.));
#763 = ORIENTED_EDGE('',*,*,#699,.F.);
#764 = CYLINDRICAL_SURFACE('',#765,1.25);
#765 = AXIS2_PLACEMENT_3D('',#766,#767,#768);
#766 = CARTESIAN_POINT('',(6.020437682273,-0.757146619977,
    2.037677289632E-14));
#767 = DIRECTION('',(0.,-4.42044604925E-16,-1.));
#768 = DIRECTION('',(1.,0.,0.));
#769 = ADVANCED_FACE('',(#770),#788,.F.);
#770 = FACE_BOUND('',#771,.F.);
#771 = EDGE_LOOP('',(#772,#773,#774,#782));
#772 = ORIENTED_EDGE('',*,*,#92,.F.);
#773 = ORIENTED_EDGE('',*,*,#724,.T.);
#774 = ORIENTED_EDGE('',*,*,#775,.T.);
#775 = EDGE_CURVE('',#725,#776,#778,.T.);
#776 = VERTEX_POINT('',#777);
#777 = CARTESIAN_POINT('',(-4.925248571745,15.871262197352,4.));
#778 = LINE('',#779,#780);
#779 = CARTESIAN_POINT('',(-4.925248571745,15.371262197352,4.));
#780 = VECTOR('',#781,1.);
#781 = DIRECTION('',(0.,1.,-2.22044604925E-16));
#782 = ORIENTED_EDGE('',*,*,#783,.F.);
#783 = EDGE_CURVE('',#93,#776,#784,.T.);
#784 = LINE('',#785,#786);
#785 = CARTESIAN_POINT('',(-4.925248571745,15.871262197352,
    1.298452442994E-14));
#786 = VECTOR('',#787,1.);
#787 = DIRECTION('',(0.,4.42044604925E-16,1.));
#788 = PLANE('',#789);
#789 = AXIS2_PLACEMENT_3D('',#790,#791,#792);
#790 = CARTESIAN_POINT('',(-4.925248571745,15.371262197352,
    1.321554673241E-14));
#791 = DIRECTION('',(-1.,0.,0.));
#792 = DIRECTION('',(0.,1.,-4.42044604925E-16));
#793 = ADVANCED_FACE('',(#794),#813,.T.);
#794 = FACE_BOUND('',#795,.F.);
#795 = EDGE_LOOP('',(#796,#797,#805,#812));
#796 = ORIENTED_EDGE('',*,*,#288,.T.);
#797 = ORIENTED_EDGE('',*,*,#798,.T.);
#798 = EDGE_CURVE('',#281,#799,#801,.T.);
#799 = VERTEX_POINT('',#800);
#800 = CARTESIAN_POINT('',(7.442657575669,-1.645848243036,4.));
#801 = LINE('',#802,#803);
#802 = CARTESIAN_POINT('',(7.442657575669,-1.645848243036,
    2.076410429711E-14));
#803 = VECTOR('',#804,1.);
#804 = DIRECTION('',(0.,4.42044604925E-16,1.));
#805 = ORIENTED_EDGE('',*,*,#806,.F.);
#806 = EDGE_CURVE('',#750,#799,#807,.T.);
#807 = CIRCLE('',#808,0.5);
#808 = AXIS2_PLACEMENT_3D('',#809,#810,#811);
#809 = CARTESIAN_POINT('',(7.177697943552,-2.069872291115,4.));
#810 = DIRECTION('',(-0.,-4.42044604925E-16,-1.));
#811 = DIRECTION('',(0.,-1.,4.42044604925E-16));
#812 = ORIENTED_EDGE('',*,*,#749,.F.);
#813 = CYLINDRICAL_SURFACE('',#814,0.5);
#814 = AXIS2_PLACEMENT_3D('',#815,#816,#817);
#815 = CARTESIAN_POINT('',(7.177697943552,-2.069872291115,
    2.094825654934E-14));
#816 = DIRECTION('',(0.,4.42044604925E-16,1.));
#817 = DIRECTION('',(-0.661291577874,0.750128954936,-3.315904575273E-16)
  );
#818 = ADVANCED_FACE('',(#819),#838,.T.);
#819 = FACE_BOUND('',#820,.T.);
#820 = EDGE_LOOP('',(#821,#822,#830,#837));
#821 = ORIENTED_EDGE('',*,*,#100,.T.);
#822 = ORIENTED_EDGE('',*,*,#823,.T.);
#823 = EDGE_CURVE('',#101,#824,#826,.T.);
#824 = VERTEX_POINT('',#825);
#825 = CARTESIAN_POINT('',(-6.925248571745,17.871262197352,4.));
#826 = LINE('',#827,#828);
#827 = CARTESIAN_POINT('',(-6.925248571745,17.871262197352,
    1.210043522009E-14));
#828 = VECTOR('',#829,1.);
#829 = DIRECTION('',(0.,4.42044604925E-16,1.));
#830 = ORIENTED_EDGE('',*,*,#831,.F.);
#831 = EDGE_CURVE('',#776,#824,#832,.T.);
#832 = CIRCLE('',#833,2.);
#833 = AXIS2_PLACEMENT_3D('',#834,#835,#836);
#834 = CARTESIAN_POINT('',(-6.925248571745,15.871262197352,4.));
#835 = DIRECTION('',(-0.,4.42044604925E-16,1.));
#836 = DIRECTION('',(0.,-1.,4.42044604925E-16));
#837 = ORIENTED_EDGE('',*,*,#783,.F.);
#838 = CYLINDRICAL_SURFACE('',#839,2.);
#839 = AXIS2_PLACEMENT_3D('',#840,#841,#842);
#840 = CARTESIAN_POINT('',(-6.925248571745,15.871262197352,
    1.298452442994E-14));
#841 = DIRECTION('',(0.,4.42044604925E-16,1.));
#842 = DIRECTION('',(1.,0.,0.));
#843 = ADVANCED_FACE('',(#844),#862,.T.);
#844 = FACE_BOUND('',#845,.T.);
#845 = EDGE_LOOP('',(#846,#847,#848,#856));
#846 = ORIENTED_EDGE('',*,*,#280,.F.);
#847 = ORIENTED_EDGE('',*,*,#798,.T.);
#848 = ORIENTED_EDGE('',*,*,#849,.T.);
#849 = EDGE_CURVE('',#799,#850,#852,.T.);
#850 = VERTEX_POINT('',#851);
#851 = CARTESIAN_POINT('',(12.145758035562,-4.584671579374,4.));
#852 = LINE('',#853,#854);
#853 = CARTESIAN_POINT('',(7.080497802468,-1.419545700269,4.));
#854 = VECTOR('',#855,1.);
#855 = DIRECTION('',(0.848048096156,-0.529919264233,1.176657136688E-16)
  );
#856 = ORIENTED_EDGE('',*,*,#857,.F.);
#857 = EDGE_CURVE('',#272,#850,#858,.T.);
#858 = LINE('',#859,#860);
#859 = CARTESIAN_POINT('',(12.145758035562,-4.584671579374,
    2.207665416377E-14));
#860 = VECTOR('',#861,1.);
#861 = DIRECTION('',(0.,4.42044604925E-16,1.));
#862 = PLANE('',#863);
#863 = AXIS2_PLACEMENT_3D('',#864,#865,#866);
#864 = CARTESIAN_POINT('',(7.080497802468,-1.419545700269,
    2.066385503841E-14));
#865 = DIRECTION('',(0.529919264233,0.848048096156,-3.783045044685E-16)
  );
#866 = DIRECTION('',(0.848048096156,-0.529919264233,2.376657136688E-16)
  );
#867 = ADVANCED_FACE('',(#868),#886,.F.);
#868 = FACE_BOUND('',#869,.F.);
#869 = EDGE_LOOP('',(#870,#871,#872,#880));
#870 = ORIENTED_EDGE('',*,*,#109,.F.);
#871 = ORIENTED_EDGE('',*,*,#823,.T.);
#872 = ORIENTED_EDGE('',*,*,#873,.T.);
#873 = EDGE_CURVE('',#824,#874,#876,.T.);
#874 = VERTEX_POINT('',#875);
#875 = CARTESIAN_POINT('',(-12.,17.871262197352,4.));
#876 = LINE('',#877,#878);
#877 = CARTESIAN_POINT('',(-4.925248571745,17.871262197352,4.));
#878 = VECTOR('',#879,1.);
#879 = DIRECTION('',(-1.,0.,0.));
#880 = ORIENTED_EDGE('',*,*,#881,.F.);
#881 = EDGE_CURVE('',#110,#874,#882,.T.);
#882 = LINE('',#883,#884);
#883 = CARTESIAN_POINT('',(-12.,17.871262197352,1.210043522009E-14));
#884 = VECTOR('',#885,1.);
#885 = DIRECTION('',(0.,4.42044604925E-16,1.));
#886 = PLANE('',#887);
#887 = AXIS2_PLACEMENT_3D('',#888,#889,#890);
#888 = CARTESIAN_POINT('',(-4.925248571745,17.871262197352,
    1.210043522009E-14));
#889 = DIRECTION('',(0.,-1.,4.42044604925E-16));
#890 = DIRECTION('',(-1.,0.,0.));
#891 = ADVANCED_FACE('',(#892),#911,.T.);
#892 = FACE_BOUND('',#893,.T.);
#893 = EDGE_LOOP('',(#894,#895,#896,#905));
#894 = ORIENTED_EDGE('',*,*,#271,.T.);
#895 = ORIENTED_EDGE('',*,*,#857,.T.);
#896 = ORIENTED_EDGE('',*,*,#897,.F.);
#897 = EDGE_CURVE('',#898,#850,#900,.T.);
#898 = VERTEX_POINT('',#899);
#899 = CARTESIAN_POINT('',(12.380798403446,-5.008695627453,4.));
#900 = CIRCLE('',#901,0.5);
#901 = AXIS2_PLACEMENT_3D('',#902,#903,#904);
#902 = CARTESIAN_POINT('',(11.880798403446,-5.008695627453,4.));
#903 = DIRECTION('',(-0.,4.42044604925E-16,1.));
#904 = DIRECTION('',(0.,-1.,4.42044604925E-16));
#905 = ORIENTED_EDGE('',*,*,#906,.F.);
#906 = EDGE_CURVE('',#264,#898,#907,.T.);
#907 = LINE('',#908,#909);
#908 = CARTESIAN_POINT('',(12.380798403446,-5.008695627453,
    2.2260806416E-14));
#909 = VECTOR('',#910,1.);
#910 = DIRECTION('',(0.,4.42044604925E-16,1.));
#911 = CYLINDRICAL_SURFACE('',#912,0.5);
#912 = AXIS2_PLACEMENT_3D('',#913,#914,#915);
#913 = CARTESIAN_POINT('',(11.880798403446,-5.008695627453,
    2.2260806416E-14));
#914 = DIRECTION('',(0.,4.42044604925E-16,1.));
#915 = DIRECTION('',(1.,0.,0.));
#916 = ADVANCED_FACE('',(#917),#936,.T.);
#917 = FACE_BOUND('',#918,.T.);
#918 = EDGE_LOOP('',(#919,#920,#928,#935));
#919 = ORIENTED_EDGE('',*,*,#117,.T.);
#920 = ORIENTED_EDGE('',*,*,#921,.T.);
#921 = EDGE_CURVE('',#118,#922,#924,.T.);
#922 = VERTEX_POINT('',#923);
#923 = CARTESIAN_POINT('',(-14.,15.871262197352,4.));
#924 = LINE('',#925,#926);
#925 = CARTESIAN_POINT('',(-14.,15.871262197352,1.298452442994E-14));
#926 = VECTOR('',#927,1.);
#927 = DIRECTION('',(0.,4.42044604925E-16,1.));
#928 = ORIENTED_EDGE('',*,*,#929,.F.);
#929 = EDGE_CURVE('',#874,#922,#930,.T.);
#930 = CIRCLE('',#931,2.);
#931 = AXIS2_PLACEMENT_3D('',#932,#933,#934);
#932 = CARTESIAN_POINT('',(-12.,15.871262197352,4.));
#933 = DIRECTION('',(-0.,4.42044604925E-16,1.));
#934 = DIRECTION('',(0.,-1.,4.42044604925E-16));
#935 = ORIENTED_EDGE('',*,*,#881,.F.);
#936 = CYLINDRICAL_SURFACE('',#937,2.);
#937 = AXIS2_PLACEMENT_3D('',#938,#939,#940);
#938 = CARTESIAN_POINT('',(-12.,15.871262197352,1.298452442994E-14));
#939 = DIRECTION('',(0.,4.42044604925E-16,1.));
#940 = DIRECTION('',(0.,1.,-4.42044604925E-16));
#941 = ADVANCED_FACE('',(#942),#960,.T.);
#942 = FACE_BOUND('',#943,.T.);
#943 = EDGE_LOOP('',(#944,#945,#946,#954));
#944 = ORIENTED_EDGE('',*,*,#263,.F.);
#945 = ORIENTED_EDGE('',*,*,#906,.T.);
#946 = ORIENTED_EDGE('',*,*,#947,.T.);
#947 = EDGE_CURVE('',#898,#948,#950,.T.);
#948 = VERTEX_POINT('',#949);
#949 = CARTESIAN_POINT('',(12.380798403446,-5.231541101726,4.));
#950 = LINE('',#951,#952);
#951 = CARTESIAN_POINT('',(12.380798403446,-4.731541101726,4.));
#952 = VECTOR('',#953,1.);
#953 = DIRECTION('',(0.,-1.,2.22044604925E-16));
#954 = ORIENTED_EDGE('',*,*,#955,.F.);
#955 = EDGE_CURVE('',#255,#948,#956,.T.);
#956 = LINE('',#957,#958);
#957 = CARTESIAN_POINT('',(12.380798403446,-5.231541101726,
    2.23602880513E-14));
#958 = VECTOR('',#959,1.);
#959 = DIRECTION('',(0.,4.42044604925E-16,1.));
#960 = PLANE('',#961);
#961 = AXIS2_PLACEMENT_3D('',#962,#963,#964);
#962 = CARTESIAN_POINT('',(12.380798403446,-4.731541101726,
    2.213926574884E-14));
#963 = DIRECTION('',(1.,0.,0.));
#964 = DIRECTION('',(0.,-1.,4.42044604925E-16));
#965 = ADVANCED_FACE('',(#966),#984,.F.);
#966 = FACE_BOUND('',#967,.F.);
#967 = EDGE_LOOP('',(#968,#969,#970,#978));
#968 = ORIENTED_EDGE('',*,*,#126,.F.);
#969 = ORIENTED_EDGE('',*,*,#921,.T.);
#970 = ORIENTED_EDGE('',*,*,#971,.T.);
#971 = EDGE_CURVE('',#922,#972,#974,.T.);
#972 = VERTEX_POINT('',#973);
#973 = CARTESIAN_POINT('',(-14.,-14.15154110172,4.));
#974 = LINE('',#975,#976);
#975 = CARTESIAN_POINT('',(-14.,17.871262197352,4.));
#976 = VECTOR('',#977,1.);
#977 = DIRECTION('',(0.,-1.,2.22044604925E-16));
#978 = ORIENTED_EDGE('',*,*,#979,.F.);
#979 = EDGE_CURVE('',#127,#972,#980,.T.);
#980 = LINE('',#981,#982);
#981 = CARTESIAN_POINT('',(-14.,-14.15154110172,2.633092592723E-14));
#982 = VECTOR('',#983,1.);
#983 = DIRECTION('',(0.,4.42044604925E-16,1.));
#984 = PLANE('',#985);
#985 = AXIS2_PLACEMENT_3D('',#986,#987,#988);
#986 = CARTESIAN_POINT('',(-14.,17.871262197352,1.210043522009E-14));
#987 = DIRECTION('',(1.,0.,0.));
#988 = DIRECTION('',(0.,-1.,4.42044604925E-16));
#989 = ADVANCED_FACE('',(#990),#1009,.T.);
#990 = FACE_BOUND('',#991,.T.);
#991 = EDGE_LOOP('',(#992,#993,#994,#1003));
#992 = ORIENTED_EDGE('',*,*,#254,.T.);
#993 = ORIENTED_EDGE('',*,*,#955,.T.);
#994 = ORIENTED_EDGE('',*,*,#995,.F.);
#995 = EDGE_CURVE('',#996,#948,#998,.T.);
#996 = VERTEX_POINT('',#997);
#997 = CARTESIAN_POINT('',(10.380798403446,-7.231541101726,4.));
#998 = CIRCLE('',#999,2.);
#999 = AXIS2_PLACEMENT_3D('',#1000,#1001,#1002);
#1000 = CARTESIAN_POINT('',(10.380798403446,-5.231541101726,4.));
#1001 = DIRECTION('',(-0.,4.42044604925E-16,1.));
#1002 = DIRECTION('',(0.,-1.,4.42044604925E-16));
#1003 = ORIENTED_EDGE('',*,*,#1004,.F.);
#1004 = EDGE_CURVE('',#247,#996,#1005,.T.);
#1005 = LINE('',#1006,#1007);
#1006 = CARTESIAN_POINT('',(10.380798403446,-7.231541101726,
    2.324437726115E-14));
#1007 = VECTOR('',#1008,1.);
#1008 = DIRECTION('',(0.,4.42044604925E-16,1.));
#1009 = CYLINDRICAL_SURFACE('',#1010,2.);
#1010 = AXIS2_PLACEMENT_3D('',#1011,#1012,#1013);
#1011 = CARTESIAN_POINT('',(10.380798403446,-5.231541101726,
    2.23602880513E-14));
#1012 = DIRECTION('',(0.,4.42044604925E-16,1.));
#1013 = DIRECTION('',(0.,-1.,4.42044604925E-16));
#1014 = ADVANCED_FACE('',(#1015),#1034,.T.);
#1015 = FACE_BOUND('',#1016,.T.);
#1016 = EDGE_LOOP('',(#1017,#1018,#1026,#1033));
#1017 = ORIENTED_EDGE('',*,*,#134,.T.);
#1018 = ORIENTED_EDGE('',*,*,#1019,.T.);
#1019 = EDGE_CURVE('',#135,#1020,#1022,.T.);
#1020 = VERTEX_POINT('',#1021);
#1021 = CARTESIAN_POINT('',(-12.,-16.15154110172,4.));
#1022 = LINE('',#1023,#1024);
#1023 = CARTESIAN_POINT('',(-12.,-16.15154110172,2.721501513708E-14));
#1024 = VECTOR('',#1025,1.);
#1025 = DIRECTION('',(0.,4.42044604925E-16,1.));
#1026 = ORIENTED_EDGE('',*,*,#1027,.F.);
#1027 = EDGE_CURVE('',#972,#1020,#1028,.T.);
#1028 = CIRCLE('',#1029,2.);
#1029 = AXIS2_PLACEMENT_3D('',#1030,#1031,#1032);
#1030 = CARTESIAN_POINT('',(-12.,-14.15154110172,4.));
#1031 = DIRECTION('',(-0.,4.42044604925E-16,1.));
#1032 = DIRECTION('',(0.,-1.,4.42044604925E-16));
#1033 = ORIENTED_EDGE('',*,*,#979,.F.);
#1034 = CYLINDRICAL_SURFACE('',#1035,2.);
#1035 = AXIS2_PLACEMENT_3D('',#1036,#1037,#1038);
#1036 = CARTESIAN_POINT('',(-12.,-14.15154110172,2.633092592723E-14));
#1037 = DIRECTION('',(0.,4.42044604925E-16,1.));
#1038 = DIRECTION('',(-1.,0.,0.));
#1039 = ADVANCED_FACE('',(#1040),#1058,.T.);
#1040 = FACE_BOUND('',#1041,.T.);
#1041 = EDGE_LOOP('',(#1042,#1043,#1044,#1052));
#1042 = ORIENTED_EDGE('',*,*,#246,.F.);
#1043 = ORIENTED_EDGE('',*,*,#1004,.T.);
#1044 = ORIENTED_EDGE('',*,*,#1045,.T.);
#1045 = EDGE_CURVE('',#996,#1046,#1048,.T.);
#1046 = VERTEX_POINT('',#1047);
#1047 = CARTESIAN_POINT('',(6.572710625218,-7.231541101726,4.));
#1048 = LINE('',#1049,#1050);
#1049 = CARTESIAN_POINT('',(12.380798403446,-7.231541101726,4.));
#1050 = VECTOR('',#1051,1.);
#1051 = DIRECTION('',(-1.,0.,0.));
#1052 = ORIENTED_EDGE('',*,*,#1053,.F.);
#1053 = EDGE_CURVE('',#238,#1046,#1054,.T.);
#1054 = LINE('',#1055,#1056);
#1055 = CARTESIAN_POINT('',(6.572710625218,-7.231541101726,
    2.324437726115E-14));
#1056 = VECTOR('',#1057,1.);
#1057 = DIRECTION('',(0.,4.42044604925E-16,1.));
#1058 = PLANE('',#1059);
#1059 = AXIS2_PLACEMENT_3D('',#1060,#1061,#1062);
#1060 = CARTESIAN_POINT('',(12.380798403446,-7.231541101726,
    2.324437726115E-14));
#1061 = DIRECTION('',(0.,-1.,4.42044604925E-16));
#1062 = DIRECTION('',(-1.,0.,0.));
#1063 = ADVANCED_FACE('',(#1064),#1082,.T.);
#1064 = FACE_BOUND('',#1065,.T.);
#1065 = EDGE_LOOP('',(#1066,#1067,#1075,#1081));
#1066 = ORIENTED_EDGE('',*,*,#143,.F.);
#1067 = ORIENTED_EDGE('',*,*,#1068,.T.);
#1068 = EDGE_CURVE('',#144,#1069,#1071,.T.);
#1069 = VERTEX_POINT('',#1070);
#1070 = CARTESIAN_POINT('',(-5.069201596554,-16.15154110172,4.));
#1071 = LINE('',#1072,#1073);
#1072 = CARTESIAN_POINT('',(-5.069201596554,-16.15154110172,
    2.721501513708E-14));
#1073 = VECTOR('',#1074,1.);
#1074 = DIRECTION('',(0.,4.42044604925E-16,1.));
#1075 = ORIENTED_EDGE('',*,*,#1076,.T.);
#1076 = EDGE_CURVE('',#1069,#1020,#1077,.T.);
#1077 = LINE('',#1078,#1079);
#1078 = CARTESIAN_POINT('',(-3.069201596554,-16.15154110172,4.));
#1079 = VECTOR('',#1080,1.);
#1080 = DIRECTION('',(-1.,0.,0.));
#1081 = ORIENTED_EDGE('',*,*,#1019,.F.);
#1082 = PLANE('',#1083);
#1083 = AXIS2_PLACEMENT_3D('',#1084,#1085,#1086);
#1084 = CARTESIAN_POINT('',(-3.069201596554,-16.15154110172,
    2.721501513708E-14));
#1085 = DIRECTION('',(0.,-1.,4.42044604925E-16));
#1086 = DIRECTION('',(-1.,0.,0.));
#1087 = ADVANCED_FACE('',(#1088),#1107,.T.);
#1088 = FACE_BOUND('',#1089,.T.);
#1089 = EDGE_LOOP('',(#1090,#1091,#1092,#1101));
#1090 = ORIENTED_EDGE('',*,*,#237,.T.);
#1091 = ORIENTED_EDGE('',*,*,#1053,.T.);
#1092 = ORIENTED_EDGE('',*,*,#1093,.F.);
#1093 = EDGE_CURVE('',#1094,#1046,#1096,.T.);
#1094 = VERTEX_POINT('',#1095);
#1095 = CARTESIAN_POINT('',(5.512872096752,-6.927637294039,4.));
#1096 = CIRCLE('',#1097,2.);
#1097 = AXIS2_PLACEMENT_3D('',#1098,#1099,#1100);
#1098 = CARTESIAN_POINT('',(6.572710625218,-5.231541101726,4.));
#1099 = DIRECTION('',(-0.,4.42044604925E-16,1.));
#1100 = DIRECTION('',(0.,-1.,4.42044604925E-16));
#1101 = ORIENTED_EDGE('',*,*,#1102,.F.);
#1102 = EDGE_CURVE('',#230,#1094,#1103,.T.);
#1103 = LINE('',#1104,#1105);
#1104 = CARTESIAN_POINT('',(5.512872096752,-6.927637294039,
    2.310689706024E-14));
#1105 = VECTOR('',#1106,1.);
#1106 = DIRECTION('',(0.,4.42044604925E-16,1.));
#1107 = CYLINDRICAL_SURFACE('',#1108,2.);
#1108 = AXIS2_PLACEMENT_3D('',#1109,#1110,#1111);
#1109 = CARTESIAN_POINT('',(6.572710625218,-5.231541101726,
    2.23602880513E-14));
#1110 = DIRECTION('',(0.,4.42044604925E-16,1.));
#1111 = DIRECTION('',(-0.529919264233,-0.848048096156,3.748750856229E-16
    ));
#1112 = ADVANCED_FACE('',(#1113),#1132,.T.);
#1113 = FACE_BOUND('',#1114,.T.);
#1114 = EDGE_LOOP('',(#1115,#1116,#1124,#1131));
#1115 = ORIENTED_EDGE('',*,*,#151,.T.);
#1116 = ORIENTED_EDGE('',*,*,#1117,.T.);
#1117 = EDGE_CURVE('',#152,#1118,#1120,.T.);
#1118 = VERTEX_POINT('',#1119);
#1119 = CARTESIAN_POINT('',(-3.069201596554,-14.15154110172,4.));
#1120 = LINE('',#1121,#1122);
#1121 = CARTESIAN_POINT('',(-3.069201596554,-14.15154110172,
    2.633092592723E-14));
#1122 = VECTOR('',#1123,1.);
#1123 = DIRECTION('',(0.,4.42044604925E-16,1.));
#1124 = ORIENTED_EDGE('',*,*,#1125,.F.);
#1125 = EDGE_CURVE('',#1069,#1118,#1126,.T.);
#1126 = CIRCLE('',#1127,2.);
#1127 = AXIS2_PLACEMENT_3D('',#1128,#1129,#1130);
#1128 = CARTESIAN_POINT('',(-5.069201596554,-14.15154110172,4.));
#1129 = DIRECTION('',(-0.,4.42044604925E-16,1.));
#1130 = DIRECTION('',(0.,-1.,4.42044604925E-16));
#1131 = ORIENTED_EDGE('',*,*,#1068,.F.);
#1132 = CYLINDRICAL_SURFACE('',#1133,2.);
#1133 = AXIS2_PLACEMENT_3D('',#1134,#1135,#1136);
#1134 = CARTESIAN_POINT('',(-5.069201596554,-14.15154110172,
    2.633092592723E-14));
#1135 = DIRECTION('',(0.,4.42044604925E-16,1.));
#1136 = DIRECTION('',(0.,-1.,4.42044604925E-16));
#1137 = ADVANCED_FACE('',(#1138),#1156,.T.);
#1138 = FACE_BOUND('',#1139,.T.);
#1139 = EDGE_LOOP('',(#1140,#1141,#1142,#1150));
#1140 = ORIENTED_EDGE('',*,*,#229,.F.);
#1141 = ORIENTED_EDGE('',*,*,#1102,.T.);
#1142 = ORIENTED_EDGE('',*,*,#1143,.T.);
#1143 = EDGE_CURVE('',#1094,#1144,#1146,.T.);
#1144 = VERTEX_POINT('',#1145);
#1145 = CARTESIAN_POINT('',(-2.513805691063,-1.912012346782,4.));
#1146 = LINE('',#1147,#1148);
#1147 = CARTESIAN_POINT('',(5.999219853701,-7.231541101726,4.));
#1148 = VECTOR('',#1149,1.);
#1149 = DIRECTION('',(-0.848048096156,0.529919264233,-1.176657136688E-16
    ));
#1150 = ORIENTED_EDGE('',*,*,#1151,.F.);
#1151 = EDGE_CURVE('',#221,#1144,#1152,.T.);
#1152 = LINE('',#1153,#1154);
#1153 = CARTESIAN_POINT('',(-2.513805691063,-1.912012346782,
    2.088320460037E-14));
#1154 = VECTOR('',#1155,1.);
#1155 = DIRECTION('',(0.,4.42044604925E-16,1.));
#1156 = PLANE('',#1157);
#1157 = AXIS2_PLACEMENT_3D('',#1158,#1159,#1160);
#1158 = CARTESIAN_POINT('',(5.999219853701,-7.231541101726,
    2.324437726115E-14));
#1159 = DIRECTION('',(-0.529919264233,-0.848048096156,3.783045044685E-16
    ));
#1160 = DIRECTION('',(-0.848048096156,0.529919264233,-2.376657136688E-16
    ));
#1161 = ADVANCED_FACE('',(#1162),#1180,.T.);
#1162 = FACE_BOUND('',#1163,.T.);
#1163 = EDGE_LOOP('',(#1164,#1165,#1173,#1179));
#1164 = ORIENTED_EDGE('',*,*,#160,.F.);
#1165 = ORIENTED_EDGE('',*,*,#1166,.T.);
#1166 = EDGE_CURVE('',#161,#1167,#1169,.T.);
#1167 = VERTEX_POINT('',#1168);
#1168 = CARTESIAN_POINT('',(-3.069201596554,-13.92869562745,4.));
#1169 = LINE('',#1170,#1171);
#1170 = CARTESIAN_POINT('',(-3.069201596554,-13.92869562745,
    2.622144429194E-14));
#1171 = VECTOR('',#1172,1.);
#1172 = DIRECTION('',(0.,4.42044604925E-16,1.));
#1173 = ORIENTED_EDGE('',*,*,#1174,.T.);
#1174 = EDGE_CURVE('',#1167,#1118,#1175,.T.);
#1175 = LINE('',#1176,#1177);
#1176 = CARTESIAN_POINT('',(-3.069201596554,-13.65154110172,4.));
#1177 = VECTOR('',#1178,1.);
#1178 = DIRECTION('',(0.,-1.,2.22044604925E-16));
#1179 = ORIENTED_EDGE('',*,*,#1117,.F.);
#1180 = PLANE('',#1181);
#1181 = AXIS2_PLACEMENT_3D('',#1182,#1183,#1184);
#1182 = CARTESIAN_POINT('',(-3.069201596554,-13.65154110172,
    2.609990362477E-14));
#1183 = DIRECTION('',(1.,0.,0.));
#1184 = DIRECTION('',(0.,-1.,4.42044604925E-16));
#1185 = ADVANCED_FACE('',(#1186),#1205,.F.);
#1186 = FACE_BOUND('',#1187,.F.);
#1187 = EDGE_LOOP('',(#1188,#1196,#1203,#1204));
#1188 = ORIENTED_EDGE('',*,*,#1189,.T.);
#1189 = EDGE_CURVE('',#213,#1190,#1192,.T.);
#1190 = VERTEX_POINT('',#1191);
#1191 = CARTESIAN_POINT('',(-4.925248571745,-2.468737802648,4.));
#1192 = LINE('',#1193,#1194);
#1193 = CARTESIAN_POINT('',(-4.925248571745,-2.468737802648,
    2.113682248427E-14));
#1194 = VECTOR('',#1195,1.);
#1195 = DIRECTION('',(0.,4.42044604925E-16,1.));
#1196 = ORIENTED_EDGE('',*,*,#1197,.T.);
#1197 = EDGE_CURVE('',#1190,#1144,#1198,.T.);
#1198 = CIRCLE('',#1199,1.75);
#1199 = AXIS2_PLACEMENT_3D('',#1200,#1201,#1202);
#1200 = CARTESIAN_POINT('',(-3.441164403471,-3.396096515056,4.));
#1201 = DIRECTION('',(0.,-2.22044604925E-16,-1.));
#1202 = DIRECTION('',(1.,0.,0.));
#1203 = ORIENTED_EDGE('',*,*,#1151,.F.);
#1204 = ORIENTED_EDGE('',*,*,#220,.F.);
#1205 = CYLINDRICAL_SURFACE('',#1206,1.75);
#1206 = AXIS2_PLACEMENT_3D('',#1207,#1208,#1209);
#1207 = CARTESIAN_POINT('',(-3.441164403471,-3.396096515056,
    2.154273748319E-14));
#1208 = DIRECTION('',(0.,-4.42044604925E-16,-1.));
#1209 = DIRECTION('',(1.,0.,0.));
#1210 = ADVANCED_FACE('',(#1211),#1230,.T.);
#1211 = FACE_BOUND('',#1212,.T.);
#1212 = EDGE_LOOP('',(#1213,#1214,#1222,#1229));
#1213 = ORIENTED_EDGE('',*,*,#168,.T.);
#1214 = ORIENTED_EDGE('',*,*,#1215,.T.);
#1215 = EDGE_CURVE('',#169,#1216,#1218,.T.);
#1216 = VERTEX_POINT('',#1217);
#1217 = CARTESIAN_POINT('',(-3.304241964438,-13.50467157937,4.));
#1218 = LINE('',#1219,#1220);
#1219 = CARTESIAN_POINT('',(-3.304241964438,-13.50467157937,
    2.60372920397E-14));
#1220 = VECTOR('',#1221,1.);
#1221 = DIRECTION('',(0.,4.42044604925E-16,1.));
#1222 = ORIENTED_EDGE('',*,*,#1223,.F.);
#1223 = EDGE_CURVE('',#1167,#1216,#1224,.T.);
#1224 = CIRCLE('',#1225,0.5);
#1225 = AXIS2_PLACEMENT_3D('',#1226,#1227,#1228);
#1226 = CARTESIAN_POINT('',(-3.569201596554,-13.92869562745,4.));
#1227 = DIRECTION('',(-0.,4.42044604925E-16,1.));
#1228 = DIRECTION('',(0.,-1.,4.42044604925E-16));
#1229 = ORIENTED_EDGE('',*,*,#1166,.F.);
#1230 = CYLINDRICAL_SURFACE('',#1231,0.5);
#1231 = AXIS2_PLACEMENT_3D('',#1232,#1233,#1234);
#1232 = CARTESIAN_POINT('',(-3.569201596554,-13.92869562745,
    2.622144429194E-14));
#1233 = DIRECTION('',(0.,4.42044604925E-16,1.));
#1234 = DIRECTION('',(1.,0.,0.));
#1235 = ADVANCED_FACE('',(#1236),#1254,.F.);
#1236 = FACE_BOUND('',#1237,.F.);
#1237 = EDGE_LOOP('',(#1238,#1239,#1247,#1253));
#1238 = ORIENTED_EDGE('',*,*,#212,.F.);
#1239 = ORIENTED_EDGE('',*,*,#1240,.T.);
#1240 = EDGE_CURVE('',#204,#1241,#1243,.T.);
#1241 = VERTEX_POINT('',#1242);
#1242 = CARTESIAN_POINT('',(-8.540860694668,-8.254926726581,4.));
#1243 = LINE('',#1244,#1245);
#1244 = CARTESIAN_POINT('',(-8.540860694668,-8.254926726581,
    2.370161451791E-14));
#1245 = VECTOR('',#1246,1.);
#1246 = DIRECTION('',(0.,4.42044604925E-16,1.));
#1247 = ORIENTED_EDGE('',*,*,#1248,.T.);
#1248 = EDGE_CURVE('',#1241,#1190,#1249,.T.);
#1249 = LINE('',#1250,#1251);
#1250 = CARTESIAN_POINT('',(-8.767163237436,-8.617086499782,4.));
#1251 = VECTOR('',#1252,1.);
#1252 = DIRECTION('',(0.529919264233,0.848048096156,-1.883045044685E-16)
  );
#1253 = ORIENTED_EDGE('',*,*,#1189,.F.);
#1254 = PLANE('',#1255);
#1255 = AXIS2_PLACEMENT_3D('',#1256,#1257,#1258);
#1256 = CARTESIAN_POINT('',(-8.767163237436,-8.617086499782,
    2.386203014167E-14));
#1257 = DIRECTION('',(-0.848048096156,0.529919264233,-2.376657136688E-16
    ));
#1258 = DIRECTION('',(0.529919264233,0.848048096156,-3.783045044685E-16)
  );
#1259 = ADVANCED_FACE('',(#1260),#1278,.T.);
#1260 = FACE_BOUND('',#1261,.T.);
#1261 = EDGE_LOOP('',(#1262,#1263,#1271,#1277));
#1262 = ORIENTED_EDGE('',*,*,#177,.F.);
#1263 = ORIENTED_EDGE('',*,*,#1264,.T.);
#1264 = EDGE_CURVE('',#178,#1265,#1267,.T.);
#1265 = VERTEX_POINT('',#1266);
#1266 = CARTESIAN_POINT('',(-8.007342424331,-10.56584824303,4.));
#1267 = LINE('',#1268,#1269);
#1268 = CARTESIAN_POINT('',(-8.007342424331,-10.56584824303,
    2.472474217304E-14));
#1269 = VECTOR('',#1270,1.);
#1270 = DIRECTION('',(0.,4.42044604925E-16,1.));
#1271 = ORIENTED_EDGE('',*,*,#1272,.T.);
#1272 = EDGE_CURVE('',#1265,#1216,#1273,.T.);
#1273 = LINE('',#1274,#1275);
#1274 = CARTESIAN_POINT('',(-8.369502197532,-10.33954570026,4.));
#1275 = VECTOR('',#1276,1.);
#1276 = DIRECTION('',(0.848048096156,-0.529919264233,1.176657136688E-16)
  );
#1277 = ORIENTED_EDGE('',*,*,#1215,.F.);
#1278 = PLANE('',#1279);
#1279 = AXIS2_PLACEMENT_3D('',#1280,#1281,#1282);
#1280 = CARTESIAN_POINT('',(-8.369502197532,-10.33954570026,
    2.462449291434E-14));
#1281 = DIRECTION('',(0.529919264233,0.848048096156,-3.783045044685E-16)
  );
#1282 = DIRECTION('',(0.848048096156,-0.529919264233,2.376657136688E-16)
  );
#1283 = ADVANCED_FACE('',(#1284),#1303,.T.);
#1284 = FACE_BOUND('',#1285,.T.);
#1285 = EDGE_LOOP('',(#1286,#1287,#1288,#1297));
#1286 = ORIENTED_EDGE('',*,*,#203,.T.);
#1287 = ORIENTED_EDGE('',*,*,#1240,.T.);
#1288 = ORIENTED_EDGE('',*,*,#1289,.F.);
#1289 = EDGE_CURVE('',#1290,#1241,#1292,.T.);
#1290 = VERTEX_POINT('',#1291);
#1291 = CARTESIAN_POINT('',(-9.09764976417,-8.472018387468,4.));
#1292 = CIRCLE('',#1293,0.5);
#1293 = AXIS2_PLACEMENT_3D('',#1294,#1295,#1296);
#1294 = CARTESIAN_POINT('',(-8.964884742746,-7.989967094464,4.));
#1295 = DIRECTION('',(-0.,4.42044604925E-16,1.));
#1296 = DIRECTION('',(0.,-1.,4.42044604925E-16));
#1297 = ORIENTED_EDGE('',*,*,#1298,.F.);
#1298 = EDGE_CURVE('',#195,#1290,#1299,.T.);
#1299 = LINE('',#1300,#1301);
#1300 = CARTESIAN_POINT('',(-9.09764976417,-8.472018387468,
    2.379981854998E-14));
#1301 = VECTOR('',#1302,1.);
#1302 = DIRECTION('',(0.,4.42044604925E-16,1.));
#1303 = CYLINDRICAL_SURFACE('',#1304,0.5);
#1304 = AXIS2_PLACEMENT_3D('',#1305,#1306,#1307);
#1305 = CARTESIAN_POINT('',(-8.964884742746,-7.989967094464,
    2.358278166107E-14));
#1306 = DIRECTION('',(0.,4.42044604925E-16,1.));
#1307 = DIRECTION('',(-0.265530042846,-0.964102586007,4.261763467388E-16
    ));
#1308 = ADVANCED_FACE('',(#1309),#1328,.T.);
#1309 = FACE_BOUND('',#1310,.T.);
#1310 = EDGE_LOOP('',(#1311,#1312,#1320,#1327));
#1311 = ORIENTED_EDGE('',*,*,#185,.T.);
#1312 = ORIENTED_EDGE('',*,*,#1313,.T.);
#1313 = EDGE_CURVE('',#186,#1314,#1316,.T.);
#1314 = VERTEX_POINT('',#1315);
#1315 = CARTESIAN_POINT('',(-8.602947845385,-10.61480781364,4.));
#1316 = LINE('',#1317,#1318);
#1317 = CARTESIAN_POINT('',(-8.602947845385,-10.61480781364,
    2.474561338155E-14));
#1318 = VECTOR('',#1319,1.);
#1319 = DIRECTION('',(0.,4.42044604925E-16,1.));
#1320 = ORIENTED_EDGE('',*,*,#1321,.F.);
#1321 = EDGE_CURVE('',#1265,#1314,#1322,.T.);
#1322 = CIRCLE('',#1323,0.5);
#1323 = AXIS2_PLACEMENT_3D('',#1324,#1325,#1326);
#1324 = CARTESIAN_POINT('',(-8.272302056448,-10.98987229111,4.));
#1325 = DIRECTION('',(-0.,4.42044604925E-16,1.));
#1326 = DIRECTION('',(0.,-1.,4.42044604925E-16));
#1327 = ORIENTED_EDGE('',*,*,#1264,.F.);
#1328 = CYLINDRICAL_SURFACE('',#1329,0.5);
#1329 = AXIS2_PLACEMENT_3D('',#1330,#1331,#1332);
#1330 = CARTESIAN_POINT('',(-8.272302056448,-10.98987229111,
    2.490889442527E-14));
#1331 = DIRECTION('',(0.,4.42044604925E-16,1.));
#1332 = DIRECTION('',(0.529919264233,0.848048096156,-3.748750856229E-16)
  );
#1333 = ADVANCED_FACE('',(#1334),#1346,.F.);
#1334 = FACE_BOUND('',#1335,.F.);
#1335 = EDGE_LOOP('',(#1336,#1337,#1338,#1345));
#1336 = ORIENTED_EDGE('',*,*,#194,.F.);
#1337 = ORIENTED_EDGE('',*,*,#1313,.T.);
#1338 = ORIENTED_EDGE('',*,*,#1339,.T.);
#1339 = EDGE_CURVE('',#1314,#1290,#1340,.T.);
#1340 = CIRCLE('',#1341,1.25);
#1341 = AXIS2_PLACEMENT_3D('',#1342,#1343,#1344);
#1342 = CARTESIAN_POINT('',(-9.429562317727,-9.677146619977,4.));
#1343 = DIRECTION('',(0.,-2.22044604925E-16,-1.));
#1344 = DIRECTION('',(1.,0.,0.));
#1345 = ORIENTED_EDGE('',*,*,#1298,.F.);
#1346 = CYLINDRICAL_SURFACE('',#1347,1.25);
#1347 = AXIS2_PLACEMENT_3D('',#1348,#1349,#1350);
#1348 = CARTESIAN_POINT('',(-9.429562317727,-9.677146619977,
    2.433741077225E-14));
#1349 = DIRECTION('',(0.,-4.42044604925E-16,-1.));
#1350 = DIRECTION('',(1.,0.,0.));
#1351 = ADVANCED_FACE('',(#1352),#1394,.T.);
#1352 = FACE_BOUND('',#1353,.T.);
#1353 = EDGE_LOOP('',(#1354,#1355,#1356,#1357,#1358,#1359,#1360,#1361,
    #1362,#1363,#1364,#1365,#1366,#1367,#1368,#1369,#1370,#1371,#1372,
    #1373,#1374,#1375,#1376,#1377,#1378,#1379,#1380,#1381,#1382,#1383,
    #1384,#1385,#1386,#1387,#1388,#1389,#1390,#1391,#1392,#1393));
#1354 = ORIENTED_EDGE('',*,*,#381,.T.);
#1355 = ORIENTED_EDGE('',*,*,#429,.T.);
#1356 = ORIENTED_EDGE('',*,*,#486,.F.);
#1357 = ORIENTED_EDGE('',*,*,#528,.F.);
#1358 = ORIENTED_EDGE('',*,*,#577,.T.);
#1359 = ORIENTED_EDGE('',*,*,#627,.F.);
#1360 = ORIENTED_EDGE('',*,*,#676,.T.);
#1361 = ORIENTED_EDGE('',*,*,#732,.T.);
#1362 = ORIENTED_EDGE('',*,*,#775,.T.);
#1363 = ORIENTED_EDGE('',*,*,#831,.T.);
#1364 = ORIENTED_EDGE('',*,*,#873,.T.);
#1365 = ORIENTED_EDGE('',*,*,#929,.T.);
#1366 = ORIENTED_EDGE('',*,*,#971,.T.);
#1367 = ORIENTED_EDGE('',*,*,#1027,.T.);
#1368 = ORIENTED_EDGE('',*,*,#1076,.F.);
#1369 = ORIENTED_EDGE('',*,*,#1125,.T.);
#1370 = ORIENTED_EDGE('',*,*,#1174,.F.);
#1371 = ORIENTED_EDGE('',*,*,#1223,.T.);
#1372 = ORIENTED_EDGE('',*,*,#1272,.F.);
#1373 = ORIENTED_EDGE('',*,*,#1321,.T.);
#1374 = ORIENTED_EDGE('',*,*,#1339,.T.);
#1375 = ORIENTED_EDGE('',*,*,#1289,.T.);
#1376 = ORIENTED_EDGE('',*,*,#1248,.T.);
#1377 = ORIENTED_EDGE('',*,*,#1197,.T.);
#1378 = ORIENTED_EDGE('',*,*,#1143,.F.);
#1379 = ORIENTED_EDGE('',*,*,#1093,.T.);
#1380 = ORIENTED_EDGE('',*,*,#1045,.F.);
#1381 = ORIENTED_EDGE('',*,*,#995,.T.);
#1382 = ORIENTED_EDGE('',*,*,#947,.F.);
#1383 = ORIENTED_EDGE('',*,*,#897,.T.);
#1384 = ORIENTED_EDGE('',*,*,#849,.F.);
#1385 = ORIENTED_EDGE('',*,*,#806,.F.);
#1386 = ORIENTED_EDGE('',*,*,#757,.T.);
#1387 = ORIENTED_EDGE('',*,*,#707,.F.);
#1388 = ORIENTED_EDGE('',*,*,#659,.T.);
#1389 = ORIENTED_EDGE('',*,*,#602,.T.);
#1390 = ORIENTED_EDGE('',*,*,#560,.T.);
#1391 = ORIENTED_EDGE('',*,*,#510,.F.);
#1392 = ORIENTED_EDGE('',*,*,#462,.T.);
#1393 = ORIENTED_EDGE('',*,*,#412,.F.);
#1394 = PLANE('',#1395);
#1395 = AXIS2_PLACEMENT_3D('',#1396,#1397,#1398);
#1396 = CARTESIAN_POINT('',(-3.984134359848,0.326347917179,4.));
#1397 = DIRECTION('',(0.,2.22044604925E-16,1.));
#1398 = DIRECTION('',(0.,-1.,2.22044604925E-16));
#1399 = ( GEOMETRIC_REPRESENTATION_CONTEXT(3) 
GLOBAL_UNCERTAINTY_ASSIGNED_CONTEXT((#1403)) 
GLOBAL_UNIT_ASSIGNED_CONTEXT((#1400,#1401,#1402)) REPRESENTATION_CONTEXT
('Context #1','3D Context with UNIT and UNCERTAINTY') );
#1400 = ( LENGTH_UNIT() NAMED_UNIT(*) SI_UNIT(.MILLI.,.METRE.) );
#1401 = ( NAMED_UNIT(*) PLANE_ANGLE_UNIT() SI_UNIT($,.RADIAN.) );
#1402 = ( NAMED_UNIT(*) SI_UNIT($,.STERADIAN.) SOLID_ANGLE_UNIT() );
#1403 = UNCERTAINTY_MEASURE_WITH_UNIT(LENGTH_MEASURE(1.E-07),#1400,
  'distance_accuracy_value','confusion accuracy');
#1404 = PRODUCT_RELATED_PRODUCT_CATEGORY('part',$,(#7));
#1405 = MECHANICAL_DESIGN_GEOMETRIC_PRESENTATION_REPRESENTATION('',(
    #1406),#1399);
#1406 = STYLED_ITEM('color',(#1407),#15);
#1407 = PRESENTATION_STYLE_ASSIGNMENT((#1408,#1414));
#1408 = SURFACE_STYLE_USAGE(.BOTH.,#1409);
#1409 = SURFACE_SIDE_STYLE('',(#1410));
#1410 = SURFACE_STYLE_FILL_AREA(#1411);
#1411 = FILL_AREA_STYLE('',(#1412));
#1412 = FILL_AREA_STYLE_COLOUR('',#1413);
#1413 = COLOUR_RGB('',0.701960807317,0.666666687201,0.611764719091);
#1414 = CURVE_STYLE('',#1415,POSITIVE_LENGTH_MEASURE(0.1),#1416);
#1415 = DRAUGHTING_PRE_DEFINED_CURVE_FONT('continuous');
#1416 = COLOUR_RGB('',9.803921802644E-02,9.803921802644E-02,
  9.803921802644E-02);
ENDSEC;
END-ISO-10303-21;
