ISO-10303-21;
HEADER;
FILE_DESCRIPTION (( 'STEP AP203' ),
    '1' );
FILE_NAME ('Discs2_D21SH.step',
    '2009-08-11T17:48:59',
    ( 'Joe' ),
    ( 'KJM' ),
    'SwSTEP 2.0',
    'SolidWorks 2007',
    '' );
FILE_SCHEMA (( 'CONFIG_CONTROL_DESIGN' ));
ENDSEC;

DATA;
#1 = ADVANCED_BREP_SHAPE_REPRESENTATION ( 'Discs2_D21SH', ( #75, #41 ), #178 ) ;
#2 = APPLICATION_CONTEXT ( 'configuration controlled 3d designs of mechanical parts and assemblies' ) ;
#3 = MECHANICAL_CONTEXT ( 'NONE', #2, 'mechanical' ) ;
#4 = APPLICATION_PROTOCOL_DEFINITION ( 'international standard', 'config_control_design', 1994, #2 ) ;
#5 = APPLICATION_PROTOCOL_DEFINITION ( 'international standard', 'config_control_design', 1994, #35 ) ;
#6 = APPROVAL_ROLE ( '' ) ;
#7 = DATE_AND_TIME ( #18, #17 ) ;
#8 = APPROVAL_DATE_TIME ( #7, #13 ) ;
#9 = DESIGN_CONTEXT ( 'detailed design', #35, 'design' ) ;
#10 = APPROVAL_STATUS ( 'not_yet_approved' ) ;
#11 = PRODUCT_DEFINITION ( 'UNKNOWN', '', #146, #9 ) ;
#12 = PERSON_AND_ORGANIZATION ( #42, #39 ) ;
#13 = APPROVAL ( #10, 'UNSPECIFIED' ) ;
#14 = PERSON_AND_ORGANIZATION_ROLE ( 'creator' ) ;
#15 = COORDINATED_UNIVERSAL_TIME_OFFSET ( 5, 0, .BEHIND. ) ;
#16 = APPROVAL_PERSON_ORGANIZATION ( #12, #13, #6 ) ;
#17 = LOCAL_TIME ( 13, 48, 59.00000000000000000, #15 ) ;
#18 = CALENDAR_DATE ( 2009, 11, 8 ) ;
#19 = UNCERTAINTY_MEASURE_WITH_UNIT (LENGTH_MEASURE( 1.000000000000000100E-005 ), #22, 'distance_accuracy_value', 'NONE');
#20 =( NAMED_UNIT ( * ) SI_UNIT ( $, .STERADIAN. ) SOLID_ANGLE_UNIT ( ) );
#21 =( NAMED_UNIT ( * ) PLANE_ANGLE_UNIT ( ) SI_UNIT ( $, .RADIAN. ) );
#22 =( CONVERSION_BASED_UNIT ( 'INCH', #23 ) LENGTH_UNIT ( ) NAMED_UNIT ( #24 ) );
#23 = LENGTH_MEASURE_WITH_UNIT ( LENGTH_MEASURE( 0.02539999999999999900 ), #25 );
#24 = DIMENSIONAL_EXPONENTS ( 1.000000000000000000, 0.0000000000000000000, 0.0000000000000000000, 0.0000000000000000000, 0.0000000000000000000, 0.0000000000000000000, 0.0000000000000000000 ) ;
#25 =( LENGTH_UNIT ( ) NAMED_UNIT ( * ) SI_UNIT ( $, .METRE. ) );
#26 = CARTESIAN_POINT ( 'NONE',  ( 0.0000000000000000000, 0.03125000000000000000, -0.06250000000000000000 ) ) ;
#27 = CARTESIAN_POINT ( 'NONE',  ( 7.654042494670957500E-018, 0.03125000000000000000, 0.06250000000000000000 ) ) ;
#28 = CARTESIAN_POINT ( 'NONE',  ( 7.654042494670957500E-018, -0.03125000000000000000, 0.06250000000000000000 ) ) ;
#29 = VECTOR ( 'NONE', #30, 39.37007874015748100 ) ;
#30 = DIRECTION ( 'NONE',  ( 0.0000000000000000000, -1.000000000000000000, 0.0000000000000000000 ) ) ;
#31 = CARTESIAN_POINT ( 'NONE',  ( 7.654042494670957500E-018, 0.03125000000000000000, 0.06250000000000000000 ) ) ;
#32 = LINE ( 'NONE', #31, #29 ) ;
#33 = CARTESIAN_POINT ( 'NONE',  ( 0.0000000000000000000, 0.0000000000000000000, 0.0000000000000000000 ) ) ;
#34 = DIRECTION ( 'NONE',  ( 0.0000000000000000000, 0.0000000000000000000, 1.000000000000000000 ) ) ;
#35 = APPLICATION_CONTEXT ( 'configuration controlled 3d designs of mechanical parts and assemblies' ) ;
#36 = CC_DESIGN_PERSON_AND_ORGANIZATION_ASSIGNMENT ( #38, #37, ( #40 ) ) ;
#37 = PERSON_AND_ORGANIZATION_ROLE ( 'design_owner' ) ;
#38 = PERSON_AND_ORGANIZATION ( #42, #39 ) ;
#39 = ORGANIZATION ( 'UNSPECIFIED', 'UNSPECIFIED', '' ) ;
#40 = PRODUCT ( 'Discs2_D21SH', 'Discs2_D21SH', '', ( #3 ) ) ;
#41 = AXIS2_PLACEMENT_3D ( 'NONE', #33, #34, #43 ) ;
#42 = PERSON ( 'UNSPECIFIED', 'UNSPECIFIED', 'UNSPECIFIED', ('UNSPECIFIED'), ('UNSPECIFIED'), ('UNSPECIFIED') ) ;
#43 = DIRECTION ( 'NONE',  ( 1.000000000000000000, 0.0000000000000000000, 0.0000000000000000000 ) ) ;
#44 = EDGE_CURVE ( 'NONE', #84, #45, #64, .T. ) ;
#45 = VERTEX_POINT ( 'NONE', #59 ) ;
#46 = ORIENTED_EDGE ( 'NONE', *, *, #47, .F. ) ;
#47 = EDGE_CURVE ( 'NONE', #81, #45, #58, .T. ) ;
#48 = ADVANCED_FACE ( 'NONE', ( #108 ), #107, .T. ) ;
#49 = EDGE_LOOP ( 'NONE', ( #50, #51, #53, #54 ) ) ;
#50 = ORIENTED_EDGE ( 'NONE', *, *, #83, .F. ) ;
#51 = ORIENTED_EDGE ( 'NONE', *, *, #52, .F. ) ;
#52 = EDGE_CURVE ( 'NONE', #81, #80, #102, .T. ) ;
#53 = ORIENTED_EDGE ( 'NONE', *, *, #47, .T. ) ;
#54 = ORIENTED_EDGE ( 'NONE', *, *, #65, .T. ) ;
#55 = PERSON_AND_ORGANIZATION ( #42, #39 ) ;
#56 = CC_DESIGN_APPROVAL ( #13, ( #11 ) ) ;
#57 = CARTESIAN_POINT ( 'NONE',  ( 0.0000000000000000000, 0.03125000000000000000, -0.06250000000000000000 ) ) ;
#58 = LINE ( 'NONE', #57, #110 ) ;
#59 = CARTESIAN_POINT ( 'NONE',  ( 0.0000000000000000000, -0.03125000000000000000, -0.06250000000000000000 ) ) ;
#60 = DIRECTION ( 'NONE',  ( 0.0000000000000000000, 0.0000000000000000000, 1.000000000000000000 ) ) ;
#61 = DIRECTION ( 'NONE',  ( 0.0000000000000000000, 1.000000000000000000, 0.0000000000000000000 ) ) ;
#62 = CARTESIAN_POINT ( 'NONE',  ( 0.0000000000000000000, -0.03125000000000000000, 0.0000000000000000000 ) ) ;
#63 = AXIS2_PLACEMENT_3D ( 'NONE', #62, #61, #60 ) ;
#64 = CIRCLE ( 'NONE', #63, 0.06250000000000000000 ) ;
#65 = EDGE_CURVE ( 'NONE', #45, #84, #97, .T. ) ;
#66 = ADVANCED_FACE ( 'NONE', ( #92 ), #91, .T. ) ;
#67 = EDGE_LOOP ( 'NONE', ( #68, #69 ) ) ;
#68 = ORIENTED_EDGE ( 'NONE', *, *, #52, .T. ) ;
#69 = ORIENTED_EDGE ( 'NONE', *, *, #79, .T. ) ;
#70 = ADVANCED_FACE ( 'NONE', ( #86 ), #177, .F. ) ;
#71 = EDGE_LOOP ( 'NONE', ( #72, #73 ) ) ;
#72 = ORIENTED_EDGE ( 'NONE', *, *, #65, .F. ) ;
#73 = ORIENTED_EDGE ( 'NONE', *, *, #44, .F. ) ;
#74 = CLOSED_SHELL ( 'NONE', ( #76, #48, #66, #70 ) ) ;
#75 = MANIFOLD_SOLID_BREP ( 'NONE', #74 ) ;
#76 = ADVANCED_FACE ( 'NONE', ( #166 ), #171, .T. ) ;
#77 = EDGE_LOOP ( 'NONE', ( #78, #82, #85, #46 ) ) ;
#78 = ORIENTED_EDGE ( 'NONE', *, *, #79, .F. ) ;
#79 = EDGE_CURVE ( 'NONE', #80, #81, #167, .T. ) ;
#80 = VERTEX_POINT ( 'NONE', #27 ) ;
#81 = VERTEX_POINT ( 'NONE', #26 ) ;
#82 = ORIENTED_EDGE ( 'NONE', *, *, #83, .T. ) ;
#83 = EDGE_CURVE ( 'NONE', #80, #84, #32, .T. ) ;
#84 = VERTEX_POINT ( 'NONE', #28 ) ;
#85 = ORIENTED_EDGE ( 'NONE', *, *, #44, .T. ) ;
#86 = FACE_OUTER_BOUND ( 'NONE', #71, .T. ) ;
#87 = DIRECTION ( 'NONE',  ( 0.0000000000000000000, 0.0000000000000000000, 1.000000000000000000 ) ) ;
#88 = DIRECTION ( 'NONE',  ( 0.0000000000000000000, 1.000000000000000000, 0.0000000000000000000 ) ) ;
#89 = CARTESIAN_POINT ( 'NONE',  ( 0.0000000000000000000, 0.03125000000000000000, 0.0000000000000000000 ) ) ;
#90 = AXIS2_PLACEMENT_3D ( 'NONE', #89, #88, #87 ) ;
#91 = PLANE ( 'NONE',  #90 ) ;
#92 = FACE_OUTER_BOUND ( 'NONE', #67, .T. ) ;
#93 = DIRECTION ( 'NONE',  ( 0.0000000000000000000, 0.0000000000000000000, 1.000000000000000000 ) ) ;
#94 = DIRECTION ( 'NONE',  ( 0.0000000000000000000, 1.000000000000000000, 0.0000000000000000000 ) ) ;
#95 = CARTESIAN_POINT ( 'NONE',  ( 0.0000000000000000000, -0.03125000000000000000, 0.0000000000000000000 ) ) ;
#96 = AXIS2_PLACEMENT_3D ( 'NONE', #95, #94, #93 ) ;
#97 = CIRCLE ( 'NONE', #96, 0.06250000000000000000 ) ;
#98 = DIRECTION ( 'NONE',  ( 0.0000000000000000000, 0.0000000000000000000, 1.000000000000000000 ) ) ;
#99 = DIRECTION ( 'NONE',  ( 0.0000000000000000000, 1.000000000000000000, 0.0000000000000000000 ) ) ;
#100 = CARTESIAN_POINT ( 'NONE',  ( 0.0000000000000000000, 0.03125000000000000000, 0.0000000000000000000 ) ) ;
#101 = AXIS2_PLACEMENT_3D ( 'NONE', #100, #99, #98 ) ;
#102 = CIRCLE ( 'NONE', #101, 0.06250000000000000000 ) ;
#103 = DIRECTION ( 'NONE',  ( 0.0000000000000000000, 0.0000000000000000000, -1.000000000000000000 ) ) ;
#104 = DIRECTION ( 'NONE',  ( 0.0000000000000000000, -1.000000000000000000, 0.0000000000000000000 ) ) ;
#105 = CARTESIAN_POINT ( 'NONE',  ( 0.0000000000000000000, 0.03125000000000000000, 0.0000000000000000000 ) ) ;
#106 = AXIS2_PLACEMENT_3D ( 'NONE', #105, #104, #103 ) ;
#107 = CYLINDRICAL_SURFACE ( 'NONE', #106, 0.06250000000000000000 ) ;
#108 = FACE_OUTER_BOUND ( 'NONE', #49, .T. ) ;
#109 = DIRECTION ( 'NONE',  ( 0.0000000000000000000, -1.000000000000000000, 0.0000000000000000000 ) ) ;
#110 = VECTOR ( 'NONE', #109, 39.37007874015748100 ) ;
#111 = CC_DESIGN_PERSON_AND_ORGANIZATION_ASSIGNMENT ( #113, #112, ( #146 ) ) ;
#112 = PERSON_AND_ORGANIZATION_ROLE ( 'design_supplier' ) ;
#113 = PERSON_AND_ORGANIZATION ( #42, #39 ) ;
#114 = CC_DESIGN_PERSON_AND_ORGANIZATION_ASSIGNMENT ( #141, #140, ( #146 ) ) ;
#115 = DATE_AND_TIME ( #116, #138 ) ;
#116 = CALENDAR_DATE ( 2009, 11, 8 ) ;
#117 = COORDINATED_UNIVERSAL_TIME_OFFSET ( 5, 0, .BEHIND. ) ;
#118 = APPROVAL_PERSON_ORGANIZATION ( #145, #120, #119 ) ;
#119 = APPROVAL_ROLE ( '' ) ;
#120 = APPROVAL ( #144, 'UNSPECIFIED' ) ;
#121 = CC_DESIGN_APPROVAL ( #120, ( #146 ) ) ;
#122 = APPROVAL_DATE_TIME ( #123, #120 ) ;
#123 = DATE_AND_TIME ( #124, #125 ) ;
#124 = CALENDAR_DATE ( 2009, 11, 8 ) ;
#125 = LOCAL_TIME ( 13, 48, 59.00000000000000000, #117 ) ;
#126 = APPROVAL_DATE_TIME ( #127, #133 ) ;
#127 = DATE_AND_TIME ( #128, #129 ) ;
#128 = CALENDAR_DATE ( 2009, 11, 8 ) ;
#129 = LOCAL_TIME ( 13, 48, 59.00000000000000000, #130 ) ;
#130 = COORDINATED_UNIVERSAL_TIME_OFFSET ( 5, 0, .BEHIND. ) ;
#131 = APPROVAL_PERSON_ORGANIZATION ( #135, #133, #132 ) ;
#132 = APPROVAL_ROLE ( '' ) ;
#133 = APPROVAL ( #134, 'UNSPECIFIED' ) ;
#134 = APPROVAL_STATUS ( 'not_yet_approved' ) ;
#135 = PERSON_AND_ORGANIZATION ( #42, #39 ) ;
#136 = CC_DESIGN_DATE_AND_TIME_ASSIGNMENT ( #153, #137, ( #160 ) ) ;
#137 = DATE_TIME_ROLE ( 'classification_date' ) ;
#138 = LOCAL_TIME ( 13, 48, 59.00000000000000000, #139 ) ;
#139 = COORDINATED_UNIVERSAL_TIME_OFFSET ( 5, 0, .BEHIND. ) ;
#140 = PERSON_AND_ORGANIZATION_ROLE ( 'creator' ) ;
#141 = PERSON_AND_ORGANIZATION ( #42, #39 ) ;
#142 = CC_DESIGN_DATE_AND_TIME_ASSIGNMENT ( #115, #143, ( #11 ) ) ;
#143 = DATE_TIME_ROLE ( 'creation_date' ) ;
#144 = APPROVAL_STATUS ( 'not_yet_approved' ) ;
#145 = PERSON_AND_ORGANIZATION ( #42, #39 ) ;
#146 = PRODUCT_DEFINITION_FORMATION_WITH_SPECIFIED_SOURCE ( 'ANY', '', #40, .NOT_KNOWN. ) ;
#147 = CC_DESIGN_PERSON_AND_ORGANIZATION_ASSIGNMENT ( #55, #14, ( #11 ) ) ;
#148 = SHAPE_DEFINITION_REPRESENTATION ( #149, #1 ) ;
#149 = PRODUCT_DEFINITION_SHAPE ( 'NONE', 'NONE',  #11 ) ;
#150 = PRODUCT_RELATED_PRODUCT_CATEGORY ( 'detail', '', ( #40 ) ) ;
#151 = CC_DESIGN_SECURITY_CLASSIFICATION ( #160, ( #146 ) ) ;
#152 = CC_DESIGN_APPROVAL ( #133, ( #160 ) ) ;
#153 = DATE_AND_TIME ( #154, #155 ) ;
#154 = CALENDAR_DATE ( 2009, 11, 8 ) ;
#155 = LOCAL_TIME ( 13, 48, 59.00000000000000000, #156 ) ;
#156 = COORDINATED_UNIVERSAL_TIME_OFFSET ( 5, 0, .BEHIND. ) ;
#157 = CC_DESIGN_PERSON_AND_ORGANIZATION_ASSIGNMENT ( #159, #158, ( #160 ) ) ;
#158 = PERSON_AND_ORGANIZATION_ROLE ( 'classification_officer' ) ;
#159 = PERSON_AND_ORGANIZATION ( #42, #39 ) ;
#160 = SECURITY_CLASSIFICATION ( '', '', #161 ) ;
#161 = SECURITY_CLASSIFICATION_LEVEL ( 'unclassified' ) ;
#162 = DIRECTION ( 'NONE',  ( 0.0000000000000000000, 0.0000000000000000000, 1.000000000000000000 ) ) ;
#163 = AXIS2_PLACEMENT_3D ( 'NONE', #164, #165, #162 ) ;
#164 = CARTESIAN_POINT ( 'NONE',  ( 0.0000000000000000000, 0.03125000000000000000, 0.0000000000000000000 ) ) ;
#165 = DIRECTION ( 'NONE',  ( 0.0000000000000000000, 1.000000000000000000, 0.0000000000000000000 ) ) ;
#166 = FACE_OUTER_BOUND ( 'NONE', #77, .T. ) ;
#167 = CIRCLE ( 'NONE', #163, 0.06250000000000000000 ) ;
#168 = DIRECTION ( 'NONE',  ( 0.0000000000000000000, 0.0000000000000000000, -1.000000000000000000 ) ) ;
#169 = DIRECTION ( 'NONE',  ( 0.0000000000000000000, -1.000000000000000000, 0.0000000000000000000 ) ) ;
#170 = AXIS2_PLACEMENT_3D ( 'NONE', #172, #169, #168 ) ;
#171 = CYLINDRICAL_SURFACE ( 'NONE', #170, 0.06250000000000000000 ) ;
#172 = CARTESIAN_POINT ( 'NONE',  ( 0.0000000000000000000, 0.03125000000000000000, 0.0000000000000000000 ) ) ;
#173 = DIRECTION ( 'NONE',  ( 0.0000000000000000000, 0.0000000000000000000, 1.000000000000000000 ) ) ;
#174 = DIRECTION ( 'NONE',  ( 0.0000000000000000000, 1.000000000000000000, 0.0000000000000000000 ) ) ;
#175 = CARTESIAN_POINT ( 'NONE',  ( 0.0000000000000000000, -0.03125000000000000000, 0.0000000000000000000 ) ) ;
#176 = AXIS2_PLACEMENT_3D ( 'NONE', #175, #174, #173 ) ;
#177 = PLANE ( 'NONE',  #176 ) ;
#178 =( GEOMETRIC_REPRESENTATION_CONTEXT ( 3 ) GLOBAL_UNCERTAINTY_ASSIGNED_CONTEXT ( ( #19 ) ) GLOBAL_UNIT_ASSIGNED_CONTEXT ( ( #22, #21, #20 ) ) REPRESENTATION_CONTEXT ( 'NONE', 'WORKASPACE' ) );
ENDSEC;
END-ISO-10303-21;
