ISO-10303-21;
HEADER;
/* Generated by software containing ST-Developer
 * from STEP Tools, Inc. (www.steptools.com) 
 */
/* OPTION: using custom renumber hook */

FILE_DESCRIPTION(
/* description */ ('STEP AP214'),
/* implementation_level */ '2;1');

FILE_NAME(
/* name */ 'MMCX-J-P-H-RA-SM1',
/* time_stamp */ '2026-03-16T14:43:45+01:00',
/* author */ ('License CC BY-ND 4.0'),
/* organization */ ('CADENAS'),
/* preprocessor_version */ 'ST-DEVELOPER v20',
/* originating_system */ 'PARTsolutions',
/* authorisation */ '  ');

FILE_SCHEMA (('AUTOMOTIVE_DESIGN {1 0 10303 214 3 1 1}'));
ENDSEC;

DATA;
#10=PROPERTY_DEFINITION_REPRESENTATION(#14,#12);
#11=PROPERTY_DEFINITION_REPRESENTATION(#15,#13);
#12=REPRESENTATION('',(#16),#1759);
#13=REPRESENTATION('',(#17),#1759);
#14=PROPERTY_DEFINITION('pmi validation property','',#1766);
#15=PROPERTY_DEFINITION('pmi validation property','',#1766);
#16=VALUE_REPRESENTATION_ITEM('number of annotations',COUNT_MEASURE(0.));
#17=VALUE_REPRESENTATION_ITEM('number of views',COUNT_MEASURE(0.));
#18=CONTEXT_DEPENDENT_SHAPE_REPRESENTATION(#20,#1768);
#19=NEXT_ASSEMBLY_USAGE_OCCURRENCE('NAUO1','MMCX-J-P-H-RA-SM1_body',
'MMCX-J-P-H-RA-SM1_body',#1769,#1770,'');
#20=(
REPRESENTATION_RELATIONSHIP(' ',' ',#1054,#1053)
REPRESENTATION_RELATIONSHIP_WITH_TRANSFORMATION(#21)
SHAPE_REPRESENTATION_RELATIONSHIP()
);
#21=ITEM_DEFINED_TRANSFORMATION(' ',' ',#1055,#1146);
#22=SHAPE_REPRESENTATION_RELATIONSHIP('','',#1054,#23);
#23=ADVANCED_BREP_SHAPE_REPRESENTATION('',(#1050),#1760);
#24=CYLINDRICAL_SURFACE('',#1087,1.205);
#25=CYLINDRICAL_SURFACE('',#1091,1.51);
#26=CYLINDRICAL_SURFACE('',#1095,1.445);
#27=CYLINDRICAL_SURFACE('',#1103,1.75);
#28=CYLINDRICAL_SURFACE('',#1131,1.125);
#29=CYLINDRICAL_SURFACE('',#1141,0.36);
#30=LINE('',#1513,#126);
#31=LINE('',#1514,#127);
#32=LINE('',#1516,#128);
#33=LINE('',#1517,#129);
#34=LINE('',#1519,#130);
#35=LINE('',#1522,#131);
#36=LINE('',#1524,#132);
#37=LINE('',#1526,#133);
#38=LINE('',#1528,#134);
#39=LINE('',#1530,#135);
#40=LINE('',#1532,#136);
#41=LINE('',#1534,#137);
#42=LINE('',#1536,#138);
#43=LINE('',#1538,#139);
#44=LINE('',#1541,#140);
#45=LINE('',#1543,#141);
#46=LINE('',#1545,#142);
#47=LINE('',#1547,#143);
#48=LINE('',#1549,#144);
#49=LINE('',#1551,#145);
#50=LINE('',#1553,#146);
#51=LINE('',#1555,#147);
#52=LINE('',#1557,#148);
#53=LINE('',#1559,#149);
#54=LINE('',#1561,#150);
#55=LINE('',#1565,#151);
#56=LINE('',#1567,#152);
#57=LINE('',#1569,#153);
#58=LINE('',#1572,#154);
#59=LINE('',#1575,#155);
#60=LINE('',#1577,#156);
#61=LINE('',#1579,#157);
#62=LINE('',#1580,#158);
#63=LINE('',#1581,#159);
#64=LINE('',#1583,#160);
#65=LINE('',#1585,#161);
#66=LINE('',#1587,#162);
#67=LINE('',#1589,#163);
#68=LINE('',#1591,#164);
#69=LINE('',#1593,#165);
#70=LINE('',#1595,#166);
#71=LINE('',#1597,#167);
#72=LINE('',#1599,#168);
#73=LINE('',#1601,#169);
#74=LINE('',#1603,#170);
#75=LINE('',#1605,#171);
#76=LINE('',#1607,#172);
#77=LINE('',#1609,#173);
#78=LINE('',#1611,#174);
#79=LINE('',#1613,#175);
#80=LINE('',#1617,#176);
#81=LINE('',#1618,#177);
#82=LINE('',#1619,#178);
#83=LINE('',#1620,#179);
#84=LINE('',#1650,#180);
#85=LINE('',#1652,#181);
#86=LINE('',#1655,#182);
#87=LINE('',#1658,#183);
#88=LINE('',#1659,#184);
#89=LINE('',#1661,#185);
#90=LINE('',#1663,#186);
#91=LINE('',#1665,#187);
#92=LINE('',#1667,#188);
#93=LINE('',#1669,#189);
#94=LINE('',#1671,#190);
#95=LINE('',#1673,#191);
#96=LINE('',#1675,#192);
#97=LINE('',#1677,#193);
#98=LINE('',#1679,#194);
#99=LINE('',#1681,#195);
#100=LINE('',#1683,#196);
#101=LINE('',#1685,#197);
#102=LINE('',#1687,#198);
#103=LINE('',#1689,#199);
#104=LINE('',#1691,#200);
#105=LINE('',#1693,#201);
#106=LINE('',#1695,#202);
#107=LINE('',#1696,#203);
#108=LINE('',#1698,#204);
#109=LINE('',#1700,#205);
#110=LINE('',#1702,#206);
#111=LINE('',#1704,#207);
#112=LINE('',#1706,#208);
#113=LINE('',#1708,#209);
#114=LINE('',#1710,#210);
#115=LINE('',#1712,#211);
#116=LINE('',#1714,#212);
#117=LINE('',#1716,#213);
#118=LINE('',#1717,#214);
#119=LINE('',#1719,#215);
#120=LINE('',#1721,#216);
#121=LINE('',#1722,#217);
#122=LINE('',#1724,#218);
#123=LINE('',#1725,#219);
#124=LINE('',#1727,#220);
#125=LINE('',#1729,#221);
#126=VECTOR('',#1183,1000.);
#127=VECTOR('',#1184,1000.);
#128=VECTOR('',#1187,1000.);
#129=VECTOR('',#1188,1000.);
#130=VECTOR('',#1191,1000.);
#131=VECTOR('',#1192,1000.);
#132=VECTOR('',#1193,1000.);
#133=VECTOR('',#1194,1000.);
#134=VECTOR('',#1195,1000.);
#135=VECTOR('',#1196,1000.);
#136=VECTOR('',#1197,1000.);
#137=VECTOR('',#1198,1000.);
#138=VECTOR('',#1199,1000.);
#139=VECTOR('',#1202,1000.);
#140=VECTOR('',#1203,1000.);
#141=VECTOR('',#1204,1000.);
#142=VECTOR('',#1205,1000.);
#143=VECTOR('',#1206,1000.);
#144=VECTOR('',#1207,1000.);
#145=VECTOR('',#1208,1000.);
#146=VECTOR('',#1209,1000.);
#147=VECTOR('',#1210,1000.);
#148=VECTOR('',#1213,1000.);
#149=VECTOR('',#1214,1000.);
#150=VECTOR('',#1215,1000.);
#151=VECTOR('',#1220,1000.);
#152=VECTOR('',#1221,1000.);
#153=VECTOR('',#1222,1000.);
#154=VECTOR('',#1227,1000.);
#155=VECTOR('',#1228,1000.);
#156=VECTOR('',#1229,1000.);
#157=VECTOR('',#1230,1000.);
#158=VECTOR('',#1231,1000.);
#159=VECTOR('',#1232,1000.);
#160=VECTOR('',#1235,1000.);
#161=VECTOR('',#1236,1000.);
#162=VECTOR('',#1237,1000.);
#163=VECTOR('',#1238,1000.);
#164=VECTOR('',#1241,1000.);
#165=VECTOR('',#1242,1000.);
#166=VECTOR('',#1243,1000.);
#167=VECTOR('',#1244,1000.);
#168=VECTOR('',#1247,1000.);
#169=VECTOR('',#1248,1000.);
#170=VECTOR('',#1249,1000.);
#171=VECTOR('',#1250,1000.);
#172=VECTOR('',#1253,1000.);
#173=VECTOR('',#1254,1000.);
#174=VECTOR('',#1255,1000.);
#175=VECTOR('',#1256,1000.);
#176=VECTOR('',#1261,1000.);
#177=VECTOR('',#1262,1000.);
#178=VECTOR('',#1263,1000.);
#179=VECTOR('',#1264,1000.);
#180=VECTOR('',#1305,1000.);
#181=VECTOR('',#1308,1000.);
#182=VECTOR('',#1313,1000.);
#183=VECTOR('',#1314,1000.);
#184=VECTOR('',#1315,1000.);
#185=VECTOR('',#1316,1000.);
#186=VECTOR('',#1319,1000.);
#187=VECTOR('',#1320,1000.);
#188=VECTOR('',#1323,1000.);
#189=VECTOR('',#1324,1000.);
#190=VECTOR('',#1327,1000.);
#191=VECTOR('',#1328,1000.);
#192=VECTOR('',#1329,1000.);
#193=VECTOR('',#1332,1000.);
#194=VECTOR('',#1333,1000.);
#195=VECTOR('',#1336,1000.);
#196=VECTOR('',#1337,1000.);
#197=VECTOR('',#1338,1000.);
#198=VECTOR('',#1341,1000.);
#199=VECTOR('',#1342,1000.);
#200=VECTOR('',#1343,1000.);
#201=VECTOR('',#1344,1000.);
#202=VECTOR('',#1347,1000.);
#203=VECTOR('',#1348,1000.);
#204=VECTOR('',#1349,1000.);
#205=VECTOR('',#1352,1000.);
#206=VECTOR('',#1353,1000.);
#207=VECTOR('',#1356,1000.);
#208=VECTOR('',#1357,1000.);
#209=VECTOR('',#1358,1000.);
#210=VECTOR('',#1361,1000.);
#211=VECTOR('',#1362,1000.);
#212=VECTOR('',#1363,1000.);
#213=VECTOR('',#1366,1000.);
#214=VECTOR('',#1367,1000.);
#215=VECTOR('',#1368,1000.);
#216=VECTOR('',#1371,1000.);
#217=VECTOR('',#1372,1000.);
#218=VECTOR('',#1375,1000.);
#219=VECTOR('',#1376,1000.);
#220=VECTOR('',#1379,1000.);
#221=VECTOR('',#1382,1000.);
#222=PLANE('',#1072);
#223=PLANE('',#1073);
#224=PLANE('',#1074);
#225=PLANE('',#1075);
#226=PLANE('',#1076);
#227=PLANE('',#1078);
#228=PLANE('',#1080);
#229=PLANE('',#1081);
#230=PLANE('',#1082);
#231=PLANE('',#1083);
#232=PLANE('',#1084);
#233=PLANE('',#1085);
#234=PLANE('',#1099);
#235=PLANE('',#1106);
#236=PLANE('',#1107);
#237=PLANE('',#1108);
#238=PLANE('',#1109);
#239=PLANE('',#1110);
#240=PLANE('',#1111);
#241=PLANE('',#1112);
#242=PLANE('',#1113);
#243=PLANE('',#1114);
#244=PLANE('',#1115);
#245=PLANE('',#1116);
#246=PLANE('',#1117);
#247=PLANE('',#1118);
#248=PLANE('',#1119);
#249=PLANE('',#1120);
#250=PLANE('',#1121);
#251=PLANE('',#1122);
#252=PLANE('',#1123);
#253=PLANE('',#1124);
#254=PLANE('',#1125);
#255=PLANE('',#1126);
#256=PLANE('',#1127);
#257=PLANE('',#1128);
#258=PLANE('',#1129);
#259=PLANE('',#1135);
#260=PLANE('',#1137);
#261=PLANE('',#1142);
#262=PLANE('',#1143);
#263=PLANE('',#1144);
#264=PLANE('',#1145);
#265=B_SPLINE_CURVE_WITH_KNOTS('',3,(#1432,#1433,#1434,#1435),
 .UNSPECIFIED.,.F.,.F.,(4,4),(2.84159713566299E-7,9.9974573450157E-5),
 .UNSPECIFIED.);
#266=B_SPLINE_CURVE_WITH_KNOTS('',3,(#1439,#1440,#1441,#1442),
 .UNSPECIFIED.,.F.,.F.,(4,4),(2.85843965671777E-7,9.99762577022628E-5),
 .UNSPECIFIED.);
#267=B_SPLINE_CURVE_WITH_KNOTS('',3,(#1447,#1448,#1449,#1450),
 .UNSPECIFIED.,.F.,.F.,(4,4),(2.84159713565917E-7,9.9974573450157E-5),
 .UNSPECIFIED.);
#268=B_SPLINE_CURVE_WITH_KNOTS('',3,(#1454,#1455,#1456,#1457),
 .UNSPECIFIED.,.F.,.F.,(4,4),(2.85843965671777E-7,9.99762577022628E-5),
 .UNSPECIFIED.);
#269=B_SPLINE_CURVE_WITH_KNOTS('',3,(#1459,#1460,#1461,#1462),
 .UNSPECIFIED.,.F.,.F.,(4,4),(2.0155063666058E-7,0.00110787837637386),
 .UNSPECIFIED.);
#270=B_SPLINE_CURVE_WITH_KNOTS('',3,(#1466,#1467,#1468,#1469),
 .UNSPECIFIED.,.F.,.F.,(4,4),(2.0130844602296E-7,0.00110787533296198),
 .UNSPECIFIED.);
#271=B_SPLINE_CURVE_WITH_KNOTS('',3,(#1471,#1472,#1473,#1474),
 .UNSPECIFIED.,.F.,.F.,(4,4),(2.01550636662327E-7,0.00110787837637386),
 .UNSPECIFIED.);
#272=B_SPLINE_CURVE_WITH_KNOTS('',3,(#1478,#1479,#1480,#1481),
 .UNSPECIFIED.,.F.,.F.,(4,4),(2.0130844602296E-7,0.00110787533296198),
 .UNSPECIFIED.);
#273=B_SPLINE_CURVE_WITH_KNOTS('',3,(#1486,#1487,#1488,#1489),
 .UNSPECIFIED.,.F.,.F.,(4,4),(2.01515569627564E-7,0.00117819506455661),
 .UNSPECIFIED.);
#274=B_SPLINE_CURVE_WITH_KNOTS('',3,(#1493,#1494,#1495,#1496),
 .UNSPECIFIED.,.F.,.F.,(4,4),(2.01267887679463E-7,0.00117819413197323),
 .UNSPECIFIED.);
#275=B_SPLINE_CURVE_WITH_KNOTS('',3,(#1501,#1502,#1503,#1504),
 .UNSPECIFIED.,.F.,.F.,(4,4),(2.01515569627564E-7,0.00117819506455661),
 .UNSPECIFIED.);
#276=B_SPLINE_CURVE_WITH_KNOTS('',3,(#1508,#1509,#1510,#1511),
 .UNSPECIFIED.,.F.,.F.,(4,4),(2.01267887679463E-7,0.00117819413197323),
 .UNSPECIFIED.);
#277=ORIENTED_EDGE('',*,*,#551,.F.);
#278=ORIENTED_EDGE('',*,*,#552,.T.);
#279=ORIENTED_EDGE('',*,*,#553,.T.);
#280=ORIENTED_EDGE('',*,*,#554,.T.);
#281=ORIENTED_EDGE('',*,*,#555,.F.);
#282=ORIENTED_EDGE('',*,*,#556,.T.);
#283=ORIENTED_EDGE('',*,*,#557,.T.);
#284=ORIENTED_EDGE('',*,*,#558,.T.);
#285=ORIENTED_EDGE('',*,*,#553,.F.);
#286=ORIENTED_EDGE('',*,*,#559,.T.);
#287=ORIENTED_EDGE('',*,*,#560,.T.);
#288=ORIENTED_EDGE('',*,*,#561,.T.);
#289=ORIENTED_EDGE('',*,*,#557,.F.);
#290=ORIENTED_EDGE('',*,*,#562,.T.);
#291=ORIENTED_EDGE('',*,*,#563,.T.);
#292=ORIENTED_EDGE('',*,*,#564,.T.);
#293=ORIENTED_EDGE('',*,*,#565,.T.);
#294=ORIENTED_EDGE('',*,*,#566,.T.);
#295=ORIENTED_EDGE('',*,*,#567,.F.);
#296=ORIENTED_EDGE('',*,*,#568,.T.);
#297=ORIENTED_EDGE('',*,*,#569,.T.);
#298=ORIENTED_EDGE('',*,*,#570,.T.);
#299=ORIENTED_EDGE('',*,*,#571,.F.);
#300=ORIENTED_EDGE('',*,*,#572,.T.);
#301=ORIENTED_EDGE('',*,*,#565,.F.);
#302=ORIENTED_EDGE('',*,*,#573,.F.);
#303=ORIENTED_EDGE('',*,*,#551,.T.);
#304=ORIENTED_EDGE('',*,*,#574,.F.);
#305=ORIENTED_EDGE('',*,*,#569,.F.);
#306=ORIENTED_EDGE('',*,*,#575,.F.);
#307=ORIENTED_EDGE('',*,*,#555,.T.);
#308=ORIENTED_EDGE('',*,*,#576,.F.);
#309=ORIENTED_EDGE('',*,*,#577,.F.);
#310=ORIENTED_EDGE('',*,*,#578,.T.);
#311=ORIENTED_EDGE('',*,*,#579,.F.);
#312=ORIENTED_EDGE('',*,*,#580,.T.);
#313=ORIENTED_EDGE('',*,*,#581,.F.);
#314=ORIENTED_EDGE('',*,*,#582,.F.);
#315=ORIENTED_EDGE('',*,*,#583,.T.);
#316=ORIENTED_EDGE('',*,*,#584,.T.);
#317=ORIENTED_EDGE('',*,*,#585,.T.);
#318=ORIENTED_EDGE('',*,*,#586,.F.);
#319=ORIENTED_EDGE('',*,*,#587,.T.);
#320=ORIENTED_EDGE('',*,*,#588,.F.);
#321=ORIENTED_EDGE('',*,*,#589,.T.);
#322=ORIENTED_EDGE('',*,*,#590,.T.);
#323=ORIENTED_EDGE('',*,*,#591,.F.);
#324=ORIENTED_EDGE('',*,*,#592,.F.);
#325=ORIENTED_EDGE('',*,*,#593,.F.);
#326=ORIENTED_EDGE('',*,*,#594,.T.);
#327=ORIENTED_EDGE('',*,*,#595,.T.);
#328=ORIENTED_EDGE('',*,*,#596,.T.);
#329=ORIENTED_EDGE('',*,*,#597,.F.);
#330=ORIENTED_EDGE('',*,*,#598,.T.);
#331=ORIENTED_EDGE('',*,*,#581,.T.);
#332=ORIENTED_EDGE('',*,*,#599,.F.);
#333=ORIENTED_EDGE('',*,*,#600,.T.);
#334=ORIENTED_EDGE('',*,*,#601,.T.);
#335=ORIENTED_EDGE('',*,*,#593,.T.);
#336=ORIENTED_EDGE('',*,*,#602,.T.);
#337=ORIENTED_EDGE('',*,*,#603,.F.);
#338=ORIENTED_EDGE('',*,*,#604,.T.);
#339=ORIENTED_EDGE('',*,*,#605,.F.);
#340=ORIENTED_EDGE('',*,*,#606,.T.);
#341=ORIENTED_EDGE('',*,*,#584,.F.);
#342=ORIENTED_EDGE('',*,*,#607,.F.);
#343=ORIENTED_EDGE('',*,*,#590,.F.);
#344=ORIENTED_EDGE('',*,*,#608,.T.);
#345=ORIENTED_EDGE('',*,*,#609,.F.);
#346=ORIENTED_EDGE('',*,*,#594,.F.);
#347=ORIENTED_EDGE('',*,*,#601,.F.);
#348=ORIENTED_EDGE('',*,*,#610,.F.);
#349=ORIENTED_EDGE('',*,*,#611,.T.);
#350=ORIENTED_EDGE('',*,*,#612,.T.);
#351=ORIENTED_EDGE('',*,*,#613,.F.);
#352=ORIENTED_EDGE('',*,*,#614,.T.);
#353=ORIENTED_EDGE('',*,*,#615,.T.);
#354=ORIENTED_EDGE('',*,*,#616,.F.);
#355=ORIENTED_EDGE('',*,*,#608,.F.);
#356=ORIENTED_EDGE('',*,*,#589,.F.);
#357=ORIENTED_EDGE('',*,*,#617,.F.);
#358=ORIENTED_EDGE('',*,*,#618,.T.);
#359=ORIENTED_EDGE('',*,*,#619,.T.);
#360=ORIENTED_EDGE('',*,*,#620,.F.);
#361=ORIENTED_EDGE('',*,*,#585,.F.);
#362=ORIENTED_EDGE('',*,*,#606,.F.);
#363=ORIENTED_EDGE('',*,*,#621,.F.);
#364=ORIENTED_EDGE('',*,*,#622,.T.);
#365=ORIENTED_EDGE('',*,*,#623,.T.);
#366=ORIENTED_EDGE('',*,*,#624,.F.);
#367=ORIENTED_EDGE('',*,*,#595,.F.);
#368=ORIENTED_EDGE('',*,*,#580,.F.);
#369=ORIENTED_EDGE('',*,*,#625,.F.);
#370=ORIENTED_EDGE('',*,*,#567,.T.);
#371=ORIENTED_EDGE('',*,*,#626,.T.);
#372=ORIENTED_EDGE('',*,*,#560,.F.);
#373=ORIENTED_EDGE('',*,*,#627,.T.);
#374=ORIENTED_EDGE('',*,*,#571,.T.);
#375=ORIENTED_EDGE('',*,*,#628,.T.);
#376=ORIENTED_EDGE('',*,*,#563,.F.);
#377=ORIENTED_EDGE('',*,*,#629,.T.);
#378=ORIENTED_EDGE('',*,*,#630,.F.);
#379=ORIENTED_EDGE('',*,*,#625,.T.);
#380=ORIENTED_EDGE('',*,*,#631,.F.);
#381=ORIENTED_EDGE('',*,*,#630,.T.);
#382=ORIENTED_EDGE('',*,*,#632,.F.);
#383=ORIENTED_EDGE('',*,*,#631,.T.);
#384=ORIENTED_EDGE('',*,*,#633,.F.);
#385=ORIENTED_EDGE('',*,*,#632,.T.);
#386=ORIENTED_EDGE('',*,*,#634,.F.);
#387=ORIENTED_EDGE('',*,*,#633,.T.);
#388=ORIENTED_EDGE('',*,*,#635,.F.);
#389=ORIENTED_EDGE('',*,*,#634,.T.);
#390=ORIENTED_EDGE('',*,*,#636,.F.);
#391=ORIENTED_EDGE('',*,*,#635,.T.);
#392=ORIENTED_EDGE('',*,*,#637,.F.);
#393=ORIENTED_EDGE('',*,*,#636,.T.);
#394=ORIENTED_EDGE('',*,*,#638,.F.);
#395=ORIENTED_EDGE('',*,*,#639,.F.);
#396=ORIENTED_EDGE('',*,*,#598,.F.);
#397=ORIENTED_EDGE('',*,*,#602,.F.);
#398=ORIENTED_EDGE('',*,*,#637,.T.);
#399=ORIENTED_EDGE('',*,*,#638,.T.);
#400=ORIENTED_EDGE('',*,*,#592,.T.);
#401=ORIENTED_EDGE('',*,*,#640,.T.);
#402=ORIENTED_EDGE('',*,*,#639,.T.);
#403=ORIENTED_EDGE('',*,*,#641,.T.);
#404=ORIENTED_EDGE('',*,*,#582,.T.);
#405=ORIENTED_EDGE('',*,*,#607,.T.);
#406=ORIENTED_EDGE('',*,*,#583,.F.);
#407=ORIENTED_EDGE('',*,*,#641,.F.);
#408=ORIENTED_EDGE('',*,*,#640,.F.);
#409=ORIENTED_EDGE('',*,*,#591,.T.);
#410=ORIENTED_EDGE('',*,*,#642,.T.);
#411=ORIENTED_EDGE('',*,*,#643,.T.);
#412=ORIENTED_EDGE('',*,*,#577,.T.);
#413=ORIENTED_EDGE('',*,*,#620,.T.);
#414=ORIENTED_EDGE('',*,*,#644,.F.);
#415=ORIENTED_EDGE('',*,*,#645,.T.);
#416=ORIENTED_EDGE('',*,*,#619,.F.);
#417=ORIENTED_EDGE('',*,*,#646,.F.);
#418=ORIENTED_EDGE('',*,*,#647,.T.);
#419=ORIENTED_EDGE('',*,*,#644,.T.);
#420=ORIENTED_EDGE('',*,*,#618,.F.);
#421=ORIENTED_EDGE('',*,*,#648,.F.);
#422=ORIENTED_EDGE('',*,*,#649,.T.);
#423=ORIENTED_EDGE('',*,*,#646,.T.);
#424=ORIENTED_EDGE('',*,*,#623,.F.);
#425=ORIENTED_EDGE('',*,*,#650,.F.);
#426=ORIENTED_EDGE('',*,*,#651,.T.);
#427=ORIENTED_EDGE('',*,*,#652,.T.);
#428=ORIENTED_EDGE('',*,*,#622,.F.);
#429=ORIENTED_EDGE('',*,*,#653,.F.);
#430=ORIENTED_EDGE('',*,*,#654,.T.);
#431=ORIENTED_EDGE('',*,*,#650,.T.);
#432=ORIENTED_EDGE('',*,*,#653,.T.);
#433=ORIENTED_EDGE('',*,*,#621,.T.);
#434=ORIENTED_EDGE('',*,*,#579,.T.);
#435=ORIENTED_EDGE('',*,*,#655,.T.);
#436=ORIENTED_EDGE('',*,*,#656,.F.);
#437=ORIENTED_EDGE('',*,*,#657,.T.);
#438=ORIENTED_EDGE('',*,*,#658,.T.);
#439=ORIENTED_EDGE('',*,*,#613,.T.);
#440=ORIENTED_EDGE('',*,*,#588,.T.);
#441=ORIENTED_EDGE('',*,*,#659,.T.);
#442=ORIENTED_EDGE('',*,*,#660,.F.);
#443=ORIENTED_EDGE('',*,*,#661,.T.);
#444=ORIENTED_EDGE('',*,*,#660,.T.);
#445=ORIENTED_EDGE('',*,*,#662,.T.);
#446=ORIENTED_EDGE('',*,*,#603,.T.);
#447=ORIENTED_EDGE('',*,*,#616,.T.);
#448=ORIENTED_EDGE('',*,*,#663,.F.);
#449=ORIENTED_EDGE('',*,*,#664,.T.);
#450=ORIENTED_EDGE('',*,*,#615,.F.);
#451=ORIENTED_EDGE('',*,*,#665,.F.);
#452=ORIENTED_EDGE('',*,*,#666,.T.);
#453=ORIENTED_EDGE('',*,*,#663,.T.);
#454=ORIENTED_EDGE('',*,*,#611,.F.);
#455=ORIENTED_EDGE('',*,*,#667,.F.);
#456=ORIENTED_EDGE('',*,*,#668,.T.);
#457=ORIENTED_EDGE('',*,*,#669,.T.);
#458=ORIENTED_EDGE('',*,*,#667,.T.);
#459=ORIENTED_EDGE('',*,*,#610,.T.);
#460=ORIENTED_EDGE('',*,*,#600,.F.);
#461=ORIENTED_EDGE('',*,*,#670,.T.);
#462=ORIENTED_EDGE('',*,*,#671,.F.);
#463=ORIENTED_EDGE('',*,*,#672,.T.);
#464=ORIENTED_EDGE('',*,*,#671,.T.);
#465=ORIENTED_EDGE('',*,*,#673,.T.);
#466=ORIENTED_EDGE('',*,*,#586,.T.);
#467=ORIENTED_EDGE('',*,*,#609,.T.);
#468=ORIENTED_EDGE('',*,*,#674,.F.);
#469=ORIENTED_EDGE('',*,*,#675,.T.);
#470=ORIENTED_EDGE('',*,*,#648,.T.);
#471=ORIENTED_EDGE('',*,*,#617,.T.);
#472=ORIENTED_EDGE('',*,*,#605,.T.);
#473=ORIENTED_EDGE('',*,*,#676,.T.);
#474=ORIENTED_EDGE('',*,*,#642,.F.);
#475=ORIENTED_EDGE('',*,*,#677,.T.);
#476=ORIENTED_EDGE('',*,*,#656,.T.);
#477=ORIENTED_EDGE('',*,*,#678,.T.);
#478=ORIENTED_EDGE('',*,*,#596,.F.);
#479=ORIENTED_EDGE('',*,*,#624,.T.);
#480=ORIENTED_EDGE('',*,*,#652,.F.);
#481=ORIENTED_EDGE('',*,*,#679,.T.);
#482=ORIENTED_EDGE('',*,*,#614,.F.);
#483=ORIENTED_EDGE('',*,*,#658,.F.);
#484=ORIENTED_EDGE('',*,*,#680,.T.);
#485=ORIENTED_EDGE('',*,*,#665,.T.);
#486=ORIENTED_EDGE('',*,*,#612,.F.);
#487=ORIENTED_EDGE('',*,*,#669,.F.);
#488=ORIENTED_EDGE('',*,*,#681,.T.);
#489=ORIENTED_EDGE('',*,*,#674,.T.);
#490=ORIENTED_EDGE('',*,*,#668,.F.);
#491=ORIENTED_EDGE('',*,*,#672,.F.);
#492=ORIENTED_EDGE('',*,*,#675,.F.);
#493=ORIENTED_EDGE('',*,*,#681,.F.);
#494=ORIENTED_EDGE('',*,*,#661,.F.);
#495=ORIENTED_EDGE('',*,*,#664,.F.);
#496=ORIENTED_EDGE('',*,*,#666,.F.);
#497=ORIENTED_EDGE('',*,*,#680,.F.);
#498=ORIENTED_EDGE('',*,*,#651,.F.);
#499=ORIENTED_EDGE('',*,*,#654,.F.);
#500=ORIENTED_EDGE('',*,*,#657,.F.);
#501=ORIENTED_EDGE('',*,*,#679,.F.);
#502=ORIENTED_EDGE('',*,*,#645,.F.);
#503=ORIENTED_EDGE('',*,*,#647,.F.);
#504=ORIENTED_EDGE('',*,*,#649,.F.);
#505=ORIENTED_EDGE('',*,*,#677,.F.);
#506=ORIENTED_EDGE('',*,*,#682,.T.);
#507=ORIENTED_EDGE('',*,*,#643,.F.);
#508=ORIENTED_EDGE('',*,*,#676,.F.);
#509=ORIENTED_EDGE('',*,*,#604,.F.);
#510=ORIENTED_EDGE('',*,*,#662,.F.);
#511=ORIENTED_EDGE('',*,*,#659,.F.);
#512=ORIENTED_EDGE('',*,*,#587,.F.);
#513=ORIENTED_EDGE('',*,*,#673,.F.);
#514=ORIENTED_EDGE('',*,*,#670,.F.);
#515=ORIENTED_EDGE('',*,*,#599,.T.);
#516=ORIENTED_EDGE('',*,*,#597,.T.);
#517=ORIENTED_EDGE('',*,*,#678,.F.);
#518=ORIENTED_EDGE('',*,*,#655,.F.);
#519=ORIENTED_EDGE('',*,*,#578,.F.);
#520=ORIENTED_EDGE('',*,*,#683,.F.);
#521=ORIENTED_EDGE('',*,*,#684,.F.);
#522=ORIENTED_EDGE('',*,*,#682,.F.);
#523=ORIENTED_EDGE('',*,*,#683,.T.);
#524=ORIENTED_EDGE('',*,*,#685,.F.);
#525=ORIENTED_EDGE('',*,*,#684,.T.);
#526=ORIENTED_EDGE('',*,*,#686,.F.);
#527=ORIENTED_EDGE('',*,*,#687,.F.);
#528=ORIENTED_EDGE('',*,*,#686,.T.);
#529=ORIENTED_EDGE('',*,*,#685,.T.);
#530=ORIENTED_EDGE('',*,*,#687,.T.);
#531=ORIENTED_EDGE('',*,*,#564,.F.);
#532=ORIENTED_EDGE('',*,*,#628,.F.);
#533=ORIENTED_EDGE('',*,*,#570,.F.);
#534=ORIENTED_EDGE('',*,*,#576,.T.);
#535=ORIENTED_EDGE('',*,*,#558,.F.);
#536=ORIENTED_EDGE('',*,*,#573,.T.);
#537=ORIENTED_EDGE('',*,*,#568,.F.);
#538=ORIENTED_EDGE('',*,*,#627,.F.);
#539=ORIENTED_EDGE('',*,*,#559,.F.);
#540=ORIENTED_EDGE('',*,*,#552,.F.);
#541=ORIENTED_EDGE('',*,*,#575,.T.);
#542=ORIENTED_EDGE('',*,*,#572,.F.);
#543=ORIENTED_EDGE('',*,*,#629,.F.);
#544=ORIENTED_EDGE('',*,*,#562,.F.);
#545=ORIENTED_EDGE('',*,*,#556,.F.);
#546=ORIENTED_EDGE('',*,*,#561,.F.);
#547=ORIENTED_EDGE('',*,*,#626,.F.);
#548=ORIENTED_EDGE('',*,*,#566,.F.);
#549=ORIENTED_EDGE('',*,*,#574,.T.);
#550=ORIENTED_EDGE('',*,*,#554,.F.);
#551=EDGE_CURVE('',#688,#689,#783,.T.);
#552=EDGE_CURVE('',#688,#690,#265,.T.);
#553=EDGE_CURVE('',#690,#691,#784,.T.);
#554=EDGE_CURVE('',#691,#689,#266,.T.);
#555=EDGE_CURVE('',#692,#693,#785,.T.);
#556=EDGE_CURVE('',#692,#694,#267,.T.);
#557=EDGE_CURVE('',#694,#695,#786,.T.);
#558=EDGE_CURVE('',#695,#693,#268,.T.);
#559=EDGE_CURVE('',#690,#696,#269,.T.);
#560=EDGE_CURVE('',#696,#697,#787,.T.);
#561=EDGE_CURVE('',#697,#691,#270,.T.);
#562=EDGE_CURVE('',#694,#698,#271,.T.);
#563=EDGE_CURVE('',#698,#699,#788,.T.);
#564=EDGE_CURVE('',#699,#695,#272,.T.);
#565=EDGE_CURVE('',#700,#701,#789,.T.);
#566=EDGE_CURVE('',#701,#702,#273,.T.);
#567=EDGE_CURVE('',#703,#702,#790,.T.);
#568=EDGE_CURVE('',#703,#700,#274,.T.);
#569=EDGE_CURVE('',#704,#705,#791,.T.);
#570=EDGE_CURVE('',#705,#706,#275,.T.);
#571=EDGE_CURVE('',#707,#706,#792,.T.);
#572=EDGE_CURVE('',#707,#704,#276,.T.);
#573=EDGE_CURVE('',#688,#700,#30,.F.);
#574=EDGE_CURVE('',#701,#689,#31,.F.);
#575=EDGE_CURVE('',#692,#704,#32,.F.);
#576=EDGE_CURVE('',#705,#693,#33,.F.);
#577=EDGE_CURVE('',#708,#709,#34,.T.);
#578=EDGE_CURVE('',#708,#710,#35,.T.);
#579=EDGE_CURVE('',#711,#710,#36,.T.);
#580=EDGE_CURVE('',#711,#712,#37,.T.);
#581=EDGE_CURVE('',#713,#712,#38,.T.);
#582=EDGE_CURVE('',#714,#713,#39,.T.);
#583=EDGE_CURVE('',#714,#715,#40,.T.);
#584=EDGE_CURVE('',#715,#716,#41,.T.);
#585=EDGE_CURVE('',#716,#709,#42,.T.);
#586=EDGE_CURVE('',#717,#718,#43,.T.);
#587=EDGE_CURVE('',#717,#719,#44,.T.);
#588=EDGE_CURVE('',#720,#719,#45,.T.);
#589=EDGE_CURVE('',#720,#721,#46,.T.);
#590=EDGE_CURVE('',#721,#722,#47,.T.);
#591=EDGE_CURVE('',#723,#722,#48,.T.);
#592=EDGE_CURVE('',#724,#723,#49,.T.);
#593=EDGE_CURVE('',#725,#724,#50,.T.);
#594=EDGE_CURVE('',#725,#718,#51,.T.);
#595=EDGE_CURVE('',#712,#726,#52,.T.);
#596=EDGE_CURVE('',#726,#727,#53,.T.);
#597=EDGE_CURVE('',#728,#727,#54,.T.);
#598=EDGE_CURVE('',#728,#713,#793,.T.);
#599=EDGE_CURVE('',#729,#728,#55,.T.);
#600=EDGE_CURVE('',#729,#730,#56,.T.);
#601=EDGE_CURVE('',#730,#725,#57,.T.);
#602=EDGE_CURVE('',#724,#728,#794,.T.);
#603=EDGE_CURVE('',#731,#732,#58,.T.);
#604=EDGE_CURVE('',#731,#733,#59,.T.);
#605=EDGE_CURVE('',#734,#733,#60,.T.);
#606=EDGE_CURVE('',#734,#716,#61,.T.);
#607=EDGE_CURVE('',#722,#715,#62,.T.);
#608=EDGE_CURVE('',#721,#732,#63,.T.);
#609=EDGE_CURVE('',#718,#735,#64,.T.);
#610=EDGE_CURVE('',#736,#730,#65,.T.);
#611=EDGE_CURVE('',#736,#737,#66,.T.);
#612=EDGE_CURVE('',#737,#735,#67,.T.);
#613=EDGE_CURVE('',#738,#720,#68,.T.);
#614=EDGE_CURVE('',#738,#739,#69,.T.);
#615=EDGE_CURVE('',#739,#740,#70,.T.);
#616=EDGE_CURVE('',#732,#740,#71,.T.);
#617=EDGE_CURVE('',#741,#734,#72,.T.);
#618=EDGE_CURVE('',#741,#742,#73,.T.);
#619=EDGE_CURVE('',#742,#743,#74,.T.);
#620=EDGE_CURVE('',#709,#743,#75,.T.);
#621=EDGE_CURVE('',#744,#711,#76,.T.);
#622=EDGE_CURVE('',#744,#745,#77,.T.);
#623=EDGE_CURVE('',#745,#746,#78,.T.);
#624=EDGE_CURVE('',#726,#746,#79,.T.);
#625=EDGE_CURVE('',#747,#747,#795,.T.);
#626=EDGE_CURVE('',#702,#697,#80,.T.);
#627=EDGE_CURVE('',#696,#703,#81,.T.);
#628=EDGE_CURVE('',#706,#699,#82,.T.);
#629=EDGE_CURVE('',#698,#707,#83,.T.);
#630=EDGE_CURVE('',#748,#748,#796,.T.);
#631=EDGE_CURVE('',#749,#749,#797,.T.);
#632=EDGE_CURVE('',#750,#750,#798,.T.);
#633=EDGE_CURVE('',#751,#751,#799,.T.);
#634=EDGE_CURVE('',#752,#752,#800,.T.);
#635=EDGE_CURVE('',#753,#753,#801,.T.);
#636=EDGE_CURVE('',#754,#754,#802,.T.);
#637=EDGE_CURVE('',#755,#755,#803,.T.);
#638=EDGE_CURVE('',#756,#724,#804,.T.);
#639=EDGE_CURVE('',#713,#756,#805,.T.);
#640=EDGE_CURVE('',#723,#756,#84,.T.);
#641=EDGE_CURVE('',#756,#714,#85,.T.);
#642=EDGE_CURVE('',#757,#758,#86,.T.);
#643=EDGE_CURVE('',#758,#708,#87,.T.);
#644=EDGE_CURVE('',#759,#743,#88,.T.);
#645=EDGE_CURVE('',#759,#757,#89,.T.);
#646=EDGE_CURVE('',#760,#742,#90,.T.);
#647=EDGE_CURVE('',#760,#759,#91,.T.);
#648=EDGE_CURVE('',#761,#741,#92,.T.);
#649=EDGE_CURVE('',#761,#760,#93,.T.);
#650=EDGE_CURVE('',#762,#745,#94,.T.);
#651=EDGE_CURVE('',#762,#763,#95,.T.);
#652=EDGE_CURVE('',#763,#746,#96,.T.);
#653=EDGE_CURVE('',#764,#744,#97,.T.);
#654=EDGE_CURVE('',#764,#762,#98,.T.);
#655=EDGE_CURVE('',#710,#765,#99,.T.);
#656=EDGE_CURVE('',#766,#765,#100,.T.);
#657=EDGE_CURVE('',#766,#764,#101,.T.);
#658=EDGE_CURVE('',#767,#738,#102,.T.);
#659=EDGE_CURVE('',#719,#768,#103,.T.);
#660=EDGE_CURVE('',#769,#768,#104,.T.);
#661=EDGE_CURVE('',#769,#767,#105,.T.);
#662=EDGE_CURVE('',#768,#731,#106,.T.);
#663=EDGE_CURVE('',#770,#740,#107,.T.);
#664=EDGE_CURVE('',#770,#769,#108,.T.);
#665=EDGE_CURVE('',#771,#739,#109,.T.);
#666=EDGE_CURVE('',#771,#770,#110,.T.);
#667=EDGE_CURVE('',#772,#736,#111,.T.);
#668=EDGE_CURVE('',#772,#773,#112,.T.);
#669=EDGE_CURVE('',#773,#737,#113,.T.);
#670=EDGE_CURVE('',#729,#774,#114,.T.);
#671=EDGE_CURVE('',#775,#774,#115,.T.);
#672=EDGE_CURVE('',#775,#772,#116,.T.);
#673=EDGE_CURVE('',#774,#717,#117,.T.);
#674=EDGE_CURVE('',#776,#735,#118,.T.);
#675=EDGE_CURVE('',#776,#775,#119,.T.);
#676=EDGE_CURVE('',#733,#758,#120,.T.);
#677=EDGE_CURVE('',#757,#761,#121,.T.);
#678=EDGE_CURVE('',#765,#727,#122,.T.);
#679=EDGE_CURVE('',#763,#766,#123,.T.);
#680=EDGE_CURVE('',#767,#771,#124,.T.);
#681=EDGE_CURVE('',#773,#776,#125,.T.);
#682=EDGE_CURVE('',#777,#777,#806,.T.);
#683=EDGE_CURVE('',#778,#778,#807,.T.);
#684=EDGE_CURVE('',#779,#779,#808,.F.);
#685=EDGE_CURVE('',#780,#780,#809,.F.);
#686=EDGE_CURVE('',#781,#781,#810,.T.);
#687=EDGE_CURVE('',#782,#782,#811,.T.);
#688=VERTEX_POINT('',#1430);
#689=VERTEX_POINT('',#1431);
#690=VERTEX_POINT('',#1436);
#691=VERTEX_POINT('',#1438);
#692=VERTEX_POINT('',#1445);
#693=VERTEX_POINT('',#1446);
#694=VERTEX_POINT('',#1451);
#695=VERTEX_POINT('',#1453);
#696=VERTEX_POINT('',#1463);
#697=VERTEX_POINT('',#1465);
#698=VERTEX_POINT('',#1475);
#699=VERTEX_POINT('',#1477);
#700=VERTEX_POINT('',#1484);
#701=VERTEX_POINT('',#1485);
#702=VERTEX_POINT('',#1490);
#703=VERTEX_POINT('',#1492);
#704=VERTEX_POINT('',#1499);
#705=VERTEX_POINT('',#1500);
#706=VERTEX_POINT('',#1505);
#707=VERTEX_POINT('',#1507);
#708=VERTEX_POINT('',#1520);
#709=VERTEX_POINT('',#1521);
#710=VERTEX_POINT('',#1523);
#711=VERTEX_POINT('',#1525);
#712=VERTEX_POINT('',#1527);
#713=VERTEX_POINT('',#1529);
#714=VERTEX_POINT('',#1531);
#715=VERTEX_POINT('',#1533);
#716=VERTEX_POINT('',#1535);
#717=VERTEX_POINT('',#1539);
#718=VERTEX_POINT('',#1540);
#719=VERTEX_POINT('',#1542);
#720=VERTEX_POINT('',#1544);
#721=VERTEX_POINT('',#1546);
#722=VERTEX_POINT('',#1548);
#723=VERTEX_POINT('',#1550);
#724=VERTEX_POINT('',#1552);
#725=VERTEX_POINT('',#1554);
#726=VERTEX_POINT('',#1558);
#727=VERTEX_POINT('',#1560);
#728=VERTEX_POINT('',#1562);
#729=VERTEX_POINT('',#1566);
#730=VERTEX_POINT('',#1568);
#731=VERTEX_POINT('',#1573);
#732=VERTEX_POINT('',#1574);
#733=VERTEX_POINT('',#1576);
#734=VERTEX_POINT('',#1578);
#735=VERTEX_POINT('',#1584);
#736=VERTEX_POINT('',#1586);
#737=VERTEX_POINT('',#1588);
#738=VERTEX_POINT('',#1592);
#739=VERTEX_POINT('',#1594);
#740=VERTEX_POINT('',#1596);
#741=VERTEX_POINT('',#1600);
#742=VERTEX_POINT('',#1602);
#743=VERTEX_POINT('',#1604);
#744=VERTEX_POINT('',#1608);
#745=VERTEX_POINT('',#1610);
#746=VERTEX_POINT('',#1612);
#747=VERTEX_POINT('',#1616);
#748=VERTEX_POINT('',#1623);
#749=VERTEX_POINT('',#1626);
#750=VERTEX_POINT('',#1629);
#751=VERTEX_POINT('',#1632);
#752=VERTEX_POINT('',#1635);
#753=VERTEX_POINT('',#1638);
#754=VERTEX_POINT('',#1641);
#755=VERTEX_POINT('',#1644);
#756=VERTEX_POINT('',#1647);
#757=VERTEX_POINT('',#1656);
#758=VERTEX_POINT('',#1657);
#759=VERTEX_POINT('',#1660);
#760=VERTEX_POINT('',#1664);
#761=VERTEX_POINT('',#1668);
#762=VERTEX_POINT('',#1672);
#763=VERTEX_POINT('',#1674);
#764=VERTEX_POINT('',#1678);
#765=VERTEX_POINT('',#1682);
#766=VERTEX_POINT('',#1684);
#767=VERTEX_POINT('',#1688);
#768=VERTEX_POINT('',#1690);
#769=VERTEX_POINT('',#1692);
#770=VERTEX_POINT('',#1697);
#771=VERTEX_POINT('',#1701);
#772=VERTEX_POINT('',#1705);
#773=VERTEX_POINT('',#1707);
#774=VERTEX_POINT('',#1711);
#775=VERTEX_POINT('',#1713);
#776=VERTEX_POINT('',#1718);
#777=VERTEX_POINT('',#1736);
#778=VERTEX_POINT('',#1739);
#779=VERTEX_POINT('',#1741);
#780=VERTEX_POINT('',#1745);
#781=VERTEX_POINT('',#1748);
#782=VERTEX_POINT('',#1751);
#783=CIRCLE('',#1057,0.21);
#784=CIRCLE('',#1058,0.14);
#785=CIRCLE('',#1060,0.21);
#786=CIRCLE('',#1061,0.14);
#787=CIRCLE('',#1063,0.26);
#788=CIRCLE('',#1065,0.26);
#789=CIRCLE('',#1067,0.23);
#790=CIRCLE('',#1068,0.35);
#791=CIRCLE('',#1070,0.23);
#792=CIRCLE('',#1071,0.35);
#793=CIRCLE('',#1077,1.75);
#794=CIRCLE('',#1079,1.75);
#795=CIRCLE('',#1086,1.205);
#796=CIRCLE('',#1088,1.205);
#797=CIRCLE('',#1090,1.51);
#798=CIRCLE('',#1092,1.51);
#799=CIRCLE('',#1094,1.445);
#800=CIRCLE('',#1096,1.445);
#801=CIRCLE('',#1098,1.57);
#802=CIRCLE('',#1100,1.65);
#803=CIRCLE('',#1102,1.75);
#804=CIRCLE('',#1104,1.75);
#805=CIRCLE('',#1105,1.75);
#806=CIRCLE('',#1130,1.225);
#807=CIRCLE('',#1132,1.125);
#808=CIRCLE('',#1133,1.125);
#809=CIRCLE('',#1136,0.36);
#810=CIRCLE('',#1138,0.311881235060742);
#811=CIRCLE('',#1140,0.36);
#812=EDGE_LOOP('',(#277,#278,#279,#280));
#813=EDGE_LOOP('',(#281,#282,#283,#284));
#814=EDGE_LOOP('',(#285,#286,#287,#288));
#815=EDGE_LOOP('',(#289,#290,#291,#292));
#816=EDGE_LOOP('',(#293,#294,#295,#296));
#817=EDGE_LOOP('',(#297,#298,#299,#300));
#818=EDGE_LOOP('',(#301,#302,#303,#304));
#819=EDGE_LOOP('',(#305,#306,#307,#308));
#820=EDGE_LOOP('',(#309,#310,#311,#312,#313,#314,#315,#316,#317));
#821=EDGE_LOOP('',(#318,#319,#320,#321,#322,#323,#324,#325,#326));
#822=EDGE_LOOP('',(#327,#328,#329,#330,#331));
#823=EDGE_LOOP('',(#332,#333,#334,#335,#336));
#824=EDGE_LOOP('',(#337,#338,#339,#340,#341,#342,#343,#344));
#825=EDGE_LOOP('',(#345,#346,#347,#348,#349,#350));
#826=EDGE_LOOP('',(#351,#352,#353,#354,#355,#356));
#827=EDGE_LOOP('',(#357,#358,#359,#360,#361,#362));
#828=EDGE_LOOP('',(#363,#364,#365,#366,#367,#368));
#829=EDGE_LOOP('',(#369));
#830=EDGE_LOOP('',(#370,#371,#372,#373));
#831=EDGE_LOOP('',(#374,#375,#376,#377));
#832=EDGE_LOOP('',(#378));
#833=EDGE_LOOP('',(#379));
#834=EDGE_LOOP('',(#380));
#835=EDGE_LOOP('',(#381));
#836=EDGE_LOOP('',(#382));
#837=EDGE_LOOP('',(#383));
#838=EDGE_LOOP('',(#384));
#839=EDGE_LOOP('',(#385));
#840=EDGE_LOOP('',(#386));
#841=EDGE_LOOP('',(#387));
#842=EDGE_LOOP('',(#388));
#843=EDGE_LOOP('',(#389));
#844=EDGE_LOOP('',(#390));
#845=EDGE_LOOP('',(#391));
#846=EDGE_LOOP('',(#392));
#847=EDGE_LOOP('',(#393));
#848=EDGE_LOOP('',(#394,#395,#396,#397));
#849=EDGE_LOOP('',(#398));
#850=EDGE_LOOP('',(#399,#400,#401));
#851=EDGE_LOOP('',(#402,#403,#404));
#852=EDGE_LOOP('',(#405,#406,#407,#408,#409));
#853=EDGE_LOOP('',(#410,#411,#412,#413,#414,#415));
#854=EDGE_LOOP('',(#416,#417,#418,#419));
#855=EDGE_LOOP('',(#420,#421,#422,#423));
#856=EDGE_LOOP('',(#424,#425,#426,#427));
#857=EDGE_LOOP('',(#428,#429,#430,#431));
#858=EDGE_LOOP('',(#432,#433,#434,#435,#436,#437));
#859=EDGE_LOOP('',(#438,#439,#440,#441,#442,#443));
#860=EDGE_LOOP('',(#444,#445,#446,#447,#448,#449));
#861=EDGE_LOOP('',(#450,#451,#452,#453));
#862=EDGE_LOOP('',(#454,#455,#456,#457));
#863=EDGE_LOOP('',(#458,#459,#460,#461,#462,#463));
#864=EDGE_LOOP('',(#464,#465,#466,#467,#468,#469));
#865=EDGE_LOOP('',(#470,#471,#472,#473,#474,#475));
#866=EDGE_LOOP('',(#476,#477,#478,#479,#480,#481));
#867=EDGE_LOOP('',(#482,#483,#484,#485));
#868=EDGE_LOOP('',(#486,#487,#488,#489));
#869=EDGE_LOOP('',(#490,#491,#492,#493));
#870=EDGE_LOOP('',(#494,#495,#496,#497));
#871=EDGE_LOOP('',(#498,#499,#500,#501));
#872=EDGE_LOOP('',(#502,#503,#504,#505));
#873=EDGE_LOOP('',(#506));
#874=EDGE_LOOP('',(#507,#508,#509,#510,#511,#512,#513,#514,#515,#516,#517,
#518,#519));
#875=EDGE_LOOP('',(#520));
#876=EDGE_LOOP('',(#521));
#877=EDGE_LOOP('',(#522));
#878=EDGE_LOOP('',(#523));
#879=EDGE_LOOP('',(#524));
#880=EDGE_LOOP('',(#525));
#881=EDGE_LOOP('',(#526));
#882=EDGE_LOOP('',(#527));
#883=EDGE_LOOP('',(#528));
#884=EDGE_LOOP('',(#529));
#885=EDGE_LOOP('',(#530));
#886=EDGE_LOOP('',(#531,#532,#533,#534,#535));
#887=EDGE_LOOP('',(#536,#537,#538,#539,#540));
#888=EDGE_LOOP('',(#541,#542,#543,#544,#545));
#889=EDGE_LOOP('',(#546,#547,#548,#549,#550));
#890=FACE_BOUND('',#812,.T.);
#891=FACE_BOUND('',#813,.T.);
#892=FACE_BOUND('',#814,.T.);
#893=FACE_BOUND('',#815,.T.);
#894=FACE_BOUND('',#816,.T.);
#895=FACE_BOUND('',#817,.T.);
#896=FACE_BOUND('',#818,.T.);
#897=FACE_BOUND('',#819,.T.);
#898=FACE_BOUND('',#820,.T.);
#899=FACE_BOUND('',#821,.T.);
#900=FACE_BOUND('',#822,.T.);
#901=FACE_BOUND('',#823,.T.);
#902=FACE_BOUND('',#824,.T.);
#903=FACE_BOUND('',#825,.T.);
#904=FACE_BOUND('',#826,.T.);
#905=FACE_BOUND('',#827,.T.);
#906=FACE_BOUND('',#828,.T.);
#907=FACE_BOUND('',#829,.T.);
#908=FACE_BOUND('',#830,.T.);
#909=FACE_BOUND('',#831,.T.);
#910=FACE_BOUND('',#832,.T.);
#911=FACE_BOUND('',#833,.T.);
#912=FACE_BOUND('',#834,.T.);
#913=FACE_BOUND('',#835,.T.);
#914=FACE_BOUND('',#836,.T.);
#915=FACE_BOUND('',#837,.T.);
#916=FACE_BOUND('',#838,.T.);
#917=FACE_BOUND('',#839,.T.);
#918=FACE_BOUND('',#840,.T.);
#919=FACE_BOUND('',#841,.T.);
#920=FACE_BOUND('',#842,.T.);
#921=FACE_BOUND('',#843,.T.);
#922=FACE_BOUND('',#844,.T.);
#923=FACE_BOUND('',#845,.T.);
#924=FACE_BOUND('',#846,.T.);
#925=FACE_BOUND('',#847,.T.);
#926=FACE_BOUND('',#848,.T.);
#927=FACE_BOUND('',#849,.T.);
#928=FACE_BOUND('',#850,.T.);
#929=FACE_BOUND('',#851,.T.);
#930=FACE_BOUND('',#852,.T.);
#931=FACE_BOUND('',#853,.T.);
#932=FACE_BOUND('',#854,.T.);
#933=FACE_BOUND('',#855,.T.);
#934=FACE_BOUND('',#856,.T.);
#935=FACE_BOUND('',#857,.T.);
#936=FACE_BOUND('',#858,.T.);
#937=FACE_BOUND('',#859,.T.);
#938=FACE_BOUND('',#860,.T.);
#939=FACE_BOUND('',#861,.T.);
#940=FACE_BOUND('',#862,.T.);
#941=FACE_BOUND('',#863,.T.);
#942=FACE_BOUND('',#864,.T.);
#943=FACE_BOUND('',#865,.T.);
#944=FACE_BOUND('',#866,.T.);
#945=FACE_BOUND('',#867,.T.);
#946=FACE_BOUND('',#868,.T.);
#947=FACE_BOUND('',#869,.T.);
#948=FACE_BOUND('',#870,.T.);
#949=FACE_BOUND('',#871,.T.);
#950=FACE_BOUND('',#872,.T.);
#951=FACE_BOUND('',#873,.T.);
#952=FACE_BOUND('',#874,.T.);
#953=FACE_BOUND('',#875,.T.);
#954=FACE_BOUND('',#876,.T.);
#955=FACE_BOUND('',#877,.T.);
#956=FACE_BOUND('',#878,.T.);
#957=FACE_BOUND('',#879,.T.);
#958=FACE_BOUND('',#880,.T.);
#959=FACE_BOUND('',#881,.T.);
#960=FACE_BOUND('',#882,.T.);
#961=FACE_BOUND('',#883,.T.);
#962=FACE_BOUND('',#884,.T.);
#963=FACE_BOUND('',#885,.T.);
#964=FACE_BOUND('',#886,.T.);
#965=FACE_BOUND('',#887,.T.);
#966=FACE_BOUND('',#888,.T.);
#967=FACE_BOUND('',#889,.T.);
#968=CONICAL_SURFACE('',#1056,0.21,0.78539816339745);
#969=CONICAL_SURFACE('',#1059,0.21,0.78539816339745);
#970=CONICAL_SURFACE('',#1062,0.14,0.108661215840588);
#971=CONICAL_SURFACE('',#1064,0.14,0.108661215840588);
#972=CONICAL_SURFACE('',#1066,0.35,0.102206718107254);
#973=CONICAL_SURFACE('',#1069,0.35,0.102206718107254);
#974=CONICAL_SURFACE('',#1089,1.205,1.0471975511966);
#975=CONICAL_SURFACE('',#1093,1.51,0.261802791304142);
#976=CONICAL_SURFACE('',#1097,1.445,0.785398163397447);
#977=CONICAL_SURFACE('',#1101,1.65,0.785398163397452);
#978=CONICAL_SURFACE('',#1134,1.125,0.785398163397448);
#979=CONICAL_SURFACE('',#1139,0.311881235060742,0.0872664625997162);
#980=ADVANCED_FACE('',(#890),#968,.F.);
#981=ADVANCED_FACE('',(#891),#969,.F.);
#982=ADVANCED_FACE('',(#892),#970,.F.);
#983=ADVANCED_FACE('',(#893),#971,.F.);
#984=ADVANCED_FACE('',(#894),#972,.T.);
#985=ADVANCED_FACE('',(#895),#973,.T.);
#986=ADVANCED_FACE('',(#896),#222,.T.);
#987=ADVANCED_FACE('',(#897),#223,.T.);
#988=ADVANCED_FACE('',(#898),#224,.F.);
#989=ADVANCED_FACE('',(#899),#225,.F.);
#990=ADVANCED_FACE('',(#900),#226,.T.);
#991=ADVANCED_FACE('',(#901),#227,.T.);
#992=ADVANCED_FACE('',(#902),#228,.F.);
#993=ADVANCED_FACE('',(#903),#229,.F.);
#994=ADVANCED_FACE('',(#904),#230,.F.);
#995=ADVANCED_FACE('',(#905),#231,.F.);
#996=ADVANCED_FACE('',(#906),#232,.F.);
#997=ADVANCED_FACE('',(#907,#908,#909),#233,.F.);
#998=ADVANCED_FACE('',(#910,#911),#24,.F.);
#999=ADVANCED_FACE('',(#912,#913),#974,.F.);
#1000=ADVANCED_FACE('',(#914,#915),#25,.F.);
#1001=ADVANCED_FACE('',(#916,#917),#975,.F.);
#1002=ADVANCED_FACE('',(#918,#919),#26,.F.);
#1003=ADVANCED_FACE('',(#920,#921),#976,.F.);
#1004=ADVANCED_FACE('',(#922,#923),#234,.F.);
#1005=ADVANCED_FACE('',(#924,#925),#977,.T.);
#1006=ADVANCED_FACE('',(#926,#927),#27,.T.);
#1007=ADVANCED_FACE('',(#928),#235,.T.);
#1008=ADVANCED_FACE('',(#929),#236,.T.);
#1009=ADVANCED_FACE('',(#930),#237,.F.);
#1010=ADVANCED_FACE('',(#931),#238,.T.);
#1011=ADVANCED_FACE('',(#932),#239,.T.);
#1012=ADVANCED_FACE('',(#933),#240,.T.);
#1013=ADVANCED_FACE('',(#934),#241,.T.);
#1014=ADVANCED_FACE('',(#935),#242,.T.);
#1015=ADVANCED_FACE('',(#936),#243,.T.);
#1016=ADVANCED_FACE('',(#937),#244,.T.);
#1017=ADVANCED_FACE('',(#938),#245,.T.);
#1018=ADVANCED_FACE('',(#939),#246,.T.);
#1019=ADVANCED_FACE('',(#940),#247,.T.);
#1020=ADVANCED_FACE('',(#941),#248,.T.);
#1021=ADVANCED_FACE('',(#942),#249,.T.);
#1022=ADVANCED_FACE('',(#943),#250,.T.);
#1023=ADVANCED_FACE('',(#944),#251,.T.);
#1024=ADVANCED_FACE('',(#945),#252,.T.);
#1025=ADVANCED_FACE('',(#946),#253,.T.);
#1026=ADVANCED_FACE('',(#947),#254,.F.);
#1027=ADVANCED_FACE('',(#948),#255,.F.);
#1028=ADVANCED_FACE('',(#949),#256,.F.);
#1029=ADVANCED_FACE('',(#950),#257,.F.);
#1030=ADVANCED_FACE('',(#951,#952),#258,.F.);
#1031=ADVANCED_FACE('',(#953,#954),#28,.T.);
#1032=ADVANCED_FACE('',(#955,#956),#978,.F.);
#1033=ADVANCED_FACE('',(#957,#958),#259,.F.);
#1034=ADVANCED_FACE('',(#959),#260,.F.);
#1035=ADVANCED_FACE('',(#960,#961),#979,.T.);
#1036=ADVANCED_FACE('',(#962,#963),#29,.T.);
#1037=ADVANCED_FACE('',(#964),#261,.F.);
#1038=ADVANCED_FACE('',(#965),#262,.F.);
#1039=ADVANCED_FACE('',(#966),#263,.F.);
#1040=ADVANCED_FACE('',(#967),#264,.F.);
#1041=CLOSED_SHELL('',(#980,#981,#982,#983,#984,#985,#986,#987,#988,#989,
#990,#991,#992,#993,#994,#995,#996,#997,#998,#999,#1000,#1001,#1002,#1003,
#1004,#1005,#1006,#1007,#1008,#1009,#1010,#1011,#1012,#1013,#1014,#1015,
#1016,#1017,#1018,#1019,#1020,#1021,#1022,#1023,#1024,#1025,#1026,#1027,
#1028,#1029,#1030,#1031,#1032,#1033,#1034,#1035,#1036,#1037,#1038,#1039,
#1040));
#1042=STYLED_ITEM('',(#1043),#1050);
#1043=PRESENTATION_STYLE_ASSIGNMENT((#1044));
#1044=SURFACE_STYLE_USAGE(.BOTH.,#1045);
#1045=SURFACE_SIDE_STYLE('',(#1046));
#1046=SURFACE_STYLE_FILL_AREA(#1047);
#1047=FILL_AREA_STYLE('',(#1048));
#1048=FILL_AREA_STYLE_COLOUR('',#1049);
#1049=COLOUR_RGB('',0.831372559070587,0.701960802078247,0.176470592617989);
#1050=MANIFOLD_SOLID_BREP('MMCX-J-P-H-RA-SM1_body',#1041);
#1051=SHAPE_DEFINITION_REPRESENTATION(#1766,#1053);
#1052=SHAPE_DEFINITION_REPRESENTATION(#1767,#1054);
#1053=SHAPE_REPRESENTATION('MMCX-J-P-H-RA-SM1',(#1055,#1146),#1759);
#1054=SHAPE_REPRESENTATION('MMCX-J-P-H-RA-SM1_body',(#1055),#1760);
#1055=AXIS2_PLACEMENT_3D('',#1427,#1147,#1148);
#1056=AXIS2_PLACEMENT_3D('',#1428,#1149,#1150);
#1057=AXIS2_PLACEMENT_3D('',#1429,#1151,#1152);
#1058=AXIS2_PLACEMENT_3D('',#1437,#1153,#1154);
#1059=AXIS2_PLACEMENT_3D('',#1443,#1155,#1156);
#1060=AXIS2_PLACEMENT_3D('',#1444,#1157,#1158);
#1061=AXIS2_PLACEMENT_3D('',#1452,#1159,#1160);
#1062=AXIS2_PLACEMENT_3D('',#1458,#1161,#1162);
#1063=AXIS2_PLACEMENT_3D('',#1464,#1163,#1164);
#1064=AXIS2_PLACEMENT_3D('',#1470,#1165,#1166);
#1065=AXIS2_PLACEMENT_3D('',#1476,#1167,#1168);
#1066=AXIS2_PLACEMENT_3D('',#1482,#1169,#1170);
#1067=AXIS2_PLACEMENT_3D('',#1483,#1171,#1172);
#1068=AXIS2_PLACEMENT_3D('',#1491,#1173,#1174);
#1069=AXIS2_PLACEMENT_3D('',#1497,#1175,#1176);
#1070=AXIS2_PLACEMENT_3D('',#1498,#1177,#1178);
#1071=AXIS2_PLACEMENT_3D('',#1506,#1179,#1180);
#1072=AXIS2_PLACEMENT_3D('',#1512,#1181,#1182);
#1073=AXIS2_PLACEMENT_3D('',#1515,#1185,#1186);
#1074=AXIS2_PLACEMENT_3D('',#1518,#1189,#1190);
#1075=AXIS2_PLACEMENT_3D('',#1537,#1200,#1201);
#1076=AXIS2_PLACEMENT_3D('',#1556,#1211,#1212);
#1077=AXIS2_PLACEMENT_3D('',#1563,#1216,#1217);
#1078=AXIS2_PLACEMENT_3D('',#1564,#1218,#1219);
#1079=AXIS2_PLACEMENT_3D('',#1570,#1223,#1224);
#1080=AXIS2_PLACEMENT_3D('',#1571,#1225,#1226);
#1081=AXIS2_PLACEMENT_3D('',#1582,#1233,#1234);
#1082=AXIS2_PLACEMENT_3D('',#1590,#1239,#1240);
#1083=AXIS2_PLACEMENT_3D('',#1598,#1245,#1246);
#1084=AXIS2_PLACEMENT_3D('',#1606,#1251,#1252);
#1085=AXIS2_PLACEMENT_3D('',#1614,#1257,#1258);
#1086=AXIS2_PLACEMENT_3D('',#1615,#1259,#1260);
#1087=AXIS2_PLACEMENT_3D('',#1621,#1265,#1266);
#1088=AXIS2_PLACEMENT_3D('',#1622,#1267,#1268);
#1089=AXIS2_PLACEMENT_3D('',#1624,#1269,#1270);
#1090=AXIS2_PLACEMENT_3D('',#1625,#1271,#1272);
#1091=AXIS2_PLACEMENT_3D('',#1627,#1273,#1274);
#1092=AXIS2_PLACEMENT_3D('',#1628,#1275,#1276);
#1093=AXIS2_PLACEMENT_3D('',#1630,#1277,#1278);
#1094=AXIS2_PLACEMENT_3D('',#1631,#1279,#1280);
#1095=AXIS2_PLACEMENT_3D('',#1633,#1281,#1282);
#1096=AXIS2_PLACEMENT_3D('',#1634,#1283,#1284);
#1097=AXIS2_PLACEMENT_3D('',#1636,#1285,#1286);
#1098=AXIS2_PLACEMENT_3D('',#1637,#1287,#1288);
#1099=AXIS2_PLACEMENT_3D('',#1639,#1289,#1290);
#1100=AXIS2_PLACEMENT_3D('',#1640,#1291,#1292);
#1101=AXIS2_PLACEMENT_3D('',#1642,#1293,#1294);
#1102=AXIS2_PLACEMENT_3D('',#1643,#1295,#1296);
#1103=AXIS2_PLACEMENT_3D('',#1645,#1297,#1298);
#1104=AXIS2_PLACEMENT_3D('',#1646,#1299,#1300);
#1105=AXIS2_PLACEMENT_3D('',#1648,#1301,#1302);
#1106=AXIS2_PLACEMENT_3D('',#1649,#1303,#1304);
#1107=AXIS2_PLACEMENT_3D('',#1651,#1306,#1307);
#1108=AXIS2_PLACEMENT_3D('',#1653,#1309,#1310);
#1109=AXIS2_PLACEMENT_3D('',#1654,#1311,#1312);
#1110=AXIS2_PLACEMENT_3D('',#1662,#1317,#1318);
#1111=AXIS2_PLACEMENT_3D('',#1666,#1321,#1322);
#1112=AXIS2_PLACEMENT_3D('',#1670,#1325,#1326);
#1113=AXIS2_PLACEMENT_3D('',#1676,#1330,#1331);
#1114=AXIS2_PLACEMENT_3D('',#1680,#1334,#1335);
#1115=AXIS2_PLACEMENT_3D('',#1686,#1339,#1340);
#1116=AXIS2_PLACEMENT_3D('',#1694,#1345,#1346);
#1117=AXIS2_PLACEMENT_3D('',#1699,#1350,#1351);
#1118=AXIS2_PLACEMENT_3D('',#1703,#1354,#1355);
#1119=AXIS2_PLACEMENT_3D('',#1709,#1359,#1360);
#1120=AXIS2_PLACEMENT_3D('',#1715,#1364,#1365);
#1121=AXIS2_PLACEMENT_3D('',#1720,#1369,#1370);
#1122=AXIS2_PLACEMENT_3D('',#1723,#1373,#1374);
#1123=AXIS2_PLACEMENT_3D('',#1726,#1377,#1378);
#1124=AXIS2_PLACEMENT_3D('',#1728,#1380,#1381);
#1125=AXIS2_PLACEMENT_3D('',#1730,#1383,#1384);
#1126=AXIS2_PLACEMENT_3D('',#1731,#1385,#1386);
#1127=AXIS2_PLACEMENT_3D('',#1732,#1387,#1388);
#1128=AXIS2_PLACEMENT_3D('',#1733,#1389,#1390);
#1129=AXIS2_PLACEMENT_3D('',#1734,#1391,#1392);
#1130=AXIS2_PLACEMENT_3D('',#1735,#1393,#1394);
#1131=AXIS2_PLACEMENT_3D('',#1737,#1395,#1396);
#1132=AXIS2_PLACEMENT_3D('',#1738,#1397,#1398);
#1133=AXIS2_PLACEMENT_3D('',#1740,#1399,#1400);
#1134=AXIS2_PLACEMENT_3D('',#1742,#1401,#1402);
#1135=AXIS2_PLACEMENT_3D('',#1743,#1403,#1404);
#1136=AXIS2_PLACEMENT_3D('',#1744,#1405,#1406);
#1137=AXIS2_PLACEMENT_3D('',#1746,#1407,#1408);
#1138=AXIS2_PLACEMENT_3D('',#1747,#1409,#1410);
#1139=AXIS2_PLACEMENT_3D('',#1749,#1411,#1412);
#1140=AXIS2_PLACEMENT_3D('',#1750,#1413,#1414);
#1141=AXIS2_PLACEMENT_3D('',#1752,#1415,#1416);
#1142=AXIS2_PLACEMENT_3D('',#1753,#1417,#1418);
#1143=AXIS2_PLACEMENT_3D('',#1754,#1419,#1420);
#1144=AXIS2_PLACEMENT_3D('',#1755,#1421,#1422);
#1145=AXIS2_PLACEMENT_3D('',#1756,#1423,#1424);
#1146=AXIS2_PLACEMENT_3D('',#1757,#1425,#1426);
#1147=DIRECTION('',(0.,0.,1.));
#1148=DIRECTION('',(1.,0.,0.));
#1149=DIRECTION('',(0.,1.,0.));
#1150=DIRECTION('',(0.,0.,1.));
#1151=DIRECTION('',(0.,-1.,0.));
#1152=DIRECTION('',(0.,0.,-1.));
#1153=DIRECTION('',(0.,-1.,0.));
#1154=DIRECTION('',(0.,0.,-1.));
#1155=DIRECTION('',(0.,1.,0.));
#1156=DIRECTION('',(0.,0.,1.));
#1157=DIRECTION('',(0.,-1.,0.));
#1158=DIRECTION('',(0.,0.,-1.));
#1159=DIRECTION('',(0.,-1.,0.));
#1160=DIRECTION('',(0.,0.,-1.));
#1161=DIRECTION('',(0.,-1.,0.));
#1162=DIRECTION('',(0.,0.,-1.));
#1163=DIRECTION('',(0.,-1.,0.));
#1164=DIRECTION('',(0.,0.,-1.));
#1165=DIRECTION('',(0.,-1.,0.));
#1166=DIRECTION('',(0.,0.,-1.));
#1167=DIRECTION('',(0.,-1.,0.));
#1168=DIRECTION('',(0.,0.,-1.));
#1169=DIRECTION('',(0.,-1.,0.));
#1170=DIRECTION('',(0.,0.,-1.));
#1171=DIRECTION('',(0.,-1.,0.));
#1172=DIRECTION('',(0.,0.,-1.));
#1173=DIRECTION('',(0.,-1.,0.));
#1174=DIRECTION('',(0.,0.,-1.));
#1175=DIRECTION('',(0.,-1.,0.));
#1176=DIRECTION('',(0.,0.,-1.));
#1177=DIRECTION('',(0.,-1.,0.));
#1178=DIRECTION('',(0.,0.,-1.));
#1179=DIRECTION('',(0.,-1.,0.));
#1180=DIRECTION('',(0.,0.,-1.));
#1181=DIRECTION('',(0.,1.,0.));
#1182=DIRECTION('',(0.,0.,1.));
#1183=DIRECTION('',(1.,0.,0.));
#1184=DIRECTION('',(1.,0.,0.));
#1185=DIRECTION('',(0.,1.,0.));
#1186=DIRECTION('',(0.,0.,1.));
#1187=DIRECTION('',(-1.,0.,0.));
#1188=DIRECTION('',(-1.,0.,0.));
#1189=DIRECTION('',(0.,0.,1.));
#1190=DIRECTION('',(1.,0.,0.));
#1191=DIRECTION('',(-1.,0.,0.));
#1192=DIRECTION('',(0.,1.,0.));
#1193=DIRECTION('',(1.,0.,0.));
#1194=DIRECTION('',(0.,1.,0.));
#1195=DIRECTION('',(-1.,0.,0.));
#1196=DIRECTION('',(-1.,0.,0.));
#1197=DIRECTION('',(0.,-1.,0.));
#1198=DIRECTION('',(-1.,0.,0.));
#1199=DIRECTION('',(0.,1.,0.));
#1200=DIRECTION('',(0.,0.,-1.));
#1201=DIRECTION('',(-1.,0.,0.));
#1202=DIRECTION('',(-1.,0.,0.));
#1203=DIRECTION('',(0.,-1.,0.));
#1204=DIRECTION('',(1.,0.,0.));
#1205=DIRECTION('',(0.,-1.,0.));
#1206=DIRECTION('',(1.,0.,0.));
#1207=DIRECTION('',(0.,-1.,0.));
#1208=DIRECTION('',(1.,0.,0.));
#1209=DIRECTION('',(1.,0.,0.));
#1210=DIRECTION('',(0.,-1.,0.));
#1211=DIRECTION('',(0.,1.,0.));
#1212=DIRECTION('',(0.,0.,1.));
#1213=DIRECTION('',(0.,0.,1.));
#1214=DIRECTION('',(1.,0.,0.));
#1215=DIRECTION('',(0.,0.,-1.));
#1216=DIRECTION('',(0.,-1.,0.));
#1217=DIRECTION('',(0.,0.,-1.));
#1218=DIRECTION('',(0.,1.,0.));
#1219=DIRECTION('',(0.,0.,1.));
#1220=DIRECTION('',(0.,0.,-1.));
#1221=DIRECTION('',(-1.,0.,0.));
#1222=DIRECTION('',(0.,0.,1.));
#1223=DIRECTION('',(0.,-1.,0.));
#1224=DIRECTION('',(0.,0.,-1.));
#1225=DIRECTION('',(0.,1.,0.));
#1226=DIRECTION('',(0.,0.,1.));
#1227=DIRECTION('',(-1.,0.,0.));
#1228=DIRECTION('',(0.,0.,-1.));
#1229=DIRECTION('',(1.,0.,0.));
#1230=DIRECTION('',(0.,0.,-1.));
#1231=DIRECTION('',(0.,0.,-1.));
#1232=DIRECTION('',(0.,0.,-1.));
#1233=DIRECTION('',(1.,0.,0.));
#1234=DIRECTION('',(0.,0.,-1.));
#1235=DIRECTION('',(0.,0.,-1.));
#1236=DIRECTION('',(0.,1.,0.));
#1237=DIRECTION('',(0.,0.,1.));
#1238=DIRECTION('',(0.,-1.,0.));
#1239=DIRECTION('',(1.,0.,0.));
#1240=DIRECTION('',(0.,0.,-1.));
#1241=DIRECTION('',(0.,0.,1.));
#1242=DIRECTION('',(0.,-1.,0.));
#1243=DIRECTION('',(0.,0.,-1.));
#1244=DIRECTION('',(0.,1.,0.));
#1245=DIRECTION('',(1.,0.,0.));
#1246=DIRECTION('',(0.,0.,-1.));
#1247=DIRECTION('',(0.,-1.,0.));
#1248=DIRECTION('',(0.,0.,-1.));
#1249=DIRECTION('',(0.,1.,0.));
#1250=DIRECTION('',(0.,0.,1.));
#1251=DIRECTION('',(1.,0.,0.));
#1252=DIRECTION('',(0.,0.,-1.));
#1253=DIRECTION('',(0.,0.,-1.));
#1254=DIRECTION('',(0.,1.,0.));
#1255=DIRECTION('',(0.,0.,1.));
#1256=DIRECTION('',(0.,-1.,0.));
#1257=DIRECTION('',(0.,-1.,0.));
#1258=DIRECTION('',(0.,0.,-1.));
#1259=DIRECTION('',(0.,-1.,0.));
#1260=DIRECTION('',(0.,0.,-1.));
#1261=DIRECTION('',(-1.,0.,0.));
#1262=DIRECTION('',(-1.,0.,0.));
#1263=DIRECTION('',(1.,0.,0.));
#1264=DIRECTION('',(1.,0.,0.));
#1265=DIRECTION('',(0.,-1.,0.));
#1266=DIRECTION('',(0.,0.,-1.));
#1267=DIRECTION('',(0.,-1.,0.));
#1268=DIRECTION('',(0.,0.,-1.));
#1269=DIRECTION('',(0.,1.,0.));
#1270=DIRECTION('',(0.,0.,1.));
#1271=DIRECTION('',(0.,-1.,0.));
#1272=DIRECTION('',(0.,0.,-1.));
#1273=DIRECTION('',(0.,-1.,0.));
#1274=DIRECTION('',(0.,0.,-1.));
#1275=DIRECTION('',(0.,-1.,0.));
#1276=DIRECTION('',(0.,0.,-1.));
#1277=DIRECTION('',(0.,-1.,0.));
#1278=DIRECTION('',(0.,0.,-1.));
#1279=DIRECTION('',(0.,-1.,0.));
#1280=DIRECTION('',(0.,0.,-1.));
#1281=DIRECTION('',(0.,-1.,0.));
#1282=DIRECTION('',(0.,0.,-1.));
#1283=DIRECTION('',(0.,-1.,0.));
#1284=DIRECTION('',(0.,0.,-1.));
#1285=DIRECTION('',(0.,1.,0.));
#1286=DIRECTION('',(0.,0.,1.));
#1287=DIRECTION('',(0.,-1.,0.));
#1288=DIRECTION('',(0.,0.,-1.));
#1289=DIRECTION('',(0.,-1.,0.));
#1290=DIRECTION('',(0.,0.,-1.));
#1291=DIRECTION('',(0.,-1.,0.));
#1292=DIRECTION('',(0.,0.,-1.));
#1293=DIRECTION('',(0.,-1.,0.));
#1294=DIRECTION('',(0.,0.,-1.));
#1295=DIRECTION('',(0.,-1.,0.));
#1296=DIRECTION('',(0.,0.,-1.));
#1297=DIRECTION('',(0.,-1.,0.));
#1298=DIRECTION('',(0.,0.,-1.));
#1299=DIRECTION('',(0.,-1.,0.));
#1300=DIRECTION('',(0.,0.,-1.));
#1301=DIRECTION('',(0.,-1.,0.));
#1302=DIRECTION('',(0.,0.,-1.));
#1303=DIRECTION('',(0.,1.,0.));
#1304=DIRECTION('',(0.,0.,1.));
#1305=DIRECTION('',(0.,0.,-1.));
#1306=DIRECTION('',(0.,1.,0.));
#1307=DIRECTION('',(0.,0.,1.));
#1308=DIRECTION('',(0.,0.,-1.));
#1309=DIRECTION('',(-1.,0.,0.));
#1310=DIRECTION('',(0.,0.,1.));
#1311=DIRECTION('',(0.,1.,0.));
#1312=DIRECTION('',(0.,0.,1.));
#1313=DIRECTION('',(1.,0.,0.));
#1314=DIRECTION('',(0.,0.,-1.));
#1315=DIRECTION('',(1.,0.,0.));
#1316=DIRECTION('',(0.,0.,1.));
#1317=DIRECTION('',(0.,0.,-1.));
#1318=DIRECTION('',(-1.,0.,0.));
#1319=DIRECTION('',(1.,0.,0.));
#1320=DIRECTION('',(0.,1.,0.));
#1321=DIRECTION('',(0.,-1.,0.));
#1322=DIRECTION('',(0.,0.,-1.));
#1323=DIRECTION('',(1.,0.,0.));
#1324=DIRECTION('',(0.,0.,-1.));
#1325=DIRECTION('',(0.,1.,0.));
#1326=DIRECTION('',(0.,0.,1.));
#1327=DIRECTION('',(1.,0.,0.));
#1328=DIRECTION('',(0.,0.,1.));
#1329=DIRECTION('',(1.,0.,0.));
#1330=DIRECTION('',(0.,0.,-1.));
#1331=DIRECTION('',(-1.,0.,0.));
#1332=DIRECTION('',(1.,0.,0.));
#1333=DIRECTION('',(0.,1.,0.));
#1334=DIRECTION('',(0.,-1.,0.));
#1335=DIRECTION('',(0.,0.,-1.));
#1336=DIRECTION('',(0.,0.,1.));
#1337=DIRECTION('',(1.,0.,0.));
#1338=DIRECTION('',(0.,0.,-1.));
#1339=DIRECTION('',(0.,1.,0.));
#1340=DIRECTION('',(0.,0.,1.));
#1341=DIRECTION('',(1.,0.,0.));
#1342=DIRECTION('',(0.,0.,-1.));
#1343=DIRECTION('',(1.,0.,0.));
#1344=DIRECTION('',(0.,0.,1.));
#1345=DIRECTION('',(0.,0.,-1.));
#1346=DIRECTION('',(-1.,0.,0.));
#1347=DIRECTION('',(0.,-1.,0.));
#1348=DIRECTION('',(1.,0.,0.));
#1349=DIRECTION('',(0.,1.,0.));
#1350=DIRECTION('',(0.,-1.,0.));
#1351=DIRECTION('',(0.,0.,-1.));
#1352=DIRECTION('',(1.,0.,0.));
#1353=DIRECTION('',(0.,0.,-1.));
#1354=DIRECTION('',(0.,1.,0.));
#1355=DIRECTION('',(0.,0.,1.));
#1356=DIRECTION('',(1.,0.,0.));
#1357=DIRECTION('',(0.,0.,1.));
#1358=DIRECTION('',(1.,0.,0.));
#1359=DIRECTION('',(0.,0.,-1.));
#1360=DIRECTION('',(-1.,0.,0.));
#1361=DIRECTION('',(0.,-1.,0.));
#1362=DIRECTION('',(1.,0.,0.));
#1363=DIRECTION('',(0.,1.,0.));
#1364=DIRECTION('',(0.,-1.,0.));
#1365=DIRECTION('',(0.,0.,-1.));
#1366=DIRECTION('',(0.,0.,1.));
#1367=DIRECTION('',(1.,0.,0.));
#1368=DIRECTION('',(0.,0.,-1.));
#1369=DIRECTION('',(0.,0.,1.));
#1370=DIRECTION('',(1.,0.,0.));
#1371=DIRECTION('',(0.,1.,0.));
#1372=DIRECTION('',(0.,-1.,0.));
#1373=DIRECTION('',(0.,0.,1.));
#1374=DIRECTION('',(1.,0.,0.));
#1375=DIRECTION('',(0.,1.,0.));
#1376=DIRECTION('',(0.,-1.,0.));
#1377=DIRECTION('',(0.,0.,1.));
#1378=DIRECTION('',(1.,0.,0.));
#1379=DIRECTION('',(0.,-1.,0.));
#1380=DIRECTION('',(0.,0.,1.));
#1381=DIRECTION('',(1.,0.,0.));
#1382=DIRECTION('',(0.,-1.,0.));
#1383=DIRECTION('',(1.,0.,0.));
#1384=DIRECTION('',(0.,0.,-1.));
#1385=DIRECTION('',(1.,0.,0.));
#1386=DIRECTION('',(0.,0.,-1.));
#1387=DIRECTION('',(1.,0.,0.));
#1388=DIRECTION('',(0.,0.,-1.));
#1389=DIRECTION('',(1.,0.,0.));
#1390=DIRECTION('',(0.,0.,-1.));
#1391=DIRECTION('',(1.,0.,0.));
#1392=DIRECTION('',(0.,0.,-1.));
#1393=DIRECTION('',(1.,0.,0.));
#1394=DIRECTION('',(0.,0.,-1.));
#1395=DIRECTION('',(1.,0.,0.));
#1396=DIRECTION('',(0.,0.,-1.));
#1397=DIRECTION('',(1.,0.,0.));
#1398=DIRECTION('',(0.,0.,-1.));
#1399=DIRECTION('',(1.,0.,0.));
#1400=DIRECTION('',(0.,0.,-1.));
#1401=DIRECTION('',(-1.,0.,0.));
#1402=DIRECTION('',(0.,0.,1.));
#1403=DIRECTION('',(1.,0.,0.));
#1404=DIRECTION('',(0.,0.,-1.));
#1405=DIRECTION('',(1.,0.,0.));
#1406=DIRECTION('',(0.,0.,-1.));
#1407=DIRECTION('',(1.,0.,0.));
#1408=DIRECTION('',(0.,0.,-1.));
#1409=DIRECTION('',(1.,0.,0.));
#1410=DIRECTION('',(0.,0.,-1.));
#1411=DIRECTION('',(1.,0.,0.));
#1412=DIRECTION('',(0.,0.,-1.));
#1413=DIRECTION('',(1.,0.,0.));
#1414=DIRECTION('',(0.,0.,-1.));
#1415=DIRECTION('',(1.,0.,0.));
#1416=DIRECTION('',(0.,0.,-1.));
#1417=DIRECTION('',(0.,0.0741084901953992,0.997250185099486));
#1418=DIRECTION('',(0.,0.997250185099486,-0.0741084901953992));
#1419=DIRECTION('',(0.,0.0741084901953992,-0.997250185099486));
#1420=DIRECTION('',(0.,0.997250185099486,0.0741084901953992));
#1421=DIRECTION('',(0.,0.0741084901953992,0.997250185099486));
#1422=DIRECTION('',(0.,0.997250185099486,-0.0741084901953992));
#1423=DIRECTION('',(0.,0.0741084901953992,-0.997250185099486));
#1424=DIRECTION('',(0.,0.997250185099486,0.0741084901953992));
#1425=DIRECTION('',(0.,0.,1.));
#1426=DIRECTION('',(1.,0.,0.));
#1427=CARTESIAN_POINT('',(0.,0.,0.));
#1428=CARTESIAN_POINT('',(0.,3.22,0.));
#1429=CARTESIAN_POINT('',(0.,3.22,0.));
#1430=CARTESIAN_POINT('',(-0.209593877724796,3.22,-0.0130539810128316));
#1431=CARTESIAN_POINT('',(0.209593877724796,3.22,-0.0130539810128316));
#1432=CARTESIAN_POINT('',(-0.209593877724796,3.22,-0.0130539810128316));
#1433=CARTESIAN_POINT('',(-0.186052061230794,3.19661175155252,-0.0147920281013709));
#1434=CARTESIAN_POINT('',(-0.162483004960496,3.17325089890938,-0.0165280393299753));
#1435=CARTESIAN_POINT('',(-0.138804621178794,3.15,-0.0182558795847135));
#1436=CARTESIAN_POINT('',(-0.138804621178794,3.15,-0.0182558795847134));
#1437=CARTESIAN_POINT('',(0.,3.15,0.));
#1438=CARTESIAN_POINT('',(0.138804621178794,3.15,-0.0182558795847134));
#1439=CARTESIAN_POINT('',(0.138804621178794,3.15,-0.0182558795847135));
#1440=CARTESIAN_POINT('',(0.162483004960496,3.17325089890938,-0.0165280393299753));
#1441=CARTESIAN_POINT('',(0.186052061230794,3.19661175155252,-0.0147920281013709));
#1442=CARTESIAN_POINT('',(0.209593877724796,3.22,-0.0130539810128316));
#1443=CARTESIAN_POINT('',(0.,3.22,0.));
#1444=CARTESIAN_POINT('',(0.,3.22,0.));
#1445=CARTESIAN_POINT('',(0.209593877724796,3.22,0.0130539810128316));
#1446=CARTESIAN_POINT('',(-0.209593877724796,3.22,0.0130539810128316));
#1447=CARTESIAN_POINT('',(0.209593877724796,3.22,0.0130539810128316));
#1448=CARTESIAN_POINT('',(0.186052061230794,3.19661175155252,0.0147920281013708));
#1449=CARTESIAN_POINT('',(0.162483004960496,3.17325089890938,0.0165280393299753));
#1450=CARTESIAN_POINT('',(0.138804621178794,3.15,0.0182558795847134));
#1451=CARTESIAN_POINT('',(0.138804621178794,3.15,0.0182558795847134));
#1452=CARTESIAN_POINT('',(0.,3.15,0.));
#1453=CARTESIAN_POINT('',(-0.138804621178794,3.15,0.0182558795847134));
#1454=CARTESIAN_POINT('',(-0.138804621178794,3.15,0.0182558795847135));
#1455=CARTESIAN_POINT('',(-0.162483004960496,3.17325089890938,0.0165280393299753));
#1456=CARTESIAN_POINT('',(-0.186052061230794,3.19661175155252,0.0147920281013709));
#1457=CARTESIAN_POINT('',(-0.209593877724796,3.22,0.0130539810128316));
#1458=CARTESIAN_POINT('',(0.,3.15,0.));
#1459=CARTESIAN_POINT('',(-0.138804621178794,3.15,-0.0182558795847135));
#1460=CARTESIAN_POINT('',(-0.175537145233369,2.78361494810378,-0.0454829921306819));
#1461=CARTESIAN_POINT('',(-0.208006268788912,2.41682429369278,-0.0727402461501133));
#1462=CARTESIAN_POINT('',(-0.24,2.05,-0.1));
#1463=CARTESIAN_POINT('',(-0.24,2.05,-0.1));
#1464=CARTESIAN_POINT('',(0.,2.05,0.));
#1465=CARTESIAN_POINT('',(0.24,2.05,-0.1));
#1466=CARTESIAN_POINT('',(0.24,2.05,-0.1));
#1467=CARTESIAN_POINT('',(0.208006224102118,2.41682480604946,-0.0727402080754355));
#1468=CARTESIAN_POINT('',(0.175537273446964,2.78361366924954,-0.0454830871659687));
#1469=CARTESIAN_POINT('',(0.138804621178794,3.15,-0.0182558795847134));
#1470=CARTESIAN_POINT('',(0.,3.15,0.));
#1471=CARTESIAN_POINT('',(0.138804621178794,3.15,0.0182558795847135));
#1472=CARTESIAN_POINT('',(0.175537145233369,2.78361494810378,0.0454829921306819));
#1473=CARTESIAN_POINT('',(0.208006268788912,2.41682429369278,0.0727402461501133));
#1474=CARTESIAN_POINT('',(0.24,2.05,0.1));
#1475=CARTESIAN_POINT('',(0.24,2.05,0.1));
#1476=CARTESIAN_POINT('',(0.,2.05,0.));
#1477=CARTESIAN_POINT('',(-0.24,2.05,0.1));
#1478=CARTESIAN_POINT('',(-0.24,2.05,0.1));
#1479=CARTESIAN_POINT('',(-0.208006224102118,2.41682480604946,0.0727402080754355));
#1480=CARTESIAN_POINT('',(-0.175537273446964,2.78361366924954,0.0454830871659687));
#1481=CARTESIAN_POINT('',(-0.138804621178794,3.15,0.0182558795847135));
#1482=CARTESIAN_POINT('',(0.,2.05,0.));
#1483=CARTESIAN_POINT('',(0.,3.22,0.));
#1484=CARTESIAN_POINT('',(-0.229629252447759,3.22,-0.0130539810128316));
#1485=CARTESIAN_POINT('',(0.229629252447759,3.22,-0.0130539810128316));
#1486=CARTESIAN_POINT('',(0.229629252447759,3.22,-0.0130539810128316));
#1487=CARTESIAN_POINT('',(0.268017836260119,2.83028858235699,-0.0420145419683066));
#1488=CARTESIAN_POINT('',(0.30229485484945,2.44019053959568,-0.0710038341330771));
#1489=CARTESIAN_POINT('',(0.335410196624968,2.05,-0.1));
#1490=CARTESIAN_POINT('',(0.335410196624968,2.05,-0.1));
#1491=CARTESIAN_POINT('',(0.,2.05,0.));
#1492=CARTESIAN_POINT('',(-0.335410196624968,2.05,-0.1));
#1493=CARTESIAN_POINT('',(-0.335410196624968,2.05,-0.1));
#1494=CARTESIAN_POINT('',(-0.302294843272158,2.44019067600828,-0.0710038239958699));
#1495=CARTESIAN_POINT('',(-0.268017858682119,2.83028835473438,-0.0420145588835879));
#1496=CARTESIAN_POINT('',(-0.229629252447759,3.22,-0.0130539810128316));
#1497=CARTESIAN_POINT('',(0.,2.05,0.));
#1498=CARTESIAN_POINT('',(0.,3.22,0.));
#1499=CARTESIAN_POINT('',(0.229629252447759,3.22,0.0130539810128316));
#1500=CARTESIAN_POINT('',(-0.229629252447759,3.22,0.0130539810128316));
#1501=CARTESIAN_POINT('',(-0.229629252447759,3.22,0.0130539810128316));
#1502=CARTESIAN_POINT('',(-0.268017836260119,2.83028858235699,0.0420145419683066));
#1503=CARTESIAN_POINT('',(-0.30229485484945,2.44019053959568,0.0710038341330771));
#1504=CARTESIAN_POINT('',(-0.335410196624968,2.05,0.1));
#1505=CARTESIAN_POINT('',(-0.335410196624968,2.05,0.1));
#1506=CARTESIAN_POINT('',(0.,2.05,0.));
#1507=CARTESIAN_POINT('',(0.335410196624968,2.05,0.1));
#1508=CARTESIAN_POINT('',(0.335410196624968,2.05,0.1));
#1509=CARTESIAN_POINT('',(0.302294843272158,2.44019067600828,0.0710038239958699));
#1510=CARTESIAN_POINT('',(0.268017858682119,2.83028835473438,0.0420145588835879));
#1511=CARTESIAN_POINT('',(0.229629252447759,3.22,0.0130539810128316));
#1512=CARTESIAN_POINT('',(0.23,3.22,0.));
#1513=CARTESIAN_POINT('',(0.35,3.22,-0.0130539810128316));
#1514=CARTESIAN_POINT('',(0.35,3.22,-0.0130539810128316));
#1515=CARTESIAN_POINT('',(0.23,3.22,0.));
#1516=CARTESIAN_POINT('',(-0.35,3.22,0.0130539810128316));
#1517=CARTESIAN_POINT('',(-0.35,3.22,0.0130539810128316));
#1518=CARTESIAN_POINT('',(1.75,1.75,-1.75));
#1519=CARTESIAN_POINT('',(1.75,-1.02,-1.75));
#1520=CARTESIAN_POINT('',(-1.75,-1.02,-1.75));
#1521=CARTESIAN_POINT('',(-2.05,-1.02,-1.75));
#1522=CARTESIAN_POINT('',(-1.75,1.75,-1.75));
#1523=CARTESIAN_POINT('',(-1.75,1.02,-1.75));
#1524=CARTESIAN_POINT('',(1.75,1.02,-1.75));
#1525=CARTESIAN_POINT('',(-2.05,1.02,-1.75));
#1526=CARTESIAN_POINT('',(-2.05,-1.75,-1.75));
#1527=CARTESIAN_POINT('',(-2.05,1.75,-1.75));
#1528=CARTESIAN_POINT('',(1.75,1.75,-1.75));
#1529=CARTESIAN_POINT('',(0.,1.75,-1.75));
#1530=CARTESIAN_POINT('',(1.75,1.75,-1.75));
#1531=CARTESIAN_POINT('',(1.75,1.75,-1.75));
#1532=CARTESIAN_POINT('',(1.75,1.75,-1.75));
#1533=CARTESIAN_POINT('',(1.75,-1.75,-1.75));
#1534=CARTESIAN_POINT('',(1.75,-1.75,-1.75));
#1535=CARTESIAN_POINT('',(-2.05,-1.75,-1.75));
#1536=CARTESIAN_POINT('',(-2.05,-1.75,-1.75));
#1537=CARTESIAN_POINT('',(-2.85,1.75,1.75));
#1538=CARTESIAN_POINT('',(-2.85,1.02,1.75));
#1539=CARTESIAN_POINT('',(-1.75,1.02,1.75));
#1540=CARTESIAN_POINT('',(-2.05,1.02,1.75));
#1541=CARTESIAN_POINT('',(-1.75,1.75,1.75));
#1542=CARTESIAN_POINT('',(-1.75,-1.02,1.75));
#1543=CARTESIAN_POINT('',(-2.85,-1.02,1.75));
#1544=CARTESIAN_POINT('',(-2.05,-1.02,1.75));
#1545=CARTESIAN_POINT('',(-2.05,1.75,1.75));
#1546=CARTESIAN_POINT('',(-2.05,-1.75,1.75));
#1547=CARTESIAN_POINT('',(-2.85,-1.75,1.75));
#1548=CARTESIAN_POINT('',(1.75,-1.75,1.75));
#1549=CARTESIAN_POINT('',(1.75,1.75,1.75));
#1550=CARTESIAN_POINT('',(1.75,1.75,1.75));
#1551=CARTESIAN_POINT('',(-2.85,1.75,1.75));
#1552=CARTESIAN_POINT('',(0.,1.75,1.75));
#1553=CARTESIAN_POINT('',(-2.85,1.75,1.75));
#1554=CARTESIAN_POINT('',(-2.05,1.75,1.75));
#1555=CARTESIAN_POINT('',(-2.05,1.75,1.75));
#1556=CARTESIAN_POINT('',(0.,1.75,0.));
#1557=CARTESIAN_POINT('',(-2.05,1.75,-1.75));
#1558=CARTESIAN_POINT('',(-2.05,1.75,-1.02));
#1559=CARTESIAN_POINT('',(0.,1.75,-1.02));
#1560=CARTESIAN_POINT('',(-1.75,1.75,-1.02));
#1561=CARTESIAN_POINT('',(-1.75,1.75,0.));
#1562=CARTESIAN_POINT('',(-1.75,1.75,0.));
#1563=CARTESIAN_POINT('',(0.,1.75,0.));
#1564=CARTESIAN_POINT('',(0.,1.75,0.));
#1565=CARTESIAN_POINT('',(-1.75,1.75,0.));
#1566=CARTESIAN_POINT('',(-1.75,1.75,1.02));
#1567=CARTESIAN_POINT('',(0.,1.75,1.02));
#1568=CARTESIAN_POINT('',(-2.05,1.75,1.02));
#1569=CARTESIAN_POINT('',(-2.05,1.75,-1.75));
#1570=CARTESIAN_POINT('',(0.,1.75,0.));
#1571=CARTESIAN_POINT('',(0.,-1.75,0.));
#1572=CARTESIAN_POINT('',(0.,-1.75,1.02));
#1573=CARTESIAN_POINT('',(-1.75,-1.75,1.02));
#1574=CARTESIAN_POINT('',(-2.05,-1.75,1.02));
#1575=CARTESIAN_POINT('',(-1.75,-1.75,0.));
#1576=CARTESIAN_POINT('',(-1.75,-1.75,-1.02));
#1577=CARTESIAN_POINT('',(0.,-1.75,-1.02));
#1578=CARTESIAN_POINT('',(-2.05,-1.75,-1.02));
#1579=CARTESIAN_POINT('',(-2.05,-1.75,1.75));
#1580=CARTESIAN_POINT('',(1.75,-1.75,1.75));
#1581=CARTESIAN_POINT('',(-2.05,-1.75,1.75));
#1582=CARTESIAN_POINT('',(-2.05,0.,0.));
#1583=CARTESIAN_POINT('',(-2.05,1.02,0.));
#1584=CARTESIAN_POINT('',(-2.05,1.02,1.52));
#1585=CARTESIAN_POINT('',(-2.05,0.,1.02));
#1586=CARTESIAN_POINT('',(-2.05,1.52,1.02));
#1587=CARTESIAN_POINT('',(-2.05,1.52,1.02));
#1588=CARTESIAN_POINT('',(-2.05,1.52,1.52));
#1589=CARTESIAN_POINT('',(-2.05,1.52,1.52));
#1590=CARTESIAN_POINT('',(-2.05,0.,0.));
#1591=CARTESIAN_POINT('',(-2.05,-1.02,0.));
#1592=CARTESIAN_POINT('',(-2.05,-1.02,1.52));
#1593=CARTESIAN_POINT('',(-2.05,-1.02,1.52));
#1594=CARTESIAN_POINT('',(-2.05,-1.52,1.52));
#1595=CARTESIAN_POINT('',(-2.05,-1.52,1.52));
#1596=CARTESIAN_POINT('',(-2.05,-1.52,1.02));
#1597=CARTESIAN_POINT('',(-2.05,0.,1.02));
#1598=CARTESIAN_POINT('',(-2.05,0.,0.));
#1599=CARTESIAN_POINT('',(-2.05,0.,-1.02));
#1600=CARTESIAN_POINT('',(-2.05,-1.52,-1.02));
#1601=CARTESIAN_POINT('',(-2.05,-1.52,-1.02));
#1602=CARTESIAN_POINT('',(-2.05,-1.52,-1.52));
#1603=CARTESIAN_POINT('',(-2.05,-1.52,-1.52));
#1604=CARTESIAN_POINT('',(-2.05,-1.02,-1.52));
#1605=CARTESIAN_POINT('',(-2.05,-1.02,0.));
#1606=CARTESIAN_POINT('',(-2.05,0.,0.));
#1607=CARTESIAN_POINT('',(-2.05,1.02,0.));
#1608=CARTESIAN_POINT('',(-2.05,1.02,-1.52));
#1609=CARTESIAN_POINT('',(-2.05,1.02,-1.52));
#1610=CARTESIAN_POINT('',(-2.05,1.52,-1.52));
#1611=CARTESIAN_POINT('',(-2.05,1.52,-1.52));
#1612=CARTESIAN_POINT('',(-2.05,1.52,-1.02));
#1613=CARTESIAN_POINT('',(-2.05,0.,-1.02));
#1614=CARTESIAN_POINT('',(0.,2.05,0.));
#1615=CARTESIAN_POINT('',(0.,2.05,0.));
#1616=CARTESIAN_POINT('',(0.,2.05,-1.205));
#1617=CARTESIAN_POINT('',(0.35,2.05,-0.1));
#1618=CARTESIAN_POINT('',(0.35,2.05,-0.1));
#1619=CARTESIAN_POINT('',(-0.35,2.05,0.1));
#1620=CARTESIAN_POINT('',(-0.35,2.05,0.1));
#1621=CARTESIAN_POINT('',(0.,1.75,0.));
#1622=CARTESIAN_POINT('',(0.,3.65,0.));
#1623=CARTESIAN_POINT('',(0.,3.65,-1.205));
#1624=CARTESIAN_POINT('',(0.,3.65,0.));
#1625=CARTESIAN_POINT('',(0.,3.82609183210284,0.));
#1626=CARTESIAN_POINT('',(0.,3.82609183210284,-1.51));
#1627=CARTESIAN_POINT('',(0.,1.75,0.));
#1628=CARTESIAN_POINT('',(0.,4.12742,0.));
#1629=CARTESIAN_POINT('',(0.,4.12742,-1.51));
#1630=CARTESIAN_POINT('',(0.,4.12742,0.));
#1631=CARTESIAN_POINT('',(0.,4.37,0.));
#1632=CARTESIAN_POINT('',(0.,4.37,-1.445));
#1633=CARTESIAN_POINT('',(0.,1.75,0.));
#1634=CARTESIAN_POINT('',(0.,4.625,0.));
#1635=CARTESIAN_POINT('',(0.,4.625,-1.445));
#1636=CARTESIAN_POINT('',(0.,4.625,0.));
#1637=CARTESIAN_POINT('',(0.,4.75,0.));
#1638=CARTESIAN_POINT('',(0.,4.75,-1.57));
#1639=CARTESIAN_POINT('',(1.57,4.75,0.));
#1640=CARTESIAN_POINT('',(0.,4.75,0.));
#1641=CARTESIAN_POINT('',(0.,4.75,-1.65));
#1642=CARTESIAN_POINT('',(0.,4.75,0.));
#1643=CARTESIAN_POINT('',(0.,4.65,0.));
#1644=CARTESIAN_POINT('',(0.,4.65,-1.75));
#1645=CARTESIAN_POINT('',(0.,1.75,0.));
#1646=CARTESIAN_POINT('',(0.,1.75,0.));
#1647=CARTESIAN_POINT('',(1.75,1.75,0.));
#1648=CARTESIAN_POINT('',(0.,1.75,0.));
#1649=CARTESIAN_POINT('',(0.,1.75,0.));
#1650=CARTESIAN_POINT('',(1.75,1.75,1.75));
#1651=CARTESIAN_POINT('',(0.,1.75,0.));
#1652=CARTESIAN_POINT('',(1.75,1.75,1.75));
#1653=CARTESIAN_POINT('',(1.75,1.75,1.75));
#1654=CARTESIAN_POINT('',(-2.85,-1.02,-1.52));
#1655=CARTESIAN_POINT('',(-2.85,-1.02,-1.02));
#1656=CARTESIAN_POINT('',(-2.85,-1.02,-1.02));
#1657=CARTESIAN_POINT('',(-1.75,-1.02,-1.02));
#1658=CARTESIAN_POINT('',(-1.75,-1.02,-1.02));
#1659=CARTESIAN_POINT('',(-2.85,-1.02,-1.52));
#1660=CARTESIAN_POINT('',(-2.85,-1.02,-1.52));
#1661=CARTESIAN_POINT('',(-2.85,-1.02,-1.52));
#1662=CARTESIAN_POINT('',(-2.85,-1.52,-1.52));
#1663=CARTESIAN_POINT('',(-2.85,-1.52,-1.52));
#1664=CARTESIAN_POINT('',(-2.85,-1.52,-1.52));
#1665=CARTESIAN_POINT('',(-2.85,-1.52,-1.52));
#1666=CARTESIAN_POINT('',(-2.85,-1.52,-1.02));
#1667=CARTESIAN_POINT('',(-2.85,-1.52,-1.02));
#1668=CARTESIAN_POINT('',(-2.85,-1.52,-1.02));
#1669=CARTESIAN_POINT('',(-2.85,-1.52,-1.02));
#1670=CARTESIAN_POINT('',(-2.85,1.52,-1.52));
#1671=CARTESIAN_POINT('',(-2.85,1.52,-1.52));
#1672=CARTESIAN_POINT('',(-2.85,1.52,-1.52));
#1673=CARTESIAN_POINT('',(-2.85,1.52,-1.52));
#1674=CARTESIAN_POINT('',(-2.85,1.52,-1.02));
#1675=CARTESIAN_POINT('',(-2.85,1.52,-1.02));
#1676=CARTESIAN_POINT('',(-2.85,1.02,-1.52));
#1677=CARTESIAN_POINT('',(-2.85,1.02,-1.52));
#1678=CARTESIAN_POINT('',(-2.85,1.02,-1.52));
#1679=CARTESIAN_POINT('',(-2.85,1.02,-1.52));
#1680=CARTESIAN_POINT('',(-2.85,1.02,-1.02));
#1681=CARTESIAN_POINT('',(-1.75,1.02,-2.00551738960299));
#1682=CARTESIAN_POINT('',(-1.75,1.02,-1.02));
#1683=CARTESIAN_POINT('',(-2.85,1.02,-1.02));
#1684=CARTESIAN_POINT('',(-2.85,1.02,-1.02));
#1685=CARTESIAN_POINT('',(-2.85,1.02,-1.02));
#1686=CARTESIAN_POINT('',(-2.85,-1.02,1.02));
#1687=CARTESIAN_POINT('',(-2.85,-1.02,1.52));
#1688=CARTESIAN_POINT('',(-2.85,-1.02,1.52));
#1689=CARTESIAN_POINT('',(-1.75,-1.02,2.00551738960299));
#1690=CARTESIAN_POINT('',(-1.75,-1.02,1.02));
#1691=CARTESIAN_POINT('',(-2.85,-1.02,1.02));
#1692=CARTESIAN_POINT('',(-2.85,-1.02,1.02));
#1693=CARTESIAN_POINT('',(-2.85,-1.02,1.02));
#1694=CARTESIAN_POINT('',(-2.85,-1.52,1.02));
#1695=CARTESIAN_POINT('',(-1.75,-1.02,1.02));
#1696=CARTESIAN_POINT('',(-2.85,-1.52,1.02));
#1697=CARTESIAN_POINT('',(-2.85,-1.52,1.02));
#1698=CARTESIAN_POINT('',(-2.85,-1.52,1.02));
#1699=CARTESIAN_POINT('',(-2.85,-1.52,1.52));
#1700=CARTESIAN_POINT('',(-2.85,-1.52,1.52));
#1701=CARTESIAN_POINT('',(-2.85,-1.52,1.52));
#1702=CARTESIAN_POINT('',(-2.85,-1.52,1.52));
#1703=CARTESIAN_POINT('',(-2.85,1.52,1.02));
#1704=CARTESIAN_POINT('',(-2.85,1.52,1.02));
#1705=CARTESIAN_POINT('',(-2.85,1.52,1.02));
#1706=CARTESIAN_POINT('',(-2.85,1.52,1.02));
#1707=CARTESIAN_POINT('',(-2.85,1.52,1.52));
#1708=CARTESIAN_POINT('',(-2.85,1.52,1.52));
#1709=CARTESIAN_POINT('',(-2.85,1.02,1.02));
#1710=CARTESIAN_POINT('',(-1.75,2.00551738960299,1.02));
#1711=CARTESIAN_POINT('',(-1.75,1.02,1.02));
#1712=CARTESIAN_POINT('',(-2.85,1.02,1.02));
#1713=CARTESIAN_POINT('',(-2.85,1.02,1.02));
#1714=CARTESIAN_POINT('',(-2.85,1.02,1.02));
#1715=CARTESIAN_POINT('',(-2.85,1.02,1.52));
#1716=CARTESIAN_POINT('',(-1.75,1.02,1.02));
#1717=CARTESIAN_POINT('',(-2.85,1.02,1.52));
#1718=CARTESIAN_POINT('',(-2.85,1.02,1.52));
#1719=CARTESIAN_POINT('',(-2.85,1.02,1.52));
#1720=CARTESIAN_POINT('',(-2.85,-1.02,-1.02));
#1721=CARTESIAN_POINT('',(-1.75,-2.00551738960299,-1.02));
#1722=CARTESIAN_POINT('',(-2.85,-1.02,-1.02));
#1723=CARTESIAN_POINT('',(-2.85,1.52,-1.02));
#1724=CARTESIAN_POINT('',(-1.75,1.02,-1.02));
#1725=CARTESIAN_POINT('',(-2.85,1.52,-1.02));
#1726=CARTESIAN_POINT('',(-2.85,-1.02,1.52));
#1727=CARTESIAN_POINT('',(-2.85,-1.02,1.52));
#1728=CARTESIAN_POINT('',(-2.85,1.52,1.52));
#1729=CARTESIAN_POINT('',(-2.85,1.52,1.52));
#1730=CARTESIAN_POINT('',(-2.85,1.75,-1.75));
#1731=CARTESIAN_POINT('',(-2.85,1.75,-1.75));
#1732=CARTESIAN_POINT('',(-2.85,1.75,-1.75));
#1733=CARTESIAN_POINT('',(-2.85,1.75,-1.75));
#1734=CARTESIAN_POINT('',(-1.75,-1.0842021724855E-16,2.60208521396521E-15));
#1735=CARTESIAN_POINT('',(-1.75,0.,0.));
#1736=CARTESIAN_POINT('',(-1.75,0.,-1.225));
#1737=CARTESIAN_POINT('',(-1.65,0.,0.));
#1738=CARTESIAN_POINT('',(-1.65,0.,0.));
#1739=CARTESIAN_POINT('',(-1.65,0.,-1.125));
#1740=CARTESIAN_POINT('',(-1.75,0.,0.));
#1741=CARTESIAN_POINT('',(-1.75,0.,-1.125));
#1742=CARTESIAN_POINT('',(-1.65,0.,0.));
#1743=CARTESIAN_POINT('',(-1.75,-1.0842021724855E-16,2.60208521396521E-15));
#1744=CARTESIAN_POINT('',(-1.75,0.,0.));
#1745=CARTESIAN_POINT('',(-1.75,0.,-0.36));
#1746=CARTESIAN_POINT('',(-2.85,0.,0.));
#1747=CARTESIAN_POINT('',(-2.85,0.,0.));
#1748=CARTESIAN_POINT('',(-2.85,0.,-0.311881235060742));
#1749=CARTESIAN_POINT('',(-2.85,0.,0.));
#1750=CARTESIAN_POINT('',(-2.3,0.,0.));
#1751=CARTESIAN_POINT('',(-2.3,0.,-0.36));
#1752=CARTESIAN_POINT('',(-1.75,0.,0.));
#1753=CARTESIAN_POINT('',(-0.35,2.05,0.1));
#1754=CARTESIAN_POINT('',(0.35,2.05,-0.1));
#1755=CARTESIAN_POINT('',(-0.35,2.05,0.1));
#1756=CARTESIAN_POINT('',(0.35,2.05,-0.1));
#1757=CARTESIAN_POINT('',(0.,0.,0.));
#1758=MECHANICAL_DESIGN_GEOMETRIC_PRESENTATION_REPRESENTATION('',(#1042),
#1759);
#1759=(
GEOMETRIC_REPRESENTATION_CONTEXT(3)
GLOBAL_UNCERTAINTY_ASSIGNED_CONTEXT((#1761))
GLOBAL_UNIT_ASSIGNED_CONTEXT((#1765,#1764,#1763))
REPRESENTATION_CONTEXT('MMCX-J-P-H-RA-SM1','TOP_LEVEL_ASSEMBLY_PART')
);
#1760=(
GEOMETRIC_REPRESENTATION_CONTEXT(3)
GLOBAL_UNCERTAINTY_ASSIGNED_CONTEXT((#1762))
GLOBAL_UNIT_ASSIGNED_CONTEXT((#1765,#1764,#1763))
REPRESENTATION_CONTEXT('MMCX-J-P-H-RA-SM1_body','COMPONENT_PART')
);
#1761=UNCERTAINTY_MEASURE_WITH_UNIT(LENGTH_MEASURE(1.E-5),#1765,
'DISTANCE_ACCURACY_VALUE','Maximum Tolerance applied to model');
#1762=UNCERTAINTY_MEASURE_WITH_UNIT(LENGTH_MEASURE(1.E-5),#1765,
'DISTANCE_ACCURACY_VALUE','Maximum Tolerance applied to model');
#1763=(
NAMED_UNIT(*)
SI_UNIT($,.STERADIAN.)
SOLID_ANGLE_UNIT()
);
#1764=(
NAMED_UNIT(*)
PLANE_ANGLE_UNIT()
SI_UNIT($,.RADIAN.)
);
#1765=(
LENGTH_UNIT()
NAMED_UNIT(*)
SI_UNIT(.MILLI.,.METRE.)
);
#1766=PRODUCT_DEFINITION_SHAPE('','',#1769);
#1767=PRODUCT_DEFINITION_SHAPE('','',#1770);
#1768=PRODUCT_DEFINITION_SHAPE(' ','NAUO PRDDFN',#19);
#1769=PRODUCT_DEFINITION('','',#1773,#1771);
#1770=PRODUCT_DEFINITION('','',#1774,#1772);
#1771=PRODUCT_DEFINITION_CONTEXT('',#1784,'design');
#1772=PRODUCT_DEFINITION_CONTEXT('',#1784,'design');
#1773=PRODUCT_DEFINITION_FORMATION_WITH_SPECIFIED_SOURCE('','',#1777,
 .NOT_KNOWN.);
#1774=PRODUCT_DEFINITION_FORMATION_WITH_SPECIFIED_SOURCE('','',#1778,
 .NOT_KNOWN.);
#1775=PRODUCT_RELATED_PRODUCT_CATEGORY('','',(#1777));
#1776=PRODUCT_RELATED_PRODUCT_CATEGORY('','',(#1778));
#1777=PRODUCT('MMCX-J-P-H-RA-SM1','MMCX-J-P-H-RA-SM1',
'MMCX-J-P-H-RA-SM1',(#1781));
#1778=PRODUCT('MMCX-J-P-H-RA-SM1_body','MMCX-J-P-H-RA-SM1_body',
'MMCX-J-P-H-RA-SM1_body',(#1782));
#1779=PRODUCT_CATEGORY('','');
#1780=PRODUCT_CATEGORY('','');
#1781=PRODUCT_CONTEXT('',#1784,'mechanical');
#1782=PRODUCT_CONTEXT('',#1784,'mechanical');
#1783=APPLICATION_PROTOCOL_DEFINITION('international standard',
'automotive_design',2010,#1784);
#1784=APPLICATION_CONTEXT(
'core data for automotive mechanical design processes');
ENDSEC;
END-ISO-10303-21;
